<svg version="1.1" xmlns="http://www.w3.org/2000/svg" viewBox="0 0 416.18269854305606 325.59621284570665" width="416.18269854305606" height="325.59621284570665" filter="invert(93%) hue-rotate(180deg)">
  <!-- svg-source:excalidraw -->
  
  <defs>
    <style class="style-fonts">
      @font-face {
        font-family: "Virgil";
        src: url("https://excalidraw.com/Virgil.woff2");
      }
      @font-face {
        font-family: "Cascadia";
        src: url("https://excalidraw.com/Cascadia.woff2");
      }
    </style>
    
  </defs>
  <g stroke-linecap="round"><g stroke-opacity="0.7" fill-opacity="0.7" transform="translate(376.3897845874593 69.892043322615) rotate(0 -91.00113915040843 30.197026728596995)"><path d="M-0.49 -1.91 C-44.58 -1.99, -90.47 -0.15, -141.72 -2.04 M-0.38 -0.59 C-55.8 1.12, -112.66 -0.68, -143.73 -0.8 M-144.63 -1.09 C-144.26 14.49, -141.03 25.68, -142.82 40.35 M-143.8 -0.99 C-142.2 12.78, -142.7 25.83, -143.62 39.86 M-143.88 37.66 C-147.22 39.63, -152.32 38.93, -167.9 38.93 M-142.02 38.85 C-150.4 38.59, -158.88 38.96, -165.9 38.93 M-165.91 38.28 C-165.12 45.39, -164.31 54.41, -164.26 62.44 M-166.52 39.36 C-166.76 44.71, -166.84 51.81, -165.58 60.28 M-166.77 61.19 C-169.65 61.98, -175.73 59.92, -181.21 59.92 M-166.53 61.35 C-169.21 61.18, -171.72 61.09, -181.62 60.93" stroke="#000000" stroke-width="1" fill="none"></path></g></g><mask></mask><g stroke-linecap="round"><g stroke-opacity="0.7" fill-opacity="0.7" transform="translate(195.04249420811314 188.3162985615313) rotate(180 90.45613641742028 29.281545572071025)"><path d="M0.82 -0.68 C34.43 2.95, 69.46 0.62, 145.93 1.07 M0.16 0.87 C50.05 0.43, 100.85 1.34, 144.5 0.85 M142.5 1.98 C145.41 11.47, 143.96 25.17, 144.55 37.39 M145.03 0.96 C144.22 10.42, 143.17 19.51, 143.25 37.95 M144.83 38.39 C149.83 37.88, 152.55 37.72, 166.9 36.99 M144.14 37.18 C149.86 37.68, 157.77 37.65, 166.72 38.66 M167.23 36.88 C168.05 45.35, 168.24 52.43, 165.94 56.83 M165.89 37.35 C165.72 44.21, 166.82 48.61, 166.72 57.7 M167.7 59.24 C169.74 57.23, 172.64 57.11, 179.67 58.65 M166.44 58.4 C170.86 58.26, 173.49 58.05, 180.75 58.31" stroke="#000000" stroke-width="1" fill="none"></path></g></g><mask></mask><g stroke-linecap="round"><g stroke-opacity="0.7" fill-opacity="0.7" transform="translate(195.0332249233274 130.72851272000457) rotate(0 0.41857975461893204 28.222521891155907)"><path d="M0.33 1.57 C1.51 11.02, 2.06 24.63, 1.05 56.87 M-0.74 -0.43 C-0.64 14.35, 0.49 28.59, 0.19 56.82" stroke="#000000" stroke-width="1" fill="none"></path></g></g><mask></mask><g stroke-linecap="round"><g stroke-opacity="0.7" fill-opacity="0.7" transform="translate(375.11922680917996 66.92497122878808) rotate(0 0.06315213886401239 91.32651343104601)"><path d="M-0.76 1.83 C2.49 58.2, 0.65 113.11, 0.33 182.26 M0.48 0.39 C0.08 40.95, -1.59 81.62, -0.8 181.51" stroke="#000000" stroke-width="1" fill="none"></path></g></g><mask></mask><g stroke-linecap="round"><g stroke-opacity="0.7" fill-opacity="0.7" transform="translate(372.1070828632471 97.94353639061103) rotate(0 -13.048867475297584 -0.7027708058884627)"><path d="M1.35 -1.71 C-8.23 1.71, -18.31 -0.26, -25.65 -0.22 M0.06 -0.55 C-8.72 -0.65, -16.79 0.73, -27.45 -0.77" stroke="#000000" stroke-width="1" fill="none"></path></g></g><mask></mask><g stroke-linecap="round"><g stroke-opacity="0.7" fill-opacity="0.7" transform="translate(373.8266528128753 116.47390273433962) rotate(0 -13.038750167992248 0.26424133591353893)"><path d="M1.65 1.44 C-10.26 0.18, -20.18 1.95, -26.28 -0.91 M-0.87 -0.37 C-10.75 -0.19, -20.72 -0.37, -27.72 0.82" stroke="#000000" stroke-width="1" fill="none"></path></g></g><mask></mask><g stroke-linecap="round"><g stroke-opacity="0.7" fill-opacity="0.7" transform="translate(374.89545136452705 136.8238755356541) rotate(0 -14.143186737839414 -0.45515246932939135)"><path d="M0.31 0.64 C-9.51 0.67, -20.35 1.96, -29.16 -1.79 M0.87 -0.47 C-6.35 -0.03, -11.01 -0.3, -27.86 -0.06" stroke="#000000" stroke-width="1" fill="none"></path></g></g><mask></mask><g stroke-linecap="round"><g stroke-opacity="0.7" fill-opacity="0.7" transform="translate(373.6128977994251 159.4397054936626) rotate(0 -13.612752860933824 -0.5544607322663069)"><path d="M0.03 0.73 C-7.07 0.35, -19.23 -1.6, -27.25 -1.84 M-0.74 -0.73 C-10.83 -0.85, -19.94 0.48, -26.6 -0.46" stroke="#000000" stroke-width="1" fill="none"></path></g></g><mask></mask><g stroke-linecap="round"><g stroke-opacity="0.7" fill-opacity="0.7" transform="translate(373.09988107026425 179.10565990349642) rotate(0 -14.213110049311354 0.33623740868642926)"><path d="M0.38 1.43 C-8.49 -0.87, -19.42 -1.01, -28.92 -0.04 M0.5 -0.76 C-8.61 -0.14, -17.59 -0.79, -27.22 0.64" stroke="#000000" stroke-width="1" fill="none"></path></g></g><mask></mask><g stroke-linecap="round"><g stroke-opacity="0.7" fill-opacity="0.7" transform="translate(373.39914278597473 199.28460755809022) rotate(0 -14.15151568228407 -0.38846042566001415)"><path d="M-0.74 0.58 C-5.42 -1.32, -13.86 0.29, -27.96 -1.36 M-0.34 -0.99 C-7.33 0.69, -17.25 0.09, -26.88 0.55" stroke="#000000" stroke-width="1" fill="none"></path></g></g><mask></mask><g stroke-linecap="round"><g stroke-opacity="0.7" fill-opacity="0.7" transform="translate(372.20207243873244 220.27585714195584) rotate(0 -13.756767218057348 0.1384140569716692)"><path d="M-0.54 1.77 C-7.43 1.08, -18.56 1.29, -28.06 -1.49 M0.55 0.95 C-9.53 -0.76, -19.89 0.26, -26.56 0.95" stroke="#000000" stroke-width="1" fill="none"></path></g></g><mask></mask><g stroke-opacity="0.7" fill-opacity="0.7" stroke-linecap="round" transform="translate(166.64331984179233 10) rotate(0 119.76968935063188 152.79810642285332)"><path d="M-1.58 -1.25 C74.45 0.07, 148.62 0.25, 240.64 0.89 M-0.69 -0.69 C84.16 -0.8, 167.93 -0.63, 239.71 0.77 M239.02 0.3 C237.62 88.49, 238.36 177.35, 240.3 306.1 M239.95 0.17 C240.29 78.66, 241.29 158, 239.64 306.3 M238 305.23 C162.65 302.43, 84.77 302.69, -1.37 305.5 M239.42 306.26 C159.88 305.71, 80.23 305.78, 0.66 305.54 M1.44 306.17 C-2.22 217.52, -2.06 130.22, -0.03 0 M-0.45 305.32 C2.06 230.95, 2.2 155.83, -0.61 0.44" stroke="#000000" stroke-width="1" fill="none"></path></g><g stroke-linecap="round"><g stroke-opacity="0.7" fill-opacity="0.7" transform="translate(165.5953498413167 41.83606165542005) rotate(0 -23.248350865697745 0.44190098298713565)"><path d="M0.25 1.69 C-15.12 -0.07, -30.75 1.43, -46.49 -0.76 M-0.38 -0.23 C-18.44 0.51, -36.62 0.64, -46.75 -0.81" stroke="#000000" stroke-width="1" fill="none"></path></g></g><mask></mask><g stroke-opacity="0.7" fill-opacity="0.7" stroke-linecap="round" transform="translate(108.14352412983797 35.2368678001269) rotate(0 5.628723700313223 5.62872370031323)"><path d="M7.23 0.54 C8.5 0.78, 10.62 1.96, 11.31 2.91 C11.99 3.86, 11.78 5.13, 11.33 6.24 C10.88 7.36, 9.45 8.76, 8.63 9.59 C7.81 10.41, 7.46 11.17, 6.41 11.2 C5.35 11.24, 3.44 10.61, 2.29 9.81 C1.14 9, -0.29 7.62, -0.51 6.4 C-0.72 5.18, 0.4 3.4, 1 2.49 C1.61 1.58, 2.09 1.37, 3.13 0.92 C4.16 0.48, 6.15 -0.11, 7.19 -0.19 C8.23 -0.26, 9.16 0.1, 9.35 0.46 M7.74 -0.85 C8.93 -0.3, 10.97 1.82, 11.32 3.01 C11.66 4.2, 9.96 5.33, 9.83 6.28 C9.7 7.22, 11.05 7.73, 10.52 8.68 C9.99 9.63, 7.84 11.74, 6.68 11.98 C5.51 12.22, 4.6 10.87, 3.53 10.14 C2.46 9.41, 0.76 8.89, 0.25 7.6 C-0.25 6.32, -0.08 3.61, 0.5 2.45 C1.07 1.28, 2.52 0.77, 3.7 0.63 C4.87 0.5, 7.1 1.49, 7.55 1.63 C8 1.77, 6.21 1.73, 6.37 1.48" stroke="#000000" stroke-width="1" fill="none"></path></g><g stroke-linecap="round"><g stroke-opacity="0.7" fill-opacity="0.7" transform="translate(165.6236022129476 79.2961819167034) rotate(0 -24.030118859863165 -0.22175067849457264)"><path d="M-0.07 0.9 C-16.61 -0.15, -35.51 0.77, -46.01 -1.34 M-0.24 -0.29 C-12.23 0.27, -22.96 0.53, -47.99 0.54" stroke="#000000" stroke-width="1" fill="none"></path></g></g><mask></mask><g stroke-opacity="0.7" fill-opacity="0.7" stroke-linecap="round" transform="translate(108.17177650146886 72.69698806141025) rotate(0 5.628723700313223 5.62872370031323)"><path d="M6.12 -0.66 C7.22 -0.92, 7.52 -0.06, 8.41 0.72 C9.29 1.51, 11.09 2.89, 11.42 4.04 C11.75 5.19, 10.96 6.41, 10.39 7.61 C9.82 8.82, 9.01 10.75, 8.02 11.28 C7.03 11.81, 5.52 11.19, 4.44 10.79 C3.35 10.4, 2.25 9.87, 1.5 8.91 C0.75 7.94, -0.09 6.3, -0.06 4.99 C-0.03 3.68, 0.55 1.8, 1.68 1.05 C2.82 0.3, 5.82 0.49, 6.76 0.49 C7.7 0.49, 7.36 1.15, 7.3 1.04 M1.88 1.56 C3.06 1.26, 6.19 -0.13, 7.7 0.21 C9.21 0.56, 10.29 2.44, 10.96 3.64 C11.62 4.84, 11.75 6.24, 11.69 7.43 C11.62 8.62, 11.36 10.14, 10.56 10.79 C9.75 11.44, 8.04 11.42, 6.85 11.33 C5.65 11.25, 4.43 11.04, 3.39 10.27 C2.36 9.5, 1.01 8.11, 0.61 6.72 C0.21 5.33, 0.51 2.8, 0.97 1.93 C1.42 1.06, 2.74 1.58, 3.33 1.5 C3.93 1.42, 4.42 1.33, 4.54 1.42" stroke="#000000" stroke-width="1" fill="none"></path></g><g stroke-linecap="round"><g stroke-opacity="0.7" fill-opacity="0.7" transform="translate(165.3518836836906 112.7968109202759) rotate(0 -24.71971143831152 -0.05605699820443988)"><path d="M-0.13 -0.79 C-13.8 1.29, -26.01 -0.67, -49.68 0.11 M0.24 0.68 C-17.8 -0.1, -35.11 -0.22, -47.91 -0.72" stroke="#000000" stroke-width="1" fill="none"></path></g></g><mask></mask><g stroke-opacity="0.7" fill-opacity="0.7" stroke-linecap="round" transform="translate(107.90005797221187 106.19761706498275) rotate(0 5.628723700313223 5.62872370031323)"><path d="M6.32 0.31 C7.43 0.67, 10.19 1.74, 11.12 2.78 C12.05 3.82, 12.04 5.38, 11.87 6.57 C11.71 7.76, 11.2 9.01, 10.14 9.93 C9.07 10.85, 6.9 12.08, 5.5 12.08 C4.09 12.09, 2.71 10.73, 1.7 9.95 C0.69 9.17, -0.29 8.56, -0.58 7.42 C-0.87 6.27, -0.86 4.23, -0.04 3.08 C0.79 1.93, 2.92 1.08, 4.37 0.5 C5.82 -0.09, 7.89 -0.37, 8.65 -0.45 C9.4 -0.53, 9.18 -0.21, 8.91 0.01 M5.58 1.06 C6.79 1.23, 7.08 1.72, 8.13 2.07 C9.18 2.41, 11.58 2.12, 11.86 3.13 C12.13 4.13, 10.31 6.91, 9.78 8.08 C9.24 9.25, 9.7 9.57, 8.66 10.16 C7.61 10.74, 4.78 11.85, 3.5 11.6 C2.22 11.35, 1.72 9.84, 0.99 8.66 C0.27 7.48, -0.94 5.58, -0.88 4.51 C-0.81 3.44, 0.75 3.19, 1.39 2.23 C2.02 1.28, 2.34 -1.03, 2.93 -1.23 C3.53 -1.43, 4.52 0.58, 4.97 1.04" stroke="#000000" stroke-width="1" fill="none"></path></g><g stroke-linecap="round"><g stroke-opacity="0.7" fill-opacity="0.7" transform="translate(163.60502727592151 143.3083868354172) rotate(0 -24.01007353470314 0.5184558611363173)"><path d="M0.69 1.99 C-16.15 1.12, -34.16 0.86, -48.36 -0.95 M0.27 -0.19 C-14.98 -1.08, -29.4 -0.97, -48.71 0.66" stroke="#000000" stroke-width="1" fill="none"></path></g></g><mask></mask><g stroke-opacity="0.7" fill-opacity="0.7" stroke-linecap="round" transform="translate(106.15320156444278 136.70919298012404) rotate(0 5.628723700313223 5.62872370031323)"><path d="M6.36 -0.38 C7.53 -0.4, 9.21 0.29, 9.99 1.34 C10.76 2.4, 11.04 4.73, 11 5.95 C10.95 7.18, 10.62 7.92, 9.71 8.68 C8.81 9.45, 6.9 10.38, 5.6 10.52 C4.29 10.66, 2.68 10.14, 1.91 9.51 C1.14 8.88, 1.25 7.54, 0.98 6.71 C0.72 5.89, 0.14 5.73, 0.31 4.59 C0.49 3.44, 0.88 0.67, 2.02 -0.16 C3.17 -0.99, 6.06 -0.67, 7.17 -0.42 C8.29 -0.17, 8.67 1.17, 8.73 1.34 M7.19 -0.8 C8.2 -0.69, 8.36 -0.08, 8.96 1.18 C9.56 2.44, 10.5 5.16, 10.79 6.77 C11.07 8.39, 11.5 9.96, 10.65 10.88 C9.81 11.79, 6.96 12.45, 5.72 12.27 C4.48 12.09, 4.25 10.9, 3.22 9.79 C2.18 8.69, 0.12 6.68, -0.5 5.63 C-1.11 4.58, -0.92 4.12, -0.48 3.5 C-0.03 2.88, 0.64 2.36, 2.16 1.91 C3.68 1.45, 8.03 0.83, 8.66 0.76 C9.29 0.69, 6.03 1.26, 5.95 1.5" stroke="#000000" stroke-width="1" fill="none"></path></g><g stroke-linecap="round"><g stroke-opacity="0.7" fill-opacity="0.7" transform="translate(164.09556081721306 176.96428909133476) rotate(0 -23.74749871904615 0.5705599035136402)"><path d="M1.4 1.98 C-19.08 1.8, -35.67 -0.98, -48.89 0.18 M-0.63 0.64 C-15.44 -0.84, -30.49 0.56, -47.05 -0.83" stroke="#000000" stroke-width="1" fill="none"></path></g></g><mask></mask><g stroke-opacity="0.7" fill-opacity="0.7" stroke-linecap="round" transform="translate(106.6437351057343 170.36509523604138) rotate(0 5.628723700313223 5.62872370031323)"><path d="M7.26 0.54 C8.42 0.9, 10.34 1.44, 10.84 2.39 C11.33 3.35, 10.42 5.01, 10.22 6.27 C10.03 7.52, 10.55 9.1, 9.66 9.93 C8.78 10.76, 6.06 11.16, 4.91 11.25 C3.77 11.33, 3.72 11.18, 2.77 10.45 C1.82 9.71, -0.43 8.24, -0.79 6.86 C-1.16 5.48, -0.26 3.28, 0.57 2.15 C1.4 1.02, 2.81 0.2, 4.19 0.07 C5.56 -0.06, 8.12 1.25, 8.85 1.37 C9.57 1.49, 8.59 0.79, 8.52 0.79 M7.13 0.99 C8.7 0.94, 10.02 -0.75, 10.47 -0.05 C10.92 0.64, 9.66 3.64, 9.84 5.16 C10.02 6.67, 11.9 8.04, 11.53 9.05 C11.16 10.06, 8.93 11.03, 7.62 11.2 C6.31 11.38, 5.06 10.61, 3.66 10.1 C2.27 9.59, -0.13 8.9, -0.73 8.13 C-1.33 7.36, -0.28 6.67, 0.08 5.49 C0.44 4.32, 0.27 1.9, 1.44 1.09 C2.6 0.28, 6.1 0.64, 7.07 0.65 C8.04 0.66, 7.62 0.95, 7.25 1.14" stroke="#000000" stroke-width="1" fill="none"></path></g><g stroke-linecap="round"><g stroke-opacity="0.7" fill-opacity="0.7" transform="translate(164.1238131888439 214.424409352618) rotate(0 -24.764759860491637 -0.13668671296909451)"><path d="M-0.63 -1.17 C-20.19 0.56, -37.69 -0.98, -49.53 -1.26 M0 0.98 C-16.7 -1.03, -34.26 -0.54, -48.16 0.2" stroke="#000000" stroke-width="1" fill="none"></path></g></g><mask></mask><g stroke-opacity="0.7" fill-opacity="0.7" stroke-linecap="round" transform="translate(106.67198747736518 207.82521549732485) rotate(0 5.628723700313223 5.62872370031323)"><path d="M4.99 -0.62 C6.21 -0.56, 9.11 0.36, 10.08 1.28 C11.05 2.2, 10.58 3.55, 10.79 4.89 C11 6.24, 12.08 8.25, 11.36 9.36 C10.64 10.46, 7.85 11.37, 6.48 11.54 C5.11 11.72, 4.08 11, 3.14 10.41 C2.2 9.83, 1.23 8.93, 0.84 8.05 C0.45 7.18, 0.56 6.34, 0.79 5.17 C1.03 4, 1.26 1.86, 2.25 1.05 C3.24 0.24, 5.97 0.61, 6.71 0.3 C7.45 -0.01, 6.91 -0.98, 6.67 -0.79 M6.08 0.61 C7.2 1.24, 10.67 2.14, 11.57 3.16 C12.46 4.17, 11.79 5.72, 11.44 6.71 C11.09 7.71, 10.66 8.38, 9.48 9.12 C8.3 9.85, 5.59 10.79, 4.35 11.11 C3.12 11.44, 2.89 11.8, 2.06 11.05 C1.23 10.3, -0.6 7.86, -0.62 6.62 C-0.63 5.37, 1.01 4.43, 1.94 3.57 C2.88 2.7, 4.26 1.74, 5.02 1.41 C5.78 1.07, 6.21 1.8, 6.49 1.55 C6.78 1.3, 6.73 -0.12, 6.74 -0.12" stroke="#000000" stroke-width="1" fill="none"></path></g><g stroke-linecap="round"><g stroke-opacity="0.7" fill-opacity="0.7" transform="translate(163.85209465958692 247.92503835619038) rotate(0 -24.01940619156349 -0.6288983920848636)"><path d="M0.39 -1.36 C-13.31 -1.21, -21.77 -0.35, -48.58 0 M0.55 -0.34 C-19.43 -0.2, -38.21 0.26, -46.99 0.05" stroke="#000000" stroke-width="1" fill="none"></path></g></g><mask></mask><g stroke-opacity="0.7" fill-opacity="0.7" stroke-linecap="round" transform="translate(106.40026894810819 241.32584450089746) rotate(0 5.628723700313223 5.62872370031323)"><path d="M3.47 0.27 C4.59 0, 7.67 0.57, 8.72 1.11 C9.77 1.65, 9.42 2.65, 9.76 3.53 C10.11 4.41, 10.88 5.32, 10.8 6.38 C10.72 7.44, 10.08 8.95, 9.3 9.89 C8.51 10.83, 7.32 12.05, 6.09 12.01 C4.86 11.98, 2.84 10.59, 1.91 9.7 C0.98 8.81, 0.68 8.02, 0.52 6.68 C0.35 5.34, 0.48 2.59, 0.92 1.66 C1.37 0.73, 2.5 1.19, 3.19 1.08 C3.87 0.96, 5.02 1.18, 5.03 0.97 M6.47 0.25 C7.45 0.1, 9.25 0.17, 9.82 0.97 C10.38 1.78, 9.8 3.6, 9.85 5.1 C9.9 6.59, 10.73 8.99, 10.14 9.97 C9.54 10.95, 7.22 10.76, 6.27 10.98 C5.31 11.21, 5.13 11.68, 4.41 11.34 C3.68 10.99, 2.77 9.95, 1.91 8.94 C1.06 7.94, -0.71 6.74, -0.73 5.33 C-0.75 3.91, 0.78 1.2, 1.81 0.44 C2.85 -0.32, 4.93 0.76, 5.47 0.79 C6.01 0.82, 5.1 0.77, 5.06 0.63" stroke="#000000" stroke-width="1" fill="none"></path></g><g stroke-linecap="round"><g stroke-opacity="0.7" fill-opacity="0.7" transform="translate(162.10523825181784 278.4366142713317) rotate(0 -24.06302413160566 0.3487165807849806)"><path d="M1.29 -0.39 C-11.91 -0.3, -20.18 1.1, -49.42 1.09 M-0.17 0.66 C-11.96 0.14, -25.55 0.56, -47.48 0.07" stroke="#000000" stroke-width="1" fill="none"></path></g></g><mask></mask><g stroke-opacity="0.7" fill-opacity="0.7" stroke-linecap="round" transform="translate(104.6534125403391 271.83742041603875) rotate(0 5.628723700313223 5.62872370031323)"><path d="M4.79 0.55 C5.72 0.29, 7.81 0.24, 8.91 0.9 C10 1.55, 11 3.09, 11.37 4.47 C11.75 5.86, 11.79 8.14, 11.17 9.2 C10.54 10.25, 8.77 10.47, 7.6 10.81 C6.44 11.14, 5.3 11.74, 4.17 11.18 C3.04 10.63, 1.66 8.4, 0.83 7.46 C-0.01 6.52, -1.15 6.43, -0.85 5.53 C-0.54 4.63, 1.67 3.11, 2.66 2.04 C3.66 0.97, 4.44 -0.7, 5.13 -0.89 C5.82 -1.07, 6.61 0.68, 6.82 0.95 M4.65 -0.13 C5.77 0.18, 8.54 1.78, 9.51 2.63 C10.49 3.48, 10.17 3.82, 10.51 4.96 C10.84 6.1, 11.85 8.26, 11.53 9.45 C11.21 10.63, 10.11 11.65, 8.58 12.07 C7.06 12.5, 3.82 12.76, 2.37 12.01 C0.92 11.26, 0.38 8.72, -0.11 7.55 C-0.6 6.38, -0.8 6, -0.58 5 C-0.36 4, 0.25 2.49, 1.2 1.55 C2.15 0.61, 4.15 -0.19, 5.12 -0.62 C6.09 -1.05, 6.77 -1.41, 7.02 -1.04" stroke="#000000" stroke-width="1" fill="none"></path></g><g stroke-opacity="0.7" fill-opacity="0.7" transform="translate(137.26495359203562 18.93296173313479) rotate(0 2.7099990844726562 12.5)"><text x="2.7099990844726562" y="0" font-family="Virgil, Segoe UI Emoji" font-size="20px" fill="#000000" text-anchor="middle" style="white-space: pre;" direction="ltr" dominant-baseline="text-before-edge">1</text></g><g stroke-opacity="0.7" fill-opacity="0.7" transform="translate(132.97139617254484 57.63495207659423) rotate(0 7.1199951171875 12.5)"><text x="7.1199951171875" y="0" font-family="Virgil, Segoe UI Emoji" font-size="20px" fill="#000000" text-anchor="middle" style="white-space: pre;" direction="ltr" dominant-baseline="text-before-edge">2</text></g><g stroke-opacity="0.7" fill-opacity="0.7" transform="translate(132.9708521903676 92.02839794975466) rotate(0 6.809989929199219 12.5)"><text x="6.809989929199219" y="0" font-family="Virgil, Segoe UI Emoji" font-size="20px" fill="#000000" text-anchor="middle" style="white-space: pre;" direction="ltr" dominant-baseline="text-before-edge">3</text></g><g stroke-opacity="0.7" fill-opacity="0.7" transform="translate(134.62305556564488 122.73407375993725) rotate(0 6.399993896484375 12.5)"><text x="6.399993896484375" y="0" font-family="Virgil, Segoe UI Emoji" font-size="20px" fill="#000000" text-anchor="middle" style="white-space: pre;" direction="ltr" dominant-baseline="text-before-edge">4</text></g><g stroke-opacity="0.7" fill-opacity="0.7" transform="translate(133.678489401802 154.83720484301386) rotate(0 6.17999267578125 12.5)"><text x="6.17999267578125" y="0" font-family="Virgil, Segoe UI Emoji" font-size="20px" fill="#000000" text-anchor="middle" style="white-space: pre;" direction="ltr" dominant-baseline="text-before-edge">5</text></g><g stroke-opacity="0.7" fill-opacity="0.7" transform="translate(133.14793901093338 190.16229822667128) rotate(0 6.399993896484375 12.5)"><text x="6.399993896484375" y="0" font-family="Virgil, Segoe UI Emoji" font-size="20px" fill="#000000" text-anchor="middle" style="white-space: pre;" direction="ltr" dominant-baseline="text-before-edge">6</text></g><g stroke-opacity="0.7" fill-opacity="0.7" transform="translate(133.54683731366876 226.4190497827251) rotate(0 5.379997253417969 12.5)"><text x="5.379997253417969" y="0" font-family="Virgil, Segoe UI Emoji" font-size="20px" fill="#000000" text-anchor="middle" style="white-space: pre;" direction="ltr" dominant-baseline="text-before-edge">7</text></g><g stroke-opacity="0.7" fill-opacity="0.7" transform="translate(130.73338228828771 257.3576454669567) rotate(0 7.649993896484375 12.5)"><text x="7.649993896484375" y="0" font-family="Virgil, Segoe UI Emoji" font-size="20px" fill="#000000" text-anchor="middle" style="white-space: pre;" direction="ltr" dominant-baseline="text-before-edge">8</text></g><g stroke-opacity="0.7" fill-opacity="0.7" transform="translate(72.33769817389874 28.24947415475185) rotate(0 11.349990844726562 12.5)"><text x="11.349990844726562" y="0" font-family="Virgil, Segoe UI Emoji" font-size="20px" fill="#000000" text-anchor="middle" style="white-space: pre;" direction="ltr" dominant-baseline="text-before-edge">5V</text></g><g stroke-opacity="0.7" fill-opacity="0.7" transform="translate(10 99.28787670499878) rotate(0 45.34996795654297 12.5)"><text x="45.34996795654297" y="0" font-family="Virgil, Segoe UI Emoji" font-size="20px" fill="#000000" text-anchor="middle" style="white-space: pre;" direction="ltr" dominant-baseline="text-before-edge">OPV_VCC</text></g><g stroke-opacity="0.7" fill-opacity="0.7" transform="translate(51.85300014324744 265.8205169167054) rotate(0 22.129981994628906 12.5)"><text x="22.129981994628906" y="0" font-family="Virgil, Segoe UI Emoji" font-size="20px" fill="#000000" text-anchor="middle" style="white-space: pre;" direction="ltr" dominant-baseline="text-before-edge">GND</text></g><g stroke-opacity="0.7" fill-opacity="0.7" transform="translate(61.155832793516254 130.73108946873663) rotate(0 18.649986267089844 12.5)"><text x="18.649986267089844" y="0" font-family="Virgil, Segoe UI Emoji" font-size="20px" fill="#000000" text-anchor="middle" style="white-space: pre;" direction="ltr" dominant-baseline="text-before-edge">SCK</text></g><g stroke-opacity="0.7" fill-opacity="0.7" transform="translate(47.533032434124166 164.8916154678476) rotate(0 26.449981689453125 12.5)"><text x="26.449981689453125" y="0" font-family="Virgil, Segoe UI Emoji" font-size="20px" fill="#000000" text-anchor="middle" style="white-space: pre;" direction="ltr" dominant-baseline="text-before-edge">MOSI</text></g><g stroke-opacity="0.7" fill-opacity="0.7" transform="translate(68.06219764139789 233.9890777081347) rotate(0 12.519989013671875 12.5)"><text x="12.519989013671875" y="0" font-family="Virgil, Segoe UI Emoji" font-size="20px" fill="#000000" text-anchor="middle" style="white-space: pre;" direction="ltr" dominant-baseline="text-before-edge">CS</text></g><g stroke-opacity="0.7" fill-opacity="0.7" transform="translate(44.42750874676794 201.7694920189831) rotate(0 26.449981689453125 12.5)"><text x="26.449981689453125" y="0" font-family="Virgil, Segoe UI Emoji" font-size="20px" fill="#000000" text-anchor="middle" style="white-space: pre;" direction="ltr" dominant-baseline="text-before-edge">MISO</text></g><g stroke-opacity="0.7" fill-opacity="0.7" transform="translate(64.50952186309956 64.7391295920047) rotate(0 18.78997802734375 12.5)"><text x="18.78997802734375" y="0" font-family="Virgil, Segoe UI Emoji" font-size="20px" fill="#000000" text-anchor="middle" style="white-space: pre;" direction="ltr" dominant-baseline="text-before-edge">3V3</text></g></svg>