<svg version="1.1" xmlns="http://www.w3.org/2000/svg" viewBox="0 0 943.6946245436933 813.0279753713722" width="943.6946245436933" height="813.0279753713722" filter="invert(93%) hue-rotate(180deg)">
  <!-- svg-source:excalidraw -->
  
  <defs>
    <style class="style-fonts">
      @font-face {
        font-family: "Virgil";
        src: url("https://excalidraw.com/Virgil.woff2");
      }
      @font-face {
        font-family: "Cascadia";
        src: url("https://excalidraw.com/Cascadia.woff2");
      }
    </style>
  </defs>
  <g stroke-opacity="0.7" fill-opacity="0.7" stroke-linecap="round" transform="translate(10 10) rotate(0 136.06131677464035 116.32185112857847)"><path d="M1.5 -1.17 C90.76 -0.82, 183.03 -0.92, 272.28 0 M-0.17 -0.02 C106.62 1.99, 213.09 2.47, 272.27 0.39 M270.69 1.46 C274.1 48.31, 274.28 95.83, 272.92 233.06 M271.8 -0.34 C272.43 56.6, 273.04 114.43, 271.55 232.58 M270.77 232.77 C200.88 232.4, 129.88 231.54, -1.43 231.56 M272.74 233.22 C182.05 230.18, 92.32 229.89, 0.3 233.06 M-1.62 233.82 C1.55 155.87, 2.09 81.38, -0.2 -0.77 M-0.37 232.84 C-0.01 181.67, -0.08 131.23, 0.68 -0.74" stroke="#000000" stroke-width="1" fill="none"></path></g><g stroke-opacity="0.7" fill-opacity="0.7" transform="translate(230.8352519216566 50.77407756176723) rotate(0 19 12.5)"><text x="19" y="18" font-family="Virgil, Segoe UI Emoji" font-size="20px" fill="#000000" text-anchor="middle" style="white-space: pre;" direction="ltr">VCC</text></g><g stroke-opacity="0.7" fill-opacity="0.7" transform="translate(227.1694721927136 98.56838563525406) rotate(0 21.5 12.5)"><text x="21.5" y="18" font-family="Virgil, Segoe UI Emoji" font-size="20px" fill="#000000" text-anchor="middle" style="white-space: pre;" direction="ltr">SDA</text></g><g stroke-opacity="0.7" fill-opacity="0.7" transform="translate(228.00369246377073 140.53645587719785) rotate(0 19.5 12.5)"><text x="19.5" y="18" font-family="Virgil, Segoe UI Emoji" font-size="20px" fill="#000000" text-anchor="middle" style="white-space: pre;" direction="ltr">SCL</text></g><g stroke-opacity="0.7" fill-opacity="0.7" transform="translate(17.573488433232683 106.60895782783331) rotate(270 64.5 22.5)"><text x="64.5" y="32" font-family="Virgil, Segoe UI Emoji" font-size="36px" fill="#000000" text-anchor="middle" style="white-space: pre;" direction="ltr">Master</text></g><g stroke-opacity="0.7" fill-opacity="0.7" stroke-linecap="round" transform="translate(568.1950006841143 365.868183659582) rotate(0 129.39072955958028 110.61901749912298)"><path d="M0.9 -0.92 C66.69 0.55, 132.26 0.65, 259.74 -0.81 M0.78 0.02 C80.09 -0.04, 160.24 0.05, 259.53 -0.36 M257.85 -0.77 C259.17 80.1, 257.02 157.99, 258.61 221.26 M258.74 0.19 C258.08 55.19, 258.78 112.68, 258.64 220.38 M258.98 221.27 C199.31 223, 140.25 223.01, -0.26 220.02 M259.38 220.98 C163.33 220.67, 66.13 220.68, -0.2 221.03 M-0.86 220.63 C0 143.86, -0.32 67.19, 1.07 0.25 M0.53 222.07 C-1.31 168.16, -1.53 116.38, 0.56 -0.31" stroke="#000000" stroke-width="1" fill="none"></path></g><g stroke-opacity="0.7" fill-opacity="0.7" transform="translate(591.400286082237 389.9197255924348) rotate(0 19 12.5)"><text x="19" y="18" font-family="Virgil, Segoe UI Emoji" font-size="20px" fill="#000000" text-anchor="middle" style="white-space: pre;" direction="ltr">VCC</text></g><g stroke-opacity="0.7" fill-opacity="0.7" transform="translate(645.5032657986346 389.066657290898) rotate(0 21.5 12.5)"><text x="21.5" y="18" font-family="Virgil, Segoe UI Emoji" font-size="20px" fill="#000000" text-anchor="middle" style="white-space: pre;" direction="ltr">SDA</text></g><g stroke-opacity="0.7" fill-opacity="0.7" transform="translate(707.1467065384716 391.5087342281349) rotate(0 19.5 12.5)"><text x="19.5" y="18" font-family="Virgil, Segoe UI Emoji" font-size="20px" fill="#000000" text-anchor="middle" style="white-space: pre;" direction="ltr">SCL</text></g><g stroke-opacity="0.7" fill-opacity="0.7" transform="translate(651.5574790744072 480.7199076280492) rotate(0 48 22.5)"><text x="48" y="32" font-family="Virgil, Segoe UI Emoji" font-size="36px" fill="#000000" text-anchor="middle" style="white-space: pre;" direction="ltr">Slave</text></g><g stroke-linecap="round"><g stroke-opacity="0.7" fill-opacity="0.7" transform="translate(286.60790537137837 62.93882708793285) rotate(0 318.41990634718917 -0.3890308703008145)"><path d="M0.63 0.22 C223.43 0.28, 447.36 -0.97, 636.12 0.42 M-0.16 0.27 C169.01 -1.63, 337.13 -1.53, 637 -0.31" stroke="#000000" stroke-width="1" fill="none"></path></g></g><mask></mask><g stroke-linecap="round"><g stroke-opacity="0.7" fill-opacity="0.7" transform="translate(469.0556199259575 115.0430160108512) rotate(0 229.63174348145333 -0.7825868910604186)"><path d="M0.87 -0.24 C179.34 -2.56, 357.86 -1.59, 457.93 -0.26 M0.46 0.08 C125.1 -1.91, 249.35 -1.24, 458.81 -0.44" stroke="#000000" stroke-width="1" fill="none"></path></g></g><mask></mask><g stroke-linecap="round"><g stroke-opacity="0.7" fill-opacity="0.7" transform="translate(282.93785449360814 154.81140055116649) rotate(0 325.22200706802636 -0.41226850518476965)"><path d="M-0.31 0.56 C198.73 -0.82, 397.11 -0.97, 650.68 0.36 M-0.18 0.28 C182.51 -2, 365.58 -1.91, 650.76 0.4" stroke="#000000" stroke-width="1" fill="none"></path></g></g><mask></mask><g stroke-opacity="0.7" fill-opacity="0.7" transform="translate(222.40965864876063 182.90157845333306) rotate(0 23 12.5)"><text x="23" y="18" font-family="Virgil, Segoe UI Emoji" font-size="20px" fill="#000000" text-anchor="middle" style="white-space: pre;" direction="ltr">GND</text></g><g stroke-linecap="round"><g stroke-opacity="0.7" fill-opacity="0.7" transform="translate(289.63226612807046 197.67085692606022) rotate(0 319.6867054223557 -0.01737561795233944)"><path d="M-0.61 0.7 C167.4 -0.68, 333.52 -1.48, 639.28 0.24 M-0.28 -0.23 C209 -0.14, 417.85 0.03, 639.99 0.3" stroke="#000000" stroke-width="1" fill="none"></path></g></g><mask></mask><g stroke-opacity="0.7" fill-opacity="0.7" transform="translate(763.9568574412754 391.9789486978334) rotate(0 23 12.5)"><text x="23" y="18" font-family="Virgil, Segoe UI Emoji" font-size="20px" fill="#000000" text-anchor="middle" style="white-space: pre;" direction="ltr">GND</text></g><g stroke-linecap="round"><g stroke-opacity="0.7" fill-opacity="0.7" transform="translate(606.0494265466559 365.79469609704165) rotate(0 0.44546546216361094 -151.45968102657272)"><path d="M0.18 -0.85 C0.97 -63.04, 1.51 -125.44, 0.16 -302.7 M0.65 0.14 C0.13 -115.79, -0.75 -231.19, 0.71 -303.06" stroke="#000000" stroke-width="1" fill="none"></path></g></g><mask></mask><g stroke-linecap="round"><g stroke-opacity="0.7" fill-opacity="0.7" transform="translate(666.8586470154355 364.5168568209307) rotate(0 0.10585310966035877 -124.67101288840608)"><path d="M0.29 1.37 C0.22 -69.37, -0.09 -138.19, 0.2 -250.59 M0.28 0.07 C1.33 -71.07, 0.18 -140.41, -0.49 -250.71" stroke="#000000" stroke-width="1" fill="none"></path></g></g><mask></mask><g stroke-linecap="round"><g stroke-opacity="0.7" fill-opacity="0.7" transform="translate(729.1880979959346 370.9060532014854) rotate(0 -0.18150357559585473 -109.8317645031197)"><path d="M-1.73 1.16 C2.2 -71.53, 0.54 -140.38, 0.63 -220.83 M0 -0.35 C1.61 -55.4, 1.85 -111.59, 0.46 -219.9" stroke="#000000" stroke-width="1" fill="none"></path></g></g><mask></mask><g stroke-linecap="round"><g stroke-opacity="0.7" fill-opacity="0.7" transform="translate(785.6790181651645 365.79469609704165) rotate(0 -0.9144679426911466 -82.72747363648102)"><path d="M-1.77 1.76 C0.23 -51.82, 0.55 -100, -1.19 -167.21 M-0.68 0.24 C-1.88 -62.99, -1.83 -127.15, -0.65 -166.67" stroke="#000000" stroke-width="1" fill="none"></path></g></g><mask></mask><g stroke-opacity="0.7" fill-opacity="0.7" stroke-linecap="round" transform="translate(603.0825798136777 60.35178321047425) rotate(0 3.346487490621371 2.919276321605878)"><path d="M3.11 1.1 C3.58 1.11, 3.66 0.56, 4.28 0.63 C4.9 0.69, 6.43 1.13, 6.82 1.5 C7.21 1.86, 6.95 2.34, 6.62 2.84 C6.29 3.35, 5.42 4.11, 4.87 4.53 C4.31 4.95, 3.92 5.24, 3.3 5.37 C2.68 5.5, 1.72 5.65, 1.13 5.32 C0.54 5, -0.31 4.07, -0.26 3.42 C-0.21 2.77, 0.87 2.15, 1.42 1.43 C1.96 0.72, 2.76 -0.64, 2.99 -0.85 C3.23 -1.05, 2.9 0.09, 2.81 0.23 M3.64 0.08 C4.54 -0.12, 6.42 -0.62, 6.79 -0.42 C7.17 -0.23, 5.88 0.52, 5.88 1.26 C5.88 2.01, 6.93 3.32, 6.78 4.06 C6.62 4.8, 5.57 5.56, 4.94 5.73 C4.32 5.9, 3.66 5.37, 3.02 5.1 C2.38 4.82, 1.78 4.36, 1.13 4.08 C0.47 3.8, -1.02 3.9, -0.9 3.42 C-0.78 2.94, 1.02 1.75, 1.83 1.2 C2.64 0.65, 3.8 0.45, 3.95 0.13 C4.1 -0.19, 2.96 -0.74, 2.75 -0.74" stroke="none" stroke-width="0" fill="#000000"></path><path d="M3.55 0.09 C4.29 -0.04, 5.14 -0.5, 5.69 -0.04 C6.23 0.42, 6.6 2.26, 6.82 2.83 C7.04 3.4, 7.41 2.79, 7.01 3.39 C6.6 4, 5.17 6.15, 4.4 6.46 C3.63 6.77, 3.05 5.74, 2.38 5.24 C1.71 4.73, 0.69 3.8, 0.39 3.42 C0.08 3.04, 0.52 3.6, 0.54 2.98 C0.56 2.37, 0.13 0.12, 0.51 -0.26 C0.89 -0.64, 2.35 0.51, 2.82 0.72 C3.3 0.93, 3.38 1.08, 3.38 0.99 M2.45 0.07 C3.13 -0.16, 6.3 0.26, 7.03 0.53 C7.77 0.8, 7.22 0.77, 6.86 1.69 C6.49 2.61, 5.26 5.13, 4.84 6.04 C4.43 6.95, 4.7 7.02, 4.36 7.13 C4.02 7.25, 3.56 7.11, 2.8 6.73 C2.05 6.35, 0.36 5.72, -0.16 4.83 C-0.68 3.93, -0.59 2.06, -0.33 1.37 C-0.07 0.67, 0.55 0.76, 1.4 0.66 C2.26 0.55, 4.15 0.87, 4.79 0.75 C5.42 0.62, 5.33 -0.04, 5.24 -0.09" stroke="#000000" stroke-width="1" fill="none"></path></g><g stroke-opacity="0.7" fill-opacity="0.7" stroke-linecap="round" transform="translate(663.7257959397882 110.49629146191398) rotate(0 3.346487490621371 2.919276321605878)"><path d="M2.54 -0.53 C3.06 -0.61, 3.98 0.58, 4.61 1.15 C5.24 1.72, 6.04 2.25, 6.31 2.91 C6.58 3.57, 6.59 4.56, 6.23 5.11 C5.87 5.66, 4.83 6.23, 4.14 6.21 C3.45 6.18, 2.59 5.24, 2.1 4.98 C1.62 4.72, 1.52 5.03, 1.25 4.64 C0.98 4.24, 0.48 3.37, 0.49 2.61 C0.5 1.86, 0.84 0.62, 1.3 0.1 C1.76 -0.43, 2.81 -0.7, 3.28 -0.55 C3.74 -0.41, 4.12 0.63, 4.1 0.94 M2.04 -0.47 C2.85 -0.92, 5.8 -0.73, 6.6 -0.36 C7.4 0.01, 6.82 0.94, 6.87 1.75 C6.92 2.56, 7.19 3.95, 6.9 4.52 C6.61 5.09, 5.78 5.14, 5.12 5.15 C4.45 5.16, 3.6 4.85, 2.92 4.58 C2.25 4.3, 1.74 4.07, 1.05 3.51 C0.35 2.96, -1.43 1.82, -1.24 1.27 C-1.05 0.72, 1.49 0.23, 2.2 0.21 C2.91 0.19, 2.85 1, 3.02 1.15 C3.18 1.3, 2.92 1.48, 3.19 1.11" stroke="none" stroke-width="0" fill="#000000"></path><path d="M1.43 0.46 C1.87 -0.1, 2.32 -0.81, 3.21 -0.65 C4.11 -0.49, 6.08 0.67, 6.81 1.4 C7.54 2.14, 7.6 3.22, 7.58 3.76 C7.57 4.3, 7.22 4.34, 6.69 4.62 C6.17 4.91, 5.34 5.36, 4.43 5.46 C3.51 5.56, 1.89 5.4, 1.21 5.22 C0.53 5.05, 0.43 4.82, 0.34 4.41 C0.26 3.99, 0.34 3.4, 0.71 2.72 C1.08 2.03, 2.06 0.66, 2.57 0.29 C3.08 -0.08, 3.68 0.59, 3.77 0.5 M5.86 -0.4 C6.86 -0.31, 6.68 1.51, 6.79 2.13 C6.9 2.76, 6.9 2.99, 6.52 3.36 C6.13 3.73, 5.17 3.91, 4.48 4.35 C3.79 4.79, 3.02 5.86, 2.37 6.02 C1.71 6.18, 0.89 5.79, 0.57 5.3 C0.25 4.81, 0.46 3.48, 0.46 3.08 C0.47 2.67, 0.31 3.34, 0.61 2.85 C0.91 2.36, 1.85 0.81, 2.27 0.13 C2.68 -0.56, 2.73 -1.1, 3.12 -1.24 C3.51 -1.38, 4.48 -1.04, 4.6 -0.72" stroke="#000000" stroke-width="1" fill="none"></path></g><g stroke-opacity="0.7" fill-opacity="0.7" stroke-linecap="round" transform="translate(726.3455442554839 150.63983031280094) rotate(0 3.346487490621371 2.919276321605878)"><path d="M4.91 0.32 C5.41 0.36, 5.59 0.55, 5.77 1.08 C5.96 1.6, 5.96 2.87, 6.02 3.47 C6.07 4.06, 6.43 4.24, 6.11 4.63 C5.8 5.03, 4.94 5.61, 4.13 5.83 C3.32 6.05, 2.09 6.45, 1.26 5.96 C0.43 5.48, -0.85 3.82, -0.84 2.93 C-0.84 2.04, 0.73 1.16, 1.3 0.62 C1.86 0.08, 1.88 -0.29, 2.55 -0.32 C3.22 -0.35, 4.83 0.35, 5.32 0.43 C5.81 0.5, 5.48 0.23, 5.46 0.14 M2.85 1.07 C3.6 1.31, 4.65 0.48, 5.48 0.78 C6.32 1.07, 7.61 1.94, 7.85 2.84 C8.08 3.74, 7.81 5.46, 6.91 6.17 C6.02 6.87, 3.34 7.2, 2.49 7.07 C1.64 6.94, 2.24 5.82, 1.81 5.37 C1.38 4.92, 0.39 5.02, -0.11 4.37 C-0.61 3.71, -1.74 2.25, -1.2 1.42 C-0.65 0.59, 2.31 -0.35, 3.15 -0.62 C4 -0.89, 3.5 -0.54, 3.87 -0.19 C4.24 0.16, 5.19 1.57, 5.35 1.45" stroke="none" stroke-width="0" fill="#000000"></path><path d="M3.3 0.52 C4.14 0.32, 5.3 0, 5.87 0.25 C6.44 0.49, 6.53 1.32, 6.71 1.99 C6.89 2.65, 7.31 3.58, 6.93 4.26 C6.56 4.94, 5.31 5.69, 4.46 6.07 C3.61 6.45, 2.29 6.82, 1.84 6.55 C1.4 6.28, 2.02 4.97, 1.78 4.46 C1.54 3.94, 0.58 4.01, 0.4 3.45 C0.21 2.89, 0.33 1.74, 0.66 1.08 C1 0.42, 2.05 -0.34, 2.41 -0.49 C2.77 -0.64, 2.78 0.04, 2.82 0.18 M5.11 0.18 C5.84 -0.03, 5.7 -0.81, 5.73 -0.34 C5.77 0.14, 5.41 2.25, 5.3 3.01 C5.19 3.78, 5.24 3.81, 5.08 4.23 C4.91 4.65, 4.85 5.32, 4.3 5.54 C3.75 5.76, 2.46 5.6, 1.8 5.54 C1.13 5.47, 0.81 5.86, 0.33 5.14 C-0.16 4.42, -1.08 1.91, -1.1 1.24 C-1.13 0.58, -0.55 1.21, 0.18 1.13 C0.91 1.04, 2.67 0.72, 3.27 0.73 C3.87 0.73, 3.78 1.08, 3.77 1.14" stroke="#000000" stroke-width="1" fill="none"></path></g><g stroke-opacity="0.7" fill-opacity="0.7" stroke-linecap="round" transform="translate(782.3569275307173 195.2163637152358) rotate(0 3.346487490621371 2.919276321605878)"><path d="M3.9 -0.54 C4.42 -0.63, 4.86 -0.3, 5.3 0.39 C5.74 1.08, 6.55 2.72, 6.56 3.6 C6.57 4.49, 5.77 5.31, 5.35 5.71 C4.92 6.11, 4.47 6.17, 4.03 5.99 C3.58 5.81, 3.38 4.84, 2.69 4.63 C2.01 4.42, 0.46 5.16, -0.08 4.74 C-0.61 4.33, -0.73 2.8, -0.52 2.16 C-0.32 1.51, 0.32 1.14, 1.14 0.87 C1.97 0.6, 3.89 0.55, 4.45 0.55 C5 0.54, 4.63 0.8, 4.48 0.84 M3.4 -0.35 C4.2 -0.18, 3.89 0.89, 4.35 1.39 C4.82 1.9, 5.6 2.52, 6.19 2.66 C6.79 2.8, 7.85 1.77, 7.92 2.23 C7.99 2.7, 7.41 4.91, 6.61 5.47 C5.8 6.02, 3.95 5.86, 3.11 5.55 C2.27 5.24, 2.15 3.76, 1.56 3.61 C0.98 3.47, -0.08 5.07, -0.41 4.67 C-0.74 4.26, -0.85 1.71, -0.43 1.18 C0 0.65, 1.45 1.5, 2.14 1.48 C2.84 1.46, 3.89 1.12, 3.75 1.07" stroke="none" stroke-width="0" fill="#000000"></path><path d="M3.52 0.89 C4.14 0.75, 4.61 0.48, 5.14 0.76 C5.66 1.04, 6.41 2.12, 6.68 2.59 C6.95 3.05, 6.96 3.22, 6.75 3.55 C6.54 3.89, 5.99 4.08, 5.41 4.6 C4.82 5.13, 4.1 6.64, 3.23 6.71 C2.37 6.77, 0.69 5.68, 0.24 4.99 C-0.21 4.3, 0.38 3.38, 0.51 2.57 C0.63 1.76, 0.6 0.68, 0.99 0.13 C1.38 -0.42, 2.39 -0.63, 2.85 -0.72 C3.31 -0.8, 3.67 -0.61, 3.76 -0.39 M3.02 -0.05 C3.44 -0.62, 3.2 -1.14, 3.82 -0.95 C4.44 -0.76, 6.39 0.22, 6.75 1.08 C7.11 1.95, 6.33 3.5, 5.99 4.24 C5.65 4.97, 5.25 5.22, 4.7 5.49 C4.15 5.76, 3.17 6.19, 2.69 5.85 C2.21 5.51, 2.4 4.2, 1.82 3.47 C1.24 2.73, -0.74 1.96, -0.79 1.46 C-0.84 0.96, 0.8 0.7, 1.52 0.46 C2.25 0.23, 3.17 0.17, 3.57 0.03 C3.97 -0.11, 3.91 -0.42, 3.94 -0.39" stroke="#000000" stroke-width="1" fill="none"></path></g><g stroke-opacity="0.7" fill-opacity="0.7" transform="translate(676.9556471105489 550.8752103967222) rotate(0 19.5 12.5)"><text x="19.5" y="18" font-family="Virgil, Segoe UI Emoji" font-size="20px" fill="#000000" text-anchor="middle" style="white-space: pre;" direction="ltr">Out</text></g><g stroke-opacity="0.7" fill-opacity="0.7" stroke-linecap="round" transform="translate(738.9679099678269 710.3121338429237) rotate(0 12.750841987865329 24.704756351489095)"><path d="M-1.54 1.34 C8.03 -0.21, 18.86 0.02, 26.91 1.76 M-0.03 -0.19 C5.68 -0.99, 10.38 0.91, 24.85 -0.09 M26.69 -1.64 C27.02 14.23, 26.72 27.36, 23.64 49.87 M26.07 -0.54 C24.96 14.52, 26.2 29.75, 25.24 49.94 M23.8 48.34 C17.39 48.26, 13.98 48.87, -1.16 50.52 M26.46 48.57 C19.7 49.75, 11.62 49.3, -0.54 49.51 M1.79 49.5 C0.92 36.35, -0.28 24.36, 1.03 -1.95 M-0.39 48.9 C0.58 30.68, -0.49 13.55, 0.16 0.1" stroke="#000000" stroke-width="1" fill="none"></path></g><g stroke-linecap="round"><g stroke-opacity="0.7" fill-opacity="0.7" transform="translate(765.0965613799028 710.2779594753822) rotate(0 16.92128294543045 29.062995551012534)"><path d="M-1.07 -1.41 C7.33 -6.3, 16.41 -17.81, 34.91 -34.62 M-0.84 0.8 C11.79 -11.88, 22.21 -22.6, 33.9 -34.41 M33.89 -33.16 C32.84 -4.01, 32.62 27.95, 31.85 92.75 M33.29 -33.18 C33.65 4.01, 34.94 42.9, 33.9 90.66 M33.24 89.33 C27.51 79.07, 16.9 70.8, 1.59 48.22 M32.83 90.94 C20.61 74.69, 8.32 57.24, 3.09 48.02" stroke="#000000" stroke-width="1" fill="none"></path></g></g><mask></mask><g stroke-linecap="round"><g stroke-opacity="0.7" fill-opacity="0.7" transform="translate(692.7004976175767 586.655887765948) rotate(0 23.547449795099965 70.85929348884343)"><path d="M-1.93 0.64 C0.75 44.88, 0.8 89.31, 1.47 142.21 M0.32 -0.66 C-1.96 38.83, -1.6 78.87, -0.08 139.73 M-0.63 139.22 C11.3 140.64, 22.93 141.43, 49.02 142.37 M0.52 139.79 C12.2 141.19, 24.92 141.63, 47.07 140.91" stroke="#000000" stroke-width="1" fill="none"></path></g></g><mask></mask><g stroke-opacity="0.7" fill-opacity="0.7" stroke-linecap="round" transform="translate(380.88470987430145 96.17060883762946) rotate(0 42.80761574971706 17.250830227497943)"><path d="M0.74 0.51 C32.43 0.39, 67.81 -2.51, 84.7 0.19 M-0.31 0.1 C18.07 -1.45, 36.38 -0.75, 86.18 -0.02 M84.33 -1.26 C85.03 8.66, 87.14 20.74, 86.75 34.54 M85.64 -0.56 C84.63 11.26, 84.6 20.81, 85.65 35.4 M83.69 35.29 C50.02 32.75, 17.27 33.55, 0.76 34.56 M85.8 35.04 C55.1 33.36, 24.02 34.69, 0.1 35.36 M-1.62 35.83 C-1.71 25.61, 0.11 15.13, -0.2 -1.17 M0.22 33.9 C0.74 25.89, 0.28 17.62, -0.81 0.9" stroke="#000000" stroke-width="1" fill="none"></path></g><g stroke-linecap="round"><g stroke-opacity="0.7" fill-opacity="0.7" transform="translate(379.6068705981905 110.22684087484998) rotate(0 -49.89523890218089 0.24129318073391914)"><path d="M-0.2 -1.17 C-34 0.4, -66.72 0.35, -99.59 1.65 M-0.81 0.9 C-28.43 0.11, -59.26 0.66, -98.32 0.87" stroke="#000000" stroke-width="1" fill="none"></path></g></g><mask></mask><g stroke-opacity="0.7" fill-opacity="0.7" stroke-linecap="round" transform="translate(435.8317987470726 378.5730888581511) rotate(0 16.495743382523244 40.251937197495174)"><path d="M0.62 1.69 C6.01 1.07, 14.41 0.36, 32.51 -0.56 M0.68 0.64 C11.46 0.54, 20.65 -0.94, 32.72 -0.9 M34.92 0 C33.11 29.07, 35.02 53.4, 31.21 79.04 M32.74 0.42 C33.61 30.23, 32.31 62.12, 32.38 80.36 M34.34 80.9 C23.21 80.97, 8.56 81.25, 0.36 81.75 M33.28 80.75 C20.87 79.49, 10.31 79.79, 0.98 80.68 M-1.06 80.23 C0.38 59.55, -1.2 38.52, -1.74 -1.03 M-0.97 79.96 C0.43 49.44, 1.25 18.04, -0.91 -0.34" stroke="#000000" stroke-width="1" fill="none"></path></g><g stroke-opacity="0.7" fill-opacity="0.7" transform="translate(412.553405985963 99.22684087484998) rotate(0 10.5 17.5)"><text x="10.5" y="25" font-family="Virgil, Segoe UI Emoji" font-size="28px" fill="#000000" text-anchor="middle" style="white-space: pre;" direction="ltr">R</text></g><g stroke-opacity="0.7" fill-opacity="0.7" transform="translate(441.94370933651516 405.68610641759085) rotate(0 10.5 17.5)"><text x="10.5" y="25" font-family="Virgil, Segoe UI Emoji" font-size="28px" fill="#000000" text-anchor="middle" style="white-space: pre;" direction="ltr">R</text></g><g stroke-linecap="round"><g stroke-opacity="0.7" fill-opacity="0.7" transform="translate(451.1658700604041 378.5730888581511) rotate(0 106.54107453427386 -37.519397742297826)"><path d="M0.11 -1.49 C2.24 -18.57, -1.19 -36.82, 0.63 -75.42 M-0.85 0.39 C0.22 -30.24, -0.39 -59.04, -0.82 -73.46 M0.56 -74.13 C59.58 -74.93, 117.83 -73.56, 213.93 -73.41 M0.85 -74.89 C82.45 -73.21, 165.66 -73.67, 213.88 -74.94" stroke="#000000" stroke-width="1" fill="none"></path></g></g><mask></mask><g stroke-linecap="round"><g stroke-opacity="0.7" fill-opacity="0.7" transform="translate(451.875554479575 460.2702749650239) rotate(0 -1.1807445314119036 90.76572129656944)"><path d="M1.42 -0.33 C1.95 69.89, 2.34 138.76, -1.17 179.46 M-0.27 -0.19 C1.33 44.3, 0.27 90.92, 1 180.83 M1.47 181.86 C-8.14 181.91, -12.91 178.16, -26.77 178.46 M-0.17 179.97 C-8.28 179.82, -18.09 179.72, -27.71 181.03 M-28.61 179.54 C-9.24 180.47, 6.14 181.82, 25.54 180.45 M-27.08 180.36 C-5.54 180.34, 14.52 180.24, 26.25 180.49" stroke="#000000" stroke-width="1" fill="none"></path></g></g><mask></mask><g stroke-opacity="0.7" fill-opacity="0.7" stroke-linecap="round" transform="translate(663.3540846117132 301.6646329745401) rotate(0 3.346487490621371 2.919276321605878)"><path d="M4.48 0.14 C5.24 0.19, 5.4 -0.26, 5.87 0.05 C6.33 0.36, 7.34 1.39, 7.27 2.01 C7.2 2.63, 6.1 3.06, 5.46 3.76 C4.82 4.45, 4.1 5.87, 3.42 6.17 C2.74 6.46, 2.02 5.96, 1.37 5.51 C0.73 5.07, -0.37 3.92, -0.46 3.51 C-0.55 3.1, 0.47 3.69, 0.84 3.07 C1.2 2.45, 1.19 0.39, 1.73 -0.21 C2.26 -0.8, 3.62 -0.62, 4.05 -0.49 C4.49 -0.36, 4.39 0.34, 4.34 0.56 M1.34 -0.37 C1.71 -0.54, 3.25 -0.06, 4.17 0.22 C5.1 0.5, 6.28 1.01, 6.89 1.3 C7.49 1.59, 7.79 1.5, 7.8 1.96 C7.81 2.42, 7.75 3.49, 6.95 4.07 C6.14 4.65, 3.86 5.28, 2.97 5.44 C2.08 5.6, 2.1 5.12, 1.59 5.03 C1.08 4.94, 0.07 5.25, -0.09 4.9 C-0.25 4.55, 0.2 3.71, 0.62 2.91 C1.04 2.11, 2.44 0.7, 2.44 0.12 C2.44 -0.45, 0.49 -0.39, 0.62 -0.56" stroke="none" stroke-width="0" fill="#000000"></path><path d="M2.16 0.62 C3.07 0.39, 4.85 0.41, 5.52 0.74 C6.19 1.07, 6.13 1.97, 6.17 2.61 C6.2 3.25, 5.97 4.15, 5.74 4.58 C5.51 5.01, 5.08 5.06, 4.78 5.21 C4.48 5.36, 4.59 5.52, 3.92 5.49 C3.25 5.47, 1.32 5.3, 0.77 5.04 C0.23 4.79, 0.56 4.73, 0.64 3.98 C0.72 3.23, 1 1.13, 1.26 0.55 C1.52 -0.04, 1.96 0.5, 2.2 0.48 C2.43 0.45, 2.51 0.37, 2.65 0.39 M5.28 1.55 C5.67 1.49, 5.46 1.16, 5.63 1.46 C5.8 1.77, 6.52 2.72, 6.29 3.41 C6.07 4.1, 4.77 5.41, 4.28 5.6 C3.78 5.8, 3.8 4.45, 3.32 4.58 C2.85 4.71, 2.13 6.4, 1.42 6.38 C0.7 6.36, -0.96 5.12, -0.96 4.47 C-0.95 3.82, 0.78 3.12, 1.44 2.47 C2.1 1.81, 2.4 0.98, 3.02 0.52 C3.63 0.05, 4.75 -0.12, 5.11 -0.34 C5.48 -0.56, 5.39 -1.05, 5.21 -0.8" stroke="#000000" stroke-width="1" fill="none"></path></g></svg>