<svg version="1.1" xmlns="http://www.w3.org/2000/svg" viewBox="0 0 1214.9203897781676 761.6888882360413" width="1214.9203897781676" height="761.6888882360413" filter="invert(93%) hue-rotate(180deg)">
  <!-- svg-source:excalidraw -->
  
  <defs>
    <style class="style-fonts">
      @font-face {
        font-family: "Virgil";
        src: url("https://excalidraw.com/Virgil.woff2");
      }
      @font-face {
        font-family: "Cascadia";
        src: url("https://excalidraw.com/Cascadia.woff2");
      }
    </style>
  </defs>
  <g stroke-opacity="0.7" fill-opacity="0.7" stroke-linecap="round" transform="translate(10 10) rotate(0 136.06131677464035 116.32185112857847)"><path d="M1.5 -1.17 C90.76 -0.82, 183.03 -0.92, 272.28 0 M-0.17 -0.02 C106.62 1.99, 213.09 2.47, 272.27 0.39 M270.69 1.46 C274.1 48.31, 274.28 95.83, 272.92 233.06 M271.8 -0.34 C272.43 56.6, 273.04 114.43, 271.55 232.58 M270.77 232.77 C200.88 232.4, 129.88 231.54, -1.43 231.56 M272.74 233.22 C182.05 230.18, 92.32 229.89, 0.3 233.06 M-1.62 233.82 C1.55 155.87, 2.09 81.38, -0.2 -0.77 M-0.37 232.84 C-0.01 181.67, -0.08 131.23, 0.68 -0.74" stroke="#000000" stroke-width="1" fill="none"></path></g><g stroke-opacity="0.7" fill-opacity="0.7" transform="translate(230.8352519216566 50.77407756176723) rotate(0 19 12.5)"><text x="19" y="18" font-family="Virgil, Segoe UI Emoji" font-size="20px" fill="#000000" text-anchor="middle" style="white-space: pre;" direction="ltr">VCC</text></g><g stroke-opacity="0.7" fill-opacity="0.7" transform="translate(227.1694721927136 98.56838563525406) rotate(0 21.5 12.5)"><text x="21.5" y="18" font-family="Virgil, Segoe UI Emoji" font-size="20px" fill="#000000" text-anchor="middle" style="white-space: pre;" direction="ltr">SDA</text></g><g stroke-opacity="0.7" fill-opacity="0.7" transform="translate(228.00369246377073 140.53645587719785) rotate(0 19.5 12.5)"><text x="19.5" y="18" font-family="Virgil, Segoe UI Emoji" font-size="20px" fill="#000000" text-anchor="middle" style="white-space: pre;" direction="ltr">SCL</text></g><g stroke-opacity="0.7" fill-opacity="0.7" transform="translate(17.573488433232683 106.60895782783331) rotate(270 64.5 22.5)"><text x="64.5" y="32" font-family="Virgil, Segoe UI Emoji" font-size="36px" fill="#000000" text-anchor="middle" style="white-space: pre;" direction="ltr">Master</text></g><g stroke-opacity="0.7" fill-opacity="0.7" stroke-linecap="round" transform="translate(389.98289419255815 305.77340356359207) rotate(0 129.39072955958025 110.61901749912298)"><path d="M0.9 -0.92 C66.69 0.55, 132.26 0.65, 259.74 -0.81 M0.78 0.02 C80.09 -0.04, 160.24 0.05, 259.53 -0.36 M257.85 -0.77 C259.17 80.1, 257.02 157.99, 258.61 221.26 M258.74 0.19 C258.08 55.19, 258.78 112.68, 258.64 220.38 M258.98 221.27 C199.31 223, 140.25 223.01, -0.26 220.02 M259.38 220.98 C163.33 220.67, 66.13 220.68, -0.2 221.03 M-0.86 220.63 C0 143.86, -0.32 67.19, 1.07 0.25 M0.53 222.07 C-1.31 168.16, -1.53 116.38, 0.56 -0.31" stroke="#000000" stroke-width="1" fill="none"></path></g><g stroke-opacity="0.7" fill-opacity="0.7" transform="translate(413.18817959068076 329.8249454964449) rotate(0 19 12.5)"><text x="19" y="18" font-family="Virgil, Segoe UI Emoji" font-size="20px" fill="#000000" text-anchor="middle" style="white-space: pre;" direction="ltr">VCC</text></g><g stroke-opacity="0.7" fill-opacity="0.7" transform="translate(467.2911593070784 328.9718771949081) rotate(0 21.5 12.5)"><text x="21.5" y="18" font-family="Virgil, Segoe UI Emoji" font-size="20px" fill="#000000" text-anchor="middle" style="white-space: pre;" direction="ltr">SDA</text></g><g stroke-opacity="0.7" fill-opacity="0.7" transform="translate(528.9346000469153 331.413954132145) rotate(0 19.5 12.5)"><text x="19.5" y="18" font-family="Virgil, Segoe UI Emoji" font-size="20px" fill="#000000" text-anchor="middle" style="white-space: pre;" direction="ltr">SCL</text></g><g stroke-opacity="0.7" fill-opacity="0.7" transform="translate(473.34537258285104 420.6251275320593) rotate(0 48 22.5)"><text x="48" y="32" font-family="Virgil, Segoe UI Emoji" font-size="36px" fill="#000000" text-anchor="middle" style="white-space: pre;" direction="ltr">Slave</text></g><g stroke-linecap="round"><g stroke-opacity="0.7" fill-opacity="0.7" transform="translate(286.60790537137837 62.93882708793285) rotate(0 457.66697059720417 -0.6587427600641149)"><path d="M0.63 0.22 C321.27 0.13, 643.04 -1.13, 914.61 0.42 M-0.16 0.27 C242.79 -2.35, 484.69 -2.25, 915.49 -0.31" stroke="#000000" stroke-width="1" fill="none"></path></g></g><mask></mask><g stroke-linecap="round"><g stroke-opacity="0.7" fill-opacity="0.7" transform="translate(288.05054931346064 113.76517673474024) rotate(0 457.9653000935878 -1.2978062146183618)"><path d="M0.74 -0.2 C357.5 -3.88, 714.3 -3.05, 914.79 -0.23 M0.39 0.07 C249.46 -2.86, 498.2 -2.29, 915.54 -0.38" stroke="#000000" stroke-width="1" fill="none"></path></g></g><mask></mask><g stroke-linecap="round"><g stroke-opacity="0.7" fill-opacity="0.7" transform="translate(285.01008829002166 154.81140055116649) rotate(0 457.4534613881227 -0.7490479610077188)"><path d="M-0.31 0.56 C279.53 -1.41, 558.72 -1.57, 915.14 0.36 M-0.18 0.28 C256.83 -2.9, 514.22 -2.81, 915.22 0.4" stroke="#000000" stroke-width="1" fill="none"></path></g></g><mask></mask><g stroke-opacity="0.7" fill-opacity="0.7" transform="translate(222.40965864876063 182.90157845333306) rotate(0 23 12.5)"><text x="23" y="18" font-family="Virgil, Segoe UI Emoji" font-size="20px" fill="#000000" text-anchor="middle" style="white-space: pre;" direction="ltr">GND</text></g><g stroke-linecap="round"><g stroke-opacity="0.7" fill-opacity="0.7" transform="translate(289.63226612807046 197.67085692606022) rotate(0 457.33759935609663 -0.1911157714966265)"><path d="M-0.61 0.7 C239.22 -1.15, 477.16 -1.95, 914.58 0.24 M-0.28 -0.23 C298.87 -0.05, 597.59 0.12, 915.29 0.3" stroke="#000000" stroke-width="1" fill="none"></path></g></g><mask></mask><g stroke-opacity="0.7" fill-opacity="0.7" transform="translate(585.7447509497192 331.8841686018435) rotate(0 23 12.5)"><text x="23" y="18" font-family="Virgil, Segoe UI Emoji" font-size="20px" fill="#000000" text-anchor="middle" style="white-space: pre;" direction="ltr">GND</text></g><g stroke-opacity="0.7" fill-opacity="0.7" stroke-linecap="round" transform="translate(752.9955134996477 314.33736822385356) rotate(0 129.39072955958028 110.61901749912298)"><path d="M0 -1.11 C85.09 -0.1, 170.36 -1.62, 259.67 1.58 M-0.64 0 C62.37 1.12, 125.71 0.85, 258.52 0.13 M259.22 -0.41 C257.27 59.73, 258.71 121.65, 260.03 221.61 M258.39 0.55 C258.59 48.07, 258.96 94.89, 258.15 220.61 M258.14 220.44 C198.37 218.99, 137.81 220.21, -0.45 220.48 M258.46 220.59 C181.01 219.66, 104.21 219.75, 0.37 221.44 M-0.28 221.42 C1.24 143.12, 0.23 65.73, 1.71 -0.1 M0.16 221.87 C-0.49 139.31, -1.05 55.84, -0.07 -0.29" stroke="#000000" stroke-width="1" fill="none"></path></g><g stroke-opacity="0.7" fill-opacity="0.7" transform="translate(776.2007988977704 338.3889101567064) rotate(0 19 12.5)"><text x="19" y="18" font-family="Virgil, Segoe UI Emoji" font-size="20px" fill="#000000" text-anchor="middle" style="white-space: pre;" direction="ltr">VCC</text></g><g stroke-opacity="0.7" fill-opacity="0.7" transform="translate(830.3037786141678 337.53584185516956) rotate(0 21.5 12.5)"><text x="21.5" y="18" font-family="Virgil, Segoe UI Emoji" font-size="20px" fill="#000000" text-anchor="middle" style="white-space: pre;" direction="ltr">SDA</text></g><g stroke-opacity="0.7" fill-opacity="0.7" transform="translate(891.9472193540047 339.9779187924065) rotate(0 19.5 12.5)"><text x="19.5" y="18" font-family="Virgil, Segoe UI Emoji" font-size="20px" fill="#000000" text-anchor="middle" style="white-space: pre;" direction="ltr">SCL</text></g><g stroke-opacity="0.7" fill-opacity="0.7" transform="translate(836.3579918899405 429.1890921923208) rotate(0 48 22.5)"><text x="48" y="32" font-family="Virgil, Segoe UI Emoji" font-size="36px" fill="#000000" text-anchor="middle" style="white-space: pre;" direction="ltr">Slave</text></g><g stroke-opacity="0.7" fill-opacity="0.7" transform="translate(948.7573702568088 340.448133262105) rotate(0 23 12.5)"><text x="23" y="18" font-family="Virgil, Segoe UI Emoji" font-size="20px" fill="#000000" text-anchor="middle" style="white-space: pre;" direction="ltr">GND</text></g><g stroke-linecap="round"><g stroke-opacity="0.7" fill-opacity="0.7" transform="translate(427.8373200550996 301.81771427369745) rotate(0 0.424291182446467 -119.49066243574705)"><path d="M0.2 -0.98 C0.8 -49.84, 1.43 -98.96, 0.18 -238.73 M0.74 0.16 C0.22 -91.4, -0.79 -182.36, 0.82 -239.14" stroke="#000000" stroke-width="1" fill="none"></path></g></g><mask></mask><g stroke-linecap="round"><g stroke-opacity="0.7" fill-opacity="0.7" transform="translate(790.7481211736118 313.97955836745336) rotate(0 1.1043749190548624 -125.75059441236348)"><path d="M0.63 -0.22 C3.47 -91.28, 3.62 -184.64, -0.1 -250.55 M-0.52 -0.55 C0.88 -67.53, 1.33 -135.3, -0.45 -251.28" stroke="#000000" stroke-width="1" fill="none"></path></g></g><mask></mask><g stroke-linecap="round"><g stroke-opacity="0.7" fill-opacity="0.7" transform="translate(488.6465405238792 306.37840580885586) rotate(0 0.07380273160504203 -95.38950355461608)"><path d="M0.35 1.68 C0.49 -53.2, 0.11 -105.73, 0.24 -192.32 M0.35 0.09 C1.45 -55, 0.03 -107.86, -0.61 -192.46" stroke="#000000" stroke-width="1" fill="none"></path></g></g><mask></mask><g stroke-linecap="round"><g stroke-opacity="0.7" fill-opacity="0.7" transform="translate(851.981632824838 313.97955836745336) rotate(0 -0.8774826493537375 -100.76205302802498)"><path d="M-2 -1.32 C0.43 -40.41, 0.77 -81.41, -0.43 -200.67 M-0.66 -0.85 C0.17 -41.15, -0.68 -83.34, -0.17 -199.94" stroke="#000000" stroke-width="1" fill="none"></path></g></g><mask></mask><g stroke-linecap="round"><g stroke-opacity="0.7" fill-opacity="0.7" transform="translate(550.9759915043785 306.37840580885586) rotate(0 -0.38631957790465776 -77.5734762607712)"><path d="M-2 1.34 C2.13 -51.07, 0.22 -99.04, 0.73 -156.49 M0 -0.4 C1.37 -38.82, 1.65 -78.55, 0.53 -155.42" stroke="#000000" stroke-width="1" fill="none"></path></g></g><mask></mask><g stroke-linecap="round"><g stroke-opacity="0.7" fill-opacity="0.7" transform="translate(912.7908532936176 318.5402499026118) rotate(0 -0.4815444238483906 -81.62221577477044)"><path d="M-1.6 1.19 C1.86 -57.39, -0.48 -112.37, 0.64 -162.63 M-0.67 0.52 C0.47 -53.62, 0.46 -108.74, 0.12 -164.43" stroke="#000000" stroke-width="1" fill="none"></path></g></g><mask></mask><g stroke-linecap="round"><g stroke-opacity="0.7" fill-opacity="0.7" transform="translate(608.7447509497192 303.3379447854169) rotate(0 -1.1155100269899663 -51.49909798066864)"><path d="M-1.77 1.76 C-0.32 -32.99, 0 -62.35, -1.19 -104.76 M-0.68 0.24 C-1.38 -39.37, -1.32 -79.91, -0.65 -104.21" stroke="#000000" stroke-width="1" fill="none"></path></g></g><mask></mask><g stroke-linecap="round"><g stroke-opacity="0.7" fill-opacity="0.7" transform="translate(975.1203042741167 313.97955836745336) rotate(0 0.6075667500445547 -60.077415636636886)"><path d="M-0.38 -0.89 C1.21 -22.73, 2.55 -50.75, 0.73 -118.17 M0.93 -0.38 C-0.44 -41.27, -0.97 -80.36, 0.44 -119.78" stroke="#000000" stroke-width="1" fill="none"></path></g></g><mask></mask><g stroke-opacity="0.7" fill-opacity="0.7" stroke-linecap="round" transform="translate(424.8704733221216 60.35178321047425) rotate(0 3.346487490621371 2.919276321605878)"><path d="M3.11 1.1 C3.58 1.11, 3.66 0.56, 4.28 0.63 C4.9 0.69, 6.43 1.13, 6.82 1.5 C7.21 1.86, 6.95 2.34, 6.62 2.84 C6.29 3.35, 5.42 4.11, 4.87 4.53 C4.31 4.95, 3.92 5.24, 3.3 5.37 C2.68 5.5, 1.72 5.65, 1.13 5.32 C0.54 5, -0.31 4.07, -0.26 3.42 C-0.21 2.77, 0.87 2.15, 1.42 1.43 C1.96 0.72, 2.76 -0.64, 2.99 -0.85 C3.23 -1.05, 2.9 0.09, 2.81 0.23 M3.64 0.08 C4.54 -0.12, 6.42 -0.62, 6.79 -0.42 C7.17 -0.23, 5.88 0.52, 5.88 1.26 C5.88 2.01, 6.93 3.32, 6.78 4.06 C6.62 4.8, 5.57 5.56, 4.94 5.73 C4.32 5.9, 3.66 5.37, 3.02 5.1 C2.38 4.82, 1.78 4.36, 1.13 4.08 C0.47 3.8, -1.02 3.9, -0.9 3.42 C-0.78 2.94, 1.02 1.75, 1.83 1.2 C2.64 0.65, 3.8 0.45, 3.95 0.13 C4.1 -0.19, 2.96 -0.74, 2.75 -0.74" stroke="none" stroke-width="0" fill="#000000"></path><path d="M3.55 0.09 C4.29 -0.04, 5.14 -0.5, 5.69 -0.04 C6.23 0.42, 6.6 2.26, 6.82 2.83 C7.04 3.4, 7.41 2.79, 7.01 3.39 C6.6 4, 5.17 6.15, 4.4 6.46 C3.63 6.77, 3.05 5.74, 2.38 5.24 C1.71 4.73, 0.69 3.8, 0.39 3.42 C0.08 3.04, 0.52 3.6, 0.54 2.98 C0.56 2.37, 0.13 0.12, 0.51 -0.26 C0.89 -0.64, 2.35 0.51, 2.82 0.72 C3.3 0.93, 3.38 1.08, 3.38 0.99 M2.45 0.07 C3.13 -0.16, 6.3 0.26, 7.03 0.53 C7.77 0.8, 7.22 0.77, 6.86 1.69 C6.49 2.61, 5.26 5.13, 4.84 6.04 C4.43 6.95, 4.7 7.02, 4.36 7.13 C4.02 7.25, 3.56 7.11, 2.8 6.73 C2.05 6.35, 0.36 5.72, -0.16 4.83 C-0.68 3.93, -0.59 2.06, -0.33 1.37 C-0.07 0.67, 0.55 0.76, 1.4 0.66 C2.26 0.55, 4.15 0.87, 4.79 0.75 C5.42 0.62, 5.33 -0.04, 5.24 -0.09" stroke="#000000" stroke-width="1" fill="none"></path></g><g stroke-opacity="0.7" fill-opacity="0.7" stroke-linecap="round" transform="translate(485.513689448232 110.49629146191398) rotate(0 3.346487490621371 2.919276321605878)"><path d="M2.54 -0.53 C3.06 -0.61, 3.98 0.58, 4.61 1.15 C5.24 1.72, 6.04 2.25, 6.31 2.91 C6.58 3.57, 6.59 4.56, 6.23 5.11 C5.87 5.66, 4.83 6.23, 4.14 6.21 C3.45 6.18, 2.59 5.24, 2.1 4.98 C1.62 4.72, 1.52 5.03, 1.25 4.64 C0.98 4.24, 0.48 3.37, 0.49 2.61 C0.5 1.86, 0.84 0.62, 1.3 0.1 C1.76 -0.43, 2.81 -0.7, 3.28 -0.55 C3.74 -0.41, 4.12 0.63, 4.1 0.94 M2.04 -0.47 C2.85 -0.92, 5.8 -0.73, 6.6 -0.36 C7.4 0.01, 6.82 0.94, 6.87 1.75 C6.92 2.56, 7.19 3.95, 6.9 4.52 C6.61 5.09, 5.78 5.14, 5.12 5.15 C4.45 5.16, 3.6 4.85, 2.92 4.58 C2.25 4.3, 1.74 4.07, 1.05 3.51 C0.35 2.96, -1.43 1.82, -1.24 1.27 C-1.05 0.72, 1.49 0.23, 2.2 0.21 C2.91 0.19, 2.85 1, 3.02 1.15 C3.18 1.3, 2.92 1.48, 3.19 1.11" stroke="none" stroke-width="0" fill="#000000"></path><path d="M1.43 0.46 C1.87 -0.1, 2.32 -0.81, 3.21 -0.65 C4.11 -0.49, 6.08 0.67, 6.81 1.4 C7.54 2.14, 7.6 3.22, 7.58 3.76 C7.57 4.3, 7.22 4.34, 6.69 4.62 C6.17 4.91, 5.34 5.36, 4.43 5.46 C3.51 5.56, 1.89 5.4, 1.21 5.22 C0.53 5.05, 0.43 4.82, 0.34 4.41 C0.26 3.99, 0.34 3.4, 0.71 2.72 C1.08 2.03, 2.06 0.66, 2.57 0.29 C3.08 -0.08, 3.68 0.59, 3.77 0.5 M5.86 -0.4 C6.86 -0.31, 6.68 1.51, 6.79 2.13 C6.9 2.76, 6.9 2.99, 6.52 3.36 C6.13 3.73, 5.17 3.91, 4.48 4.35 C3.79 4.79, 3.02 5.86, 2.37 6.02 C1.71 6.18, 0.89 5.79, 0.57 5.3 C0.25 4.81, 0.46 3.48, 0.46 3.08 C0.47 2.67, 0.31 3.34, 0.61 2.85 C0.91 2.36, 1.85 0.81, 2.27 0.13 C2.68 -0.56, 2.73 -1.1, 3.12 -1.24 C3.51 -1.38, 4.48 -1.04, 4.6 -0.72" stroke="#000000" stroke-width="1" fill="none"></path></g><g stroke-opacity="0.7" fill-opacity="0.7" stroke-linecap="round" transform="translate(548.1334377639276 150.63983031280094) rotate(0 3.346487490621371 2.919276321605878)"><path d="M4.91 0.32 C5.41 0.36, 5.59 0.55, 5.77 1.08 C5.96 1.6, 5.96 2.87, 6.02 3.47 C6.07 4.06, 6.43 4.24, 6.11 4.63 C5.8 5.03, 4.94 5.61, 4.13 5.83 C3.32 6.05, 2.09 6.45, 1.26 5.96 C0.43 5.48, -0.85 3.82, -0.84 2.93 C-0.84 2.04, 0.73 1.16, 1.3 0.62 C1.86 0.08, 1.88 -0.29, 2.55 -0.32 C3.22 -0.35, 4.83 0.35, 5.32 0.43 C5.81 0.5, 5.48 0.23, 5.46 0.14 M2.85 1.07 C3.6 1.31, 4.65 0.48, 5.48 0.78 C6.32 1.07, 7.61 1.94, 7.85 2.84 C8.08 3.74, 7.81 5.46, 6.91 6.17 C6.02 6.87, 3.34 7.2, 2.49 7.07 C1.64 6.94, 2.24 5.82, 1.81 5.37 C1.38 4.92, 0.39 5.02, -0.11 4.37 C-0.61 3.71, -1.74 2.25, -1.2 1.42 C-0.65 0.59, 2.31 -0.35, 3.15 -0.62 C4 -0.89, 3.5 -0.54, 3.87 -0.19 C4.24 0.16, 5.19 1.57, 5.35 1.45" stroke="none" stroke-width="0" fill="#000000"></path><path d="M3.3 0.52 C4.14 0.32, 5.3 0, 5.87 0.25 C6.44 0.49, 6.53 1.32, 6.71 1.99 C6.89 2.65, 7.31 3.58, 6.93 4.26 C6.56 4.94, 5.31 5.69, 4.46 6.07 C3.61 6.45, 2.29 6.82, 1.84 6.55 C1.4 6.28, 2.02 4.97, 1.78 4.46 C1.54 3.94, 0.58 4.01, 0.4 3.45 C0.21 2.89, 0.33 1.74, 0.66 1.08 C1 0.42, 2.05 -0.34, 2.41 -0.49 C2.77 -0.64, 2.78 0.04, 2.82 0.18 M5.11 0.18 C5.84 -0.03, 5.7 -0.81, 5.73 -0.34 C5.77 0.14, 5.41 2.25, 5.3 3.01 C5.19 3.78, 5.24 3.81, 5.08 4.23 C4.91 4.65, 4.85 5.32, 4.3 5.54 C3.75 5.76, 2.46 5.6, 1.8 5.54 C1.13 5.47, 0.81 5.86, 0.33 5.14 C-0.16 4.42, -1.08 1.91, -1.1 1.24 C-1.13 0.58, -0.55 1.21, 0.18 1.13 C0.91 1.04, 2.67 0.72, 3.27 0.73 C3.87 0.73, 3.78 1.08, 3.77 1.14" stroke="#000000" stroke-width="1" fill="none"></path></g><g stroke-opacity="0.7" fill-opacity="0.7" stroke-linecap="round" transform="translate(604.1448210391611 195.2163637152358) rotate(0 3.346487490621371 2.919276321605878)"><path d="M3.9 -0.54 C4.42 -0.63, 4.86 -0.3, 5.3 0.39 C5.74 1.08, 6.55 2.72, 6.56 3.6 C6.57 4.49, 5.77 5.31, 5.35 5.71 C4.92 6.11, 4.47 6.17, 4.03 5.99 C3.58 5.81, 3.38 4.84, 2.69 4.63 C2.01 4.42, 0.46 5.16, -0.08 4.74 C-0.61 4.33, -0.73 2.8, -0.52 2.16 C-0.32 1.51, 0.32 1.14, 1.14 0.87 C1.97 0.6, 3.89 0.55, 4.45 0.55 C5 0.54, 4.63 0.8, 4.48 0.84 M3.4 -0.35 C4.2 -0.18, 3.89 0.89, 4.35 1.39 C4.82 1.9, 5.6 2.52, 6.19 2.66 C6.79 2.8, 7.85 1.77, 7.92 2.23 C7.99 2.7, 7.41 4.91, 6.61 5.47 C5.8 6.02, 3.95 5.86, 3.11 5.55 C2.27 5.24, 2.15 3.76, 1.56 3.61 C0.98 3.47, -0.08 5.07, -0.41 4.67 C-0.74 4.26, -0.85 1.71, -0.43 1.18 C0 0.65, 1.45 1.5, 2.14 1.48 C2.84 1.46, 3.89 1.12, 3.75 1.07" stroke="none" stroke-width="0" fill="#000000"></path><path d="M3.52 0.89 C4.14 0.75, 4.61 0.48, 5.14 0.76 C5.66 1.04, 6.41 2.12, 6.68 2.59 C6.95 3.05, 6.96 3.22, 6.75 3.55 C6.54 3.89, 5.99 4.08, 5.41 4.6 C4.82 5.13, 4.1 6.64, 3.23 6.71 C2.37 6.77, 0.69 5.68, 0.24 4.99 C-0.21 4.3, 0.38 3.38, 0.51 2.57 C0.63 1.76, 0.6 0.68, 0.99 0.13 C1.38 -0.42, 2.39 -0.63, 2.85 -0.72 C3.31 -0.8, 3.67 -0.61, 3.76 -0.39 M3.02 -0.05 C3.44 -0.62, 3.2 -1.14, 3.82 -0.95 C4.44 -0.76, 6.39 0.22, 6.75 1.08 C7.11 1.95, 6.33 3.5, 5.99 4.24 C5.65 4.97, 5.25 5.22, 4.7 5.49 C4.15 5.76, 3.17 6.19, 2.69 5.85 C2.21 5.51, 2.4 4.2, 1.82 3.47 C1.24 2.73, -0.74 1.96, -0.79 1.46 C-0.84 0.96, 0.8 0.7, 1.52 0.46 C2.25 0.23, 3.17 0.17, 3.57 0.03 C3.97 -0.11, 3.91 -0.42, 3.94 -0.39" stroke="#000000" stroke-width="1" fill="none"></path></g><g stroke-opacity="0.7" fill-opacity="0.7" stroke-linecap="round" transform="translate(787.296230018731 58.9672203156195) rotate(0 3.346487490621371 2.919276321605878)"><path d="M3.5 -0.47 C4.04 -0.42, 4.75 0.53, 5.42 1.01 C6.08 1.49, 7.23 1.77, 7.47 2.41 C7.7 3.06, 7.38 4.16, 6.8 4.88 C6.22 5.61, 5.02 6.71, 4 6.74 C2.98 6.77, 1.2 5.67, 0.69 5.07 C0.17 4.46, 0.94 3.73, 0.89 3.11 C0.85 2.49, 0.18 1.81, 0.4 1.37 C0.63 0.92, 1.43 0.67, 2.23 0.43 C3.03 0.19, 4.59 0.02, 5.19 -0.06 C5.79 -0.14, 5.88 -0.06, 5.85 -0.05 M1.47 -0.05 C2.46 -0.53, 4.44 -0.48, 5.39 -0.04 C6.33 0.4, 7.16 1.83, 7.15 2.58 C7.14 3.33, 5.52 4.06, 5.32 4.45 C5.11 4.85, 6.23 4.64, 5.9 4.95 C5.57 5.27, 4.32 6.36, 3.33 6.34 C2.35 6.33, 0.29 5.48, -0.02 4.87 C-0.32 4.26, 1.49 3.25, 1.52 2.68 C1.55 2.11, -0.11 1.6, 0.19 1.42 C0.48 1.24, 2.86 1.99, 3.31 1.61 C3.76 1.22, 2.94 -0.76, 2.87 -0.91" stroke="none" stroke-width="0" fill="#000000"></path><path d="M4.52 -0.12 C5.15 -0.16, 5.51 0.43, 5.95 0.95 C6.38 1.48, 7.18 2.32, 7.11 3.04 C7.03 3.75, 6.13 4.66, 5.49 5.24 C4.85 5.81, 3.68 6.5, 3.25 6.49 C2.82 6.48, 3.32 5.51, 2.9 5.2 C2.48 4.89, 1.19 5.15, 0.71 4.65 C0.23 4.14, 0.02 2.94, 0.02 2.17 C0.02 1.4, 0.16 0.36, 0.7 0.03 C1.24 -0.31, 2.75 0.14, 3.27 0.17 C3.79 0.21, 3.69 0.26, 3.84 0.24 M3.5 -1.28 C3.73 -1.26, 3.91 0.47, 4.28 1.04 C4.66 1.61, 5.41 1.6, 5.75 2.15 C6.1 2.7, 6.6 3.72, 6.35 4.32 C6.1 4.92, 4.98 5.36, 4.26 5.76 C3.55 6.15, 2.92 7.08, 2.06 6.69 C1.19 6.3, -0.37 4.04, -0.92 3.4 C-1.47 2.77, -1.57 3.24, -1.27 2.88 C-0.97 2.53, 0.06 1.56, 0.87 1.26 C1.68 0.95, 3.21 1.13, 3.58 1.07 C3.95 1, 3.12 1.16, 3.1 0.87" stroke="#000000" stroke-width="1" fill="none"></path></g><g stroke-opacity="0.7" fill-opacity="0.7" stroke-linecap="round" transform="translate(848.1528886637943 109.74570619143668) rotate(0 3.346487490621371 2.919276321605878)"><path d="M3.19 -0.56 C3.84 -0.31, 5.17 0.97, 5.64 1.69 C6.12 2.41, 5.99 3.2, 6.06 3.73 C6.12 4.26, 6.2 4.68, 6.03 4.87 C5.86 5.07, 5.8 4.66, 5.05 4.89 C4.3 5.13, 2.44 6.38, 1.53 6.27 C0.62 6.16, -0.11 4.85, -0.41 4.23 C-0.72 3.6, -0.63 3.07, -0.3 2.52 C0.04 1.96, 0.87 1.21, 1.6 0.89 C2.33 0.58, 3.62 0.63, 4.07 0.63 C4.51 0.62, 4.33 1.02, 4.27 0.84 M1.77 1.37 C2.2 1.36, 3.28 1.42, 4.23 1.2 C5.19 0.97, 6.89 -0.38, 7.51 0.01 C8.12 0.4, 8.25 2.73, 7.92 3.53 C7.6 4.33, 6.2 4.66, 5.55 4.8 C4.89 4.95, 4.76 4.11, 3.98 4.41 C3.2 4.71, 1.67 6.8, 0.85 6.63 C0.04 6.46, -0.79 4.01, -0.91 3.39 C-1.02 2.77, -0.58 3.29, 0.14 2.91 C0.87 2.53, 3.31 1.41, 3.43 1.1 C3.56 0.8, 1.06 1.08, 0.89 1.07" stroke="none" stroke-width="0" fill="#000000"></path><path d="M4.17 0.35 C4.77 0.41, 5.76 1.35, 6.23 1.73 C6.71 2.12, 7.03 2.26, 7.04 2.65 C7.05 3.04, 6.75 3.38, 6.29 4.08 C5.84 4.77, 5.19 6.54, 4.3 6.8 C3.42 7.07, 1.61 6.21, 0.99 5.66 C0.37 5.11, 0.69 4.3, 0.59 3.51 C0.48 2.71, 0.21 1.55, 0.36 0.89 C0.52 0.23, 0.76 -0.29, 1.51 -0.47 C2.26 -0.65, 4.26 -0.4, 4.88 -0.19 C5.49 0.02, 5.3 0.65, 5.21 0.79 M3.49 -1.11 C4.13 -1.03, 6.17 -0.07, 6.61 0.77 C7.04 1.61, 6.37 3.16, 6.11 3.92 C5.85 4.67, 5.53 4.98, 5.03 5.31 C4.52 5.64, 3.56 6.17, 3.07 5.9 C2.58 5.63, 2.72 4.4, 2.08 3.72 C1.43 3.03, -0.65 2.29, -0.78 1.79 C-0.92 1.29, 0.62 1.01, 1.28 0.73 C1.95 0.44, 2.44 0.25, 3.19 0.1 C3.95 -0.06, 5.44 -0.22, 5.83 -0.2 C6.22 -0.18, 5.91 -0.1, 5.54 0.23" stroke="#000000" stroke-width="1" fill="none"></path></g><g stroke-opacity="0.7" fill-opacity="0.7" stroke-linecap="round" transform="translate(910.1724133976163 150.83364132759408) rotate(0 3.346487490621371 2.919276321605878)"><path d="M2.9 -0.13 C3.8 -0.16, 5.58 -0.31, 6.37 0.13 C7.17 0.57, 7.65 1.64, 7.65 2.52 C7.65 3.4, 7.08 4.93, 6.39 5.41 C5.7 5.88, 4.1 5.46, 3.5 5.38 C2.9 5.31, 3.31 5.19, 2.82 4.93 C2.32 4.67, 0.92 4.26, 0.53 3.84 C0.15 3.42, 0.31 2.99, 0.51 2.4 C0.71 1.8, 1.03 0.78, 1.71 0.27 C2.39 -0.24, 4.03 -0.56, 4.59 -0.65 C5.15 -0.74, 5.33 -0.31, 5.09 -0.27 M5.6 0.02 C6.52 0.45, 7.33 1.98, 7.28 2.75 C7.22 3.52, 5.54 4.26, 5.29 4.65 C5.03 5.04, 6.1 4.81, 5.74 5.09 C5.37 5.37, 4.09 6.41, 3.1 6.35 C2.12 6.29, 0.07 5.39, -0.2 4.75 C-0.47 4.1, 1.39 3.07, 1.47 2.48 C1.55 1.9, -0.05 1.4, 0.29 1.25 C0.63 1.09, 2.68 1.91, 3.52 1.53 C4.36 1.14, 5.06 -0.88, 5.34 -1.07 C5.63 -1.26, 5.31 0.22, 5.23 0.39" stroke="none" stroke-width="0" fill="#000000"></path><path d="M4.35 0.18 C4.95 0.36, 6.17 0.96, 6.46 1.55 C6.75 2.14, 6.36 3.05, 6.09 3.73 C5.82 4.42, 5.05 5.39, 4.82 5.68 C4.58 5.96, 5.19 5.42, 4.7 5.45 C4.21 5.48, 2.68 6.13, 1.9 5.85 C1.13 5.57, 0.44 4.53, 0.05 3.76 C-0.35 3, -0.63 1.81, -0.45 1.26 C-0.27 0.7, 0.33 0.58, 1.13 0.43 C1.93 0.28, 3.58 0.36, 4.33 0.35 C5.08 0.34, 5.55 0.2, 5.63 0.38 M2.12 0.22 C2.67 0.35, 3.9 -0.04, 4.7 0.31 C5.5 0.66, 6.66 1.62, 6.9 2.33 C7.14 3.03, 6.57 3.79, 6.15 4.53 C5.74 5.28, 5.3 6.77, 4.4 6.81 C3.51 6.86, 1.69 5.13, 0.79 4.81 C-0.11 4.5, -0.8 5.23, -1 4.92 C-1.21 4.61, -0.81 3.51, -0.43 2.97 C-0.04 2.42, 0.75 2.01, 1.33 1.65 C1.9 1.29, 2.69 1.24, 3.04 0.8 C3.38 0.37, 3.13 -0.93, 3.41 -0.94" stroke="#000000" stroke-width="1" fill="none"></path></g><g stroke-opacity="0.7" fill-opacity="0.7" stroke-linecap="round" transform="translate(972.3857491462322 195.0225527004426) rotate(0 3.346487490621371 2.919276321605878)"><path d="M2.28 0.89 C2.9 0.95, 3.38 1.07, 4.06 1.23 C4.74 1.39, 5.76 1.59, 6.34 1.84 C6.92 2.09, 7.75 2.05, 7.52 2.75 C7.3 3.44, 5.86 5.47, 5.01 6.01 C4.16 6.55, 3.18 6.07, 2.44 5.98 C1.7 5.89, 0.98 5.85, 0.6 5.46 C0.21 5.07, 0.18 4.27, 0.12 3.65 C0.06 3.04, -0.12 2.31, 0.22 1.77 C0.57 1.24, 1.77 0.85, 2.21 0.42 C2.65 -0.01, 2.89 -0.9, 2.89 -0.8 M2.67 1.09 C3.61 0.54, 5.54 -1.13, 6.39 -0.95 C7.24 -0.77, 7.76 1.4, 7.77 2.17 C7.78 2.94, 6.81 3.36, 6.43 3.68 C6.05 3.99, 6.18 3.46, 5.49 4.04 C4.79 4.63, 3.23 7.1, 2.28 7.2 C1.33 7.29, 0.19 5.12, -0.23 4.62 C-0.65 4.13, -0.64 4.69, -0.25 4.23 C0.15 3.78, 1.85 2.46, 2.16 1.9 C2.46 1.33, 1.45 1.05, 1.59 0.84 C1.73 0.64, 2.86 0.99, 3 0.68" stroke="none" stroke-width="0" fill="#000000"></path><path d="M4.87 0.71 C5.59 0.79, 6.37 0.77, 6.76 1.1 C7.15 1.44, 7.34 1.86, 7.22 2.73 C7.09 3.59, 6.76 5.71, 6 6.29 C5.25 6.87, 3.43 6.46, 2.67 6.22 C1.91 5.99, 1.91 5.51, 1.46 4.88 C1.02 4.25, 0.25 3.16, 0.02 2.43 C-0.2 1.71, -0.32 0.98, 0.12 0.52 C0.55 0.05, 1.72 -0.43, 2.62 -0.37 C3.52 -0.3, 4.99 0.62, 5.5 0.9 C6 1.18, 5.54 1.29, 5.64 1.3 M3.48 -0.92 C4.29 -0.71, 4.48 0.32, 4.96 0.87 C5.45 1.41, 6.17 1.75, 6.4 2.33 C6.62 2.92, 6.44 4.04, 6.32 4.38 C6.2 4.73, 6.48 4.39, 5.68 4.38 C4.87 4.37, 2.24 4.39, 1.49 4.32 C0.74 4.24, 1.29 4.24, 1.17 3.94 C1.04 3.63, 0.57 3.1, 0.74 2.49 C0.91 1.87, 1.63 0.69, 2.19 0.26 C2.74 -0.18, 4.05 -0.27, 4.06 -0.1 C4.07 0.07, 2.31 1.12, 2.25 1.29" stroke="#000000" stroke-width="1" fill="none"></path></g><g stroke-opacity="0.7" fill-opacity="0.7" transform="translate(498.7435406189927 490.7804303007323) rotate(0 19.5 12.5)"><text x="19.5" y="18" font-family="Virgil, Segoe UI Emoji" font-size="20px" fill="#000000" text-anchor="middle" style="white-space: pre;" direction="ltr">Out</text></g><g stroke-opacity="0.7" fill-opacity="0.7" transform="translate(868.5179582670878 497.1558512946649) rotate(0 19.5 12.5)"><text x="19.5" y="18" font-family="Virgil, Segoe UI Emoji" font-size="20px" fill="#000000" text-anchor="middle" style="white-space: pre;" direction="ltr">Out</text></g><g stroke-opacity="0.7" fill-opacity="0.7" stroke-linecap="round" transform="translate(560.7558034762708 650.2173537469338) rotate(0 12.750841987865329 24.704756351489095)"><path d="M-1.54 1.34 C8.03 -0.21, 18.86 0.02, 26.91 1.76 M-0.03 -0.19 C5.68 -0.99, 10.38 0.91, 24.85 -0.09 M26.69 -1.64 C27.02 14.23, 26.72 27.36, 23.64 49.87 M26.07 -0.54 C24.96 14.52, 26.2 29.75, 25.24 49.94 M23.8 48.34 C17.39 48.26, 13.98 48.87, -1.16 50.52 M26.46 48.57 C19.7 49.75, 11.62 49.3, -0.54 49.51 M1.79 49.5 C0.92 36.35, -0.28 24.36, 1.03 -1.95 M-0.39 48.9 C0.58 30.68, -0.49 13.55, 0.16 0.1" stroke="#000000" stroke-width="1" fill="none"></path></g><g stroke-linecap="round"><g stroke-opacity="0.7" fill-opacity="0.7" transform="translate(586.8844548883466 650.1831793793923) rotate(0 16.92128294543045 29.06299555101255)"><path d="M-1.07 -1.41 C7.33 -6.3, 16.41 -17.81, 34.91 -34.62 M-0.84 0.8 C11.79 -11.88, 22.21 -22.6, 33.9 -34.41 M33.89 -33.16 C32.84 -4.01, 32.62 27.95, 31.85 92.75 M33.29 -33.18 C33.65 4.01, 34.94 42.9, 33.9 90.66 M33.24 89.33 C27.51 79.07, 16.9 70.8, 1.59 48.22 M32.83 90.94 C20.61 74.69, 8.32 57.24, 3.09 48.02" stroke="#000000" stroke-width="1" fill="none"></path></g></g><mask></mask><g stroke-linecap="round"><g stroke-opacity="0.7" fill-opacity="0.7" transform="translate(514.4883911260206 526.5611076699581) rotate(0 23.547449795099965 70.85929348884343)"><path d="M-1.93 0.64 C0.75 44.88, 0.8 89.31, 1.47 142.21 M0.32 -0.66 C-1.96 38.83, -1.6 78.87, -0.08 139.73 M-0.63 139.22 C11.3 140.64, 22.93 141.43, 49.02 142.37 M0.52 139.79 C12.2 141.19, 24.92 141.63, 47.07 140.91" stroke="#000000" stroke-width="1" fill="none"></path></g></g><mask></mask><g stroke-opacity="0.7" fill-opacity="0.7" stroke-linecap="round" transform="translate(929.7535004783723 658.6424681792481) rotate(0 12.750841987865329 24.704756351489095)"><path d="M1.47 0.14 C6.11 1.62, 13.63 0.44, 24.7 -0.23 M-0.07 -0.39 C9.4 -0.57, 16.68 -0.76, 26.12 0.54 M26.48 1.04 C24.76 18.73, 25.01 35.61, 26.26 47.93 M24.54 0.86 C26.42 18.99, 25.49 39.3, 25.24 48.87 M25.9 48.39 C15.73 47.98, 6.16 50.25, -1.6 49.86 M25.15 49.28 C16.88 49.48, 9.11 49.65, 0.75 50.34 M-0.08 49.2 C0.11 38.51, -1.13 24.61, 0.09 1.77 M0.14 49.87 C-0.22 30.5, 0.54 10.05, -0.33 0.52" stroke="#000000" stroke-width="1" fill="none"></path></g><g stroke-linecap="round"><g stroke-opacity="0.7" fill-opacity="0.7" transform="translate(955.882151890448 658.6082938117066) rotate(0 17.218956782712212 29.052024802051577)"><path d="M0.14 -0.35 C10.07 -8.02, 17.38 -18.03, 33.57 -33.19 M-0.39 0.97 C11.61 -12.39, 23.66 -23.82, 34.34 -32.99 M34.83 -34.98 C34.05 13.88, 32.14 64.16, 32.32 93.08 M34.66 -33.24 C32.67 12.58, 33.75 59.45, 33.26 92.03 M32.77 91.05 C25.16 81.17, 20.19 69.97, 2.99 49.34 M33.67 91.3 C26.75 81.44, 19.16 70.71, 3.47 48.15" stroke="#000000" stroke-width="1" fill="none"></path></g></g><mask></mask><g stroke-linecap="round"><g stroke-opacity="0.7" fill-opacity="0.7" transform="translate(883.4860881281221 534.9862221022724) rotate(0 23.9426245591967 70.80510217702209)"><path d="M-0.35 1.74 C1.75 49.05, 0.23 96.76, 0.61 141.8 M0.97 -0.43 C-0.28 49.56, 0.52 100.88, 0.8 141.45 M-1.18 140.5 C14.47 138.34, 31.54 138.84, 49.06 142.04 M0.56 140.32 C10.47 140.99, 21.43 139.62, 48.01 139.88" stroke="#000000" stroke-width="1" fill="none"></path></g></g><mask></mask></svg>