<svg version="1.1" xmlns="http://www.w3.org/2000/svg" viewBox="0 0 879.8769369523308 418.8726414149719" width="879.8769369523308" height="418.8726414149719" filter="invert(93%) hue-rotate(180deg)">
  <!-- svg-source:excalidraw -->
  
  <defs>
    <style class="style-fonts">
      @font-face {
        font-family: "Virgil";
        src: url("https://excalidraw.com/Virgil.woff2");
      }
      @font-face {
        font-family: "Cascadia";
        src: url("https://excalidraw.com/Cascadia.woff2");
      }
    </style>
  </defs>
  <g stroke-linecap="round"><g stroke-opacity="0.7" fill-opacity="0.7" transform="translate(397.98181165082815 49.843168049560404) rotate(0 23.07358776632867 0.32520130509510636)"><path d="M1.7 0.15 C9 -0.98, 18.71 0.47, 45.95 1.57 M0.2 -0.92 C11.87 -0.39, 22.04 -0.29, 45.88 0.16" stroke="#000000" stroke-width="1" fill="none"></path></g></g><mask></mask><g stroke-linecap="round"><g stroke-opacity="0.7" fill-opacity="0.7" transform="translate(397.98181165082815 100.90678968587929) rotate(0 23.1560174809174 -0.3336546844802797)"><path d="M-1.76 -0.65 C14.38 -0.21, 28.62 -0.97, 47.85 -1.48 M0.87 0.82 C14.61 0.29, 29.59 0.51, 48.08 0.32" stroke="#000000" stroke-width="1" fill="none"></path></g></g><mask></mask><g stroke-linecap="round"><g stroke-opacity="0.7" fill-opacity="0.7" transform="translate(444.26578463117437 51.88510803398742) rotate(0 -4.068578988415595 24.85365338378506)"><path d="M-0.27 -0.68 C-2.06 3.7, -10.82 17.52, -10.3 25.88 C-9.79 34.25, 0.47 45.3, 2.81 49.51 M1.78 1.58 C-0.14 6.2, -10.99 19.3, -10.94 27.43 C-10.89 35.57, -0.49 46.78, 2.08 50.38" stroke="#000000" stroke-width="1" fill="none"></path></g></g><mask></mask><g stroke-linecap="round"><g stroke-opacity="0.7" fill-opacity="0.7" transform="translate(454.4601835728712 53.57667444775393) rotate(0 -3.62760936397234 25.303563569094138)"><path d="M-0.62 -1.17 C-2.12 3.01, -10.81 16.86, -10.14 25.46 C-9.46 34.06, 1.39 46.19, 3.44 50.43 M1.26 0.83 C-0.24 5.15, -10.99 18.29, -10.69 26.78 C-10.39 35.27, 0.91 48.14, 3.05 51.78" stroke="#000000" stroke-width="1" fill="none"></path></g></g><mask></mask><g stroke-linecap="round"><g stroke-opacity="0.7" fill-opacity="0.7" transform="translate(400.7043982967308 49.16252138808477) rotate(0 -14.523555653884443 26.11136595373185)"><path d="M-0.59 -0.16 C-5.31 4.44, -28.64 19.1, -29.35 27.8 C-30.05 36.5, -9.04 47.95, -4.82 52.04 M1.3 -1.3 C-3.5 2.94, -29.73 16.84, -30.34 25.98 C-30.94 35.11, -6.74 49.5, -2.31 53.52" stroke="#000000" stroke-width="1" fill="none"></path></g></g><mask></mask><g stroke-opacity="0.7" fill-opacity="0.7" transform="translate(385.83021825001197 64.6658012012092) rotate(0 21 12.5)"><text x="21" y="18" font-family="Virgil, Segoe UI Emoji" font-size="20px" fill="#000000" text-anchor="middle" style="white-space: pre;" direction="ltr">XOR</text></g><g stroke-linecap="round"><g stroke-opacity="0.7" fill-opacity="0.7" transform="translate(280.91058587701116 26.701181559387237) rotate(0 -14.684635998421243 31.189546663290457)"><path d="M0.78 -1.18 C-4.27 1.13, -25.41 6.34, -30.39 15.06 C-35.38 23.78, -34.91 43.26, -29.11 51.13 C-23.3 59, -1.47 60.44, 4.45 62.28 M-0.28 0.81 C-5.46 3.29, -26.79 4.73, -31.22 13.34 C-35.65 21.96, -32.74 44.12, -26.84 52.49 C-20.94 60.86, -1.21 61.86, 4.18 63.56" stroke="#000000" stroke-width="1" fill="none"></path></g></g><mask></mask><g stroke-linecap="round"><g stroke-opacity="0.7" fill-opacity="0.7" transform="translate(278.86864589258414 26.020534897911602) rotate(0 16.826253213742916 31.730877258110013)"><path d="M-1.35 -1.93 C12.63 1.4, 26.79 -0.36, 35 0.68 M-0.69 0.13 C7.98 -0.62, 13.72 -0.01, 33.16 0.46 M33.6 3.04 C34.84 17.17, 34.34 28.78, 33.58 63.05 M33.22 2.16 C33.66 21.56, 32.91 41.76, 31.63 63.38 M32.3 65.39 C24.71 63.14, 13.92 64.74, 2.27 64.25 M31.38 63.08 C25.19 64.87, 20.02 63.56, 3.57 65.24" stroke="#000000" stroke-width="1" fill="none"></path></g></g><mask></mask><g stroke-opacity="0.7" fill-opacity="0.7" transform="translate(274.9525258614382 46.288341341365935) rotate(0 8 12.5)"><text x="8" y="18" font-family="Virgil, Segoe UI Emoji" font-size="20px" fill="#000000" text-anchor="middle" style="white-space: pre;" direction="ltr">&amp;</text></g><g stroke-linecap="round"><g stroke-opacity="0.7" fill-opacity="0.7" transform="translate(371.4365918532767 75.0270945241607) rotate(0 -29.838704527696564 -0.32642836635932326)"><path d="M0.95 -1.6 C-19.73 -0.44, -39.44 0.6, -60.13 0.4 M0.68 -0.88 C-14.38 0.28, -28.43 0.17, -60.63 0.95" stroke="#000000" stroke-width="1" fill="none"></path></g></g><mask></mask><g stroke-linecap="round"><g stroke-opacity="0.7" fill-opacity="0.7" transform="translate(312.90097896636814 41.675408111852335) rotate(0 116.66783919590034 -1.0268934800678835)"><path d="M0.84 0.16 C14.92 1.84, 31.9 -1.39, 42.59 -1.66 M0.59 -0.15 C16.06 -0.83, 31.42 -0.09, 44.36 -0.28 M41.69 0.56 C44.43 -9.85, 43.14 -24.24, 44.04 -28.97 M43.62 0.06 C44.13 -11.85, 43.48 -22.44, 43.27 -29.85 M42.91 -29.91 C97.94 -31.18, 150.56 -32.66, 231.24 -30.78 M43.37 -30.53 C94.83 -31.3, 145.43 -32.03, 232.11 -30.1 M231.46 -30.5 C234.1 -12.66, 232.01 9.39, 231.02 29.62 M232.71 -30.39 C231.4 -16.57, 231.15 -4.27, 232.41 28.88 M231.65 27.78 C208.99 29.72, 181.18 29.87, 134.07 26.76 M232.09 28.61 C194.32 28.19, 155.04 27.94, 135.72 27.81" stroke="#000000" stroke-width="1" fill="none"></path></g></g><mask></mask><g stroke-linecap="round"><g stroke-opacity="0.7" fill-opacity="0.7" transform="translate(449.03031126150427 90.68196773810132) rotate(0 119.6121036904317 0.5696912672410974)"><path d="M0.65 1.44 C79.32 -0.04, 158.81 1.39, 237.93 1.65 M-0.68 -0.51 C73.45 1.04, 145.01 0.81, 239.9 0.12" stroke="#000000" stroke-width="1" fill="none"></path></g></g><mask></mask><g stroke-linecap="round"><g stroke-opacity="0.7" fill-opacity="0.7" transform="translate(547.2042681986633 71.90435599882773) rotate(0 69.80181358523134 0.2099660509501291)"><path d="M1.21 -0.18 C33.03 -0.33, 68.23 -0.35, 138.92 0.67 M-0.86 0.65 C42.97 -0.55, 87.69 -0.3, 140.46 0.57" stroke="#000000" stroke-width="1" fill="none"></path></g></g><mask></mask><g stroke-opacity="0.7" fill-opacity="0.7" stroke-linecap="round" transform="translate(542.5139615776694 68.03666925767288) rotate(0 2.6081236014686624 2.371021455880623)"><path d="M2.52 -0.42 C3.03 -0.44, 3.79 0.65, 4.18 1.03 C4.56 1.42, 4.85 1.52, 4.81 1.88 C4.78 2.25, 4.07 2.64, 3.97 3.22 C3.88 3.81, 4.52 5.33, 4.24 5.41 C3.96 5.49, 2.87 4.12, 2.3 3.71 C1.73 3.29, 1.34 3.09, 0.82 2.91 C0.3 2.74, -0.91 2.88, -0.81 2.66 C-0.71 2.43, 0.7 1.96, 1.42 1.55 C2.14 1.14, 3.23 0.34, 3.51 0.18 C3.8 0.03, 3.17 0.61, 3.16 0.64 M4.16 0.58 C5.16 0.79, 5.76 1.06, 5.85 1.26 C5.94 1.46, 4.63 1.34, 4.68 1.8 C4.73 2.27, 6.5 3.8, 6.15 4.04 C5.79 4.28, 3.51 3.04, 2.55 3.23 C1.58 3.42, 0.62 5.28, 0.34 5.18 C0.06 5.07, 0.84 3.32, 0.86 2.61 C0.88 1.9, 0.39 1.34, 0.44 0.92 C0.48 0.5, 0.83 0.4, 1.14 0.11 C1.44 -0.18, 1.79 -1.03, 2.26 -0.81 C2.74 -0.58, 4.05 1.4, 4 1.46" stroke="none" stroke-width="0" fill="#000000"></path><path d="M3.93 -0.11 C4.5 -0.14, 4.9 0.6, 5.02 1.08 C5.14 1.55, 4.64 2.23, 4.66 2.73 C4.68 3.23, 5.35 3.84, 5.14 4.08 C4.93 4.33, 4.25 4.28, 3.38 4.2 C2.52 4.11, 0.38 3.84, -0.07 3.58 C-0.51 3.32, 0.74 3.08, 0.73 2.64 C0.72 2.21, -0.28 1.52, -0.12 0.95 C0.03 0.38, 0.92 -0.72, 1.65 -0.78 C2.37 -0.85, 3.64 0.27, 4.21 0.56 C4.78 0.86, 4.99 0.89, 5.06 0.98 M2.64 0.64 C2.84 0.59, 2.32 0.73, 2.94 0.82 C3.56 0.9, 6.04 0.88, 6.36 1.14 C6.67 1.41, 5.12 1.92, 4.81 2.41 C4.49 2.91, 4.87 3.94, 4.46 4.12 C4.06 4.3, 3.07 3.33, 2.35 3.5 C1.63 3.66, 0.31 5.42, 0.13 5.1 C-0.06 4.78, 1.16 2.3, 1.23 1.6 C1.29 0.91, 0.29 1.09, 0.53 0.92 C0.78 0.76, 2.54 0.81, 2.71 0.62 C2.87 0.43, 1.71 -0.08, 1.51 -0.24" stroke="#000000" stroke-width="1" fill="none"></path></g><g stroke-opacity="0.7" fill-opacity="0.7" stroke-linecap="round" transform="translate(90.09555087572755 29.491650298847617) rotate(0 29.092385006589666 29.092385006589666)"><path d="M-0.31 1.21 C20.89 -1.38, 41.25 -1.68, 56.43 -0.4 M0.85 0.75 C12.44 -0.86, 23.22 0.36, 58.92 -0.56 M59.5 1.61 C58.21 20.38, 58.17 38.85, 56.38 57.95 M57.21 0.38 C56.91 20.95, 58.32 43.59, 58.66 59.09 M57.77 58.31 C37.82 56.06, 15.92 58.54, 1.52 56.23 M57.43 57.45 C39.01 59.08, 18.46 58.27, -0.85 58.07 M0.82 57.01 C-1.46 40.82, -1.11 23.61, -0.67 -0.49 M-0.94 57.28 C-0.66 35.81, -0.37 11.54, -0.24 0.92" stroke="#000000" stroke-width="1" fill="none"></path></g><g stroke-opacity="0.7" fill-opacity="0.7" stroke-linecap="round" transform="translate(76.79617487271503 52.76555830411928) rotate(0 6.234082501412104 6.234082501412104)"><path d="M5.39 0.26 C6.84 0.15, 9.94 -0.11, 11.13 0.55 C12.31 1.2, 12.44 2.76, 12.52 4.19 C12.59 5.63, 12.38 7.87, 11.57 9.15 C10.77 10.42, 8.85 11.46, 7.69 11.85 C6.53 12.25, 5.9 11.99, 4.61 11.54 C3.32 11.09, 0.82 10.29, -0.07 9.17 C-0.95 8.04, -1.02 6.1, -0.7 4.78 C-0.39 3.47, 0.41 1.94, 1.81 1.28 C3.22 0.63, 6.87 1.2, 7.73 0.87 C8.58 0.54, 7.27 -0.63, 6.96 -0.7 M7.48 1.59 C8.64 1.92, 10.23 0.91, 10.99 1.88 C11.75 2.86, 12.08 5.87, 12.06 7.43 C12.04 8.99, 11.82 10.61, 10.87 11.25 C9.92 11.9, 7.78 11.5, 6.35 11.3 C4.91 11.1, 3.42 10.42, 2.25 10.06 C1.09 9.7, -0.45 10.02, -0.65 9.15 C-0.85 8.28, 0.46 6.44, 1.04 4.84 C1.62 3.23, 1.68 0.41, 2.82 -0.48 C3.96 -1.37, 6.97 -0.63, 7.88 -0.51 C8.79 -0.4, 8.22 0.19, 8.27 0.22" stroke="#000000" stroke-width="1" fill="none"></path></g><g stroke-linecap="round"><g stroke-opacity="0.7" fill-opacity="0.7" transform="translate(248.8568519116883 61.077668306002124) rotate(0 -51.550298278655845 -1.432279307147894)"><path d="M0.57 -1.23 C-28.41 -0.75, -55.35 0.61, -103.68 -1.66 M-0.02 -0.77 C-34.66 -1.49, -68.89 -1.95, -103.08 -2.48" stroke="#000000" stroke-width="1" fill="none"></path></g></g><mask></mask><g stroke-opacity="0.7" fill-opacity="0.7" stroke-linecap="round" transform="translate(10 206.20141444366618) rotate(0 161.32576614491268 97.7731916029773)"><path d="M-0.08 -0.93 C85.15 -2.23, 168.73 -0.84, 323.47 0.1 M-0.33 -0.48 C92.18 0.5, 185.35 -0.12, 322.69 -0.04 M321.01 0.04 C323.69 40.27, 324.58 82.82, 321.56 196.11 M322.62 -0.73 C323.81 65.42, 323.84 129.62, 322.06 196.34 M322.72 196.82 C240.83 193.28, 159.29 194.52, 0.54 194.42 M323.11 195.24 C203.49 196.03, 82.49 196, 0.68 195.92 M-1.75 196.97 C0.27 128.18, 0.89 60.74, 1.97 0.74 M0.39 196.08 C0.92 118.67, 0.21 40.21, 0.46 -1" stroke="#000000" stroke-width="1" fill="none"></path></g><g stroke-opacity="0.7" fill-opacity="0.7" transform="translate(116.34803422888285 288.9968741306139) rotate(0 54 17.5)"><text x="54" y="25" font-family="Virgil, Segoe UI Emoji" font-size="28px" fill="#000000" text-anchor="middle" style="white-space: pre;" direction="ltr">Counter</text></g><g stroke-opacity="0.7" fill-opacity="0.7" transform="translate(93.79545968694754 213.36739318411287) rotate(0 13 12.5)"><text x="13" y="18" font-family="Virgil, Segoe UI Emoji" font-size="20px" fill="#000000" text-anchor="middle" style="white-space: pre;" direction="ltr">Up</text></g><g stroke-opacity="0.7" fill-opacity="0.7" transform="translate(24.109276641191002 215.2115165963213) rotate(0 25 12.5)"><text x="25" y="18" font-family="Virgil, Segoe UI Emoji" font-size="20px" fill="#000000" text-anchor="middle" style="white-space: pre;" direction="ltr">Down</text></g><g stroke-opacity="0.7" fill-opacity="0.7" transform="translate(243.44308116009825 224.01110384058921) rotate(0 32.5 12.5)"><text x="32.5" y="18" font-family="Virgil, Segoe UI Emoji" font-size="20px" fill="#000000" text-anchor="middle" style="white-space: pre;" direction="ltr">Enable</text></g><g stroke-linecap="round"><g stroke-opacity="0.7" fill-opacity="0.7" transform="translate(342.42885145012303 75.1853376956766) rotate(0 -29.79108730535478 66.228358188463)"><path d="M-0.16 -1.12 C1.77 14.98, 1.84 34.1, -1.42 55.82 M-0.09 0.85 C0.77 17.28, -0.6 34.5, -0.87 55.78 M0.03 57.01 C-14.31 54.68, -30.43 54.8, -60.76 55.37 M0.06 54.77 C-20.57 56.89, -43.18 55.37, -59.2 55.73 M-60.06 54.94 C-57.02 75.33, -58.77 96.72, -58.17 133.58 M-59.38 56.69 C-59.52 75.31, -59.14 95.74, -60.57 131.41" stroke="#000000" stroke-width="1" fill="none"></path></g></g><mask></mask><g stroke-linecap="round"><g stroke-opacity="0.7" fill-opacity="0.7" transform="translate(73.55257454193526 58.56389512317037) rotate(0 -12.002859978805759 72.71325917501176)"><path d="M-1.39 1.72 C-8.5 -0.69, -15.77 2.3, -24.43 1.31 M0.42 -0.2 C-9.24 0.1, -18.51 0.38, -22.14 0.76 M-22.31 -0.95 C-23.39 56.7, -22.05 113.43, -21.75 146.38 M-22.34 0.13 C-24.55 51.96, -23.27 101.38, -22.92 146.12" stroke="#000000" stroke-width="1" fill="none"></path></g></g><mask></mask><g stroke-linecap="round"><g stroke-opacity="0.7" fill-opacity="0.7" transform="translate(200.65772362580583 59.54162703920019) rotate(0 -46.75802718221249 73.77537244741117)"><path d="M-0.71 -0.83 C-0.58 25.56, -0.24 55.77, -1.89 87.93 M-0.23 -0.59 C0.08 18.21, 0.14 35.79, -0.77 87.01 M-0.12 89.95 C-34.94 86.69, -68.32 90.17, -92.39 87.07 M-0.32 88.25 C-21.52 87.47, -44.36 87.66, -91.53 88.93 M-90.92 89.72 C-92.69 107.81, -93.43 131.33, -93.49 146.85 M-91.91 87.39 C-91.67 107.62, -92.11 128.75, -92.21 148.38" stroke="#000000" stroke-width="1" fill="none"></path></g></g><mask></mask><g stroke-opacity="0.7" fill-opacity="0.7" stroke-linecap="round" transform="translate(339.9591041509208 72.99739704566036) rotate(0 2.6081236014686624 2.371021455880623)"><path d="M2.29 0.92 C2.78 1.23, 4.78 1.36, 5.33 1.6 C5.88 1.83, 5.57 1.99, 5.59 2.32 C5.62 2.66, 5.95 3.1, 5.49 3.63 C5.04 4.16, 3.61 5.43, 2.86 5.5 C2.1 5.56, 1.55 4.45, 0.96 4.03 C0.38 3.6, -0.42 3.3, -0.65 2.95 C-0.88 2.59, -0.89 2.47, -0.41 1.89 C0.06 1.3, 1.59 -0.12, 2.19 -0.57 C2.79 -1.02, 2.73 -0.87, 3.16 -0.8 C3.59 -0.72, 4.62 -0.47, 4.78 -0.12 M5.08 0.41 C5.43 0.6, 3.85 1.12, 3.8 1.67 C3.76 2.23, 4.95 3.29, 4.81 3.75 C4.68 4.21, 3.37 4.27, 3.01 4.45 C2.65 4.62, 2.96 4.94, 2.65 4.81 C2.35 4.68, 1.41 4.06, 1.2 3.65 C0.98 3.24, 1.42 2.64, 1.37 2.36 C1.32 2.07, 0.82 2.09, 0.88 1.94 C0.95 1.79, 1.33 1.63, 1.77 1.46 C2.22 1.29, 3.38 0.9, 3.55 0.93 C3.73 0.97, 2.85 1.7, 2.82 1.68" stroke="none" stroke-width="0" fill="#000000"></path><path d="M2.32 0.48 C3.02 0.27, 4.18 0.67, 4.49 0.73 C4.79 0.8, 4.15 0.45, 4.15 0.85 C4.14 1.24, 4.55 2.34, 4.48 3.1 C4.4 3.86, 4.24 5.26, 3.69 5.41 C3.15 5.56, 1.73 4.39, 1.2 4 C0.66 3.61, 0.53 3.2, 0.48 3.05 C0.43 2.9, 0.9 3.57, 0.9 3.08 C0.9 2.58, 0.29 0.67, 0.5 0.1 C0.71 -0.46, 1.78 -0.26, 2.15 -0.34 C2.52 -0.42, 2.82 -0.46, 2.72 -0.38 M4.26 -0.42 C4.75 -0.17, 4.78 1.01, 4.8 1.54 C4.83 2.08, 4.46 2.4, 4.41 2.79 C4.35 3.18, 4.48 3.52, 4.48 3.88 C4.48 4.24, 5.09 5.06, 4.41 4.96 C3.73 4.85, 1.03 3.41, 0.41 3.25 C-0.2 3.09, 0.76 4.1, 0.73 4 C0.7 3.89, 0.07 3.09, 0.23 2.61 C0.39 2.13, 1.26 1.72, 1.71 1.12 C2.16 0.52, 2.91 -0.78, 2.94 -0.97 C2.96 -1.15, 2.1 0.01, 1.88 0" stroke="#000000" stroke-width="1" fill="none"></path></g><g stroke-opacity="0.7" fill-opacity="0.7" stroke-linecap="round" transform="translate(197.5884038889161 57.051840222744886) rotate(0 2.6081236014686624 2.371021455880623)"><path d="M4.57 0.87 C5.3 1.25, 5.57 1.23, 5.64 1.75 C5.71 2.26, 5.29 3.53, 4.98 3.95 C4.66 4.36, 4.07 4.13, 3.76 4.22 C3.46 4.31, 3.72 4.65, 3.16 4.49 C2.6 4.34, 0.97 3.7, 0.42 3.28 C-0.12 2.86, -0.2 2.21, -0.12 1.97 C-0.04 1.72, 0.69 2.17, 0.9 1.8 C1.1 1.42, 0.7 -0.23, 1.1 -0.29 C1.49 -0.35, 2.75 1.12, 3.26 1.43 C3.77 1.75, 3.84 1.55, 4.13 1.58 M2.37 -1.19 C2.88 -1.55, 3.62 -0.23, 4.18 0.07 C4.74 0.38, 5.59 0.04, 5.74 0.63 C5.9 1.22, 5.4 2.92, 5.1 3.64 C4.8 4.37, 4.49 4.57, 3.93 4.97 C3.38 5.38, 2.35 6.19, 1.77 6.06 C1.19 5.93, 0.58 4.85, 0.45 4.18 C0.33 3.51, 0.75 2.63, 1.02 2.02 C1.29 1.41, 1.76 1.02, 2.07 0.53 C2.38 0.03, 2.63 -0.83, 2.89 -0.95 C3.15 -1.08, 3.65 -0.23, 3.6 -0.22" stroke="none" stroke-width="0" fill="#000000"></path><path d="M2.38 0.65 C2.79 0.32, 3.82 -0.71, 4.13 -0.69 C4.44 -0.67, 4.11 0.22, 4.26 0.79 C4.41 1.37, 4.91 2.35, 5.04 2.77 C5.18 3.2, 5.65 3.06, 5.08 3.36 C4.52 3.67, 2.53 4.34, 1.67 4.6 C0.81 4.87, 0.08 5.3, -0.08 4.95 C-0.24 4.59, 0.75 3.14, 0.72 2.46 C0.69 1.78, -0.45 1.22, -0.27 0.87 C-0.09 0.51, 1.42 0.59, 1.79 0.32 C2.15 0.06, 1.87 -0.79, 1.92 -0.73 M2.38 0.13 C3.09 -0.17, 4.56 -0.43, 5.08 -0.09 C5.6 0.24, 5.58 1.26, 5.51 2.15 C5.43 3.04, 4.96 4.94, 4.63 5.23 C4.29 5.52, 4.2 3.9, 3.49 3.89 C2.78 3.87, 0.75 5.21, 0.36 5.12 C-0.02 5.04, 1.01 3.89, 1.16 3.37 C1.31 2.86, 1.12 2.56, 1.26 2.03 C1.4 1.49, 1.9 0.71, 1.99 0.16 C2.09 -0.39, 1.71 -1.02, 1.84 -1.28 C1.96 -1.55, 2.81 -1.53, 2.76 -1.43" stroke="#000000" stroke-width="1" fill="none"></path></g><g stroke-opacity="0.7" fill-opacity="0.7" transform="translate(694.8250260104925 53.86172174732451) rotate(0 67.5 25)"><text x="67.5" y="18" font-family="Virgil, Segoe UI Emoji" font-size="20px" fill="#000000" text-anchor="middle" style="white-space: pre;" direction="ltr">Outputs</text><text x="67.5" y="43" font-family="Virgil, Segoe UI Emoji" font-size="20px" fill="#000000" text-anchor="middle" style="white-space: pre;" direction="ltr">NAND / OPVs</text></g><g stroke-opacity="0.7" fill-opacity="0.7" stroke-linecap="round" transform="translate(475.90487584116215 201.26608961438342) rotate(0 103.80327590029424 103.80327590029424)"><path d="M-1.44 0.24 C65.45 0.61, 130.38 -0.09, 208.07 0.11 M-0.06 0.2 C70.04 -1.85, 139.7 -1.84, 208 -0.58 M206.24 -0.74 C206.65 80.53, 206.34 161.73, 208.93 206.93 M207.28 0.85 C206.01 52.81, 207.32 104.65, 207.02 208.44 M207.06 206.39 C157.03 209.04, 104.79 207.51, 0.98 206.94 M206.85 207.23 C160.44 207.95, 112.37 207.36, 0.09 208.24 M0.11 206.75 C-1.12 153.21, 0.08 97.99, -1.76 1.31 M0.26 207.67 C1.82 143.16, 0.99 78.31, -0.4 -0.85" stroke="#000000" stroke-width="1" fill="none"></path></g><g stroke-opacity="0.7" fill-opacity="0.7" transform="translate(480.5888461551083 256.66256633030684) rotate(0 15.5 12.5)"><text x="15.5" y="18" font-family="Virgil, Segoe UI Emoji" font-size="20px" fill="#000000" text-anchor="middle" style="white-space: pre;" direction="ltr">D0</text></g><g stroke-opacity="0.7" fill-opacity="0.7" transform="translate(483.62770471158694 291.60822407115654) rotate(0 11.5 12.5)"><text x="11.5" y="18" font-family="Virgil, Segoe UI Emoji" font-size="20px" fill="#000000" text-anchor="middle" style="white-space: pre;" direction="ltr">D1</text></g><g stroke-opacity="0.7" fill-opacity="0.7" transform="translate(481.0499875986293 323.3258917073575) rotate(0 16 12.5)"><text x="16" y="18" font-family="Virgil, Segoe UI Emoji" font-size="20px" fill="#000000" text-anchor="middle" style="white-space: pre;" direction="ltr">D2</text></g><g stroke-opacity="0.7" fill-opacity="0.7" transform="translate(485.3945533727143 356.9658422306011) rotate(0 15.5 12.5)"><text x="15.5" y="18" font-family="Virgil, Segoe UI Emoji" font-size="20px" fill="#000000" text-anchor="middle" style="white-space: pre;" direction="ltr">D3</text></g><g stroke-opacity="0.7" fill-opacity="0.7" transform="translate(299.41368405135415 263.5628393219979) rotate(0 15.5 12.5)"><text x="15.5" y="18" font-family="Virgil, Segoe UI Emoji" font-size="20px" fill="#000000" text-anchor="middle" style="white-space: pre;" direction="ltr">D0</text></g><g stroke-opacity="0.7" fill-opacity="0.7" transform="translate(301.49140116431147 295.6250727322839) rotate(0 11.5 12.5)"><text x="11.5" y="18" font-family="Virgil, Segoe UI Emoji" font-size="20px" fill="#000000" text-anchor="middle" style="white-space: pre;" direction="ltr">D1</text></g><g stroke-opacity="0.7" fill-opacity="0.7" transform="translate(297.95254260783236 326.38159892496367) rotate(0 16 12.5)"><text x="16" y="18" font-family="Virgil, Segoe UI Emoji" font-size="20px" fill="#000000" text-anchor="middle" style="white-space: pre;" direction="ltr">D2</text></g><g stroke-opacity="0.7" fill-opacity="0.7" transform="translate(293.64683539022644 362.9049737787708) rotate(0 15.5 12.5)"><text x="15.5" y="18" font-family="Virgil, Segoe UI Emoji" font-size="20px" fill="#000000" text-anchor="middle" style="white-space: pre;" direction="ltr">D3</text></g><g stroke-linecap="round"><g stroke-opacity="0.7" fill-opacity="0.7" transform="translate(334.61708364353933 277.1962636525616) rotate(0 69.87587649911643 -3.328211100367298)"><path d="M1.96 -0.99 C34.9 -3.46, 67.25 -4.72, 139.47 -6.18 M0.28 -0.48 C50.77 -2.04, 101.32 -3.33, 139.41 -5.08" stroke="#000000" stroke-width="1" fill="none"></path></g></g><mask></mask><g stroke-linecap="round"><g stroke-opacity="0.7" fill-opacity="0.7" transform="translate(334.61708364353933 309.8750727322839) rotate(0 70.75171017703065 -1.5371168647097306)"><path d="M0.79 -0.54 C54.62 -1.72, 114.01 -2.72, 140.45 -2.95 M0.25 -0.29 C50.96 0.55, 99.84 -1.69, 141.25 -2.97" stroke="#000000" stroke-width="1" fill="none"></path></g></g><mask></mask><g stroke-linecap="round"><g stroke-opacity="0.7" fill-opacity="0.7" transform="translate(332.6948007564969 342.5538818120061) rotate(0 70.09281120985742 -1.9860598248214956)"><path d="M-0.69 -1.13 C37.74 -4.12, 75.39 -4.19, 139.47 -4.36 M-0.33 0.38 C39.2 -2.16, 79.59 -2.27, 140.87 -4.29" stroke="#000000" stroke-width="1" fill="none"></path></g></g><mask></mask><g stroke-linecap="round"><g stroke-opacity="0.7" fill-opacity="0.7" transform="translate(332.6948007564969 376.1938323352497) rotate(0 70.673327935636 -3.0344427737605315)"><path d="M1.89 -0.44 C52.28 -1.08, 104.15 -2.37, 142.3 -5.63 M-0.96 -0.51 C46.01 -0.59, 90.95 -2.61, 140.36 -4.67" stroke="#000000" stroke-width="1" fill="none"></path></g></g><mask></mask><g stroke-opacity="0.7" fill-opacity="0.7" transform="translate(548.8972832896263 290.8750727322839) rotate(0 38.5 22.5)"><text x="38.5" y="32" font-family="Virgil, Segoe UI Emoji" font-size="36px" fill="#000000" text-anchor="middle" style="white-space: pre;" direction="ltr">DAC</text></g><g stroke-opacity="0.7" fill-opacity="0.7" transform="translate(643.8274573278044 295.1082240711563) rotate(0 19.5 12.5)"><text x="19.5" y="18" font-family="Virgil, Segoe UI Emoji" font-size="20px" fill="#000000" text-anchor="middle" style="white-space: pre;" direction="ltr">Out</text></g><g stroke-linecap="round"><g stroke-opacity="0.7" fill-opacity="0.7" transform="translate(681.5891447547082 307.95278984524145) rotate(0 48.80595304795429 -0.23740790832979997)"><path d="M0.05 -0.13 C32.31 0.07, 64.05 -0.68, 97.56 -0.68 M0.91 0.12 C23.2 0.21, 48.17 0.3, 97.27 -0.08" stroke="#000000" stroke-width="1" fill="none"></path></g></g><mask></mask><g stroke-opacity="0.7" fill-opacity="0.7" transform="translate(775.8769369523308 280.6911024183379) rotate(0 47 25)"><text x="47" y="18" font-family="Virgil, Segoe UI Emoji" font-size="20px" fill="#000000" text-anchor="middle" style="white-space: pre;" direction="ltr">Signal für</text><text x="47" y="43" font-family="Virgil, Segoe UI Emoji" font-size="20px" fill="#000000" text-anchor="middle" style="white-space: pre;" direction="ltr">NANDs</text></g></svg>