<svg version="1.1" xmlns="http://www.w3.org/2000/svg" viewBox="0 0 986.9723444001036 372.2051057656896" width="986.9723444001036" height="372.2051057656896" filter="invert(93%) hue-rotate(180deg)">
  <!-- svg-source:excalidraw -->
  
  <defs>
    <style class="style-fonts">
      @font-face {
        font-family: "Virgil";
        src: url("https://excalidraw.com/Virgil.woff2");
      }
      @font-face {
        font-family: "Cascadia";
        src: url("https://excalidraw.com/Cascadia.woff2");
      }
    </style>
  </defs>
  <g stroke-opacity="0.7" fill-opacity="0.7" stroke-linecap="round" transform="translate(10 70.10611961739522) rotate(0 129.4712640475023 64.92905836409079)"><path d="M-0.91 -1.46 C53.97 2.2, 109.41 1.53, 257.77 -0.9 M-0.55 -0.31 C95.2 -1.01, 191.52 -0.91, 259.28 -0.73 M258.05 0.03 C258.6 51.93, 258.55 103.11, 257.4 131.44 M259.02 -0.21 C258.16 32.18, 258.53 63.58, 259.32 129.74 M257.36 131.23 C203.43 131.37, 148.65 130.63, 0.82 129.26 M259.68 129.99 C202.58 129.39, 145.88 129.21, 0.76 130.04 M0.68 131.15 C2 94.2, 1.13 59.66, -1.94 -1.99 M0.47 128.97 C-1.26 79.92, 0.43 30.82, -0.69 0.01" stroke="#000000" stroke-width="1" fill="none"></path></g><g stroke-opacity="0.7" fill-opacity="0.7" transform="translate(39.79602049858988 118.4770585131368) rotate(0 50.5 17.5)"><text x="50.5" y="25" font-family="Virgil, Segoe UI Emoji" font-size="28px" fill="#000000" text-anchor="middle" style="white-space: pre;" direction="ltr">Master</text></g><g stroke-opacity="0.7" fill-opacity="0.7" transform="translate(217.34625925926855 125.06504304784818) rotate(0 21.5 12.5)"><text x="21.5" y="18" font-family="Virgil, Segoe UI Emoji" font-size="20px" fill="#000000" text-anchor="middle" style="white-space: pre;" direction="ltr">SDA</text></g><g stroke-linecap="round"><g stroke-opacity="0.7" fill-opacity="0.7" transform="translate(270.58185076272923 139.13102749683998) rotate(0 53.13436251240529 0.3776901060580826)"><path d="M0.2 1.46 C26.34 0.3, 53.82 -0.73, 107.15 0.43 M-0.88 0.59 C38.43 -1.17, 76.24 -0.99, 106.14 0.25" stroke="#000000" stroke-width="1" fill="none"></path></g></g><mask></mask><g stroke-opacity="0.7" fill-opacity="0.7" transform="translate(328.1190182186424 97.30110525188064) rotate(0 12.5 12.5)"><text x="12.5" y="18" font-family="Virgil, Segoe UI Emoji" font-size="20px" fill="#000000" text-anchor="middle" style="white-space: pre;" direction="ltr">5V</text></g><g stroke-opacity="0.7" fill-opacity="0.7" stroke-linecap="round" transform="translate(486.1650068379621 203.69654124525994) rotate(0 12.584803527234385 34.47141835720731)"><path d="M-1.9 -0.35 C7.65 -0.1, 15.33 -0.98, 24.9 -1.83 M-0.18 0.15 C8.5 0.57, 18.58 -0.2, 25.92 -0.37 M23.78 0.72 C26.8 19.63, 24.23 41.07, 23.66 67.37 M26.1 -0.46 C25.41 17.38, 25.17 33.31, 25.57 69.04 M25.36 70.66 C17.65 67.15, 5.02 67.63, -1.43 70.5 M24.8 69.36 C19.33 67.91, 14.41 68.85, 0.5 69.02 M1.41 69.84 C-2.01 45.82, -0.38 24.56, 0.36 -0.14 M0.06 68.56 C0.44 54.99, -0.11 40.68, 0.17 -0.25" stroke="#000000" stroke-width="1" fill="none"></path></g><g stroke-opacity="0.7" fill-opacity="0.7" transform="translate(490.20264499444716 229.71512497321658) rotate(0 8 12.5)"><text x="8" y="18" font-family="Virgil, Segoe UI Emoji" font-size="20px" fill="#000000" text-anchor="middle" style="white-space: pre;" direction="ltr">R</text></g><g stroke-opacity="0.7" fill-opacity="0.7" stroke-linecap="round" transform="translate(374.5432712051004 129.28205082335217) rotate(0 36.112914469455234 14.77346501023169)"><path d="M-0.58 -1.97 C15.56 0.46, 29.77 -1.21, 74.08 -1.16 M0.14 0.07 C19.19 0.13, 36.95 0.71, 72.41 -0.31 M72.49 0.89 C70.81 13.52, 71.08 24.62, 72.1 29.68 M72.75 -0.24 C72.02 11.28, 72.41 23.14, 71.53 28.96 M71.78 27.93 C54.59 28.72, 36.88 30.76, -1.91 27.84 M71.56 29.35 C49.13 29.85, 24.45 29.74, -0.18 29.72 M-0.04 28.83 C1.41 23.09, 0.98 13.12, 0.8 0.09 M-0.21 30.51 C-0.68 19.69, 1.03 9.62, -0.5 0.14" stroke="#000000" stroke-width="1" fill="none"></path></g><g stroke-opacity="0.7" fill-opacity="0.7" transform="translate(403.7505164160543 131.22535823833863) rotate(0 8 12.5)"><text x="8" y="18" font-family="Virgil, Segoe UI Emoji" font-size="20px" fill="#000000" text-anchor="middle" style="white-space: pre;" direction="ltr">R</text></g><g stroke-opacity="0.7" fill-opacity="0.7" stroke-linecap="round" transform="translate(567.6926470796111 206.43236809900657) rotate(0 12.584803527234385 34.47141835720731)"><path d="M0.73 -0.13 C9.92 -1.4, 16.21 0.59, 26.04 0.04 M0.09 -0.67 C5.44 -0.42, 10.85 -0.81, 25.71 0.8 M23.45 -1.16 C26.76 16.74, 25.97 34.04, 24.04 69.52 M25.94 -0.99 C25.31 19.99, 24.64 39.59, 25.19 68.75 M25.41 66.94 C14.64 67.61, 7.18 68.97, -1.8 68.34 M24.83 68.8 C18.99 69.66, 12.21 68.92, 0.02 69.52 M-2 68.13 C-1.11 44.22, -0.6 19.67, 0.7 0.52 M-0.31 69.76 C-1.22 50.96, -0.03 34.03, -0.91 -0.16" stroke="#000000" stroke-width="1" fill="none"></path></g><g stroke-opacity="0.7" fill-opacity="0.7" transform="translate(571.730285236096 232.4509518269632) rotate(0 8 12.5)"><text x="8" y="18" font-family="Virgil, Segoe UI Emoji" font-size="20px" fill="#000000" text-anchor="middle" style="white-space: pre;" direction="ltr">R</text></g><g stroke-opacity="0.7" fill-opacity="0.7" stroke-linecap="round" transform="translate(645.3901297260147 209.71536032350247) rotate(0 12.584803527234385 34.47141835720731)"><path d="M0.52 -0.84 C7.22 1.73, 11.34 1.55, 23.59 -0.41 M-0.16 -0.1 C8.47 -0.42, 17.83 0.32, 24.97 -0.01 M27.03 -0.78 C26.11 19.52, 23.45 39.52, 23.94 67.33 M24.31 0.7 C24.45 14.43, 25.03 27.94, 25.08 69.51 M26.84 69.27 C13.81 70.37, 6.71 68.08, -0.81 70.84 M25.31 69.31 C17.28 68.71, 10.04 69.77, -0.26 68.28 M-1.02 68.83 C-0.98 52.28, 2.37 38.97, -1.86 1.93 M0.84 68.5 C-1.18 49.69, -1.23 30.49, 0.47 -0.9" stroke="#000000" stroke-width="1" fill="none"></path></g><g stroke-opacity="0.7" fill-opacity="0.7" transform="translate(649.4277678824999 235.7339440514591) rotate(0 8 12.5)"><text x="8" y="18" font-family="Virgil, Segoe UI Emoji" font-size="20px" fill="#000000" text-anchor="middle" style="white-space: pre;" direction="ltr">R</text></g><g stroke-linecap="round"><g stroke-opacity="0.7" fill-opacity="0.7" transform="translate(498.20264499444716 274.82803944267187) rotate(0 80.4162920061151 21.50940335262537)"><path d="M0.69 -0.95 C-1.19 15.4, -0.77 27.08, 1.98 42.95 M-1 0.58 C-0.61 13.69, -1.22 28.15, 0.87 42.17 M1.97 42.07 C21.35 45.07, 45.89 43.73, 80.66 43.27 M-0.91 41.9 C20.64 41.83, 39.81 41.85, 78.81 41.59 M79.26 42.37 C103.46 42.52, 129.95 42.5, 160.1 43.48 M79.31 42.1 C99.81 41.76, 119.34 42.35, 160.18 40.91 M159.86 41.18 C162.38 33.67, 162.28 24.8, 160.7 5.64 M161.4 42.11 C161.56 29.93, 161.15 18.43, 160.31 4.91" stroke="#000000" stroke-width="1" fill="none"></path></g></g><mask></mask><g stroke-linecap="round"><g stroke-opacity="0.7" fill-opacity="0.7" transform="translate(578.0887891238482 273.7337087011732) rotate(0 0.15463011199608445 22.025938688779718)"><path d="M1.31 0.2 C-1.22 16.18, 1.65 29.94, 1.25 43.93 M0.69 0.13 C-0.16 15.04, -0.34 31.2, -1 42.78" stroke="#000000" stroke-width="1" fill="none"></path></g></g><mask></mask><g stroke-linecap="round"><g stroke-opacity="0.7" fill-opacity="0.7" transform="translate(500.39130647744446 203.69654124525994) rotate(0 -25.28463274213496 -30.9911505078978)"><path d="M0.79 0.37 C0.87 -21.65, 2.47 -43.37, 0.9 -59.61 M-0.92 -0.25 C0.54 -22.99, 0.33 -44.18, 0.43 -61.36 M-1.13 -62.35 C-11.28 -61.7, -23.85 -63.31, -51.81 -59.92 M0.76 -61.48 C-20.61 -61.04, -40.27 -60.68, -52.16 -62.13" stroke="#000000" stroke-width="1" fill="none"></path></g></g><mask></mask><g stroke-linecap="round"><g stroke-opacity="0.7" fill-opacity="0.7" transform="translate(580.2774506068455 205.88520272825724) rotate(0 0.7004262270379513 -31.688843750064024)"><path d="M1.73 1.99 C-0.68 -14.04, -0.93 -23.75, 0.76 -65.37 M0.16 -0.46 C0.99 -24.69, 0.21 -50.66, 0.8 -63.2" stroke="#000000" stroke-width="1" fill="none"></path></g></g><mask></mask><g stroke-linecap="round"><g stroke-opacity="0.7" fill-opacity="0.7" transform="translate(581.3717813483441 142.41401972133593) rotate(0 -40.66470359423846 0.6968683485314386)"><path d="M-0.71 -0.24 C-16.52 2.42, -34.09 1.99, -80.62 0.05 M-1 0.26 C-24.32 -0.25, -47.83 0.39, -77.8 0.32" stroke="#000000" stroke-width="1" fill="none"></path></g></g><mask></mask><g stroke-linecap="round"><g stroke-opacity="0.7" fill-opacity="0.7" transform="translate(582.4661120898427 142.41401972133593) rotate(0 37.785114509093546 33.25812232948991)"><path d="M1.49 0.27 C16.39 0.79, 35.44 -1.56, 73.87 -0.92 M-0.83 -0.58 C17.25 -0.07, 36.61 0.39, 75.67 0.22 M75.6 1.35 C76.22 18.1, 73.94 32.85, 75.9 66.3 M74.81 0.95 C74.24 20.48, 74.07 39.54, 76.4 67.55" stroke="#000000" stroke-width="1" fill="none"></path></g></g><mask></mask><g stroke-linecap="round"><g stroke-opacity="0.7" fill-opacity="0.7" transform="translate(578.0887891238482 316.4126076196203) rotate(0 -2.168109390096788 22.15561540186269)"><path d="M0.3 -1.48 C1.72 7.53, -1.35 17.74, -1.36 43.09 M-0.02 0.55 C-1.38 11.49, -0.62 22.11, -0.51 45.19 M1.05 44.45 C-7.55 44.22, -11.76 45.36, -28.01 43.12 M0.84 45.07 C-9.81 45.33, -17.26 44.99, -26.38 45.79 M-26.42 44.99 C-11.74 45.21, -1.18 43.34, 22.82 42.88 M-26.56 44.98 C-14.33 44.6, -0.81 45.45, 23.67 44.31" stroke="#000000" stroke-width="1" fill="none"></path></g></g><mask></mask><g stroke-linecap="round"><g stroke-opacity="0.7" fill-opacity="0.7" transform="translate(654.6919410287533 142.20212022942707) rotate(0 85.44033830541002 8.962523061856785)"><path d="M-1.7 0.01 C29.62 1.88, 55.45 0.18, 93.85 -1.93 M-0.72 -0.29 C38.27 0.29, 76.92 0.13, 94.65 0.67 M94.55 0.63 C94.93 25.03, 94.34 46.87, 95.19 121.27 M96.12 -0.6 C95.06 48.04, 95.29 94.08, 95.56 121.82 M94.97 121.76 C93.84 68.18, 97 14.02, 95.05 -103.31 M95.19 121.82 C97.17 75.41, 96.1 30.06, 95.45 -102 M93.44 -103.9 C121.93 -100.17, 145.08 -102.08, 172.58 -102.48 M95.05 -102.65 C122.28 -103.26, 149.5 -102.75, 172.35 -103.61" stroke="#000000" stroke-width="1" fill="none"></path></g></g><mask></mask><g stroke-linecap="round"><g stroke-opacity="0.7" fill-opacity="0.7" transform="translate(754.2760385051298 141.31968897983728) rotate(0 37.67843746098214 -0.47645207727327943)"><path d="M-0.84 -1.91 C28.95 -0.97, 59.59 -1.07, 76.2 -0.25 M-0.51 0 C27.68 0.41, 52.9 -1.4, 74.67 0.95" stroke="#000000" stroke-width="1" fill="none"></path></g></g><mask></mask><g stroke-linecap="round"><g stroke-opacity="0.7" fill-opacity="0.7" transform="translate(754.2760385051298 262.7904012861867) rotate(0 38.589509120191394 -0.4846788551658392)"><path d="M-1.01 -1.89 C17.34 0.36, 32.99 -0.22, 78.1 0.92 M0.42 0.05 C23.51 1.54, 48.29 -0.09, 78.19 -0.9" stroke="#000000" stroke-width="1" fill="none"></path></g></g><mask></mask><g stroke-opacity="0.7" fill-opacity="0.7" stroke-linecap="round" transform="translate(827.5961981855389 10) rotate(0 72.7729943096598 33.37708761570863)"><path d="M-1.07 0.74 C32.07 -1.45, 65.26 0.18, 147.38 -1.99 M-0.89 -0.02 C36.12 -1.39, 73.13 -1.91, 145.21 -0.12 M146.15 -1.63 C144.01 20.92, 147.69 39.55, 144.54 67.37 M144.74 0.16 C144.76 21.64, 144.66 42.09, 144.72 67.08 M146.06 66.53 C107.75 68.32, 70.59 66.77, 1.43 66.37 M146.43 66.82 C94.9 68.25, 44.61 67.74, 0.07 67.34 M-0.25 65.21 C-1.16 52.67, 0.69 37.84, -1.76 -0.64 M0.28 67.7 C0.4 41.21, -0.51 17.51, 0.87 0.38" stroke="#000000" stroke-width="1" fill="none"></path></g><g stroke-opacity="0.7" fill-opacity="0.7" stroke-linecap="round" transform="translate(828.1433635562885 104.65960913963278) rotate(0 72.7729943096598 33.37708761570863)"><path d="M1.22 1.76 C41 0.08, 82.96 0.21, 145.73 0.15 M0.66 -0.13 C51.48 -0.05, 104.8 0.87, 145.78 -0.88 M147.2 0.57 C147.89 18.59, 144.11 34.65, 145.46 68.48 M144.71 0.32 C144.96 21.95, 145.36 45.48, 145.48 66.6 M144.15 66.03 C107.94 66.91, 73.41 66.14, 1 68.16 M146.01 67.39 C88.66 66.32, 29.63 67.44, 0.47 67.63 M0.95 67.94 C-0.77 46.96, 1.06 29.09, 1.24 -0.64 M0.28 66.66 C0.6 50.99, 1.23 35.03, -0.04 0.22" stroke="#000000" stroke-width="1" fill="none"></path></g><g stroke-opacity="0.7" fill-opacity="0.7" stroke-linecap="round" transform="translate(831.426355780784 233.79063663647264) rotate(0 72.7729943096598 33.37708761570863)"><path d="M-1.6 0.09 C32.95 3.07, 63.73 -0.18, 146.71 1.46 M-0.9 0.35 C54.31 0.37, 109.34 0.89, 144.89 0.03 M145.87 0.48 C145.43 20.54, 147.05 36.82, 146.31 68.32 M146.07 0.85 C144.5 25.49, 145.89 49.89, 144.87 66.83 M145.45 68.69 C87 68.94, 31.3 66.02, 0.23 64.9 M146.45 67.38 C95.81 64.69, 44.81 65.35, 0.65 67.2 M-1.71 65.07 C1.26 45.75, -2.28 27.96, -0.94 -0.47 M0.25 66.09 C0.68 42.02, -0.42 17.36, -0.52 0.44" stroke="#000000" stroke-width="1" fill="none"></path></g><g stroke-opacity="0.7" fill-opacity="0.7" transform="translate(863.4163578659482 26.641260761961973) rotate(0 37.5 17.5)"><text x="37.5" y="25" font-family="Virgil, Segoe UI Emoji" font-size="28px" fill="#000000" text-anchor="middle" style="white-space: pre;" direction="ltr">Slave</text></g><g stroke-opacity="0.7" fill-opacity="0.7" transform="translate(869.9823423149398 120.53669675534138) rotate(0 37.5 17.5)"><text x="37.5" y="25" font-family="Virgil, Segoe UI Emoji" font-size="28px" fill="#000000" text-anchor="middle" style="white-space: pre;" direction="ltr">Slave</text></g><g stroke-opacity="0.7" fill-opacity="0.7" transform="translate(871.0766730564387 251.8563857351786) rotate(0 37.5 17.5)"><text x="37.5" y="25" font-family="Virgil, Segoe UI Emoji" font-size="28px" fill="#000000" text-anchor="middle" style="white-space: pre;" direction="ltr">Slave</text></g></svg>