<svg version="1.1" xmlns="http://www.w3.org/2000/svg" viewBox="0 0 1027.2549858075145 341.51422890570416" width="1027.2549858075145" height="341.51422890570416" filter="invert(93%) hue-rotate(180deg)">
  <!-- svg-source:excalidraw -->
  
  <defs>
    <style class="style-fonts">
      @font-face {
        font-family: "Virgil";
        src: url("https://excalidraw.com/Virgil.woff2");
      }
      @font-face {
        font-family: "Cascadia";
        src: url("https://excalidraw.com/Cascadia.woff2");
      }
    </style>
  </defs>
  <g stroke-linecap="round"><g stroke-opacity="0.7" fill-opacity="0.7" transform="translate(363.5113038828488 249.6323567930205) rotate(0 -20.27207155565526 33.857146402370915)"><path d="M-1.45 0.89 C-12.19 -1.4, -27.1 -1.12, -38.42 -1.51 M0.7 -0.35 C-8.34 0.75, -18.99 -0.41, -38.98 0.72 M-41.24 1.48 C-41.01 19.85, -39.1 42.08, -39.88 69.23 M-39.39 0.54 C-39.6 16.29, -39.52 32.03, -40.09 67.18 M-37.52 67.57 C-31.65 66.61, -22.79 67.89, -0.72 67.14 M-39.44 67.91 C-26.72 66.83, -14.18 67.87, -1.12 66.92" stroke="#000000" stroke-width="1" fill="none"></path></g></g><mask></mask><g stroke-linecap="round"><g stroke-opacity="0.7" fill-opacity="0.7" transform="translate(359.7888588123435 249.91790170167127) rotate(0 23.783439834742865 34.2046002570475)"><path d="M-0.87 0.53 C6.04 1.89, 33.37 0.17, 40.68 9.29 C47.99 18.41, 49.34 45.47, 42.98 55.26 C36.62 65.05, 9.47 65.59, 2.51 68.02 M0.87 -0.23 C7.73 1.74, 32.53 0.88, 39.96 10.27 C47.4 19.66, 51.64 46.37, 45.48 56.1 C39.32 65.83, 10.1 66.22, 3.02 68.64" stroke="#000000" stroke-width="1" fill="none"></path></g></g><mask></mask><g stroke-opacity="0.7" fill-opacity="0.7" transform="translate(353.55852159847313 268.23723682235874) rotate(0 11 17.5)"><text x="11" y="25" font-family="Virgil, Segoe UI Emoji" font-size="28px" fill="#000000" text-anchor="middle" style="white-space: pre;" direction="ltr">&amp;</text></g><g stroke-opacity="0.7" fill-opacity="0.7" stroke-linecap="round" transform="translate(406.8305839957004 280.5530246982924) rotate(0 5.349664772485653 5.8359979336207175)"><path d="M2.94 -0.39 C4.2 -0.74, 6.76 0.88, 8.07 1.4 C9.37 1.92, 10.22 1.74, 10.77 2.74 C11.32 3.75, 11.84 6.26, 11.36 7.41 C10.88 8.56, 8.87 8.81, 7.89 9.64 C6.9 10.47, 6.45 12.27, 5.43 12.39 C4.42 12.5, 2.73 11.47, 1.82 10.35 C0.92 9.23, 0.07 7.08, 0.02 5.65 C-0.02 4.23, 0.97 2.71, 1.55 1.8 C2.13 0.9, 3.01 0.53, 3.51 0.22 C4.01 -0.09, 4.34 -0.05, 4.55 -0.06 M6.91 -0.76 C7.98 -0.75, 8.99 0.38, 9.57 1.23 C10.15 2.09, 10.55 3.22, 10.38 4.36 C10.22 5.5, 9.4 6.86, 8.56 8.08 C7.71 9.3, 6.05 11.22, 5.31 11.67 C4.58 12.12, 5 11.54, 4.13 10.78 C3.26 10.02, 0.68 8.24, 0.09 7.12 C-0.49 6.01, 0.15 5.22, 0.62 4.09 C1.09 2.96, 1.93 1.08, 2.91 0.36 C3.89 -0.37, 5.9 -0.21, 6.48 -0.28 C7.06 -0.36, 6.46 -0.3, 6.39 -0.11" stroke="#000000" stroke-width="1" fill="none"></path></g><g stroke-linecap="round"><g stroke-opacity="0.7" fill-opacity="0.7" transform="translate(362.8745377411301 140.1085804173938) rotate(0 -20.56565764606421 33.58971956741257)"><path d="M-1.26 -1.5 C-12.69 -1.86, -28.38 1.09, -37.29 1.4 M-0.76 -0.79 C-10.14 0.86, -20.76 0.32, -39.28 -1 M-39.22 0.66 C-40.52 26.75, -41.13 51.3, -38.8 67.56 M-39.71 -0.21 C-40.46 23.37, -40.51 47.31, -39.16 68.71 M-38.77 67.92 C-27.84 67.37, -16.98 67.62, -0.82 67.47 M-38.95 67.95 C-27.49 67.27, -16.05 67.38, -1.61 68.15" stroke="#000000" stroke-width="1" fill="none"></path></g></g><mask></mask><g stroke-linecap="round"><g stroke-opacity="0.7" fill-opacity="0.7" transform="translate(359.1520926706248 140.39412532604456) rotate(0 23.915800873441412 34.43163172046934)"><path d="M-0.76 -0.9 C5.96 0.85, 33.46 -0.2, 40.74 9.45 C48.02 19.1, 49.18 46.97, 42.92 57.02 C36.66 67.07, 10.07 67.62, 3.19 69.76 M1.05 1.24 C7.61 3.21, 32.66 1.53, 40.05 10.51 C47.44 19.49, 52 45.61, 45.39 55.13 C38.78 64.65, 7.36 65.05, 0.39 67.65" stroke="#000000" stroke-width="1" fill="none"></path></g></g><mask></mask><g stroke-opacity="0.7" fill-opacity="0.7" transform="translate(352.92175545675445 158.71346044673203) rotate(0 11 17.5)"><text x="11" y="25" font-family="Virgil, Segoe UI Emoji" font-size="28px" fill="#000000" text-anchor="middle" style="white-space: pre;" direction="ltr">&amp;</text></g><g stroke-opacity="0.7" fill-opacity="0.7" stroke-linecap="round" transform="translate(406.1938178539817 171.0292483226657) rotate(0 5.349664772485653 5.8359979336207175)"><path d="M4.27 -0.02 C5.28 -0.58, 7.17 0.37, 8 0.74 C8.83 1.1, 8.77 1.03, 9.25 2.18 C9.73 3.33, 10.95 6.23, 10.88 7.62 C10.8 9.01, 9.73 10.01, 8.8 10.52 C7.86 11.03, 6.3 10.87, 5.27 10.67 C4.23 10.47, 3.55 9.97, 2.61 9.32 C1.67 8.68, -0.1 7.93, -0.36 6.8 C-0.61 5.68, 0.25 3.75, 1.08 2.55 C1.9 1.35, 4.02 -0.06, 4.59 -0.41 C5.17 -0.76, 4.66 0.18, 4.55 0.46 M3.6 -1.06 C4.42 -1.56, 5.65 -1.58, 6.55 -0.83 C7.45 -0.08, 8.14 2.12, 9.02 3.44 C9.9 4.76, 11.97 6.04, 11.82 7.08 C11.68 8.12, 9.26 8.9, 8.17 9.68 C7.08 10.45, 6.33 11.74, 5.3 11.71 C4.27 11.68, 2.82 10.42, 2.01 9.48 C1.19 8.54, 0.54 7.27, 0.42 6.07 C0.29 4.87, 0.65 3.2, 1.25 2.26 C1.85 1.32, 3.79 0.67, 4 0.42 C4.21 0.18, 2.5 0.68, 2.53 0.77" stroke="#000000" stroke-width="1" fill="none"></path></g><g stroke-linecap="round"><g stroke-opacity="0.7" fill-opacity="0.7" transform="translate(320.10511101703617 157.0403060747638) rotate(0 -27.447137898791198 37.241218720122106)"><path d="M-0.83 -0.77 C-12.66 1.43, -21.94 0.69, -54.09 0.94 M-0.51 0.41 C-12.71 0.51, -23.07 1.09, -53.41 0.54 M-51.01 -1.11 C-53.01 24.36, -53.92 49.74, -54.38 75.6 M-52.27 -0.54 C-52.73 28.65, -51.88 57.72, -52.69 75.11" stroke="#000000" stroke-width="1" fill="none"></path></g></g><mask></mask><g stroke-linecap="round"><g stroke-opacity="0.7" fill-opacity="0.7" transform="translate(321.37864330047375 188.87861316070178) rotate(0 -18.420690453281452 21.32931918067277)"><path d="M0.2 -0.96 C-11.27 -0.71, -21.56 2.14, -35.46 1.14 M0.99 -0.35 C-14.71 -0.35, -28.36 -0.92, -36.77 -0.25 M-37.7 1.78 C-35.51 12.42, -37.25 25.96, -35.14 42.19 M-36.61 -0.56 C-37.2 15.4, -37.39 31.22, -37.83 43.62" stroke="#000000" stroke-width="1" fill="none"></path></g></g><mask></mask><g stroke-linecap="round"><g stroke-opacity="0.7" fill-opacity="0.7" transform="translate(306.6844584617106 269.11229480126735) rotate(0 -3.5415061910456416 -19.60380226381301)"><path d="M15.71 1.26 C0.2 2.05, -14.93 -1.37, -19.33 0.91 M15.2 0.28 C2.12 -0.8, -8.61 0.61, -21.52 -0.36 M-22.8 -0.23 C-21.64 -9.01, -19.21 -18.42, -21.98 -38.84 M-21.85 -0.07 C-21.23 -9.06, -21 -17.81, -20.62 -40.59" stroke="#000000" stroke-width="1" fill="none"></path></g></g><mask></mask><g stroke-linecap="round"><g stroke-opacity="0.7" fill-opacity="0.7" transform="translate(322.01540944219244 298.40238953632854) rotate(0 -29.355786336282677 -33.82032082785693)"><path d="M-1.16 -0.93 C-18.91 0.48, -33.58 0.71, -59.06 -1.49 M0.51 0.42 C-18.84 -1.19, -37.58 -0.58, -58.24 0.34 M-59.22 -0.28 C-58.1 -22.71, -59.77 -50.37, -55.37 -68.06 M-57.89 0.29 C-57.09 -19.31, -57.83 -38.95, -58.15 -65.4" stroke="#000000" stroke-width="1" fill="none"></path></g></g><mask></mask><g stroke-linecap="round"><g stroke-opacity="0.7" fill-opacity="0.7" transform="translate(285.0829732225044 231.54194465585874) rotate(0 -62.172631708983204 -0.4445281783162329)"><path d="M2 0.43 C-29.93 1.3, -62.13 0.44, -125.31 -1.66 M0.98 -0.79 C-28.44 0.58, -56.22 -0.73, -126.34 0.36" stroke="#000000" stroke-width="1" fill="none"></path></g></g><mask></mask><g stroke-opacity="0.7" fill-opacity="0.7" stroke-linecap="round" transform="translate(10 171.68592733429534) rotate(0 75.45678779367307 56.99056968382902)"><path d="M0.5 -1.51 C47.3 0.82, 99.31 0.09, 150.18 1.83 M-0.49 0.86 C51.93 1.71, 103.26 0.54, 150.14 0.65 M150.83 1.92 C151.55 28.15, 148.44 56.58, 150.52 113.77 M150.18 -0.07 C152.24 38.4, 151.48 76.52, 150.82 113.09 M151.41 113.87 C106.49 113.74, 59.3 116.48, 1.53 112.22 M150.49 114.91 C94.54 112.25, 36.48 113.53, -0.75 113.59 M-1.8 111.99 C1.31 81.44, 1.08 50, -0.76 1.22 M0.14 114.84 C-0.03 86.9, -1.25 60.26, 0.7 0.81" stroke="#000000" stroke-width="1" fill="none"></path></g><g stroke-linecap="round"><g stroke-opacity="0.7" fill-opacity="0.7" transform="translate(548.7041558940709 156.40353993304512) rotate(0 26.46791477706006 29.091237407312747)"><path d="M0.39 1.35 C1.95 22.36, 0.79 43.96, -1.39 58.62 M-0.92 0.95 C0.71 22.2, 1.48 44.28, 0.7 59.37 M-1.7 59.06 C13.97 50.85, 27.52 42.56, 52.27 26.2 M-0.91 58.5 C11.31 52.02, 20.43 45.21, 54.64 26.8 M52.64 28.56 C42.68 20.09, 29.5 12.35, -0.71 -1.18 M54.38 26.82 C38.6 19.45, 23.51 13.09, 0.2 0.31" stroke="#000000" stroke-width="1" fill="none"></path></g></g><mask></mask><g stroke-opacity="0.7" fill-opacity="0.7" transform="translate(549.4821157364147 161.63886276742033) rotate(0 7.5 12.5)"><text x="7.5" y="18" font-family="Virgil, Segoe UI Emoji" font-size="20px" fill="#000000" text-anchor="middle" style="white-space: pre;" direction="ltr">+</text></g><g stroke-opacity="0.7" fill-opacity="0.7" transform="translate(554.5291803032898 182.42567772757695) rotate(0 5 12.5)"><text x="5" y="18" font-family="Virgil, Segoe UI Emoji" font-size="20px" fill="#000000" text-anchor="middle" style="white-space: pre;" direction="ltr">-</text></g><g stroke-linecap="round"><g stroke-opacity="0.7" fill-opacity="0.7" transform="translate(548.9804190691987 233.65224819276528) rotate(0 26.88976751984751 29.99930217829069)"><path d="M-0.34 -0.18 C0.1 12.77, 1.44 29.03, 0.5 60.27 M-0.55 -0.18 C-0.36 15.45, 0.93 32.46, 0.7 59.43 M1.33 57.11 C19.54 46.6, 37.01 35.32, 53.06 26.71 M0.82 59.16 C14.75 50.75, 28.87 41.96, 54.05 28.46 M53.77 29.46 C33.65 16.56, 16.13 6.37, -0.71 -0.27 M54.76 26.95 C32.64 15.88, 11.61 5.37, -0.98 0.84" stroke="#000000" stroke-width="1" fill="none"></path></g></g><mask></mask><g stroke-opacity="0.7" fill-opacity="0.7" transform="translate(549.7583789115424 238.8875710271405) rotate(0 7.5 12.5)"><text x="7.5" y="18" font-family="Virgil, Segoe UI Emoji" font-size="20px" fill="#000000" text-anchor="middle" style="white-space: pre;" direction="ltr">+</text></g><g stroke-opacity="0.7" fill-opacity="0.7" transform="translate(554.8054434784176 259.67438598729717) rotate(0 5 12.5)"><text x="5" y="18" font-family="Virgil, Segoe UI Emoji" font-size="20px" fill="#000000" text-anchor="middle" style="white-space: pre;" direction="ltr">-</text></g><g stroke-linecap="round"><g stroke-opacity="0.7" fill-opacity="0.7" transform="translate(548.0673897523521 193.97274229445202) rotate(0 -131.592279328134 18.589147192544885)"><path d="M1.16 -1.78 C-21.4 2.1, -40.19 0.38, -58.99 -1.72 M-0.99 -0.39 C-15.64 0.08, -29.76 0.92, -58.3 -0.33 M-59.8 0.73 C-56.6 7.09, -58.61 17.39, -57.18 37.29 M-58.84 -0.27 C-58.85 14.2, -58.51 26.92, -58.54 36.58 M-58.75 38.49 C-139.52 39.45, -216.19 38.71, -264.24 38.24 M-59.04 36.83 C-138.63 37.25, -220.34 38.01, -264.34 37.23" stroke="#000000" stroke-width="1" fill="none"></path></g></g><mask></mask><g stroke-linecap="round"><g stroke-opacity="0.7" fill-opacity="0.7" transform="translate(548.7041558940709 274.8420422927345) rotate(0 -28.296983541147654 -21.968979728660315)"><path d="M1.65 -1.72 C-16.56 -1.8, -30.68 0.97, -56.51 -0.32 M0.21 -1 C-19.07 0.49, -38.76 1.19, -57.29 0.93 M-56.27 -0.06 C-56.79 -15.95, -58.39 -29.73, -58.24 -43.48 M-58.16 -0.37 C-57.88 -12.6, -57.68 -24.89, -56.87 -44.92" stroke="#000000" stroke-width="1" fill="none"></path></g></g><mask></mask><g stroke-linecap="round"><g stroke-opacity="0.7" fill-opacity="0.7" transform="translate(418.1670968417251 288.2141312688285) rotate(0 66.46497456652281 -17.694439101055963)"><path d="M1.61 0.8 C35.31 0.36, 70.11 0.89, 90.36 0 M0.14 -0.53 C30.03 0.77, 60.08 0.94, 88.48 -0.1 M87.39 -1.95 C88.46 -12.2, 87.52 -26.57, 88.68 -36.17 M88.45 -0.19 C89.34 -9.58, 89.29 -17.07, 88.77 -34.81 M89.63 -34.33 C99.24 -37.68, 110.96 -35.42, 131.63 -35.72 M89.26 -34.91 C105.53 -36.34, 121.92 -35.03, 132.79 -35.29" stroke="#000000" stroke-width="1" fill="none"></path></g></g><mask></mask><g stroke-linecap="round"><g stroke-opacity="0.7" fill-opacity="0.7" transform="translate(418.8038629834439 176.14329032632673) rotate(0 63.951856573820294 0.12974934624827483)"><path d="M0.38 -0.89 C46.17 1.86, 90.06 1.99, 127.47 -0.08 M-0.72 0.17 C30.65 -1.22, 63.15 -1.79, 128.63 0.27" stroke="#000000" stroke-width="1" fill="none"></path></g></g><mask></mask><g stroke-opacity="0.7" fill-opacity="0.7" stroke-linecap="round" transform="translate(470.3819204626634 109.28284544585688) rotate(0 86.91857834461075 111.11569172992364)"><path d="M1.96 1.78 C69.24 1.03, 135.64 -1.75, 174 0.75 M175.14 0.28 C172.84 66.89, 174.76 132.77, 175.07 222.82 M174.76 223.39 C121.86 221.07, 67.15 221.15, 1.71 220.3 M0.96 222.47 C0.22 165.52, -0.27 109.15, -0.13 0.12" stroke="#5f3dc4" stroke-width="1.5" fill="none" stroke-dasharray="8 9"></path></g><g stroke-opacity="0.7" fill-opacity="0.7" transform="translate(563.8292779401655 113.65493442195088) rotate(0 39 12.5)"><text x="39" y="18" font-family="Virgil, Segoe UI Emoji" font-size="20px" fill="#5f3dc4" text-anchor="middle" style="white-space: pre;" direction="ltr">optional</text></g><g stroke-linecap="round"><g stroke-opacity="0.7" fill-opacity="0.7" transform="translate(602.8292779401655 183.78448402695182) rotate(0 -191.6548364512937 -69.34462381110814)"><path d="M1.34 -1.49 C33.79 0.98, 70.79 0.73, 90.64 -0.89 M-0.19 0.4 C35.78 0.51, 69.41 0.17, 90.6 -0.38 M92.89 -0.78 C91.2 -40.07, 91 -77.17, 89.65 -138.17 M90.36 -0.61 C90.12 -43.41, 89.53 -87.95, 91.82 -139.11 M91.59 -138.48 C-103.17 -138.18, -296.62 -138.25, -474.71 -138.57 M91.23 -138.47 C-74.12 -138.7, -239.38 -138.23, -474.41 -138.48 M-476.2 -137.53 C-472.29 -99.59, -474.4 -61.92, -472.44 -10.16 M-474.51 -138.88 C-473.31 -107.99, -473.32 -77.61, -474.78 -11.17" stroke="#000000" stroke-width="1" fill="none"></path></g></g><mask></mask><g stroke-linecap="round"><g stroke-opacity="0.7" fill-opacity="0.7" transform="translate(602.1925117984467 263.3802517417968) rotate(0 -209.5195244861842 -126.17516148998865)"><path d="M1.92 -1.23 C38.11 1.41, 71.11 1.27, 132.74 -1.12 M-0.67 0.79 C27.58 -0.76, 57.07 -0.77, 131.33 -0.07 M133.01 1.03 C132.03 -63.56, 132.17 -126.12, 130.28 -253.38 M132.08 -0.6 C130.73 -73.22, 130.75 -147.56, 132.02 -252.22 M131.45 -252.95 C-99.09 -253.57, -328.27 -252.74, -549.65 -251.55 M132.1 -251.85 C-26.11 -250.23, -183.43 -250.19, -549.89 -252.33 M-550.32 -252.42 C-549.64 -199.13, -549.92 -146.48, -552.05 -91.13 M-549.95 -251.98 C-549.17 -201.45, -549.92 -150.8, -550.98 -91.62" stroke="#000000" stroke-width="1" fill="none"></path></g></g><mask></mask><g stroke-linecap="round"><g stroke-opacity="0.7" fill-opacity="0.7" transform="translate(694.5236023476672 181.23741946007635) rotate(0 57.69899946064584 0.6640116148628294)"><path d="M0.92 0.81 C29.09 0.15, 60.01 -0.77, 116.36 1.51 M-0.96 0.38 C28 -0.27, 56.94 0.14, 114.11 -0.19" stroke="#000000" stroke-width="1" fill="none"></path></g></g><mask></mask><g stroke-opacity="0.7" fill-opacity="0.7" stroke-linecap="round" transform="translate(816.1459354159505 150.67264465757586) rotate(0 100.5 31.5)"><path d="M-1.7 -1.21 C41.84 2.32, 85.92 -0.11, 202.03 0.46 M-0.88 0.48 C67.27 -1.33, 135.19 -0.4, 201.01 -0.25 M202.93 -1.19 C200.18 16.18, 198.79 28.45, 199.63 63.86 M201.59 -0.13 C202 20.57, 201.36 40.59, 200.75 63.85 M202.47 62.74 C141.21 63.9, 83.08 62.82, 0.03 61.83 M200.3 63.34 C133.8 64.28, 67.71 65.53, -0.87 62.11 M0.98 63.29 C-0.94 40.65, -1.13 20.55, -1.61 -1.45 M-0.62 62.92 C-1.38 45.08, -0.61 25.01, 0.05 -0.87" stroke="#000000" stroke-width="1" fill="none"></path></g><g stroke-opacity="0.7" fill-opacity="0.7" transform="translate(829.6459354159505 169.67264465757586) rotate(0 87 12.5)"><text x="87" y="18" font-family="Virgil, Segoe UI Emoji" font-size="20px" fill="#000000" text-anchor="middle" style="white-space: pre;" direction="ltr">Output (zB LED)</text></g><g stroke-opacity="0.7" fill-opacity="0.7" stroke-linecap="round" transform="translate(816.2549858075146 233.1537840252339) rotate(0 100.5 31.5)"><path d="M0.94 -0.53 C68.92 -2.85, 141.46 -1.14, 199.43 -1.45 M0.05 -0.77 C62.62 -1.65, 127.08 -0.81, 200.33 0.57 M202.3 -0.42 C199.22 13.74, 202.45 27.79, 201.31 63.9 M201.93 -0.38 C200.95 19.08, 201.64 39.74, 200.31 62.57 M199.41 63.62 C135.4 60.54, 68.54 63.31, -0.56 63.84 M201.07 62.87 C154.49 63.87, 109.99 63, -0.04 62.67 M0.52 63.96 C-0.02 45.2, 0.89 28.45, -1.85 0.34 M0.11 62.98 C0.85 44.96, -0.85 28.83, -0.81 0.52" stroke="#000000" stroke-width="1" fill="none"></path></g><g stroke-opacity="0.7" fill-opacity="0.7" transform="translate(829.7549858075146 252.1537840252339) rotate(0 87 12.5)"><text x="87" y="18" font-family="Virgil, Segoe UI Emoji" font-size="20px" fill="#000000" text-anchor="middle" style="white-space: pre;" direction="ltr">Output (zB LED)</text></g><g stroke-linecap="round"><g stroke-opacity="0.7" fill-opacity="0.7" transform="translate(732.0928047090739 263.3802517417964) rotate(0 41.177268202030405 0.5767026123022276)"><path d="M-1.76 1.51 C23.05 1.52, 48.21 -0.87, 84.12 0.32 M0.94 -0.35 C18.54 1.01, 37.99 0.27, 83.37 -0.07" stroke="#000000" stroke-width="1" fill="none"></path></g></g><mask></mask><g stroke-opacity="0.7" fill-opacity="0.7" transform="translate(39.09134015593867 208.5330895380455) rotate(0 43.5 25)"><text x="43.5" y="18" font-family="Virgil, Segoe UI Emoji" font-size="20px" fill="#000000" text-anchor="middle" style="white-space: pre;" direction="ltr">Signal</text><text x="43.5" y="43" font-family="Virgil, Segoe UI Emoji" font-size="20px" fill="#000000" text-anchor="middle" style="white-space: pre;" direction="ltr">Erzeuger</text></g><g stroke-opacity="0.7" fill-opacity="0.7" stroke-linecap="round" transform="translate(262.56036896787407 229.88604598270905) rotate(0 2.812379854138385 2.410611303547171)"><path d="M2.41 -0.34 C2.79 -0.28, 2.73 0.72, 3.15 1.06 C3.56 1.4, 4.62 1.57, 4.89 1.69 C5.16 1.81, 4.84 1.31, 4.77 1.79 C4.7 2.27, 4.85 4.05, 4.47 4.55 C4.09 5.06, 3.04 4.79, 2.5 4.81 C1.95 4.83, 1.53 5.14, 1.17 4.68 C0.82 4.23, 0.53 2.54, 0.39 2.09 C0.26 1.65, 0.11 2.3, 0.37 2.01 C0.64 1.72, 1.58 0.75, 1.99 0.35 C2.4 -0.04, 2.81 -0.49, 2.83 -0.37 M4.23 1.65 C4.51 1.47, 3.99 -0.16, 4.02 -0.02 C4.05 0.11, 4.28 1.85, 4.39 2.47 C4.51 3.08, 5.19 3.05, 4.7 3.67 C4.21 4.28, 1.88 6.25, 1.45 6.14 C1.01 6.02, 2.14 3.39, 2.08 2.97 C2.02 2.56, 1.49 3.96, 1.08 3.63 C0.66 3.3, -0.7 1.63, -0.41 1 C-0.13 0.37, 2.05 -0.26, 2.77 -0.16 C3.5 -0.05, 3.57 1.78, 3.94 1.63 C4.31 1.49, 5.12 -0.73, 4.99 -1" stroke="none" stroke-width="0" fill="#000000"></path><path d="M3.04 0.94 C3.76 1.1, 4.89 0.98, 5.47 1 C6.04 1.03, 6.53 0.57, 6.51 1.08 C6.5 1.6, 5.87 3.54, 5.38 4.1 C4.88 4.66, 3.96 4.34, 3.54 4.45 C3.11 4.56, 3.37 4.93, 2.85 4.75 C2.33 4.58, 0.84 3.7, 0.41 3.4 C-0.02 3.1, 0.3 3.31, 0.29 2.94 C0.27 2.58, -0.02 1.81, 0.33 1.2 C0.69 0.59, 1.91 -0.55, 2.43 -0.74 C2.95 -0.93, 3.47 -0.25, 3.47 0.07 M1.61 -0.75 C2.06 -0.87, 3.65 -0.66, 4.04 -0.37 C4.43 -0.09, 3.67 0.57, 3.94 0.95 C4.21 1.33, 5.45 1.19, 5.67 1.89 C5.89 2.59, 5.96 4.46, 5.26 5.17 C4.57 5.88, 2.01 6.36, 1.5 6.15 C0.99 5.94, 2.65 4.68, 2.2 3.91 C1.75 3.14, -0.75 1.89, -1.18 1.53 C-1.62 1.17, -0.83 1.86, -0.4 1.75 C0.03 1.64, 0.77 1.31, 1.38 0.86 C2 0.41, 2.97 -0.74, 3.29 -0.94" stroke="#000000" stroke-width="1" fill="none"></path></g><g stroke-opacity="0.7" fill-opacity="0.7" stroke-linecap="round" transform="translate(282.2470279468424 229.28339315682223) rotate(0 2.812379854138385 2.410611303547171)"><path d="M3.93 -0.89 C4.26 -1.04, 3.58 -0.63, 3.8 -0.1 C4.02 0.44, 5.08 1.8, 5.22 2.32 C5.37 2.83, 4.8 2.45, 4.68 2.99 C4.56 3.54, 5.12 5.17, 4.5 5.56 C3.88 5.95, 1.52 5.78, 0.94 5.33 C0.35 4.89, 1.12 3.38, 0.97 2.87 C0.83 2.37, 0.06 2.72, 0.06 2.31 C0.06 1.9, 0.19 0.67, 0.98 0.43 C1.76 0.18, 4.31 0.89, 4.76 0.83 C5.21 0.77, 3.91 0.18, 3.69 0.09 M3.03 1.39 C3.3 1.4, 3.75 -0.39, 4.39 -0.36 C5.03 -0.32, 6.96 0.82, 6.88 1.6 C6.81 2.38, 4.44 3.68, 3.92 4.34 C3.41 5, 4.18 5.59, 3.79 5.58 C3.39 5.56, 2.14 4.77, 1.55 4.24 C0.95 3.71, 0.41 2.69, 0.2 2.39 C-0.01 2.08, 0.3 2.89, 0.28 2.4 C0.27 1.91, -0.48 -0.04, 0.09 -0.56 C0.66 -1.07, 3.38 -0.98, 3.71 -0.68 C4.04 -0.39, 2.28 1.18, 2.06 1.19" stroke="none" stroke-width="0" fill="#000000"></path><path d="M2.87 0.18 C3.47 0.15, 4.27 -0.34, 4.7 0.06 C5.12 0.47, 5.49 1.86, 5.41 2.61 C5.32 3.35, 4.47 4.3, 4.19 4.53 C3.91 4.76, 4.06 3.87, 3.72 3.99 C3.39 4.11, 2.8 5.55, 2.16 5.27 C1.53 4.99, 0.38 3.03, -0.08 2.3 C-0.54 1.58, -0.93 1.32, -0.59 0.92 C-0.25 0.52, 1.15 -0.12, 1.95 -0.11 C2.74 -0.09, 3.98 0.81, 4.19 1.02 C4.39 1.22, 3.35 1.23, 3.17 1.13 M1.89 1.16 C2.54 0.97, 3.07 -0.05, 3.94 0.06 C4.8 0.17, 6.71 1.4, 7.07 1.81 C7.43 2.22, 6.9 2.09, 6.1 2.5 C5.31 2.91, 2.94 4.03, 2.3 4.25 C1.67 4.47, 2.64 3.93, 2.3 3.8 C1.96 3.67, 0.57 3.71, 0.28 3.45 C-0.01 3.2, 0.63 2.75, 0.55 2.28 C0.47 1.8, -0.79 1, -0.22 0.6 C0.35 0.21, 3.36 -0.1, 3.97 -0.11 C4.57 -0.12, 3.68 0.47, 3.41 0.52" stroke="#000000" stroke-width="1" fill="none"></path></g><g stroke-opacity="0.7" fill-opacity="0.7" stroke-linecap="round" transform="translate(487.7516415742374 229.3838352944701) rotate(0 2.812379854138385 2.410611303547171)"><path d="M2.63 -0.87 C3.04 -0.99, 3.82 0.13, 4.35 0.63 C4.88 1.13, 5.85 1.4, 5.8 2.12 C5.75 2.85, 4.38 4.67, 4.07 4.99 C3.76 5.31, 4.27 4.04, 3.92 4.05 C3.56 4.07, 2.66 5.24, 1.93 5.07 C1.19 4.9, -0.31 3.67, -0.52 3.04 C-0.72 2.4, 0.37 1.56, 0.71 1.25 C1.06 0.94, 0.89 1.48, 1.56 1.17 C2.23 0.86, 4.32 -0.44, 4.73 -0.6 C5.14 -0.75, 4.18 0.02, 4.03 0.25 M5.36 -0.31 C5.87 0.11, 4.28 2.28, 4.18 2.65 C4.09 3.03, 4.66 1.59, 4.77 1.95 C4.88 2.31, 5.08 4.32, 4.85 4.81 C4.61 5.3, 4.09 5.01, 3.37 4.9 C2.65 4.78, 1.25 4.48, 0.54 4.12 C-0.17 3.77, -1.01 3.48, -0.89 2.76 C-0.77 2.03, 0.93 0.14, 1.27 -0.23 C1.62 -0.6, 0.84 0.67, 1.18 0.55 C1.51 0.44, 2.64 -0.76, 3.29 -0.94 C3.94 -1.11, 5.14 -0.97, 5.09 -0.49" stroke="none" stroke-width="0" fill="#000000"></path><path d="M2.09 -0.25 C2.51 -0.37, 2.44 -0.18, 2.98 -0.03 C3.53 0.12, 4.87 0.03, 5.37 0.62 C5.88 1.21, 6.31 2.74, 6.03 3.51 C5.76 4.27, 4.13 5.02, 3.71 5.21 C3.29 5.4, 4.13 4.93, 3.53 4.62 C2.93 4.31, 0.78 3.62, 0.11 3.37 C-0.57 3.13, -0.52 3.43, -0.52 3.13 C-0.53 2.84, -0.55 2.25, 0.07 1.61 C0.7 0.97, 2.65 -0.36, 3.24 -0.71 C3.83 -1.05, 3.75 -0.63, 3.62 -0.44 M2.8 -0.62 C3.11 -0.42, 2.61 1.11, 2.94 1.55 C3.27 1.99, 4.54 2.04, 4.77 2.01 C5.01 1.98, 4.43 0.9, 4.35 1.36 C4.27 1.82, 4.66 4.19, 4.31 4.77 C3.95 5.34, 2.75 4.8, 2.23 4.81 C1.7 4.82, 1.45 5.37, 1.17 4.84 C0.89 4.31, 0.67 2.05, 0.55 1.63 C0.42 1.21, 0.26 2.49, 0.42 2.33 C0.58 2.16, 1.24 1.07, 1.53 0.62 C1.81 0.17, 2.11 -0.55, 2.14 -0.38" stroke="#000000" stroke-width="1" fill="none"></path></g><g stroke-opacity="0.7" fill-opacity="0.7" stroke-linecap="round" transform="translate(691.4482967239718 178.76099791997973) rotate(0 2.812379854138385 2.410611303547171)"><path d="M2.08 -0.75 C2.43 -0.56, 3.88 0.51, 4.39 0.87 C4.9 1.23, 4.86 0.8, 5.13 1.43 C5.4 2.05, 6.41 3.94, 6.02 4.61 C5.63 5.28, 3.43 5.54, 2.82 5.44 C2.2 5.34, 2.76 4.25, 2.33 3.99 C1.91 3.74, 0.67 4.28, 0.26 3.91 C-0.14 3.54, -0.38 2.23, -0.07 1.77 C0.24 1.31, 1.64 1.48, 2.11 1.12 C2.58 0.76, 2.46 -0.23, 2.74 -0.39 C3.02 -0.55, 3.61 -0.09, 3.79 0.18 M1.33 -1.04 C2.1 -1.58, 4.58 -1.05, 5.05 -0.61 C5.52 -0.16, 4.01 0.93, 4.17 1.64 C4.33 2.35, 5.91 3.25, 6 3.64 C6.09 4.03, 5.22 3.93, 4.69 3.98 C4.16 4.02, 3.4 3.75, 2.81 3.92 C2.21 4.09, 1.8 5.35, 1.13 5.01 C0.46 4.68, -1.17 2.66, -1.22 1.91 C-1.26 1.15, 0.54 0.59, 0.86 0.48 C1.18 0.37, 0.66 1.45, 0.7 1.26 C0.75 1.06, 0.67 -0.44, 1.13 -0.69" stroke="none" stroke-width="0" fill="#000000"></path><path d="M2.14 -0.89 C2.77 -0.98, 3.71 -0.04, 4.16 0.47 C4.61 0.99, 4.54 1.86, 4.84 2.21 C5.14 2.56, 5.94 2.03, 5.96 2.57 C5.98 3.1, 5.61 5.18, 4.95 5.41 C4.28 5.64, 2.81 4.3, 1.95 3.94 C1.08 3.59, -0.02 3.63, -0.27 3.29 C-0.53 2.95, 0.16 2.16, 0.41 1.89 C0.67 1.61, 1.01 1.81, 1.27 1.64 C1.54 1.47, 1.8 1.13, 2 0.88 C2.21 0.63, 2.34 0.38, 2.49 0.13 M2.48 -0.58 C3.48 -0.78, 5.75 0.23, 6.44 0.52 C7.12 0.81, 7.05 0.66, 6.59 1.16 C6.13 1.65, 4.12 3.02, 3.68 3.49 C3.24 3.96, 4.31 3.81, 3.93 3.98 C3.55 4.14, 1.94 4.53, 1.39 4.48 C0.84 4.43, 1.06 4.14, 0.63 3.68 C0.2 3.22, -1.5 2.3, -1.21 1.72 C-0.92 1.14, 1.55 0.4, 2.37 0.2 C3.19 0, 3.67 0.54, 3.72 0.51 C3.76 0.48, 2.54 -0.15, 2.66 0.03" stroke="#000000" stroke-width="1" fill="none"></path></g><g stroke-opacity="0.7" fill-opacity="0.7" stroke-linecap="round" transform="translate(731.2233832324999 260.6213401029352) rotate(0 2.812379854138385 2.410611303547171)"><path d="M3.34 -0.12 C4.05 0.16, 5.35 0.31, 5.59 1 C5.83 1.68, 4.82 3.56, 4.76 4.01 C4.69 4.45, 5.44 3.43, 5.18 3.68 C4.91 3.92, 4.01 5.42, 3.17 5.48 C2.33 5.54, 0.58 4.55, 0.13 4.03 C-0.32 3.52, 0.39 2.73, 0.46 2.37 C0.53 2.01, 0.13 2.42, 0.53 1.89 C0.93 1.36, 2.27 -0.51, 2.86 -0.79 C3.45 -1.07, 3.74 -0.11, 4.06 0.21 C4.37 0.53, 4.54 1.18, 4.74 1.15 M1.44 1.27 C1.66 1.11, 2.96 -0.79, 3.71 -0.62 C4.47 -0.46, 5.56 1.56, 5.97 2.25 C6.37 2.95, 6.52 3.16, 6.14 3.56 C5.76 3.95, 4.5 4.41, 3.66 4.62 C2.83 4.84, 1.54 5.22, 1.13 4.86 C0.73 4.51, 1.58 2.87, 1.24 2.5 C0.91 2.12, -0.71 3.12, -0.89 2.63 C-1.07 2.13, -0.62 0.07, 0.15 -0.49 C0.92 -1.05, 3.47 -1.09, 3.74 -0.75 C4 -0.41, 2.03 1.58, 1.75 1.55" stroke="none" stroke-width="0" fill="#000000"></path><path d="M1.1 -0.11 C1.63 -0.33, 3.21 -0.81, 3.99 -0.48 C4.78 -0.14, 5.68 1.18, 5.8 1.9 C5.92 2.62, 4.81 3.48, 4.73 3.85 C4.66 4.23, 5.82 4.12, 5.33 4.14 C4.85 4.17, 2.68 3.93, 1.84 4 C1.01 4.07, 0.7 4.71, 0.34 4.57 C-0.03 4.44, -0.52 3.89, -0.35 3.18 C-0.18 2.48, 0.78 0.95, 1.36 0.35 C1.94 -0.26, 2.93 -0.42, 3.14 -0.44 C3.34 -0.47, 2.88 0.03, 2.59 0.21 M1.16 1.63 C1.43 1.72, 2.89 1.38, 3.35 1.09 C3.82 0.8, 3.65 -0.51, 3.95 -0.13 C4.24 0.26, 5.13 2.68, 5.12 3.41 C5.1 4.13, 4.24 3.9, 3.87 4.21 C3.49 4.53, 3.27 5.5, 2.88 5.28 C2.48 5.07, 1.96 3.15, 1.52 2.91 C1.07 2.67, 0.42 4.05, 0.2 3.84 C-0.01 3.63, -0.12 2.38, 0.22 1.66 C0.56 0.94, 2 -0.43, 2.25 -0.48 C2.51 -0.52, 1.59 1.21, 1.75 1.38" stroke="#000000" stroke-width="1" fill="none"></path></g></svg>