<svg version="1.1" xmlns="http://www.w3.org/2000/svg" viewBox="0 0 326.08106102813827 279.3426619247502" width="326.08106102813827" height="279.3426619247502" filter="invert(93%) hue-rotate(180deg)">
  <!-- svg-source:excalidraw -->
  
  <defs>
    <style class="style-fonts">
      @font-face {
        font-family: "Virgil";
        src: url("https://excalidraw.com/Virgil.woff2");
      }
      @font-face {
        font-family: "Cascadia";
        src: url("https://excalidraw.com/Cascadia.woff2");
      }
    </style>
  </defs>
  <g stroke-linecap="round"><g transform="translate(106.97187453745073 25.859810215000493) rotate(0 0.23914645948792668 6.557887665312819)"><path d="M0.26 1.07 C1.03 2.65, -0.16 6.62, 0.46 11.12 M0.44 0.41 C-0.05 3.87, 0.24 7.95, -0.05 12.7" stroke="#000000" stroke-width="1" fill="none"></path></g></g><mask></mask><g stroke-linecap="round" transform="translate(100.56338070398635 40.336814886109494) rotate(0 6.125180007808524 15.94425029281905)"><path d="M0.35 0.15 C4.53 -1.01, 7.58 0.43, 11.29 -0.95 M0.4 0.42 C4.4 -0.22, 8.89 -0.23, 12.21 -0.58 M11.13 1.75 C12.76 11.13, 11.85 22.83, 11.65 31.27 M12.14 0.76 C12.27 12.83, 12.58 23.73, 11.98 32.04 M12.25 32.61 C7.24 31.85, 3.18 31.57, 0.63 31.54 M12.52 32.2 C8.95 31.78, 6 31.45, -0.13 32.35 M-1.68 33.01 C1.25 20.05, 0.76 7.24, -1.73 -0.06 M0.93 31.14 C-0.6 23.02, -0.91 14.57, -0.83 -0.42" stroke="#000000" stroke-width="1" fill="none"></path></g><g stroke-linecap="round"><g transform="translate(106.76781127731886 73.42711127721606) rotate(0 -3.733305469671677 32.08469200512479)"><path d="M-1.07 -0.46 C-2.12 18.54, -0.89 39.81, 0.24 63.2 M0.98 -0.08 C0.09 22.56, -1.43 44.23, -0.89 61.67 M-2.01 62.24 C-4.65 63, -11.24 62.94, -21.98 64.63 M-1.27 62.1 C-4.6 63.66, -10.25 62.87, -22.16 62.19 M-19.76 64.33 C-12.03 60.93, 1.13 61.12, 14.7 62.86 M-20.82 61.96 C-7.46 63.49, 6.74 62.64, 14.67 63.53" stroke="#000000" stroke-width="1" fill="none"></path></g></g><mask></mask><g stroke-linecap="round"><g transform="translate(90.51811215668624 136.94866238514322) rotate(0 -7.977125022856001 6.795328723173611)"><path d="M0 0 C-5.65 4.82, -11.31 9.63, -15.95 13.59 M0 0 C-3.24 2.76, -6.48 5.52, -15.95 13.59" stroke="#000000" stroke-width="1" fill="none"></path></g><g transform="translate(90.51811215668624 136.94866238514322) rotate(0 -7.977125022856001 6.795328723173611)"><path d="M-10.78 4.48 C-12.61 7.71, -14.45 10.94, -15.95 13.59 M-10.78 4.48 C-11.83 6.33, -12.88 8.18, -15.95 13.59" stroke="#000000" stroke-width="1" fill="none"></path></g><g transform="translate(90.51811215668624 136.94866238514322) rotate(0 -7.977125022856001 6.795328723173611)"><path d="M-6.13 9.93 C-9.61 11.23, -13.09 12.53, -15.95 13.59 M-6.13 9.93 C-8.13 10.68, -10.13 11.42, -15.95 13.59" stroke="#000000" stroke-width="1" fill="none"></path></g></g><mask></mask><g stroke-linecap="round"><g transform="translate(102.63152422843052 137.24411146006383) rotate(0 -6.795328723173611 8.12484956031625)"><path d="M0 0 C-4.34 5.19, -8.68 10.38, -13.59 16.25 M0 0 C-4.28 5.12, -8.56 10.23, -13.59 16.25" stroke="#000000" stroke-width="1" fill="none"></path></g><g transform="translate(102.63152422843052 137.24411146006383) rotate(0 -6.795328723173611 8.12484956031625)"><path d="M-9.98 6.29 C-11.14 9.47, -12.29 12.65, -13.59 16.25 M-9.98 6.29 C-11.12 9.43, -12.26 12.56, -13.59 16.25" stroke="#000000" stroke-width="1" fill="none"></path></g><g transform="translate(102.63152422843052 137.24411146006383) rotate(0 -6.795328723173611 8.12484956031625)"><path d="M-4.43 10.94 C-7.35 12.64, -10.28 14.33, -13.59 16.25 M-4.43 10.94 C-7.31 12.61, -10.2 14.28, -13.59 16.25" stroke="#000000" stroke-width="1" fill="none"></path></g></g><mask></mask><g stroke-linecap="round"><g transform="translate(73.97296396113313 150.83476890641094) rotate(0 -22.645257745125775 3.1597665887719586)"><path d="M0.65 0.09 C-1.77 2.09, -3.19 4.03, -4.73 4.86 M-0.23 0.21 C-1.67 2.4, -3.49 4.1, -5.05 5.42 M-4.15 3.56 C-19.33 6.95, -34.07 6.96, -45.94 4.46 M-5.11 4.64 C-16.25 5.73, -29.81 5.75, -45.13 4.63" stroke="#000000" stroke-width="1" fill="none"></path></g></g><mask></mask><g stroke-linecap="round"><g transform="translate(87.85907048240108 154.97105595529928) rotate(0 -29.771283723601755 14.750810216085142)"><path d="M0.77 -1.53 C-3.27 1.11, -6.25 4.82, -11.11 10.4 M-0.71 0.73 C-4.32 4.13, -7.35 7.26, -12.08 11.35 M-11.75 12.02 C-13.46 20.5, -10.89 26.23, -11.63 31.03 M-11.58 11.04 C-12.21 18, -12.25 23.45, -12.24 30.17 M-11.82 30.74 C-27.93 29.84, -44.73 31.23, -60.31 29.48 M-12.2 30.99 C-24.4 29.77, -38.48 30.54, -58.94 30.95" stroke="#000000" stroke-width="1" fill="none"></path></g></g><mask></mask><g stroke-linecap="round"><g transform="translate(161.72133921254886 151.42566705625217) rotate(0 5.761256960951528 5.318083348570667)"><path d="M0 0 C3.84 3.55, 7.69 7.1, 11.52 10.64 M0 0 C3.72 3.44, 7.45 6.87, 11.52 10.64" stroke="#000000" stroke-width="1" fill="none"></path></g><g transform="translate(161.72133921254886 151.42566705625217) rotate(0 5.761256960951528 5.318083348570667)"><path d="M4.29 7.61 C6.7 8.62, 9.11 9.63, 11.52 10.64 M4.29 7.61 C6.63 8.59, 8.96 9.57, 11.52 10.64" stroke="#000000" stroke-width="1" fill="none"></path></g><g transform="translate(161.72133921254886 151.42566705625217) rotate(0 5.761256960951528 5.318083348570667)"><path d="M7.93 3.67 C9.13 5.99, 10.33 8.32, 11.52 10.64 M7.93 3.67 C9.09 5.92, 10.25 8.17, 11.52 10.64" stroke="#000000" stroke-width="1" fill="none"></path></g></g><mask></mask><g stroke-linecap="round" transform="translate(165.41445264905644 42.40495841055389) rotate(0 6.352155110792694 16.249699120632556)"><path d="M1.11 0.81 C4.95 0.44, 8.86 -1.07, 11.71 -0.66 M0.04 0.49 C4.56 -0.21, 7.82 0.28, 13.16 0.01 M13.68 -1.33 C12.07 10.3, 11.05 22.08, 13.33 30.78 M11.99 -0.92 C12.25 9.21, 13.24 17.28, 13.51 33.34 M13.13 32.25 C8.7 31.97, 3.21 31.51, 0.88 31.49 M12.53 33.02 C9.26 32.33, 5.04 32.83, -0.21 32.06 M-1 31.59 C0.52 27.4, -0.16 18.63, -1.14 0.02 M-0.41 33.02 C1.02 22.08, 0.38 10.72, 0.32 0.84" stroke="#000000" stroke-width="1" fill="none"></path></g><g stroke-linecap="round"><g transform="translate(115.33583445001602 139.01680590958716) rotate(0 12.890345253164469 4.9977765403726835)"><path d="M-1.26 -0.1 C3.4 3.22, 4.74 2.8, 10.54 9.2 M-0.1 -0.32 C4.43 2.58, 8.24 5.77, 10.95 9.3 M10.82 10.32 C14.87 8.6, 18.49 9.91, 27.04 8.78 M12.06 8.15 C17.21 8.67, 22.98 9.28, 25.94 9.3" stroke="#000000" stroke-width="1" fill="none"></path></g></g><mask></mask><g stroke-linecap="round"><g transform="translate(159.3577466131842 136.06231516038127) rotate(0 0.742676705879262 10.339743796703658)"><path d="M1.46 -1.94 C0.22 7.8, 0.66 17.54, -0.08 22.05 M0.42 0.43 C0.64 5.44, -0.36 12.58, 1.57 22.62" stroke="#000000" stroke-width="1" fill="none"></path></g></g><mask></mask><g stroke-linecap="round"><g transform="translate(141.63080211794875 148.47117630704616) rotate(0 7.877426404153482 -0.8003764349066387)"><path d="M-1.61 -0.29 C4.16 0.25, 8.79 0.23, 16.68 -0.82 M-0.06 0.35 C6.28 -1.34, 11.94 -0.99, 17.36 -1.95" stroke="#000000" stroke-width="1" fill="none"></path></g></g><mask></mask><g stroke-linecap="round"><g transform="translate(160.53954291286652 141.38039850895194) rotate(0 5.316861996335376 -3.016836180921473)"><path d="M0.51 0.5 C2.64 -1.31, 4.27 -2.35, 8.97 -6.54 M0.43 -0.24 C3.27 -1.44, 6.31 -4.01, 10.2 -5.81" stroke="#000000" stroke-width="1" fill="none"></path></g></g><mask></mask><g stroke-linecap="round"><g transform="translate(171.47115868492847 132.22147718641367) rotate(0 0.8623169330049905 -27.665901375300905)"><path d="M-0.59 1.39 C0.46 -15.68, -1.04 -29.04, -0.38 -56.63 M0.46 -0.29 C-0.17 -22.06, 2.23 -45.21, 2.31 -56.72" stroke="#000000" stroke-width="1" fill="none"></path></g></g><mask></mask><g stroke-linecap="round"><g transform="translate(228.5591736409441 119.30630698400529) rotate(0 5.761256960951528 5.318083348570667)"><path d="M0 0 C2.45 2.26, 4.89 4.52, 11.52 10.64 M0 0 C2.57 2.37, 5.13 4.74, 11.52 10.64" stroke="#000000" stroke-width="1" fill="none"></path></g><g transform="translate(228.5591736409441 119.30630698400529) rotate(0 5.761256960951528 5.318083348570667)"><path d="M4.29 7.61 C5.83 8.25, 7.36 8.9, 11.52 10.64 M4.29 7.61 C5.9 8.28, 7.51 8.96, 11.52 10.64" stroke="#000000" stroke-width="1" fill="none"></path></g><g transform="translate(228.5591736409441 119.30630698400529) rotate(0 5.761256960951528 5.318083348570667)"><path d="M7.93 3.67 C8.69 5.15, 9.45 6.63, 11.52 10.64 M7.93 3.67 C8.73 5.22, 9.53 6.77, 11.52 10.64" stroke="#000000" stroke-width="1" fill="none"></path></g></g><mask></mask><g stroke-linecap="round"><g transform="translate(226.4910301164997 101.57936248876973) rotate(0 0.44341563197241385 11.443470963244579)"><path d="M-0.11 1.73 C0.62 5.36, 1.29 9.31, 0 20.91 M0.83 0.99 C-0.38 4.27, 1.41 9.77, 0.91 21.9" stroke="#000000" stroke-width="1" fill="none"></path></g></g><mask></mask><g stroke-linecap="round"><g transform="translate(227.67282641618215 106.89744583734029) rotate(0 4.377768794190274 -3.073456263868934)"><path d="M0.13 0.27 C3.22 -2.14, 5.1 -4.55, 8.83 -5.41 M-0.42 -0.4 C3.47 -2.1, 6 -4.26, 9.18 -6.42" stroke="#000000" stroke-width="1" fill="none"></path></g></g><mask></mask><g stroke-linecap="round"><g transform="translate(171.8229103752816 29.347191096987785) rotate(0 -0.30874487027216446 6.431317400586153)"><path d="M-1.13 0.19 C-0.09 3.69, -0.99 10.22, -0.68 11.18 M-0.14 0.61 C0.24 4.51, 0.5 8.44, 0.51 12.67" stroke="#000000" stroke-width="1" fill="none"></path></g></g><mask></mask><g stroke-linecap="round"><g transform="translate(226.42468662015858 114.49453269117811) rotate(0 -26.646652446687312 -0.1498076505959034)"><path d="M0.29 1.19 C-13.22 0, -22.97 1.35, -54.19 -1.49 M0.95 -0.64 C-12.62 -0.63, -25.74 0.8, -54.24 0.03" stroke="#000000" stroke-width="1" fill="none"></path></g></g><mask></mask><g stroke-linecap="round"><g transform="translate(230.61767713783172 201.61256871531378) rotate(0 5.761256960951528 5.318083348570667)"><path d="M0 0 C2.47 2.28, 4.93 4.55, 11.52 10.64 M0 0 C2.46 2.27, 4.91 4.53, 11.52 10.64" stroke="#000000" stroke-width="1" fill="none"></path></g><g transform="translate(230.61767713783172 201.61256871531378) rotate(0 5.761256960951528 5.318083348570667)"><path d="M4.29 7.61 C5.84 8.26, 7.39 8.9, 11.52 10.64 M4.29 7.61 C5.83 8.25, 7.37 8.9, 11.52 10.64" stroke="#000000" stroke-width="1" fill="none"></path></g><g transform="translate(230.61767713783172 201.61256871531378) rotate(0 5.761256960951528 5.318083348570667)"><path d="M7.93 3.67 C8.7 5.16, 9.47 6.65, 11.52 10.64 M7.93 3.67 C8.69 5.15, 9.46 6.64, 11.52 10.64" stroke="#000000" stroke-width="1" fill="none"></path></g></g><mask></mask><g stroke-linecap="round"><g transform="translate(228.54953361338733 183.88562422007823) rotate(0 -0.16120743108302804 11.129935164903543)"><path d="M-1.94 1.58 C0.44 4.14, 0.4 10.19, 1.62 20.72 M0.33 0.35 C-0.41 7.12, 0.84 14.52, 0.55 21.91" stroke="#000000" stroke-width="1" fill="none"></path></g></g><mask></mask><g stroke-linecap="round"><g transform="translate(229.73132991306977 189.20370756864878) rotate(0 4.818785515785635 -3.1486948880152568)"><path d="M0.91 0.15 C2.78 -1.77, 6.6 -3.25, 8.75 -6.02 M0.2 -0.39 C2.89 -1.69, 5.94 -3.88, 9.44 -6.45" stroke="#000000" stroke-width="1" fill="none"></path></g></g><mask></mask><g stroke-linecap="round"><g transform="translate(240.0153440665058 129.56243551212827) rotate(0 -0.8051906360394128 26.84745419090018)"><path d="M-0.96 -0.78 C-0.58 14.19, -0.42 34.1, -1.71 54.48 M0.1 0.77 C-0.84 20.22, -1.45 40.61, -0.99 53.73" stroke="#000000" stroke-width="1" fill="none"></path></g></g><mask></mask><g stroke-linecap="round"><g transform="translate(245.5414616736607 142.474779992298) rotate(0 -6.009561468857157 6.132756447806457)"><path d="M1.3 0.29 C-2.48 3.1, -2.9 7.42, -6.36 13.12 M-0.26 -0.17 C-2.21 4.58, -4.05 8.26, -5.96 12.04 M-4.99 13.13 C-9.02 8.13, -10.22 3.3, -13.32 -0.6 M-6.55 11.86 C-8.33 7.48, -10.56 3.22, -12.69 0.73 M-11.04 -0.86 C-9.3 0.36, -3.24 0.31, 0.55 -0.24 M-12.53 -0.51 C-8.82 0.11, -6.91 0.05, -0.2 -0.01" stroke="#000000" stroke-width="1" fill="none"></path></g></g><mask></mask><g stroke-linecap="round"><g transform="translate(233.23095454793486 155.10639548664113) rotate(0 7.542374687018992 -0.1458650692663923)"><path d="M-0.5 -0.31 C2.71 0.5, 6.41 -0.65, 15.31 -0.8 M-0.07 0.12 C3.73 -0.61, 7.63 -0.38, 15.59 0.51" stroke="#000000" stroke-width="1" fill="none"></path></g></g><mask></mask><g stroke-linecap="round"><g transform="translate(241.90837703721047 212.43007186374888) rotate(0 -0.2271241575086833 27.493888833605467)"><path d="M-0.24 1.66 C0.26 11.23, 1.98 23.42, -0.62 55.25 M-0.73 -0.51 C-0.25 13.18, 0.42 24.58, 0.65 55.18 M0.76 54.55 C-3.43 53.64, -6.92 54.33, -9.87 55.14 M0.21 54.49 C-3.42 54.67, -7.31 54.85, -9.96 54.09 M-10.67 54.94 C-3.45 54.74, 7.28 55.89, 10.21 55.35 M-10.31 55.13 C-3.98 53.98, 2.97 55.46, 9.06 55.1" stroke="#000000" stroke-width="1" fill="none"></path></g></g><mask></mask><g stroke-linecap="round"><g transform="translate(173.2333888078989 162.65305701408573) rotate(0 27.03828393434344 18.114671326012058)"><path d="M0.2 1.81 C1.37 13.65, -0.46 25.27, -1.84 36.29 M0.59 -0.06 C-0.66 10.19, 0.52 20.5, 0.75 35.39 M1.58 35.1 C17.4 35.79, 37.4 33.94, 55.92 34.16 M0.9 34.32 C19.77 34.55, 39.12 35.76, 55.86 34.84" stroke="#000000" stroke-width="1" fill="none"></path></g></g><mask></mask><g stroke-linecap="round" transform="translate(166.764259339854 210.82084721441407) rotate(0 6.352155110792694 16.249699120632556)"><path d="M-0.36 0.34 C3.47 0.09, 6.48 0.36, 11.62 -0.5 M-0.12 -0.2 C2.5 0.34, 5.27 -0.01, 12.68 -0.48 M13.11 -1.96 C13.34 7.58, 11.16 15.83, 12.45 30.96 M13.33 -0.8 C12.53 9.86, 13.34 18.63, 13.62 31.78 M13.81 33.16 C9 33.09, 3.91 32.61, -0.45 33.52 M12.78 33.02 C8.28 31.93, 2.7 32.13, -0.46 32.22 M0.47 30.5 C1.23 21.95, 2.16 14.1, -0.9 -0.32 M-0.69 32.1 C0.17 24.13, 0.63 16.61, -0.75 0.63" stroke="#000000" stroke-width="1" fill="none"></path></g><g stroke-linecap="round"><g transform="translate(173.27935210611884 196.11239179533533) rotate(0 0.13403854179620112 6.743234878055773)"><path d="M-0.51 -1.06 C0.83 2.58, 0.88 5.62, -0.76 14.48 M-0.28 0.51 C0.24 4.83, 0.47 10.38, 1.02 14.54" stroke="#000000" stroke-width="1" fill="none"></path></g></g><mask></mask><g stroke-linecap="round"><g transform="translate(174.58285334989614 244.01606250415222) rotate(0 0.26851008638988105 12.122924408684582)"><path d="M-0.71 -1.08 C-1.03 5.02, -1.86 12.7, -0.74 22.72 M-0.81 0.64 C0.66 8.73, -0.53 15.28, 0.62 24.33 M-0.18 24.53 C3.64 24.23, 4.93 24.95, 9.87 23.38 M0.22 24.42 C1.94 23.74, 4.2 24.53, 9.73 23.98 M11.76 25.33 C3.46 22.24, -4.05 22.87, -9.06 22.94 M9.19 24.48 C4.5 24.37, 1.99 24.16, -11.22 24.24" stroke="#000000" stroke-width="1" fill="none"></path></g></g><mask></mask><g stroke-linecap="round" transform="translate(230.10937474811044 41.250543276187784) rotate(0 6.6874099960957665 16.506480281106292)"><path d="M0.95 -0.75 C5.06 0.54, 8.31 1.14, 13.54 -0.54 M0.29 0.47 C5.15 0.47, 9.25 -0.27, 13.6 -0.34 M11.73 -0.79 C13.38 5.31, 11.64 16.02, 12.51 34.62 M13.18 0.46 C13.04 7.03, 13.68 15.28, 14.26 32.51 M12.66 32.21 C8.01 34.22, 3.4 33.65, -0.53 33.69 M12.77 32.96 C10.18 33.23, 7.69 32.48, 0.66 33.52 M1.52 34 C0.17 23.29, 1.93 9.68, 0.23 0.62 M0.21 32.27 C-0.83 21.97, 0.04 9.81, -0.45 -0.75" stroke="#000000" stroke-width="1" fill="none"></path></g><g stroke-linecap="round"><g transform="translate(237.37939941926436 101.28066700236133) rotate(0 -0.9950833870097995 -13.945313302580416)"><path d="M-1.58 -1.08 C-0.93 -11.64, -1.06 -18.98, -1.29 -25.83 M-0.41 -0.26 C-1.04 -7.07, -0.89 -13.62, -0.47 -27.63" stroke="#000000" stroke-width="1" fill="none"></path></g></g><mask></mask><g stroke-linecap="round"><g transform="translate(235.9557003769204 28.80389270127222) rotate(0 0.07881314038797882 6.013169910005928)"><path d="M0.02 -0.69 C-0.66 3.25, -1.2 9.22, 0.76 12.72 M-0.44 -0.25 C0.44 3.39, 0.05 7.24, 0.43 12.34" stroke="#000000" stroke-width="1" fill="none"></path></g></g><mask></mask><g stroke-linecap="round"><g transform="translate(239.17677769975205 168.55387908754534) rotate(0 21.17735099767009 0.5483274208381772)"><path d="M-0.53 1.26 C13.89 0.91, 26.2 1.58, 43.22 1.87 M-0.87 -0.3 C16.4 0.78, 32.48 0.77, 42.26 -0.78" stroke="#000000" stroke-width="1" fill="none"></path></g></g><mask></mask><g transform="translate(95.81169170292367 10) rotate(0 12.5 10)"><text x="0" y="14" font-family="Virgil, Segoe UI Emoji" font-size="16px" fill="#000000" text-anchor="start" style="white-space: pre;" direction="ltr">Vcc</text></g><g transform="translate(160.96777995120578 13.28811960212255) rotate(0 12.5 10)"><text x="0" y="14" font-family="Virgil, Segoe UI Emoji" font-size="16px" fill="#000000" text-anchor="start" style="white-space: pre;" direction="ltr">Vcc</text></g><g transform="translate(225.3191537793275 10.844396545358393) rotate(0 12.5 10)"><text x="0" y="14" font-family="Virgil, Segoe UI Emoji" font-size="16px" fill="#000000" text-anchor="start" style="white-space: pre;" direction="ltr">Vcc</text></g><g transform="translate(11.086099136339385 146.06373901963985) rotate(0 6 10)"><text x="0" y="14" font-family="Virgil, Segoe UI Emoji" font-size="16px" fill="#000000" text-anchor="start" style="white-space: pre;" direction="ltr">A</text></g><g transform="translate(10 175.93146526897914) rotate(0 6.5 10)"><text x="0" y="14" font-family="Virgil, Segoe UI Emoji" font-size="16px" fill="#000000" text-anchor="start" style="white-space: pre;" direction="ltr">B</text></g><g transform="translate(285.08106102813827 160.45455257613975) rotate(0 15.5 10)"><text x="0" y="14" font-family="Virgil, Segoe UI Emoji" font-size="16px" fill="#000000" text-anchor="start" style="white-space: pre;" direction="ltr">Out</text></g><g stroke-linecap="round" transform="translate(168.36900578964514 111.57062513934449) rotate(0 3.2509887852297084 1.9123463442527395)"><path d="M4.96 0.02 C5.77 0.18, 6.35 0.96, 6.58 1.31 C6.8 1.65, 6.43 1.81, 6.3 2.07 C6.16 2.33, 6.28 2.65, 5.76 2.88 C5.24 3.12, 3.84 3.41, 3.17 3.45 C2.5 3.5, 2.29 3.48, 1.75 3.15 C1.21 2.81, 0.29 1.95, -0.04 1.45 C-0.38 0.95, -0.77 0.48, -0.28 0.14 C0.21 -0.2, 2.07 -0.57, 2.88 -0.6 C3.7 -0.62, 4.31 -0.13, 4.59 0 C4.87 0.13, 4.69 0.22, 4.57 0.18 M4.01 0.31 C4.4 0.72, 5.57 2.17, 5.95 2.53 C6.34 2.9, 6.65 2.39, 6.3 2.49 C5.95 2.58, 4.44 2.91, 3.84 3.11 C3.25 3.3, 3.26 3.51, 2.73 3.66 C2.2 3.81, 0.97 4.17, 0.66 4.02 C0.35 3.87, 0.95 3.25, 0.85 2.75 C0.75 2.24, -0.44 1.41, 0.08 1.01 C0.6 0.61, 3.39 0.44, 3.98 0.34 C4.57 0.24, 3.48 0.63, 3.61 0.4 C3.75 0.17, 4.55 -1.22, 4.79 -1.07" stroke="none" stroke-width="0" fill="#000"></path><path d="M3.52 -0.77 C4.14 -0.74, 4.63 0.45, 5.07 0.83 C5.52 1.21, 6.09 1.1, 6.2 1.51 C6.3 1.92, 6.12 2.79, 5.7 3.28 C5.28 3.78, 4.29 4.3, 3.68 4.46 C3.07 4.63, 2.54 4.48, 2.06 4.29 C1.58 4.1, 1.12 3.76, 0.8 3.34 C0.47 2.92, 0.1 2.42, 0.11 1.77 C0.13 1.12, 0.33 -0.25, 0.9 -0.58 C1.48 -0.9, 2.92 -0.2, 3.57 -0.17 C4.23 -0.14, 4.8 -0.5, 4.84 -0.4 M2.87 0.7 C3.26 0.62, 3.71 -0.21, 4.28 -0.1 C4.85 0.01, 5.87 1.07, 6.29 1.36 C6.7 1.66, 7 1.28, 6.77 1.68 C6.54 2.07, 5.78 3.51, 4.88 3.73 C3.98 3.95, 1.9 2.99, 1.36 3.01 C0.82 3.02, 1.73 3.94, 1.64 3.82 C1.55 3.7, 0.79 3.07, 0.8 2.3 C0.81 1.53, 1.26 -0.53, 1.7 -0.8 C2.13 -1.06, 3.21 0.46, 3.41 0.7 C3.61 0.95, 2.95 0.68, 2.91 0.65" stroke="#000000" stroke-width="1" fill="none"></path></g><g stroke-linecap="round" transform="translate(170.28135213389794 194.7576911143405) rotate(0 3.2509887852297084 1.9123463442527395)"><path d="M4.94 0.32 C5.36 0.66, 5.07 1.09, 5.41 1.54 C5.75 2, 7.2 2.87, 6.97 3.07 C6.73 3.27, 4.62 2.46, 4 2.74 C3.38 3.03, 3.89 4.85, 3.25 4.78 C2.61 4.7, 0.85 2.81, 0.17 2.3 C-0.51 1.8, -0.78 1.96, -0.84 1.73 C-0.91 1.5, -0.91 1.33, -0.2 0.92 C0.51 0.5, 2.34 -0.57, 3.4 -0.77 C4.46 -0.97, 5.78 -0.4, 6.16 -0.29 C6.54 -0.17, 5.95 -0.28, 5.65 -0.09 M4.26 1.26 C4.72 1.2, 5.25 0.11, 5.42 0.48 C5.59 0.85, 5.07 2.87, 5.27 3.48 C5.46 4.08, 6.75 3.97, 6.61 4.09 C6.46 4.22, 5.35 4.39, 4.4 4.22 C3.46 4.04, 1.7 3.55, 0.96 3.04 C0.21 2.54, 0.03 1.42, -0.07 1.17 C-0.17 0.92, -0.14 1.54, 0.35 1.54 C0.84 1.55, 2.21 1.29, 2.87 1.21 C3.54 1.14, 4.32 1.3, 4.36 1.09 C4.39 0.88, 2.82 0.01, 3.07 -0.04" stroke="none" stroke-width="0" fill="#000"></path><path d="M4.08 -0.38 C4.94 -0.38, 5.57 0.05, 6.01 0.4 C6.45 0.75, 6.61 1.19, 6.72 1.74 C6.83 2.29, 7.21 3.36, 6.68 3.7 C6.14 4.04, 4.2 3.81, 3.5 3.78 C2.8 3.75, 2.91 3.66, 2.47 3.54 C2.02 3.42, 1.24 3.45, 0.82 3.06 C0.4 2.68, -0.2 1.77, -0.04 1.24 C0.13 0.7, 1.11 0.1, 1.82 -0.15 C2.52 -0.39, 3.59 -0.3, 4.21 -0.26 C4.84 -0.22, 5.56 0.14, 5.55 0.1 M1.08 -0.41 C1.84 -0.99, 3.25 -1.23, 3.98 -1.22 C4.72 -1.21, 5.27 -1.19, 5.51 -0.38 C5.74 0.43, 5.26 3.05, 5.4 3.65 C5.54 4.25, 6.82 3.18, 6.34 3.23 C5.86 3.28, 3.44 3.68, 2.53 3.93 C1.61 4.19, 1.29 5.03, 0.86 4.75 C0.43 4.47, 0.24 2.96, -0.03 2.26 C-0.3 1.56, -1.1 0.92, -0.76 0.54 C-0.42 0.16, 1.56 -0.11, 2.01 -0.04 C2.47 0.02, 1.77 0.76, 1.96 0.93" stroke="#000000" stroke-width="1" fill="none"></path></g></svg>