<svg version="1.1" xmlns="http://www.w3.org/2000/svg" viewBox="0 0 966.9603549656067 547.0363245430619" width="966.9603549656067" height="547.0363245430619" filter="invert(93%) hue-rotate(180deg)">
  <!-- svg-source:excalidraw -->
  
  <defs>
    <style class="style-fonts">
      @font-face {
        font-family: "Virgil";
        src: url("https://excalidraw.com/Virgil.woff2");
      }
      @font-face {
        font-family: "Cascadia";
        src: url("https://excalidraw.com/Cascadia.woff2");
      }
    </style>
  </defs>
  <g stroke-linecap="round" transform="translate(10 10) rotate(0 99.08812260536399 96.5)"><path d="M0.5 -1.85 C47.13 -1.72, 93.15 -1.71, 199.2 0.11 M-0.26 -0.32 C54.95 -0.4, 107.59 -0.76, 198.48 -0.49 M198.11 0.91 C197.69 64.36, 198.01 127.92, 197.52 192.87 M197.79 -0.04 C197.92 65.27, 197.78 128.72, 198.5 192.58 M197.03 191.97 C152.14 191.08, 102.57 191.66, -0.03 191.31 M197.66 193.31 C137.42 194.52, 77.83 194.64, 0.34 192.04 M0.47 191.14 C2.48 124, 3.24 54.75, 0.89 0.19 M-0.65 193.52 C2.06 118.4, 1.88 44.16, -0.23 -0.04" stroke="#000000" stroke-width="1" fill="none"></path></g><g transform="translate(-5 85) rotate(270 56.5 22.5)"><text x="0" y="32" font-family="Virgil, Segoe UI Emoji" font-size="36px" fill="#000000" text-anchor="start" style="white-space: pre;" direction="ltr">Esp32</text></g><g transform="translate(141 37) rotate(0 25 12.5)"><text x="0" y="18" font-family="Virgil, Segoe UI Emoji" font-size="20px" fill="#000000" text-anchor="start" style="white-space: pre;" direction="ltr">SCLK</text></g><g transform="translate(141 73.5) rotate(0 27 12.5)"><text x="0" y="18" font-family="Virgil, Segoe UI Emoji" font-size="20px" fill="#000000" text-anchor="start" style="white-space: pre;" direction="ltr">MOSI</text></g><g transform="translate(142 110.5) rotate(0 27 12.5)"><text x="0" y="18" font-family="Virgil, Segoe UI Emoji" font-size="20px" fill="#000000" text-anchor="start" style="white-space: pre;" direction="ltr">MISO</text></g><g transform="translate(163 149.5) rotate(0 12.5 12.5)"><text x="0" y="18" font-family="Virgil, Segoe UI Emoji" font-size="20px" fill="#000000" text-anchor="start" style="white-space: pre;" direction="ltr">SS</text></g><g stroke-linecap="round" transform="translate(575 10) rotate(0 110.5 95)"><path d="M-0.71 -0.73 C55.3 0.05, 108.37 -1.1, 220.32 1.21 M0.54 0.62 C77.96 -2.18, 155.01 -0.75, 221.49 0.01 M220.47 1.79 C218.72 62.85, 221.65 128.11, 219.49 189.83 M221.24 -0.11 C218.7 74.68, 219.04 150.89, 221.71 190.76 M220.28 190.39 C141.92 191.87, 62.41 190.5, 0.81 190.56 M220.83 189.36 C160.08 188.68, 99.43 189.59, 0.11 189.23 M-0.85 189.79 C-3.44 134.4, -0.01 79.22, -0.38 1.62 M0.26 189.02 C-1.36 141.47, -1.92 90.41, -0.61 0.47" stroke="#000000" stroke-width="1" fill="none"></path></g><g transform="translate(582.5 39.25) rotate(0 25 12.5)"><text x="0" y="18" font-family="Virgil, Segoe UI Emoji" font-size="20px" fill="#000000" text-anchor="start" style="white-space: pre;" direction="ltr">SCLK</text></g><g transform="translate(582.5 75.75) rotate(0 27 12.5)"><text x="0" y="18" font-family="Virgil, Segoe UI Emoji" font-size="20px" fill="#000000" text-anchor="start" style="white-space: pre;" direction="ltr">MOSI</text></g><g transform="translate(583.5 112.75) rotate(0 27 12.5)"><text x="0" y="18" font-family="Virgil, Segoe UI Emoji" font-size="20px" fill="#000000" text-anchor="start" style="white-space: pre;" direction="ltr">MISO</text></g><g transform="translate(588.5 150.75) rotate(0 12.5 12.5)"><text x="0" y="18" font-family="Virgil, Segoe UI Emoji" font-size="20px" fill="#000000" text-anchor="start" style="white-space: pre;" direction="ltr">SS</text></g><g transform="translate(713 81) rotate(270 47.5 22.5)"><text x="0" y="32" font-family="Virgil, Segoe UI Emoji" font-size="36px" fill="#000000" text-anchor="start" style="white-space: pre;" direction="ltr">Slave</text></g><g stroke-linecap="round"><g transform="translate(573 45) rotate(0 -182.52576331461967 -0.17927728682411725)"><path d="M0.42 -0.93 C-91.47 -1.3, -183.33 -2.65, -365.27 1.11 M-0.62 0.39 C-144.06 0.87, -288.44 0.64, -365.47 -0.26" stroke="#000000" stroke-width="1" fill="none"></path></g></g><mask></mask><g stroke-linecap="round"><g transform="translate(209 84) rotate(0 182.47716142829995 -0.9935749111114092)"><path d="M-0.48 -0.04 C82.22 -2.44, 164.43 -2.58, 364.52 -0.6 M-0.15 -0.16 C141.17 -1.04, 282.93 -0.87, 365.43 -0.01" stroke="#000000" stroke-width="1" fill="none"></path></g></g><mask></mask><g stroke-linecap="round"><g transform="translate(211 124) rotate(0 181.44378167795236 0.8447623321892479)"><path d="M0.78 -0.26 C120.99 2.94, 240.08 2.09, 363.06 0.73 M-0.17 -0.22 C131.48 2.37, 264.54 2.16, 362.52 0.38" stroke="#000000" stroke-width="1" fill="none"></path></g></g><mask></mask><g stroke-linecap="round"><g transform="translate(320.8711020307412 292.9168497471526) rotate(0 22.37507366404475 12.765730282604977)"><path d="M-1.39 1.86 C11.44 5.67, 22.23 12.63, 46.14 24.79 M0.47 0.37 C14.02 9.14, 29.57 17.15, 46.06 25.17" stroke="#000000" stroke-width="1" fill="none"></path></g></g><mask></mask><g stroke-linecap="round"><g transform="translate(524.9540072821346 319.29541814733864) rotate(0 97.95007498962048 28.63309494743868)"><path d="M-0.18 1.6 C53.63 2.06, 101.73 0.9, 164.4 -1.45 M-0.73 -0.89 C63.85 0.85, 129.38 0.03, 165.82 -0.43 M164.15 1.22 C167.48 12.21, 167.7 26.06, 167.5 58.33 M165.53 0.88 C164.64 21.03, 165.41 43.73, 166.42 56.37 M167.52 57.73 C173.79 55.06, 185.12 58.02, 196.28 56.24 M166.26 57.66 C175.53 55.98, 184.81 56.77, 194.16 56.08 M196.63 58.72 C178.12 58.01, 163.02 56.35, 140.1 55.4 M194.79 57.61 C175.6 56.13, 157.55 55.75, 142.12 56.8" stroke="#000000" stroke-width="1" fill="none"></path></g></g><mask></mask><g stroke-linecap="round"><g transform="translate(667.5019774144366 390.18782072283875) rotate(0 28.942425145170546 22.699598738288103)"><path d="M1.37 -0.34 C15.76 2.32, 28.15 0.84, 55.58 1.29 M-0.85 -0.13 C20.44 0.63, 39.99 0.81, 54.17 -0.06 M54.47 1.13 C47.03 1.54, 37.19 -1.15, 25.02 1.3 M54.5 -0.61 C45.34 0.12, 36.54 -0.8, 25.75 0.41 M24.98 -0.48 C25.02 13.06, 26 30, 25.28 45.34 M26.94 0.78 C25.56 13.12, 26.25 25.29, 25.48 44.58 M25.16 46.01 C13.05 44.12, 2.13 45.99, -5.9 43.04 M25.53 44.5 C14.75 43.9, 4.51 44.49, -6.33 44.15 M-6.29 44.77 C15.31 45.5, 34.35 43.77, 64.51 44.02 M-6.62 43.77 C19.49 44.57, 44.07 44.65, 63.33 43.72" stroke="#000000" stroke-width="1" fill="none"></path></g></g><mask></mask><g stroke-linecap="round"><g transform="translate(598.5168688921694 418.5019308329504) rotate(0 10.34612358770471 19.356511076372726)"><path d="M-0.55 1.19 C3.08 -0.24, 7.8 -0.72, 19.7 1.87 M0.8 0.95 C6.33 0.31, 12.28 -0.36, 21.25 0.31 M18.99 1.22 C18.69 8.54, 20.2 16.97, 20.93 37.75 M19.7 -0.17 C21.05 8.53, 21.72 16.9, 20.13 37.86 M19.67 38.05 C14.21 37.3, 8.72 36.9, 2.56 35.96 M20.9 36.87 C14.19 36.92, 6.75 38.23, 2.11 37.56 M-0.06 38.89 C-0.38 27.36, 1.79 19.01, 1.52 2.53 M2.09 36.84 C1.77 28.24, 1.14 17.65, 1.1 1.9" stroke="#000000" stroke-width="1" fill="none"></path></g></g><mask></mask><g stroke-linecap="round"><g transform="translate(610.3672133866764 456.32563312363686) rotate(0 4.311322409402919 22.928398551734688)"><path d="M-0.13 -1.32 C-0.85 9.03, 1.11 20.61, 1.47 45.61 M0.39 0.78 C1.07 10.54, 0.43 23.11, 0.05 45.19 M-1.94 44 C5.39 44.18, 15.87 44.52, 23.97 44.59 M-0.89 44.86 C6.21 46.36, 14.15 44.96, 22.81 44.93 M22.66 44.03 C11.26 44.44, -1.94 46.33, -15.05 47.18 M22.55 46.28 C12.84 44.76, 5.07 44.96, -15.34 46.34" stroke="#000000" stroke-width="1" fill="none"></path></g></g><mask></mask><g stroke-linecap="round"><g transform="translate(25.7043490948696 424.01623204257965) rotate(0 47.261098746609264 -11.716836943565227)"><path d="M1.9 -1 C5.66 0.3, 14.16 -1.53, 23.07 1.14 M-0.4 -0.82 C7.52 -0.54, 14.1 -0.08, 21.97 -0.42 M23.25 -0.96 C22.14 -7.19, 22.09 -17.19, 21.16 -24.99 M22.57 -0.47 C22.49 -7.17, 21.04 -14.3, 22.37 -26.11 M22.21 -26.61 C28.8 -27.37, 33.61 -25.89, 47.79 -26.86 M21.44 -26.44 C27.68 -26.31, 35.19 -25.92, 46.58 -26.41 M44.7 -25.59 C48.05 -13.33, 45.58 -2.74, 46.31 4.38 M45.82 -25.3 C45.96 -17.99, 46.15 -10.86, 46.38 3.37 M48.06 4.49 C52.05 1.22, 55.45 2.85, 69.23 2.9 M45.74 3.63 C54.56 2.48, 62.27 4.03, 69.46 3.73 M69.76 4.32 C69.41 -7.6, 69.01 -18.01, 70 -26.36 M69.67 2.33 C68.36 -6.56, 68.98 -14.75, 68.63 -27.9 M67.22 -25.6 C79.66 -28.73, 89.4 -27.57, 94.88 -27.92 M69.68 -26.79 C76.4 -27.57, 82.13 -28.15, 94.92 -27.72" stroke="#1864ab" stroke-width="1" fill="none"></path></g></g><mask></mask><g stroke-linecap="round"><g transform="translate(366.83296485458004 318.59502235218804) rotate(0 11.730902390283632 0.5295837599246624)"><path d="M-0.75 -0.86 C3.43 -1.02, 20.02 -0.13, 24.21 0.13 M1.06 1.3 C5.15 1.87, 19.41 2.16, 23.16 1.74" stroke="#000000" stroke-width="1" fill="none"></path></g></g><mask></mask><g stroke-linecap="round"><g transform="translate(391.2319437422816 320.2216209447014) rotate(0 16.840338968971878 7.006827011298412)"><path d="M0.83 -0.4 C4.05 1.89, 14.51 14.7, 20.02 14.58 C25.53 14.47, 31.83 1.62, 33.88 -1.08 M-0.2 -1.66 C2.85 0.68, 13.7 15.33, 19.34 15.66 C24.97 15.99, 31.46 3.04, 33.6 0.31" stroke="#000000" stroke-width="1" fill="none"></path></g></g><mask></mask><g stroke-linecap="round"><g transform="translate(425.74496988570377 319.65220123225276) rotate(0 16.613125921662117 6.90450071633785)"><path d="M-0.85 0.72 C2.57 3.16, 14.49 14.91, 20.31 14.5 C26.13 14.09, 31.84 0.75, 34.08 -1.73 M0.9 0.05 C4.26 2.63, 14.28 15.66, 19.78 15.54 C25.28 15.42, 31.47 2.33, 33.91 -0.68" stroke="#000000" stroke-width="1" fill="none"></path></g></g><mask></mask><g stroke-linecap="round"><g transform="translate(460.6267368912529 318.2366112777438) rotate(0 16.27212197462302 7.4784475737703815)"><path d="M0.31 0.56 C3.72 3.3, 15.06 16.2, 20.59 15.94 C26.13 15.68, 31.29 1.84, 33.53 -0.99 M-0.99 -0.19 C2.35 2.23, 14.53 13.97, 20.21 14.08 C25.89 14.18, 31.25 2.76, 33.08 0.45" stroke="#000000" stroke-width="1" fill="none"></path></g></g><mask></mask><g stroke-linecap="round"><g transform="translate(493.09794108115557 319.0024415652414) rotate(0 15.781939223801828 7.585915566248275)"><path d="M0.37 -0.95 C3.56 1.71, 13.64 15.31, 18.99 15.46 C24.34 15.6, 30.25 2.51, 32.46 -0.09 M-0.9 1.17 C2.11 4.07, 12.37 17.5, 17.76 17 C23.15 16.5, 29.05 1.34, 31.45 -1.84" stroke="#000000" stroke-width="1" fill="none"></path></g></g><mask></mask><g stroke-linecap="round"><g transform="translate(396.938111747392 343.0073979350925) rotate(0 64.9141692732801 -0.7232455813609135)"><path d="M-0.29 -1.15 C48.6 -1.09, 96.48 -2.03, 130.12 -0.88 M-0.04 0.01 C31.71 -1.09, 64.33 -2.18, 129 -0.82" stroke="#000000" stroke-width="1" fill="none"></path></g></g><mask></mask><g stroke-linecap="round"><g transform="translate(397.78673013496064 349.4669614432564) rotate(0 64.11286588659186 -0.5643128739573058)"><path d="M-1.63 -1.43 C47.6 -1.41, 98.31 -2.1, 129.86 -0.04 M-0.38 -0.39 C39.51 -0.02, 80.46 1.34, 129.22 -0.71" stroke="#000000" stroke-width="1" fill="none"></path></g></g><mask></mask><g stroke-linecap="round"><g transform="translate(495.3788914842755 360.89453685588) rotate(180 16.734760725514207 6.630772421888537)"><path d="M0.54 -0.92 C3.96 1.38, 15.22 14.71, 20.43 14.75 C25.64 14.8, 29.77 1.97, 31.81 -0.64 M-0.64 1.22 C2.72 3.57, 14.17 16.57, 19.96 15.92 C25.76 15.27, 31.97 -0.08, 34.11 -2.68" stroke="#000000" stroke-width="1" fill="none"></path></g></g><mask></mask><g stroke-linecap="round"><g transform="translate(461.7379255655462 360.93908322623963) rotate(180 16.29873061316755 6.893209092933148)"><path d="M-0.92 0.91 C2.06 3.21, 13.08 14.72, 18.82 14.32 C24.56 13.92, 31.11 1.05, 33.51 -1.48 M0.8 0.35 C4.08 2.7, 15.79 15.37, 21.16 15.27 C26.54 15.16, 30.98 2.17, 33.05 -0.3" stroke="#000000" stroke-width="1" fill="none"></path></g></g><mask></mask><g stroke-linecap="round"><g transform="translate(426.8419493135207 361.0529447300687) rotate(180 16.305835236406097 7.54407331827332)"><path d="M0.91 -0.7 C3.89 2.12, 13.1 16.07, 18.39 16.03 C23.68 15.99, 30.19 2.04, 32.68 -0.94 M-0.07 1.55 C3.22 4.1, 15.2 14.38, 20.51 14.21 C25.81 14.04, 29.57 3.07, 31.77 0.52" stroke="#000000" stroke-width="1" fill="none"></path></g></g><mask></mask><g stroke-linecap="round"><g transform="translate(394.4637393604055 361.78641336918804) rotate(180 16.259338118012238 6.794423854964862)"><path d="M-0.7 -1.13 C2.8 1.25, 14.44 15.15, 20.09 15.19 C25.75 15.24, 31.18 1.96, 33.22 -0.87 M1.13 0.89 C4.61 3.37, 14.2 17.24, 19.45 16.59 C24.69 15.94, 30.47 -0.11, 32.6 -3.03" stroke="#000000" stroke-width="1" fill="none"></path></g></g><mask></mask><g stroke-linecap="round"><g transform="translate(527.7684265111334 374.4273420151428) rotate(0 39.50089781828035 22.159962742653875)"><path d="M-1.92 1.57 C20.87 0.82, 41.14 0.63, 78.94 -0.5 M0.48 0.42 C24.08 0.47, 47.03 -0.68, 80.57 0.79 M80.39 0.79 C80.6 9.74, 81.78 18.33, 79.73 44.82 M79.73 0.6 C79.99 12.87, 79.91 24.07, 80.08 44.13" stroke="#000000" stroke-width="1" fill="none"></path></g></g><mask></mask><g stroke-linecap="round"><g transform="translate(394.4862412586833 377.8851345570695) rotate(0 -139.5483353107045 18.777864237141557)"><path d="M-1.36 1.15 C-11.2 0.06, -19.87 0.13, -41.9 0.53 M-0.09 -0.43 C-15.31 -1.11, -29.23 -0.74, -43.49 -0.9 M-43.21 1.58 C-40.99 11.44, -42.12 24.62, -43.35 38.45 M-42.65 -0.07 C-42.03 9.25, -42.86 18.88, -42.24 37.09 M-44.22 37.86 C-97.28 35.45, -149.88 38.19, -278.09 35.67 M-42.67 36.66 C-101.34 37.42, -158.74 36.45, -279.01 37.01" stroke="#000000" stroke-width="1" fill="none"></path></g></g><mask></mask><g stroke-linecap="round"><g transform="translate(574.5199386498957 160.73173518125827) rotate(0 -15.165165848714878 80.02489568124281)"><path d="M0.37 -1.89 C-12.71 -1.45, -20.34 -0.91, -28.99 -1.27 M0.41 0.27 C-7.01 0.46, -13.74 -0.19, -28.47 0.18 M-26.83 -0.4 C-29.47 44.36, -30.23 88.14, -30.74 161.94 M-28.17 0.31 C-29.69 38.78, -29.58 78.9, -28.18 159.88" stroke="#000000" stroke-width="1" fill="none"></path></g></g><mask></mask><g stroke-linecap="round" transform="translate(543.8887703938419 316.1324908799688) rotate(0 1.6849801528550188 2.3742902153865657)"><path d="M0.23 0.2 C0.23 0.2, 0.23 0.2, 0.23 0.2 M0.23 0.2 C0.23 0.2, 0.23 0.2, 0.23 0.2 M2.07 4.26 C2.43 3.79, 3.21 2.84, 3.83 2.17 M1.9 4.46 C2.71 3.34, 3.46 2.48, 3.92 1.96" stroke="#000000" stroke-width="0.5" fill="none"></path><path d="M2.65 -0.03 C3.01 -0.03, 2.85 0.28, 2.95 0.64 C3.05 1, 3.41 1.53, 3.25 2.15 C3.09 2.76, 2.34 4.05, 1.98 4.32 C1.62 4.59, 1.31 3.74, 1.09 3.78 C0.86 3.81, 0.94 4.75, 0.64 4.55 C0.33 4.34, -0.73 3, -0.73 2.54 C-0.72 2.09, 0.54 2.14, 0.66 1.79 C0.79 1.44, -0.36 0.61, 0.03 0.44 C0.42 0.27, 2.48 0.8, 2.98 0.77 C3.49 0.74, 3.18 0.4, 3.06 0.27 M3.51 0.85 C3.95 1.21, 3.55 1.93, 3.65 2.18 C3.75 2.42, 4.26 1.73, 4.09 2.31 C3.92 2.89, 3.03 5.06, 2.61 5.67 C2.19 6.28, 2.13 5.99, 1.55 5.98 C0.97 5.96, -0.39 6.31, -0.85 5.58 C-1.32 4.85, -1.4 2.22, -1.24 1.59 C-1.07 0.96, -0.02 1.84, 0.13 1.8 C0.28 1.76, -0.81 1.41, -0.32 1.36 C0.17 1.31, 2.86 1.67, 3.09 1.49 C3.32 1.3, 1.03 0.6, 1.08 0.24" stroke="#000000" stroke-width="1" fill="none"></path></g><g stroke-linecap="round"><g transform="translate(308.1716287544032 319.8804059698624) rotate(0 -51.23949398801392 1.0581197315543136)"><path d="M0.56 1.71 C-39.58 -1.08, -78.87 1.16, -100.96 0.48 M-0.87 0.28 C-34.42 1.33, -69.27 0.45, -103.04 1.85" stroke="#000000" stroke-width="1" fill="none"></path></g></g><mask></mask><g stroke-linecap="round"><g transform="translate(342.76592323286354 306.3460640665926) rotate(0 -66.5785300679006 -72.24332356508421)"><path d="M-0.44 -1.67 C-0.9 -51.11, -0.58 -101.56, -1.99 -142.56 M-0.6 -0.45 C1.51 -55.65, 1.9 -112.8, 0.08 -143.29 M-0.57 -144.04 C-29.65 -142.54, -59.26 -142.34, -134.1 -141.85 M0.04 -141.94 C-49.51 -141.75, -99.44 -142.92, -134.4 -143.48" stroke="#000000" stroke-width="1" fill="none"></path></g></g><mask></mask><g transform="translate(161.6273750431376 307.81328718563793) rotate(0 18.5 12.5)"><text x="0" y="18" font-family="Virgil, Segoe UI Emoji" font-size="20px" fill="#000000" text-anchor="start" style="white-space: pre;" direction="ltr">VCC</text></g><g stroke-linecap="round" transform="translate(368.0349854566855 276.53216609260824) rotate(0 82.71060552923359 58.405296009678125)"><path d="M1.34 0.67 C53.57 0, 106.31 1.3, 165.79 -2 M167.18 0.39 C166.09 41.61, 164.98 86.87, 165.94 117.84 M163.69 118.36 C126.77 117.43, 84.25 116.63, -0.88 117.03 M0.64 118.66 C-2.5 70.43, 0.25 28.68, 0.99 -1.32" stroke="#2b8a3e" stroke-width="1.5" fill="none" stroke-dasharray="8 9"></path></g><g stroke-linecap="round" transform="translate(645.9135987698126 307.00449444548394) rotate(0 48.610619039110816 57.679764382228655)"><path d="M1.44 0.58 C28.93 -1.22, 56.15 -1.21, 98.09 0.78 M95.74 0.71 C97.53 34.69, 96.2 67.43, 96.57 113.66 M96.04 115.55 C68.8 116.21, 44.93 114.42, 1.54 114 M0.9 116.65 C-0.05 83.73, 2.03 53.75, 1.99 0.03" stroke="#2b8a3e" stroke-width="1.5" fill="none" stroke-dasharray="8 9"></path></g><g transform="translate(242.5180139079364 512.0363245430619) rotate(0 93.5 12.5)"><text x="0" y="18" font-family="Virgil, Segoe UI Emoji" font-size="20px" fill="#000000" text-anchor="start" style="white-space: pre;" direction="ltr">Parallele Leitungen</text></g><g stroke-linecap="round"><g transform="translate(350.6222263978998 497.0937808372312) rotate(0 23.26102316790457 -42.19138777679939)"><path d="M-1.87 -1.41 C17.74 -32.13, 36.1 -63.18, 48.39 -82.79 M-0.17 -0.71 C17.2 -31.02, 34.44 -60.58, 47.68 -83.67" stroke="#000000" stroke-width="1" fill="none"></path></g><g transform="translate(350.6222263978998 497.0937808372312) rotate(0 23.26102316790457 -42.19138777679939)"><path d="M40.63 -55.54 C44.31 -66.02, 46.42 -77.17, 47.47 -83.75 M42.33 -54.83 C44.48 -65.58, 46.05 -75.96, 46.76 -84.64" stroke="#000000" stroke-width="1" fill="none"></path></g><g transform="translate(350.6222263978998 497.0937808372312) rotate(0 23.26102316790457 -42.19138777679939)"><path d="M22.85 -65.78 C33.25 -72.57, 42.01 -79.88, 47.47 -83.75 M24.55 -65.08 C33.2 -72.28, 41.19 -78.96, 46.76 -84.64" stroke="#000000" stroke-width="1" fill="none"></path></g></g><mask></mask><g transform="translate(777.9603549656067 432.227845523626) rotate(0 89.5 12.5)"><text x="0" y="18" font-family="Virgil, Segoe UI Emoji" font-size="20px" fill="#000000" text-anchor="start" style="white-space: pre;" direction="ltr">Leitungskapazität</text></g><g stroke-linecap="round"><g transform="translate(817.8645944753248 428.16827622953656) rotate(0 -32.06031873981601 -18.160901325885106)"><path d="M-1.77 -0.53 C-18.24 -10.39, -38.41 -18.61, -63.48 -36.01 M-0.42 -0.32 C-17.81 -8.33, -35.28 -17.08, -63.7 -34.87" stroke="#000000" stroke-width="1" fill="none"></path></g><g transform="translate(817.8645944753248 428.16827622953656) rotate(0 -32.06031873981601 -18.160901325885106)"><path d="M-36.02 -29.65 C-42.66 -31.19, -52.79 -31.3, -62.61 -36.77 M-34.68 -29.44 C-42.62 -29.94, -50.83 -31.21, -62.83 -35.63" stroke="#000000" stroke-width="1" fill="none"></path></g><g transform="translate(817.8645944753248 428.16827622953656) rotate(0 -32.06031873981601 -18.160901325885106)"><path d="M-46.61 -12.07 C-50.09 -18.57, -57.19 -23.71, -62.61 -36.77 M-45.26 -11.85 C-50.52 -16.99, -55.93 -22.9, -62.83 -35.63" stroke="#000000" stroke-width="1" fill="none"></path></g></g><mask></mask></svg>