<?xml version="1.0" encoding="UTF-8" standalone="no"?>
<svg
   width="597.23798pt"
   height="391.02994pt"
   viewBox="0 0 597.238 391.02994"
   version="1.1"
   id="svg536"
   sodipodi:docname="BasicTransientInputOutputCurrent.svg"
   inkscape:version="1.2.2 (732a01da63, 2022-12-09)"
   xmlns:inkscape="http://www.inkscape.org/namespaces/inkscape"
   xmlns:sodipodi="http://sodipodi.sourceforge.net/DTD/sodipodi-0.dtd"
   xmlns:xlink="http://www.w3.org/1999/xlink"
   xmlns="http://www.w3.org/2000/svg"
   xmlns:svg="http://www.w3.org/2000/svg"
   xmlns:rdf="http://www.w3.org/1999/02/22-rdf-syntax-ns#"
   xmlns:cc="http://creativecommons.org/ns#"
   xmlns:dc="http://purl.org/dc/elements/1.1/">
  <sodipodi:namedview
     id="namedview538"
     pagecolor="#4a4a4a"
     bordercolor="#000000"
     borderopacity="0.25"
     inkscape:showpageshadow="2"
     inkscape:pageopacity="0"
     inkscape:pagecheckerboard="0"
     inkscape:deskcolor="#d1d1d1"
     inkscape:document-units="pt"
     showgrid="false"
     inkscape:zoom="1.3253593"
     inkscape:cx="574.18391"
     inkscape:cy="406.68216"
     inkscape:window-width="2560"
     inkscape:window-height="1377"
     inkscape:window-x="1912"
     inkscape:window-y="-8"
     inkscape:window-maximized="1"
     inkscape:current-layer="svg536" />
  <metadata
     id="metadata2">
    <rdf:RDF>
      <cc:Work>
        <dc:type
           rdf:resource="http://purl.org/dc/dcmitype/StillImage" />
        <dc:date>2023-02-27T16:07:53.315351</dc:date>
        <dc:format>image/svg+xml</dc:format>
        <dc:creator>
          <cc:Agent>
            <dc:title>Matplotlib v3.7.0, https://matplotlib.org/</dc:title>
          </cc:Agent>
        </dc:creator>
      </cc:Work>
    </rdf:RDF>
  </metadata>
  <defs
     id="defs6">
    <style
       type="text/css"
       id="style4">*{stroke-linejoin: round; stroke-linecap: butt}</style>
  </defs>
  <g
     id="matplotlib.axis_1"
     transform="translate(-56.61375,-55.5872)"
     style="fill:#000000">
    <g
       id="xtick_1"
       style="fill:#000000">
      <g
         id="line2d_1"
         style="fill:#000000">
        <defs
           id="defs15">
          <path
             id="m6921e3e808"
             d="M 0,0 V 3.5"
             style="stroke:#ffffff;stroke-width:0.8;fill:#ffffff" />
        </defs>
        <g
           id="g19"
           style="fill:#000000">
          <use
             xlink:href="#m6921e3e808"
             x="109.71082"
             y="415.2384"
             style="stroke:#ffffff;stroke-width:0.8;fill:#000000"
             id="use17" />
        </g>
      </g>
      <g
         id="text_1"
         style="fill:#000000">
        <!-- 0.0 -->
        <g
           transform="matrix(0.1,0,0,-0.1,101.75926,429.83684)"
           id="g32"
           style="fill:#000000">
          <defs
             id="defs24">
            <path
               id="DejaVuSans-30"
               d="m 2034,4250 q -487,0 -733,-480 -245,-479 -245,-1442 0,-959 245,-1439 246,-480 733,-480 491,0 736,480 246,480 246,1439 0,963 -246,1442 -245,480 -736,480 z m 0,500 q 785,0 1199,-621 414,-620 414,-1801 0,-1178 -414,-1799 -414,-620 -1199,-620 -784,0 -1198,620 -414,621 -414,1799 0,1181 414,1801 414,621 1198,621 z"
               transform="scale(0.015625)"
               style="fill:#ffffff" />
            <path
               id="DejaVuSans-2e"
               d="m 684,794 h 660 V 0 H 684 Z"
               transform="scale(0.015625)"
               style="fill:#ffffff" />
          </defs>
          <use
             xlink:href="#DejaVuSans-30"
             id="use26"
             style="fill:#000000" />
          <use
             xlink:href="#DejaVuSans-2e"
             x="63.623047"
             id="use28"
             style="fill:#000000" />
          <use
             xlink:href="#DejaVuSans-30"
             x="95.410156"
             id="use30"
             style="fill:#000000" />
        </g>
      </g>
    </g>
    <g
       id="xtick_2"
       style="fill:#000000">
      <g
         id="line2d_2"
         style="fill:#000000">
        <g
           id="g38"
           style="fill:#000000">
          <use
             xlink:href="#m6921e3e808"
             x="190.11354"
             y="415.2384"
             style="stroke:#ffffff;stroke-width:0.8;fill:#000000"
             id="use36" />
        </g>
      </g>
      <g
         id="text_2"
         style="fill:#000000">
        <!-- 0.5 -->
        <g
           transform="matrix(0.1,0,0,-0.1,182.16198,429.83684)"
           id="g50"
           style="fill:#000000">
          <defs
             id="defs42">
            <path
               id="DejaVuSans-35"
               d="M 691,4666 H 3169 V 4134 H 1269 V 2991 q 137,47 274,70 138,23 276,23 781,0 1237,-428 457,-428 457,-1159 Q 3513,744 3044,326 2575,-91 1722,-91 1428,-91 1123,-41 819,9 494,109 v 635 q 281,-153 581,-228 300,-75 634,-75 541,0 856,284 316,284 316,772 0,487 -316,771 -315,285 -856,285 -253,0 -505,-56 -251,-56 -513,-175 z"
               transform="scale(0.015625)"
               style="fill:#ffffff" />
          </defs>
          <use
             xlink:href="#DejaVuSans-30"
             id="use44"
             style="fill:#000000" />
          <use
             xlink:href="#DejaVuSans-2e"
             x="63.623047"
             id="use46"
             style="fill:#000000" />
          <use
             xlink:href="#DejaVuSans-35"
             x="95.410156"
             id="use48"
             style="fill:#000000" />
        </g>
      </g>
    </g>
    <g
       id="xtick_3"
       style="fill:#000000">
      <g
         id="line2d_3"
         style="fill:#000000">
        <g
           id="g56"
           style="fill:#000000">
          <use
             xlink:href="#m6921e3e808"
             x="270.51627"
             y="415.2384"
             style="stroke:#ffffff;stroke-width:0.8;fill:#000000"
             id="use54" />
        </g>
      </g>
      <g
         id="text_3"
         style="fill:#000000">
        <!-- 1.0 -->
        <g
           transform="matrix(0.1,0,0,-0.1,262.56471,429.83684)"
           id="g68"
           style="fill:#000000">
          <defs
             id="defs60">
            <path
               id="DejaVuSans-31"
               d="M 794,531 H 1825 V 4091 L 703,3866 v 575 l 1116,225 h 631 V 531 H 3481 V 0 H 794 Z"
               transform="scale(0.015625)"
               style="fill:#ffffff" />
          </defs>
          <use
             xlink:href="#DejaVuSans-31"
             id="use62"
             style="fill:#000000" />
          <use
             xlink:href="#DejaVuSans-2e"
             x="63.623047"
             id="use64"
             style="fill:#000000" />
          <use
             xlink:href="#DejaVuSans-30"
             x="95.410156"
             id="use66"
             style="fill:#000000" />
        </g>
      </g>
    </g>
    <g
       id="xtick_4"
       style="fill:#000000">
      <g
         id="line2d_4"
         style="fill:#000000">
        <g
           id="g74"
           style="fill:#000000">
          <use
             xlink:href="#m6921e3e808"
             x="350.91901"
             y="415.2384"
             style="stroke:#ffffff;stroke-width:0.8;fill:#000000"
             id="use72" />
        </g>
      </g>
      <g
         id="text_4"
         style="fill:#000000">
        <!-- 1.5 -->
        <g
           transform="matrix(0.1,0,0,-0.1,342.96744,429.83684)"
           id="g83"
           style="fill:#000000">
          <use
             xlink:href="#DejaVuSans-31"
             id="use77"
             style="fill:#000000" />
          <use
             xlink:href="#DejaVuSans-2e"
             x="63.623047"
             id="use79"
             style="fill:#000000" />
          <use
             xlink:href="#DejaVuSans-35"
             x="95.410156"
             id="use81"
             style="fill:#000000" />
        </g>
      </g>
    </g>
    <g
       id="xtick_5"
       style="fill:#000000">
      <g
         id="line2d_5"
         style="fill:#000000">
        <g
           id="g89"
           style="fill:#000000">
          <use
             xlink:href="#m6921e3e808"
             x="431.32172"
             y="415.2384"
             style="stroke:#ffffff;stroke-width:0.8;fill:#000000"
             id="use87" />
        </g>
      </g>
      <g
         id="text_5"
         style="fill:#000000">
        <!-- 2.0 -->
        <g
           transform="matrix(0.1,0,0,-0.1,423.37016,429.83684)"
           id="g101"
           style="fill:#000000">
          <defs
             id="defs93">
            <path
               id="DejaVuSans-32"
               d="M 1228,531 H 3431 V 0 H 469 v 531 q 359,372 979,998 621,627 780,809 303,340 423,576 121,236 121,464 0,372 -261,606 -261,235 -680,235 -297,0 -627,-103 -329,-103 -704,-313 v 638 q 381,153 712,231 332,78 607,78 725,0 1156,-363 431,-362 431,-968 0,-288 -108,-546 -107,-257 -392,-607 -78,-91 -497,-524 Q 1991,1309 1228,531 Z"
               transform="scale(0.015625)"
               style="fill:#ffffff" />
          </defs>
          <use
             xlink:href="#DejaVuSans-32"
             id="use95"
             style="fill:#000000" />
          <use
             xlink:href="#DejaVuSans-2e"
             x="63.623047"
             id="use97"
             style="fill:#000000" />
          <use
             xlink:href="#DejaVuSans-30"
             x="95.410156"
             id="use99"
             style="fill:#000000" />
        </g>
      </g>
    </g>
    <g
       id="xtick_6"
       style="fill:#000000">
      <g
         id="line2d_6"
         style="fill:#000000">
        <g
           id="g107"
           style="fill:#000000">
          <use
             xlink:href="#m6921e3e808"
             x="511.72446"
             y="415.2384"
             style="stroke:#ffffff;stroke-width:0.8;fill:#000000"
             id="use105" />
        </g>
      </g>
      <g
         id="text_6"
         style="fill:#000000">
        <!-- 2.5 -->
        <g
           transform="matrix(0.1,0,0,-0.1,503.77289,429.83684)"
           id="g116"
           style="fill:#000000">
          <use
             xlink:href="#DejaVuSans-32"
             id="use110"
             style="fill:#000000" />
          <use
             xlink:href="#DejaVuSans-2e"
             x="63.623047"
             id="use112"
             style="fill:#000000" />
          <use
             xlink:href="#DejaVuSans-35"
             x="95.410156"
             id="use114"
             style="fill:#000000" />
        </g>
      </g>
    </g>
    <g
       id="xtick_7"
       style="fill:#000000">
      <g
         id="line2d_7"
         style="fill:#000000">
        <g
           id="g122"
           style="fill:#000000">
          <use
             xlink:href="#m6921e3e808"
             x="592.1272"
             y="415.2384"
             style="stroke:#ffffff;stroke-width:0.8;fill:#000000"
             id="use120" />
        </g>
      </g>
      <g
         id="text_7"
         style="fill:#000000">
        <!-- 3.0 -->
        <g
           transform="matrix(0.1,0,0,-0.1,584.17562,429.83684)"
           id="g134"
           style="fill:#000000">
          <defs
             id="defs126">
            <path
               id="DejaVuSans-33"
               d="m 2597,2516 q 453,-97 707,-404 255,-306 255,-756 0,-690 -475,-1069 -475,-378 -1350,-378 -293,0 -604,58 -311,58 -642,174 v 609 q 262,-153 574,-231 313,-78 654,-78 593,0 904,234 311,234 311,681 0,413 -289,645 -289,233 -804,233 h -544 v 519 h 569 q 465,0 712,186 247,186 247,536 0,359 -255,551 -254,193 -729,193 -260,0 -557,-57 -297,-56 -653,-174 v 562 q 360,100 674,150 314,50 592,50 719,0 1137,-327 419,-326 419,-882 0,-388 -222,-655 -222,-267 -631,-370 z"
               transform="scale(0.015625)"
               style="fill:#ffffff" />
          </defs>
          <use
             xlink:href="#DejaVuSans-33"
             id="use128"
             style="fill:#000000" />
          <use
             xlink:href="#DejaVuSans-2e"
             x="63.623047"
             id="use130"
             style="fill:#000000" />
          <use
             xlink:href="#DejaVuSans-30"
             x="95.410156"
             id="use132"
             style="fill:#000000" />
        </g>
      </g>
    </g>
    <g
       id="text_8"
       style="fill:#000000">
      <!-- Time [ms] -->
      <g
         transform="matrix(0.12,0,0,-0.12,320.67994,445.03465)"
         id="g166"
         style="fill:#000000">
        <defs
           id="defs146">
          <path
             id="DejaVuSans-54"
             d="M -19,4666 H 3928 V 4134 H 2272 V 0 H 1638 V 4134 H -19 Z"
             transform="scale(0.015625)"
             style="fill:#ffffff" />
          <path
             id="DejaVuSans-69"
             d="m 603,3500 h 575 V 0 H 603 Z m 0,1363 h 575 V 4134 H 603 Z"
             transform="scale(0.015625)"
             style="fill:#ffffff" />
          <path
             id="DejaVuSans-6d"
             d="m 3328,2828 q 216,388 516,572 300,184 706,184 547,0 844,-383 297,-382 297,-1088 V 0 h -578 v 2094 q 0,503 -179,746 -178,244 -543,244 -447,0 -707,-297 -259,-296 -259,-809 V 0 h -578 v 2094 q 0,506 -178,748 -178,242 -550,242 -441,0 -701,-298 -259,-298 -259,-808 V 0 H 581 v 3500 h 578 v -544 q 197,322 472,475 275,153 653,153 382,0 649,-194 267,-193 395,-562 z"
             transform="scale(0.015625)"
             style="fill:#ffffff" />
          <path
             id="DejaVuSans-65"
             d="M 3597,1894 V 1613 H 953 q 38,-594 358,-905 320,-311 892,-311 331,0 642,81 311,81 618,244 V 178 Q 3153,47 2828,-22 2503,-91 2169,-91 1331,-91 842,396 353,884 353,1716 q 0,859 464,1363 464,505 1252,505 706,0 1117,-455 411,-454 411,-1235 z m -575,169 q -6,471 -264,752 -258,282 -683,282 -481,0 -770,-272 -289,-272 -333,-766 z"
             transform="scale(0.015625)"
             style="fill:#ffffff" />
          <path
             id="DejaVuSans-20"
             transform="scale(0.015625)"
             d=""
             style="fill:#ffffff" />
          <path
             id="DejaVuSans-5b"
             d="M 550,4863 H 1875 V 4416 H 1125 V -397 h 750 V -844 H 550 Z"
             transform="scale(0.015625)"
             style="fill:#ffffff" />
          <path
             id="DejaVuSans-73"
             d="m 2834,3397 v -544 q -243,125 -506,187 -262,63 -544,63 -428,0 -642,-131 -214,-131 -214,-394 0,-200 153,-314 153,-114 616,-217 l 197,-44 q 612,-131 870,-370 258,-239 258,-667 0,-488 -386,-773 Q 2250,-91 1575,-91 1294,-91 989,-36 684,19 347,128 v 594 q 319,-166 628,-249 309,-82 613,-82 406,0 624,139 219,139 219,392 0,234 -158,359 -157,125 -692,241 l -200,47 q -534,112 -772,345 -237,233 -237,639 0,494 350,762 350,269 994,269 318,0 599,-47 282,-46 519,-140 z"
             transform="scale(0.015625)"
             style="fill:#ffffff" />
          <path
             id="DejaVuSans-5d"
             d="M 1947,4863 V -844 H 622 v 447 h 747 V 4416 H 622 v 447 z"
             transform="scale(0.015625)"
             style="fill:#ffffff" />
        </defs>
        <use
           xlink:href="#DejaVuSans-54"
           id="use148"
           style="fill:#000000" />
        <use
           xlink:href="#DejaVuSans-69"
           x="57.958984"
           id="use150"
           style="fill:#000000" />
        <use
           xlink:href="#DejaVuSans-6d"
           x="85.742188"
           id="use152"
           style="fill:#000000" />
        <use
           xlink:href="#DejaVuSans-65"
           x="183.1543"
           id="use154"
           style="fill:#000000" />
        <use
           xlink:href="#DejaVuSans-20"
           x="244.67773"
           id="use156"
           style="fill:#000000" />
        <use
           xlink:href="#DejaVuSans-5b"
           x="276.46484"
           id="use158"
           style="fill:#000000" />
        <use
           xlink:href="#DejaVuSans-6d"
           x="315.47852"
           id="use160"
           style="fill:#000000" />
        <use
           xlink:href="#DejaVuSans-73"
           x="412.89062"
           id="use162"
           style="fill:#000000" />
        <use
           xlink:href="#DejaVuSans-5d"
           x="464.99023"
           id="use164"
           style="fill:#000000" />
      </g>
    </g>
  </g>
  <g
     id="matplotlib.axis_2"
     transform="translate(-56.61375,-55.5872)"
     style="fill:#000000">
    <g
       id="ytick_1"
       style="fill:#000000">
      <g
         id="line2d_8"
         style="fill:#000000">
        <defs
           id="defs171">
          <path
             id="meaac484fb9"
             d="M 0,0 H -3.5"
             style="stroke:#ffffff;stroke-width:0.8;fill:#ffffff" />
        </defs>
        <g
           id="g175"
           style="fill:#000000">
          <use
             xlink:href="#meaac484fb9"
             x="85.589996"
             y="410.61401"
             style="stroke:#ffffff;stroke-width:0.8;fill:#000000"
             id="use173" />
        </g>
      </g>
      <g
         id="text_9"
         style="fill:#000000">
        <!-- 0 -->
        <g
           transform="matrix(0.1,0,0,-0.1,72.2275,414.41322)"
           id="g180"
           style="fill:#000000">
          <use
             xlink:href="#DejaVuSans-30"
             id="use178"
             style="fill:#000000" />
        </g>
      </g>
    </g>
    <g
       id="ytick_2"
       style="fill:#000000">
      <g
         id="line2d_9"
         style="fill:#000000">
        <g
           id="g186"
           style="fill:#000000">
          <use
             xlink:href="#meaac484fb9"
             x="85.589996"
             y="335.43686"
             style="stroke:#ffffff;stroke-width:0.8;fill:#000000"
             id="use184" />
        </g>
      </g>
      <g
         id="text_10"
         style="fill:#000000">
        <!-- 1 -->
        <g
           transform="matrix(0.1,0,0,-0.1,72.2275,339.23607)"
           id="g191"
           style="fill:#000000">
          <use
             xlink:href="#DejaVuSans-31"
             id="use189"
             style="fill:#000000" />
        </g>
      </g>
    </g>
    <g
       id="ytick_3"
       style="fill:#000000">
      <g
         id="line2d_10"
         style="fill:#000000">
        <g
           id="g197"
           style="fill:#000000">
          <use
             xlink:href="#meaac484fb9"
             x="85.589996"
             y="260.2597"
             style="stroke:#ffffff;stroke-width:0.8;fill:#000000"
             id="use195" />
        </g>
      </g>
      <g
         id="text_11"
         style="fill:#000000">
        <!-- 2 -->
        <g
           transform="matrix(0.1,0,0,-0.1,72.2275,264.05891)"
           id="g202"
           style="fill:#000000">
          <use
             xlink:href="#DejaVuSans-32"
             id="use200"
             style="fill:#000000" />
        </g>
      </g>
    </g>
    <g
       id="ytick_4"
       style="fill:#000000">
      <g
         id="line2d_11"
         style="fill:#000000">
        <g
           id="g208"
           style="fill:#000000">
          <use
             xlink:href="#meaac484fb9"
             x="85.589996"
             y="185.08253"
             style="stroke:#ffffff;stroke-width:0.8;fill:#000000"
             id="use206" />
        </g>
      </g>
      <g
         id="text_12"
         style="fill:#000000">
        <!-- 3 -->
        <g
           transform="matrix(0.1,0,0,-0.1,72.2275,188.88175)"
           id="g213"
           style="fill:#000000">
          <use
             xlink:href="#DejaVuSans-33"
             id="use211"
             style="fill:#000000" />
        </g>
      </g>
    </g>
    <g
       id="ytick_5"
       style="fill:#000000">
      <g
         id="line2d_12"
         style="fill:#000000">
        <g
           id="g219"
           style="fill:#000000">
          <use
             xlink:href="#meaac484fb9"
             x="85.589996"
             y="109.90538"
             style="stroke:#ffffff;stroke-width:0.8;fill:#000000"
             id="use217" />
        </g>
      </g>
      <g
         id="text_13"
         style="fill:#000000">
        <!-- 4 -->
        <g
           transform="matrix(0.1,0,0,-0.1,72.2275,113.7046)"
           id="g227"
           style="fill:#000000">
          <defs
             id="defs223">
            <path
               id="DejaVuSans-34"
               d="M 2419,4116 825,1625 h 1594 z m -166,550 h 794 V 1625 h 666 V 1100 H 3047 V 0 H 2419 V 1100 H 313 v 609 z"
               transform="scale(0.015625)"
               style="fill:#ffffff" />
          </defs>
          <use
             xlink:href="#DejaVuSans-34"
             id="use225"
             style="fill:#000000" />
        </g>
      </g>
    </g>
    <g
       id="text_14"
       style="fill:#000000">
      <!-- Voltage [V] -->
      <g
         transform="matrix(0,-0.12,-0.12,0,65.731875,268.81342)"
         id="g261"
         style="fill:#000000">
        <defs
           id="defs237">
          <path
             id="DejaVuSans-56"
             d="M 1831,0 50,4666 H 709 L 2188,738 3669,4666 h 656 L 2547,0 Z"
             transform="scale(0.015625)"
             style="fill:#ffffff" />
          <path
             id="DejaVuSans-6f"
             d="m 1959,3097 q -462,0 -731,-361 -269,-361 -269,-989 0,-628 267,-989 268,-361 733,-361 460,0 728,362 269,363 269,988 0,622 -269,986 -268,364 -728,364 z m 0,487 q 750,0 1178,-488 429,-487 429,-1349 Q 3566,888 3137,398 2709,-91 1959,-91 1206,-91 779,398 353,888 353,1747 q 0,862 426,1349 427,488 1180,488 z"
             transform="scale(0.015625)"
             style="fill:#ffffff" />
          <path
             id="DejaVuSans-6c"
             d="m 603,4863 h 575 V 0 H 603 Z"
             transform="scale(0.015625)"
             style="fill:#ffffff" />
          <path
             id="DejaVuSans-74"
             d="M 1172,4494 V 3500 H 2356 V 3053 H 1172 V 1153 q 0,-428 117,-550 117,-122 477,-122 h 590 V 0 H 1766 Q 1100,0 847,248 594,497 594,1153 V 3053 H 172 v 447 h 422 v 994 z"
             transform="scale(0.015625)"
             style="fill:#ffffff" />
          <path
             id="DejaVuSans-61"
             d="m 2194,1759 q -697,0 -966,-159 -269,-159 -269,-544 0,-306 202,-486 202,-179 548,-179 479,0 768,339 289,339 289,901 v 128 z m 1147,238 V 0 H 2766 V 531 Q 2569,213 2275,61 1981,-91 1556,-91 q -537,0 -855,302 -317,302 -317,808 0,590 395,890 396,300 1180,300 h 807 v 57 q 0,397 -261,614 -261,217 -733,217 -300,0 -585,-72 -284,-72 -546,-216 v 532 q 315,122 612,182 297,61 578,61 760,0 1135,-394 375,-393 375,-1193 z"
             transform="scale(0.015625)"
             style="fill:#ffffff" />
          <path
             id="DejaVuSans-67"
             d="m 2906,1791 q 0,625 -258,968 -257,344 -723,344 -462,0 -720,-344 -258,-343 -258,-968 0,-622 258,-966 258,-344 720,-344 466,0 723,344 258,344 258,966 z M 3481,434 q 0,-893 -397,-1329 -396,-436 -1215,-436 -303,0 -572,45 -269,45 -522,139 v 559 q 253,-137 500,-202 247,-66 503,-66 566,0 847,295 281,295 281,892 V 616 Q 2728,306 2450,153 2172,0 1784,0 1141,0 747,490 353,981 353,1791 q 0,812 394,1302 394,491 1037,491 388,0 666,-153 278,-153 456,-462 v 531 h 575 z"
             transform="scale(0.015625)"
             style="fill:#ffffff" />
        </defs>
        <use
           xlink:href="#DejaVuSans-56"
           id="use239"
           style="fill:#000000" />
        <use
           xlink:href="#DejaVuSans-6f"
           x="60.658203"
           id="use241"
           style="fill:#000000" />
        <use
           xlink:href="#DejaVuSans-6c"
           x="121.83984"
           id="use243"
           style="fill:#000000" />
        <use
           xlink:href="#DejaVuSans-74"
           x="149.62305"
           id="use245"
           style="fill:#000000" />
        <use
           xlink:href="#DejaVuSans-61"
           x="188.83203"
           id="use247"
           style="fill:#000000" />
        <use
           xlink:href="#DejaVuSans-67"
           x="250.11133"
           id="use249"
           style="fill:#000000" />
        <use
           xlink:href="#DejaVuSans-65"
           x="313.58789"
           id="use251"
           style="fill:#000000" />
        <use
           xlink:href="#DejaVuSans-20"
           x="375.11133"
           id="use253"
           style="fill:#000000" />
        <use
           xlink:href="#DejaVuSans-5b"
           x="406.89844"
           id="use255"
           style="fill:#000000" />
        <use
           xlink:href="#DejaVuSans-56"
           x="445.91211"
           id="use257"
           style="fill:#000000" />
        <use
           xlink:href="#DejaVuSans-5d"
           x="514.32031"
           id="use259"
           style="fill:#000000" />
      </g>
    </g>
  </g>
  <g
     id="line2d_13"
     transform="translate(-56.61375,-55.5872)">
    <path
       d="m 109.71082,222.67111 0.0182,-0.10667 7.91757,-45.77086 3.9448,-21.43865 3.29871,-16.72218 2.82677,-13.2305 2.57935,-11.04195 2.33078,-9.03524 2.14241,-7.448929 1.98657,-6.127089 1.84315,-4.980411 1.70324,-3.976496 1.5877,-3.149321 1.41863,-2.348835 1.34153,-1.810416 1.21849,-1.2941 1.1667,-0.923777 1.04897,-0.565633 1.04889,-0.313639 0.99965,-0.06398 0.9566,0.153437 1.00234,0.385884 1.03478,0.639382 1.08088,0.928212 1.20065,1.340935 1.29361,1.806432 1.37112,2.31914 1.44534,2.888081 1.58842,3.687966 1.72963,4.611893 1.804,5.449817 1.95702,6.619657 2.16181,8.12259 2.33199,9.65079 2.54736,11.50368 2.82363,13.79012 3.25189,17.02237 3.95808,21.98383 5.64463,32.76371 8.54728,49.52032 3.94912,21.52412 3.32574,16.92313 2.9012,13.62518 2.56717,11.02436 2.35603,9.16518 2.15418,7.51385 1.99187,6.1637 1.83929,4.9892 1.68378,3.95342 1.57905,3.15847 1.43341,2.39662 1.35555,1.84739 1.24165,1.33019 1.15761,0.92552 1.08123,0.58849 1.01836,0.30956 0.98517,0.0731 0.93374,-0.13637 1.02124,-0.37804 1.03591,-0.62718 1.15004,-0.98251 1.16762,-1.30368 1.2549,-1.74192 1.34061,-2.24634 1.47475,-2.92373 1.56516,-3.61112 1.72145,-4.56005 1.81263,-5.4456 2.00015,-6.74327 2.13581,-8.00591 2.36227,-9.7574 2.59857,-11.73199 2.85078,-13.93401 3.27007,-17.13581 3.93688,-21.88166 5.59967,-32.50728 8.50773,-49.29915 3.99852,-21.7989 3.29677,-16.77871 2.88575,-13.56452 2.59417,-11.14982 2.32954,-9.0717 2.17197,-7.587037 1.94558,-6.036575 1.8058,-4.928539 1.72142,-4.070693 1.58661,-3.1933 1.46295,-2.458444 1.36176,-1.862288 1.25891,-1.351309 1.16598,-0.93122 1.07914,-0.585705 1.01394,-0.3074 0.99385,-0.07247 0.99469,0.154489 1.00433,0.38611 1.06378,0.660581 1.08892,0.942947 1.21611,1.370104 1.30127,1.83312 1.36766,2.330416 1.48499,2.99145 1.56794,3.668495 1.57766,4.206312 1.77753,5.33818 1.95846,6.586576 2.14572,8.02027 2.35114,9.68823 2.42013,10.87152 2.84944,13.83794 3.17989,16.56716 3.85181,21.29995 5.37812,31.1274 9.33798,54.12214 3.9592,21.52803 3.27386,16.61092 2.87609,13.47137 2.55043,10.92452 2.34708,9.1074 2.11959,7.37947 2.00385,6.19138 1.83388,4.96434 1.6973,3.97397 1.5638,3.1177 1.45709,2.42508 1.34734,1.82346 1.23411,1.3125 1.15638,0.91661 1.07462,0.57846 1.0181,0.30416 0.94575,0.0695 1.0189,-0.15484 1.04691,-0.40702 1.03316,-0.64736 1.18203,-1.03864 1.1821,-1.35459 1.27283,-1.80844 1.36677,-2.34085 1.47845,-2.98967 1.57465,-3.69616 1.72859,-4.64915 1.79674,-5.46655 2.03126,-6.92497 2.16071,-8.18661 2.35836,-9.83332 2.55636,-11.62254 2.91507,-14.332 3.32,-17.49403 4.01252,-22.40204 6.21161,-36.16803 7.45933,-43.15402 4.02241,-21.94188 3.29658,-16.78773 2.85706,-13.44596 2.60111,-11.20072 2.3613,-9.20853 2.16874,-7.583123 1.97211,-6.121375 1.84986,-5.037997 1.7344,-4.080465 1.57113,-3.143233 1.49436,-2.490243 1.36298,-1.83951 1.24498,-1.3156 1.13252,-0.891601 1.09356,-0.58345 1.02879,-0.298829 0.99707,-0.05796 0.94862,0.156669 1.01817,0.397688 1.00039,0.62164 1.01998,0.868446 1.22104,1.349129 1.23131,1.69923 1.58132,2.674652 1.49556,3.030467 1.88606,4.499578 1.70261,4.692258 1.86331,5.795181 2.04994,7.136868 2.20575,8.51893 2.40516,10.208 2.68465,12.41874 2.93337,14.64842 3.35496,17.89419 4.24429,23.91822 7.44354,43.51148 5.84793,33.55999 3.91142,21.17906 3.24008,16.35622 2.82185,13.14788 2.56277,10.91414 2.30321,8.88126 2.14756,7.42392 1.97897,6.06252 1.82212,4.88937 1.69309,3.92553 1.56122,3.07721 1.44274,2.37061 1.33749,1.78495 1.20743,1.26614 1.16675,0.9095 1.07699,0.56395 1.00489,0.28667 0.99609,0.0555 0.95764,-0.16131 1.00915,-0.39752 1.07059,-0.67623 1.15154,-1.01855 1.18598,-1.36233 1.23903,-1.75971 1.36984,-2.34069 1.47976,-2.98731 1.56409,-3.66466 1.7283,-4.63924 1.83985,-5.59606 2.0162,-6.87723 2.16253,-8.1947 2.2945,-9.55674 2.59565,-11.7859 2.87281,-14.10933 3.27977,-17.25473 3.95209,-22.02774 5.81541,-33.81333 0.36147,-2.12353 v 0"
       clip-path="url(#pa83a2b1b10)"
       style="fill:none;stroke:#1f77b4;stroke-width:1.5;stroke-linecap:square"
       id="path265" />
  </g>
  <g
     id="line2d_14"
     transform="translate(-56.61375,-55.5872)">
    <path
       d="m 109.71082,254.87528 0.22879,-0.11104 0.81296,-1.73231 0.39267,-1.36988 1.78707,-8.40367 0.80719,-4.35629 1.20357,-6.66363 1.43766,-8.03441 6.17293,-33.85212 0.0495,0.0614 0.0294,-0.0807 0.55171,-3.18526 0.0212,0.0207 0.0255,0.0111 0.0293,-0.11193 0.34753,-2.10083 0.0237,0.0198 0.0254,-5.2e-4 0.0211,-0.078 0.55137,-3.12256 0.0101,0.006 0.0455,0.0337 0.0229,-0.0974 0.33959,-1.96491 0.025,0.0196 0.0303,-0.0268 0.009,-0.0398 0.55824,-3.03799 0.0154,0.006 0.0271,0.006 0.008,-0.0144 0.71296,-3.73984 0.23851,-1.22215 0.7067,-3.09234 0.055,-0.28049 0.30572,-1.67795 0.0872,-0.0666 0.3431,-1.8026 0.0137,0.009 0.0296,-0.011 0.29701,-1.56602 0.25663,-1.26493 0.11049,-0.2129 0.30839,-1.62533 0.0966,-0.17013 0.32047,-1.66367 0.0826,-0.13186 0.35056,-1.74291 0.0242,0.0152 0.0239,-0.0141 0.0223,-0.0866 0.33635,-1.699 0.0314,0.0488 0.0272,-0.009 0.98629,-4.3632 0.0366,0.0157 0.1195,-0.70862 1.29546,-4.92967 0.0753,-0.36446 0.25442,-1.0839 1.2983,-4.64219 0.0368,-0.0885 0.33401,-1.37048 0.0498,0.0218 0.0719,-0.35454 0.23218,-0.91107 0.25458,-0.96836 0.11603,-0.15907 0.20097,-0.62006 0.29755,-1.24584 0.12447,-0.20501 0.29447,-1.13224 0.0862,-0.0813 0.32544,-1.25801 0.037,0.0487 0.0242,0.0139 0.0306,-0.10247 0.28238,-1.05007 0.65124,-2.04835 0.0652,0.0733 0.51519,-1.68751 0.23078,-0.67403 0.26053,-0.66239 0.0353,0.0148 0.0464,-0.077 0.34767,-1.0815 0.0667,0.0728 0.0331,-0.1181 0.33121,-1.19321 0.0137,0.0195 0.055,0.12683 0.0478,-0.16163 0.0957,-0.45423 0.0723,0.13164 0.0422,-0.15314 0.10373,-0.61953 0.0677,0.16118 0.0449,-0.10517 0.11769,-0.59014 0.0571,0.17238 0.0143,0.005 0.0286,-0.0875 0.11818,-0.53203 0.0528,0.15336 0.009,0.0117 0.0384,-0.10074 0.11729,-0.68478 0.0613,0.17997 0.0515,-0.10705 0.10565,-0.5927 0.0618,0.17637 0.01,0.0214 0.0535,-0.14795 0.10018,-0.48857 0.0609,0.18102 0.0187,0.0265 0.042,-0.12983 0.11272,-0.61195 0.0769,0.15682 0.0967,-0.4703 0.0519,-0.21418 0.067,0.16847 0.0196,0.007 0.0273,-0.0822 0.11981,-0.533 0.0521,0.15155 0.02,0.0384 0.0504,-0.13615 0.10618,-0.44354 0.0847,0.0662 0.38741,-1.09631 0.0344,0.0878 0.0386,0.0743 0.0449,-0.12728 0.11194,-0.43023 0.0592,0.16899 0.0245,0.021 0.0337,-0.0962 0.36089,-1.05616 0.1176,0.0834 0.0221,-0.0916 0.10937,-0.40656 0.0568,0.16058 0.0262,0.0225 0.0424,-0.13299 0.11035,-0.38573 0.0505,0.13765 0.0209,0.0465 0.0611,-0.12487 0.36512,-0.95144 0.003,0.002 0.058,0.13074 0.0668,-0.10157 0.11401,-0.42595 0.0675,0.16306 0.0321,0.004 0.0162,-0.0377 0.11942,-0.44039 0.0703,0.15246 0.0241,0.0339 0.0419,-0.0821 0.11238,-0.37077 0.065,0.15705 0.0289,0.0412 0.0413,-0.11096 0.13526,-0.52383 0.0526,0.16012 0.026,0.0226 0.0299,-0.0763 0.125,-0.51857 0.0641,0.17336 0.0149,0.0351 0.0607,-0.13247 0.10717,-0.40234 0.0599,0.16569 0.0272,0.0516 0.0577,-0.13667 0.10175,-0.34386 0.0563,0.14209 0.0242,0.0612 0.0699,-0.12818 0.0983,-0.29401 0.0571,0.14343 0.041,0.0634 0.0512,-0.11916 0.10322,-0.26116 0.0494,0.1175 0.0403,0.0734 0.0549,-0.10239 0.13623,-0.38964 0.0739,0.0897 0.0231,-0.0277 0.15493,-0.44602 0.0499,0.10201 0.0301,0.0399 0.041,-0.062 0.13827,-0.37325 0.0591,0.13186 0.0258,0.0265 0.0533,-0.10742 0.11676,-0.29515 0.0525,0.12216 0.0335,0.0491 0.0547,-0.10149 0.10808,-0.2762 0.0534,0.11435 0.0506,0.0653 0.0513,-0.10615 0.0956,-0.2223 0.0584,0.0934 0.0475,0.0741 0.0339,-0.0513 0.12309,-0.25012 0.0475,0.0914 0.0552,0.07 0.0527,-0.0855 0.1016,-0.17607 0.0459,0.0774 0.061,0.0745 0.0467,-0.075 0.0859,-0.16659 0.0566,0.0626 0.0653,0.0856 0.0537,-0.0768 0.1084,-0.1305 0.0381,0.068 0.0577,0.0598 0.0576,-0.0729 0.10136,-0.11637 0.0486,0.0793 0.0554,0.047 0.0491,-0.0603 0.0951,-0.12013 0.0533,0.0723 0.0499,0.0571 0.0591,-0.0554 0.10587,-0.10675 0.0382,0.054 0.0801,0.0528 0.0379,-0.0432 0.11118,-0.0859 0.0267,0.0353 0.0798,0.0604 0.0427,-0.0419 0.10734,-0.0844 0.0456,0.0615 0.0718,0.0304 0.049,-0.0506 0.0924,-0.0653 0.0377,0.0493 0.0719,0.0468 0.0557,-0.0482 0.099,-0.0606 0.0388,0.0489 0.0712,0.0388 0.0523,-0.0441 0.0893,-0.0631 0.0317,0.029 0.11232,0.0451 0.0245,-0.0218 0.11076,-0.0522 0.0395,0.0484 0.0923,0.0127 0.0331,-0.034 0.10959,-0.0243 0.0282,0.0377 0.11077,-0.009 0.0169,-0.017 0.10045,-0.0287 0.0335,0.0441 0.0945,0.009 0.0304,-0.0284 0.0917,-0.0407 0.0363,0.0445 0.13853,-0.0141 0.0906,-0.0325 0.0432,0.0513 0.10455,-0.003 0.0207,-0.0188 0.10007,-0.0271 0.0399,0.0471 0.12233,-0.0234 0.002,-0.002 0.1142,-0.01 0.0257,0.0315 0.11104,-0.0131 0.0142,-0.0132 0.11662,-0.006 0.0143,0.0162 0.10957,0.007 0.0132,-0.01 0.059,0.005 0.0222,0.0424 0.1148,0.21666 0.059,-0.0399 0.0822,0.0924 0.10158,0.13623 0.0589,-0.0268 0.0859,0.099 0.15371,0.0654 0.55617,0.31898 0.35454,0.25718 0.32297,0.37175 0.82197,0.73185 0.2883,0.43385 1.52887,1.91092 0.353,0.63916 0.1653,0.25342 0.33086,0.5315 0.48489,0.81538 0.21579,0.42941 0.4615,0.83882 0.13188,0.21358 0.36086,0.78884 0.28948,0.55405 0.31363,0.73441 0.22692,0.4031 0.13571,0.42272 1.00623,2.27245 0.86674,2.24337 0.40676,1.10329 4.12682,12.80681 0.4545,1.66946 1.08261,3.9474 0.2805,1.00775 2.51568,10.20274 1.3865,5.97388 1.10124,4.98154 0.94399,4.41861 4.52385,22.55781 4.38895,23.72764 1.17796,6.59469 1.30388,7.3742 3.8369,22.05773 1.12578,6.47885 1.09556,6.31495 1.61028,9.26634 0.9842,5.5931 1.11432,6.28211 1.1367,6.35186 1.42151,7.87925 2.7477,14.72592 6.10975,29.89087 2.40769,10.43157 1.25125,5.07986 0.45776,1.71739 0.29523,1.19529 0.96206,3.5665 4.16313,13.50304 0.38316,1.06397 1.42107,3.70878 0.12527,0.31428 0.30216,0.76191 1.32084,2.9953 1.60495,3.1532 0.66194,1.13315 0.39982,0.62301 0.4789,0.68708 0.73797,1.01061 0.49529,0.64243 0.36349,0.47986 0.42824,0.4217 0.70006,0.60825 0.74295,0.74838 0.61369,0.37128 0.99921,0.3198 1.16208,0.16778 2.48186,0.0997 0.68771,-0.0945 0.34723,-0.2601 0.31333,-0.17603 0.45509,-0.21819 0.4048,-0.19352 0.29809,-0.3136 1.07042,-0.95702 0.44047,-0.44652 0.35965,-0.37723 0.44624,-0.58509 0.44141,-0.56295 1.46229,-2.19085 0.27712,-0.49836 0.37002,-0.58672 0.42831,-0.85064 0.97207,-1.93238 0.86135,-1.8353 0.0992,-0.25029 0.29102,-0.68237 0.26568,-0.6649 0.39348,-0.91746 0.18845,-0.51852 0.40035,-1.00222 0.66944,-1.81835 1.69177,-4.91307 2.46487,-8.18735 1.09643,-3.98852 4.3219,-17.66311 1.84181,-8.41067 6.56395,-33.31033 3.51515,-19.44344 1.11498,-6.30211 1.67518,-9.55343 1.16314,-6.71783 3.06755,-17.65596 1.35927,-7.80422 1.20588,-6.89209 1.61061,-9.1226 1.13627,-6.39456 3.04584,-16.58341 0.0883,-0.46031 0.35319,-1.86492 0.53598,-2.91612 0.25792,-1.44648 0.354,-1.67811 0.28223,-1.70389 0.18697,-0.90468 0.24797,-1.24148 0.031,0.0246 0.02,7.5e-4 0.0106,-0.0227 1.40196,-7.37586 0.0329,0.0397 0.0265,-0.0272 0.0117,-0.0532 0.53778,-3.00317 0.0802,-0.041 0.55476,-2.98747 0.0751,-0.069 0.3499,-1.91995 0.0156,0.004 0.0479,-0.11021 0.35111,-1.91032 0.0339,0.0344 0.0447,-0.13179 0.33143,-1.7935 0.0137,0.0151 0.024,0.017 0.0304,-0.0782 0.55036,-2.84433 0.0351,0.0459 0.0269,-0.0219 0.0125,-0.0522 0.55096,-2.80358 0.0423,0.0482 0.0163,-0.0167 2.21744,-9.77604 0.0225,0.0171 0.0146,0.0104 0.0173,-0.0186 1.62861,-6.63167 0.0427,-0.12833 0.39547,-1.52166 0.0573,-0.21922 0.32929,-1.37439 0.0466,0.0192 0.0245,-0.0768 0.34221,-1.48227 0.0245,0.0314 0.0242,0.009 0.0204,-0.0565 0.3402,-1.48295 0.0468,0.0477 0.082,-0.41062 0.1817,-0.51173 0.29632,-1.26561 0.12506,-0.22966 0.31016,-1.20246 0.0757,-0.0883 0.53578,-1.91995 0.0561,0.0199 0.0221,-0.0771 0.33217,-1.31778 0.0259,0.0438 0.0337,0.0207 0.0241,-0.0786 0.33756,-1.2935 0.01,0.007 0.0295,0.0193 0.029,-0.0578 0.52279,-1.82455 0.0153,0.004 0.0471,0.0627 0.0435,-0.12321 0.33501,-1.19727 0.005,0.004 0.0314,0.0224 0.0427,-0.0886 0.33949,-1.18757 0.0242,0.0437 0.0337,0.0364 0.0294,-0.0889 0.29781,-1.02925 1.56564,-4.12881 0.0739,0.0853 1.53065,-3.72487 0.0648,0.13569 0.0667,-0.14118 0.0958,-0.38814 0.0784,0.10216 0.10883,-0.5206 0.0523,-0.16599 0.0534,0.1375 0.01,0.0171 0.0542,-0.12825 0.11736,-0.49632 0.0628,0.1705 0.0426,-0.0617 0.12815,-0.50015 0.0449,0.13464 0.0313,0.0592 0.048,-0.14337 0.11127,-0.44144 0.0894,0.0462 0.38683,-1.01662 0.0522,0.11472 0.0193,0.0417 0.0566,-0.0987 0.12373,-0.40716 0.0489,0.14705 0.0349,0.0242 0.0294,-0.0792 0.33431,-0.88401 0.0383,-0.0498 0.0501,0.106 0.009,0.0127 0.0514,-0.0717 0.12332,-0.47174 0.0586,0.13773 0.0309,0.0356 0.0359,-0.0805 0.12318,-0.42046 0.0613,0.15531 0.0204,0.0301 0.0496,-0.1057 0.0959,-0.35507 0.073,0.14637 0.0259,0.0474 0.0567,-0.11773 0.12506,-0.43362 0.0987,0.0619 0.40109,-0.85491 0.0232,0.0328 0.0617,0.13855 0.0548,-0.12435 0.10743,-0.33408 0.0577,0.13592 0.0345,0.0456 0.0402,-0.0771 0.11552,-0.34461 0.0566,0.12908 0.0285,0.0631 0.0667,-0.11773 0.10623,-0.25192 0.0494,0.12314 0.0345,0.0581 0.0547,-0.0966 0.22898,-0.32401 0.41566,-0.74463 0.0568,0.12073 0.0364,0.0312 0.0458,-0.0931 0.12263,-0.29905 0.051,0.11487 0.0465,0.0362 0.0425,-0.0954 0.1103,-0.26192 0.0517,0.10532 0.0439,0.0612 0.0555,-0.1039 0.10472,-0.22733 0.0321,0.0506 0.0657,0.11412 0.0581,-0.10059 0.0954,-0.20185 0.0574,0.10345 0.0525,0.0571 0.0474,-0.0786 0.10056,-0.1896 0.0529,0.0925 0.0529,0.0619 0.0486,-0.0695 0.11408,-0.16501 0.047,0.0903 0.0526,0.0487 0.0456,-0.0618 0.0975,-0.15486 0.0572,0.0808 0.0554,0.0586 0.0524,-0.0652 0.12434,-0.10555 0.0216,0.0435 0.0515,0.0629 0.0625,-0.0637 0.0946,-0.11608 0.0559,0.0747 0.0739,0.0362 0.0376,-0.0476 0.0986,-0.0985 0.0507,0.0692 0.0854,0.0195 0.03,-0.0363 0.0904,-0.0901 0.054,0.0665 0.0625,0.0461 0.0589,-0.0625 0.093,-0.071 0.0403,0.0596 0.0778,0.035 0.0477,-0.0487 0.0938,-0.065 0.0518,0.0628 0.0874,0.0117 0.0373,-0.0417 0.0923,-0.0458 0.039,0.0523 0.0746,0.0281 0.0347,-0.0292 0.11282,-0.0644 0.0328,0.0399 0.0819,0.0375 0.0377,-0.0316 0.0972,-0.0653 0.0512,0.0539 0.10631,0.005 0.0174,-0.0158 0.10491,-0.0422 0.0422,0.0522 0.10048,-0.005 0.0212,-0.0203 0.0946,-0.0391 0.044,0.0539 0.0966,0.002 0.0268,-0.0245 0.11215,-0.0196 0.0316,0.0404 0.11927,-0.0276 0.002,-0.002 0.0949,-0.032 0.0412,0.0513 0.12648,-0.0253 0.001,-0.002 0.12396,0.004 0.16053,-0.0279 0.11483,0.0378 0.13298,-0.0269 0.0976,-0.0109 0.0308,0.0366 0.11918,-0.0137 0.008,-0.008 0.0577,-0.0142 0.0339,0.0595 0.11133,0.21711 0.0588,-0.0445 0.0733,0.0736 0.12161,0.15637 0.0491,-0.0278 0.0956,0.12623 0.1403,0.0417 0.0916,0.10187 0.16517,0.0445 0.42418,0.21065 0.15105,0.0869 1.49773,1.6309 0.3124,0.34521 0.30979,0.26725 1.18177,1.80862 0.29539,0.4597 0.22658,0.3041 0.58586,1.03518 0.14568,0.25696 0.34639,0.69764 0.32347,0.57879 0.37411,0.7738 0.91772,2.0276 0.4483,0.9301 0.11868,0.36085 0.37712,0.84055 3.05369,8.44022 3.55345,11.94655 0.34765,1.27185 1.25999,4.91493 0.55658,2.24982 0.5821,2.385 0.99295,4.19849 1.36363,6.04808 1.00865,4.61009 0.91534,4.29156 1.30424,6.33127 1.01014,5.02499 1.69092,8.66816 2.35127,12.53699 1.07127,5.84029 3.36782,18.87037 1.60918,9.21972 1.13149,6.47426 1.6191,9.36482 1.19117,6.85879 2.09556,12.03563 1.17575,6.69949 1.13648,6.43216 1.44683,8.08583 1.68805,9.28182 1.23783,6.62484 1.3806,7.26196 2.19938,11.20155 1.40531,6.86134 1.03082,4.8509 0.83596,3.82566 0.75814,3.43022 0.60955,2.66955 0.75458,3.23118 0.31751,1.34738 3.15166,12.27526 1.03386,3.61928 0.53838,1.85692 1.33052,4.28031 0.7343,2.21408 0.42284,1.23534 0.6389,1.7654 0.78484,2.05539 0.29204,0.79737 0.27569,0.62232 0.4493,1.14763 0.40013,0.93471 0.60576,1.34271 2.17814,4.12531 0.20423,0.40793 0.6937,1.05511 0.19006,0.32392 0.64534,0.94045 1.42818,1.70562 1.13716,1.10033 0.40333,0.33985 0.92627,0.45921 1.23644,0.27713 1.93244,0.13638 1.76278,-0.0483 0.26401,-0.21094 0.23758,-0.14845 0.48532,-0.25469 0.51983,-0.21061 0.41072,-0.45246 0.4536,-0.33095 0.35708,-0.30821 0.42353,-0.49532 0.49388,-0.4366 0.59336,-0.80671 1.22107,-1.70624 0.45648,-0.69878 0.19848,-0.37649 0.58099,-0.93688 0.44839,-0.88877 0.36318,-0.70598 0.90035,-1.80541 0.21421,-0.50708 0.9337,-2.08716 0.40002,-1.01057 0.98889,-2.54534 0.54323,-1.48958 0.83565,-2.38841 2.50703,-8.07181 0.47264,-1.63672 0.31043,-1.13158 0.95448,-3.46588 0.14945,-0.61325 0.78409,-2.94422 0.24378,-0.9693 0.42317,-1.70321 0.43416,-1.72471 2.05365,-8.74771 1.10102,-4.90318 1.77184,-8.29894 1.89047,-9.32633 0.96682,-4.91553 9.99671,-55.12267 1.41968,-8.18582 1.08293,-6.24316 1.36339,-7.88969 1.13114,-6.44863 1.41272,-8.10417 1.16929,-6.55763 1.72596,-9.67988 0.90811,-4.94531 1.3062,-7.06845 0.34593,-1.87575 0.34379,-1.7729 0.95044,-5.11115 0.27655,-1.55909 0.0821,-0.0541 0.55958,-3.15098 0.009,0.005 0.0336,0.008 0.011,-0.0255 1.39778,-7.36112 0.0313,0.0387 0.0287,-0.005 0.0194,-0.0886 0.34593,-1.98325 0.0301,0.008 0.0406,-0.1384 0.34401,-1.95995 0.0268,0.0397 0.0159,0.0134 0.0304,-0.0897 0.33016,-1.90318 0.0455,0.0348 0.0441,-0.16689 0.32996,-1.85484 0.0638,-0.0556 0.76453,-3.85283 0.0315,0.0326 0.0392,-0.0628 0.55101,-2.8553 0.0403,0.0512 0.01,6.8e-4 0.12216,-0.84266 0.85731,-3.82419 0.0528,0.0355 0.0457,-0.20831 0.31665,-1.61511 0.0772,-0.0731 0.39272,-1.72764 1.39467,-6.04733 0.0481,0.0227 0.31586,-1.52918 0.4895,-1.77524 0.29437,-1.16577 0.30781,-1.26876 0.0654,-0.0831 0.77192,-3.11775 0.0527,0.0372 0.0486,-0.18178 0.30594,-1.37694 0.10294,-0.0879 0.3103,-1.40837 0.11048,-0.10833 0.32016,-1.33816 0.0134,0.002 0.0387,0.0156 0.0317,-0.0885 0.38123,-1.35634 0.25954,-0.89048 0.29978,-1.11472 0.0906,-0.0713 0.33201,-1.31026 0.0111,0.0139 0.038,0.0567 0.0312,-0.071 0.33531,-1.3044 0.02,0.0137 0.0301,0.01 0.0203,-0.0451 0.52883,-1.84251 0.031,0.0344 0.0414,0.0257 0.0327,-0.11705 0.33735,-1.19381 0.0489,0.0171 0.0262,-0.075 0.32707,-1.1966 0.0487,0.075 0.009,0.0125 0.0403,-0.0785 0.31378,-1.07782 0.14482,-0.29687 0.0802,-0.37596 0.0873,0.0228 0.36112,-1.12179 0.009,0.003 0.0381,0.0117 0.0347,-0.0865 0.34087,-1.08443 0.019,0.0149 0.0588,0.0772 0.0411,-0.12344 0.35,-1.14044 0.0258,0.0439 0.0235,0.042 0.0568,-0.1296 0.10342,-0.45558 0.0828,0.12209 0.0883,-0.39663 0.0668,-0.30319 0.0765,0.0897 0.0964,-0.46437 0.0567,-0.18531 0.0611,0.12855 0.0427,-0.0857 0.12078,-0.50782 0.0518,0.12863 0.0241,0.0245 0.0324,-0.097 0.364,-1.11578 0.0797,0.0907 0.0324,-0.11344 0.10797,-0.45279 0.0656,0.13945 0.0226,0.003 0.029,-0.0867 0.11161,-0.45106 0.0742,0.11081 0.0915,-0.39799 0.0666,-0.29236 0.0682,0.1599 0.0143,0.006 0.0294,-0.0859 0.11936,-0.55428 0.0713,0.18268 0.0141,0.009 0.0352,-0.1057 0.11142,-0.48452 0.0554,0.15472 0.031,0.0533 0.0484,-0.14818 0.3514,-0.97339 0.0872,0.11871 0.0423,-0.13239 0.1096,-0.41987 0.0593,0.14201 0.0212,0.0209 0.0478,-0.12118 0.11698,-0.38919 0.0534,0.14915 0.0778,-0.11623 0.11537,-0.37077 0.0479,0.0545 0.10067,-0.25214 0.0883,-0.3186 0.0614,0.11246 0.0848,-0.17155 0.0939,-0.3592 0.0661,0.14735 0.0258,0.0223 0.0353,-0.0857 0.12755,-0.40649 0.054,0.14254 0.0323,0.0324 0.0404,-0.10284 0.10994,-0.35311 0.0546,0.13547 0.04,0.0614 0.049,-0.12953 0.11914,-0.43783 0.0723,0.10472 0.0523,-0.0909 0.12742,-0.44655 0.0651,0.13637 0.0235,0.011 0.0276,-0.0571 0.13598,-0.43776 0.05,0.11818 0.019,0.0421 0.0692,-0.11314 0.10938,-0.33146 0.0519,0.12059 0.0395,0.0641 0.0457,-0.10284 0.11096,-0.31327 0.0474,0.10345 0.0456,0.0806 0.0485,-0.0961 0.11193,-0.27522 0.0505,0.11712 0.0367,0.0665 0.0616,-0.11645 0.12533,-0.33559 0.0948,0.0333 0.4204,-0.74275 0.0444,0.0829 0.0272,0.0541 0.0728,-0.0995 0.11413,-0.29169 0.0433,0.094 0.049,0.0726 0.0247,-0.0374 0.15265,-0.30718 0.0379,0.092 0.0461,0.0511 0.0521,-0.10277 0.10225,-0.22403 0.0562,0.11044 0.0484,0.0509 0.0525,-0.0984 0.11915,-0.17404 0.031,0.0686 0.0573,0.0648 0.041,-0.0655 0.1095,-0.20035 0.0449,0.0786 0.063,0.0744 0.0533,-0.0855 0.0977,-0.14682 0.0531,0.088 0.0545,0.0502 0.053,-0.0776 0.10939,-0.12366 0.0354,0.0644 0.0499,0.061 0.065,-0.076 0.10342,-0.11284 0.0267,0.0394 0.0765,0.0797 0.0272,-0.0316 0.13416,-0.12877 0.0342,0.0562 0.0557,0.0533 0.0656,-0.0706 0.0984,-0.0827 0.0273,0.0371 0.0697,0.072 0.0634,-0.0641 0.0913,-0.0831 0.0426,0.0525 0.0894,0.0413 0.0294,-0.0299 0.10196,-0.0893 0.0484,0.0634 0.0798,0.0256 0.0403,-0.0417 0.0926,-0.0682 0.0335,0.0386 0.0821,0.0573 0.0539,-0.0512 0.087,-0.0674 0.0494,0.0628 0.0859,0.0237 0.0388,-0.0374 0.10071,-0.0497 0.0419,0.0539 0.0839,0.0126 0.0376,-0.0355 0.1038,-0.0369 0.0286,0.0373 0.11711,9e-4 0.0185,-0.0194 0.0963,-0.0304 0.033,0.0426 0.16648,-0.055 0.0751,0.02 0.0243,0.0328 0.1099,-0.009 0.0162,-0.016 0.098,-0.0299 0.031,0.0377 0.12105,-0.002 0.10588,-0.0457 0.0358,0.0444 0.11604,-7.5e-4 0.0163,-0.0153 0.11643,-0.005 0.016,0.0204 0.10412,0.004 0.0251,-0.0232 0.0986,-0.0267 0.0337,0.0411 0.10912,0.002 0.0196,-0.0183 0.0919,-0.0349 0.0447,0.0513 0.0937,0.01 0.033,-0.0299 0.0621,-0.0132 0.0308,0.0665 0.11119,0.21034 0.0451,-0.0387 0.0892,0.0776 0.10279,0.15351 0.0529,-0.0347 1.29509,0.89784 0.70376,0.65051 0.31827,0.30041 0.27753,0.42686 0.33366,0.33273 0.59982,0.82905 0.44348,0.55429 0.21239,0.35167 0.30138,0.49384 0.35242,0.4773 1.50297,2.80155 0.36232,0.70727 2.15068,4.9205 3.09546,8.6674 0.97578,3.17495 0.74706,2.54099 3.92993,14.80125 3.74927,16.47372 3.46157,16.88449 2.43657,12.66901 2.42244,13.15705 2.16301,12.05511 0.8894,5.00845 1.41534,8.06584 1.30061,7.4502 1.20192,6.93307 1.32873,7.66002 1.38933,8.03509 1.1883,6.82744 1.05894,6.048 1.4659,8.26317 1.11658,6.26557 1.24804,6.86938 0.89107,4.86825 1.31173,7.01365 1.73479,9.04457 5.56977,26.67663 1.20129,5.16398 0.6589,2.76696 0.4007,1.60768 1.40214,5.60942 0.24723,0.89398 1.22852,4.54819 0.9782,3.4 0.34563,1.18482 1.07367,3.41915 3.02066,8.59759 0.28832,0.62901 0.48343,1.21348 0.21375,0.49839 0.44279,1.01275 0.27674,0.6313 2.08415,4.01955 0.34113,0.59946 0.7018,1.06324 0.14573,0.23399 0.40055,0.67682 0.69575,0.76413 0.29139,0.48845 0.88632,0.92591 0.7658,0.75163 0.4412,0.43709 1.49386,0.70179 1.38586,0.21912 2.36027,0.0976 0.80039,-0.091 0.27923,-0.198 1.01043,-0.51909 0.23311,-0.13307 0.29149,-0.31102 0.26777,-0.24204 0.48624,-0.30729 0.26112,-0.31476 0.4832,-0.52994 0.36329,-0.35661 0.37084,-0.52018 1.1158,-1.45437 0.14224,-0.20658 0.30176,-0.51478 2.29661,-4.11214 0.45336,-0.98131 0.27962,-0.62083 0.66823,-1.54896 0.27144,-0.60045 0.29172,-0.72398 0.17472,-0.39242 1.43829,-3.82465 0.75496,-2.17422 0.52968,-1.5609 1.14144,-3.62373 0.3114,-1.05391 0.88098,-2.95027 0.22992,-0.82535 1.23643,-4.51089 0.12088,-0.5025 0.56264,-2.12817 0.84826,-3.34881 1.36593,-5.61334 0.50515,-2.11658 1.66573,-7.40479 0.70939,-3.22965 2.02626,-9.68549 2.57099,-13.03632 0.94801,-4.93207 2.25079,-12.14931 6.56689,-37.08579 v 0"
       clip-path="url(#pa83a2b1b10)"
       style="fill:none;stroke:#ff7f0e;stroke-width:1.5;stroke-linecap:square"
       id="path268" />
  </g>
  <g
     id="patch_3"
     transform="translate(-56.61375,-55.5872)"
     style="fill:#000000">
    <path
       d="M 85.59,415.2384 V 55.9872"
       style="fill:#000000;stroke:#ffffff;stroke-width:0.8;stroke-linecap:square;stroke-linejoin:miter"
       id="path271" />
  </g>
  <g
     id="patch_4"
     transform="translate(-56.61375,-55.5872)"
     style="fill:#000000">
    <path
       d="M 616.248,415.2384 V 55.9872"
       style="fill:#000000;stroke:#ffffff;stroke-width:0.8;stroke-linecap:square;stroke-linejoin:miter"
       id="path274" />
  </g>
  <g
     id="patch_5"
     transform="translate(-56.61375,-55.5872)"
     style="fill:#000000">
    <path
       d="M 85.59,415.2384 H 616.248"
       style="fill:#000000;stroke:#ffffff;stroke-width:0.8;stroke-linecap:square;stroke-linejoin:miter"
       id="path277" />
  </g>
  <g
     id="patch_6"
     transform="translate(-56.61375,-55.5872)">
    <path
       d="M 85.59,55.9872 H 616.248"
       style="fill:none;stroke:#ffffff;stroke-width:0.8;stroke-linecap:square;stroke-linejoin:miter"
       id="path280" />
  </g>
  <g
     id="matplotlib.axis_3"
     transform="translate(-56.61375,-55.5872)"
     style="fill:#000000">
    <g
       id="ytick_6"
       style="fill:#000000">
      <g
         id="line2d_15"
         style="fill:#000000">
        <defs
           id="defs285">
          <path
             id="m4aa2b9d0ef"
             d="M 0,0 H 3.5"
             style="stroke:#ffffff;stroke-width:0.8;fill:#ffffff" />
        </defs>
        <g
           id="g289"
           style="fill:#000000">
          <use
             xlink:href="#m4aa2b9d0ef"
             x="616.24799"
             y="412.00854"
             style="stroke:#ffffff;stroke-width:0.8;fill:#000000"
             id="use287" />
        </g>
      </g>
      <g
         id="text_15"
         style="fill:#000000">
        <!-- 0.0 -->
        <g
           transform="matrix(0.1,0,0,-0.1,623.248,415.80776)"
           id="g298"
           style="fill:#000000">
          <use
             xlink:href="#DejaVuSans-30"
             id="use292"
             style="fill:#000000" />
          <use
             xlink:href="#DejaVuSans-2e"
             x="63.623047"
             id="use294"
             style="fill:#000000" />
          <use
             xlink:href="#DejaVuSans-30"
             x="95.410156"
             id="use296"
             style="fill:#000000" />
        </g>
      </g>
    </g>
    <g
       id="ytick_7"
       style="fill:#000000">
      <g
         id="line2d_16"
         style="fill:#000000">
        <g
           id="g304"
           style="fill:#000000">
          <use
             xlink:href="#m4aa2b9d0ef"
             x="616.24799"
             y="344.70163"
             style="stroke:#ffffff;stroke-width:0.8;fill:#000000"
             id="use302" />
        </g>
      </g>
      <g
         id="text_16"
         style="fill:#000000">
        <!-- 0.1 -->
        <g
           transform="matrix(0.1,0,0,-0.1,623.248,348.50083)"
           id="g313"
           style="fill:#000000">
          <use
             xlink:href="#DejaVuSans-30"
             id="use307"
             style="fill:#000000" />
          <use
             xlink:href="#DejaVuSans-2e"
             x="63.623047"
             id="use309"
             style="fill:#000000" />
          <use
             xlink:href="#DejaVuSans-31"
             x="95.410156"
             id="use311"
             style="fill:#000000" />
        </g>
      </g>
    </g>
    <g
       id="ytick_8"
       style="fill:#000000">
      <g
         id="line2d_17"
         style="fill:#000000">
        <g
           id="g319"
           style="fill:#000000">
          <use
             xlink:href="#m4aa2b9d0ef"
             x="616.24799"
             y="277.39468"
             style="stroke:#ffffff;stroke-width:0.8;fill:#000000"
             id="use317" />
        </g>
      </g>
      <g
         id="text_17"
         style="fill:#000000">
        <!-- 0.2 -->
        <g
           transform="matrix(0.1,0,0,-0.1,623.248,281.19391)"
           id="g328"
           style="fill:#000000">
          <use
             xlink:href="#DejaVuSans-30"
             id="use322"
             style="fill:#000000" />
          <use
             xlink:href="#DejaVuSans-2e"
             x="63.623047"
             id="use324"
             style="fill:#000000" />
          <use
             xlink:href="#DejaVuSans-32"
             x="95.410156"
             id="use326"
             style="fill:#000000" />
        </g>
      </g>
    </g>
    <g
       id="ytick_9"
       style="fill:#000000">
      <g
         id="line2d_18"
         style="fill:#000000">
        <g
           id="g334"
           style="fill:#000000">
          <use
             xlink:href="#m4aa2b9d0ef"
             x="616.24799"
             y="210.08775"
             style="stroke:#ffffff;stroke-width:0.8;fill:#000000"
             id="use332" />
        </g>
      </g>
      <g
         id="text_18"
         style="fill:#000000">
        <!-- 0.3 -->
        <g
           transform="matrix(0.1,0,0,-0.1,623.248,213.88698)"
           id="g343"
           style="fill:#000000">
          <use
             xlink:href="#DejaVuSans-30"
             id="use337"
             style="fill:#000000" />
          <use
             xlink:href="#DejaVuSans-2e"
             x="63.623047"
             id="use339"
             style="fill:#000000" />
          <use
             xlink:href="#DejaVuSans-33"
             x="95.410156"
             id="use341"
             style="fill:#000000" />
        </g>
      </g>
    </g>
    <g
       id="ytick_10"
       style="fill:#000000">
      <g
         id="line2d_19"
         style="fill:#000000">
        <g
           id="g349"
           style="fill:#000000">
          <use
             xlink:href="#m4aa2b9d0ef"
             x="616.24799"
             y="142.78082"
             style="stroke:#ffffff;stroke-width:0.8;fill:#000000"
             id="use347" />
        </g>
      </g>
      <g
         id="text_19"
         style="fill:#000000">
        <!-- 0.4 -->
        <g
           transform="matrix(0.1,0,0,-0.1,623.248,146.58005)"
           id="g358"
           style="fill:#000000">
          <use
             xlink:href="#DejaVuSans-30"
             id="use352"
             style="fill:#000000" />
          <use
             xlink:href="#DejaVuSans-2e"
             x="63.623047"
             id="use354"
             style="fill:#000000" />
          <use
             xlink:href="#DejaVuSans-34"
             x="95.410156"
             id="use356"
             style="fill:#000000" />
        </g>
      </g>
    </g>
    <g
       id="ytick_11"
       style="fill:#000000">
      <g
         id="line2d_20"
         style="fill:#000000">
        <g
           id="g364"
           style="fill:#000000">
          <use
             xlink:href="#m4aa2b9d0ef"
             x="616.24799"
             y="75.4739"
             style="stroke:#ffffff;stroke-width:0.8;fill:#000000"
             id="use362" />
        </g>
      </g>
      <g
         id="text_20"
         style="fill:#000000">
        <!-- 0.5 -->
        <g
           transform="matrix(0.1,0,0,-0.1,623.248,79.273118)"
           id="g373"
           style="fill:#000000">
          <use
             xlink:href="#DejaVuSans-30"
             id="use367"
             style="fill:#000000" />
          <use
             xlink:href="#DejaVuSans-2e"
             x="63.623047"
             id="use369"
             style="fill:#000000" />
          <use
             xlink:href="#DejaVuSans-35"
             x="95.410156"
             id="use371"
             style="fill:#000000" />
        </g>
      </g>
    </g>
    <g
       id="text_21"
       style="fill:#000000">
      <!-- Current [A] -->
      <g
         transform="matrix(0,-0.12,-0.12,0,652.26925,268.8378)"
         id="g406"
         style="fill:#000000">
        <defs
           id="defs382">
          <path
             id="DejaVuSans-43"
             d="m 4122,4306 v -665 q -319,297 -680,443 -361,147 -767,147 -800,0 -1225,-489 -425,-489 -425,-1414 0,-922 425,-1411 425,-489 1225,-489 406,0 767,147 361,147 680,444 V 359 Q 3791,134 3420,21 3050,-91 2638,-91 1578,-91 968,557 359,1206 359,2328 q 0,1125 609,1773 610,649 1670,649 418,0 788,-111 371,-111 696,-333 z"
             transform="scale(0.015625)"
             style="fill:#ffffff" />
          <path
             id="DejaVuSans-75"
             d="m 544,1381 v 2119 h 575 V 1403 q 0,-497 193,-746 194,-248 582,-248 465,0 735,297 271,297 271,810 v 1984 h 575 V 0 H 2900 V 538 Q 2691,219 2414,64 2138,-91 1772,-91 1169,-91 856,284 544,659 544,1381 Z m 1447,2203 z"
             transform="scale(0.015625)"
             style="fill:#ffffff" />
          <path
             id="DejaVuSans-72"
             d="m 2631,2963 q -97,56 -211,82 -114,27 -251,27 -488,0 -749,-317 -261,-317 -261,-911 V 0 H 581 v 3500 h 578 v -544 q 182,319 472,473 291,155 707,155 59,0 131,-8 72,-7 159,-23 z"
             transform="scale(0.015625)"
             style="fill:#ffffff" />
          <path
             id="DejaVuSans-6e"
             d="M 3513,2113 V 0 h -575 v 2094 q 0,497 -194,743 -194,247 -581,247 -466,0 -735,-297 -269,-296 -269,-809 V 0 H 581 v 3500 h 578 v -544 q 207,316 486,472 280,156 646,156 603,0 912,-373 310,-373 310,-1098 z"
             transform="scale(0.015625)"
             style="fill:#ffffff" />
          <path
             id="DejaVuSans-41"
             d="M 2188,4044 1331,1722 h 1716 z m -357,622 h 716 L 4325,0 H 3669 L 3244,1197 H 1141 L 716,0 H 50 Z"
             transform="scale(0.015625)"
             style="fill:#ffffff" />
        </defs>
        <use
           xlink:href="#DejaVuSans-43"
           id="use384"
           style="fill:#000000" />
        <use
           xlink:href="#DejaVuSans-75"
           x="69.824219"
           id="use386"
           style="fill:#000000" />
        <use
           xlink:href="#DejaVuSans-72"
           x="133.20312"
           id="use388"
           style="fill:#000000" />
        <use
           xlink:href="#DejaVuSans-72"
           x="172.56641"
           id="use390"
           style="fill:#000000" />
        <use
           xlink:href="#DejaVuSans-65"
           x="211.42969"
           id="use392"
           style="fill:#000000" />
        <use
           xlink:href="#DejaVuSans-6e"
           x="272.95312"
           id="use394"
           style="fill:#000000" />
        <use
           xlink:href="#DejaVuSans-74"
           x="336.33203"
           id="use396"
           style="fill:#000000" />
        <use
           xlink:href="#DejaVuSans-20"
           x="375.54102"
           id="use398"
           style="fill:#000000" />
        <use
           xlink:href="#DejaVuSans-5b"
           x="407.32812"
           id="use400"
           style="fill:#000000" />
        <use
           xlink:href="#DejaVuSans-41"
           x="446.3418"
           id="use402"
           style="fill:#000000" />
        <use
           xlink:href="#DejaVuSans-5d"
           x="514.75"
           id="use404"
           style="fill:#000000" />
      </g>
    </g>
  </g>
  <g
     id="line2d_21"
     transform="translate(-56.61375,-55.5872)">
    <path
       d="m 109.71082,237.7153 0.1969,-0.0613 0.77499,-1.7629 1.01326,-4.36432 1.45196,-8.07373 1.11108,-6.82371 0.61396,-3.76717 2.39517,-15.08214 0.8914,-5.47145 0.97773,-6.23295 0.26278,-1.72764 0.14811,-0.69198 0.26972,-1.82415 0.11721,-0.38231 0.30895,-2.28278 0.0659,0.0525 0.0729,-0.57022 0.26902,-1.89247 0.37115,-2.04506 0.0706,-0.62501 0.0805,0.0381 0.34229,-2.45199 0.0438,0.025 0.0678,-0.50393 0.28539,-2.03368 0.0735,0.059 0.096,-0.87499 0.23574,-1.49038 5.45103,-29.95158 0.0202,0.0146 0.0231,-0.0164 0.29701,-1.7526 0.25663,-1.41567 0.10913,-0.22527 0.2984,-1.80322 0.14139,-0.51584 0.24416,-1.34628 0.26155,-1.24403 0.0485,0.006 0.0107,-0.0337 1.39511,-6.84087 0.028,0.008 0.0416,-0.14323 0.34654,-1.79097 0.0159,0.0208 0.0254,0.002 0.0195,-0.07 0.54403,-2.78132 0.044,0.0746 0.29847,-1.55748 0.22244,-0.97905 0.24286,-1.04944 0.0468,0.0346 0.0448,-0.19068 0.32296,-1.57337 0.009,0.003 0.0256,0.0121 0.27505,-1.20689 0.28373,-1.2721 0.12924,-0.4385 0.27878,-1.2332 0.12198,-0.34798 0.29581,-1.30225 0.0696,-0.0266 0.0119,-0.0602 0.3173,-1.54275 0.0263,0.0211 0.0409,0.0553 0.0367,-0.14922 0.31082,-1.52067 0.10268,-0.0613 0.31852,-1.46823 0.069,0.009 0.0149,-0.0574 0.32332,-1.437675 0.0371,0.0177 0.0362,-0.05236 0.54904,-2.14763 0.023,0.04826 0.0352,0.02632 0.008,-0.02033 0.53372,-2.0779 0.11023,-0.144508 0.31419,-1.322446 0.0709,0.08326 0.0303,-0.111258 0.31973,-1.300908 0.0661,0.03998 0.0234,-0.08104 0.35138,-1.270283 0.007,0.0042 0.0424,0.01595 0.0323,-0.08972 0.34767,-1.210313 0.0667,0.08144 0.0331,-0.132191 0.33121,-1.33537 0.0137,0.02181 0.055,0.14195 0.0478,-0.180854 0.0957,-0.508302 0.0723,0.147335 0.0422,-0.171431 0.10373,-0.693395 0.0677,0.180449 0.0313,-0.04483 0.1313,-0.733309 0.0857,0.167998 0.34943,-1.35711 0.0383,0.110922 0.0229,0.09053 0.0515,-0.119806 0.10565,-0.663377 0.0618,0.197478 0.01,0.02396 0.0528,-0.161065 0.10088,-0.551378 0.0609,0.202661 0.0187,0.02961 0.042,-0.145316 0.11272,-0.684848 0.0769,0.175537 0.0967,-0.526408 0.0519,-0.23968 0.067,0.188527 0.0196,0.0074 0.0273,-0.09194 0.11981,-0.596541 0.0521,0.169614 0.02,0.04301 0.0504,-0.152316 0.10618,-0.496389 0.0847,0.07404 0.38741,-1.226871 0.0344,0.09827 0.0386,0.08326 0.0449,-0.142489 0.11194,-0.481513 0.0592,0.189199 0.0245,0.02349 0.0337,-0.107692 0.36089,-1.182111 0.1176,0.09336 0.0221,-0.102576 0.10937,-0.454928 0.0568,0.17971 0.0218,0.02726 0.0468,-0.150902 0.11035,-0.431707 0.0505,0.154066 0.0209,0.0521 0.0611,-0.139729 0.36512,-1.064795 0.003,0.0022 0.058,0.146325 0.0668,-0.113614 0.11401,-0.476735 0.0675,0.182469 0.0321,0.0043 0.0162,-0.04227 0.11942,-0.492821 0.0703,0.17069 0.0241,0.03789 0.0419,-0.09187 0.11238,-0.414947 0.065,0.175671 0.0289,0.04617 0.0413,-0.124181 0.13526,-0.586243 0.0526,0.179171 0.026,0.02531 0.0299,-0.08541 0.125,-0.580387 0.0641,0.193978 0.0149,0.03931 0.0607,-0.14821 0.10662,-0.450351 0.0605,0.185498 0.0272,0.05782 0.0577,-0.152989 0.10175,-0.384794 0.0563,0.158979 0.0242,0.06852 0.0642,-0.121287 0.10403,-0.351208 0.0571,0.160527 0.041,0.07094 0.0512,-0.133403 0.10322,-0.292246 0.0494,0.13145 0.0403,0.08218 0.0549,-0.114624 0.13623,-0.436014 0.0739,0.100354 0.0231,-0.03103 0.15493,-0.499216 0.0499,0.11422 0.0301,0.04456 0.041,-0.06939 0.11883,-0.423899 0.0785,0.153729 0.0258,0.02955 0.0533,-0.12021 0.11676,-0.330275 0.0525,0.1367 0.0335,0.05499 0.0547,-0.113614 0.10808,-0.309141 0.0527,0.125595 0.0513,0.07552 0.0513,-0.118797 0.0956,-0.248834 0.0584,0.104663 0.0475,0.08292 0.0339,-0.05735 0.12309,-0.279996 0.0475,0.102306 0.0552,0.07841 0.0527,-0.09578 0.0924,-0.201181 0.0551,0.0908 0.061,0.08339 0.0467,-0.08387 0.0859,-0.186507 0.0566,0.07007 0.0653,0.09584 0.0537,-0.08608 0.1084,-0.145989 0.0381,0.07612 0.0577,0.06697 0.0576,-0.08158 0.10136,-0.130239 0.0465,0.08413 0.0574,0.05714 0.0491,-0.06737 0.0951,-0.134479 0.0533,0.0809 0.0499,0.06387 0.0591,-0.06206 0.10587,-0.11947 0.0382,0.06051 0.0743,0.06414 0.0438,-0.05344 0.11118,-0.09618 0.0267,0.03951 0.0798,0.06751 0.0427,-0.04691 0.10734,-0.09443 0.0445,0.0667 0.0729,0.03621 0.0451,-0.05142 0.0963,-0.07828 0.0377,0.05519 0.0719,0.05236 0.0536,-0.05176 0.10109,-0.06993 0.0471,0.06785 0.0629,0.03022 0.0523,-0.04934 0.0893,-0.07061 0.0317,0.03251 0.0877,0.06926 0.0491,-0.04321 0.10024,-0.06764 0.021,0.02221 0.10823,0.06637 0.0413,-0.04341 0.0991,-0.05055 0.0307,0.03991 0.0771,0.0486 0.0531,-0.0459 0.099,-0.05513 0.0453,0.06044 0.0733,0.02706 0.049,-0.0459 0.0943,-0.0486 0.0363,0.04974 0.1068,0.01676 0.0295,-0.03015 0.0928,-0.03863 0.0432,0.05748 0.0916,0.0079 0.0311,-0.02908 0.0912,-0.04597 0.0466,0.05943 0.10181,0.004 0.0241,-0.02322 0.10598,-0.02854 0.0286,0.03823 0.0954,0.01669 0.0267,-0.02329 0.11396,-0.03311 0.0286,0.03271 0.0938,0.02019 0.029,-0.02282 0.0505,-0.0036 0.0307,0.05721 0.1148,0.24244 0.059,-0.04462 0.0822,0.103384 0.10158,0.15245 0.0495,-0.02773 0.0865,0.08932 0.16244,0.09235 0.55617,0.356996 0.34159,0.263977 0.38785,0.485755 1.04885,1.244707 0.51491,0.576349 0.15313,0.210065 0.35736,0.648233 0.48053,0.634637 0.60722,1.14267 0.17143,0.267948 2.68781,5.965952 0.30028,0.726646 0.22945,0.55333 0.36706,1.000248 0.32741,0.951989 0.53385,1.511579 1.82964,5.712541 2.22988,7.894294 4.62719,19.66533 1.07541,5.09648 0.85495,4.24128 6.56979,35.89391 1.52858,9.06988 2.90298,17.85606 1.37477,8.68111 1.14757,7.25327 1.40042,8.98816 1.34023,8.6239 1.40556,9.0826 1.11345,7.18037 1.14162,7.36008 1.09063,6.95752 5.39035,33.68396 2.14479,12.77061 1.82216,10.42033 1.02707,5.71085 0.95908,5.23056 1.42395,7.42974 3.653,17.65703 1.99405,8.67496 0.2362,0.95543 0.76429,3.07384 0.65969,2.56159 0.56276,2.04345 0.82376,3.00822 0.65858,2.23173 0.48987,1.61003 0.87018,2.78987 0.60452,1.80946 0.65103,1.83674 0.12527,0.35172 0.30216,0.85268 1.32084,3.35216 1.59638,3.51394 2.43028,4.03807 0.20462,0.3169 0.43281,0.67984 1.09622,1.10531 0.30647,0.41638 0.45546,0.50532 0.9536,0.5915 1.12815,0.32709 1.30192,0.14996 2.59092,0.0582 0.66647,-0.55895 0.44609,-0.23511 0.82966,-0.67326 0.32025,-0.28248 0.80075,-0.84482 1.73054,-2.34247 0.30669,-0.44694 1.19404,-2.16518 0.89998,-1.77697 0.30382,-0.65081 3.18935,-8.18834 3.39223,-11.18564 0.53705,-2.0147 4.70798,-20.03167 1.57408,-7.58851 1.56958,-7.99983 1.57055,-8.38792 1.32919,-7.3553 1.08327,-6.15818 7.30504,-44.51909 15.08277,-95.20444 0.0604,-0.29609 0.35469,-2.27928 0.0215,0.004 0.0484,-0.18307 0.34253,-2.22093 0.0188,0.003 0.0384,-0.0787 0.98904,-6.06778 0.0266,0.0472 0.0247,0.0166 0.0205,-0.0788 0.54249,-3.50601 0.0241,0.018 0.0318,0.0461 0.0311,-0.12041 0.34383,-2.23715 0.0276,0.0154 0.0401,-0.13623 0.34716,-2.25828 0.0342,0.045 0.0241,-0.0207 1.60311,-8.94375 0.0311,0.0303 0.0274,-0.0541 1.18034,-6.48313 0.0275,0.0412 0.0166,0.0147 0.0304,-0.0874 0.55096,-3.13765 0.0423,0.0539 0.0163,-0.0186 2.01938,-10.04469 0.0388,0.0239 0.0721,-0.4097 0.28663,-1.53352 0.0588,0.0683 0.0333,-0.14653 0.32026,-1.75018 0.0436,0.0574 0.0298,-0.0814 0.34133,-1.76997 0.0406,0.0146 0.10476,-0.65436 0.27379,-1.1708 0.0601,-0.087 0.78856,-3.55044 0.0459,0.002 0.0233,-0.0839 0.34051,-1.68046 0.0565,0.0417 0.0766,-0.47943 0.23407,-1.09589 0.2476,-1.04353 0.11307,-0.1997 0.28045,-1.3211 1.27174,-4.73396 0.0318,0.0312 0.0242,-0.009 0.0221,-0.0862 0.33217,-1.474762 0.0259,0.04907 0.0337,0.02309 0.0241,-0.0879 0.33756,-1.44757 0.01,0.0082 0.0295,0.02167 0.029,-0.06475 0.52279,-2.041958 0.0153,0.0044 0.0471,0.07013 0.0314,-0.07289 0.34707,-1.404965 0.0195,0.01965 0.017,0.01043 0.0427,-0.09914 0.33949,-1.32911 0.0242,0.04887 0.0281,0.04294 0.035,-0.101701 0.29781,-1.151891 1.56564,-4.620755 0.0739,0.09544 1.53065,-4.168654 0.0648,0.151844 0.0447,-0.05936 0.35745,-1.187092 0.0143,0.02416 0.0487,0.14895 0.0581,-0.164094 0.11346,-0.534955 0.0628,0.190815 0.0314,-0.02262 0.0112,-0.04644 0.12815,-0.559725 0.0449,0.150701 0.0313,0.0663 0.047,-0.156489 0.35569,-1.101006 0.005,0.0062 0.0568,0.1367 0.0632,-0.148748 0.10725,-0.477072 0.0715,0.174998 0.10884,-0.372274 0.0715,-0.193911 0.0402,0.139998 0.0349,0.05559 0.0503,-0.142623 0.20836,-0.407274 0.38564,-1.062978 0.0199,0.03049 0.0695,0.163421 0.0359,-0.09006 0.12318,-0.470677 0.0613,0.173854 0.0204,0.03365 0.0496,-0.118258 0.0959,-0.39738 0.073,0.163757 0.0259,0.05311 0.0567,-0.131787 0.12506,-0.485351 0.0987,0.06939 0.40109,-0.956768 0.0232,0.03661 0.0617,0.155075 0.0548,-0.139124 0.10743,-0.37389 0.0577,0.152114 0.0345,0.05109 0.0402,-0.08635 0.11552,-0.385668 0.0566,0.14444 0.0285,0.07067 0.0667,-0.131787 0.10623,-0.281949 0.0494,0.137844 0.0345,0.06502 0.0547,-0.108095 0.22745,-0.35915 0.41719,-0.836894 0.0353,0.07484 0.0502,0.0978 0.0534,-0.106749 0.12263,-0.33465 0.051,0.128489 0.0465,0.04052 0.0425,-0.106749 0.1103,-0.293189 0.0517,0.117989 0.0439,0.06845 0.0555,-0.116306 0.10472,-0.254353 0.0321,0.05661 0.0657,0.127614 0.0576,-0.111124 0.0959,-0.227228 0.0574,0.115701 0.0525,0.06394 0.0474,-0.08804 0.10056,-0.212084 0.0529,0.103518 0.0529,0.06919 0.0486,-0.07767 0.11408,-0.18469 0.0452,0.09672 0.0543,0.05889 0.0456,-0.06919 0.0975,-0.173315 0.0572,0.09039 0.0554,0.06562 0.0524,-0.07289 0.12434,-0.118124 0.0216,0.04873 0.0515,0.0704 0.0625,-0.07141 0.0946,-0.129835 0.0559,0.08353 0.0614,0.04819 0.0501,-0.06098 0.0986,-0.110248 0.0507,0.0774 0.0854,0.02194 0.03,-0.04065 0.0886,-0.102172 0.0558,0.07572 0.0625,0.05162 0.0565,-0.06643 0.0955,-0.08299 0.0403,0.0667 0.0778,0.03917 0.0413,-0.04577 0.10022,-0.08158 0.0388,0.05459 0.0842,0.04395 0.0477,-0.05398 0.0973,-0.0597 0.0374,0.05546 0.077,0.03513 0.0347,-0.03271 0.10134,-0.08225 0.0443,0.05479 0.0819,0.04207 0.0377,-0.03547 0.0972,-0.07309 0.0499,0.05849 0.0711,0.03816 0.0539,-0.04792 0.0989,-0.05297 0.0439,0.05856 0.0915,0.01117 0.0313,-0.03089 0.0979,-0.04705 0.0402,0.05499 0.0909,0.01508 0.0303,-0.02867 0.10145,-0.04866 0.0421,0.05694 0.0885,0.01225 0.0325,-0.03002 0.0972,-0.04738 0.0347,0.04584 0.0986,0.02436 0.0309,-0.02874 0.13319,-0.0055 0.1545,-0.02504 0.0784,-0.0058 0.0283,0.02753 0.13341,-0.0015 0.01,-0.01063 0.1013,-0.01582 0.0283,0.03776 0.0992,0.0085 0.0274,-0.02605 0.0608,-0.01905 0.0339,0.06663 0.11133,0.242978 0.0588,-0.04981 0.0616,0.0556 0.0117,0.02679 0.10206,0.183276 0.0687,-0.03944 0.0884,0.125124 0.10376,0.08373 0.0437,-0.02087 0.0916,0.114018 0.16517,0.04981 0.4157,0.237324 0.17237,0.109643 2.35644,2.971466 0.40017,0.628916 0.5064,0.851568 0.35373,0.608993 0.13958,0.205824 2.72163,6.020336 0.31226,0.754914 0.25766,0.69205 0.28266,0.769924 0.20021,0.482456 1.78207,5.324988 1.73852,5.792569 3.95197,15.534042 0.6188,2.74868 0.23317,0.96585 0.60949,2.79142 0.77273,3.62892 0.76454,3.64878 0.8386,4.14779 1.06982,5.39909 1.8281,9.67187 6.87734,40.16413 1.15348,7.11933 1.60782,10.13251 0.92126,5.84164 1.32152,8.4555 1.16208,7.49894 1.37533,8.88195 1.54355,9.9654 2.59927,16.66695 1.46572,9.30693 2.4588,15.285 0.86646,5.26138 1.07072,6.44302 4.53339,25.92508 1.40644,7.48541 0.77519,4.00584 4.87313,22.83209 0.28754,1.22194 0.32868,1.28938 1.14916,4.68923 0.76518,2.91171 1.33842,4.81735 4.03641,12.11162 0.59713,1.47209 0.44186,0.92826 0.22935,0.59279 0.39019,0.84141 0.8776,1.77713 0.28187,0.58161 0.77565,1.29896 0.17639,0.3483 0.64534,1.0525 1.41801,1.8984 2.03008,1.92774 0.62435,0.27406 1.55155,0.30598 2.25541,0.11204 0.9472,-0.075 0.26401,-0.23608 0.21075,-0.14621 0.90222,-0.46229 0.18508,-0.18285 0.38133,-0.43347 1.07315,-1.06404 1.73095,-2.34204 0.34282,-0.50528 2.2497,-4.25564 0.39194,-0.90007 0.80104,-1.88498 0.44817,-1.05062 0.12365,-0.41818 1.92032,-5.29693 0.64204,-2.03273 2.13478,-7.24738 3.5863,-14.31275 0.39083,-1.77505 5.24697,-25.54908 1.07149,-5.74316 5.47187,-31.69268 2.24732,-13.81145 5.3524,-34.12542 1.28348,-8.31086 1.5365,-9.91054 1.93903,-12.41483 1.14107,-7.2915 1.15258,-7.22883 0.78452,-4.9058 1.47218,-9.15926 0.99921,-6.05446 1.09619,-6.5349 0.14338,-0.98813 0.49452,-2.86923 0.006,0.003 0.0285,-0.005 0.021,-0.0806 1.82668,-10.7333 0.0292,0.0128 0.0666,-0.43594 0.2996,-1.98199 0.11935,-0.36326 0.28139,-1.89018 0.12866,-0.34972 0.26898,-1.78438 0.70406,-3.59809 0.0116,0.005 0.12295,-1.0166 1.69512,-8.8092 0.0347,0.0228 0.0414,-0.15191 0.3517,-2.01046 0.002,9.5e-4 0.0364,-0.0214 1.38992,-7.2009 0.0505,0.0572 0.0395,-0.1482 0.31942,-1.84448 0.0104,0.003 0.0417,0.0339 0.0148,-0.0304 0.7724,-3.88718 0.0195,0.0153 0.0229,0.009 0.11116,-0.82168 0.22013,-1.01109 0.23463,-1.04581 0.0494,0.0606 0.10567,-0.71426 0.26443,-1.14105 0.0319,0.0205 0.29525,-1.4438 0.27948,-1.27594 0.12817,-0.44248 0.32151,-1.44615 0.0613,-0.0964 0.55482,-2.52656 0.0338,0.0326 0.027,-4.7e-4 0.0246,-0.094 0.34491,-1.63845 0.009,0.0172 0.0333,0.0315 0.0222,-0.0639 0.34498,-1.66181 0.0486,0.0546 0.0423,-0.17594 0.32016,-1.49751 0.0134,0.003 0.0387,0.0175 0.0317,-0.099 0.38123,-1.51797 0.25954,-0.99655 0.29978,-1.24753 0.0906,-0.0799 0.33201,-1.466356 0.0111,0.01562 0.038,0.0634 0.0312,-0.07949 0.33531,-1.459753 0.02,0.01535 0.0301,0.0107 0.0203,-0.05041 0.52883,-2.062015 0.031,0.0385 0.0414,0.02874 0.0224,-0.07411 0.33678,-1.395004 0.0255,0.01514 0.0312,0.0103 0.0293,-0.0881 0.32707,-1.339072 0.0487,0.08387 0.009,0.014 0.0403,-0.08784 0.31378,-1.206275 0.14482,-0.332227 0.0802,-0.420735 0.0873,0.02558 0.36112,-1.255409 0.009,0.0028 0.0381,0.01313 0.0347,-0.09679 0.34087,-1.213611 0.019,0.01662 0.0504,0.09113 0.0489,-0.140066 0.35061,-1.279101 0.0258,0.04913 0.0235,0.04705 0.0537,-0.129634 0.10654,-0.52533 0.0828,0.1367 0.0883,-0.443889 0.0668,-0.339361 0.0765,0.100354 0.0889,-0.467446 0.0642,-0.259536 0.0611,0.143835 0.0427,-0.09591 0.12078,-0.56834 0.0518,0.143969 0.0241,0.02739 0.0324,-0.108566 0.364,-1.248678 0.0797,0.101432 0.0324,-0.126941 0.10797,-0.506687 0.0656,0.156085 0.0226,0.003 0.029,-0.09706 0.11161,-0.504869 0.0742,0.124046 0.0915,-0.44537 0.0666,-0.327179 0.0682,0.178969 0.0143,0.007 0.0294,-0.09611 0.11936,-0.620368 0.0713,0.204479 0.0141,0.01016 0.0352,-0.118326 0.11142,-0.542292 0.0554,0.173181 0.031,0.05963 0.0322,-0.08535 0.12786,-0.576551 0.0881,0.05311 0.39077,-1.131632 0.0449,0.114826 0.0357,0.06751 0.0517,-0.152921 0.11302,-0.418246 0.0534,0.166922 0.0695,-0.09504 0.21578,-0.441533 0.38475,-1.054296 0.0365,0.07114 0.0555,0.11873 0.0353,-0.09591 0.12755,-0.454927 0.054,0.159585 0.0253,0.03897 0.0474,-0.117921 0.10994,-0.395159 0.0546,0.151642 0.0394,0.06899 0.0448,-0.127345 0.37603,-0.992104 0.0886,0.164969 0.0505,-0.147267 0.11311,-0.406534 0.05,0.132258 0.019,0.04718 0.0643,-0.108499 0.1143,-0.389101 0.0519,0.13495 0.0395,0.07168 0.0457,-0.115095 0.11096,-0.350602 0.0474,0.115768 0.0456,0.09019 0.0485,-0.107489 0.11193,-0.307997 0.0505,0.131047 0.0367,0.07437 0.0616,-0.130306 0.12533,-0.375573 0.0948,0.03722 0.4204,-0.831241 0.0444,0.09282 0.0272,0.06058 0.0716,-0.107153 0.11539,-0.330612 0.0433,0.105268 0.049,0.08131 0.0247,-0.0418 0.15265,-0.343803 0.0379,0.103047 0.0461,0.05701 0.0506,-0.110788 0.10374,-0.254824 0.0562,0.123576 0.0484,0.05694 0.0433,-0.08541 0.12838,-0.219488 0.031,0.0768 0.0573,0.07249 0.041,-0.0733 0.10903,-0.224334 0.0454,0.08804 0.063,0.08333 0.0525,-0.09396 0.0984,-0.166114 0.0531,0.09854 0.0545,0.0562 0.053,-0.08689 0.10939,-0.138315 0.0354,0.07202 0.0499,0.06832 0.0644,-0.08407 0.0955,-0.132864 0.0564,0.0949 0.0553,0.04388 0.0272,-0.03527 0.13416,-0.144172 0.0342,0.06287 0.0557,0.0597 0.0656,-0.07909 0.0984,-0.09248 0.0273,0.04153 0.0697,0.08063 0.0618,-0.06919 0.0929,-0.09558 0.0426,0.05876 0.0894,0.04631 0.0294,-0.03359 0.10196,-0.09988 0.0443,0.06381 0.0838,0.03581 0.0375,-0.04281 0.0954,-0.08023 0.0335,0.04321 0.0821,0.06414 0.0474,-0.0488 0.0935,-0.084 0.0494,0.07034 0.0587,0.04483 0.0638,-0.05748 0.10286,-0.05829 0.0317,0.04429 0.0742,0.04732 0.0513,-0.04913 0.0958,-0.06408 0.0429,0.05674 0.0957,0.02147 0.0357,-0.03675 0.0899,-0.05001 0.0435,0.05836 0.1561,-0.05142 0.072,-0.0058 0.0277,0.03911 0.0701,0.04355 0.0585,-0.04765 0.0959,-0.05122 0.0407,0.05142 0.11661,0.0022 0.004,-0.0048 0.0964,-0.05997 0.0453,0.05842 0.1003,0.01434 0.0268,-0.02645 0.0732,-0.05842 0.0645,0.06946 0.0958,0.01137 0.0301,-0.03002 0.10193,-0.03318 0.0377,0.05162 0.0907,0.009 0.0252,-0.02383 0.10069,-0.04839 0.0372,0.04738 0.0884,0.03103 0.043,-0.04025 0.0528,-0.03056 0.0428,0.08703 0.11119,0.235373 0.0451,-0.04328 0.0789,0.06017 0.11315,0.198421 0.0529,-0.03877 1.29509,1.004758 0.68877,0.71877 0.31898,0.307054 0.32659,0.560667 0.42038,0.493764 0.27905,0.418312 0.46569,0.745828 0.37829,0.574465 0.28235,0.563696 0.18192,0.290631 1.68728,3.347779 0.31241,0.719781 0.2937,0.621579 0.30267,0.810376 0.28107,0.58032 0.36638,0.981941 0.45889,1.251101 1.10299,3.091407 0.72487,2.148505 0.54285,1.759874 1.38942,4.663764 1.94129,7.243108 0.4659,1.83983 0.29831,1.19982 0.33044,1.28495 0.53992,2.29651 0.63378,2.81922 2.5353,11.56919 3.41014,17.3456 3.45875,19.32315 1.17927,6.89458 0.76402,4.57135 1.2507,7.5478 0.93826,5.73502 2.34458,14.65844 1.88181,12.02264 1.17578,7.52363 1.11151,7.16449 1.13304,7.30987 0.90654,5.83685 2.07229,13.32126 1.42217,9.11282 1.19513,7.5517 1.08152,6.77962 2.54572,15.55322 4.14519,24.06338 2.3842,12.86127 2.17579,10.91671 1.85363,8.77476 0.57321,2.56122 0.32695,1.4127 0.46896,1.98239 0.1041,0.49855 0.30263,1.18797 0.6153,2.61464 0.78176,3.15956 0.81422,3.13408 1.1889,4.27677 0.69943,2.43638 0.8384,2.6828 1.18635,3.53983 2.60346,6.77748 0.12916,0.38438 0.59183,1.23039 0.13598,0.3027 0.37835,0.85307 1.10709,2.04627 0.37656,0.58802 0.49118,0.85908 0.47852,0.59702 0.21022,0.32252 0.42779,0.67372 1.41493,1.53824 0.41238,0.46106 0.59176,0.42886 1.40416,0.4993 1.51337,0.17847 2.50383,0.0487 0.35594,-0.32541 0.39523,-0.28298 0.36756,-0.1898 0.64161,-0.4704 0.29579,-0.30254 0.70354,-0.61638 0.36832,-0.50487 0.50158,-0.48517 0.23917,-0.38756 0.45974,-0.64863 0.29129,-0.41918 0.3924,-0.65885 0.48883,-0.77054 0.46272,-0.79063 0.17315,-0.37929 2.41194,-5.15851 0.30097,-0.76122 1.43928,-3.84659 4.18063,-13.8138 0.43922,-1.72788 1.09758,-4.3234 0.41243,-1.74547 0.62183,-2.49268 0.49275,-2.21161 0.13434,-0.58467 0.75092,-3.33185 1.25056,-5.79551 2.50111,-12.42646 1.5578,-8.2636 1.38751,-7.61948 5.07969,-29.83845 6.56689,-41.50414 v 0"
       clip-path="url(#pa83a2b1b10)"
       style="fill:none;stroke:#2ca02c;stroke-width:1.5;stroke-linecap:square"
       id="path410" />
  </g>
  <g
     id="patch_7"
     transform="translate(-56.61375,-55.5872)"
     style="fill:#000000">
    <path
       d="M 85.59,415.2384 V 55.9872"
       style="fill:#000000;stroke:#ffffff;stroke-width:0.8;stroke-linecap:square;stroke-linejoin:miter"
       id="path413" />
  </g>
  <g
     id="patch_8"
     transform="translate(-56.61375,-55.5872)"
     style="fill:#000000">
    <path
       d="M 616.248,415.2384 V 55.9872"
       style="fill:#000000;stroke:#ffffff;stroke-width:0.8;stroke-linecap:square;stroke-linejoin:miter"
       id="path416" />
  </g>
  <g
     id="patch_9"
     transform="translate(-56.61375,-55.5872)"
     style="fill:#000000">
    <path
       d="M 85.59,415.2384 H 616.248"
       style="fill:#000000;stroke:#ffffff;stroke-width:0.8;stroke-linecap:square;stroke-linejoin:miter"
       id="path419" />
  </g>
  <g
     id="patch_10"
     transform="translate(-56.61375,-55.5872)">
    <path
       d="M 85.59,55.9872 H 616.248"
       style="fill:none;stroke:#ffffff;stroke-width:0.8;stroke-linecap:square;stroke-linejoin:miter"
       id="path422" />
  </g>
  <g
     id="patch_11"
     style="fill:#808080"
     transform="translate(-56.61375,-55.5872)">
    <path
       d="M 502.30269,119.77564 H 609.248 q 2,0 2,-2 V 62.9872 q 0,-2 -2,-2 H 502.30269 q -2,0 -2,2 v 54.78844 q 0,2 2,2 z"
       style="opacity:0.8;fill:#808080;stroke:#cccccc;stroke-linejoin:miter"
       id="path425" />
  </g>
  <g
     id="line2d_22"
     style="fill:#ffffff"
     transform="translate(-56.61375,-55.5872)">
    <path
       d="m 504.30269,69.085638 h 10 10"
       style="fill:#ffffff;stroke:#1f77b4;stroke-width:1.5;stroke-linecap:square"
       id="path428" />
  </g>
  <g
     id="text_22"
     style="fill:#ffffff"
     transform="translate(-56.61375,-55.5872)">
    <!-- V(input_signal) -->
    <g
       transform="matrix(0.1,0,0,-0.1,532.30269,72.585638)"
       id="g467"
       style="fill:#ffffff">
      <defs
         id="defs435">
        <path
           id="DejaVuSans-28"
           d="m 1984,4856 q -418,-718 -622,-1422 -203,-703 -203,-1425 0,-721 205,-1429 205,-708 620,-1424 h -500 q -468,735 -701,1444 -233,709 -233,1409 0,697 231,1403 232,707 703,1444 z"
           transform="scale(0.015625)" />
        <path
           id="DejaVuSans-70"
           d="M 1159,525 V -1331 H 581 v 4831 h 578 v -531 q 182,312 458,463 277,152 661,152 638,0 1036,-506 399,-506 399,-1331 0,-825 -399,-1332 -398,-506 -1036,-506 -384,0 -661,152 -276,152 -458,464 z m 1957,1222 q 0,634 -261,995 -261,361 -717,361 -457,0 -718,-361 -261,-361 -261,-995 0,-634 261,-995 261,-361 718,-361 456,0 717,361 261,361 261,995 z"
           transform="scale(0.015625)" />
        <path
           id="DejaVuSans-5f"
           d="m 3263,-1063 v -446 H -63 v 446 z"
           transform="scale(0.015625)" />
        <path
           id="DejaVuSans-29"
           d="m 513,4856 h 500 q 468,-737 701,-1444 233,-706 233,-1403 0,-700 -233,-1409 -233,-709 -701,-1444 H 513 q 415,716 620,1424 205,708 205,1429 0,722 -205,1425 -205,704 -620,1422 z"
           transform="scale(0.015625)" />
      </defs>
      <use
         xlink:href="#DejaVuSans-56"
         id="use437"
         style="fill:#ffffff" />
      <use
         xlink:href="#DejaVuSans-28"
         x="68.408203"
         id="use439"
         style="fill:#ffffff" />
      <use
         xlink:href="#DejaVuSans-69"
         x="107.42188"
         id="use441"
         style="fill:#ffffff" />
      <use
         xlink:href="#DejaVuSans-6e"
         x="135.20508"
         id="use443"
         style="fill:#ffffff" />
      <use
         xlink:href="#DejaVuSans-70"
         x="198.58398"
         id="use445"
         style="fill:#ffffff" />
      <use
         xlink:href="#DejaVuSans-75"
         x="262.06055"
         id="use447"
         style="fill:#ffffff" />
      <use
         xlink:href="#DejaVuSans-74"
         x="325.43945"
         id="use449"
         style="fill:#ffffff" />
      <use
         xlink:href="#DejaVuSans-5f"
         x="364.64844"
         id="use451"
         style="fill:#ffffff" />
      <use
         xlink:href="#DejaVuSans-73"
         x="414.64844"
         id="use453"
         style="fill:#ffffff" />
      <use
         xlink:href="#DejaVuSans-69"
         x="466.74805"
         id="use455"
         style="fill:#ffffff" />
      <use
         xlink:href="#DejaVuSans-67"
         x="494.53125"
         id="use457"
         style="fill:#ffffff" />
      <use
         xlink:href="#DejaVuSans-6e"
         x="558.00781"
         id="use459"
         style="fill:#ffffff" />
      <use
         xlink:href="#DejaVuSans-61"
         x="621.38672"
         id="use461"
         style="fill:#ffffff" />
      <use
         xlink:href="#DejaVuSans-6c"
         x="682.66602"
         id="use463"
         style="fill:#ffffff" />
      <use
         xlink:href="#DejaVuSans-29"
         x="710.44922"
         id="use465"
         style="fill:#ffffff" />
    </g>
  </g>
  <g
     id="line2d_23"
     style="fill:#ffffff"
     transform="translate(-56.61375,-55.5872)">
    <path
       d="m 504.30269,84.041888 h 10 10"
       style="fill:#ffffff;stroke:#ff7f0e;stroke-width:1.5;stroke-linecap:square"
       id="path470" />
  </g>
  <g
     id="text_23"
     style="fill:#ffffff"
     transform="translate(-56.61375,-55.5872)">
    <!-- V(v_out) -->
    <g
       transform="matrix(0.1,0,0,-0.1,532.30269,87.541888)"
       id="g492"
       style="fill:#ffffff">
      <defs
         id="defs474">
        <path
           id="DejaVuSans-76"
           d="M 191,3500 H 800 L 1894,563 2988,3500 h 609 L 2284,0 h -781 z"
           transform="scale(0.015625)" />
      </defs>
      <use
         xlink:href="#DejaVuSans-56"
         id="use476"
         style="fill:#ffffff" />
      <use
         xlink:href="#DejaVuSans-28"
         x="68.408203"
         id="use478"
         style="fill:#ffffff" />
      <use
         xlink:href="#DejaVuSans-76"
         x="107.42188"
         id="use480"
         style="fill:#ffffff" />
      <use
         xlink:href="#DejaVuSans-5f"
         x="166.60156"
         id="use482"
         style="fill:#ffffff" />
      <use
         xlink:href="#DejaVuSans-6f"
         x="216.60156"
         id="use484"
         style="fill:#ffffff" />
      <use
         xlink:href="#DejaVuSans-75"
         x="277.7832"
         id="use486"
         style="fill:#ffffff" />
      <use
         xlink:href="#DejaVuSans-74"
         x="341.16211"
         id="use488"
         style="fill:#ffffff" />
      <use
         xlink:href="#DejaVuSans-29"
         x="380.37109"
         id="use490"
         style="fill:#ffffff" />
    </g>
  </g>
  <g
     id="line2d_24"
     style="fill:#ffffff"
     transform="translate(-56.61375,-55.5872)">
    <path
       d="m 504.30269,105.63689 h 10 10"
       style="fill:#ffffff;stroke:#2ca02c;stroke-width:1.5;stroke-linecap:square"
       id="path495" />
  </g>
  <g
     id="text_24"
     style="fill:#ffffff"
     transform="translate(-56.61375,-55.5872)">
    <!-- I(Speaker) -->
    <g
       transform="matrix(0.1,0,0,-0.1,532.30269,102.49814)"
       id="g523"
       style="fill:#ffffff">
      <defs
         id="defs501">
        <path
           id="DejaVuSans-49"
           d="m 628,4666 h 631 V 0 H 628 Z"
           transform="scale(0.015625)" />
        <path
           id="DejaVuSans-53"
           d="m 3425,4513 v -616 q -359,172 -678,256 -319,85 -616,85 -515,0 -795,-200 -280,-200 -280,-569 0,-310 186,-468 186,-157 705,-254 l 381,-78 q 706,-135 1042,-474 336,-339 336,-907 0,-679 -455,-1029 -454,-350 -1332,-350 -331,0 -705,75 -373,75 -773,222 v 650 q 384,-215 753,-325 369,-109 725,-109 540,0 834,212 294,213 294,607 0,343 -211,537 -211,194 -692,291 l -385,75 q -706,140 -1022,440 -315,300 -315,835 0,619 436,975 436,356 1201,356 329,0 669,-60 341,-59 697,-177 z"
           transform="scale(0.015625)" />
        <path
           id="DejaVuSans-6b"
           d="m 581,4863 h 578 V 1991 l 1716,1509 h 734 L 1753,1863 3688,0 H 2938 L 1159,1709 V 0 H 581 Z"
           transform="scale(0.015625)" />
      </defs>
      <use
         xlink:href="#DejaVuSans-49"
         id="use503"
         style="fill:#ffffff" />
      <use
         xlink:href="#DejaVuSans-28"
         x="29.492188"
         id="use505"
         style="fill:#ffffff" />
      <use
         xlink:href="#DejaVuSans-53"
         x="68.505859"
         id="use507"
         style="fill:#ffffff" />
      <use
         xlink:href="#DejaVuSans-70"
         x="131.98242"
         id="use509"
         style="fill:#ffffff" />
      <use
         xlink:href="#DejaVuSans-65"
         x="195.45898"
         id="use511"
         style="fill:#ffffff" />
      <use
         xlink:href="#DejaVuSans-61"
         x="256.98242"
         id="use513"
         style="fill:#ffffff" />
      <use
         xlink:href="#DejaVuSans-6b"
         x="318.26172"
         id="use515"
         style="fill:#ffffff" />
      <use
         xlink:href="#DejaVuSans-65"
         x="372.54688"
         id="use517"
         style="fill:#ffffff" />
      <use
         xlink:href="#DejaVuSans-72"
         x="434.07031"
         id="use519"
         style="fill:#ffffff" />
      <use
         xlink:href="#DejaVuSans-29"
         x="475.18359"
         id="use521"
         style="fill:#ffffff" />
    </g>
    <!--  -->
    <g
       transform="matrix(0.1,0,0,-0.1,532.30269,113.69595)"
       id="g525"
       style="fill:#ffffff" />
  </g>
  <defs
     id="defs534">
    <clipPath
       id="pa83a2b1b10">
      <rect
         x="85.589996"
         y="55.987202"
         width="530.65802"
         height="359.25119"
         id="rect531" />
    </clipPath>
  </defs>
</svg>
