<?xml version="1.0" encoding="UTF-8" standalone="no"?>
<svg
   width="803.93488pt"
   height="297.89075pt"
   viewBox="0 0 803.93488 297.89074"
   version="1.1"
   id="svg441"
   sodipodi:docname="LowPassFilterTransientSimulation.svg"
   inkscape:version="1.2.2 (732a01da63, 2022-12-09)"
   xmlns:inkscape="http://www.inkscape.org/namespaces/inkscape"
   xmlns:sodipodi="http://sodipodi.sourceforge.net/DTD/sodipodi-0.dtd"
   xmlns:xlink="http://www.w3.org/1999/xlink"
   xmlns="http://www.w3.org/2000/svg"
   xmlns:svg="http://www.w3.org/2000/svg"
   xmlns:rdf="http://www.w3.org/1999/02/22-rdf-syntax-ns#"
   xmlns:cc="http://creativecommons.org/ns#"
   xmlns:dc="http://purl.org/dc/elements/1.1/">
  <sodipodi:namedview
     id="namedview443"
     pagecolor="#9e9e9e"
     bordercolor="#000000"
     borderopacity="0.25"
     inkscape:showpageshadow="2"
     inkscape:pageopacity="0"
     inkscape:pagecheckerboard="0"
     inkscape:deskcolor="#d1d1d1"
     inkscape:document-units="pt"
     showgrid="false"
     inkscape:zoom="0.91934112"
     inkscape:cx="462.83147"
     inkscape:cy="176.21316"
     inkscape:window-width="2560"
     inkscape:window-height="1377"
     inkscape:window-x="1912"
     inkscape:window-y="-8"
     inkscape:window-maximized="1"
     inkscape:current-layer="svg441" />
  <metadata
     id="metadata2">
    <rdf:RDF>
      <cc:Work>
        <dc:type
           rdf:resource="http://purl.org/dc/dcmitype/StillImage" />
        <dc:date>2023-02-27T17:58:49.646857</dc:date>
        <dc:format>image/svg+xml</dc:format>
        <dc:creator>
          <cc:Agent>
            <dc:title>Matplotlib v3.7.0, https://matplotlib.org/</dc:title>
          </cc:Agent>
        </dc:creator>
      </cc:Work>
    </rdf:RDF>
  </metadata>
  <defs
     id="defs6">
    <style
       type="text/css"
       id="style4">*{stroke-linejoin: round; stroke-linecap: butt}</style>
  </defs>
  <g
     id="matplotlib.axis_1"
     transform="translate(-84.873125,-41.072)"
     style="fill:#ffffff">
    <g
       id="xtick_1"
       style="fill:#ffffff">
      <g
         id="line2d_1"
         style="fill:#ffffff">
        <defs
           id="defs15">
          <path
             id="me391384a90"
             d="M 0,0 V 3.5"
             style="stroke:#ffffff;stroke-width:0.8" />
        </defs>
        <g
           id="g19"
           style="fill:#ffffff">
          <use
             xlink:href="#me391384a90"
             x="158.16354"
             y="307.58401"
             style="stroke:#ffffff;stroke-width:0.8;fill:#ffffff"
             id="use17" />
        </g>
      </g>
      <g
         id="text_1"
         style="fill:#ffffff">
        <!-- 0.0 -->
        <g
           transform="matrix(0.1,0,0,-0.1,150.21198,322.18244)"
           id="g32"
           style="fill:#ffffff">
          <defs
             id="defs24">
            <path
               id="DejaVuSans-30"
               d="m 2034,4250 q -487,0 -733,-480 -245,-479 -245,-1442 0,-959 245,-1439 246,-480 733,-480 491,0 736,480 246,480 246,1439 0,963 -246,1442 -245,480 -736,480 z m 0,500 q 785,0 1199,-621 414,-620 414,-1801 0,-1178 -414,-1799 -414,-620 -1199,-620 -784,0 -1198,620 -414,621 -414,1799 0,1181 414,1801 414,621 1198,621 z"
               transform="scale(0.015625)" />
            <path
               id="DejaVuSans-2e"
               d="m 684,794 h 660 V 0 H 684 Z"
               transform="scale(0.015625)" />
          </defs>
          <use
             xlink:href="#DejaVuSans-30"
             id="use26"
             style="fill:#ffffff" />
          <use
             xlink:href="#DejaVuSans-2e"
             x="63.623047"
             id="use28"
             style="fill:#ffffff" />
          <use
             xlink:href="#DejaVuSans-30"
             x="95.410156"
             id="use30"
             style="fill:#ffffff" />
        </g>
      </g>
    </g>
    <g
       id="xtick_2"
       style="fill:#ffffff">
      <g
         id="line2d_2"
         style="fill:#ffffff">
        <g
           id="g38"
           style="fill:#ffffff">
          <use
             xlink:href="#me391384a90"
             x="297.25772"
             y="307.58401"
             style="stroke:#ffffff;stroke-width:0.8;fill:#ffffff"
             id="use36" />
        </g>
      </g>
      <g
         id="text_2"
         style="fill:#ffffff">
        <!-- 0.2 -->
        <g
           transform="matrix(0.1,0,0,-0.1,289.30617,322.18244)"
           id="g50"
           style="fill:#ffffff">
          <defs
             id="defs42">
            <path
               id="DejaVuSans-32"
               d="M 1228,531 H 3431 V 0 H 469 v 531 q 359,372 979,998 621,627 780,809 303,340 423,576 121,236 121,464 0,372 -261,606 -261,235 -680,235 -297,0 -627,-103 -329,-103 -704,-313 v 638 q 381,153 712,231 332,78 607,78 725,0 1156,-363 431,-362 431,-968 0,-288 -108,-546 -107,-257 -392,-607 -78,-91 -497,-524 Q 1991,1309 1228,531 Z"
               transform="scale(0.015625)" />
          </defs>
          <use
             xlink:href="#DejaVuSans-30"
             id="use44"
             style="fill:#ffffff" />
          <use
             xlink:href="#DejaVuSans-2e"
             x="63.623047"
             id="use46"
             style="fill:#ffffff" />
          <use
             xlink:href="#DejaVuSans-32"
             x="95.410156"
             id="use48"
             style="fill:#ffffff" />
        </g>
      </g>
    </g>
    <g
       id="xtick_3"
       style="fill:#ffffff">
      <g
         id="line2d_3"
         style="fill:#ffffff">
        <g
           id="g56"
           style="fill:#ffffff">
          <use
             xlink:href="#me391384a90"
             x="436.3519"
             y="307.58401"
             style="stroke:#ffffff;stroke-width:0.8;fill:#ffffff"
             id="use54" />
        </g>
      </g>
      <g
         id="text_3"
         style="fill:#ffffff">
        <!-- 0.4 -->
        <g
           transform="matrix(0.1,0,0,-0.1,428.40035,322.18244)"
           id="g68"
           style="fill:#ffffff">
          <defs
             id="defs60">
            <path
               id="DejaVuSans-34"
               d="M 2419,4116 825,1625 h 1594 z m -166,550 h 794 V 1625 h 666 V 1100 H 3047 V 0 H 2419 V 1100 H 313 v 609 z"
               transform="scale(0.015625)" />
          </defs>
          <use
             xlink:href="#DejaVuSans-30"
             id="use62"
             style="fill:#ffffff" />
          <use
             xlink:href="#DejaVuSans-2e"
             x="63.623047"
             id="use64"
             style="fill:#ffffff" />
          <use
             xlink:href="#DejaVuSans-34"
             x="95.410156"
             id="use66"
             style="fill:#ffffff" />
        </g>
      </g>
    </g>
    <g
       id="xtick_4"
       style="fill:#ffffff">
      <g
         id="line2d_4"
         style="fill:#ffffff">
        <g
           id="g74"
           style="fill:#ffffff">
          <use
             xlink:href="#me391384a90"
             x="575.44611"
             y="307.58401"
             style="stroke:#ffffff;stroke-width:0.8;fill:#ffffff"
             id="use72" />
        </g>
      </g>
      <g
         id="text_4"
         style="fill:#ffffff">
        <!-- 0.6 -->
        <g
           transform="matrix(0.1,0,0,-0.1,567.49453,322.18244)"
           id="g86"
           style="fill:#ffffff">
          <defs
             id="defs78">
            <path
               id="DejaVuSans-36"
               d="m 2113,2584 q -425,0 -674,-291 -248,-290 -248,-796 0,-503 248,-796 249,-292 674,-292 425,0 673,292 248,293 248,796 0,506 -248,796 -248,291 -673,291 z m 1253,1979 v -575 q -238,112 -480,171 -242,60 -480,60 -625,0 -955,-422 -329,-422 -376,-1275 184,272 462,417 279,145 613,145 703,0 1111,-427 408,-426 408,-1160 0,-719 -425,-1154 -425,-434 -1131,-434 -810,0 -1238,620 -428,621 -428,1799 0,1106 525,1764 525,658 1409,658 238,0 480,-47 242,-47 505,-140 z"
               transform="scale(0.015625)" />
          </defs>
          <use
             xlink:href="#DejaVuSans-30"
             id="use80"
             style="fill:#ffffff" />
          <use
             xlink:href="#DejaVuSans-2e"
             x="63.623047"
             id="use82"
             style="fill:#ffffff" />
          <use
             xlink:href="#DejaVuSans-36"
             x="95.410156"
             id="use84"
             style="fill:#ffffff" />
        </g>
      </g>
    </g>
    <g
       id="xtick_5"
       style="fill:#ffffff">
      <g
         id="line2d_5"
         style="fill:#ffffff">
        <g
           id="g92"
           style="fill:#ffffff">
          <use
             xlink:href="#me391384a90"
             x="714.54028"
             y="307.58401"
             style="stroke:#ffffff;stroke-width:0.8;fill:#ffffff"
             id="use90" />
        </g>
      </g>
      <g
         id="text_5"
         style="fill:#ffffff">
        <!-- 0.8 -->
        <g
           transform="matrix(0.1,0,0,-0.1,706.58871,322.18244)"
           id="g104"
           style="fill:#ffffff">
          <defs
             id="defs96">
            <path
               id="DejaVuSans-38"
               d="m 2034,2216 q -450,0 -708,-241 -257,-241 -257,-662 0,-422 257,-663 258,-241 708,-241 450,0 709,242 260,243 260,662 0,421 -258,662 -257,241 -711,241 z m -631,268 q -406,100 -633,378 -226,279 -226,679 0,559 398,884 399,325 1092,325 697,0 1094,-325 397,-325 397,-884 0,-400 -227,-679 -226,-278 -629,-378 456,-106 710,-416 255,-309 255,-755 Q 3634,634 3220,271 2806,-91 2034,-91 1263,-91 848,271 434,634 434,1313 q 0,446 256,755 257,310 713,416 z m -231,997 q 0,-362 226,-565 227,-203 636,-203 407,0 636,203 230,203 230,565 0,363 -230,566 -229,203 -636,203 -409,0 -636,-203 -226,-203 -226,-566 z"
               transform="scale(0.015625)" />
          </defs>
          <use
             xlink:href="#DejaVuSans-30"
             id="use98"
             style="fill:#ffffff" />
          <use
             xlink:href="#DejaVuSans-2e"
             x="63.623047"
             id="use100"
             style="fill:#ffffff" />
          <use
             xlink:href="#DejaVuSans-38"
             x="95.410156"
             id="use102"
             style="fill:#ffffff" />
        </g>
      </g>
    </g>
    <g
       id="xtick_6"
       style="fill:#ffffff">
      <g
         id="line2d_6"
         style="fill:#ffffff">
        <g
           id="g110"
           style="fill:#ffffff">
          <use
             xlink:href="#me391384a90"
             x="853.63446"
             y="307.58401"
             style="stroke:#ffffff;stroke-width:0.8;fill:#ffffff"
             id="use108" />
        </g>
      </g>
      <g
         id="text_6"
         style="fill:#ffffff">
        <!-- 1.0 -->
        <g
           transform="matrix(0.1,0,0,-0.1,845.68289,322.18244)"
           id="g122"
           style="fill:#ffffff">
          <defs
             id="defs114">
            <path
               id="DejaVuSans-31"
               d="M 794,531 H 1825 V 4091 L 703,3866 v 575 l 1116,225 h 631 V 531 H 3481 V 0 H 794 Z"
               transform="scale(0.015625)" />
          </defs>
          <use
             xlink:href="#DejaVuSans-31"
             id="use116"
             style="fill:#ffffff" />
          <use
             xlink:href="#DejaVuSans-2e"
             x="63.623047"
             id="use118"
             style="fill:#ffffff" />
          <use
             xlink:href="#DejaVuSans-30"
             x="95.410156"
             id="use120"
             style="fill:#ffffff" />
        </g>
      </g>
    </g>
    <g
       id="text_7"
       style="fill:#ffffff">
      <!-- Time [ms] -->
      <g
         transform="matrix(0.12,0,0,-0.12,475.65994,337.38025)"
         id="g154"
         style="fill:#ffffff">
        <defs
           id="defs134">
          <path
             id="DejaVuSans-54"
             d="M -19,4666 H 3928 V 4134 H 2272 V 0 H 1638 V 4134 H -19 Z"
             transform="scale(0.015625)" />
          <path
             id="DejaVuSans-69"
             d="m 603,3500 h 575 V 0 H 603 Z m 0,1363 h 575 V 4134 H 603 Z"
             transform="scale(0.015625)" />
          <path
             id="DejaVuSans-6d"
             d="m 3328,2828 q 216,388 516,572 300,184 706,184 547,0 844,-383 297,-382 297,-1088 V 0 h -578 v 2094 q 0,503 -179,746 -178,244 -543,244 -447,0 -707,-297 -259,-296 -259,-809 V 0 h -578 v 2094 q 0,506 -178,748 -178,242 -550,242 -441,0 -701,-298 -259,-298 -259,-808 V 0 H 581 v 3500 h 578 v -544 q 197,322 472,475 275,153 653,153 382,0 649,-194 267,-193 395,-562 z"
             transform="scale(0.015625)" />
          <path
             id="DejaVuSans-65"
             d="M 3597,1894 V 1613 H 953 q 38,-594 358,-905 320,-311 892,-311 331,0 642,81 311,81 618,244 V 178 Q 3153,47 2828,-22 2503,-91 2169,-91 1331,-91 842,396 353,884 353,1716 q 0,859 464,1363 464,505 1252,505 706,0 1117,-455 411,-454 411,-1235 z m -575,169 q -6,471 -264,752 -258,282 -683,282 -481,0 -770,-272 -289,-272 -333,-766 z"
             transform="scale(0.015625)" />
          <path
             id="DejaVuSans-20"
             transform="scale(0.015625)"
             d="" />
          <path
             id="DejaVuSans-5b"
             d="M 550,4863 H 1875 V 4416 H 1125 V -397 h 750 V -844 H 550 Z"
             transform="scale(0.015625)" />
          <path
             id="DejaVuSans-73"
             d="m 2834,3397 v -544 q -243,125 -506,187 -262,63 -544,63 -428,0 -642,-131 -214,-131 -214,-394 0,-200 153,-314 153,-114 616,-217 l 197,-44 q 612,-131 870,-370 258,-239 258,-667 0,-488 -386,-773 Q 2250,-91 1575,-91 1294,-91 989,-36 684,19 347,128 v 594 q 319,-166 628,-249 309,-82 613,-82 406,0 624,139 219,139 219,392 0,234 -158,359 -157,125 -692,241 l -200,47 q -534,112 -772,345 -237,233 -237,639 0,494 350,762 350,269 994,269 318,0 599,-47 282,-46 519,-140 z"
             transform="scale(0.015625)" />
          <path
             id="DejaVuSans-5d"
             d="M 1947,4863 V -844 H 622 v 447 h 747 V 4416 H 622 v 447 z"
             transform="scale(0.015625)" />
        </defs>
        <use
           xlink:href="#DejaVuSans-54"
           id="use136"
           style="fill:#ffffff" />
        <use
           xlink:href="#DejaVuSans-69"
           x="57.958984"
           id="use138"
           style="fill:#ffffff" />
        <use
           xlink:href="#DejaVuSans-6d"
           x="85.742188"
           id="use140"
           style="fill:#ffffff" />
        <use
           xlink:href="#DejaVuSans-65"
           x="183.1543"
           id="use142"
           style="fill:#ffffff" />
        <use
           xlink:href="#DejaVuSans-20"
           x="244.67773"
           id="use144"
           style="fill:#ffffff" />
        <use
           xlink:href="#DejaVuSans-5b"
           x="276.46484"
           id="use146"
           style="fill:#ffffff" />
        <use
           xlink:href="#DejaVuSans-6d"
           x="315.47852"
           id="use148"
           style="fill:#ffffff" />
        <use
           xlink:href="#DejaVuSans-73"
           x="412.89062"
           id="use150"
           style="fill:#ffffff" />
        <use
           xlink:href="#DejaVuSans-5d"
           x="464.99023"
           id="use152"
           style="fill:#ffffff" />
      </g>
    </g>
  </g>
  <g
     id="matplotlib.axis_2"
     transform="translate(-84.873125,-41.072)"
     style="fill:#ffffff">
    <g
       id="ytick_1"
       style="fill:#ffffff">
      <g
         id="line2d_7"
         style="fill:#ffffff">
        <defs
           id="defs159">
          <path
             id="md89160f729"
             d="M 0,0 H -3.5"
             style="stroke:#ffffff;stroke-width:0.8" />
        </defs>
        <g
           id="g163"
           style="fill:#ffffff">
          <use
             xlink:href="#md89160f729"
             x="123.39"
             y="295.96231"
             style="stroke:#ffffff;stroke-width:0.8;fill:#ffffff"
             id="use161" />
        </g>
      </g>
      <g
         id="text_8"
         style="fill:#ffffff">
        <!-- 0.5 -->
        <g
           transform="matrix(0.1,0,0,-0.1,100.48687,299.76154)"
           id="g175"
           style="fill:#ffffff">
          <defs
             id="defs167">
            <path
               id="DejaVuSans-35"
               d="M 691,4666 H 3169 V 4134 H 1269 V 2991 q 137,47 274,70 138,23 276,23 781,0 1237,-428 457,-428 457,-1159 Q 3513,744 3044,326 2575,-91 1722,-91 1428,-91 1123,-41 819,9 494,109 v 635 q 281,-153 581,-228 300,-75 634,-75 541,0 856,284 316,284 316,772 0,487 -316,771 -315,285 -856,285 -253,0 -505,-56 -251,-56 -513,-175 z"
               transform="scale(0.015625)" />
          </defs>
          <use
             xlink:href="#DejaVuSans-30"
             id="use169"
             style="fill:#ffffff" />
          <use
             xlink:href="#DejaVuSans-2e"
             x="63.623047"
             id="use171"
             style="fill:#ffffff" />
          <use
             xlink:href="#DejaVuSans-35"
             x="95.410156"
             id="use173"
             style="fill:#ffffff" />
        </g>
      </g>
    </g>
    <g
       id="ytick_2"
       style="fill:#ffffff">
      <g
         id="line2d_8"
         style="fill:#ffffff">
        <g
           id="g181"
           style="fill:#ffffff">
          <use
             xlink:href="#md89160f729"
             x="123.39"
             y="265.60571"
             style="stroke:#ffffff;stroke-width:0.8;fill:#ffffff"
             id="use179" />
        </g>
      </g>
      <g
         id="text_9"
         style="fill:#ffffff">
        <!-- 1.0 -->
        <g
           transform="matrix(0.1,0,0,-0.1,100.48687,269.40493)"
           id="g190"
           style="fill:#ffffff">
          <use
             xlink:href="#DejaVuSans-31"
             id="use184"
             style="fill:#ffffff" />
          <use
             xlink:href="#DejaVuSans-2e"
             x="63.623047"
             id="use186"
             style="fill:#ffffff" />
          <use
             xlink:href="#DejaVuSans-30"
             x="95.410156"
             id="use188"
             style="fill:#ffffff" />
        </g>
      </g>
    </g>
    <g
       id="ytick_3"
       style="fill:#ffffff">
      <g
         id="line2d_9"
         style="fill:#ffffff">
        <g
           id="g196"
           style="fill:#ffffff">
          <use
             xlink:href="#md89160f729"
             x="123.39"
             y="235.2491"
             style="stroke:#ffffff;stroke-width:0.8;fill:#ffffff"
             id="use194" />
        </g>
      </g>
      <g
         id="text_10"
         style="fill:#ffffff">
        <!-- 1.5 -->
        <g
           transform="matrix(0.1,0,0,-0.1,100.48687,239.04832)"
           id="g205"
           style="fill:#ffffff">
          <use
             xlink:href="#DejaVuSans-31"
             id="use199"
             style="fill:#ffffff" />
          <use
             xlink:href="#DejaVuSans-2e"
             x="63.623047"
             id="use201"
             style="fill:#ffffff" />
          <use
             xlink:href="#DejaVuSans-35"
             x="95.410156"
             id="use203"
             style="fill:#ffffff" />
        </g>
      </g>
    </g>
    <g
       id="ytick_4"
       style="fill:#ffffff">
      <g
         id="line2d_10"
         style="fill:#ffffff">
        <g
           id="g211"
           style="fill:#ffffff">
          <use
             xlink:href="#md89160f729"
             x="123.39"
             y="204.89249"
             style="stroke:#ffffff;stroke-width:0.8;fill:#ffffff"
             id="use209" />
        </g>
      </g>
      <g
         id="text_11"
         style="fill:#ffffff">
        <!-- 2.0 -->
        <g
           transform="matrix(0.1,0,0,-0.1,100.48687,208.69171)"
           id="g220"
           style="fill:#ffffff">
          <use
             xlink:href="#DejaVuSans-32"
             id="use214"
             style="fill:#ffffff" />
          <use
             xlink:href="#DejaVuSans-2e"
             x="63.623047"
             id="use216"
             style="fill:#ffffff" />
          <use
             xlink:href="#DejaVuSans-30"
             x="95.410156"
             id="use218"
             style="fill:#ffffff" />
        </g>
      </g>
    </g>
    <g
       id="ytick_5"
       style="fill:#ffffff">
      <g
         id="line2d_11"
         style="fill:#ffffff">
        <g
           id="g226"
           style="fill:#ffffff">
          <use
             xlink:href="#md89160f729"
             x="123.39"
             y="174.53587"
             style="stroke:#ffffff;stroke-width:0.8;fill:#ffffff"
             id="use224" />
        </g>
      </g>
      <g
         id="text_12"
         style="fill:#ffffff">
        <!-- 2.5 -->
        <g
           transform="matrix(0.1,0,0,-0.1,100.48687,178.3351)"
           id="g235"
           style="fill:#ffffff">
          <use
             xlink:href="#DejaVuSans-32"
             id="use229"
             style="fill:#ffffff" />
          <use
             xlink:href="#DejaVuSans-2e"
             x="63.623047"
             id="use231"
             style="fill:#ffffff" />
          <use
             xlink:href="#DejaVuSans-35"
             x="95.410156"
             id="use233"
             style="fill:#ffffff" />
        </g>
      </g>
    </g>
    <g
       id="ytick_6"
       style="fill:#ffffff">
      <g
         id="line2d_12"
         style="fill:#ffffff">
        <g
           id="g241"
           style="fill:#ffffff">
          <use
             xlink:href="#md89160f729"
             x="123.39"
             y="144.17926"
             style="stroke:#ffffff;stroke-width:0.8;fill:#ffffff"
             id="use239" />
        </g>
      </g>
      <g
         id="text_13"
         style="fill:#ffffff">
        <!-- 3.0 -->
        <g
           transform="matrix(0.1,0,0,-0.1,100.48687,147.97848)"
           id="g253"
           style="fill:#ffffff">
          <defs
             id="defs245">
            <path
               id="DejaVuSans-33"
               d="m 2597,2516 q 453,-97 707,-404 255,-306 255,-756 0,-690 -475,-1069 -475,-378 -1350,-378 -293,0 -604,58 -311,58 -642,174 v 609 q 262,-153 574,-231 313,-78 654,-78 593,0 904,234 311,234 311,681 0,413 -289,645 -289,233 -804,233 h -544 v 519 h 569 q 465,0 712,186 247,186 247,536 0,359 -255,551 -254,193 -729,193 -260,0 -557,-57 -297,-56 -653,-174 v 562 q 360,100 674,150 314,50 592,50 719,0 1137,-327 419,-326 419,-882 0,-388 -222,-655 -222,-267 -631,-370 z"
               transform="scale(0.015625)" />
          </defs>
          <use
             xlink:href="#DejaVuSans-33"
             id="use247"
             style="fill:#ffffff" />
          <use
             xlink:href="#DejaVuSans-2e"
             x="63.623047"
             id="use249"
             style="fill:#ffffff" />
          <use
             xlink:href="#DejaVuSans-30"
             x="95.410156"
             id="use251"
             style="fill:#ffffff" />
        </g>
      </g>
    </g>
    <g
       id="ytick_7"
       style="fill:#ffffff">
      <g
         id="line2d_13"
         style="fill:#ffffff">
        <g
           id="g259"
           style="fill:#ffffff">
          <use
             xlink:href="#md89160f729"
             x="123.39"
             y="113.82265"
             style="stroke:#ffffff;stroke-width:0.8;fill:#ffffff"
             id="use257" />
        </g>
      </g>
      <g
         id="text_14"
         style="fill:#ffffff">
        <!-- 3.5 -->
        <g
           transform="matrix(0.1,0,0,-0.1,100.48687,117.62187)"
           id="g268"
           style="fill:#ffffff">
          <use
             xlink:href="#DejaVuSans-33"
             id="use262"
             style="fill:#ffffff" />
          <use
             xlink:href="#DejaVuSans-2e"
             x="63.623047"
             id="use264"
             style="fill:#ffffff" />
          <use
             xlink:href="#DejaVuSans-35"
             x="95.410156"
             id="use266"
             style="fill:#ffffff" />
        </g>
      </g>
    </g>
    <g
       id="ytick_8"
       style="fill:#ffffff">
      <g
         id="line2d_14"
         style="fill:#ffffff">
        <g
           id="g274"
           style="fill:#ffffff">
          <use
             xlink:href="#md89160f729"
             x="123.39"
             y="83.466042"
             style="stroke:#ffffff;stroke-width:0.8;fill:#ffffff"
             id="use272" />
        </g>
      </g>
      <g
         id="text_15"
         style="fill:#ffffff">
        <!-- 4.0 -->
        <g
           transform="matrix(0.1,0,0,-0.1,100.48687,87.265263)"
           id="g283"
           style="fill:#ffffff">
          <use
             xlink:href="#DejaVuSans-34"
             id="use277"
             style="fill:#ffffff" />
          <use
             xlink:href="#DejaVuSans-2e"
             x="63.623047"
             id="use279"
             style="fill:#ffffff" />
          <use
             xlink:href="#DejaVuSans-30"
             x="95.410156"
             id="use281"
             style="fill:#ffffff" />
        </g>
      </g>
    </g>
    <g
       id="ytick_9"
       style="fill:#ffffff">
      <g
         id="line2d_15"
         style="fill:#ffffff">
        <g
           id="g289"
           style="fill:#ffffff">
          <use
             xlink:href="#md89160f729"
             x="123.39"
             y="53.109432"
             style="stroke:#ffffff;stroke-width:0.8;fill:#ffffff"
             id="use287" />
        </g>
      </g>
      <g
         id="text_16"
         style="fill:#ffffff">
        <!-- 4.5 -->
        <g
           transform="matrix(0.1,0,0,-0.1,100.48687,56.908652)"
           id="g298"
           style="fill:#ffffff">
          <use
             xlink:href="#DejaVuSans-34"
             id="use292"
             style="fill:#ffffff" />
          <use
             xlink:href="#DejaVuSans-2e"
             x="63.623047"
             id="use294"
             style="fill:#ffffff" />
          <use
             xlink:href="#DejaVuSans-35"
             x="95.410156"
             id="use296"
             style="fill:#ffffff" />
        </g>
      </g>
    </g>
    <g
       id="text_17"
       style="fill:#ffffff">
      <!-- Voltage [V] -->
      <g
         transform="matrix(0,-0.12,-0.12,0,93.99125,207.72862)"
         id="g332"
         style="fill:#ffffff">
        <defs
           id="defs308">
          <path
             id="DejaVuSans-56"
             d="M 1831,0 50,4666 H 709 L 2188,738 3669,4666 h 656 L 2547,0 Z"
             transform="scale(0.015625)" />
          <path
             id="DejaVuSans-6f"
             d="m 1959,3097 q -462,0 -731,-361 -269,-361 -269,-989 0,-628 267,-989 268,-361 733,-361 460,0 728,362 269,363 269,988 0,622 -269,986 -268,364 -728,364 z m 0,487 q 750,0 1178,-488 429,-487 429,-1349 Q 3566,888 3137,398 2709,-91 1959,-91 1206,-91 779,398 353,888 353,1747 q 0,862 426,1349 427,488 1180,488 z"
             transform="scale(0.015625)" />
          <path
             id="DejaVuSans-6c"
             d="m 603,4863 h 575 V 0 H 603 Z"
             transform="scale(0.015625)" />
          <path
             id="DejaVuSans-74"
             d="M 1172,4494 V 3500 H 2356 V 3053 H 1172 V 1153 q 0,-428 117,-550 117,-122 477,-122 h 590 V 0 H 1766 Q 1100,0 847,248 594,497 594,1153 V 3053 H 172 v 447 h 422 v 994 z"
             transform="scale(0.015625)" />
          <path
             id="DejaVuSans-61"
             d="m 2194,1759 q -697,0 -966,-159 -269,-159 -269,-544 0,-306 202,-486 202,-179 548,-179 479,0 768,339 289,339 289,901 v 128 z m 1147,238 V 0 H 2766 V 531 Q 2569,213 2275,61 1981,-91 1556,-91 q -537,0 -855,302 -317,302 -317,808 0,590 395,890 396,300 1180,300 h 807 v 57 q 0,397 -261,614 -261,217 -733,217 -300,0 -585,-72 -284,-72 -546,-216 v 532 q 315,122 612,182 297,61 578,61 760,0 1135,-394 375,-393 375,-1193 z"
             transform="scale(0.015625)" />
          <path
             id="DejaVuSans-67"
             d="m 2906,1791 q 0,625 -258,968 -257,344 -723,344 -462,0 -720,-344 -258,-343 -258,-968 0,-622 258,-966 258,-344 720,-344 466,0 723,344 258,344 258,966 z M 3481,434 q 0,-893 -397,-1329 -396,-436 -1215,-436 -303,0 -572,45 -269,45 -522,139 v 559 q 253,-137 500,-202 247,-66 503,-66 566,0 847,295 281,295 281,892 V 616 Q 2728,306 2450,153 2172,0 1784,0 1141,0 747,490 353,981 353,1791 q 0,812 394,1302 394,491 1037,491 388,0 666,-153 278,-153 456,-462 v 531 h 575 z"
             transform="scale(0.015625)" />
        </defs>
        <use
           xlink:href="#DejaVuSans-56"
           id="use310"
           style="fill:#ffffff" />
        <use
           xlink:href="#DejaVuSans-6f"
           x="60.658203"
           id="use312"
           style="fill:#ffffff" />
        <use
           xlink:href="#DejaVuSans-6c"
           x="121.83984"
           id="use314"
           style="fill:#ffffff" />
        <use
           xlink:href="#DejaVuSans-74"
           x="149.62305"
           id="use316"
           style="fill:#ffffff" />
        <use
           xlink:href="#DejaVuSans-61"
           x="188.83203"
           id="use318"
           style="fill:#ffffff" />
        <use
           xlink:href="#DejaVuSans-67"
           x="250.11133"
           id="use320"
           style="fill:#ffffff" />
        <use
           xlink:href="#DejaVuSans-65"
           x="313.58789"
           id="use322"
           style="fill:#ffffff" />
        <use
           xlink:href="#DejaVuSans-20"
           x="375.11133"
           id="use324"
           style="fill:#ffffff" />
        <use
           xlink:href="#DejaVuSans-5b"
           x="406.89844"
           id="use326"
           style="fill:#ffffff" />
        <use
           xlink:href="#DejaVuSans-56"
           x="445.91211"
           id="use328"
           style="fill:#ffffff" />
        <use
           xlink:href="#DejaVuSans-5d"
           x="514.32031"
           id="use330"
           style="fill:#ffffff" />
      </g>
    </g>
  </g>
  <g
     id="line2d_16"
     transform="translate(-84.873125,-41.072)">
    <path
       d="m 158.16354,174.53588 h 0.53942 l 0.0687,-1.18579 h 0.95405 l 0.22364,-1.18579 h 0.849 l 0.21941,-1.18585 h 0.91237 l 0.15469,-1.18579 h 0.87388 l 0.22244,-1.18579 h 0.83249 l 0.29052,-1.18585 h 0.84354 l 0.25214,-1.18579 h 0.82803 l 0.16244,-1.18579 h 0.91308 l 0.22327,-1.18579 h 0.88956 l 0.16441,-1.18579 h 0.86422 l 0.35263,-1.18585 h 0.73247 l 0.33191,-1.18579 h 0.76873 l 0.2713,-1.18579 h 0.83554 l 0.17688,-1.18586 h 0.8776 l 0.2796,-1.18578 h 0.80156 l 0.14537,-0.91872 0.087,-0.26707 h 0.89362 l 0.28883,-1.18579 h 0.78961 l 0.33969,-1.18579 h 0.78142 l 0.24008,-1.18586 h 0.8717 l 0.23908,-1.18579 h 0.85966 l 0.23288,-1.18579 h 0.8583 l 0.28053,-1.18585 h 0.86859 l 0.17183,-1.18579 h 0.92261 l 0.18088,-1.18578 h 0.87731 l 0.12539,-1.12636 0.0878,-0.0594 h 0.96407 l 0.18745,-1.18579 h 0.86425 l 0.33496,-1.18585 h 0.81087 l 0.24676,-1.18579 h 0.902 l 0.22116,-1.18579 h 0.85333 l 0.38314,-1.18585 h 0.76584 l 0.33324,-1.18579 h 0.77345 l 0.29925,-1.18579 h 0.85976 l 0.32229,-1.18579 h 0.89331 l 0.17886,-1.18579 h 0.91892 l 0.26347,-1.18585 h 0.91884 l 0.23809,-1.18579 h 0.89075 l 0.33705,-1.18579 h 0.85493 l 0.22425,-1.18585 0.9254,-0.0737 0.21619,-1.11209 h 0.95604 l 0.25759,-1.18579 h 0.8661 l 0.36924,-1.18579 h 0.86253 l 0.25475,-1.18579 h 0.88425 l 0.29298,-1.18585 h 0.8972 l 0.23111,-1.18579 h 0.99213 l 0.25843,-1.18579 h 0.90751 l 0.29579,-1.18585 h 0.99023 l 0.16633,-1.18579 h 1.04201 l 0.11976,-1.18579 h 1.05931 l 0.21149,-1.18579 h 0.99739 l 0.32281,-1.18579 h 0.9483 l 0.24556,-1.18585 h 1.00462 l 0.21927,-1.18579 h 1.07205 l 0.15781,-1.18579 h 1.12536 l 0.14077,-1.18585 h 1.03262 l 0.3151,-1.18579 h 1.02819 l 0.2558,-1.18579 h 1.02156 l 0.20653,-1.18579 h 1.06584 l 0.35443,-1.18579 h 0.97311 l 0.21122,-1.18585 h 1.12875 l 0.18254,-1.18579 h 1.14907 l 0.23709,-1.18579 h 1.11803 l 0.20005,-1.18585 h 1.16708 l 0.19318,-1.18579 h 1.20454 l 0.12773,-1.18579 h 1.25202 l 0.16004,-1.18579 h 1.20157 l 0.25377,-1.18579 h 1.15356 l 0.23967,-1.185851 h 1.19422 l 0.30957,-1.18579 h 1.14492 l 0.2651,-1.18579 h 1.17389 l 0.24314,-1.18585 h 1.24408 l 0.26772,-1.18579 h 1.242 l 0.21128,-1.18579 h 1.29275 l 0.24242,-1.18579 h 1.29771 l 0.25479,-1.18579 h 1.3218 l 0.23465,-1.185851 h 1.36224 l 0.18454,-1.18579 h 1.40974 l 0.19811,-1.18579 h 1.44084 l 0.24953,-1.18585 h 1.41262 l 0.28697,-1.18579 h 1.40849 l 0.24628,-1.18579 h 1.49696 l 0.28159,-1.18579 h 1.5111 l 0.17187,-1.18579 h 1.60774 l 0.34925,-1.185851 h 1.55678 l 0.0706,-1.18579 h 1.8024 l 0.16362,-1.18579 h 1.6979 l 0.12088,-1.146144 0.0635,-0.03971 h 1.86258 l 0.21152,-1.18579 h 1.81405 l 0.23193,-1.18579 h 1.8531 l 0.30756,-1.18579 h 1.93656 l 0.20154,-1.18579 h 2.02942 l 0.31572,-1.185851 h 2.06508 l 0.29168,-1.18579 h 2.15336 l 0.21036,-1.18579 h 2.43645 l 0.0162,-1.18585 h 2.66003 l 0.23676,-1.18579 h 2.66534 l 0.25377,-1.18579 h 2.88609 l 0.1713,-1.18579 h 3.19603 l 0.15066,-1.18579 h 3.57024 l 0.33154,-1.185851 h 3.92132 l 0.20297,-1.18579 h 4.82964 l 0.19022,-1.18579 h 6.45731 l 0.15222,-1.18585 h 29.28453 l 0.12099,1.18585 h 6.54862 l 0.10064,1.18579 h 4.95489 l 0.0657,1.18579 h 4.11701 l 0.26856,1.185851 h 3.52287 l 0.0758,1.18579 h 3.29925 l 0.11683,1.18579 h 2.97301 l 0.18028,1.18579 h 2.71719 l 0.18965,1.18579 h 2.53282 l 0.0702,1.18585 h 2.51547 l 0.15566,1.18579 h 2.29931 l 0.13612,1.18579 h 2.24653 l 0.13217,1.185851 h 2.12445 l 0.14058,1.18579 h 2.01815 l 0.18016,1.18579 h 1.96499 l 0.10652,1.18579 h 1.94702 l 0.14378,1.18579 h 1.84533 l 0.16268,1.18585 h 1.74996 l 0.21776,1.18579 h 1.68073 l 0.0667,1.18579 h 1.78096 l 0.1912,1.185851 h 1.59229 l 0.22087,1.18579 h 1.54618 l 0.20731,1.18579 h 1.54337 l 0.23961,1.18579 h 1.47395 l 0.15022,1.18579 h 1.48157 l 0.27305,1.18585 h 1.37659 l 0.21275,1.18579 h 1.4193 l 0.11158,1.18579 h 1.46802 l 0.0732,1.185851 h 1.47025 l 0.23252,1.18579 h 1.33108 l 0.18123,1.18579 h 1.35071 l 0.15053,1.18579 h 1.36215 l 0.10176,1.18579 h 1.37324 l 0.12778,1.18585 h 1.33653 l 0.13567,1.18579 h 1.30827 l 0.12046,1.18579 h 1.30851 l 0.0332,1.185851 h 1.38803 l 0.0938,1.18579 h 1.30736 l 0.11173,1.18579 h 1.27552 l 0.11224,1.18579 h 1.25807 l 0.10274,1.185794 h 1.25083 l 0.10194,1.18585 h 1.23858 l 0.14295,1.18579 h 1.18447 l 0.11056,1.18579 h 1.19585 l 0.0438,1.18585 h 1.29055 l 0.11568,1.18579 h 1.14861 l 0.2159,1.18579 h 1.0956 l 0.17462,1.18579 h 1.11399 l 0.16589,1.18579 h 1.09523 l 0.15657,1.18585 h 1.11508 l 0.19018,1.18579 h 1.0429 l 0.16891,1.18579 h 1.09768 l 0.16187,1.18585 h 1.07673 l 0.15802,1.18579 h 1.05387 l 0.21052,1.18579 h 1.02525 l 0.14115,1.18579 h 1.07363 l 0.14381,1.18579 h 1.07571 l 0.19544,1.18585 h 0.9784 l 0.21979,1.18579 h 0.9844 l 0.19421,1.18579 h 1.02072 l 0.16309,1.18585 h 1.01546 l 0.1706,1.18579 h 0.97352 l 0.23073,1.18579 h 0.94667 l 0.089,1.18579 h 1.10002 l 0.16036,1.18579 h 0.98911 l 0.15929,1.18585 h 1.00706 l 0.20839,1.18579 h 0.88862 l 0.33203,1.18579 h 0.87559 l 0.17111,1.18585 h 0.97558 l 0.17765,1.18579 h 0.94867 l 0.18277,1.18579 h 0.96293 l 0.22302,1.18579 h 0.88893 l 0.30761,1.18579 h 0.8502 l 0.21445,1.18585 h 0.9244 l 0.15518,1.18579 h 0.96035 l 0.2167,1.18579 h 0.90323 l 0.254,1.18585 h 0.87382 l 0.16654,1.18579 h 0.93257 l 0.17364,1.1858 h 0.94357 l 0.18621,1.18578 h 0.87485 l 0.3232,1.18579 h 0.78526 l 0.30009,1.18585 h 0.84813 l 0.17923,1.18579 h 0.93336 l 0.18915,1.18579 h 0.8953 l 0.18014,1.18586 h 0.94147 l 0.20357,1.18579 h 0.80148 l 0.34899,1.18579 h 0.75997 l 0.32791,1.18579 h 0.77716 l 0.31559,1.18578 h 0.79645 l 0.25289,1.18586 h 0.8756 l 0.16888,1.18579 h 0.89833 l 0.21821,1.18579 h 0.89478 l 0.16851,1.18585 h 0.90285 l 0.20207,1.18579 h 0.8834 l 0.17892,1.18579 h 0.85559 l 0.30874,1.18579 h 0.80119 l 0.25191,1.18579 h 0.84102 l 0.20375,1.18585 h 0.88984 l 0.22616,1.18579 h 0.79334 l 0.31983,1.18579 h 0.76745 l 0.35596,1.18585 h 0.82615 l 0.0462,1.18579 h 0.99127 l 0.16378,1.18579 h 0.91523 l 0.21344,1.18579 h 0.79053 l 0.32664,1.18579 h 0.83 l 0.18888,1.18585 h 0.90383 l 0.18045,1.18579 h 0.86644 l 0.24261,1.18579 h 0.87895 l 0.16776,1.18585 h 0.9278 l 0.12725,1.18579 h 0.9449 l 0.16661,1.18579 h 0.89431 l 0.17416,1.18579 h 0.85759 l 0.28794,1.18579 h 0.85136 l 0.18006,1.18585 h 0.90941 l 0.23742,1.18579 h 0.87084 l 0.18127,1.18579 h 0.85436 l 0.2703,1.18585 h 0.78112 l 0.31495,1.18579 h 0.89906 l 0.12655,1.18579 h 0.88231 l 0.29483,1.18579 h 0.80875 l 0.33001,1.18579 h 0.80056 l 0.18201,1.18585 h 0.84843 l 0.33544,1.18579 h 0.84038 l 0.15912,1.18579 h 0.95543 l 0.16388,1.18585 h 0.94067 l 0.17963,1.18579 h 0.94512 l 0.16718,1.18579 h 0.87584 l 0.32722,1.18579 h 0.77158 l 0.31415,1.18579 h 0.80646 l 0.32543,1.18585 h 0.85795 l 0.16963,1.18579 h 0.947 l 0.16704,1.18579 h 0.94481 l 0.18675,1.18585 h 0.97088 l 0.17627,1.18579 h 0.93348 l 0.18113,1.18579 h 0.99112 l 0.16113,1.18579 h 0.95436 l 0.18249,1.18579 h 0.97204 l 0.17083,1.18585 h 0.89926 l 0.34155,1.18579 h 0.91426 l 0.19593,1.18579 h 0.88215 l 0.31434,1.18585 h 0.91802 l 0.16248,1.18579 h 1.01987 l 0.14466,1.18579 h 1.01146 l 0.1774,1.18579 h 0.98211 l 0.17593,1.18579 h 1.0036 l 0.24842,1.18585 h 0.87658 l 0.33718,1.18579 h 0.97465 l 0.16179,1.18579 h 1.04137 l 0.1906,1.18585 h 0.98703 l 0.22563,1.18579 h 1.00879 l 0.16593,1.18579 h 1.07218 l 0.12537,1.18579 h 1.07834 l 0.1754,1.18579 h 1.0955 l 0.16275,1.18585 h 1.07173 l 0.15994,1.18579 h 1.10296 l 0.14151,1.18579 h 1.11322 l 0.13229,1.18585 h 1.14048 l 0.1784,1.18579 h 1.06882 l 0.23271,1.18579 h 1.10438 l 0.10391,1.18579 h 1.15875 l 0.20261,1.18579 h 1.1475 l 0.16928,1.18585 h 1.15296 l 0.14372,1.1858 h 1.19528 l 0.092,1.18578 h 1.22218 l 0.18104,1.18585 h 1.20291 l 0.0951,1.18579 h 1.28294 l 0.11407,1.18579 h 1.27236 l 0.10027,1.18579 h 1.30237 l 0.0935,1.18579 h 1.31657 l 0.11911,1.18586 h 1.3117 l 0.11628,1.18579 h 1.31137 l 0.13935,1.18579 h 1.32576 l 0.15742,1.18585 h 1.3275 l 0.15457,1.18579 h 1.34013 l 0.13484,1.18579 h 1.37653 l 0.18033,1.18579 h 1.3692 l 0.17162,1.18579 h 1.36762 l 0.21019,1.18585 h 1.40619 l 0.15129,1.18579 h 1.46523 l 0.1362,1.1858 h 1.48326 l 0.22423,1.18581 h 1.44108 l 0.15323,1.18581 h 1.50362 l 0.16367,1.1858 h 1.56058 l 0.29075,1.1858 h 1.5557 l 0.11714,1.18581 h 1.58542 l 0.30189,1.18581 h 1.60001 l 0.23502,1.1858 h 1.66241 l 0.18485,1.1858 h 1.77773 l 0.15604,1.18581 h 1.83964 l 0.14779,1.18581 h 1.87416 l 0.20598,1.1858 h 1.93114 l 0.17774,1.1858 h 2.03035 l 0.13122,1.18581 h 2.13504 l 0.12569,1.18581 h 2.18666 l 0.22627,1.1858 h 2.22672 l 0.18468,1.1858 h 2.37156 l 0.24153,1.18581 h 2.56529 l 0.139,1.18581 h 2.76173 l 0.12665,1.1858 h 2.96763 l 0.15226,1.1858 h 3.18887 l 0.0925,1.18581 h 3.68484 l 0.1332,1.18581 h 4.09052 l 0.15701,1.1858 h 4.87939 l 0.18634,1.1858 h 6.51462 l 0.13557,1.18581 h 29.23041 l 0.14563,-1.18581 h 6.49063 l 0.22087,-1.1858 h 4.87343 l 0.1043,-1.1858 h 4.11512 l 0.14884,-1.18581 h 3.55419 l 0.23254,-1.18581 h 3.13404 l 0.27257,-1.1858 h 2.85735 l 0.14656,-1.1858 h 2.77921 l 0.15098,-1.18581 h 2.50177 l 0.282,-1.18581 h 2.37004 l 0.18217,-1.1858 h 2.26558 l 0.21466,-1.1858 h 2.13994 l 0.18272,-1.18581 h 2.07508 l 0.20754,-1.18581 h 2.00664 l 0.16343,-1.1858 h 1.96477 l 0.13195,-1.1858 h 1.91201 l 0.14073,-1.18581 h 1.84965 l 0.13802,-1.18581 h 1.7243 l 0.32935,-1.1858 h 1.61834 l 0.1502,-1.1858 h 1.68792 l 0.18108,-1.18581 h 1.58453 l 0.28623,-1.18581 h 1.51764 l 0.25257,-1.1858 h 1.42478 l 0.29466,-1.1858 h 1.49698 l 0.12851,-1.18581 h 1.45478 l 0.34441,-1.18581 h 1.31049 l 0.28763,-1.1858 h 1.35203 l 0.28578,-1.18579 h 1.31216 l 0.24162,-1.18585 h 1.32671 l 0.14925,-1.18579 h 1.35646 l 0.2572,-1.18579 h 1.29857 l 0.18433,-1.18579 h 1.32101 l 0.18159,-1.18579 h 1.30532 l 0.1782,-1.18585 h 1.25885 l 0.18712,-1.18579 h 1.30033 l 0.0793,-1.18579 h 1.3516 l 0.0716,-1.18586 h 1.31987 l 0.16987,-1.18579 h 1.24123 l 0.11195,-1.18579 h 1.24697 l 0.15087,-1.18579 h 1.25538 l 0.12106,-1.18579 h 1.20051 l 0.17339,-1.18585 h 1.1704 l 0.19667,-1.18578 h 1.16882 l 0.13823,-1.1858 h 1.18577 l 0.093,-1.18585 h 1.20857 l 0.16429,-1.18579 h 1.14048 l 0.15907,-1.18579 h 1.12389 l 0.11677,-1.18579 h 1.17682 l 0.10468,-1.18579 h 1.1602 l 0.17457,-1.18585 h 1.04832 l 0.23701,-1.18579 h 1.0151 l 0.18214,-1.18579 h 1.08994 l 0.14117,-1.18585 h 1.12035 l 0.0989,-1.18579 h 1.13313 l 0.12513,-1.18579 h 0.97991 l 0.33618,-1.18579 h 1.01063 l 0.0217,-1.18579 h 1.14338 l 0.20269,-1.18585 h 1.02338 l 0.17705,-1.18579 h 0.98897 l 0.17828,-1.18579 h 1.02511 l 0.14728,-1.18585 h 1.07937 l 0.0934,-1.18579 h 1.06003 l 0.16633,-1.18579 h 0.92751 l 0.33386,-1.18579 h 0.83093 l 0.35248,-1.18579 h 0.87827 l 0.17693,-1.18585 h 0.91884 l 0.32787,-1.18579 h 0.8938 l 0.16163,-1.18579 h 0.93369 l 0.19069,-1.18585 h 1.01443 l 0.15792,-1.18579 h 0.97537 l 0.16468,-1.18579 h 0.99628 l 0.15908,-1.18579 h 0.96439 l 0.0808,-1.18579 h 0.9687 l 0.32824,-1.18585 h 0.81636 l 0.34449,-1.18579 h 0.83623 l 0.22632,-1.18579 h 0.82038 l 0.32704,-1.18585 h 0.78658 l 0.36815,-1.18579 h 0.80747 l 0.1762,-1.18579 h 0.93165 l 0.18732,-1.18579 h 0.95426 l 0.15817,-1.18579 h 0.87989 l 0.29557,-1.18585 h 0.79989 l 0.29995,-1.18579 h 0.86842 l 0.15521,-1.18579 h 0.93532 l 0.17386,-1.18585 h 0.87916 l 0.31199,-1.18579 h 0.83044 l 0.17188,-1.18579 h 0.8405 l 0.38405,-1.18579 h 0.80781 l 0.1665,-1.18579 h 0.84886 l 0.31787,-1.18585 h 0.78337 l 0.34163,-1.18579 h 0.79159 l 0.16107,-1.18579 h 0.86844 l 0.32696,-1.18585 h 0.83183 l 0.16645,-1.18579 h 0.9238 l 0.17134,-1.18579 h 0.90489 l 0.22996,-1.18579 h 0.88896 l 0.0191,-1.18579 h 1.03337 l 0.1616,-1.18585 h 0.88915 l 0.19454,-1.18579 h 0.85314 l 0.29583,-1.18579 h 0.84874 l 0.17886,-1.18585 h 0.88308 l 0.25444,-1.18579 h 0.85532 l 0.14452,-1.18579 h 0.42712 v 0"
       clip-path="url(#pb86192c87c)"
       style="fill:none;stroke:#1f77b4;stroke-width:1.5;stroke-linecap:square"
       id="path336" />
  </g>
  <g
     id="line2d_17"
     transform="translate(-84.873125,-41.072)">
    <path
       d="m 158.16354,174.53594 h 0.005 l 1.0099,-0.10267 2.58766,-0.88902 1.64851,-0.9991 0.5397,-0.34011 0.49483,-0.38863 0.44826,-0.31334 1.07255,-0.84586 1.44859,-1.20643 6.51774,-6.28795 1.50555,-1.58777 3.7307,-3.89056 1.71111,-1.84125 0.7251,-0.72601 10.92778,-11.62361 0.2917,-0.26088 0.78675,-0.84586 0.3127,-0.33119 0.583,-0.66942 0.1922,-0.11864 1.66045,-1.80792 0.25225,-0.19829 0.72257,-0.78229 0.21059,-0.13405 0.69033,-0.86401 0.20042,-0.0297 0.20863,-0.31571 0.41604,-0.64168 0.3861,-0.11055 0.6424,-0.82662 0.16749,-0.0413 0.35161,-0.53543 0.30782,-0.33508 0.19518,-0.022 0.28579,-0.38036 0.39355,-0.55602 0.39491,-0.11772 0.57815,-0.86923 0.30988,-0.02 0.36924,-0.70809 0.22993,-0.22027 0.22465,0.0283 0.29813,-0.42329 0.36457,-0.48923 0.21836,-0.003 0.28945,-0.39403 0.37644,-0.5197 0.35117,-0.0668 0.64144,-0.88234 0.19757,0.0406 0.17584,-0.23254 0.42458,-0.76771 0.42931,-0.0636 0.55887,-0.81841 0.17855,0.0171 0.25978,-0.3193 0.41912,-0.58503 0.23892,0.0236 0.316,-0.48789 0.32027,-0.48061 0.39894,-0.0342 0.60054,-0.88125 0.22168,0.0413 0.24121,-0.37035 0.365,-0.533 0.31796,-0.044 0.36033,-0.61927 0.23571,-0.21547 0.31116,-0.0377 0.70741,-0.85527 0.19031,-0.0108 0.20183,-0.33228 0.3903,-0.60052 0.38575,-0.0739 0.58087,-0.75521 0.14367,0.0109 0.24995,-0.29816 0.40196,-0.59681 0.38623,-0.0582 0.63972,-0.84573 0.23023,0.009 0.21567,-0.35462 0.36562,-0.51898 0.34775,-0.0724 0.64193,-0.7478 0.21874,-0.0551 0.37945,-0.67647 0.17943,-0.18123 0.41757,-0.0786 0.57049,-0.80421 0.21306,0.0333 0.24684,-0.3358 0.36435,-0.49961 0.3735,-0.10922 0.57139,-0.74635 0.25352,0.0106 0.28562,-0.45055 0.32908,-0.45583 0.39842,-0.0759 0.53368,-0.71418 0.21649,-0.008 0.24291,-0.31874 0.38375,-0.50095 0.34118,-0.0396 0.73682,-0.80209 0.13895,-0.0132 0.25298,-0.38134 0.31055,-0.43295 0.41011,-0.14213 0.53458,-0.67501 0.31346,-0.0521 0.68737,-0.79182 0.17905,0.002 0.25161,-0.3664 0.3358,-0.43865 0.3728,-0.11688 0.60689,-0.6764 0.24482,-0.0438 0.3595,-0.59025 0.2306,-0.23089 0.35793,-0.0367 0.63839,-0.71659 0.10623,-0.007 0.20108,-0.19331 0.49526,-0.58953 0.35534,-0.10194 0.63039,-0.72922 0.13579,0.0225 0.24599,-0.25785 0.43408,-0.51351 0.25604,-0.0379 0.34512,-0.49713 0.2908,-0.25748 0.29605,-0.0275 0.36393,-0.55286 0.26024,-0.23216 0.32089,-0.06564 0.63273,-0.648478 0.2017,-0.04845 0.39822,-0.613264 0.23564,-0.14978 0.25648,0.0139 0.28092,-0.390204 0.34631,-0.362397 0.30603,-0.08828 0.67167,-0.64265 0.21607,-0.06569 0.73607,-0.727526 0.0766,0.0047 0.24173,-0.240485 0.44259,-0.483703 0.27347,-0.05306 0.72971,-0.682477 0.19899,-0.07401 0.65314,-0.686423 0.21121,-0.06642 0.74866,-0.636335 0.18807,-0.09137 0.71574,-0.681871 0.0826,0.0024 0.31941,-0.354261 0.32856,-0.340905 0.34386,-0.0714 0.66543,-0.648538 0.20441,-0.03637 0.74799,-0.65036 0.18553,-0.145954 0.52781,-0.566333 0.33759,-0.07389 0.68219,-0.641375 0.21774,-0.101209 0.638,-0.573133 0.26025,-0.07425 0.76927,-0.659467 0.22418,-0.142797 0.50824,-0.516609 0.30618,-0.04469 0.66986,-0.652364 0.15069,0.01955 0.27969,-0.328094 0.29521,-0.327791 0.38526,-0.05264 0.61633,-0.624132 0.13898,0.04116 0.25032,-0.237813 0.39868,-0.416614 0.31464,-0.03115 0.66255,-0.622614 0.11051,0.02665 0.28778,-0.275638 0.36524,-0.359483 0.33943,-0.06211 0.6162,-0.593836 0.18108,0.02368 0.29275,-0.329551 0.32694,-0.279281 0.30341,-0.03418 0.67482,-0.600878 0.19348,-0.01342 0.28976,-0.361851 0.27432,-0.214439 0.29829,0.0043 0.37359,-0.521223 0.20935,-0.146805 0.33829,0.01445 0.62202,-0.534459 0.21918,0.001 0.34477,-0.497606 0.20573,-0.186147 0.37901,0.02441 0.54858,-0.556437 0.29896,0.02957 0.71332,-0.607861 0.17891,-0.0224 0.64451,-0.544234 0.21504,0.0052 0.38371,-0.485342 0.24925,-0.134965 0.29023,-0.03989 0.64423,-0.50823 0.23754,-0.03521 0.70515,-0.512177 0.2325,-0.140369 0.54289,-0.445453 0.27561,-0.03685 0.74332,-0.447821 0.29485,-0.221664 0.40675,-0.408904 0.37048,-0.02513 0.5606,-0.465792 0.27005,0.01645 0.25793,-0.278127 0.36545,-0.312794 0.32001,-0.02993 0.60347,-0.482306 0.18867,0.02805 0.34115,-0.305327 0.30545,-0.182868 0.31153,-0.08336 0.59189,-0.479027 0.15388,0.02805 0.38207,-0.31407 0.31675,-0.192036 0.34182,-0.02192 0.7329,-0.500642 0.22938,-0.09817 0.5695,-0.422928 0.28262,-0.01591 0.67116,-0.406414 0.2518,-0.06952 0.64913,-0.485827 0.22158,0.01657 0.68162,-0.478238 0.22966,0.02441 1.55427,-1.0181 0.35681,-0.02556 0.61794,-0.405504 0.19035,0.04796 0.36421,-0.276792 0.36686,-0.283895 0.39132,-0.04839 0.67122,-0.415825 0.22233,0.0058 0.77166,-0.392208 0.23661,-0.02787 0.71996,-0.500399 0.21686,0.02259 0.35969,-0.381644 0.25597,-0.150933 0.378,0.07826 0.62999,-0.4341 0.31623,0.07498 0.37301,-0.42815 0.25633,-0.160343 0.37138,0.08555 0.66912,-0.482367 0.17953,0.09799 0.31865,-0.225853 0.37987,-0.281284 0.32846,0.145651 0.34012,-0.294095 0.32401,-0.274849 0.50471,-0.02611 0.58338,-0.393178 0.1983,0.09222 0.3285,-0.211464 0.36335,-0.28262 0.50168,0.05938 0.58264,-0.354443 0.26245,0.04268 0.35429,-0.313098 0.30242,-0.22561 0.48619,0.03971 0.58844,-0.401436 0.3139,0.116691 0.35111,-0.292395 0.29026,-0.163197 0.45534,0.109466 0.65087,-0.432157 0.37101,0.0049 0.75783,-0.387836 0.23236,0.04353 0.34585,-0.266471 0.28888,-0.182747 0.53416,0.05549 0.60654,-0.301744 0.31878,0.101087 0.42697,-0.315223 0.25924,-0.110741 0.41587,0.0012 0.82187,-0.345579 0.22,0.0119 0.84797,-0.32603 0.2497,0.01597 0.71988,-0.330158 0.34815,0.07796 0.72386,-0.289177 0.32555,0.08318 0.46525,-0.37545 0.213,-0.09605 0.52418,0.04116 0.5962,-0.369622 0.45625,0.08415 0.62683,-0.359119 0.4482,0.10218 0.61611,-0.33368 0.46347,0.119788 0.66175,-0.279099 0.31418,0.130533 0.48881,-0.273452 0.22855,-0.02501 0.48859,0.101088 0.74949,-0.33538 0.37967,0.0071 0.87233,-0.252688 0.23183,-0.0074 0.82172,-0.259974 0.26179,0.04651 0.87395,-0.231621 0.29582,0.02556 0.638,-0.264952 0.50776,0.09405 0.67273,-0.202297 0.40716,0.08712 0.72184,-0.183961 0.38412,0.07613 0.74949,-0.154819 0.30499,0.07771 0.85697,-0.129987 0.34191,0.03303 0.63205,-0.142919 0.53453,0.06685 0.66163,-0.09004 0.41668,0.04906 0.75883,-0.06994 0.39507,0.02174 0.66933,-0.07486 0.42184,0.04633 0.78201,-0.04881 0.41625,0.0074 0.57068,-0.07018 0.55766,0.04632 0.631,-0.04651 0.48874,0.02926 0.73451,-0.01876 0.45943,-0.0079 0.64569,-0.01202 0.44485,0.0072 0.70752,-0.01257 0.43774,-6.68e-4 0.65553,-0.01694 0.47153,0.0099 0.70872,-0.0046 0.45593,-0.008 0.64933,-0.005 0.49321,-0.0015 0.62995,-0.0043 0.59571,-0.01536 0.56077,0.01214 1.7018,-0.01603 0.56501,0.0089 0.48571,0.003 0.46112,0.04365 0.49473,0.162165 0.55399,0.03588 0.43961,0.105155 0.74055,0.104973 0.45071,0.02611 0.41759,0.04396 0.56233,0.07134 0.60415,0.07152 0.559,0.01858 1.71371,0.191126 1.73785,0.392207 3.53571,0.624314 0.56696,0.123309 3.59289,0.820782 0.7932,0.228342 1.18677,0.328762 5.20504,1.492878 1.27588,0.444542 1.76307,0.568397 0.68242,0.244492 1.10232,0.392268 7.28324,2.912414 0.48978,0.175218 0.59182,0.250867 0.57824,0.28687 0.41464,0.181836 1.2624,0.538891 9.16113,4.613233 0.96954,0.547087 3.03352,1.70076 0.94488,0.544779 1.37039,0.801415 4.76416,2.900088 0.76128,0.505438 2.27731,1.456449 0.50282,0.358391 0.64744,0.421835 1.48213,0.995454 1.17738,0.812343 0.46821,0.313827 1.01057,0.667238 0.65309,0.486434 1.03194,0.724552 0.48597,0.372718 0.48302,0.357844 1.90206,1.327616 0.36091,0.311702 0.47404,0.332526 0.36402,0.281284 1.82238,1.345466 0.37135,0.296159 0.53028,0.394454 0.90504,0.693588 0.7352,0.558683 6.12011,4.860154 2.66838,2.199154 2.98013,2.51541 1.76353,1.539141 1.82233,1.549645 4.40861,3.93197 1.48741,1.34886 2.24768,2.04215 4.12788,3.83708 2.11315,2.00797 1.43685,1.37169 1.70231,1.60823 11.92471,11.85359 1.8201,1.84823 1.89777,1.97264 24.02095,25.49676 1.49652,1.63045 1.67714,1.81757 1.53409,1.68965 1.36121,1.45408 3.7616,4.14581 1.39552,1.52153 1.6564,1.80124 2.24414,2.4669 2.69418,2.94368 1.58704,1.74204 1.60688,1.7633 1.89451,2.07615 3.68789,4.00513 1.53314,1.67495 1.64863,1.79189 1.6005,1.73136 1.84595,1.98703 2.79513,3.0288 2.64816,2.83203 1.89277,2.03771 4.05498,4.27179 12.68734,13.14987 2.89315,2.93719 1.39389,1.4154 3.63268,3.59028 3.25534,3.14385 4.23503,4.07926 0.94277,0.86808 4.60913,4.32685 1.64348,1.47697 9.49758,8.41151 0.83252,0.6758 1.18627,1.01841 1.79842,1.48747 1.04458,0.88635 3.2443,2.62336 0.29129,0.21535 0.61802,0.52213 1.02951,0.80816 0.48102,0.38607 0.91344,0.66014 1.4946,1.15422 0.287,0.26695 0.41488,0.33708 0.37111,0.26544 0.47608,0.32457 0.32667,0.26569 0.44204,0.36512 0.35736,0.2502 0.47164,0.32864 0.1887,0.10097 0.75815,0.60634 2.32988,1.71336 0.43059,0.30492 0.48283,0.36919 1.2712,0.88895 1.18224,0.8455 0.96763,0.68757 2.79284,1.879 0.76878,0.50614 0.89665,0.61143 11.25912,6.80784 0.62467,0.40104 1.1432,0.59613 7.64528,3.95687 9.11697,3.99403 1.05494,0.33366 1.49174,0.6648 2.72548,0.96041 1.06412,0.39568 1.15437,0.37352 1.06224,0.28887 0.83784,0.26678 1.16031,0.41151 3.03356,0.77728 0.87026,0.24058 0.95879,0.32416 3.73714,0.8244 2.31261,0.4434 1.15697,0.2973 1.11182,0.24371 6.6752,0.75672 3.47068,0.15568 6.22331,0.1242 10.27196,0.007 0.82268,-0.15793 0.84642,-0.14211 1.28722,-0.15689 4.53151,-0.57197 1.02396,-0.22749 4.77458,-0.91852 1.23713,-0.26174 1.56726,-0.3462 1.16237,-0.34211 2.55561,-0.64739 0.53658,-0.16915 1.40846,-0.43484 1.23188,-0.31775 1.17524,-0.45939 2.17242,-0.6993 0.91693,-0.3606 1.82139,-0.57665 1.00417,-0.45074 1.06891,-0.37199 0.64127,-0.24121 0.86252,-0.39436 1.08524,-0.40925 0.6965,-0.28553 0.93433,-0.44285 4.76321,-2.14545 0.90186,-0.39568 0.64775,-0.34024 0.53375,-0.23188 0.81469,-0.38437 6.77917,-3.58791 1.18639,-0.6947 1.4088,-0.80463 7.61872,-4.66296 4.19337,-2.75085 0.46004,-0.30488 2.83786,-1.97209 0.42592,-0.28233 1.0389,-0.69726 0.55151,-0.43216 0.31365,-0.21946 0.4865,-0.31172 0.33491,-0.28427 0.40888,-0.30976 0.27563,-0.1652 0.57766,-0.39792 0.38642,-0.36494 0.43046,-0.26405 0.36401,-0.30459 1.76308,-1.30589 0.28432,-0.17582 0.69507,-0.54618 3.93359,-3.09194 1.80975,-1.42057 1.59147,-1.2717 4.65154,-3.83895 1.96789,-1.68698 2.06326,-1.75795 2.03363,-1.77817 2.01989,-1.80088 0.94227,-0.81805 12.60973,-11.75098 1.55031,-1.51443 1.70147,-1.62183 5.45875,-5.42176 1.64145,-1.63288 1.89691,-1.92285 1.80354,-1.84956 2.711,-2.76938 1.58743,-1.63251 1.92145,-1.99061 1.53954,-1.62019 1.68238,-1.7687 1.76492,-1.86414 2.59615,-2.75164 1.65645,-1.74873 1.75058,-1.87063 1.66041,-1.79669 1.61377,-1.7228 1.58258,-1.70258 1.52811,-1.67058 1.69786,-1.81952 1.67924,-1.82546 1.61109,-1.74593 1.28873,-1.42257 3.4492,-3.77017 1.68824,-1.81782 0.3616,-0.43136 v 0"
       clip-path="url(#pb86192c87c)"
       style="fill:none;stroke:#ff7f0e;stroke-width:1.5;stroke-linecap:square"
       id="path339" />
  </g>
  <g
     id="patch_3"
     transform="translate(-84.873125,-41.072)"
     style="fill:#ffffff">
    <path
       d="M 123.39,307.584 V 41.472"
       style="fill:#ffffff;stroke:#ffffff;stroke-width:0.8;stroke-linecap:square;stroke-linejoin:miter"
       id="path342" />
  </g>
  <g
     id="patch_4"
     transform="translate(-84.873125,-41.072)"
     style="fill:#ffffff">
    <path
       d="M 888.408,307.584 V 41.472"
       style="fill:#ffffff;stroke:#ffffff;stroke-width:0.8;stroke-linecap:square;stroke-linejoin:miter"
       id="path345" />
  </g>
  <g
     id="patch_5"
     transform="translate(-84.873125,-41.072)"
     style="fill:#ffffff">
    <path
       d="M 123.39,307.584 H 888.408"
       style="fill:#ffffff;stroke:#ffffff;stroke-width:0.8;stroke-linecap:square;stroke-linejoin:miter"
       id="path348" />
  </g>
  <g
     id="patch_6"
     transform="translate(-84.873125,-41.072)"
     style="fill:#ffffff">
    <path
       d="M 123.39,41.472 H 888.408"
       style="fill:#ffffff;stroke:#ffffff;stroke-width:0.8;stroke-linecap:square;stroke-linejoin:miter"
       id="path351" />
  </g>
  <g
     id="patch_7"
     transform="translate(-84.873125,-41.072)"
     style="fill:none">
    <path
       d="m 782.8455,90.582313 h 98.5625 q 2,0 2,-2 V 48.472 q 0,-2 -2,-2 h -98.5625 q -2,0 -2,2 v 40.110313 q 0,2 2,2 z"
       style="opacity:0.8;fill:none;stroke:#cccccc;stroke-linejoin:miter"
       id="path354" />
  </g>
  <g
     id="line2d_18"
     transform="translate(-84.873125,-41.072)">
    <path
       d="m 784.8455,54.570438 h 10 10"
       style="fill:none;stroke:#1f77b4;stroke-width:1.5;stroke-linecap:square"
       id="path357" />
  </g>
  <g
     id="text_18"
     transform="translate(-84.873125,-41.072)"
     style="fill:#ffffff">
    <!-- V(dac_out) -->
    <g
       transform="matrix(0.1,0,0,-0.1,812.8455,58.070438)"
       id="g388"
       style="fill:#ffffff">
      <defs
         id="defs366">
        <path
           id="DejaVuSans-28"
           d="m 1984,4856 q -418,-718 -622,-1422 -203,-703 -203,-1425 0,-721 205,-1429 205,-708 620,-1424 h -500 q -468,735 -701,1444 -233,709 -233,1409 0,697 231,1403 232,707 703,1444 z"
           transform="scale(0.015625)" />
        <path
           id="DejaVuSans-64"
           d="m 2906,2969 v 1894 h 575 V 0 H 2906 V 525 Q 2725,213 2448,61 2172,-91 1784,-91 1150,-91 751,415 353,922 353,1747 q 0,825 398,1331 399,506 1033,506 388,0 664,-152 277,-151 458,-463 z M 947,1747 q 0,-634 261,-995 261,-361 717,-361 456,0 718,361 263,361 263,995 0,634 -263,995 -262,361 -718,361 -456,0 -717,-361 -261,-361 -261,-995 z"
           transform="scale(0.015625)" />
        <path
           id="DejaVuSans-63"
           d="m 3122,3366 v -538 q -244,135 -489,202 -245,67 -495,67 -560,0 -870,-355 -309,-354 -309,-995 0,-641 309,-996 310,-354 870,-354 250,0 495,67 245,67 489,202 V 134 Q 2881,22 2623,-34 2366,-91 2075,-91 1284,-91 818,406 353,903 353,1747 q 0,856 470,1346 471,491 1290,491 265,0 518,-55 253,-54 491,-163 z"
           transform="scale(0.015625)" />
        <path
           id="DejaVuSans-5f"
           d="m 3263,-1063 v -446 H -63 v 446 z"
           transform="scale(0.015625)" />
        <path
           id="DejaVuSans-75"
           d="m 544,1381 v 2119 h 575 V 1403 q 0,-497 193,-746 194,-248 582,-248 465,0 735,297 271,297 271,810 v 1984 h 575 V 0 H 2900 V 538 Q 2691,219 2414,64 2138,-91 1772,-91 1169,-91 856,284 544,659 544,1381 Z m 1447,2203 z"
           transform="scale(0.015625)" />
        <path
           id="DejaVuSans-29"
           d="m 513,4856 h 500 q 468,-737 701,-1444 233,-706 233,-1403 0,-700 -233,-1409 -233,-709 -701,-1444 H 513 q 415,716 620,1424 205,708 205,1429 0,722 -205,1425 -205,704 -620,1422 z"
           transform="scale(0.015625)" />
      </defs>
      <use
         xlink:href="#DejaVuSans-56"
         id="use368"
         style="fill:#ffffff" />
      <use
         xlink:href="#DejaVuSans-28"
         x="68.408203"
         id="use370"
         style="fill:#ffffff" />
      <use
         xlink:href="#DejaVuSans-64"
         x="107.42188"
         id="use372"
         style="fill:#ffffff" />
      <use
         xlink:href="#DejaVuSans-61"
         x="170.89844"
         id="use374"
         style="fill:#ffffff" />
      <use
         xlink:href="#DejaVuSans-63"
         x="232.17773"
         id="use376"
         style="fill:#ffffff" />
      <use
         xlink:href="#DejaVuSans-5f"
         x="287.1582"
         id="use378"
         style="fill:#ffffff" />
      <use
         xlink:href="#DejaVuSans-6f"
         x="337.1582"
         id="use380"
         style="fill:#ffffff" />
      <use
         xlink:href="#DejaVuSans-75"
         x="398.33984"
         id="use382"
         style="fill:#ffffff" />
      <use
         xlink:href="#DejaVuSans-74"
         x="461.71875"
         id="use384"
         style="fill:#ffffff" />
      <use
         xlink:href="#DejaVuSans-29"
         x="500.92773"
         id="use386"
         style="fill:#ffffff" />
    </g>
  </g>
  <g
     id="line2d_19"
     transform="translate(-84.873125,-41.072)">
    <path
       d="m 784.8455,76.3045 h 10 10"
       style="fill:none;stroke:#ff7f0e;stroke-width:1.5;stroke-linecap:square"
       id="path391" />
  </g>
  <g
     id="text_19"
     transform="translate(-84.873125,-41.072)"
     style="fill:#ffffff">
    <!-- V(after_filter) -->
    <g
       transform="matrix(0.1,0,0,-0.1,812.8455,73.026688)"
       id="g428"
       style="fill:#ffffff">
      <defs
         id="defs396">
        <path
           id="DejaVuSans-66"
           d="m 2375,4863 v -479 h -550 q -309,0 -430,-125 -120,-125 -120,-450 v -309 h 947 V 3053 H 1275 V 0 H 697 V 3053 H 147 v 447 h 550 v 244 q 0,584 272,851 272,268 862,268 z"
           transform="scale(0.015625)" />
        <path
           id="DejaVuSans-72"
           d="m 2631,2963 q -97,56 -211,82 -114,27 -251,27 -488,0 -749,-317 -261,-317 -261,-911 V 0 H 581 v 3500 h 578 v -544 q 182,319 472,473 291,155 707,155 59,0 131,-8 72,-7 159,-23 z"
           transform="scale(0.015625)" />
      </defs>
      <use
         xlink:href="#DejaVuSans-56"
         id="use398"
         style="fill:#ffffff" />
      <use
         xlink:href="#DejaVuSans-28"
         x="68.408203"
         id="use400"
         style="fill:#ffffff" />
      <use
         xlink:href="#DejaVuSans-61"
         x="107.42188"
         id="use402"
         style="fill:#ffffff" />
      <use
         xlink:href="#DejaVuSans-66"
         x="168.70117"
         id="use404"
         style="fill:#ffffff" />
      <use
         xlink:href="#DejaVuSans-74"
         x="202.15625"
         id="use406"
         style="fill:#ffffff" />
      <use
         xlink:href="#DejaVuSans-65"
         x="241.36523"
         id="use408"
         style="fill:#ffffff" />
      <use
         xlink:href="#DejaVuSans-72"
         x="302.88867"
         id="use410"
         style="fill:#ffffff" />
      <use
         xlink:href="#DejaVuSans-5f"
         x="344.00195"
         id="use412"
         style="fill:#ffffff" />
      <use
         xlink:href="#DejaVuSans-66"
         x="394.00195"
         id="use414"
         style="fill:#ffffff" />
      <use
         xlink:href="#DejaVuSans-69"
         x="429.20703"
         id="use416"
         style="fill:#ffffff" />
      <use
         xlink:href="#DejaVuSans-6c"
         x="456.99023"
         id="use418"
         style="fill:#ffffff" />
      <use
         xlink:href="#DejaVuSans-74"
         x="484.77344"
         id="use420"
         style="fill:#ffffff" />
      <use
         xlink:href="#DejaVuSans-65"
         x="523.98242"
         id="use422"
         style="fill:#ffffff" />
      <use
         xlink:href="#DejaVuSans-72"
         x="585.50586"
         id="use424"
         style="fill:#ffffff" />
      <use
         xlink:href="#DejaVuSans-29"
         x="626.61914"
         id="use426"
         style="fill:#ffffff" />
    </g>
    <!--  -->
    <g
       transform="matrix(0.1,0,0,-0.1,812.8455,84.502625)"
       id="g430"
       style="fill:#ffffff" />
  </g>
  <defs
     id="defs439">
    <clipPath
       id="pb86192c87c">
      <rect
         x="123.39"
         y="41.472"
         width="765.01801"
         height="266.112"
         id="rect436" />
    </clipPath>
  </defs>
</svg>
