<?xml version="1.0" encoding="UTF-8" standalone="no"?>
<svg
   width="808.39886pt"
   height="297.89075pt"
   viewBox="0 0 808.39886 297.89074"
   version="1.1"
   id="svg372"
   sodipodi:docname="LowPassFilterTransientSimulationZoomed.svg"
   inkscape:version="1.2.2 (732a01da63, 2022-12-09)"
   xmlns:inkscape="http://www.inkscape.org/namespaces/inkscape"
   xmlns:sodipodi="http://sodipodi.sourceforge.net/DTD/sodipodi-0.dtd"
   xmlns:xlink="http://www.w3.org/1999/xlink"
   xmlns="http://www.w3.org/2000/svg"
   xmlns:svg="http://www.w3.org/2000/svg"
   xmlns:rdf="http://www.w3.org/1999/02/22-rdf-syntax-ns#"
   xmlns:cc="http://creativecommons.org/ns#"
   xmlns:dc="http://purl.org/dc/elements/1.1/">
  <sodipodi:namedview
     id="namedview374"
     pagecolor="#4a4a4a"
     bordercolor="#000000"
     borderopacity="0.25"
     inkscape:showpageshadow="2"
     inkscape:pageopacity="0"
     inkscape:pagecheckerboard="0"
     inkscape:deskcolor="#d1d1d1"
     inkscape:document-units="pt"
     showgrid="false"
     inkscape:zoom="0.91400773"
     inkscape:cx="465.53217"
     inkscape:cy="176.14731"
     inkscape:window-width="2560"
     inkscape:window-height="1377"
     inkscape:window-x="1912"
     inkscape:window-y="-8"
     inkscape:window-maximized="1"
     inkscape:current-layer="svg372" />
  <metadata
     id="metadata2">
    <rdf:RDF>
      <cc:Work>
        <dc:type
           rdf:resource="http://purl.org/dc/dcmitype/StillImage" />
        <dc:date>2023-02-27T18:01:34.928159</dc:date>
        <dc:format>image/svg+xml</dc:format>
        <dc:creator>
          <cc:Agent>
            <dc:title>Matplotlib v3.7.0, https://matplotlib.org/</dc:title>
          </cc:Agent>
        </dc:creator>
      </cc:Work>
    </rdf:RDF>
  </metadata>
  <defs
     id="defs6">
    <style
       type="text/css"
       id="style4">*{stroke-linejoin: round; stroke-linecap: butt}</style>
  </defs>
  <g
     id="matplotlib.axis_1"
     transform="translate(-85.593125,-41.072)"
     style="fill:#ffffff">
    <g
       id="xtick_1"
       style="fill:#ffffff">
      <g
         id="line2d_1"
         style="fill:#ffffff">
        <defs
           id="defs15">
          <path
             id="m6c1beb1e18"
             d="M 0,0 V 3.5"
             style="stroke:#ffffff;stroke-width:0.8" />
        </defs>
        <g
           id="g19"
           style="fill:#ffffff">
          <use
             xlink:href="#m6c1beb1e18"
             x="231.74831"
             y="307.58401"
             style="stroke:#ffffff;stroke-width:0.8;fill:#ffffff"
             id="use17" />
        </g>
      </g>
      <g
         id="text_1"
         style="fill:#ffffff">
        <!-- 0.15 -->
        <g
           transform="matrix(0.1,0,0,-0.1,220.6155,322.18244)"
           id="g36"
           style="fill:#ffffff">
          <defs
             id="defs26">
            <path
               id="DejaVuSans-30"
               d="m 2034,4250 q -487,0 -733,-480 -245,-479 -245,-1442 0,-959 245,-1439 246,-480 733,-480 491,0 736,480 246,480 246,1439 0,963 -246,1442 -245,480 -736,480 z m 0,500 q 785,0 1199,-621 414,-620 414,-1801 0,-1178 -414,-1799 -414,-620 -1199,-620 -784,0 -1198,620 -414,621 -414,1799 0,1181 414,1801 414,621 1198,621 z"
               transform="scale(0.015625)" />
            <path
               id="DejaVuSans-2e"
               d="m 684,794 h 660 V 0 H 684 Z"
               transform="scale(0.015625)" />
            <path
               id="DejaVuSans-31"
               d="M 794,531 H 1825 V 4091 L 703,3866 v 575 l 1116,225 h 631 V 531 H 3481 V 0 H 794 Z"
               transform="scale(0.015625)" />
            <path
               id="DejaVuSans-35"
               d="M 691,4666 H 3169 V 4134 H 1269 V 2991 q 137,47 274,70 138,23 276,23 781,0 1237,-428 457,-428 457,-1159 Q 3513,744 3044,326 2575,-91 1722,-91 1428,-91 1123,-41 819,9 494,109 v 635 q 281,-153 581,-228 300,-75 634,-75 541,0 856,284 316,284 316,772 0,487 -316,771 -315,285 -856,285 -253,0 -505,-56 -251,-56 -513,-175 z"
               transform="scale(0.015625)" />
          </defs>
          <use
             xlink:href="#DejaVuSans-30"
             id="use28"
             style="fill:#ffffff" />
          <use
             xlink:href="#DejaVuSans-2e"
             x="63.623047"
             id="use30"
             style="fill:#ffffff" />
          <use
             xlink:href="#DejaVuSans-31"
             x="95.410156"
             id="use32"
             style="fill:#ffffff" />
          <use
             xlink:href="#DejaVuSans-35"
             x="159.0332"
             id="use34"
             style="fill:#ffffff" />
        </g>
      </g>
    </g>
    <g
       id="xtick_2"
       style="fill:#ffffff">
      <g
         id="line2d_2"
         style="fill:#ffffff">
        <g
           id="g42"
           style="fill:#ffffff">
          <use
             xlink:href="#m6c1beb1e18"
             x="381.26917"
             y="307.58401"
             style="stroke:#ffffff;stroke-width:0.8;fill:#ffffff"
             id="use40" />
        </g>
      </g>
      <g
         id="text_2"
         style="fill:#ffffff">
        <!-- 0.20 -->
        <g
           transform="matrix(0.1,0,0,-0.1,370.13634,322.18244)"
           id="g56"
           style="fill:#ffffff">
          <defs
             id="defs46">
            <path
               id="DejaVuSans-32"
               d="M 1228,531 H 3431 V 0 H 469 v 531 q 359,372 979,998 621,627 780,809 303,340 423,576 121,236 121,464 0,372 -261,606 -261,235 -680,235 -297,0 -627,-103 -329,-103 -704,-313 v 638 q 381,153 712,231 332,78 607,78 725,0 1156,-363 431,-362 431,-968 0,-288 -108,-546 -107,-257 -392,-607 -78,-91 -497,-524 Q 1991,1309 1228,531 Z"
               transform="scale(0.015625)" />
          </defs>
          <use
             xlink:href="#DejaVuSans-30"
             id="use48"
             style="fill:#ffffff" />
          <use
             xlink:href="#DejaVuSans-2e"
             x="63.623047"
             id="use50"
             style="fill:#ffffff" />
          <use
             xlink:href="#DejaVuSans-32"
             x="95.410156"
             id="use52"
             style="fill:#ffffff" />
          <use
             xlink:href="#DejaVuSans-30"
             x="159.0332"
             id="use54"
             style="fill:#ffffff" />
        </g>
      </g>
    </g>
    <g
       id="xtick_3"
       style="fill:#ffffff">
      <g
         id="line2d_3"
         style="fill:#ffffff">
        <g
           id="g62"
           style="fill:#ffffff">
          <use
             xlink:href="#m6c1beb1e18"
             x="530.78998"
             y="307.58401"
             style="stroke:#ffffff;stroke-width:0.8;fill:#ffffff"
             id="use60" />
        </g>
      </g>
      <g
         id="text_3"
         style="fill:#ffffff">
        <!-- 0.25 -->
        <g
           transform="matrix(0.1,0,0,-0.1,519.65719,322.18244)"
           id="g73"
           style="fill:#ffffff">
          <use
             xlink:href="#DejaVuSans-30"
             id="use65"
             style="fill:#ffffff" />
          <use
             xlink:href="#DejaVuSans-2e"
             x="63.623047"
             id="use67"
             style="fill:#ffffff" />
          <use
             xlink:href="#DejaVuSans-32"
             x="95.410156"
             id="use69"
             style="fill:#ffffff" />
          <use
             xlink:href="#DejaVuSans-35"
             x="159.0332"
             id="use71"
             style="fill:#ffffff" />
        </g>
      </g>
    </g>
    <g
       id="xtick_4"
       style="fill:#ffffff">
      <g
         id="line2d_4"
         style="fill:#ffffff">
        <g
           id="g79"
           style="fill:#ffffff">
          <use
             xlink:href="#m6c1beb1e18"
             x="680.31085"
             y="307.58401"
             style="stroke:#ffffff;stroke-width:0.8;fill:#ffffff"
             id="use77" />
        </g>
      </g>
      <g
         id="text_4"
         style="fill:#ffffff">
        <!-- 0.30 -->
        <g
           transform="matrix(0.1,0,0,-0.1,669.17803,322.18244)"
           id="g93"
           style="fill:#ffffff">
          <defs
             id="defs83">
            <path
               id="DejaVuSans-33"
               d="m 2597,2516 q 453,-97 707,-404 255,-306 255,-756 0,-690 -475,-1069 -475,-378 -1350,-378 -293,0 -604,58 -311,58 -642,174 v 609 q 262,-153 574,-231 313,-78 654,-78 593,0 904,234 311,234 311,681 0,413 -289,645 -289,233 -804,233 h -544 v 519 h 569 q 465,0 712,186 247,186 247,536 0,359 -255,551 -254,193 -729,193 -260,0 -557,-57 -297,-56 -653,-174 v 562 q 360,100 674,150 314,50 592,50 719,0 1137,-327 419,-326 419,-882 0,-388 -222,-655 -222,-267 -631,-370 z"
               transform="scale(0.015625)" />
          </defs>
          <use
             xlink:href="#DejaVuSans-30"
             id="use85"
             style="fill:#ffffff" />
          <use
             xlink:href="#DejaVuSans-2e"
             x="63.623047"
             id="use87"
             style="fill:#ffffff" />
          <use
             xlink:href="#DejaVuSans-33"
             x="95.410156"
             id="use89"
             style="fill:#ffffff" />
          <use
             xlink:href="#DejaVuSans-30"
             x="159.0332"
             id="use91"
             style="fill:#ffffff" />
        </g>
      </g>
    </g>
    <g
       id="xtick_5"
       style="fill:#ffffff">
      <g
         id="line2d_5"
         style="fill:#ffffff">
        <g
           id="g99"
           style="fill:#ffffff">
          <use
             xlink:href="#m6c1beb1e18"
             x="829.83167"
             y="307.58401"
             style="stroke:#ffffff;stroke-width:0.8;fill:#ffffff"
             id="use97" />
        </g>
      </g>
      <g
         id="text_5"
         style="fill:#ffffff">
        <!-- 0.35 -->
        <g
           transform="matrix(0.1,0,0,-0.1,818.69888,322.18244)"
           id="g110"
           style="fill:#ffffff">
          <use
             xlink:href="#DejaVuSans-30"
             id="use102"
             style="fill:#ffffff" />
          <use
             xlink:href="#DejaVuSans-2e"
             x="63.623047"
             id="use104"
             style="fill:#ffffff" />
          <use
             xlink:href="#DejaVuSans-33"
             x="95.410156"
             id="use106"
             style="fill:#ffffff" />
          <use
             xlink:href="#DejaVuSans-35"
             x="159.0332"
             id="use108"
             style="fill:#ffffff" />
        </g>
      </g>
    </g>
    <g
       id="text_6"
       style="fill:#ffffff">
      <!-- Time [ms] -->
      <g
         transform="matrix(0.12,0,0,-0.12,478.61194,337.38025)"
         id="g142"
         style="fill:#ffffff">
        <defs
           id="defs122">
          <path
             id="DejaVuSans-54"
             d="M -19,4666 H 3928 V 4134 H 2272 V 0 H 1638 V 4134 H -19 Z"
             transform="scale(0.015625)" />
          <path
             id="DejaVuSans-69"
             d="m 603,3500 h 575 V 0 H 603 Z m 0,1363 h 575 V 4134 H 603 Z"
             transform="scale(0.015625)" />
          <path
             id="DejaVuSans-6d"
             d="m 3328,2828 q 216,388 516,572 300,184 706,184 547,0 844,-383 297,-382 297,-1088 V 0 h -578 v 2094 q 0,503 -179,746 -178,244 -543,244 -447,0 -707,-297 -259,-296 -259,-809 V 0 h -578 v 2094 q 0,506 -178,748 -178,242 -550,242 -441,0 -701,-298 -259,-298 -259,-808 V 0 H 581 v 3500 h 578 v -544 q 197,322 472,475 275,153 653,153 382,0 649,-194 267,-193 395,-562 z"
             transform="scale(0.015625)" />
          <path
             id="DejaVuSans-65"
             d="M 3597,1894 V 1613 H 953 q 38,-594 358,-905 320,-311 892,-311 331,0 642,81 311,81 618,244 V 178 Q 3153,47 2828,-22 2503,-91 2169,-91 1331,-91 842,396 353,884 353,1716 q 0,859 464,1363 464,505 1252,505 706,0 1117,-455 411,-454 411,-1235 z m -575,169 q -6,471 -264,752 -258,282 -683,282 -481,0 -770,-272 -289,-272 -333,-766 z"
             transform="scale(0.015625)" />
          <path
             id="DejaVuSans-20"
             transform="scale(0.015625)"
             d="" />
          <path
             id="DejaVuSans-5b"
             d="M 550,4863 H 1875 V 4416 H 1125 V -397 h 750 V -844 H 550 Z"
             transform="scale(0.015625)" />
          <path
             id="DejaVuSans-73"
             d="m 2834,3397 v -544 q -243,125 -506,187 -262,63 -544,63 -428,0 -642,-131 -214,-131 -214,-394 0,-200 153,-314 153,-114 616,-217 l 197,-44 q 612,-131 870,-370 258,-239 258,-667 0,-488 -386,-773 Q 2250,-91 1575,-91 1294,-91 989,-36 684,19 347,128 v 594 q 319,-166 628,-249 309,-82 613,-82 406,0 624,139 219,139 219,392 0,234 -158,359 -157,125 -692,241 l -200,47 q -534,112 -772,345 -237,233 -237,639 0,494 350,762 350,269 994,269 318,0 599,-47 282,-46 519,-140 z"
             transform="scale(0.015625)" />
          <path
             id="DejaVuSans-5d"
             d="M 1947,4863 V -844 H 622 v 447 h 747 V 4416 H 622 v 447 z"
             transform="scale(0.015625)" />
        </defs>
        <use
           xlink:href="#DejaVuSans-54"
           id="use124"
           style="fill:#ffffff" />
        <use
           xlink:href="#DejaVuSans-69"
           x="57.958984"
           id="use126"
           style="fill:#ffffff" />
        <use
           xlink:href="#DejaVuSans-6d"
           x="85.742188"
           id="use128"
           style="fill:#ffffff" />
        <use
           xlink:href="#DejaVuSans-65"
           x="183.1543"
           id="use130"
           style="fill:#ffffff" />
        <use
           xlink:href="#DejaVuSans-20"
           x="244.67773"
           id="use132"
           style="fill:#ffffff" />
        <use
           xlink:href="#DejaVuSans-5b"
           x="276.46484"
           id="use134"
           style="fill:#ffffff" />
        <use
           xlink:href="#DejaVuSans-6d"
           x="315.47852"
           id="use136"
           style="fill:#ffffff" />
        <use
           xlink:href="#DejaVuSans-73"
           x="412.89062"
           id="use138"
           style="fill:#ffffff" />
        <use
           xlink:href="#DejaVuSans-5d"
           x="464.99023"
           id="use140"
           style="fill:#ffffff" />
      </g>
    </g>
  </g>
  <g
     id="matplotlib.axis_2"
     transform="translate(-85.593125,-41.072)"
     style="fill:#ffffff">
    <g
       id="ytick_1"
       style="fill:#ffffff">
      <g
         id="line2d_6"
         style="fill:#ffffff">
        <defs
           id="defs147">
          <path
             id="mb8d9009070"
             d="M 0,0 H -3.5"
             style="stroke:#ffffff;stroke-width:0.8" />
        </defs>
        <g
           id="g151"
           style="fill:#ffffff">
          <use
             xlink:href="#mb8d9009070"
             x="124.11"
             y="275.76569"
             style="stroke:#ffffff;stroke-width:0.8;fill:#ffffff"
             id="use149" />
        </g>
      </g>
      <g
         id="text_7"
         style="fill:#ffffff">
        <!-- 3.8 -->
        <g
           transform="matrix(0.1,0,0,-0.1,101.20687,279.56491)"
           id="g163"
           style="fill:#ffffff">
          <defs
             id="defs155">
            <path
               id="DejaVuSans-38"
               d="m 2034,2216 q -450,0 -708,-241 -257,-241 -257,-662 0,-422 257,-663 258,-241 708,-241 450,0 709,242 260,243 260,662 0,421 -258,662 -257,241 -711,241 z m -631,268 q -406,100 -633,378 -226,279 -226,679 0,559 398,884 399,325 1092,325 697,0 1094,-325 397,-325 397,-884 0,-400 -227,-679 -226,-278 -629,-378 456,-106 710,-416 255,-309 255,-755 Q 3634,634 3220,271 2806,-91 2034,-91 1263,-91 848,271 434,634 434,1313 q 0,446 256,755 257,310 713,416 z m -231,997 q 0,-362 226,-565 227,-203 636,-203 407,0 636,203 230,203 230,565 0,363 -230,566 -229,203 -636,203 -409,0 -636,-203 -226,-203 -226,-566 z"
               transform="scale(0.015625)" />
          </defs>
          <use
             xlink:href="#DejaVuSans-33"
             id="use157"
             style="fill:#ffffff" />
          <use
             xlink:href="#DejaVuSans-2e"
             x="63.623047"
             id="use159"
             style="fill:#ffffff" />
          <use
             xlink:href="#DejaVuSans-38"
             x="95.410156"
             id="use161"
             style="fill:#ffffff" />
        </g>
      </g>
    </g>
    <g
       id="ytick_2"
       style="fill:#ffffff">
      <g
         id="line2d_7"
         style="fill:#ffffff">
        <g
           id="g169"
           style="fill:#ffffff">
          <use
             xlink:href="#mb8d9009070"
             x="124.11"
             y="226.98393"
             style="stroke:#ffffff;stroke-width:0.8;fill:#ffffff"
             id="use167" />
        </g>
      </g>
      <g
         id="text_8"
         style="fill:#ffffff">
        <!-- 4.0 -->
        <g
           transform="matrix(0.1,0,0,-0.1,101.20687,230.78315)"
           id="g181"
           style="fill:#ffffff">
          <defs
             id="defs173">
            <path
               id="DejaVuSans-34"
               d="M 2419,4116 825,1625 h 1594 z m -166,550 h 794 V 1625 h 666 V 1100 H 3047 V 0 H 2419 V 1100 H 313 v 609 z"
               transform="scale(0.015625)" />
          </defs>
          <use
             xlink:href="#DejaVuSans-34"
             id="use175"
             style="fill:#ffffff" />
          <use
             xlink:href="#DejaVuSans-2e"
             x="63.623047"
             id="use177"
             style="fill:#ffffff" />
          <use
             xlink:href="#DejaVuSans-30"
             x="95.410156"
             id="use179"
             style="fill:#ffffff" />
        </g>
      </g>
    </g>
    <g
       id="ytick_3"
       style="fill:#ffffff">
      <g
         id="line2d_8"
         style="fill:#ffffff">
        <g
           id="g187"
           style="fill:#ffffff">
          <use
             xlink:href="#mb8d9009070"
             x="124.11"
             y="178.20218"
             style="stroke:#ffffff;stroke-width:0.8;fill:#ffffff"
             id="use185" />
        </g>
      </g>
      <g
         id="text_9"
         style="fill:#ffffff">
        <!-- 4.2 -->
        <g
           transform="matrix(0.1,0,0,-0.1,101.20687,182.0014)"
           id="g196"
           style="fill:#ffffff">
          <use
             xlink:href="#DejaVuSans-34"
             id="use190"
             style="fill:#ffffff" />
          <use
             xlink:href="#DejaVuSans-2e"
             x="63.623047"
             id="use192"
             style="fill:#ffffff" />
          <use
             xlink:href="#DejaVuSans-32"
             x="95.410156"
             id="use194"
             style="fill:#ffffff" />
        </g>
      </g>
    </g>
    <g
       id="ytick_4"
       style="fill:#ffffff">
      <g
         id="line2d_9"
         style="fill:#ffffff">
        <g
           id="g202"
           style="fill:#ffffff">
          <use
             xlink:href="#mb8d9009070"
             x="124.11"
             y="129.42043"
             style="stroke:#ffffff;stroke-width:0.8;fill:#ffffff"
             id="use200" />
        </g>
      </g>
      <g
         id="text_10"
         style="fill:#ffffff">
        <!-- 4.4 -->
        <g
           transform="matrix(0.1,0,0,-0.1,101.20687,133.21964)"
           id="g211"
           style="fill:#ffffff">
          <use
             xlink:href="#DejaVuSans-34"
             id="use205"
             style="fill:#ffffff" />
          <use
             xlink:href="#DejaVuSans-2e"
             x="63.623047"
             id="use207"
             style="fill:#ffffff" />
          <use
             xlink:href="#DejaVuSans-34"
             x="95.410156"
             id="use209"
             style="fill:#ffffff" />
        </g>
      </g>
    </g>
    <g
       id="ytick_5"
       style="fill:#ffffff">
      <g
         id="line2d_10"
         style="fill:#ffffff">
        <g
           id="g217"
           style="fill:#ffffff">
          <use
             xlink:href="#mb8d9009070"
             x="124.11"
             y="80.638672"
             style="stroke:#ffffff;stroke-width:0.8;fill:#ffffff"
             id="use215" />
        </g>
      </g>
      <g
         id="text_11"
         style="fill:#ffffff">
        <!-- 4.6 -->
        <g
           transform="matrix(0.1,0,0,-0.1,101.20687,84.43789)"
           id="g229"
           style="fill:#ffffff">
          <defs
             id="defs221">
            <path
               id="DejaVuSans-36"
               d="m 2113,2584 q -425,0 -674,-291 -248,-290 -248,-796 0,-503 248,-796 249,-292 674,-292 425,0 673,292 248,293 248,796 0,506 -248,796 -248,291 -673,291 z m 1253,1979 v -575 q -238,112 -480,171 -242,60 -480,60 -625,0 -955,-422 -329,-422 -376,-1275 184,272 462,417 279,145 613,145 703,0 1111,-427 408,-426 408,-1160 0,-719 -425,-1154 -425,-434 -1131,-434 -810,0 -1238,620 -428,621 -428,1799 0,1106 525,1764 525,658 1409,658 238,0 480,-47 242,-47 505,-140 z"
               transform="scale(0.015625)" />
          </defs>
          <use
             xlink:href="#DejaVuSans-34"
             id="use223"
             style="fill:#ffffff" />
          <use
             xlink:href="#DejaVuSans-2e"
             x="63.623047"
             id="use225"
             style="fill:#ffffff" />
          <use
             xlink:href="#DejaVuSans-36"
             x="95.410156"
             id="use227"
             style="fill:#ffffff" />
        </g>
      </g>
    </g>
    <g
       id="text_12"
       style="fill:#ffffff">
      <!-- Voltage [V] -->
      <g
         transform="matrix(0,-0.12,-0.12,0,94.71125,207.72862)"
         id="g263"
         style="fill:#ffffff">
        <defs
           id="defs239">
          <path
             id="DejaVuSans-56"
             d="M 1831,0 50,4666 H 709 L 2188,738 3669,4666 h 656 L 2547,0 Z"
             transform="scale(0.015625)" />
          <path
             id="DejaVuSans-6f"
             d="m 1959,3097 q -462,0 -731,-361 -269,-361 -269,-989 0,-628 267,-989 268,-361 733,-361 460,0 728,362 269,363 269,988 0,622 -269,986 -268,364 -728,364 z m 0,487 q 750,0 1178,-488 429,-487 429,-1349 Q 3566,888 3137,398 2709,-91 1959,-91 1206,-91 779,398 353,888 353,1747 q 0,862 426,1349 427,488 1180,488 z"
             transform="scale(0.015625)" />
          <path
             id="DejaVuSans-6c"
             d="m 603,4863 h 575 V 0 H 603 Z"
             transform="scale(0.015625)" />
          <path
             id="DejaVuSans-74"
             d="M 1172,4494 V 3500 H 2356 V 3053 H 1172 V 1153 q 0,-428 117,-550 117,-122 477,-122 h 590 V 0 H 1766 Q 1100,0 847,248 594,497 594,1153 V 3053 H 172 v 447 h 422 v 994 z"
             transform="scale(0.015625)" />
          <path
             id="DejaVuSans-61"
             d="m 2194,1759 q -697,0 -966,-159 -269,-159 -269,-544 0,-306 202,-486 202,-179 548,-179 479,0 768,339 289,339 289,901 v 128 z m 1147,238 V 0 H 2766 V 531 Q 2569,213 2275,61 1981,-91 1556,-91 q -537,0 -855,302 -317,302 -317,808 0,590 395,890 396,300 1180,300 h 807 v 57 q 0,397 -261,614 -261,217 -733,217 -300,0 -585,-72 -284,-72 -546,-216 v 532 q 315,122 612,182 297,61 578,61 760,0 1135,-394 375,-393 375,-1193 z"
             transform="scale(0.015625)" />
          <path
             id="DejaVuSans-67"
             d="m 2906,1791 q 0,625 -258,968 -257,344 -723,344 -462,0 -720,-344 -258,-343 -258,-968 0,-622 258,-966 258,-344 720,-344 466,0 723,344 258,344 258,966 z M 3481,434 q 0,-893 -397,-1329 -396,-436 -1215,-436 -303,0 -572,45 -269,45 -522,139 v 559 q 253,-137 500,-202 247,-66 503,-66 566,0 847,295 281,295 281,892 V 616 Q 2728,306 2450,153 2172,0 1784,0 1141,0 747,490 353,981 353,1791 q 0,812 394,1302 394,491 1037,491 388,0 666,-153 278,-153 456,-462 v 531 h 575 z"
             transform="scale(0.015625)" />
        </defs>
        <use
           xlink:href="#DejaVuSans-56"
           id="use241"
           style="fill:#ffffff" />
        <use
           xlink:href="#DejaVuSans-6f"
           x="60.658203"
           id="use243"
           style="fill:#ffffff" />
        <use
           xlink:href="#DejaVuSans-6c"
           x="121.83984"
           id="use245"
           style="fill:#ffffff" />
        <use
           xlink:href="#DejaVuSans-74"
           x="149.62305"
           id="use247"
           style="fill:#ffffff" />
        <use
           xlink:href="#DejaVuSans-61"
           x="188.83203"
           id="use249"
           style="fill:#ffffff" />
        <use
           xlink:href="#DejaVuSans-67"
           x="250.11133"
           id="use251"
           style="fill:#ffffff" />
        <use
           xlink:href="#DejaVuSans-65"
           x="313.58789"
           id="use253"
           style="fill:#ffffff" />
        <use
           xlink:href="#DejaVuSans-20"
           x="375.11133"
           id="use255"
           style="fill:#ffffff" />
        <use
           xlink:href="#DejaVuSans-5b"
           x="406.89844"
           id="use257"
           style="fill:#ffffff" />
        <use
           xlink:href="#DejaVuSans-56"
           x="445.91211"
           id="use259"
           style="fill:#ffffff" />
        <use
           xlink:href="#DejaVuSans-5d"
           x="514.32031"
           id="use261"
           style="fill:#ffffff" />
      </g>
    </g>
  </g>
  <g
     id="line2d_11"
     transform="translate(-85.593125,-41.072)">
    <path
       d="m 123.82614,273.66954 h 1.66842 l 0.20068,-1.08442 0.42879,-3.67937 h 5.62465 l 0.1441,-0.91002 0.23311,-2.47763 0.41135,-1.37613 h 5.39887 l 0.16734,-1.1332 0.18441,-2.28006 0.24149,-1.35076 h 5.80156 l 0.16132,-1.14125 0.34469,-3.62254 h 5.98555 l 0.13693,-1.21296 0.28367,-3.55082 h 6.04651 l 0.16157,-1.16198 0.16967,-2.23396 0.22891,-1.36784 h 6.06216 l 0.18567,-1.09174 0.21944,-2.45738 0.33063,-1.21466 h 6.04336 l 0.16673,-1.15686 0.19894,-3.60717 h 6.5007 l 0.15188,-1.29125 0.28666,-3.47253 h 6.41661 l 0.14833,-1.0832 0.17786,-2.25738 0.26403,-1.4232 h 6.457 l 0.1851,-1.17028 0.19165,-2.31786 0.22106,-1.27589 h 6.54918 l 0.16979,-0.93685 0.36507,-3.82693 h 6.75536 l 0.18064,-1.17442 0.39378,-3.58936 h 6.92125 l 0.16652,-1.06028 0.39704,-3.70351 h 7.14474 l 0.18139,-2.33006 0.0565,-2.43372 h 7.41414 l 0.21911,-1.00685 0.42576,-3.75718 h 7.55072 l 0.25257,-4.76378 h 7.80088 l 0.28777,-4.76378 h 7.71647 l 0.23297,-1.06783 0.30736,-3.6962 h 8.26117 l 0.12001,-1.16149 0.25648,-3.60229 h 8.33315 l 0.2068,-0.99515 0.42182,-3.76863 h 8.33667 l 0.21339,-1.18076 0.29464,-3.58302 h 9.14134 l 0.51894,-4.76378 h 9.07384 l 0.23485,-1.22272 0.26041,-3.54131 h 9.7418 l 0.1741,-0.99588 0.41895,-3.7679 h 9.92027 l 0.18895,-1.33882 0.24281,-3.42497 h 10.9491 l 0.0698,-4.76402 h 11.43773 l 0.72506,-4.76378 h 11.75352 l 0.17443,-1.22491 0.20427,-3.53888 h 13.12218 l 0.39667,-4.76378 h 14.08233 l 0.37185,-4.76378 h 15.62747 l 0.16592,-0.82051 0.31581,-2.80251 0.29041,-1.14101 h 17.5145 l 0.12332,-1.29735 0.2121,-3.46643 h 21.30402 l 0.1889,-1.02149 0.25162,-2.31323 0.37737,-1.42906 h 27.76542 l 0.19907,-1.3754 0.32694,-3.38863 h 126.04748 l 0.0875,4.76403 h 28.5908 l 0.18062,4.76378 h 21.55737 l 0.10956,4.76378 h 17.87562 l 0.23847,1.60102 0.20724,3.16301 h 15.85686 l 0.13182,4.76378 h 14.38017 l 0.0939,4.76378 h 13.19196 l 0.0836,1.30662 0.18558,3.45717 h 12.1895 l 0.0914,1.17417 0.12868,3.58961 h 11.48608 l 0.30202,4.76402 h 10.81613 l 0.16753,3.82888 0.16248,0.93491 h 10.22599 l 0.0977,1.15173 0.21797,3.61205 h 9.92931 l 0.22586,4.76403 h 9.47725 l 0.32331,4.76378 h 8.95888 l 0.16484,1.91932 0.13883,2.84446 h 8.92018 l 0.21134,4.76378 h 8.61853 l 0.24055,4.76378 h 8.31231 l 0.29537,4.76403 h 7.92868 l 0.15347,1.59833 0.21163,3.16545 h 7.79811 l 0.20722,3.62302 0.0795,1.14076 h 7.65783 l 0.47819,4.76403 h 7.19056 l 0.18418,1.45028 0.23928,3.3135 h 7.17455 l 0.13992,1.09101 0.32288,3.67278 h 7.06488 l 0.12237,1.04271 0.29945,3.72107 h 6.94622 l 0.0415,0.79416 0.0925,3.96962 h 6.88245 l 0.21962,1.29003 0.38396,3.474 h 6.48962 l 0.12268,1.23174 0.24256,3.53204 h 6.65233 l 0.0578,0.91124 0.14528,3.85254 h 6.58896 l 0.31493,4.76403 h 2.86726 v 0"
       clip-path="url(#p72b377c19c)"
       style="fill:none;stroke:#1f77b4;stroke-width:1.5;stroke-linecap:square"
       id="path267" />
  </g>
  <g
     id="line2d_12"
     transform="translate(-85.593125,-41.072)">
    <path
       d="m 123.82614,292.91686 1.48075,-2.0181 0.38835,-0.19561 1.39439,-0.17464 0.70218,-0.87295 1.18083,-1.82419 0.58769,-0.38367 0.71331,0.15025 0.30072,0.0388 0.56431,-0.30489 0.75411,-1.03027 0.99576,-1.42248 0.54971,-0.35976 1.17782,-0.12732 0.56252,-0.52562 1.59047,-2.08811 0.60398,-0.25756 1.15631,-0.0624 0.4522,-0.41538 0.71804,-1.0032 1.02647,-1.52077 0.61481,-0.27196 0.90141,0.14415 0.59349,-0.37635 0.88119,-1.22491 0.77527,-1.051 0.42121,-0.24806 0.56862,0.0249 0.33706,0.0154 0.54151,-0.26245 0.52181,-0.61758 1.28371,-1.86248 0.56367,-0.37733 0.5647,0.0632 0.48812,0.0693 0.57125,-0.31415 0.88918,-1.15345 0.8538,-1.17686 0.437,-0.32879 0.62842,-0.0985 0.64465,-0.0924 0.51691,-0.41807 2.16707,-2.33786 0.6475,0.0151 0.4824,-0.0356 0.47743,-0.32147 0.82446,-1.041 0.96585,-1.41955 0.59266,-0.37879 1.04964,0.10951 0.5882,-0.38635 1.9785,-2.37079 0.55007,-0.004 0.35982,0.0602 0.45871,-0.10073 0.46043,-0.43416 1.01042,-1.46614 0.66488,-0.89417 0.38529,-0.20366 0.43636,0.0371 0.72952,0.13464 0.60473,-0.42635 1.76109,-2.23762 0.42624,-0.1322 0.9975,-0.0739 0.60711,-0.53221 1.83124,-2.18372 0.43826,-0.0915 1.02217,0.011 0.71596,-0.61709 1.9135,-2.14371 0.70449,-0.12098 0.53442,-0.11391 0.67937,-0.54147 1.86292,-1.97859 0.39621,-0.0827 0.91257,-0.0261 0.44189,-0.26733 0.72812,-0.79173 1.22605,-1.64077 0.6,-0.3005 1.2455,-0.0427 0.47198,-0.44733 1.3654,-1.71907 0.62449,-0.37025 1.26841,0.0285 0.47264,-0.4427 0.956,-1.34564 0.5506,-0.80539 0.46201,-0.33172 0.42962,0.0168 0.63039,0.20586 0.27058,-0.0337 0.67182,-0.58635 1.48648,-1.94078 0.31369,-0.10781 0.58172,0.10073 0.48244,0.0685 0.5924,-0.38074 0.9251,-1.27394 0.76753,-1.09442 0.37828,-0.23098 0.43514,0.0388 0.74164,0.21855 0.57046,-0.31367 0.98236,-1.31052 0.66336,-0.82124 0.36637,-0.17732 0.54442,0.0683 0.46799,0.0759 0.1534,-0.0264 0.63897,-0.51708 1.88764,-2.33738 0.43879,0.0102 0.75379,0.20074 0.5657,-0.2844 0.93665,-1.18052 0.74195,-0.8949 0.37405,-0.17951 0.62045,0.0702 0.21628,0.0449 0.37786,-0.0541 0.72741,-0.66197 1.53276,-1.98688 0.30651,-0.1461 0.72687,0.15952 0.56906,0.0222 0.63493,-0.52025 1.27913,-1.61614 0.58091,-0.32025 0.64339,0.11683 0.43812,-0.003 0.3927,-0.24 0.81218,-0.98198 1.00087,-1.33101 0.37978,-0.22293 0.70879,0.12195 0.41597,0.0907 0.41596,-0.14464 0.45356,-0.42587 1.38379,-1.70736 0.58814,-0.18195 1.07038,0.14268 0.44299,-0.33806 0.90773,-1.19076 0.78461,-1.06905 0.58343,-0.21122 0.90573,0.28488 0.54886,-0.22683 0.78431,-0.95174 0.86452,-1.09588 0.59351,-0.22708 1.16262,0.25391 0.435,-0.33171 0.92192,-1.26516 0.83552,-1.13344 0.3867,-0.13879 0.56437,0.18757 0.53386,0.16903 0.39982,-0.14098 0.13162,-0.11757 1.90261,-2.26981 0.4562,0.0344 0.93695,0.29513 0.34856,-0.17635 0.58077,-0.67879 1.27037,-1.78761 0.38577,-0.2144 0.3817,0.0444 0.75824,0.2666 0.45957,-0.1622 0.60031,-0.71392 1.21453,-1.52785 0.40991,-0.11464 0.40991,0.0929 0.55336,0.21879 0.50791,-0.12074 0.68215,-0.7027 1.47599,-1.72907 0.70333,-0.0349 0.45692,0.0783 0.65119,-0.26391 0.60556,-0.63197 1.11461,-1.28125 0.49999,-0.20318 1.3621,0.0602 0.54207,-0.42099 1.61709,-1.58882 0.5406,-0.14268 0.85188,-0.11367 0.68933,-0.48245 1.5629,-1.56736 0.59313,-0.22366 1.13576,-0.0251 0.68249,-0.48709 1.55095,-1.40443 0.3999,-0.0878 0.79046,0.0588 0.74786,-0.38684 0.51992,-0.50367 1.14171,-1.37516 0.60729,-0.26757 0.87596,0.20367 0.71704,-0.30465 2.0225,-1.93224 0.70484,0.16683 0.47641,0.0832 0.36789,-0.12293 0.39813,-0.32245 1.94185,-2.04201 0.72199,0.0707 0.62813,0.0258 0.36635,-0.22635 1.21109,-1.29857 0.61537,-0.56343 0.46102,-0.11732 0.55496,0.12976 0.4697,0.04 0.0939,-0.0154 0.64754,-0.41757 1.67867,-1.50175 0.63335,-0.0271 0.39969,0.019 0.76057,-0.36879 2.02134,-1.91419 0.77304,0.0473 0.41229,0.0551 0.99696,-0.60855 1.61798,-1.4137 0.46781,0.006 0.51068,0.12927 0.64631,-0.0883 0.74617,-0.5788 1.86641,-1.62541 1.54459,-0.16854 1.27321,-1.19808 0.53754,-0.5044 0.43756,-0.18342 0.67889,0.0688 0.55665,0.0341 0.661,-0.34635 1.93504,-1.52394 0.68532,0.079 0.56886,0.0105 0.8136,-0.54928 0.72565,-0.79588 0.82183,-0.90075 0.33732,-0.12317 0.6066,0.12756 0.6554,0.15854 0.29734,-0.0919 1.04912,-1.00857 0.79624,-0.84563 0.41329,-0.20976 0.41364,0.0373 0.96147,0.29513 0.5457,-0.26537 1.2537,-1.21369 0.47276,-0.39953 0.42977,-0.1722 1.34692,-0.0459 0.99525,-0.751 1.47477,-1.31906 0.44889,-0.0151 0.88176,0.16732 0.65245,-0.27 2.12229,-1.70102 0.61115,0.10049 0.74206,0.16415 0.84086,-0.44709 2.08134,-1.78273 0.44114,-0.005 0.9175,0.0842 0.36162,-0.16269 0.86852,-0.71075 1.23709,-1.1354 0.42274,-0.0851 1.49746,0.15074 0.50603,-0.34001 1.81644,-1.47882 0.45182,0.0332 1.14369,0.28586 0.4174,-0.18781 0.88213,-0.82441 1.22653,-1.3176 0.44685,-0.0771 1.11275,0.39586 0.60419,-0.26342 1.11114,-1.14979 0.62318,-0.64074 0.21485,-0.13342 0.66279,0.0368 0.83559,0.38464 0.58079,-0.15561 1.03601,-0.96124 0.78554,-0.75637 0.44799,-0.15122 0.4393,0.12488 0.91832,0.41367 0.20427,-0.003 0.42073,-0.24464 0.96856,-1.01125 0.89591,-1.04563 0.21869,-0.14049 0.43933,-0.0315 1.11287,0.51953 0.48398,-0.17586 1.00801,-1.01613 0.81301,-0.9027 0.20056,-0.13293 0.92651,0.16 0.70101,0.34757 0.61114,-0.19952 1.09899,-1.08002 0.818,-0.72197 0.47538,-0.0359 1.41231,0.58514 0.79761,-0.52099 0.76925,-0.77758 0.83516,-0.83393 0.70097,-0.12268 1.29122,0.30513 1.01833,-0.78295 1.48766,-1.33418 0.15733,-0.0176 0.78995,0.28537 0.53949,0.19976 0.7833,-0.30464 1.96197,-1.67468 0.5048,0.0632 0.79446,0.42708 0.82492,-0.0749 1.0736,-0.87612 0.85107,-0.71587 0.46292,-0.10976 1.5087,0.26684 0.79834,-0.53831 0.92434,-0.9349 0.80116,-0.66807 0.5326,0.0356 1.26044,0.45148 0.5974,-0.3505 0.88694,-0.80539 0.99206,-0.86026 0.39485,-0.04 0.4099,0.17659 0.8107,0.40172 0.38547,-0.0166 0.5467,-0.32708 2.06595,-1.53224 0.3218,0.10195 1.2696,0.57807 0.51164,-0.21123 1.10505,-0.89417 0.89812,-0.74221 0.79548,-0.0998 1.01828,0.22269 0.20312,-0.0266 1.00101,-0.59245 1.86026,-1.37979 0.64263,0.17439 0.79758,0.28903 0.4951,-0.11829 0.77973,-0.54953 1.5378,-1.15979 0.24669,-0.028 0.8823,0.37171 0.61188,0.18367 0.46584,-0.11684 0.80977,-0.54952 1.10112,-0.86393 0.18352,-0.1178 0.61229,0.003 1.5037,0.53392 0.46032,-0.19537 2.3082,-1.53248 0.54489,0.0251 0.65837,0.14269 0.87209,-0.17367 1.09548,-0.70831 1.15549,-0.8949 0.47477,-0.0807 0.13135,0.0224 1.20318,0.40318 0.77802,-0.26489 0.81861,-0.5605 0.85834,-0.69806 0.36538,-0.18245 0.8096,0.0912 0.7283,0.34635 0.78118,-0.0595 1.1229,-0.73173 0.90995,-0.66392 0.74474,-0.0612 1.35848,0.55636 0.73925,-0.2622 1.27564,-0.86685 0.43526,-0.26782 0.87871,-0.002 1.19922,0.53464 0.44052,-0.0763 1.07765,-0.67026 1.12674,-0.99417 0.71195,-0.22976 0.49847,0.14561 0.80891,0.33025 0.64469,-0.13415 1.07485,-0.75343 0.95308,-0.79173 0.54126,-0.17171 0.59498,0.17781 0.95835,0.41123 0.50517,-0.0841 0.82109,-0.53123 1.27364,-0.95808 0.80005,-0.0646 1.49436,0.56416 0.43283,-0.15367 1.23319,-0.83929 0.78288,-0.48196 0.63313,-0.0193 1.49512,0.63026 0.49773,-0.14903 2.28192,-1.27125 0.5635,0.15 0.77194,0.39904 0.57895,0.12537 0.94257,-0.40172 1.39349,-0.79929 0.74849,0.002 1.43043,0.57685 0.81613,-0.24269 0.95282,-0.55367 1.21763,-0.74685 0.17083,-0.0446 0.73572,0.0698 0.83125,0.20513 0.99481,-0.25635 0.95307,-0.55855 1.09058,-0.6427 0.40376,-0.0863 0.51985,0.11074 1.05365,0.3261 0.53325,-0.11439 1.15098,-0.6127 0.97422,-0.59148 0.66876,-0.12658 0.60104,0.2222 0.64986,0.25976 0.89907,-0.11049 0.76951,-0.38343 0.80136,-0.49245 0.80135,-0.24927 0.55551,0.0483 1.02394,0.42952 0.94899,-0.14976 2.00865,-0.99222 0.57882,-0.001 1.57596,0.51953 0.60733,-0.14171 1.58044,-0.76734 0.45406,-0.16854 0.85816,0.12317 1.1033,0.4227 0.60055,-0.0571 1.16806,-0.49513 0.74248,-0.33586 1.24013,0.0763 1.08093,0.36635 0.5707,-0.0605 1.31335,-0.51635 0.60988,-0.23416 0.79192,-0.0354 1.81897,0.47611 1.59675,-0.53514 0.75426,-0.23537 0.55518,0.003 1.93636,0.44684 0.99401,-0.2722 1.18144,-0.38659 0.8547,0.0161 1.57799,0.40538 0.77866,-0.15171 2.25766,-0.4805 1.99756,0.38952 1.64324,-0.41123 0.81427,-0.15659 1.02217,0.19196 0.95763,0.22147 0.59502,-0.0495 2.64761,-0.46099 1.9222,0.36197 1.11079,-0.23733 1.16144,-0.21293 0.58072,-0.0229 2.01533,0.34952 1.39256,-0.27 1.23463,-0.1905 0.4851,0.0717 1.46003,0.30001 0.93785,-0.1139 2.0846,-0.31147 1.07197,0.2422 0.66791,0.0954 1.52921,-0.1961 1.30413,-0.21391 1.31514,0.23928 0.94376,0.10781 1.51225,-0.23538 0.48897,-0.0958 1.60508,0.0927 1.05859,0.18781 1.50968,-0.1922 1.45799,-0.18488 0.92142,0.17757 1.27846,0.14195 3.20783,-0.27586 0.62432,0.15025 1.90534,-0.0185 1.76079,-0.23269 2.54592,0.27318 2.98569,-0.19635 0.77297,0.16391 1.77677,-0.0724 1.78188,-0.1922 2.52891,0.24269 2.4528,-0.25294 2.58909,0.22708 2.65287,-0.18781 1.51673,0.23123 1.38549,-0.14683 1.60386,-0.14806 2.91766,0.19098 1.03215,-0.1178 1.29346,0.41879 0.99926,0.44733 0.87264,0.068 1.52723,-0.11074 0.85484,0.25489 1.16164,0.43196 2.5501,-0.003 2.36111,0.57708 2.15303,-0.01 2.73638,0.43806 1.34479,-0.0163 1.58733,0.2944 1.16569,0.0934 1.82221,0.009 3.34018,0.27147 0.95769,0.0254 2.23845,0.38415 3.47769,0.80515 4.53606,0.8688 7.36004,1.14832 6.16721,0.77148 1.83383,0.72246 3.36959,0.73685 0.78794,0.25903 9.40373,1.69566 2.01005,0.25488 0.92884,0.29732 2.16135,0.7732 2.11394,0.50635 2.09834,0.62002 2.39593,0.52489 1.85313,0.42708 2.08977,0.38343 2.20026,0.42245 0.58205,0.0998 1.2389,0.51196 1.4471,0.61611 1.30008,0.22708 0.0143,0.003 3.59945,1.09198 1.26766,0.27367 2.46271,0.67562 1.7429,0.32221 2.58536,0.84392 1.51472,0.62563 5.00492,1.5354 5.78946,1.51004 1.46223,0.72295 1.13136,0.43147 1.70449,0.50123 2.08346,0.80856 2.50888,0.71246 1.54596,0.4583 2.11927,0.5566 2.70994,1.22882 1.51596,0.51391 1.9109,0.77636 2.05044,0.59173 0.96569,0.38122 1.92471,0.45758 1.75616,0.89807 1.04558,0.48977 1.69478,0.50977 2.12079,0.94807 2.04145,0.59807 1.48321,0.60465 2.11411,0.67392 1.84311,1.07027 1.08166,0.25635 3.2806,1.37027 1.08761,0.30709 3.94569,1.67467 0.94998,0.59758 1.19664,0.38684 0.88234,0.31001 2.20423,1.051 1.96552,0.61977 1.90421,0.80368 1.01191,0.5305 1.2861,0.71905 4.45826,1.85785 1.01392,0.34074 1.55689,0.66904 3.52378,1.78663 6.48399,2.8613 2.76093,1.45808 1.26977,0.6049 1.72528,0.81856 1.85291,0.73416 1.94044,1.03905 1.71638,0.9471 1.79249,0.86051 1.93738,0.90685 2.34633,1.04125 6.02049,3.23082 2.37113,1.05368 1.27319,0.801 1.52553,0.85904 2.40982,1.2815 0.8509,0.40196 2.46608,1.15467 5.66573,3.22886 2.02574,0.92295 4.36349,2.58397 2.29206,1.21394 1.99636,1.04588 2.3698,1.51174 1.32957,0.73514 1.56076,0.89881 2.18883,1.08051 3.30027,2.06957 4.8297,2.75349 1.56755,1.10978 2.37435,1.37199 0.64092,0.39537 2.6689,1.4115 2.00699,1.42419 1.03797,0.53172 2.43499,1.49126 1.33306,0.65757 1.00799,0.79588 0.92887,0.7127 3.24544,1.95225 0.79249,0.41854 1.16997,0.54929 2.62212,1.93956 1.44551,0.79587 2.01348,1.28735 1.19203,0.58441 0.96427,0.84953 1.00647,0.78954 0.70063,0.33244 0.95429,0.51416 2.4301,1.56175 0.65806,0.29659 0.94006,0.75075 1.28882,1.09857 2.30274,1.33516 1.20584,0.84856 0.88972,0.37513 1.22717,0.90368 1.23263,1.091 0.40746,0.21586 v 0"
       clip-path="url(#p72b377c19c)"
       style="fill:none;stroke:#ff7f0e;stroke-width:1.5;stroke-linecap:square"
       id="path270" />
  </g>
  <g
     id="patch_3"
     transform="translate(-85.593125,-41.072)"
     style="fill:#ffffff">
    <path
       d="M 124.11,307.584 V 41.472"
       style="fill:#ffffff;stroke:#ffffff;stroke-width:0.8;stroke-linecap:square;stroke-linejoin:miter"
       id="path273" />
  </g>
  <g
     id="patch_4"
     transform="translate(-85.593125,-41.072)"
     style="fill:#ffffff">
    <path
       d="M 893.592,307.584 V 41.472"
       style="fill:#ffffff;stroke:#ffffff;stroke-width:0.8;stroke-linecap:square;stroke-linejoin:miter"
       id="path276" />
  </g>
  <g
     id="patch_5"
     transform="translate(-85.593125,-41.072)"
     style="fill:#ffffff">
    <path
       d="M 124.11,307.584 H 893.592"
       style="fill:#ffffff;stroke:#ffffff;stroke-width:0.8;stroke-linecap:square;stroke-linejoin:miter"
       id="path279" />
  </g>
  <g
     id="patch_6"
     transform="translate(-85.593125,-41.072)"
     style="fill:#ffffff">
    <path
       d="M 124.11,41.472 H 893.592"
       style="fill:#ffffff;stroke:#ffffff;stroke-width:0.8;stroke-linecap:square;stroke-linejoin:miter"
       id="path282" />
  </g>
  <g
     id="patch_7"
     transform="translate(-85.593125,-41.072)"
     style="fill:none">
    <path
       d="m 788.0295,90.582313 h 98.5625 q 2,0 2,-2 V 48.472 q 0,-2 -2,-2 h -98.5625 q -2,0 -2,2 v 40.110313 q 0,2 2,2 z"
       style="opacity:0.8;fill:none;stroke:#cccccc;stroke-linejoin:miter"
       id="path285" />
  </g>
  <g
     id="line2d_13"
     transform="translate(-85.593125,-41.072)">
    <path
       d="m 790.0295,54.570438 h 10 10"
       style="fill:none;stroke:#1f77b4;stroke-width:1.5;stroke-linecap:square"
       id="path288" />
  </g>
  <g
     id="text_13"
     transform="translate(-85.593125,-41.072)"
     style="fill:#ffffff">
    <!-- V(dac_out) -->
    <g
       transform="matrix(0.1,0,0,-0.1,818.0295,58.070438)"
       id="g319"
       style="fill:#ffffff">
      <defs
         id="defs297">
        <path
           id="DejaVuSans-28"
           d="m 1984,4856 q -418,-718 -622,-1422 -203,-703 -203,-1425 0,-721 205,-1429 205,-708 620,-1424 h -500 q -468,735 -701,1444 -233,709 -233,1409 0,697 231,1403 232,707 703,1444 z"
           transform="scale(0.015625)" />
        <path
           id="DejaVuSans-64"
           d="m 2906,2969 v 1894 h 575 V 0 H 2906 V 525 Q 2725,213 2448,61 2172,-91 1784,-91 1150,-91 751,415 353,922 353,1747 q 0,825 398,1331 399,506 1033,506 388,0 664,-152 277,-151 458,-463 z M 947,1747 q 0,-634 261,-995 261,-361 717,-361 456,0 718,361 263,361 263,995 0,634 -263,995 -262,361 -718,361 -456,0 -717,-361 -261,-361 -261,-995 z"
           transform="scale(0.015625)" />
        <path
           id="DejaVuSans-63"
           d="m 3122,3366 v -538 q -244,135 -489,202 -245,67 -495,67 -560,0 -870,-355 -309,-354 -309,-995 0,-641 309,-996 310,-354 870,-354 250,0 495,67 245,67 489,202 V 134 Q 2881,22 2623,-34 2366,-91 2075,-91 1284,-91 818,406 353,903 353,1747 q 0,856 470,1346 471,491 1290,491 265,0 518,-55 253,-54 491,-163 z"
           transform="scale(0.015625)" />
        <path
           id="DejaVuSans-5f"
           d="m 3263,-1063 v -446 H -63 v 446 z"
           transform="scale(0.015625)" />
        <path
           id="DejaVuSans-75"
           d="m 544,1381 v 2119 h 575 V 1403 q 0,-497 193,-746 194,-248 582,-248 465,0 735,297 271,297 271,810 v 1984 h 575 V 0 H 2900 V 538 Q 2691,219 2414,64 2138,-91 1772,-91 1169,-91 856,284 544,659 544,1381 Z m 1447,2203 z"
           transform="scale(0.015625)" />
        <path
           id="DejaVuSans-29"
           d="m 513,4856 h 500 q 468,-737 701,-1444 233,-706 233,-1403 0,-700 -233,-1409 -233,-709 -701,-1444 H 513 q 415,716 620,1424 205,708 205,1429 0,722 -205,1425 -205,704 -620,1422 z"
           transform="scale(0.015625)" />
      </defs>
      <use
         xlink:href="#DejaVuSans-56"
         id="use299"
         style="fill:#ffffff" />
      <use
         xlink:href="#DejaVuSans-28"
         x="68.408203"
         id="use301"
         style="fill:#ffffff" />
      <use
         xlink:href="#DejaVuSans-64"
         x="107.42188"
         id="use303"
         style="fill:#ffffff" />
      <use
         xlink:href="#DejaVuSans-61"
         x="170.89844"
         id="use305"
         style="fill:#ffffff" />
      <use
         xlink:href="#DejaVuSans-63"
         x="232.17773"
         id="use307"
         style="fill:#ffffff" />
      <use
         xlink:href="#DejaVuSans-5f"
         x="287.1582"
         id="use309"
         style="fill:#ffffff" />
      <use
         xlink:href="#DejaVuSans-6f"
         x="337.1582"
         id="use311"
         style="fill:#ffffff" />
      <use
         xlink:href="#DejaVuSans-75"
         x="398.33984"
         id="use313"
         style="fill:#ffffff" />
      <use
         xlink:href="#DejaVuSans-74"
         x="461.71875"
         id="use315"
         style="fill:#ffffff" />
      <use
         xlink:href="#DejaVuSans-29"
         x="500.92773"
         id="use317"
         style="fill:#ffffff" />
    </g>
  </g>
  <g
     id="line2d_14"
     transform="translate(-85.593125,-41.072)">
    <path
       d="m 790.0295,76.3045 h 10 10"
       style="fill:none;stroke:#ff7f0e;stroke-width:1.5;stroke-linecap:square"
       id="path322" />
  </g>
  <g
     id="text_14"
     transform="translate(-85.593125,-41.072)"
     style="fill:#ffffff">
    <!-- V(after_filter) -->
    <g
       transform="matrix(0.1,0,0,-0.1,818.0295,73.026688)"
       id="g359"
       style="fill:#ffffff">
      <defs
         id="defs327">
        <path
           id="DejaVuSans-66"
           d="m 2375,4863 v -479 h -550 q -309,0 -430,-125 -120,-125 -120,-450 v -309 h 947 V 3053 H 1275 V 0 H 697 V 3053 H 147 v 447 h 550 v 244 q 0,584 272,851 272,268 862,268 z"
           transform="scale(0.015625)" />
        <path
           id="DejaVuSans-72"
           d="m 2631,2963 q -97,56 -211,82 -114,27 -251,27 -488,0 -749,-317 -261,-317 -261,-911 V 0 H 581 v 3500 h 578 v -544 q 182,319 472,473 291,155 707,155 59,0 131,-8 72,-7 159,-23 z"
           transform="scale(0.015625)" />
      </defs>
      <use
         xlink:href="#DejaVuSans-56"
         id="use329"
         style="fill:#ffffff" />
      <use
         xlink:href="#DejaVuSans-28"
         x="68.408203"
         id="use331"
         style="fill:#ffffff" />
      <use
         xlink:href="#DejaVuSans-61"
         x="107.42188"
         id="use333"
         style="fill:#ffffff" />
      <use
         xlink:href="#DejaVuSans-66"
         x="168.70117"
         id="use335"
         style="fill:#ffffff" />
      <use
         xlink:href="#DejaVuSans-74"
         x="202.15625"
         id="use337"
         style="fill:#ffffff" />
      <use
         xlink:href="#DejaVuSans-65"
         x="241.36523"
         id="use339"
         style="fill:#ffffff" />
      <use
         xlink:href="#DejaVuSans-72"
         x="302.88867"
         id="use341"
         style="fill:#ffffff" />
      <use
         xlink:href="#DejaVuSans-5f"
         x="344.00195"
         id="use343"
         style="fill:#ffffff" />
      <use
         xlink:href="#DejaVuSans-66"
         x="394.00195"
         id="use345"
         style="fill:#ffffff" />
      <use
         xlink:href="#DejaVuSans-69"
         x="429.20703"
         id="use347"
         style="fill:#ffffff" />
      <use
         xlink:href="#DejaVuSans-6c"
         x="456.99023"
         id="use349"
         style="fill:#ffffff" />
      <use
         xlink:href="#DejaVuSans-74"
         x="484.77344"
         id="use351"
         style="fill:#ffffff" />
      <use
         xlink:href="#DejaVuSans-65"
         x="523.98242"
         id="use353"
         style="fill:#ffffff" />
      <use
         xlink:href="#DejaVuSans-72"
         x="585.50586"
         id="use355"
         style="fill:#ffffff" />
      <use
         xlink:href="#DejaVuSans-29"
         x="626.61914"
         id="use357"
         style="fill:#ffffff" />
    </g>
    <!--  -->
    <g
       transform="matrix(0.1,0,0,-0.1,818.0295,84.502625)"
       id="g361"
       style="fill:#ffffff" />
  </g>
  <defs
     id="defs370">
    <clipPath
       id="p72b377c19c">
      <rect
         x="124.11"
         y="41.472"
         width="769.48199"
         height="266.112"
         id="rect367" />
    </clipPath>
  </defs>
</svg>
