<?xml version="1.0" encoding="UTF-8" standalone="no"?>
<svg
   width="651.36401pt"
   height="386.59476pt"
   viewBox="0 0 651.36402 386.59477"
   version="1.1"
   id="svg547"
   sodipodi:docname="OverdriveTransientInputOutputCurrent.svg"
   inkscape:version="1.2.2 (732a01da63, 2022-12-09)"
   xmlns:inkscape="http://www.inkscape.org/namespaces/inkscape"
   xmlns:sodipodi="http://sodipodi.sourceforge.net/DTD/sodipodi-0.dtd"
   xmlns:xlink="http://www.w3.org/1999/xlink"
   xmlns="http://www.w3.org/2000/svg"
   xmlns:svg="http://www.w3.org/2000/svg"
   xmlns:rdf="http://www.w3.org/1999/02/22-rdf-syntax-ns#"
   xmlns:cc="http://creativecommons.org/ns#"
   xmlns:dc="http://purl.org/dc/elements/1.1/">
  <sodipodi:namedview
     id="namedview549"
     pagecolor="#575757"
     bordercolor="#000000"
     borderopacity="0.25"
     inkscape:showpageshadow="2"
     inkscape:pageopacity="0"
     inkscape:pagecheckerboard="0"
     inkscape:deskcolor="#d1d1d1"
     inkscape:document-units="pt"
     showgrid="false"
     inkscape:zoom="1.2026877"
     inkscape:cx="415.73554"
     inkscape:cy="233.64337"
     inkscape:window-width="2560"
     inkscape:window-height="1377"
     inkscape:window-x="1912"
     inkscape:window-y="-8"
     inkscape:window-maximized="1"
     inkscape:current-layer="svg547" />
  <metadata
     id="metadata2">
    <rdf:RDF>
      <cc:Work>
        <dc:type
           rdf:resource="http://purl.org/dc/dcmitype/StillImage" />
        <dc:date>2023-02-27T17:05:10.726107</dc:date>
        <dc:format>image/svg+xml</dc:format>
        <dc:creator>
          <cc:Agent>
            <dc:title>Matplotlib v3.7.0, https://matplotlib.org/</dc:title>
          </cc:Agent>
        </dc:creator>
      </cc:Work>
    </rdf:RDF>
  </metadata>
  <defs
     id="defs6">
    <style
       type="text/css"
       id="style4">*{stroke-linejoin: round; stroke-linecap: butt}</style>
  </defs>
  <g
     id="matplotlib.axis_1"
     transform="translate(-65.34375,-54.896)"
     style="fill:#ffffff">
    <g
       id="xtick_1"
       style="fill:#ffffff">
      <g
         id="line2d_1"
         style="fill:#ffffff">
        <defs
           id="defs15">
          <path
             id="m05c93be10e"
             d="M 0,0 V 3.5"
             style="stroke:#ffffff;stroke-width:0.8" />
        </defs>
        <g
           id="g19"
           style="fill:#ffffff">
          <use
             xlink:href="#m05c93be10e"
             x="120.90109"
             y="410.112"
             style="stroke:#ffffff;stroke-width:0.8;fill:#ffffff"
             id="use17" />
        </g>
      </g>
      <g
         id="text_1"
         style="fill:#ffffff">
        <!-- 0.0 -->
        <g
           transform="matrix(0.1,0,0,-0.1,112.94953,424.71044)"
           id="g32"
           style="fill:#ffffff">
          <defs
             id="defs24">
            <path
               id="DejaVuSans-30"
               d="m 2034,4250 q -487,0 -733,-480 -245,-479 -245,-1442 0,-959 245,-1439 246,-480 733,-480 491,0 736,480 246,480 246,1439 0,963 -246,1442 -245,480 -736,480 z m 0,500 q 785,0 1199,-621 414,-620 414,-1801 0,-1178 -414,-1799 -414,-620 -1199,-620 -784,0 -1198,620 -414,621 -414,1799 0,1181 414,1801 414,621 1198,621 z"
               transform="scale(0.015625)" />
            <path
               id="DejaVuSans-2e"
               d="m 684,794 h 660 V 0 H 684 Z"
               transform="scale(0.015625)" />
          </defs>
          <use
             xlink:href="#DejaVuSans-30"
             id="use26"
             style="fill:#ffffff" />
          <use
             xlink:href="#DejaVuSans-2e"
             x="63.623047"
             id="use28"
             style="fill:#ffffff" />
          <use
             xlink:href="#DejaVuSans-30"
             x="95.410156"
             id="use30"
             style="fill:#ffffff" />
        </g>
      </g>
    </g>
    <g
       id="xtick_2"
       style="fill:#ffffff">
      <g
         id="line2d_2"
         style="fill:#ffffff">
        <g
           id="g38"
           style="fill:#ffffff">
          <use
             xlink:href="#m05c93be10e"
             x="209.50473"
             y="410.112"
             style="stroke:#ffffff;stroke-width:0.8;fill:#ffffff"
             id="use36" />
        </g>
      </g>
      <g
         id="text_2"
         style="fill:#ffffff">
        <!-- 0.5 -->
        <g
           transform="matrix(0.1,0,0,-0.1,201.55316,424.71044)"
           id="g50"
           style="fill:#ffffff">
          <defs
             id="defs42">
            <path
               id="DejaVuSans-35"
               d="M 691,4666 H 3169 V 4134 H 1269 V 2991 q 137,47 274,70 138,23 276,23 781,0 1237,-428 457,-428 457,-1159 Q 3513,744 3044,326 2575,-91 1722,-91 1428,-91 1123,-41 819,9 494,109 v 635 q 281,-153 581,-228 300,-75 634,-75 541,0 856,284 316,284 316,772 0,487 -316,771 -315,285 -856,285 -253,0 -505,-56 -251,-56 -513,-175 z"
               transform="scale(0.015625)" />
          </defs>
          <use
             xlink:href="#DejaVuSans-30"
             id="use44"
             style="fill:#ffffff" />
          <use
             xlink:href="#DejaVuSans-2e"
             x="63.623047"
             id="use46"
             style="fill:#ffffff" />
          <use
             xlink:href="#DejaVuSans-35"
             x="95.410156"
             id="use48"
             style="fill:#ffffff" />
        </g>
      </g>
    </g>
    <g
       id="xtick_3"
       style="fill:#ffffff">
      <g
         id="line2d_3"
         style="fill:#ffffff">
        <g
           id="g56"
           style="fill:#ffffff">
          <use
             xlink:href="#m05c93be10e"
             x="298.10837"
             y="410.112"
             style="stroke:#ffffff;stroke-width:0.8;fill:#ffffff"
             id="use54" />
        </g>
      </g>
      <g
         id="text_3"
         style="fill:#ffffff">
        <!-- 1.0 -->
        <g
           transform="matrix(0.1,0,0,-0.1,290.1568,424.71044)"
           id="g68"
           style="fill:#ffffff">
          <defs
             id="defs60">
            <path
               id="DejaVuSans-31"
               d="M 794,531 H 1825 V 4091 L 703,3866 v 575 l 1116,225 h 631 V 531 H 3481 V 0 H 794 Z"
               transform="scale(0.015625)" />
          </defs>
          <use
             xlink:href="#DejaVuSans-31"
             id="use62"
             style="fill:#ffffff" />
          <use
             xlink:href="#DejaVuSans-2e"
             x="63.623047"
             id="use64"
             style="fill:#ffffff" />
          <use
             xlink:href="#DejaVuSans-30"
             x="95.410156"
             id="use66"
             style="fill:#ffffff" />
        </g>
      </g>
    </g>
    <g
       id="xtick_4"
       style="fill:#ffffff">
      <g
         id="line2d_4"
         style="fill:#ffffff">
        <g
           id="g74"
           style="fill:#ffffff">
          <use
             xlink:href="#m05c93be10e"
             x="386.71201"
             y="410.112"
             style="stroke:#ffffff;stroke-width:0.8;fill:#ffffff"
             id="use72" />
        </g>
      </g>
      <g
         id="text_4"
         style="fill:#ffffff">
        <!-- 1.5 -->
        <g
           transform="matrix(0.1,0,0,-0.1,378.76044,424.71044)"
           id="g83"
           style="fill:#ffffff">
          <use
             xlink:href="#DejaVuSans-31"
             id="use77"
             style="fill:#ffffff" />
          <use
             xlink:href="#DejaVuSans-2e"
             x="63.623047"
             id="use79"
             style="fill:#ffffff" />
          <use
             xlink:href="#DejaVuSans-35"
             x="95.410156"
             id="use81"
             style="fill:#ffffff" />
        </g>
      </g>
    </g>
    <g
       id="xtick_5"
       style="fill:#ffffff">
      <g
         id="line2d_5"
         style="fill:#ffffff">
        <g
           id="g89"
           style="fill:#ffffff">
          <use
             xlink:href="#m05c93be10e"
             x="475.31564"
             y="410.112"
             style="stroke:#ffffff;stroke-width:0.8;fill:#ffffff"
             id="use87" />
        </g>
      </g>
      <g
         id="text_5"
         style="fill:#ffffff">
        <!-- 2.0 -->
        <g
           transform="matrix(0.1,0,0,-0.1,467.36407,424.71044)"
           id="g101"
           style="fill:#ffffff">
          <defs
             id="defs93">
            <path
               id="DejaVuSans-32"
               d="M 1228,531 H 3431 V 0 H 469 v 531 q 359,372 979,998 621,627 780,809 303,340 423,576 121,236 121,464 0,372 -261,606 -261,235 -680,235 -297,0 -627,-103 -329,-103 -704,-313 v 638 q 381,153 712,231 332,78 607,78 725,0 1156,-363 431,-362 431,-968 0,-288 -108,-546 -107,-257 -392,-607 -78,-91 -497,-524 Q 1991,1309 1228,531 Z"
               transform="scale(0.015625)" />
          </defs>
          <use
             xlink:href="#DejaVuSans-32"
             id="use95"
             style="fill:#ffffff" />
          <use
             xlink:href="#DejaVuSans-2e"
             x="63.623047"
             id="use97"
             style="fill:#ffffff" />
          <use
             xlink:href="#DejaVuSans-30"
             x="95.410156"
             id="use99"
             style="fill:#ffffff" />
        </g>
      </g>
    </g>
    <g
       id="xtick_6"
       style="fill:#ffffff">
      <g
         id="line2d_6"
         style="fill:#ffffff">
        <g
           id="g107"
           style="fill:#ffffff">
          <use
             xlink:href="#m05c93be10e"
             x="563.91925"
             y="410.112"
             style="stroke:#ffffff;stroke-width:0.8;fill:#ffffff"
             id="use105" />
        </g>
      </g>
      <g
         id="text_6"
         style="fill:#ffffff">
        <!-- 2.5 -->
        <g
           transform="matrix(0.1,0,0,-0.1,555.96771,424.71044)"
           id="g116"
           style="fill:#ffffff">
          <use
             xlink:href="#DejaVuSans-32"
             id="use110"
             style="fill:#ffffff" />
          <use
             xlink:href="#DejaVuSans-2e"
             x="63.623047"
             id="use112"
             style="fill:#ffffff" />
          <use
             xlink:href="#DejaVuSans-35"
             x="95.410156"
             id="use114"
             style="fill:#ffffff" />
        </g>
      </g>
    </g>
    <g
       id="xtick_7"
       style="fill:#ffffff">
      <g
         id="line2d_7"
         style="fill:#ffffff">
        <g
           id="g122"
           style="fill:#ffffff">
          <use
             xlink:href="#m05c93be10e"
             x="652.52289"
             y="410.112"
             style="stroke:#ffffff;stroke-width:0.8;fill:#ffffff"
             id="use120" />
        </g>
      </g>
      <g
         id="text_7"
         style="fill:#ffffff">
        <!-- 3.0 -->
        <g
           transform="matrix(0.1,0,0,-0.1,644.57135,424.71044)"
           id="g134"
           style="fill:#ffffff">
          <defs
             id="defs126">
            <path
               id="DejaVuSans-33"
               d="m 2597,2516 q 453,-97 707,-404 255,-306 255,-756 0,-690 -475,-1069 -475,-378 -1350,-378 -293,0 -604,58 -311,58 -642,174 v 609 q 262,-153 574,-231 313,-78 654,-78 593,0 904,234 311,234 311,681 0,413 -289,645 -289,233 -804,233 h -544 v 519 h 569 q 465,0 712,186 247,186 247,536 0,359 -255,551 -254,193 -729,193 -260,0 -557,-57 -297,-56 -653,-174 v 562 q 360,100 674,150 314,50 592,50 719,0 1137,-327 419,-326 419,-882 0,-388 -222,-655 -222,-267 -631,-370 z"
               transform="scale(0.015625)" />
          </defs>
          <use
             xlink:href="#DejaVuSans-33"
             id="use128"
             style="fill:#ffffff" />
          <use
             xlink:href="#DejaVuSans-2e"
             x="63.623047"
             id="use130"
             style="fill:#ffffff" />
          <use
             xlink:href="#DejaVuSans-30"
             x="95.410156"
             id="use132"
             style="fill:#ffffff" />
        </g>
      </g>
    </g>
    <g
       id="text_8"
       style="fill:#ffffff">
      <!-- Time [ms] -->
      <g
         transform="matrix(0.12,0,0,-0.12,356.47294,439.90825)"
         id="g166"
         style="fill:#ffffff">
        <defs
           id="defs146">
          <path
             id="DejaVuSans-54"
             d="M -19,4666 H 3928 V 4134 H 2272 V 0 H 1638 V 4134 H -19 Z"
             transform="scale(0.015625)" />
          <path
             id="DejaVuSans-69"
             d="m 603,3500 h 575 V 0 H 603 Z m 0,1363 h 575 V 4134 H 603 Z"
             transform="scale(0.015625)" />
          <path
             id="DejaVuSans-6d"
             d="m 3328,2828 q 216,388 516,572 300,184 706,184 547,0 844,-383 297,-382 297,-1088 V 0 h -578 v 2094 q 0,503 -179,746 -178,244 -543,244 -447,0 -707,-297 -259,-296 -259,-809 V 0 h -578 v 2094 q 0,506 -178,748 -178,242 -550,242 -441,0 -701,-298 -259,-298 -259,-808 V 0 H 581 v 3500 h 578 v -544 q 197,322 472,475 275,153 653,153 382,0 649,-194 267,-193 395,-562 z"
             transform="scale(0.015625)" />
          <path
             id="DejaVuSans-65"
             d="M 3597,1894 V 1613 H 953 q 38,-594 358,-905 320,-311 892,-311 331,0 642,81 311,81 618,244 V 178 Q 3153,47 2828,-22 2503,-91 2169,-91 1331,-91 842,396 353,884 353,1716 q 0,859 464,1363 464,505 1252,505 706,0 1117,-455 411,-454 411,-1235 z m -575,169 q -6,471 -264,752 -258,282 -683,282 -481,0 -770,-272 -289,-272 -333,-766 z"
             transform="scale(0.015625)" />
          <path
             id="DejaVuSans-20"
             transform="scale(0.015625)"
             d="" />
          <path
             id="DejaVuSans-5b"
             d="M 550,4863 H 1875 V 4416 H 1125 V -397 h 750 V -844 H 550 Z"
             transform="scale(0.015625)" />
          <path
             id="DejaVuSans-73"
             d="m 2834,3397 v -544 q -243,125 -506,187 -262,63 -544,63 -428,0 -642,-131 -214,-131 -214,-394 0,-200 153,-314 153,-114 616,-217 l 197,-44 q 612,-131 870,-370 258,-239 258,-667 0,-488 -386,-773 Q 2250,-91 1575,-91 1294,-91 989,-36 684,19 347,128 v 594 q 319,-166 628,-249 309,-82 613,-82 406,0 624,139 219,139 219,392 0,234 -158,359 -157,125 -692,241 l -200,47 q -534,112 -772,345 -237,233 -237,639 0,494 350,762 350,269 994,269 318,0 599,-47 282,-46 519,-140 z"
             transform="scale(0.015625)" />
          <path
             id="DejaVuSans-5d"
             d="M 1947,4863 V -844 H 622 v 447 h 747 V 4416 H 622 v 447 z"
             transform="scale(0.015625)" />
        </defs>
        <use
           xlink:href="#DejaVuSans-54"
           id="use148"
           style="fill:#ffffff" />
        <use
           xlink:href="#DejaVuSans-69"
           x="57.958984"
           id="use150"
           style="fill:#ffffff" />
        <use
           xlink:href="#DejaVuSans-6d"
           x="85.742188"
           id="use152"
           style="fill:#ffffff" />
        <use
           xlink:href="#DejaVuSans-65"
           x="183.1543"
           id="use154"
           style="fill:#ffffff" />
        <use
           xlink:href="#DejaVuSans-20"
           x="244.67773"
           id="use156"
           style="fill:#ffffff" />
        <use
           xlink:href="#DejaVuSans-5b"
           x="276.46484"
           id="use158"
           style="fill:#ffffff" />
        <use
           xlink:href="#DejaVuSans-6d"
           x="315.47852"
           id="use160"
           style="fill:#ffffff" />
        <use
           xlink:href="#DejaVuSans-73"
           x="412.89062"
           id="use162"
           style="fill:#ffffff" />
        <use
           xlink:href="#DejaVuSans-5d"
           x="464.99023"
           id="use164"
           style="fill:#ffffff" />
      </g>
    </g>
  </g>
  <g
     id="matplotlib.axis_2"
     transform="translate(-65.34375,-54.896)"
     style="fill:#ffffff">
    <g
       id="ytick_1"
       style="fill:#ffffff">
      <g
         id="line2d_8"
         style="fill:#ffffff">
        <defs
           id="defs171">
          <path
             id="m0110d77ec9"
             d="M 0,0 H -3.5"
             style="stroke:#ffffff;stroke-width:0.8" />
        </defs>
        <g
           id="g175"
           style="fill:#ffffff">
          <use
             xlink:href="#m0110d77ec9"
             x="94.32"
             y="393.98297"
             style="stroke:#ffffff;stroke-width:0.8;fill:#ffffff"
             id="use173" />
        </g>
      </g>
      <g
         id="text_9"
         style="fill:#ffffff">
        <!-- 0 -->
        <g
           transform="matrix(0.1,0,0,-0.1,80.9575,397.7822)"
           id="g180"
           style="fill:#ffffff">
          <use
             xlink:href="#DejaVuSans-30"
             id="use178"
             style="fill:#ffffff" />
        </g>
      </g>
    </g>
    <g
       id="ytick_2"
       style="fill:#ffffff">
      <g
         id="line2d_9"
         style="fill:#ffffff">
        <g
           id="g186"
           style="fill:#ffffff">
          <use
             xlink:href="#m0110d77ec9"
             x="94.32"
             y="329.47119"
             style="stroke:#ffffff;stroke-width:0.8;fill:#ffffff"
             id="use184" />
        </g>
      </g>
      <g
         id="text_10"
         style="fill:#ffffff">
        <!-- 1 -->
        <g
           transform="matrix(0.1,0,0,-0.1,80.9575,333.2704)"
           id="g191"
           style="fill:#ffffff">
          <use
             xlink:href="#DejaVuSans-31"
             id="use189"
             style="fill:#ffffff" />
        </g>
      </g>
    </g>
    <g
       id="ytick_3"
       style="fill:#ffffff">
      <g
         id="line2d_10"
         style="fill:#ffffff">
        <g
           id="g197"
           style="fill:#ffffff">
          <use
             xlink:href="#m0110d77ec9"
             x="94.32"
             y="264.95938"
             style="stroke:#ffffff;stroke-width:0.8;fill:#ffffff"
             id="use195" />
        </g>
      </g>
      <g
         id="text_11"
         style="fill:#ffffff">
        <!-- 2 -->
        <g
           transform="matrix(0.1,0,0,-0.1,80.9575,268.75861)"
           id="g202"
           style="fill:#ffffff">
          <use
             xlink:href="#DejaVuSans-32"
             id="use200"
             style="fill:#ffffff" />
        </g>
      </g>
    </g>
    <g
       id="ytick_4"
       style="fill:#ffffff">
      <g
         id="line2d_11"
         style="fill:#ffffff">
        <g
           id="g208"
           style="fill:#ffffff">
          <use
             xlink:href="#m0110d77ec9"
             x="94.32"
             y="200.44759"
             style="stroke:#ffffff;stroke-width:0.8;fill:#ffffff"
             id="use206" />
        </g>
      </g>
      <g
         id="text_12"
         style="fill:#ffffff">
        <!-- 3 -->
        <g
           transform="matrix(0.1,0,0,-0.1,80.9575,204.24681)"
           id="g213"
           style="fill:#ffffff">
          <use
             xlink:href="#DejaVuSans-33"
             id="use211"
             style="fill:#ffffff" />
        </g>
      </g>
    </g>
    <g
       id="ytick_5"
       style="fill:#ffffff">
      <g
         id="line2d_12"
         style="fill:#ffffff">
        <g
           id="g219"
           style="fill:#ffffff">
          <use
             xlink:href="#m0110d77ec9"
             x="94.32"
             y="135.93579"
             style="stroke:#ffffff;stroke-width:0.8;fill:#ffffff"
             id="use217" />
        </g>
      </g>
      <g
         id="text_13"
         style="fill:#ffffff">
        <!-- 4 -->
        <g
           transform="matrix(0.1,0,0,-0.1,80.9575,139.73501)"
           id="g227"
           style="fill:#ffffff">
          <defs
             id="defs223">
            <path
               id="DejaVuSans-34"
               d="M 2419,4116 825,1625 h 1594 z m -166,550 h 794 V 1625 h 666 V 1100 H 3047 V 0 H 2419 V 1100 H 313 v 609 z"
               transform="scale(0.015625)" />
          </defs>
          <use
             xlink:href="#DejaVuSans-34"
             id="use225"
             style="fill:#ffffff" />
        </g>
      </g>
    </g>
    <g
       id="ytick_6"
       style="fill:#ffffff">
      <g
         id="line2d_13"
         style="fill:#ffffff">
        <g
           id="g233"
           style="fill:#ffffff">
          <use
             xlink:href="#m0110d77ec9"
             x="94.32"
             y="71.424004"
             style="stroke:#ffffff;stroke-width:0.8;fill:#ffffff"
             id="use231" />
        </g>
      </g>
      <g
         id="text_14"
         style="fill:#ffffff">
        <!-- 5 -->
        <g
           transform="matrix(0.1,0,0,-0.1,80.9575,75.223219)"
           id="g238"
           style="fill:#ffffff">
          <use
             xlink:href="#DejaVuSans-35"
             id="use236"
             style="fill:#ffffff" />
        </g>
      </g>
    </g>
    <g
       id="text_15"
       style="fill:#ffffff">
      <!-- Voltage [V] -->
      <g
         transform="matrix(0,-0.12,-0.12,0,74.461875,265.90462)"
         id="g272"
         style="fill:#ffffff">
        <defs
           id="defs248">
          <path
             id="DejaVuSans-56"
             d="M 1831,0 50,4666 H 709 L 2188,738 3669,4666 h 656 L 2547,0 Z"
             transform="scale(0.015625)" />
          <path
             id="DejaVuSans-6f"
             d="m 1959,3097 q -462,0 -731,-361 -269,-361 -269,-989 0,-628 267,-989 268,-361 733,-361 460,0 728,362 269,363 269,988 0,622 -269,986 -268,364 -728,364 z m 0,487 q 750,0 1178,-488 429,-487 429,-1349 Q 3566,888 3137,398 2709,-91 1959,-91 1206,-91 779,398 353,888 353,1747 q 0,862 426,1349 427,488 1180,488 z"
             transform="scale(0.015625)" />
          <path
             id="DejaVuSans-6c"
             d="m 603,4863 h 575 V 0 H 603 Z"
             transform="scale(0.015625)" />
          <path
             id="DejaVuSans-74"
             d="M 1172,4494 V 3500 H 2356 V 3053 H 1172 V 1153 q 0,-428 117,-550 117,-122 477,-122 h 590 V 0 H 1766 Q 1100,0 847,248 594,497 594,1153 V 3053 H 172 v 447 h 422 v 994 z"
             transform="scale(0.015625)" />
          <path
             id="DejaVuSans-61"
             d="m 2194,1759 q -697,0 -966,-159 -269,-159 -269,-544 0,-306 202,-486 202,-179 548,-179 479,0 768,339 289,339 289,901 v 128 z m 1147,238 V 0 H 2766 V 531 Q 2569,213 2275,61 1981,-91 1556,-91 q -537,0 -855,302 -317,302 -317,808 0,590 395,890 396,300 1180,300 h 807 v 57 q 0,397 -261,614 -261,217 -733,217 -300,0 -585,-72 -284,-72 -546,-216 v 532 q 315,122 612,182 297,61 578,61 760,0 1135,-394 375,-393 375,-1193 z"
             transform="scale(0.015625)" />
          <path
             id="DejaVuSans-67"
             d="m 2906,1791 q 0,625 -258,968 -257,344 -723,344 -462,0 -720,-344 -258,-343 -258,-968 0,-622 258,-966 258,-344 720,-344 466,0 723,344 258,344 258,966 z M 3481,434 q 0,-893 -397,-1329 -396,-436 -1215,-436 -303,0 -572,45 -269,45 -522,139 v 559 q 253,-137 500,-202 247,-66 503,-66 566,0 847,295 281,295 281,892 V 616 Q 2728,306 2450,153 2172,0 1784,0 1141,0 747,490 353,981 353,1791 q 0,812 394,1302 394,491 1037,491 388,0 666,-153 278,-153 456,-462 v 531 h 575 z"
             transform="scale(0.015625)" />
        </defs>
        <use
           xlink:href="#DejaVuSans-56"
           id="use250"
           style="fill:#ffffff" />
        <use
           xlink:href="#DejaVuSans-6f"
           x="60.658203"
           id="use252"
           style="fill:#ffffff" />
        <use
           xlink:href="#DejaVuSans-6c"
           x="121.83984"
           id="use254"
           style="fill:#ffffff" />
        <use
           xlink:href="#DejaVuSans-74"
           x="149.62305"
           id="use256"
           style="fill:#ffffff" />
        <use
           xlink:href="#DejaVuSans-61"
           x="188.83203"
           id="use258"
           style="fill:#ffffff" />
        <use
           xlink:href="#DejaVuSans-67"
           x="250.11133"
           id="use260"
           style="fill:#ffffff" />
        <use
           xlink:href="#DejaVuSans-65"
           x="313.58789"
           id="use262"
           style="fill:#ffffff" />
        <use
           xlink:href="#DejaVuSans-20"
           x="375.11133"
           id="use264"
           style="fill:#ffffff" />
        <use
           xlink:href="#DejaVuSans-5b"
           x="406.89844"
           id="use266"
           style="fill:#ffffff" />
        <use
           xlink:href="#DejaVuSans-56"
           x="445.91211"
           id="use268"
           style="fill:#ffffff" />
        <use
           xlink:href="#DejaVuSans-5d"
           x="514.32031"
           id="use270"
           style="fill:#ffffff" />
      </g>
    </g>
  </g>
  <g
     id="line2d_14"
     transform="translate(-65.34375,-54.896)">
    <path
       d="m 120.90109,232.70349 0.0194,-0.1109 7.66066,-43.26625 4.37953,-23.50255 3.6116,-18.19433 3.13881,-14.69108 2.78623,-12.01196 2.57016,-10.11642 2.33889,-8.32905 2.16231,-6.905217 2.02164,-5.727938 1.86985,-4.645301 1.74227,-3.74549 1.61681,-2.959866 1.48336,-2.270106 1.39085,-1.735561 1.29793,-1.272688 1.24609,-0.904069 1.10945,-0.541641 1.09679,-0.290625 1.03037,-0.05103 1.31438,0.247403 1.02046,0.433196 1.02613,0.64757 1.36947,1.193855 1.28426,1.459708 1.36995,1.916452 1.29147,2.142373 1.54558,2.98567 1.93881,4.382093 1.76294,4.58324 1.77626,5.175911 2.07543,6.729811 2.2461,8.07107 2.3867,9.41762 2.62864,11.29621 2.86826,13.31846 3.23058,16.07344 3.76173,19.87686 4.82746,26.79291 15.06788,84.58664 3.76403,19.38296 3.27338,15.71926 2.8917,12.82769 2.60827,10.60099 2.41383,8.90958 2.2274,7.39478 2.06352,6.10128 1.91589,4.98998 1.73922,3.94728 1.66727,3.24904 1.53169,2.51342 1.32343,1.8022 1.20276,1.33723 1.32522,1.13886 1.25944,0.75509 0.7798,0.30695 1.02141,0.21582 1.03832,0.003 1.03833,-0.21589 1.23442,-0.54059 1.21257,-0.83033 1.27444,-1.19071 1.34977,-1.61382 1.34496,-1.96538 1.48712,-2.58288 1.59402,-3.23849 1.67767,-3.92239 1.82575,-4.85155 1.93717,-5.78976 2.12176,-7.06828 2.27269,-8.36963 2.44037,-9.84597 2.70615,-11.87061 2.9866,-14.13581 3.37014,-17.06221 3.9826,-21.35947 5.32864,-29.89567 11.77889,-66.41683 4.08501,-21.51958 3.39103,-16.72043 3.02279,-13.8192 2.73285,-11.47471 2.49125,-9.5224 2.32627,-8.0163 2.13523,-6.565557 1.93477,-5.261711 1.77,-4.219136 1.10391,-2.336037 1.41366,-2.653435 1.553,-2.469834 1.40452,-1.826458 1.36655,-1.401325 1.17178,-0.903875 1.72481,-0.826976 1.15468,-0.217212 1.00107,0.03032 1.66116,0.498482 1.10534,0.640732 1.04014,0.827492 1.25531,1.287011 1.36733,1.757817 1.43489,2.239398 2.46494,4.773422 1.6767,3.900447 1.82239,4.82116 1.93667,5.765678 2.09494,6.950957 2.26153,8.29338 2.50717,10.08919 2.89543,12.72114 2.9952,14.22892 3.40244,17.28123 4.01892,21.61203 5.41266,30.41925 11.22728,63.33929 4.09234,21.63319 3.44228,17.04537 3.02786,13.90798 2.7332,11.54217 2.49938,9.61808 2.30881,8.02189 2.12723,6.60973 1.97421,5.42994 1.82727,4.39774 1.70201,3.53643 1.5592,2.75442 1.48188,2.17983 1.3384,1.59674 1.26859,1.18409 1.12715,0.78116 1.10426,0.51682 0.76657,0.21372 1.03833,0.0996 1.03832,-0.11897 1.35402,-0.48319 0.8782,-0.51145 1.37924,-1.11645 1.30646,-1.4083 1.33588,-1.78972 1.42878,-2.30096 1.50761,-2.85498 1.60037,-3.50146 1.79278,-4.48456 1.89222,-5.35819 2.03092,-6.43784 2.2075,-7.76605 2.37873,-9.21099 2.57315,-10.87368 2.8623,-13.09859 3.16306,-15.54599 3.67507,-19.22291 4.53206,-24.95774 8.731,-49.70015 5.82367,-32.41104 4.11333,-21.64236 3.4126,-16.78952 2.99003,-13.63302 2.72021,-11.39265 2.46615,-9.40472 2.28191,-7.8547 2.15477,-6.621429 1.95279,-5.30016 1.826,-4.329967 1.699,-3.468993 1.73626,-2.974123 1.47045,-2.059023 1.30557,-1.469966 1.23137,-1.074637 1.14413,-0.725435 1.06971,-0.439197 1.02037,-0.203083 0.73429,-0.01561 1.13913,0.192181 1.0821,0.425907 1.17083,0.727112 1.27455,1.104829 1.16854,1.297913 1.40758,1.922194 1.19676,1.939289 1.46721,2.754589 1.63229,3.54402 1.7339,4.304808 1.8974,5.329513 1.9616,6.164618 2.20586,7.69058 2.39251,9.19596 2.62748,11.04668 2.85343,13.01138 3.28279,16.10692 3.7217,19.46779 4.61532,25.43242 9.09379,51.76311 5.58604,31.00121 4.02642,21.12413 3.38114,16.58824 3.01057,13.67938 2.68229,11.18967 2.43647,9.26012 2.3002,7.88783 2.10582,6.44788 1.95374,5.28862 1.80622,4.27271 1.67328,3.41384 1.58258,2.73584 1.49371,2.13464 1.32996,1.52984 1.19666,1.07503 1.22521,0.80267 1.05736,0.44919 1.00875,0.21759 1.03832,0.009 1.03832,-0.20998 1.23685,-0.53493 1.21885,-0.82908 1.27498,-1.18635 1.34032,-1.59625 1.37324,-2.00288 1.47341,-2.55712 1.62896,-3.3106 1.70088,-3.98697 1.83167,-4.88282 1.95164,-5.85242 2.09545,-6.99847 2.28709,-8.43883 2.46789,-9.98051 2.69674,-11.8558 2.99418,-14.19709 3.40434,-17.26568 3.99944,-21.48327 5.50514,-30.92708 2.30392,-13.16015 v 0"
       clip-path="url(#p4f4aa668d4)"
       style="fill:none;stroke:#1f77b4;stroke-width:1.5;stroke-linecap:square"
       id="path276" />
  </g>
  <g
     id="line2d_15"
     transform="translate(-65.34375,-54.896)">
    <path
       d="m 120.90109,260.3388 0.23317,-0.11038 0.44215,-0.68092 0.62385,-1.6868 0.49421,-1.83813 0.21606,-0.88801 0.3272,-1.33339 0.80014,-3.86355 0.3429,-1.67272 0.5857,-3.02844 0.37418,-2.04954 1.76317,-9.54123 0.97573,-5.31281 0.38258,-2.11444 0.76762,-4.16262 0.43,-2.38158 0.63572,-3.44029 0.79358,-4.24365 0.57971,-3.06953 0.65152,-3.44068 1.32225,-6.9805 0.8892,-4.52098 6.10399,-29.44261 0.0576,-0.20559 0.37093,-1.82988 0.097,-0.31172 0.38654,-1.68163 0.0894,-0.47094 0.30984,-1.48009 0.16756,-0.64009 0.29491,-1.26636 0.0878,-0.24605 0.40438,-1.76627 0.25849,-1.0518 0.41426,-1.74724 0.0702,-0.26617 0.34488,-1.50068 0.08,-0.21766 0.42147,-1.7233 0.99852,-4.04089 0.2914,-1.12683 0.14866,-0.51003 0.32421,-1.21186 0.0681,-0.15379 0.40234,-1.51138 0.1008,-0.44236 0.27876,-1.07696 0.19297,-0.71131 0.31178,-1.01529 0.11025,-0.40436 0.34241,-1.1745 0.0668,-0.16844 0.36285,-1.31552 0.0408,-0.0435 1.33163,-4.38435 0.0455,-0.10438 0.37822,-1.26972 0.051,-0.0583 0.58765,-1.99574 0.0331,0.0183 0.0457,-0.0732 0.36381,-1.23565 0.0193,0.0109 0.0353,-0.0101 0.0255,-0.079 0.3614,-1.18766 0.0642,-0.0404 0.60249,-1.79717 0.10916,-0.19644 0.40668,-1.08986 1.08763,-2.77079 0.31748,-0.81123 0.24765,-0.65428 0.25643,-0.51242 0.12278,-0.25869 0.30657,-0.76317 0.10866,-0.108 0.53009,-1.26849 3.11426,-5.53602 0.0719,-0.1018 0.31212,-0.47267 0.15364,-0.12613 0.3409,-0.55454 0.10089,-0.14199 0.29591,-0.42513 0.60568,-0.56764 0.24278,-0.38978 0.19282,-0.2045 0.20835,-0.21657 0.1766,-0.1396 0.35948,-0.35211 0.12509,-0.0495 0.16885,-0.0719 1.12,-1.00142 0.12031,-0.13786 0.25244,-0.16909 0.2005,-0.10399 0.27752,-0.0984 0.12317,-0.047 3.2e-4,-4.5e-4 0.16752,-0.0288 0.33642,-0.15979 0.17346,-0.0299 0.12809,0.0168 2.43744,-0.21147 0.34219,0.21353 0.55989,0.3043 1.09543,0.49797 1.5147,1.22605 0.46875,0.38255 0.33913,0.40398 0.38373,0.42377 0.31046,0.34772 0.34586,0.47294 2.43578,3.6373 0.57632,1.05219 0.12613,0.31424 0.4155,0.75582 0.36515,0.77491 0.70005,1.40894 0.76134,1.74356 2.53273,6.38957 0.34853,0.94297 4.74029,15.27685 5.9,23.74137 1.49817,6.75593 1.40548,6.58543 1.58541,7.67826 0.81309,3.99076 2.69646,13.81088 1.47164,7.76935 0.52046,2.73943 2.58307,14.04957 1.22162,6.69742 0.8049,4.5166 4.37176,24.45359 0.59664,3.30249 6.02015,33.40207 0.78268,4.24224 0.81799,4.39641 0.85392,4.5546 1.51554,7.91443 1.12853,5.78323 1.39173,6.95917 5.09757,23.76133 1.93294,8.16293 1.31777,5.2363 1.23174,4.61456 0.78206,2.79993 0.62383,2.1596 0.92802,3.02785 0.86233,2.62345 0.45712,1.39077 1.25559,3.32472 2.31797,4.41819 0.84124,0.75408 0.77176,0.34369 1.03882,0.14482 2.58514,0.045 21.21958,-0.0877 1.07309,-0.28365 0.74423,-0.50062 0.99386,-1.28363 1.0511,-2.00544 0.30251,-0.6563 0.1049,-0.29463 0.28682,-0.62893 0.10097,-0.32564 0.2936,-0.66125 0.44712,-1.24579 0.32454,-0.8902 2.98181,-9.53809 1.4434,-5.22584 5.20831,-21.73234 1.22145,-5.61517 1.35883,-6.5163 6.74693,-34.60107 0.58032,-3.13334 0.2905,-1.55235 0.79122,-4.4017 0.36174,-1.95871 0.52889,-2.92664 0.34287,-1.83859 0.48371,-2.75369 13.35705,-73.98109 0.80055,-4.25191 0.80706,-4.29636 0.96165,-4.99476 0.60776,-2.98444 0.0876,-0.50971 0.33036,-1.82252 0.10346,-0.28031 0.38732,-2.10547 0.0806,-0.29024 0.37769,-1.97335 0.15647,-0.83368 0.50548,-2.50784 0.0916,-0.2574 0.37404,-2.03444 0.0694,-0.0914 0.821,-4.1765 0.10437,-0.37965 0.38123,-1.86046 0.0494,-0.0927 0.82473,-4.06547 0.0927,-0.27972 0.40035,-1.90116 0.0492,-0.11722 0.60199,-2.8871 0.0674,-0.18341 0.60042,-2.85038 0.10667,-0.3505 0.37403,-1.63208 0.0619,-0.21302 0.38489,-1.77491 0.0765,-0.27315 0.3913,-1.6344 0.0823,-0.3983 0.31577,-1.43461 0.14423,-0.54138 0.33178,-1.3741 0.0514,-0.0812 1.101,-4.49912 4.23652,-15.48941 0.087,-0.21715 0.39127,-1.26617 0.13093,-0.62067 0.25438,-0.75336 0.0953,-0.14954 0.34232,-1.20966 0.0929,-0.15812 0.35044,-1.17192 0.0714,-0.0946 0.37333,-1.20695 0.009,0.002 0.0544,-0.0791 0.37207,-1.20443 0.0484,-0.008 0.0237,-0.0737 0.36326,-1.18424 0.0621,-0.0265 0.0158,-0.046 0.55126,-1.64498 0.95352,-2.40668 0.0634,-0.12431 0.401,-1.04284 0.10251,-0.28443 0.3052,-0.76453 0.009,0.003 0.0703,-0.098 0.31693,-0.8091 0.17992,-0.4383 0.2816,-0.61299 0.11302,-0.15083 0.53832,-1.2614 0.18901,-0.31875 0.53502,-1.08302 0.0796,-0.10812 0.55763,-1.14851 0.0917,-0.0899 0.36442,-0.67099 0.14753,-0.29946 0.30217,-0.49952 0.0935,-0.0976 0.58808,-1.01613 0.12486,-0.15438 0.30635,-0.45881 0.15846,-0.15469 0.29447,-0.48223 0.0373,0.0275 0.0606,-0.0985 0.2812,-0.48378 0.26685,-0.27643 0.001,5.8e-4 0.077,-0.008 0.0274,-0.049 0.29002,-0.32166 0.38977,-0.5319 0.21148,-0.23953 0.19336,-0.17192 0.30009,-0.32166 0.81315,-0.47797 0.2768,-0.40307 0.25789,-0.21611 0.0901,-0.007 0.0289,-0.0518 0.19765,-0.13367 0.31212,-0.2614 0.3374,-0.10735 0.33216,-0.1836 0.16633,-0.0457 0.18113,-0.0261 0.2955,-0.11799 0.41435,-0.0739 0.15347,0.0156 0.36427,-0.0622 0.13395,-0.0375 0.13728,0.0291 0.41101,-0.0422 0.13086,-0.0552 0.28298,0.008 0.15806,-0.0332 0.27184,0.007 0.36527,0.27179 0.3,0.18373 0.34862,0.14954 0.34088,0.13902 0.31735,0.0756 0.16947,0.0712 0.25643,0.24276 0.33603,0.27979 0.88987,0.65467 1.26167,1.29436 0.34869,0.3363 0.15206,0.22289 0.36823,0.48984 2.6852,4.1901 3.59794,7.69297 1.60794,4.2183 0.32712,0.85833 0.48216,1.41597 0.34165,0.95754 1.73459,5.43383 1.23111,4.13676 1.41204,5.03695 0.7029,2.58918 1.3653,5.30416 1.09663,4.41538 3.92584,17.22001 7.54494,37.65108 6.68783,36.57813 0.92397,5.20764 1.69214,9.43769 0.76668,4.35029 0.8154,4.57499 0.81616,4.52266 4.70908,26.02303 2.20486,11.87404 1.23335,6.49427 1.38834,7.13952 1.43395,7.19647 1.45011,7.12218 1.51202,7.17148 2.25134,10.14351 5.03826,20.05304 3.26014,10.50291 0.6403,1.71673 0.62365,1.62312 0.78681,1.80068 1.08944,1.9602 0.7861,0.93619 0.41983,0.3039 0.79808,0.35066 1.10075,0.1438 2.53781,0.0395 21.17854,-0.0878 1.08187,-0.28735 0.73596,-0.49604 0.98893,-1.27414 1.06305,-2.02859 0.30641,-0.65477 0.1201,-0.36545 2.45451,-6.71705 1.7492,-5.75287 0.78618,-2.78768 1.01836,-3.77729 1.03447,-4.00998 6.11168,-26.90398 6.57096,-33.44911 0.71027,-3.81722 3.22005,-17.53915 0.3638,-2.10102 12.6455,-70.106 1.29422,-6.96347 0.8294,-4.32132 0.61145,-3.20462 0.62884,-3.22243 0.0877,-0.36894 0.40207,-2.09006 0.0559,-0.18321 0.43071,-2.23527 0.31793,-1.65512 0.38129,-1.8889 0.52778,-2.63318 0.35555,-1.7613 0.0541,-0.10857 0.84768,-4.28513 0.11045,-0.48416 0.35617,-1.67622 0.0571,-0.19121 0.41256,-2.00438 0.0257,-0.0453 0.87084,-4.11366 0.054,-0.19308 0.38726,-1.91136 0.074,-0.22805 0.39354,-1.79252 0.10217,-0.56357 0.30667,-1.44565 0.10784,-0.27237 0.36983,-1.70201 0.10147,-0.45881 0.34753,-1.53938 0.0314,-0.0232 0.32014,-1.48674 0.31793,-1.35417 0.0759,-0.20431 0.37699,-1.72717 0.0924,-0.30508 0.39678,-1.58421 0.10448,-0.5708 0.28646,-1.17747 0.0869,-0.23276 0.41618,-1.68079 0.0631,-0.24282 0.35154,-1.45842 0.0826,-0.23412 0.55717,-2.33068 0.17012,-0.60499 0.26671,-1.05812 0.42976,-1.59383 0.29791,-0.99832 0.0501,-0.13077 0.4414,-1.62647 0.86353,-3.04689 0.0678,-0.2145 0.35728,-1.27882 0.0789,-0.19869 0.60881,-2.12212 0.0351,-0.0194 3.46647,-10.38647 0.14888,-0.4639 0.29338,-0.67912 0.0688,-0.1285 0.3932,-1.02181 0.0542,-0.10167 0.4067,-1.06334 0.0945,-0.25857 0.346,-0.78388 0.0769,-0.2256 0.26296,-0.62531 2.53828,-5.20552 0.0767,-0.12438 0.36158,-0.67067 0.11039,-0.18224 0.31732,-0.59151 0.11612,-0.10386 0.38853,-0.62764 0.0787,-0.13277 0.30924,-0.55847 0.18731,-0.23457 0.25479,-0.28798 0.12103,-0.13406 0.28182,-0.54415 0.63737,-0.71112 0.23546,-0.20998 1.53583,-1.55364 0.18056,-0.0792 0.29698,-0.30365 0.0421,0.0371 0.0793,-0.12857 0.16163,-0.11328 0.40283,-0.36495 0.0896,-0.0953 0.15397,-0.059 0.63721,-0.32849 0.11446,-0.0961 0.25107,-0.0919 0.38404,-0.077 0.17778,-0.0152 0.40438,-0.0659 1.94714,-0.17083 0.26777,0.22695 0.92338,0.4303 0.34953,0.11057 1.34996,0.89936 0.21208,0.13296 0.80531,0.7953 0.26653,0.26508 0.30033,0.38481 2.75852,3.73581 0.37812,0.66138 1.04102,1.88748 0.65298,1.32192 0.88271,1.86187 1.82607,4.29171 0.36587,0.90194 1.76765,4.9289 0.43265,1.30017 3.13188,10.07403 5.27257,20.52352 3.95889,17.78294 1.1075,5.30171 0.83486,4.05295 1.17816,5.8709 1.05015,5.3628 1.00864,5.23513 1.76526,9.2597 0.84558,4.50925 1.47281,8.04759 8.29982,46.19618 1.84774,10.35537 0.89585,4.9707 0.85849,4.71659 1.25276,6.93598 0.83639,4.50951 0.84145,4.52363 1.04436,5.59349 1.29212,6.79297 0.87346,4.52511 1.73502,8.79206 1.88558,9.21259 2.04582,9.55712 1.19423,5.35003 1.40238,6.03487 1.84984,7.51961 3.60086,12.92328 0.62992,2.01625 0.81523,2.47576 0.74022,2.07065 0.52483,1.33262 0.99084,2.33916 0.52939,1.06517 1.09143,1.64771 0.64086,0.57134 0.77691,0.36711 0.91693,0.15398 2.37297,0.0605 21.23547,-0.0519 1.10571,-0.17915 0.67256,-0.29454 0.92996,-0.90056 0.92131,-1.43955 1.42819,-3.18516 0.28431,-0.65331 0.10338,-0.34654 0.42491,-1.14424 0.35433,-0.97424 0.85055,-2.49081 1.31316,-4.22037 1.7841,-6.31896 1.33172,-5.1205 3.53321,-14.81656 1.20043,-5.38373 3.08593,-14.75622 5.12689,-26.46392 1.25983,-6.69174 3.97307,-21.89027 0.37206,-2.17779 0.60537,-3.33042 0.47128,-2.68118 v 0"
       clip-path="url(#p4f4aa668d4)"
       style="fill:none;stroke:#ff7f0e;stroke-width:1.5;stroke-linecap:square"
       id="path279" />
  </g>
  <g
     id="patch_3"
     transform="translate(-65.34375,-54.896)"
     style="fill:#ffffff">
    <path
       d="M 94.32,410.112 V 55.296"
       style="fill:#ffffff;stroke:#ffffff;stroke-width:0.8;stroke-linecap:square;stroke-linejoin:miter"
       id="path282" />
  </g>
  <g
     id="patch_4"
     transform="translate(-65.34375,-54.896)"
     style="fill:#ffffff">
    <path
       d="M 679.104,410.112 V 55.296"
       style="fill:#ffffff;stroke:#ffffff;stroke-width:0.8;stroke-linecap:square;stroke-linejoin:miter"
       id="path285" />
  </g>
  <g
     id="patch_5"
     transform="translate(-65.34375,-54.896)"
     style="fill:#ffffff">
    <path
       d="M 94.32,410.112 H 679.104"
       style="fill:#ffffff;stroke:#ffffff;stroke-width:0.8;stroke-linecap:square;stroke-linejoin:miter"
       id="path288" />
  </g>
  <g
     id="patch_6"
     transform="translate(-65.34375,-54.896)"
     style="fill:#ffffff">
    <path
       d="M 94.32,55.296 H 679.104"
       style="fill:#ffffff;stroke:#ffffff;stroke-width:0.8;stroke-linecap:square;stroke-linejoin:miter"
       id="path291" />
  </g>
  <g
     id="matplotlib.axis_3"
     transform="translate(-65.34375,-54.896)"
     style="fill:#ffffff">
    <g
       id="ytick_7"
       style="fill:#ffffff">
      <g
         id="line2d_16"
         style="fill:#ffffff">
        <defs
           id="defs296">
          <path
             id="m6dfa0a923e"
             d="M 0,0 H 3.5"
             style="stroke:#ffffff;stroke-width:0.8" />
        </defs>
        <g
           id="g300"
           style="fill:#ffffff">
          <use
             xlink:href="#m6dfa0a923e"
             x="679.104"
             y="393.98288"
             style="stroke:#ffffff;stroke-width:0.8;fill:#ffffff"
             id="use298" />
        </g>
      </g>
      <g
         id="text_16"
         style="fill:#ffffff">
        <!-- 0.0 -->
        <g
           transform="matrix(0.1,0,0,-0.1,686.104,397.7821)"
           id="g309"
           style="fill:#ffffff">
          <use
             xlink:href="#DejaVuSans-30"
             id="use303"
             style="fill:#ffffff" />
          <use
             xlink:href="#DejaVuSans-2e"
             x="63.623047"
             id="use305"
             style="fill:#ffffff" />
          <use
             xlink:href="#DejaVuSans-30"
             x="95.410156"
             id="use307"
             style="fill:#ffffff" />
        </g>
      </g>
    </g>
    <g
       id="ytick_8"
       style="fill:#ffffff">
      <g
         id="line2d_17"
         style="fill:#ffffff">
        <g
           id="g315"
           style="fill:#ffffff">
          <use
             xlink:href="#m6dfa0a923e"
             x="679.104"
             y="337.1322"
             style="stroke:#ffffff;stroke-width:0.8;fill:#ffffff"
             id="use313" />
        </g>
      </g>
      <g
         id="text_17"
         style="fill:#ffffff">
        <!-- 0.1 -->
        <g
           transform="matrix(0.1,0,0,-0.1,686.104,340.93141)"
           id="g324"
           style="fill:#ffffff">
          <use
             xlink:href="#DejaVuSans-30"
             id="use318"
             style="fill:#ffffff" />
          <use
             xlink:href="#DejaVuSans-2e"
             x="63.623047"
             id="use320"
             style="fill:#ffffff" />
          <use
             xlink:href="#DejaVuSans-31"
             x="95.410156"
             id="use322"
             style="fill:#ffffff" />
        </g>
      </g>
    </g>
    <g
       id="ytick_9"
       style="fill:#ffffff">
      <g
         id="line2d_18"
         style="fill:#ffffff">
        <g
           id="g330"
           style="fill:#ffffff">
          <use
             xlink:href="#m6dfa0a923e"
             x="679.104"
             y="280.28149"
             style="stroke:#ffffff;stroke-width:0.8;fill:#ffffff"
             id="use328" />
        </g>
      </g>
      <g
         id="text_18"
         style="fill:#ffffff">
        <!-- 0.2 -->
        <g
           transform="matrix(0.1,0,0,-0.1,686.104,284.08072)"
           id="g339"
           style="fill:#ffffff">
          <use
             xlink:href="#DejaVuSans-30"
             id="use333"
             style="fill:#ffffff" />
          <use
             xlink:href="#DejaVuSans-2e"
             x="63.623047"
             id="use335"
             style="fill:#ffffff" />
          <use
             xlink:href="#DejaVuSans-32"
             x="95.410156"
             id="use337"
             style="fill:#ffffff" />
        </g>
      </g>
    </g>
    <g
       id="ytick_10"
       style="fill:#ffffff">
      <g
         id="line2d_19"
         style="fill:#ffffff">
        <g
           id="g345"
           style="fill:#ffffff">
          <use
             xlink:href="#m6dfa0a923e"
             x="679.104"
             y="223.4308"
             style="stroke:#ffffff;stroke-width:0.8;fill:#ffffff"
             id="use343" />
        </g>
      </g>
      <g
         id="text_19"
         style="fill:#ffffff">
        <!-- 0.3 -->
        <g
           transform="matrix(0.1,0,0,-0.1,686.104,227.23003)"
           id="g354"
           style="fill:#ffffff">
          <use
             xlink:href="#DejaVuSans-30"
             id="use348"
             style="fill:#ffffff" />
          <use
             xlink:href="#DejaVuSans-2e"
             x="63.623047"
             id="use350"
             style="fill:#ffffff" />
          <use
             xlink:href="#DejaVuSans-33"
             x="95.410156"
             id="use352"
             style="fill:#ffffff" />
        </g>
      </g>
    </g>
    <g
       id="ytick_11"
       style="fill:#ffffff">
      <g
         id="line2d_20"
         style="fill:#ffffff">
        <g
           id="g360"
           style="fill:#ffffff">
          <use
             xlink:href="#m6dfa0a923e"
             x="679.104"
             y="166.58012"
             style="stroke:#ffffff;stroke-width:0.8;fill:#ffffff"
             id="use358" />
        </g>
      </g>
      <g
         id="text_20"
         style="fill:#ffffff">
        <!-- 0.4 -->
        <g
           transform="matrix(0.1,0,0,-0.1,686.104,170.37934)"
           id="g369"
           style="fill:#ffffff">
          <use
             xlink:href="#DejaVuSans-30"
             id="use363"
             style="fill:#ffffff" />
          <use
             xlink:href="#DejaVuSans-2e"
             x="63.623047"
             id="use365"
             style="fill:#ffffff" />
          <use
             xlink:href="#DejaVuSans-34"
             x="95.410156"
             id="use367"
             style="fill:#ffffff" />
        </g>
      </g>
    </g>
    <g
       id="ytick_12"
       style="fill:#ffffff">
      <g
         id="line2d_21"
         style="fill:#ffffff">
        <g
           id="g375"
           style="fill:#ffffff">
          <use
             xlink:href="#m6dfa0a923e"
             x="679.104"
             y="109.72942"
             style="stroke:#ffffff;stroke-width:0.8;fill:#ffffff"
             id="use373" />
        </g>
      </g>
      <g
         id="text_21"
         style="fill:#ffffff">
        <!-- 0.5 -->
        <g
           transform="matrix(0.1,0,0,-0.1,686.104,113.52864)"
           id="g384"
           style="fill:#ffffff">
          <use
             xlink:href="#DejaVuSans-30"
             id="use378"
             style="fill:#ffffff" />
          <use
             xlink:href="#DejaVuSans-2e"
             x="63.623047"
             id="use380"
             style="fill:#ffffff" />
          <use
             xlink:href="#DejaVuSans-35"
             x="95.410156"
             id="use382"
             style="fill:#ffffff" />
        </g>
      </g>
    </g>
    <g
       id="text_22"
       style="fill:#ffffff">
      <!-- Current [A] -->
      <g
         transform="matrix(0,-0.12,-0.12,0,715.12525,265.929)"
         id="g417"
         style="fill:#ffffff">
        <defs
           id="defs393">
          <path
             id="DejaVuSans-43"
             d="m 4122,4306 v -665 q -319,297 -680,443 -361,147 -767,147 -800,0 -1225,-489 -425,-489 -425,-1414 0,-922 425,-1411 425,-489 1225,-489 406,0 767,147 361,147 680,444 V 359 Q 3791,134 3420,21 3050,-91 2638,-91 1578,-91 968,557 359,1206 359,2328 q 0,1125 609,1773 610,649 1670,649 418,0 788,-111 371,-111 696,-333 z"
             transform="scale(0.015625)" />
          <path
             id="DejaVuSans-75"
             d="m 544,1381 v 2119 h 575 V 1403 q 0,-497 193,-746 194,-248 582,-248 465,0 735,297 271,297 271,810 v 1984 h 575 V 0 H 2900 V 538 Q 2691,219 2414,64 2138,-91 1772,-91 1169,-91 856,284 544,659 544,1381 Z m 1447,2203 z"
             transform="scale(0.015625)" />
          <path
             id="DejaVuSans-72"
             d="m 2631,2963 q -97,56 -211,82 -114,27 -251,27 -488,0 -749,-317 -261,-317 -261,-911 V 0 H 581 v 3500 h 578 v -544 q 182,319 472,473 291,155 707,155 59,0 131,-8 72,-7 159,-23 z"
             transform="scale(0.015625)" />
          <path
             id="DejaVuSans-6e"
             d="M 3513,2113 V 0 h -575 v 2094 q 0,497 -194,743 -194,247 -581,247 -466,0 -735,-297 -269,-296 -269,-809 V 0 H 581 v 3500 h 578 v -544 q 207,316 486,472 280,156 646,156 603,0 912,-373 310,-373 310,-1098 z"
             transform="scale(0.015625)" />
          <path
             id="DejaVuSans-41"
             d="M 2188,4044 1331,1722 h 1716 z m -357,622 h 716 L 4325,0 H 3669 L 3244,1197 H 1141 L 716,0 H 50 Z"
             transform="scale(0.015625)" />
        </defs>
        <use
           xlink:href="#DejaVuSans-43"
           id="use395"
           style="fill:#ffffff" />
        <use
           xlink:href="#DejaVuSans-75"
           x="69.824219"
           id="use397"
           style="fill:#ffffff" />
        <use
           xlink:href="#DejaVuSans-72"
           x="133.20312"
           id="use399"
           style="fill:#ffffff" />
        <use
           xlink:href="#DejaVuSans-72"
           x="172.56641"
           id="use401"
           style="fill:#ffffff" />
        <use
           xlink:href="#DejaVuSans-65"
           x="211.42969"
           id="use403"
           style="fill:#ffffff" />
        <use
           xlink:href="#DejaVuSans-6e"
           x="272.95312"
           id="use405"
           style="fill:#ffffff" />
        <use
           xlink:href="#DejaVuSans-74"
           x="336.33203"
           id="use407"
           style="fill:#ffffff" />
        <use
           xlink:href="#DejaVuSans-20"
           x="375.54102"
           id="use409"
           style="fill:#ffffff" />
        <use
           xlink:href="#DejaVuSans-5b"
           x="407.32812"
           id="use411"
           style="fill:#ffffff" />
        <use
           xlink:href="#DejaVuSans-41"
           x="446.3418"
           id="use413"
           style="fill:#ffffff" />
        <use
           xlink:href="#DejaVuSans-5d"
           x="514.75"
           id="use415"
           style="fill:#ffffff" />
      </g>
    </g>
  </g>
  <g
     id="line2d_22"
     transform="translate(-65.34375,-54.896)">
    <path
       d="m 120.90109,246.76631 0.2228,-0.10642 0.61706,-1.11246 0.34676,-1.05867 0.11255,-0.45225 0.49421,-2.02479 0.20677,-0.9402 0.58118,-2.76499 0.57552,-3.07994 0.33998,-1.88034 0.61473,-3.45629 1.0248,-6.11765 0.40752,-2.45277 2.35987,-14.13024 0.8313,-5.0866 3.50484,-20.56784 0.86252,-4.90263 1.11693,-6.31338 0.91318,-5.02549 6.39902,-32.77454 0.0647,-0.24286 0.40438,-1.94566 0.15205,-0.83611 0.44061,-2.068 0.75507,-3.19552 0.28355,-1.25964 0.38579,-1.68994 0.0622,-0.22621 0.39083,-1.7062 0.10084,-0.52235 0.30831,-1.35628 0.14076,-0.51416 0.33211,-1.38255 0.0614,-0.13497 0.62077,-2.629 0.0647,-0.16004 0.38731,-1.573 0.0915,-0.37811 0.34023,-1.35214 0.0703,-0.17777 0.58188,-2.37221 0.0598,-0.0543 1.33163,-4.82963 0.0455,-0.11501 0.37822,-1.3987 0.051,-0.0641 0.58765,-2.198415 0.0331,0.02018 0.0376,-0.04764 0.008,-0.03297 0.36381,-1.361233 0.0193,0.01205 0.0311,-0.0038 0.0255,-0.07476 0.39244,-1.326895 0.0375,-0.04548 0.60249,-1.979711 0.10916,-0.216374 0.40668,-1.200573 1.08763,-3.052143 0.31748,-0.893636 0.24553,-0.712112 0.25356,-0.568393 0.12133,-0.262536 0.31301,-0.867826 0.10866,-0.118932 0.44558,-1.112682 0.35945,-0.785562 0.0986,-0.262821 0.28145,-0.710406 0.36893,-0.630816 0.28793,-0.780219 0.25815,-0.425868 0.027,0.01546 0.0734,-0.114156 0.36758,-0.75998 0.0373,-0.06021 0.35044,-0.711884 0.12023,-0.110802 0.53999,-1.05856 0.0813,-0.04622 0.009,-0.0245 0.30596,-0.535306 1.38405,-1.862941 0.0848,-0.03633 0.015,-0.03019 0.33821,-0.629906 0.03,0.02143 0.0399,-0.0027 0.0379,-0.07754 0.24623,-0.33377 0.18601,-0.154919 0.29494,-0.331496 0.27669,-0.149404 0.1,-0.05236 0.005,-0.008 0.1394,-0.05628 0.14203,-0.16896 0.34386,-0.390167 0.30509,-0.327744 0.2758,-0.269813 0.53518,-0.25941 0.1125,-0.119671 0.24965,-0.114781 0.1772,-0.05037 0.13953,0.0056 0.60453,-0.19153 0.12824,-0.04008 0.13871,0.01683 0.43745,-0.06788 0.83737,-0.112792 0.14683,-0.03189 0.15549,0.02973 0.35929,-0.03422 0.3997,0.31285 0.53099,0.322741 0.78004,0.254521 0.14558,0.08994 2.33074,2.157029 0.32418,0.466688 0.26706,0.295908 0.5107,0.721321 0.36719,0.473396 0.45068,0.739798 0.41988,0.589883 1.35246,2.432527 0.40551,0.837638 2.30579,5.195812 1.78467,4.780006 0.2945,0.877092 4.47797,14.944065 1.22006,4.66289 1.66735,6.84345 1.32562,5.74829 0.77384,3.48591 1.19665,5.56528 0.79719,3.81582 4.30712,22.00276 1.64623,8.99639 1.06715,6.0098 1.29589,7.36131 1.00895,5.85198 0.87286,5.11185 18.80868,114.10581 1.35379,7.69475 1.23144,6.87325 1.32701,7.26062 2.16362,11.33862 1.51734,7.56885 1.29599,6.25164 1.71179,7.83792 1.49499,6.39461 2.3291,9.16919 1.53165,5.35112 0.26919,0.87565 0.71519,2.24842 0.33136,0.97438 0.48684,1.36294 0.98096,2.4334 0.7531,1.51191 0.4544,0.72059 0.41977,0.53367 1.00218,0.74549 0.98653,0.24233 1.80176,0.0771 13.10708,0.007 9.32712,-0.10995 0.87951,-0.23368 0.94567,-0.71406 0.92076,-1.318 1.03636,-2.15536 0.32645,-0.78882 0.10202,-0.33747 0.4373,-1.18369 0.13505,-0.35121 0.45242,-1.28704 0.15799,-0.53104 0.36034,-1.08734 1.97079,-6.7242 1.35258,-5.13288 0.96218,-3.88516 3.18373,-14.11703 2.26292,-10.97898 1.37524,-7.05875 0.81995,-4.31116 0.65746,-3.50336 0.85496,-4.5978 0.85604,-4.76932 8.15639,-47.96055 0.52814,-3.23537 0.25605,-1.50274 0.33623,-2.17124 0.7086,-4.36028 0.37687,-2.27658 0.51998,-3.23208 0.32385,-1.89682 0.55583,-3.54453 0.26834,-1.55515 0.30009,-1.88335 0.37742,-2.28273 1.43661,-9.038 0.97648,-5.91151 0.27037,-1.62422 0.85861,-5.2969 0.33528,-2.15657 3.04357,-18.38949 0.32166,-1.8555 0.57372,-3.5037 1.31975,-7.68303 0.8205,-4.86108 1.20042,-6.85051 0.60753,-3.32912 0.0668,-0.33007 0.39143,-2.29643 0.0558,-0.15253 0.627,-3.67056 0.11928,-0.60552 0.40822,-2.18511 0.60254,-3.42168 0.0755,-0.13377 0.61239,-3.51553 0.10114,-0.41745 0.38706,-2.01348 0.58715,-3.29621 0.98044,-4.8505 0.0552,-0.16697 0.43346,-2.23361 1.68882,-8.49178 0.3016,-1.31138 0.0765,-0.30085 0.3913,-1.80041 0.0823,-0.43871 0.31577,-1.58034 0.14423,-0.59631 0.33178,-1.5137 0.0514,-0.0894 1.101,-4.95596 4.23652,-17.06248 0.087,-0.23917 0.39127,-1.39478 0.13093,-0.68374 0.25438,-0.82985 0.0953,-0.1647 0.34232,-1.33258 0.0779,-0.10369 0.40352,-1.37261 0.0509,-0.178795 0.32681,-1.234058 0.10334,-0.150029 0.34976,-1.273001 0.083,-0.08783 0.36326,-1.304439 0.0621,-0.02928 0.0158,-0.05065 0.54391,-1.786874 0.53287,-1.43747 0.11066,-0.465209 0.25372,-0.747985 0.19558,-0.45941 0.29803,-0.830304 0.076,-0.114327 0.40604,-1.060891 0.10413,-0.401536 0.25196,-0.595795 0.17992,-0.482833 0.2816,-0.675216 0.0955,-0.110859 0.55584,-1.444803 0.18552,-0.340195 0.35448,-0.790566 0.49308,-1.041334 0.28359,-0.713135 1.5583,-2.84026 0.27153,-0.500229 0.60083,-0.83309 0.16957,-0.225186 0.29493,-0.577603 0.26582,-0.305118 0.0791,-0.0072 0.0274,-0.05389 0.28092,-0.342241 0.72112,-0.967827 0.35266,-0.396363 0.21486,-0.169869 0.15586,-0.05429 0.32693,-0.265095 0.15132,-0.095 0.095,-0.201422 0.0717,0.03695 0.81738,-0.838377 0.0534,0.0013 0.0448,-0.06214 0.20003,-0.109835 0.33375,-0.216829 0.14135,-0.04395 0.12801,-0.01745 2.17401,-0.450713 0.12952,-0.02473 0.26578,-0.03661 0.71757,0.227687 0.29121,0.199375 0.32468,0.160319 0.35011,0.168676 0.35019,0.119671 0.18557,0.02939 1.61112,1.414673 0.40786,0.425016 1.50866,1.863906 0.38165,0.499661 1.14566,1.860155 0.86745,1.547134 1.43364,2.939522 0.43007,0.92769 2.54815,6.529302 0.72991,2.03605 0.31157,0.966064 0.73681,2.265614 0.27625,0.825017 0.36204,1.149009 1.72099,5.94078 0.97192,3.59604 1.87142,7.2795 6.0871,27.67617 2.44124,12.52216 0.89243,4.76698 1.13551,6.14789 2.16765,12.14684 1.32844,7.68229 0.59179,3.45982 2.39939,14.203 1.01733,6.19053 1.43451,8.66826 0.76542,4.71491 5.16343,31.89136 0.57342,3.54742 0.97925,6.02447 0.59591,3.66795 1.19931,7.30247 0.75615,4.54561 1.51262,9.13648 0.85668,5.10553 1.48077,8.67223 0.81272,4.68888 1.18557,6.74442 3.00684,16.52297 4.07982,20.6751 3.82664,17.16861 1.90409,7.482 1.02319,3.73532 1.15369,3.88775 0.54788,1.69566 0.32692,0.92581 1.96947,4.9864 0.78369,1.34253 0.47199,0.59497 0.75517,0.62198 0.80094,0.26971 1.39009,0.12725 4.98632,0.0216 18.30492,-0.11753 0.86504,-0.24758 0.88787,-0.65933 1.18694,-1.78091 0.73485,-1.57024 0.25934,-0.65292 0.50561,-1.29118 0.0953,-0.3193 0.27719,-0.73126 0.0911,-0.27889 0.28569,-0.83085 0.138,-0.47188 1.63028,-5.29075 4.00445,-15.73815 1.19382,-5.29765 1.04293,-4.80677 1.15626,-5.51624 1.14323,-5.6428 1.14839,-5.88547 0.84631,-4.37802 1.10053,-5.95084 1.11984,-6.0882 0.81815,-4.57921 0.55473,-3.08187 0.78527,-4.53999 12.04232,-72.90396 3.91402,-23.91521 0.32641,-2.04588 0.38551,-2.24418 4.93617,-29.10767 0.65413,-3.8202 0.36302,-1.83605 0.32239,-1.94088 0.31375,-1.87317 0.14357,-0.63787 0.34879,-1.97675 0.13669,-0.74765 0.50654,-2.84202 0.4271,-2.3589 0.30197,-1.53742 0.0525,-0.0616 1.00036,-5.55459 0.3146,-1.55402 0.0502,-0.0984 0.86458,-4.55152 0.0811,-0.43474 0.34768,-1.87368 0.0396,-0.0194 0.12658,-0.84667 0.30278,-1.39825 0.10336,-0.52285 0.34839,-1.69006 0.0588,-0.18459 0.41529,-2.10769 0.33653,-1.75771 0.31627,-1.44645 0.0279,-0.0247 0.32014,-1.6377 0.31793,-1.49171 0.0759,-0.22507 0.37699,-1.90256 0.0924,-0.3361 0.39678,-1.74509 0.10448,-0.62877 0.28646,-1.29705 0.0869,-0.25634 0.41618,-1.85151 0.0631,-0.26749 0.35154,-1.60654 0.0773,-0.227 0.42153,-1.83998 1.29868,-5.43816 0.0568,-0.15157 0.40885,-1.69068 0.34684,-1.43247 0.28323,-1.11205 0.11299,-0.32559 0.34319,-1.37629 0.072,-0.19443 0.42167,-1.59785 0.11642,-0.50768 0.33738,-1.1216 0.065,-0.24145 0.33666,-1.31274 0.0122,0.005 0.0488,-0.0448 0.01,-0.0335 0.80449,-2.904841 0.0147,0.0039 0.0539,-0.112962 0.35651,-1.342813 0.019,0.0086 0.0537,-0.08579 0.35724,-1.346054 0.0479,0.0133 0.32414,-1.156343 0.22356,-0.723823 0.28898,-0.876865 0.0982,-0.1863 0.34315,-1.084711 0.14601,-0.445596 0.29771,-0.8311 0.0862,-0.154634 0.36406,-1.132864 0.0291,0.0073 0.0542,-0.111996 0.4067,-1.171351 0.0808,-0.231837 0.32561,-0.922744 0.0145,0.0057 0.0564,-0.07908 0.3616,-0.973853 0.0846,-0.190734 0.35902,-0.92496 0.0765,-0.101706 0.60478,-1.490796 0.0858,-0.132633 0.61252,-1.400062 0.0853,-0.150142 0.57119,-1.226895 0.0684,-0.112564 0.36984,-0.763221 0.10813,-0.193747 0.31958,-0.658615 0.11612,-0.114384 0.38853,-0.691361 0.0749,-0.135248 0.32865,-0.632975 0.11453,-0.103639 0.32421,-0.466574 0.0822,-0.07402 0.34987,-0.712226 0.0545,0.02604 0.0809,-0.18522 0.1756,-0.180614 0.26376,-0.35708 0.18408,-0.141615 0.58046,-0.829963 0.0804,-0.124048 0.27992,-0.369189 0.3056,-0.186527 0.33955,-0.318705 0.24791,-0.146561 0.15181,-0.100967 0.0823,-0.20199 0.0891,0.03508 0.35827,-0.489996 0.0237,0.01791 0.0514,-0.0099 0.0338,-0.05981 0.21094,-0.170609 0.33931,-0.268904 9.9e-4,7.96e-4 0.0789,-0.0015 0.0313,-0.04162 0.17403,-0.06436 0.44108,-0.194656 0.57789,-0.230359 0.15728,-0.03076 0.14774,0.01245 0.38922,-0.08511 0.12714,-0.0477 0.25074,-0.04668 0.60703,-0.02655 0.1708,0.01302 0.38399,-0.03923 0.13435,-0.03786 0.0743,0.02894 0.0213,0.03883 0.23964,0.214327 0.42589,0.263731 0.55536,0.222627 0.34092,0.14622 0.36249,0.22348 0.50027,0.446619 0.73025,0.55799 0.3259,0.371178 0.92093,1.040879 0.44275,0.493464 0.21059,0.293122 0.37508,0.547529 3.0544,5.332083 0.29998,0.641219 0.27056,0.565153 0.31943,0.718536 0.20755,0.460718 0.66624,1.600062 1.74316,4.529124 0.49634,1.454014 1.38772,4.143619 0.94434,3.053166 0.24466,0.818878 2.68028,9.709648 0.91486,3.58324 1.94197,8.11333 1.29457,5.74346 0.95548,4.36175 2.00575,9.67741 1.65225,8.35574 1.10007,5.69997 2.07531,11.26076 1.26749,7.05045 0.7903,4.44612 11.3002,68.16608 6.84869,41.8271 2.66899,15.79585 1.31398,7.50617 1.83645,10.33835 1.11764,6.08752 1.71,9.05921 1.71902,8.73732 5.83504,26.25669 2.20347,8.26787 0.46568,1.58606 0.44735,1.54405 2.86642,7.82965 0.56456,1.11764 0.76344,1.08652 0.69556,0.62511 0.58274,0.26775 0.92626,0.17244 2.23516,0.0663 21.93096,-0.12116 0.89569,-0.2755 0.5427,-0.36837 0.80824,-0.93545 0.89034,-1.60881 1.54971,-3.84792 0.34962,-0.95912 0.5112,-1.58011 0.9322,-3.02219 2.58446,-9.51414 3.54503,-15.28852 1.15969,-5.44549 0.94978,-4.61499 6.85609,-36.68245 0.72758,-4.20485 2.69192,-15.77311 0.54665,-3.26351 0.33369,-1.97323 0.5305,-3.26443 0.39053,-2.34731 0.55656,-3.30501 0.3237,-2.04231 0.53078,-3.23048 0.26279,-1.53468 0.7624,-4.75647 0.72039,-4.46523 0.36206,-2.15691 0.26028,-1.67608 v 0"
       clip-path="url(#p4f4aa668d4)"
       style="fill:none;stroke:#2ca02c;stroke-width:1.5;stroke-linecap:square"
       id="path421" />
  </g>
  <g
     id="patch_7"
     transform="translate(-65.34375,-54.896)"
     style="fill:#ffffff">
    <path
       d="M 94.32,410.112 V 55.296"
       style="fill:#ffffff;stroke:#ffffff;stroke-width:0.8;stroke-linecap:square;stroke-linejoin:miter"
       id="path424" />
  </g>
  <g
     id="patch_8"
     transform="translate(-65.34375,-54.896)"
     style="fill:#ffffff">
    <path
       d="M 679.104,410.112 V 55.296"
       style="fill:#ffffff;stroke:#ffffff;stroke-width:0.8;stroke-linecap:square;stroke-linejoin:miter"
       id="path427" />
  </g>
  <g
     id="patch_9"
     transform="translate(-65.34375,-54.896)"
     style="fill:#ffffff">
    <path
       d="M 94.32,410.112 H 679.104"
       style="fill:#ffffff;stroke:#ffffff;stroke-width:0.8;stroke-linecap:square;stroke-linejoin:miter"
       id="path430" />
  </g>
  <g
     id="patch_10"
     transform="translate(-65.34375,-54.896)"
     style="fill:#ffffff">
    <path
       d="M 94.32,55.296 H 679.104"
       style="fill:#ffffff;stroke:#ffffff;stroke-width:0.8;stroke-linecap:square;stroke-linejoin:miter"
       id="path433" />
  </g>
  <g
     id="patch_11"
     transform="translate(-65.34375,-54.896)"
     style="fill:none">
    <path
       d="M 565.15869,119.08444 H 672.104 q 2,0 2,-2 V 62.296 q 0,-2 -2,-2 H 565.15869 q -2,0 -2,2 v 54.78844 q 0,2 2,2 z"
       style="opacity:0.8;fill:none;stroke:#cccccc;stroke-linejoin:miter"
       id="path436" />
  </g>
  <g
     id="line2d_23"
     transform="translate(-65.34375,-54.896)">
    <path
       d="m 567.15869,68.394437 h 10 10"
       style="fill:none;stroke:#1f77b4;stroke-width:1.5;stroke-linecap:square"
       id="path439" />
  </g>
  <g
     id="text_23"
     transform="translate(-65.34375,-54.896)"
     style="fill:#ffffff">
    <!-- V(input_signal) -->
    <g
       transform="matrix(0.1,0,0,-0.1,595.15869,71.894437)"
       id="g478"
       style="fill:#ffffff">
      <defs
         id="defs446">
        <path
           id="DejaVuSans-28"
           d="m 1984,4856 q -418,-718 -622,-1422 -203,-703 -203,-1425 0,-721 205,-1429 205,-708 620,-1424 h -500 q -468,735 -701,1444 -233,709 -233,1409 0,697 231,1403 232,707 703,1444 z"
           transform="scale(0.015625)" />
        <path
           id="DejaVuSans-70"
           d="M 1159,525 V -1331 H 581 v 4831 h 578 v -531 q 182,312 458,463 277,152 661,152 638,0 1036,-506 399,-506 399,-1331 0,-825 -399,-1332 -398,-506 -1036,-506 -384,0 -661,152 -276,152 -458,464 z m 1957,1222 q 0,634 -261,995 -261,361 -717,361 -457,0 -718,-361 -261,-361 -261,-995 0,-634 261,-995 261,-361 718,-361 456,0 717,361 261,361 261,995 z"
           transform="scale(0.015625)" />
        <path
           id="DejaVuSans-5f"
           d="m 3263,-1063 v -446 H -63 v 446 z"
           transform="scale(0.015625)" />
        <path
           id="DejaVuSans-29"
           d="m 513,4856 h 500 q 468,-737 701,-1444 233,-706 233,-1403 0,-700 -233,-1409 -233,-709 -701,-1444 H 513 q 415,716 620,1424 205,708 205,1429 0,722 -205,1425 -205,704 -620,1422 z"
           transform="scale(0.015625)" />
      </defs>
      <use
         xlink:href="#DejaVuSans-56"
         id="use448"
         style="fill:#ffffff" />
      <use
         xlink:href="#DejaVuSans-28"
         x="68.408203"
         id="use450"
         style="fill:#ffffff" />
      <use
         xlink:href="#DejaVuSans-69"
         x="107.42188"
         id="use452"
         style="fill:#ffffff" />
      <use
         xlink:href="#DejaVuSans-6e"
         x="135.20508"
         id="use454"
         style="fill:#ffffff" />
      <use
         xlink:href="#DejaVuSans-70"
         x="198.58398"
         id="use456"
         style="fill:#ffffff" />
      <use
         xlink:href="#DejaVuSans-75"
         x="262.06055"
         id="use458"
         style="fill:#ffffff" />
      <use
         xlink:href="#DejaVuSans-74"
         x="325.43945"
         id="use460"
         style="fill:#ffffff" />
      <use
         xlink:href="#DejaVuSans-5f"
         x="364.64844"
         id="use462"
         style="fill:#ffffff" />
      <use
         xlink:href="#DejaVuSans-73"
         x="414.64844"
         id="use464"
         style="fill:#ffffff" />
      <use
         xlink:href="#DejaVuSans-69"
         x="466.74805"
         id="use466"
         style="fill:#ffffff" />
      <use
         xlink:href="#DejaVuSans-67"
         x="494.53125"
         id="use468"
         style="fill:#ffffff" />
      <use
         xlink:href="#DejaVuSans-6e"
         x="558.00781"
         id="use470"
         style="fill:#ffffff" />
      <use
         xlink:href="#DejaVuSans-61"
         x="621.38672"
         id="use472"
         style="fill:#ffffff" />
      <use
         xlink:href="#DejaVuSans-6c"
         x="682.66602"
         id="use474"
         style="fill:#ffffff" />
      <use
         xlink:href="#DejaVuSans-29"
         x="710.44922"
         id="use476"
         style="fill:#ffffff" />
    </g>
  </g>
  <g
     id="line2d_24"
     transform="translate(-65.34375,-54.896)">
    <path
       d="m 567.15869,83.350687 h 10 10"
       style="fill:none;stroke:#ff7f0e;stroke-width:1.5;stroke-linecap:square"
       id="path481" />
  </g>
  <g
     id="text_24"
     transform="translate(-65.34375,-54.896)"
     style="fill:#ffffff">
    <!-- V(v_out) -->
    <g
       transform="matrix(0.1,0,0,-0.1,595.15869,86.850687)"
       id="g503"
       style="fill:#ffffff">
      <defs
         id="defs485">
        <path
           id="DejaVuSans-76"
           d="M 191,3500 H 800 L 1894,563 2988,3500 h 609 L 2284,0 h -781 z"
           transform="scale(0.015625)" />
      </defs>
      <use
         xlink:href="#DejaVuSans-56"
         id="use487"
         style="fill:#ffffff" />
      <use
         xlink:href="#DejaVuSans-28"
         x="68.408203"
         id="use489"
         style="fill:#ffffff" />
      <use
         xlink:href="#DejaVuSans-76"
         x="107.42188"
         id="use491"
         style="fill:#ffffff" />
      <use
         xlink:href="#DejaVuSans-5f"
         x="166.60156"
         id="use493"
         style="fill:#ffffff" />
      <use
         xlink:href="#DejaVuSans-6f"
         x="216.60156"
         id="use495"
         style="fill:#ffffff" />
      <use
         xlink:href="#DejaVuSans-75"
         x="277.7832"
         id="use497"
         style="fill:#ffffff" />
      <use
         xlink:href="#DejaVuSans-74"
         x="341.16211"
         id="use499"
         style="fill:#ffffff" />
      <use
         xlink:href="#DejaVuSans-29"
         x="380.37109"
         id="use501"
         style="fill:#ffffff" />
    </g>
  </g>
  <g
     id="line2d_25"
     transform="translate(-65.34375,-54.896)">
    <path
       d="m 567.15869,104.94569 h 10 10"
       style="fill:none;stroke:#2ca02c;stroke-width:1.5;stroke-linecap:square"
       id="path506" />
  </g>
  <g
     id="text_25"
     transform="translate(-65.34375,-54.896)"
     style="fill:#ffffff">
    <!-- I(Speaker) -->
    <g
       transform="matrix(0.1,0,0,-0.1,595.15869,101.80694)"
       id="g534"
       style="fill:#ffffff">
      <defs
         id="defs512">
        <path
           id="DejaVuSans-49"
           d="m 628,4666 h 631 V 0 H 628 Z"
           transform="scale(0.015625)" />
        <path
           id="DejaVuSans-53"
           d="m 3425,4513 v -616 q -359,172 -678,256 -319,85 -616,85 -515,0 -795,-200 -280,-200 -280,-569 0,-310 186,-468 186,-157 705,-254 l 381,-78 q 706,-135 1042,-474 336,-339 336,-907 0,-679 -455,-1029 -454,-350 -1332,-350 -331,0 -705,75 -373,75 -773,222 v 650 q 384,-215 753,-325 369,-109 725,-109 540,0 834,212 294,213 294,607 0,343 -211,537 -211,194 -692,291 l -385,75 q -706,140 -1022,440 -315,300 -315,835 0,619 436,975 436,356 1201,356 329,0 669,-60 341,-59 697,-177 z"
           transform="scale(0.015625)" />
        <path
           id="DejaVuSans-6b"
           d="m 581,4863 h 578 V 1991 l 1716,1509 h 734 L 1753,1863 3688,0 H 2938 L 1159,1709 V 0 H 581 Z"
           transform="scale(0.015625)" />
      </defs>
      <use
         xlink:href="#DejaVuSans-49"
         id="use514"
         style="fill:#ffffff" />
      <use
         xlink:href="#DejaVuSans-28"
         x="29.492188"
         id="use516"
         style="fill:#ffffff" />
      <use
         xlink:href="#DejaVuSans-53"
         x="68.505859"
         id="use518"
         style="fill:#ffffff" />
      <use
         xlink:href="#DejaVuSans-70"
         x="131.98242"
         id="use520"
         style="fill:#ffffff" />
      <use
         xlink:href="#DejaVuSans-65"
         x="195.45898"
         id="use522"
         style="fill:#ffffff" />
      <use
         xlink:href="#DejaVuSans-61"
         x="256.98242"
         id="use524"
         style="fill:#ffffff" />
      <use
         xlink:href="#DejaVuSans-6b"
         x="318.26172"
         id="use526"
         style="fill:#ffffff" />
      <use
         xlink:href="#DejaVuSans-65"
         x="372.54688"
         id="use528"
         style="fill:#ffffff" />
      <use
         xlink:href="#DejaVuSans-72"
         x="434.07031"
         id="use530"
         style="fill:#ffffff" />
      <use
         xlink:href="#DejaVuSans-29"
         x="475.18359"
         id="use532"
         style="fill:#ffffff" />
    </g>
    <!--  -->
    <g
       transform="matrix(0.1,0,0,-0.1,595.15869,113.00475)"
       id="g536"
       style="fill:#ffffff" />
  </g>
  <defs
     id="defs545">
    <clipPath
       id="p4f4aa668d4">
      <rect
         x="94.32"
         y="55.296001"
         width="584.784"
         height="354.81601"
         id="rect542" />
    </clipPath>
  </defs>
</svg>
