<?xml version="1.0" encoding="UTF-8" standalone="no"?>
<svg
   width="414.95425pt"
   height="281.81314pt"
   viewBox="0 0 414.95426 281.81314"
   version="1.1"
   id="svg489"
   sodipodi:docname="TriangleFindMinMaxVoltageTransientInputOutput.svg"
   inkscape:version="1.2.2 (732a01da63, 2022-12-09)"
   xmlns:inkscape="http://www.inkscape.org/namespaces/inkscape"
   xmlns:sodipodi="http://sodipodi.sourceforge.net/DTD/sodipodi-0.dtd"
   xmlns:xlink="http://www.w3.org/1999/xlink"
   xmlns="http://www.w3.org/2000/svg"
   xmlns:svg="http://www.w3.org/2000/svg"
   xmlns:rdf="http://www.w3.org/1999/02/22-rdf-syntax-ns#"
   xmlns:cc="http://creativecommons.org/ns#"
   xmlns:dc="http://purl.org/dc/elements/1.1/">
  <sodipodi:namedview
     id="namedview491"
     pagecolor="#575757"
     bordercolor="#000000"
     borderopacity="0.25"
     inkscape:showpageshadow="2"
     inkscape:pageopacity="0"
     inkscape:pagecheckerboard="0"
     inkscape:deskcolor="#d1d1d1"
     inkscape:document-units="pt"
     showgrid="false"
     inkscape:zoom="1.8240473"
     inkscape:cx="245.88178"
     inkscape:cy="165.01765"
     inkscape:window-width="2560"
     inkscape:window-height="1377"
     inkscape:window-x="1912"
     inkscape:window-y="-8"
     inkscape:window-maximized="1"
     inkscape:current-layer="svg489" />
  <metadata
     id="metadata2">
    <rdf:RDF>
      <cc:Work>
        <dc:type
           rdf:resource="http://purl.org/dc/dcmitype/StillImage" />
        <dc:date>2023-02-27T17:14:26.398467</dc:date>
        <dc:format>image/svg+xml</dc:format>
        <dc:creator>
          <cc:Agent>
            <dc:title>Matplotlib v3.7.0, https://matplotlib.org/</dc:title>
          </cc:Agent>
        </dc:creator>
      </cc:Work>
    </rdf:RDF>
  </metadata>
  <defs
     id="defs6">
    <style
       type="text/css"
       id="style4">*{stroke-linejoin: round; stroke-linecap: butt}</style>
  </defs>
  <g
     id="matplotlib.axis_1"
     transform="translate(-33.21375,-38.5664)"
     style="fill:#ffffff">
    <g
       id="xtick_1"
       style="fill:#ffffff">
      <g
         id="line2d_1"
         style="fill:#ffffff">
        <defs
           id="defs15">
          <path
             id="m06aa02e758"
             d="M 0,0 V 3.5"
             style="stroke:#ffffff;stroke-width:0.8" />
        </defs>
        <g
           id="g19"
           style="fill:#ffffff">
          <use
             xlink:href="#m06aa02e758"
             x="79.71627"
             y="289.00079"
             style="fill:#ffffff;stroke:#ffffff;stroke-width:0.8"
             id="use17" />
        </g>
      </g>
      <g
         id="text_1"
         style="fill:#ffffff">
        <!-- 0.0 -->
        <g
           transform="matrix(0.1,0,0,-0.1,71.76471,303.59924)"
           id="g32"
           style="fill:#ffffff">
          <defs
             id="defs24">
            <path
               id="DejaVuSans-30"
               d="m 2034,4250 q -487,0 -733,-480 -245,-479 -245,-1442 0,-959 245,-1439 246,-480 733,-480 491,0 736,480 246,480 246,1439 0,963 -246,1442 -245,480 -736,480 z m 0,500 q 785,0 1199,-621 414,-620 414,-1801 0,-1178 -414,-1799 -414,-620 -1199,-620 -784,0 -1198,620 -414,621 -414,1799 0,1181 414,1801 414,621 1198,621 z"
               transform="scale(0.015625)" />
            <path
               id="DejaVuSans-2e"
               d="m 684,794 h 660 V 0 H 684 Z"
               transform="scale(0.015625)" />
          </defs>
          <use
             xlink:href="#DejaVuSans-30"
             id="use26"
             style="fill:#ffffff" />
          <use
             xlink:href="#DejaVuSans-2e"
             x="63.623047"
             id="use28"
             style="fill:#ffffff" />
          <use
             xlink:href="#DejaVuSans-30"
             x="95.410156"
             id="use30"
             style="fill:#ffffff" />
        </g>
      </g>
    </g>
    <g
       id="xtick_2"
       style="fill:#ffffff">
      <g
         id="line2d_2"
         style="fill:#ffffff">
        <g
           id="g38"
           style="fill:#ffffff">
          <use
             xlink:href="#m06aa02e758"
             x="138.13718"
             y="289.00079"
             style="fill:#ffffff;stroke:#ffffff;stroke-width:0.8"
             id="use36" />
        </g>
      </g>
      <g
         id="text_2"
         style="fill:#ffffff">
        <!-- 0.5 -->
        <g
           transform="matrix(0.1,0,0,-0.1,130.18562,303.59924)"
           id="g50"
           style="fill:#ffffff">
          <defs
             id="defs42">
            <path
               id="DejaVuSans-35"
               d="M 691,4666 H 3169 V 4134 H 1269 V 2991 q 137,47 274,70 138,23 276,23 781,0 1237,-428 457,-428 457,-1159 Q 3513,744 3044,326 2575,-91 1722,-91 1428,-91 1123,-41 819,9 494,109 v 635 q 281,-153 581,-228 300,-75 634,-75 541,0 856,284 316,284 316,772 0,487 -316,771 -315,285 -856,285 -253,0 -505,-56 -251,-56 -513,-175 z"
               transform="scale(0.015625)" />
          </defs>
          <use
             xlink:href="#DejaVuSans-30"
             id="use44"
             style="fill:#ffffff" />
          <use
             xlink:href="#DejaVuSans-2e"
             x="63.623047"
             id="use46"
             style="fill:#ffffff" />
          <use
             xlink:href="#DejaVuSans-35"
             x="95.410156"
             id="use48"
             style="fill:#ffffff" />
        </g>
      </g>
    </g>
    <g
       id="xtick_3"
       style="fill:#ffffff">
      <g
         id="line2d_3"
         style="fill:#ffffff">
        <g
           id="g56"
           style="fill:#ffffff">
          <use
             xlink:href="#m06aa02e758"
             x="196.55809"
             y="289.00079"
             style="fill:#ffffff;stroke:#ffffff;stroke-width:0.8"
             id="use54" />
        </g>
      </g>
      <g
         id="text_3"
         style="fill:#ffffff">
        <!-- 1.0 -->
        <g
           transform="matrix(0.1,0,0,-0.1,188.60653,303.59924)"
           id="g68"
           style="fill:#ffffff">
          <defs
             id="defs60">
            <path
               id="DejaVuSans-31"
               d="M 794,531 H 1825 V 4091 L 703,3866 v 575 l 1116,225 h 631 V 531 H 3481 V 0 H 794 Z"
               transform="scale(0.015625)" />
          </defs>
          <use
             xlink:href="#DejaVuSans-31"
             id="use62"
             style="fill:#ffffff" />
          <use
             xlink:href="#DejaVuSans-2e"
             x="63.623047"
             id="use64"
             style="fill:#ffffff" />
          <use
             xlink:href="#DejaVuSans-30"
             x="95.410156"
             id="use66"
             style="fill:#ffffff" />
        </g>
      </g>
    </g>
    <g
       id="xtick_4"
       style="fill:#ffffff">
      <g
         id="line2d_4"
         style="fill:#ffffff">
        <g
           id="g74"
           style="fill:#ffffff">
          <use
             xlink:href="#m06aa02e758"
             x="254.979"
             y="289.00079"
             style="fill:#ffffff;stroke:#ffffff;stroke-width:0.8"
             id="use72" />
        </g>
      </g>
      <g
         id="text_4"
         style="fill:#ffffff">
        <!-- 1.5 -->
        <g
           transform="matrix(0.1,0,0,-0.1,247.02744,303.59924)"
           id="g83"
           style="fill:#ffffff">
          <use
             xlink:href="#DejaVuSans-31"
             id="use77"
             style="fill:#ffffff" />
          <use
             xlink:href="#DejaVuSans-2e"
             x="63.623047"
             id="use79"
             style="fill:#ffffff" />
          <use
             xlink:href="#DejaVuSans-35"
             x="95.410156"
             id="use81"
             style="fill:#ffffff" />
        </g>
      </g>
    </g>
    <g
       id="xtick_5"
       style="fill:#ffffff">
      <g
         id="line2d_5"
         style="fill:#ffffff">
        <g
           id="g89"
           style="fill:#ffffff">
          <use
             xlink:href="#m06aa02e758"
             x="313.3999"
             y="289.00079"
             style="fill:#ffffff;stroke:#ffffff;stroke-width:0.8"
             id="use87" />
        </g>
      </g>
      <g
         id="text_5"
         style="fill:#ffffff">
        <!-- 2.0 -->
        <g
           transform="matrix(0.1,0,0,-0.1,305.44835,303.59924)"
           id="g101"
           style="fill:#ffffff">
          <defs
             id="defs93">
            <path
               id="DejaVuSans-32"
               d="M 1228,531 H 3431 V 0 H 469 v 531 q 359,372 979,998 621,627 780,809 303,340 423,576 121,236 121,464 0,372 -261,606 -261,235 -680,235 -297,0 -627,-103 -329,-103 -704,-313 v 638 q 381,153 712,231 332,78 607,78 725,0 1156,-363 431,-362 431,-968 0,-288 -108,-546 -107,-257 -392,-607 -78,-91 -497,-524 Q 1991,1309 1228,531 Z"
               transform="scale(0.015625)" />
          </defs>
          <use
             xlink:href="#DejaVuSans-32"
             id="use95"
             style="fill:#ffffff" />
          <use
             xlink:href="#DejaVuSans-2e"
             x="63.623047"
             id="use97"
             style="fill:#ffffff" />
          <use
             xlink:href="#DejaVuSans-30"
             x="95.410156"
             id="use99"
             style="fill:#ffffff" />
        </g>
      </g>
    </g>
    <g
       id="xtick_6"
       style="fill:#ffffff">
      <g
         id="line2d_6"
         style="fill:#ffffff">
        <g
           id="g107"
           style="fill:#ffffff">
          <use
             xlink:href="#m06aa02e758"
             x="371.82083"
             y="289.00079"
             style="fill:#ffffff;stroke:#ffffff;stroke-width:0.8"
             id="use105" />
        </g>
      </g>
      <g
         id="text_6"
         style="fill:#ffffff">
        <!-- 2.5 -->
        <g
           transform="matrix(0.1,0,0,-0.1,363.86926,303.59924)"
           id="g116"
           style="fill:#ffffff">
          <use
             xlink:href="#DejaVuSans-32"
             id="use110"
             style="fill:#ffffff" />
          <use
             xlink:href="#DejaVuSans-2e"
             x="63.623047"
             id="use112"
             style="fill:#ffffff" />
          <use
             xlink:href="#DejaVuSans-35"
             x="95.410156"
             id="use114"
             style="fill:#ffffff" />
        </g>
      </g>
    </g>
    <g
       id="xtick_7"
       style="fill:#ffffff">
      <g
         id="line2d_7"
         style="fill:#ffffff">
        <g
           id="g122"
           style="fill:#ffffff">
          <use
             xlink:href="#m06aa02e758"
             x="430.24173"
             y="289.00079"
             style="fill:#ffffff;stroke:#ffffff;stroke-width:0.8"
             id="use120" />
        </g>
      </g>
      <g
         id="text_7"
         style="fill:#ffffff">
        <!-- 3.0 -->
        <g
           transform="matrix(0.1,0,0,-0.1,422.29016,303.59924)"
           id="g134"
           style="fill:#ffffff">
          <defs
             id="defs126">
            <path
               id="DejaVuSans-33"
               d="m 2597,2516 q 453,-97 707,-404 255,-306 255,-756 0,-690 -475,-1069 -475,-378 -1350,-378 -293,0 -604,58 -311,58 -642,174 v 609 q 262,-153 574,-231 313,-78 654,-78 593,0 904,234 311,234 311,681 0,413 -289,645 -289,233 -804,233 h -544 v 519 h 569 q 465,0 712,186 247,186 247,536 0,359 -255,551 -254,193 -729,193 -260,0 -557,-57 -297,-56 -653,-174 v 562 q 360,100 674,150 314,50 592,50 719,0 1137,-327 419,-326 419,-882 0,-388 -222,-655 -222,-267 -631,-370 z"
               transform="scale(0.015625)" />
          </defs>
          <use
             xlink:href="#DejaVuSans-33"
             id="use128"
             style="fill:#ffffff" />
          <use
             xlink:href="#DejaVuSans-2e"
             x="63.623047"
             id="use130"
             style="fill:#ffffff" />
          <use
             xlink:href="#DejaVuSans-30"
             x="95.410156"
             id="use132"
             style="fill:#ffffff" />
        </g>
      </g>
    </g>
    <g
       id="text_8"
       style="fill:#ffffff">
      <!-- Time [ms] -->
      <g
         transform="matrix(0.12,0,0,-0.12,224.73994,318.79705)"
         id="g166"
         style="fill:#ffffff">
        <defs
           id="defs146">
          <path
             id="DejaVuSans-54"
             d="M -19,4666 H 3928 V 4134 H 2272 V 0 H 1638 V 4134 H -19 Z"
             transform="scale(0.015625)" />
          <path
             id="DejaVuSans-69"
             d="m 603,3500 h 575 V 0 H 603 Z m 0,1363 h 575 V 4134 H 603 Z"
             transform="scale(0.015625)" />
          <path
             id="DejaVuSans-6d"
             d="m 3328,2828 q 216,388 516,572 300,184 706,184 547,0 844,-383 297,-382 297,-1088 V 0 h -578 v 2094 q 0,503 -179,746 -178,244 -543,244 -447,0 -707,-297 -259,-296 -259,-809 V 0 h -578 v 2094 q 0,506 -178,748 -178,242 -550,242 -441,0 -701,-298 -259,-298 -259,-808 V 0 H 581 v 3500 h 578 v -544 q 197,322 472,475 275,153 653,153 382,0 649,-194 267,-193 395,-562 z"
             transform="scale(0.015625)" />
          <path
             id="DejaVuSans-65"
             d="M 3597,1894 V 1613 H 953 q 38,-594 358,-905 320,-311 892,-311 331,0 642,81 311,81 618,244 V 178 Q 3153,47 2828,-22 2503,-91 2169,-91 1331,-91 842,396 353,884 353,1716 q 0,859 464,1363 464,505 1252,505 706,0 1117,-455 411,-454 411,-1235 z m -575,169 q -6,471 -264,752 -258,282 -683,282 -481,0 -770,-272 -289,-272 -333,-766 z"
             transform="scale(0.015625)" />
          <path
             id="DejaVuSans-20"
             transform="scale(0.015625)"
             d="" />
          <path
             id="DejaVuSans-5b"
             d="M 550,4863 H 1875 V 4416 H 1125 V -397 h 750 V -844 H 550 Z"
             transform="scale(0.015625)" />
          <path
             id="DejaVuSans-73"
             d="m 2834,3397 v -544 q -243,125 -506,187 -262,63 -544,63 -428,0 -642,-131 -214,-131 -214,-394 0,-200 153,-314 153,-114 616,-217 l 197,-44 q 612,-131 870,-370 258,-239 258,-667 0,-488 -386,-773 Q 2250,-91 1575,-91 1294,-91 989,-36 684,19 347,128 v 594 q 319,-166 628,-249 309,-82 613,-82 406,0 624,139 219,139 219,392 0,234 -158,359 -157,125 -692,241 l -200,47 q -534,112 -772,345 -237,233 -237,639 0,494 350,762 350,269 994,269 318,0 599,-47 282,-46 519,-140 z"
             transform="scale(0.015625)" />
          <path
             id="DejaVuSans-5d"
             d="M 1947,4863 V -844 H 622 v 447 h 747 V 4416 H 622 v 447 z"
             transform="scale(0.015625)" />
        </defs>
        <use
           xlink:href="#DejaVuSans-54"
           id="use148"
           style="fill:#ffffff" />
        <use
           xlink:href="#DejaVuSans-69"
           x="57.958984"
           id="use150"
           style="fill:#ffffff" />
        <use
           xlink:href="#DejaVuSans-6d"
           x="85.742188"
           id="use152"
           style="fill:#ffffff" />
        <use
           xlink:href="#DejaVuSans-65"
           x="183.1543"
           id="use154"
           style="fill:#ffffff" />
        <use
           xlink:href="#DejaVuSans-20"
           x="244.67773"
           id="use156"
           style="fill:#ffffff" />
        <use
           xlink:href="#DejaVuSans-5b"
           x="276.46484"
           id="use158"
           style="fill:#ffffff" />
        <use
           xlink:href="#DejaVuSans-6d"
           x="315.47852"
           id="use160"
           style="fill:#ffffff" />
        <use
           xlink:href="#DejaVuSans-73"
           x="412.89062"
           id="use162"
           style="fill:#ffffff" />
        <use
           xlink:href="#DejaVuSans-5d"
           x="464.99023"
           id="use164"
           style="fill:#ffffff" />
      </g>
    </g>
  </g>
  <g
     id="matplotlib.axis_2"
     transform="translate(-33.21375,-38.5664)"
     style="fill:#ffffff">
    <g
       id="ytick_1"
       style="fill:#ffffff">
      <g
         id="line2d_8"
         style="fill:#ffffff">
        <defs
           id="defs171">
          <path
             id="m935263251c"
             d="M 0,0 H -3.5"
             style="stroke:#ffffff;stroke-width:0.8" />
        </defs>
        <g
           id="g175"
           style="fill:#ffffff">
          <use
             xlink:href="#m935263251c"
             x="62.189999"
             y="277.63477"
             style="fill:#ffffff;stroke:#ffffff;stroke-width:0.8"
             id="use173" />
        </g>
      </g>
      <g
         id="text_9"
         style="fill:#ffffff">
        <!-- 0 -->
        <g
           transform="matrix(0.1,0,0,-0.1,48.8275,281.434)"
           id="g180"
           style="fill:#ffffff">
          <use
             xlink:href="#DejaVuSans-30"
             id="use178"
             style="fill:#ffffff" />
        </g>
      </g>
    </g>
    <g
       id="ytick_2"
       style="fill:#ffffff">
      <g
         id="line2d_9"
         style="fill:#ffffff">
        <g
           id="g186"
           style="fill:#ffffff">
          <use
             xlink:href="#m935263251c"
             x="62.189999"
             y="232.17415"
             style="fill:#ffffff;stroke:#ffffff;stroke-width:0.8"
             id="use184" />
        </g>
      </g>
      <g
         id="text_10"
         style="fill:#ffffff">
        <!-- 1 -->
        <g
           transform="matrix(0.1,0,0,-0.1,48.8275,235.97336)"
           id="g191"
           style="fill:#ffffff">
          <use
             xlink:href="#DejaVuSans-31"
             id="use189"
             style="fill:#ffffff" />
        </g>
      </g>
    </g>
    <g
       id="ytick_3"
       style="fill:#ffffff">
      <g
         id="line2d_10"
         style="fill:#ffffff">
        <g
           id="g197"
           style="fill:#ffffff">
          <use
             xlink:href="#m935263251c"
             x="62.189999"
             y="186.7135"
             style="fill:#ffffff;stroke:#ffffff;stroke-width:0.8"
             id="use195" />
        </g>
      </g>
      <g
         id="text_11"
         style="fill:#ffffff">
        <!-- 2 -->
        <g
           transform="matrix(0.1,0,0,-0.1,48.8275,190.51272)"
           id="g202"
           style="fill:#ffffff">
          <use
             xlink:href="#DejaVuSans-32"
             id="use200"
             style="fill:#ffffff" />
        </g>
      </g>
    </g>
    <g
       id="ytick_4"
       style="fill:#ffffff">
      <g
         id="line2d_11"
         style="fill:#ffffff">
        <g
           id="g208"
           style="fill:#ffffff">
          <use
             xlink:href="#m935263251c"
             x="62.189999"
             y="141.25287"
             style="fill:#ffffff;stroke:#ffffff;stroke-width:0.8"
             id="use206" />
        </g>
      </g>
      <g
         id="text_12"
         style="fill:#ffffff">
        <!-- 3 -->
        <g
           transform="matrix(0.1,0,0,-0.1,48.8275,145.05209)"
           id="g213"
           style="fill:#ffffff">
          <use
             xlink:href="#DejaVuSans-33"
             id="use211"
             style="fill:#ffffff" />
        </g>
      </g>
    </g>
    <g
       id="ytick_5"
       style="fill:#ffffff">
      <g
         id="line2d_12"
         style="fill:#ffffff">
        <g
           id="g219"
           style="fill:#ffffff">
          <use
             xlink:href="#m935263251c"
             x="62.189999"
             y="95.792236"
             style="fill:#ffffff;stroke:#ffffff;stroke-width:0.8"
             id="use217" />
        </g>
      </g>
      <g
         id="text_13"
         style="fill:#ffffff">
        <!-- 4 -->
        <g
           transform="matrix(0.1,0,0,-0.1,48.8275,99.591454)"
           id="g227"
           style="fill:#ffffff">
          <defs
             id="defs223">
            <path
               id="DejaVuSans-34"
               d="M 2419,4116 825,1625 h 1594 z m -166,550 h 794 V 1625 h 666 V 1100 H 3047 V 0 H 2419 V 1100 H 313 v 609 z"
               transform="scale(0.015625)" />
          </defs>
          <use
             xlink:href="#DejaVuSans-34"
             id="use225"
             style="fill:#ffffff" />
        </g>
      </g>
    </g>
    <g
       id="ytick_6"
       style="fill:#ffffff">
      <g
         id="line2d_13"
         style="fill:#ffffff">
        <g
           id="g233"
           style="fill:#ffffff">
          <use
             xlink:href="#m935263251c"
             x="62.189999"
             y="50.3316"
             style="fill:#ffffff;stroke:#ffffff;stroke-width:0.8"
             id="use231" />
        </g>
      </g>
      <g
         id="text_14"
         style="fill:#ffffff">
        <!-- 5 -->
        <g
           transform="matrix(0.1,0,0,-0.1,48.8275,54.130819)"
           id="g238"
           style="fill:#ffffff">
          <use
             xlink:href="#DejaVuSans-35"
             id="use236"
             style="fill:#ffffff" />
        </g>
      </g>
    </g>
    <g
       id="text_15"
       style="fill:#ffffff">
      <!-- Voltage [V] -->
      <g
         transform="matrix(0,-0.12,-0.12,0,42.331875,197.18422)"
         id="g272"
         style="fill:#ffffff">
        <defs
           id="defs248">
          <path
             id="DejaVuSans-56"
             d="M 1831,0 50,4666 H 709 L 2188,738 3669,4666 h 656 L 2547,0 Z"
             transform="scale(0.015625)" />
          <path
             id="DejaVuSans-6f"
             d="m 1959,3097 q -462,0 -731,-361 -269,-361 -269,-989 0,-628 267,-989 268,-361 733,-361 460,0 728,362 269,363 269,988 0,622 -269,986 -268,364 -728,364 z m 0,487 q 750,0 1178,-488 429,-487 429,-1349 Q 3566,888 3137,398 2709,-91 1959,-91 1206,-91 779,398 353,888 353,1747 q 0,862 426,1349 427,488 1180,488 z"
             transform="scale(0.015625)" />
          <path
             id="DejaVuSans-6c"
             d="m 603,4863 h 575 V 0 H 603 Z"
             transform="scale(0.015625)" />
          <path
             id="DejaVuSans-74"
             d="M 1172,4494 V 3500 H 2356 V 3053 H 1172 V 1153 q 0,-428 117,-550 117,-122 477,-122 h 590 V 0 H 1766 Q 1100,0 847,248 594,497 594,1153 V 3053 H 172 v 447 h 422 v 994 z"
             transform="scale(0.015625)" />
          <path
             id="DejaVuSans-61"
             d="m 2194,1759 q -697,0 -966,-159 -269,-159 -269,-544 0,-306 202,-486 202,-179 548,-179 479,0 768,339 289,339 289,901 v 128 z m 1147,238 V 0 H 2766 V 531 Q 2569,213 2275,61 1981,-91 1556,-91 q -537,0 -855,302 -317,302 -317,808 0,590 395,890 396,300 1180,300 h 807 v 57 q 0,397 -261,614 -261,217 -733,217 -300,0 -585,-72 -284,-72 -546,-216 v 532 q 315,122 612,182 297,61 578,61 760,0 1135,-394 375,-393 375,-1193 z"
             transform="scale(0.015625)" />
          <path
             id="DejaVuSans-67"
             d="m 2906,1791 q 0,625 -258,968 -257,344 -723,344 -462,0 -720,-344 -258,-343 -258,-968 0,-622 258,-966 258,-344 720,-344 466,0 723,344 258,344 258,966 z M 3481,434 q 0,-893 -397,-1329 -396,-436 -1215,-436 -303,0 -572,45 -269,45 -522,139 v 559 q 253,-137 500,-202 247,-66 503,-66 566,0 847,295 281,295 281,892 V 616 Q 2728,306 2450,153 2172,0 1784,0 1141,0 747,490 353,981 353,1791 q 0,812 394,1302 394,491 1037,491 388,0 666,-153 278,-153 456,-462 v 531 h 575 z"
             transform="scale(0.015625)" />
        </defs>
        <use
           xlink:href="#DejaVuSans-56"
           id="use250"
           style="fill:#ffffff" />
        <use
           xlink:href="#DejaVuSans-6f"
           x="60.658203"
           id="use252"
           style="fill:#ffffff" />
        <use
           xlink:href="#DejaVuSans-6c"
           x="121.83984"
           id="use254"
           style="fill:#ffffff" />
        <use
           xlink:href="#DejaVuSans-74"
           x="149.62305"
           id="use256"
           style="fill:#ffffff" />
        <use
           xlink:href="#DejaVuSans-61"
           x="188.83203"
           id="use258"
           style="fill:#ffffff" />
        <use
           xlink:href="#DejaVuSans-67"
           x="250.11133"
           id="use260"
           style="fill:#ffffff" />
        <use
           xlink:href="#DejaVuSans-65"
           x="313.58789"
           id="use262"
           style="fill:#ffffff" />
        <use
           xlink:href="#DejaVuSans-20"
           x="375.11133"
           id="use264"
           style="fill:#ffffff" />
        <use
           xlink:href="#DejaVuSans-5b"
           x="406.89844"
           id="use266"
           style="fill:#ffffff" />
        <use
           xlink:href="#DejaVuSans-56"
           x="445.91211"
           id="use268"
           style="fill:#ffffff" />
        <use
           xlink:href="#DejaVuSans-5d"
           x="514.32031"
           id="use270"
           style="fill:#ffffff" />
      </g>
    </g>
  </g>
  <g
     id="line2d_14"
     transform="translate(-33.21375,-38.5664)">
    <path
       d="M 79.716273,277.63478 196.55811,50.3316 l 0.0623,0.121244 18.80449,36.582082 0.53825,1.04714 97.43676,189.552714 0.0566,-0.11019 L 430.24173,50.3316 v 0"
       clip-path="url(#pce9e2d3b7b)"
       style="fill:none;stroke:#1f77b4;stroke-width:1.5;stroke-linecap:square"
       id="path276" />
  </g>
  <g
     id="line2d_15"
     transform="translate(-33.21375,-38.5664)">
    <path
       d="m 79.716273,277.63474 6.848859,-0.13873 0.819387,-0.27858 1.271389,-0.98484 0.458571,-0.53066 1.066487,-1.44573 0.495316,-0.7331 0.823577,-1.26594 1.61437,-2.6431 0.241159,-0.42401 0.695049,-1.16337 0.637406,-1.13095 2.369708,-4.21991 5.878119,-10.73273 0.98733,-1.84527 0.74261,-1.36019 0.65575,-1.23296 1.16865,-2.16889 0.67462,-1.26747 2.07119,-3.87419 3.98648,-7.47324 0.37393,-0.73117 1.40909,-2.65918 0.55627,-1.02027 0.68819,-1.35218 1.16868,-2.17461 0.39054,-0.72923 0.54836,-1.06692 0.61101,-1.18443 2.58837,-4.88961 0.38039,-0.68614 1.03998,-2.02363 13.99748,-26.6558 0.24389,-0.52198 4.31221,-8.19514 0.22852,-0.48302 0.65372,-1.22153 0.39598,-0.77074 1.40984,-2.69754 0.54152,-0.99846 2.68463,-5.16519 0.35454,-0.69686 1.06549,-2.00063 1.54829,-3.01573 0.68752,-1.28831 0.36449,-0.72332 1.90403,-3.63644 0.37483,-0.73069 11.52463,-22.08714 0.36251,-0.73401 1.3809,-2.65431 0.63531,-1.21403 0.38652,-0.70013 0.97337,-1.90708 0.35705,-0.66536 0.20707,-0.42751 0.58974,-1.12211 1.585,-3.06368 0.29465,-0.57421 0.50746,-0.94913 0.0606,-0.0673 0.37665,-0.79897 0.23831,-0.42165 0.27235,-0.48265 0.22018,-0.51012 0.2261,-0.35927 0.0932,-0.24295 0.25504,-0.45856 0.39227,-0.79501 0.0951,-0.16916 0.38745,-0.72205 0.18985,-0.32132 0.39173,-0.79574 0.0565,-0.0594 0.36854,-0.79301 0.4224,-0.7942 0.35765,-0.73028 0.10155,-0.15966 0.37227,-0.71955 0.0703,-0.12042 0.36853,-0.7491 0.1112,-0.18917 0.49506,-0.9448 0.0745,-0.0789 0.37588,-0.79156 0.11447,-0.19153 0.23995,-0.45783 0.17867,-0.30504 0.36177,-0.78042 0.43967,-0.83371 0.38267,-0.70909 0.2293,-0.44615 0.24018,-0.44297 0.37045,-0.77388 0.22146,-0.33563 0.10777,-0.29536 1.8043,-3.440007 0.26372,-0.490202 0.39968,-0.790105 0.0782,-0.147066 0.3643,-0.727324 0.0802,-0.119107 0.3577,-0.741327 0.12099,-0.204982 0.51506,-0.939171 0.0881,-0.187161 0.22946,-0.444605 0.26604,-0.552984 1.01879,-1.938305 0.23541,-0.391098 0.0844,-0.217211 0.23876,-0.429012 0.5746,-1.103511 0.0676,-0.112606 0.34073,-0.723961 1.40994,-2.673358 0.0702,-0.103059 0.38354,-0.77715 0.0717,-0.09615 0.3668,-0.776013 0.10819,-0.162067 0.25682,-0.496021 2.87582,-5.500464 0.17767,-0.382915 0.39729,-0.80188 0.0985,-0.192071 0.22236,-0.367277 0.0782,-0.169068 0.33981,-0.701685 0.13545,-0.236713 0.32123,-0.640177 0.13675,-0.246215 0.31801,-0.63063 0.11174,-0.146065 0.17391,-0.08333 0.006,0.0064 0.05,0.02341 0.0501,-0.07646 0.16874,-0.0611 0.004,0.0033 0.25569,0.133427 0.20758,0.126426 1.9811,2.903298 0.63973,1.153337 0.58677,1.072598 0.41135,0.766557 1.09955,2.145878 0.66386,1.251714 0.24964,0.502021 0.64107,1.221255 0.59023,1.11174 0.41484,0.782241 2.25438,4.345446 0.56176,1.117877 0.75235,1.436919 0.4124,0.801153 1.90334,3.635169 0.57906,1.139153 0.53394,1.027637 1.59128,3.053187 0.55896,1.0445 0.80669,1.58285 0.30494,0.61149 1.53212,2.91471 0.29071,0.59149 1.99284,3.79919 0.39994,0.78374 2.8,5.36463 0.27279,0.55735 0.9778,1.86847 0.82004,1.57731 0.60964,1.1637 15.56954,29.88073 0.53825,1.004 4.02032,7.73821 0.54021,1.00355 1.17292,2.29744 0.87316,1.68336 9.11274,17.44275 2.05041,3.86879 0.68931,1.37 4.29066,8.15568 0.55441,1.04528 0.51681,1.01845 1.24642,2.34214 0.64401,1.26253 0.72453,1.34627 0.58258,1.1452 2.07221,3.94576 1.20597,2.30471 0.95993,1.83389 1.23423,2.33135 1.66266,3.13601 0.51755,0.96 0.97411,1.86725 0.35962,0.67659 0.49182,0.91785 0.98957,1.90707 0.84005,1.55594 1.00332,1.9383 8.97081,16.82951 0.57466,1.06225 0.36792,0.68383 0.53245,0.98333 0.51984,1.0021 7.65512,13.93359 0.98286,1.76389 0.48801,0.8668 4.34549,7.09327 2.06833,2.47065 1.16756,0.67443 1.21778,0.19953 2.75551,0.0359 8.06442,-0.11258 0.89073,-0.2736 0.68718,-0.4413 0.55787,-0.49426 1.44891,-1.78585 0.7268,-1.09177 2.95845,-4.8155 0.40353,-0.67234 11.02912,-20.08272 0.77261,-1.42192 0.54491,-1.0024 0.67027,-1.3001 1.26729,-2.35594 0.71989,-1.32458 0.35671,-0.69577 3.52871,-6.64173 0.56749,-1.06487 2.05579,-3.87456 0.3479,-0.64445 0.36598,-0.71928 8.10089,-15.39111 1.56947,-2.94612 0.38072,-0.74996 1.86606,-3.55057 0.42088,-0.81024 10.8244,-20.69168 1.57108,-2.96022 0.35972,-0.71196 4.19138,-8.00653 0.25155,-0.51015 0.58704,-1.11188 1.91531,-3.64644 0.34993,-0.69514 1.01992,-1.92831 0.52623,-1.00468 0.4277,-0.80947 0.87913,-1.69809 0.50111,-0.9474 1.20165,-2.34509 2.05624,-3.94352 0.62375,-1.21871 0.70033,-1.29086 0.57409,-1.13592 5.41531,-10.39444 0.59487,-1.16543 20.98826,-40.363773 0.35515,-0.640313 0.0772,-0.159748 0.24067,-0.390144 0.19578,-0.426466 0.24334,-0.439377 0.08,-0.167386 0.26124,-0.49934 0.58306,-1.094328 0.0933,-0.249761 0.24973,-0.446969 0.41116,-0.805835 0.26681,-0.54971 1.23474,-2.32813 0.0584,-0.06646 0.38788,-0.811518 0.0841,-0.107969 0.3454,-0.735144 1.39916,-2.666994 0.0811,-0.110969 0.29097,-0.589306 0.41633,-0.8092 0.0937,-0.218938 4.88257,-9.415171 v 0"
       clip-path="url(#pce9e2d3b7b)"
       style="fill:none;stroke:#ff7f0e;stroke-width:1.5;stroke-linecap:square"
       id="path279" />
  </g>
  <g
     id="patch_3"
     transform="translate(-33.21375,-38.5664)"
     style="fill:#ffffff">
    <path
       d="M 62.19,289.0008 V 38.9664"
       style="fill:#ffffff;stroke:#ffffff;stroke-width:0.8;stroke-linecap:square;stroke-linejoin:miter"
       id="path282" />
  </g>
  <g
     id="patch_4"
     transform="translate(-33.21375,-38.5664)"
     style="fill:#ffffff">
    <path
       d="M 447.768,289.0008 V 38.9664"
       style="fill:#ffffff;stroke:#ffffff;stroke-width:0.8;stroke-linecap:square;stroke-linejoin:miter"
       id="path285" />
  </g>
  <g
     id="patch_5"
     transform="translate(-33.21375,-38.5664)"
     style="fill:#ffffff">
    <path
       d="M 62.19,289.0008 H 447.768"
       style="fill:#ffffff;stroke:#ffffff;stroke-width:0.8;stroke-linecap:square;stroke-linejoin:miter"
       id="path288" />
  </g>
  <g
     id="patch_6"
     transform="translate(-33.21375,-38.5664)"
     style="fill:#ffffff">
    <path
       d="M 62.19,38.9664 H 447.768"
       style="fill:#ffffff;stroke:#ffffff;stroke-width:0.8;stroke-linecap:square;stroke-linejoin:miter"
       id="path291" />
  </g>
  <g
     id="patch_7"
     transform="translate(-33.21375,-38.5664)"
     style="fill:#ffffff">
    <path
       d="M 62.19,289.0008 V 38.9664"
       style="fill:#ffffff;stroke:#ffffff;stroke-width:0.8;stroke-linecap:square;stroke-linejoin:miter"
       id="path395" />
  </g>
  <g
     id="patch_8"
     transform="translate(-33.21375,-38.5664)"
     style="fill:#ffffff">
    <path
       d="M 447.768,289.0008 V 38.9664"
       style="fill:#ffffff;stroke:#ffffff;stroke-width:0.8;stroke-linecap:square;stroke-linejoin:miter"
       id="path398" />
  </g>
  <g
     id="patch_9"
     transform="translate(-33.21375,-38.5664)"
     style="fill:#ffffff">
    <path
       d="M 62.19,289.0008 H 447.768"
       style="fill:#ffffff;stroke:#ffffff;stroke-width:0.8;stroke-linecap:square;stroke-linejoin:miter"
       id="path401" />
  </g>
  <g
     id="patch_10"
     transform="translate(-33.21375,-38.5664)"
     style="fill:#ffffff">
    <path
       d="M 62.19,38.9664 H 447.768"
       style="fill:#ffffff;stroke:#ffffff;stroke-width:0.8;stroke-linecap:square;stroke-linejoin:miter"
       id="path404" />
  </g>
  <g
     id="patch_11"
     transform="translate(-33.21375,-38.5664)"
     style="fill:#4d4d4d">
    <path
       d="M 333.82269,88.065775 H 440.768 q 2,0 2,-2 V 45.9664 q 0,-2 -2,-2 H 333.82269 q -2,0 -2,2 v 40.099375 q 0,2 2,2 z"
       style="opacity:0.8;fill:#4d4d4d;stroke:#cccccc;stroke-linejoin:miter"
       id="path407" />
  </g>
  <g
     id="line2d_22"
     transform="translate(-33.21375,-38.5664)">
    <path
       d="m 335.82269,52.064838 h 10 10"
       style="fill:none;stroke:#1f77b4;stroke-width:1.5;stroke-linecap:square"
       id="path410" />
  </g>
  <g
     id="text_22"
     transform="translate(-33.21375,-38.5664)"
     style="fill:#ffffff">
    <!-- V(input_signal) -->
    <g
       transform="matrix(0.1,0,0,-0.1,363.82269,55.564838)"
       id="g451"
       style="fill:#ffffff">
      <defs
         id="defs419">
        <path
           id="DejaVuSans-28"
           d="m 1984,4856 q -418,-718 -622,-1422 -203,-703 -203,-1425 0,-721 205,-1429 205,-708 620,-1424 h -500 q -468,735 -701,1444 -233,709 -233,1409 0,697 231,1403 232,707 703,1444 z"
           transform="scale(0.015625)" />
        <path
           id="DejaVuSans-6e"
           d="M 3513,2113 V 0 h -575 v 2094 q 0,497 -194,743 -194,247 -581,247 -466,0 -735,-297 -269,-296 -269,-809 V 0 H 581 v 3500 h 578 v -544 q 207,316 486,472 280,156 646,156 603,0 912,-373 310,-373 310,-1098 z"
           transform="scale(0.015625)" />
        <path
           id="DejaVuSans-70"
           d="M 1159,525 V -1331 H 581 v 4831 h 578 v -531 q 182,312 458,463 277,152 661,152 638,0 1036,-506 399,-506 399,-1331 0,-825 -399,-1332 -398,-506 -1036,-506 -384,0 -661,152 -276,152 -458,464 z m 1957,1222 q 0,634 -261,995 -261,361 -717,361 -457,0 -718,-361 -261,-361 -261,-995 0,-634 261,-995 261,-361 718,-361 456,0 717,361 261,361 261,995 z"
           transform="scale(0.015625)" />
        <path
           id="DejaVuSans-75"
           d="m 544,1381 v 2119 h 575 V 1403 q 0,-497 193,-746 194,-248 582,-248 465,0 735,297 271,297 271,810 v 1984 h 575 V 0 H 2900 V 538 Q 2691,219 2414,64 2138,-91 1772,-91 1169,-91 856,284 544,659 544,1381 Z m 1447,2203 z"
           transform="scale(0.015625)" />
        <path
           id="DejaVuSans-5f"
           d="m 3263,-1063 v -446 H -63 v 446 z"
           transform="scale(0.015625)" />
        <path
           id="DejaVuSans-29"
           d="m 513,4856 h 500 q 468,-737 701,-1444 233,-706 233,-1403 0,-700 -233,-1409 -233,-709 -701,-1444 H 513 q 415,716 620,1424 205,708 205,1429 0,722 -205,1425 -205,704 -620,1422 z"
           transform="scale(0.015625)" />
      </defs>
      <use
         xlink:href="#DejaVuSans-56"
         id="use421"
         style="fill:#ffffff" />
      <use
         xlink:href="#DejaVuSans-28"
         x="68.408203"
         id="use423"
         style="fill:#ffffff" />
      <use
         xlink:href="#DejaVuSans-69"
         x="107.42188"
         id="use425"
         style="fill:#ffffff" />
      <use
         xlink:href="#DejaVuSans-6e"
         x="135.20508"
         id="use427"
         style="fill:#ffffff" />
      <use
         xlink:href="#DejaVuSans-70"
         x="198.58398"
         id="use429"
         style="fill:#ffffff" />
      <use
         xlink:href="#DejaVuSans-75"
         x="262.06055"
         id="use431"
         style="fill:#ffffff" />
      <use
         xlink:href="#DejaVuSans-74"
         x="325.43945"
         id="use433"
         style="fill:#ffffff" />
      <use
         xlink:href="#DejaVuSans-5f"
         x="364.64844"
         id="use435"
         style="fill:#ffffff" />
      <use
         xlink:href="#DejaVuSans-73"
         x="414.64844"
         id="use437"
         style="fill:#ffffff" />
      <use
         xlink:href="#DejaVuSans-69"
         x="466.74805"
         id="use439"
         style="fill:#ffffff" />
      <use
         xlink:href="#DejaVuSans-67"
         x="494.53125"
         id="use441"
         style="fill:#ffffff" />
      <use
         xlink:href="#DejaVuSans-6e"
         x="558.00781"
         id="use443"
         style="fill:#ffffff" />
      <use
         xlink:href="#DejaVuSans-61"
         x="621.38672"
         id="use445"
         style="fill:#ffffff" />
      <use
         xlink:href="#DejaVuSans-6c"
         x="682.66602"
         id="use447"
         style="fill:#ffffff" />
      <use
         xlink:href="#DejaVuSans-29"
         x="710.44922"
         id="use449"
         style="fill:#ffffff" />
    </g>
  </g>
  <g
     id="line2d_23"
     transform="translate(-33.21375,-38.5664)">
    <path
       d="m 335.82269,73.793431 h 10 10"
       style="fill:none;stroke:#ff7f0e;stroke-width:1.5;stroke-linecap:square"
       id="path454" />
  </g>
  <g
     id="text_23"
     transform="translate(-33.21375,-38.5664)"
     style="fill:#ffffff">
    <!-- V(v_out) -->
    <g
       transform="matrix(0.1,0,0,-0.1,363.82269,70.51015)"
       id="g476"
       style="fill:#ffffff">
      <defs
         id="defs458">
        <path
           id="DejaVuSans-76"
           d="M 191,3500 H 800 L 1894,563 2988,3500 h 609 L 2284,0 h -781 z"
           transform="scale(0.015625)" />
      </defs>
      <use
         xlink:href="#DejaVuSans-56"
         id="use460"
         style="fill:#ffffff" />
      <use
         xlink:href="#DejaVuSans-28"
         x="68.408203"
         id="use462"
         style="fill:#ffffff" />
      <use
         xlink:href="#DejaVuSans-76"
         x="107.42188"
         id="use464"
         style="fill:#ffffff" />
      <use
         xlink:href="#DejaVuSans-5f"
         x="166.60156"
         id="use466"
         style="fill:#ffffff" />
      <use
         xlink:href="#DejaVuSans-6f"
         x="216.60156"
         id="use468"
         style="fill:#ffffff" />
      <use
         xlink:href="#DejaVuSans-75"
         x="277.7832"
         id="use470"
         style="fill:#ffffff" />
      <use
         xlink:href="#DejaVuSans-74"
         x="341.16211"
         id="use472"
         style="fill:#ffffff" />
      <use
         xlink:href="#DejaVuSans-29"
         x="380.37109"
         id="use474"
         style="fill:#ffffff" />
    </g>
    <!--  -->
    <g
       transform="matrix(0.1,0,0,-0.1,363.82269,81.986087)"
       id="g478"
       style="fill:#ffffff" />
  </g>
  <defs
     id="defs487">
    <clipPath
       id="pce9e2d3b7b">
      <rect
         x="62.189999"
         y="38.9664"
         width="385.578"
         height="250.03439"
         id="rect484" />
    </clipPath>
  </defs>
</svg>
