G04 #@! TF.GenerationSoftware,KiCad,Pcbnew,7.0.7*
G04 #@! TF.CreationDate,2024-01-31T17:55:45+01:00*
G04 #@! TF.ProjectId,AmpelSchaltung,416d7065-6c53-4636-9861-6c74756e672e,rev?*
G04 #@! TF.SameCoordinates,Original*
G04 #@! TF.FileFunction,Copper,L1,Top*
G04 #@! TF.FilePolarity,Positive*
%FSLAX46Y46*%
G04 Gerber Fmt 4.6, Leading zero omitted, Abs format (unit mm)*
G04 Created by KiCad (PCBNEW 7.0.7) date 2024-01-31 17:55:45*
%MOMM*%
%LPD*%
G01*
G04 APERTURE LIST*
G04 Aperture macros list*
%AMRoundRect*
0 Rectangle with rounded corners*
0 $1 Rounding radius*
0 $2 $3 $4 $5 $6 $7 $8 $9 X,Y pos of 4 corners*
0 Add a 4 corners polygon primitive as box body*
4,1,4,$2,$3,$4,$5,$6,$7,$8,$9,$2,$3,0*
0 Add four circle primitives for the rounded corners*
1,1,$1+$1,$2,$3*
1,1,$1+$1,$4,$5*
1,1,$1+$1,$6,$7*
1,1,$1+$1,$8,$9*
0 Add four rect primitives between the rounded corners*
20,1,$1+$1,$2,$3,$4,$5,0*
20,1,$1+$1,$4,$5,$6,$7,0*
20,1,$1+$1,$6,$7,$8,$9,0*
20,1,$1+$1,$8,$9,$2,$3,0*%
G04 Aperture macros list end*
G04 #@! TA.AperFunction,SMDPad,CuDef*
%ADD10RoundRect,0.250000X-0.350000X-0.450000X0.350000X-0.450000X0.350000X0.450000X-0.350000X0.450000X0*%
G04 #@! TD*
G04 #@! TA.AperFunction,ComponentPad*
%ADD11R,1.800000X1.800000*%
G04 #@! TD*
G04 #@! TA.AperFunction,ComponentPad*
%ADD12C,1.800000*%
G04 #@! TD*
G04 #@! TA.AperFunction,ComponentPad*
%ADD13O,7.000000X5.000000*%
G04 #@! TD*
G04 #@! TA.AperFunction,ComponentPad*
%ADD14R,1.700000X1.700000*%
G04 #@! TD*
G04 #@! TA.AperFunction,ComponentPad*
%ADD15O,1.700000X1.700000*%
G04 #@! TD*
G04 #@! TA.AperFunction,ComponentPad*
%ADD16O,2.720000X3.240000*%
G04 #@! TD*
G04 #@! TA.AperFunction,SMDPad,CuDef*
%ADD17RoundRect,0.250000X0.350000X0.450000X-0.350000X0.450000X-0.350000X-0.450000X0.350000X-0.450000X0*%
G04 #@! TD*
G04 #@! TA.AperFunction,ComponentPad*
%ADD18R,1.600000X1.600000*%
G04 #@! TD*
G04 #@! TA.AperFunction,ComponentPad*
%ADD19O,1.600000X1.600000*%
G04 #@! TD*
G04 #@! TA.AperFunction,SMDPad,CuDef*
%ADD20R,1.500000X2.000000*%
G04 #@! TD*
G04 #@! TA.AperFunction,SMDPad,CuDef*
%ADD21R,3.800000X2.000000*%
G04 #@! TD*
G04 #@! TA.AperFunction,ComponentPad*
%ADD22R,2.500000X2.500000*%
G04 #@! TD*
G04 #@! TA.AperFunction,ComponentPad*
%ADD23C,2.500000*%
G04 #@! TD*
G04 #@! TA.AperFunction,ViaPad*
%ADD24C,0.800000*%
G04 #@! TD*
G04 #@! TA.AperFunction,Conductor*
%ADD25C,0.500000*%
G04 #@! TD*
G04 #@! TA.AperFunction,Conductor*
%ADD26C,1.000000*%
G04 #@! TD*
G04 APERTURE END LIST*
D10*
X180500000Y-90000000D03*
X182500000Y-90000000D03*
D11*
X160000000Y-109275000D03*
D12*
X160000000Y-106735000D03*
D13*
X144900000Y-142650000D03*
X144900000Y-136750000D03*
X144900000Y-130750000D03*
D10*
X180500000Y-82500000D03*
X182500000Y-82500000D03*
X180500000Y-80000000D03*
X182500000Y-80000000D03*
D14*
X190250000Y-62880000D03*
D15*
X190250000Y-65420000D03*
X190250000Y-67960000D03*
X190250000Y-70500000D03*
D14*
X190250000Y-102800000D03*
D15*
X190250000Y-105340000D03*
X190250000Y-107880000D03*
X190250000Y-110420000D03*
X190250000Y-112960000D03*
X190250000Y-115500000D03*
D11*
X136000000Y-83000000D03*
D12*
X136000000Y-85540000D03*
D11*
X134960000Y-108000000D03*
D12*
X137500000Y-108000000D03*
D11*
X160000000Y-116040000D03*
D12*
X160000000Y-113500000D03*
D13*
X119400000Y-142650000D03*
X119400000Y-136750000D03*
X119400000Y-130750000D03*
D10*
X180500000Y-85000000D03*
X182500000Y-85000000D03*
D11*
X136000000Y-76460000D03*
D12*
X136000000Y-79000000D03*
D16*
X174000000Y-138250000D03*
X164400000Y-138250000D03*
D11*
X171700000Y-130750000D03*
D12*
X169200000Y-130750000D03*
X166700000Y-130750000D03*
D11*
X161540000Y-84000000D03*
D12*
X159000000Y-84000000D03*
D14*
X190250000Y-122500000D03*
D15*
X190250000Y-125040000D03*
X190250000Y-127580000D03*
X190250000Y-130120000D03*
X190250000Y-132660000D03*
D10*
X180500000Y-77500000D03*
X182500000Y-77500000D03*
X180500000Y-87500000D03*
X182500000Y-87500000D03*
D17*
X182500000Y-92500000D03*
X180500000Y-92500000D03*
D11*
X168275000Y-84000000D03*
D12*
X165735000Y-84000000D03*
D11*
X128500000Y-108000000D03*
D12*
X131040000Y-108000000D03*
D18*
X173875000Y-53700000D03*
D19*
X171335000Y-53700000D03*
X168795000Y-53700000D03*
X166255000Y-53700000D03*
X163715000Y-53700000D03*
X161175000Y-53700000D03*
X158635000Y-53700000D03*
X158635000Y-61320000D03*
X161175000Y-61320000D03*
X163715000Y-61320000D03*
X166255000Y-61320000D03*
X168795000Y-61320000D03*
X171335000Y-61320000D03*
X173875000Y-61320000D03*
D10*
X180500000Y-95000000D03*
X182500000Y-95000000D03*
D20*
X119800000Y-61350000D03*
X117500000Y-61350000D03*
D21*
X117500000Y-67650000D03*
D20*
X115200000Y-61350000D03*
D22*
X119500000Y-53000000D03*
D23*
X114500000Y-53000000D03*
D18*
X145375000Y-53700000D03*
D19*
X142835000Y-53700000D03*
X140295000Y-53700000D03*
X137755000Y-53700000D03*
X135215000Y-53700000D03*
X132675000Y-53700000D03*
X130135000Y-53700000D03*
X130135000Y-61320000D03*
X132675000Y-61320000D03*
X135215000Y-61320000D03*
X137755000Y-61320000D03*
X140295000Y-61320000D03*
X142835000Y-61320000D03*
X145375000Y-61320000D03*
D14*
X190250000Y-77220000D03*
D15*
X190250000Y-79760000D03*
X190250000Y-82300000D03*
X190250000Y-84840000D03*
X190250000Y-87380000D03*
X190250000Y-89920000D03*
X190250000Y-92460000D03*
X190250000Y-95000000D03*
D24*
X180500000Y-96750000D03*
D25*
X153000000Y-92500000D02*
X180500000Y-92500000D01*
X137500000Y-108000000D02*
X153000000Y-92500000D01*
X149040000Y-90000000D02*
X180500000Y-90000000D01*
X131040000Y-108000000D02*
X149040000Y-90000000D01*
X170000000Y-81250000D02*
X151000000Y-81250000D01*
X127250000Y-113500000D02*
X160000000Y-113500000D01*
X125000000Y-107250000D02*
X125000000Y-111250000D01*
X180500000Y-85000000D02*
X173750000Y-85000000D01*
X151000000Y-81250000D02*
X125000000Y-107250000D01*
X125000000Y-111250000D02*
X127250000Y-113500000D01*
X173750000Y-85000000D02*
X170000000Y-81250000D01*
X166000000Y-108000000D02*
X166000000Y-115750000D01*
X172750000Y-71750000D02*
X172750000Y-72500000D01*
X131750000Y-71750000D02*
X172750000Y-71750000D01*
X177750000Y-77500000D02*
X180500000Y-77500000D01*
X131500000Y-71500000D02*
X131750000Y-71750000D01*
X163000000Y-118750000D02*
X131368630Y-118750000D01*
X164735000Y-106735000D02*
X166000000Y-108000000D01*
X131368630Y-118750000D02*
X123500000Y-110881370D01*
X166000000Y-115750000D02*
X163000000Y-118750000D01*
X160000000Y-106735000D02*
X164735000Y-106735000D01*
X172750000Y-72500000D02*
X177750000Y-77500000D01*
X123500000Y-110881370D02*
X123500000Y-79500000D01*
X123500000Y-79500000D02*
X131500000Y-71500000D01*
X180500000Y-95000000D02*
X180500000Y-96750000D01*
X165735000Y-84000000D02*
X165735000Y-85272792D01*
X167962208Y-87500000D02*
X180500000Y-87500000D01*
X165735000Y-85272792D02*
X167962208Y-87500000D01*
X172000000Y-79000000D02*
X136000000Y-79000000D01*
X180500000Y-82500000D02*
X175500000Y-82500000D01*
X175500000Y-82500000D02*
X172000000Y-79000000D01*
X173000000Y-76000000D02*
X142000000Y-76000000D01*
X134727208Y-85540000D02*
X136000000Y-85540000D01*
X134000000Y-73500000D02*
X131250000Y-76250000D01*
X142000000Y-76000000D02*
X139500000Y-73500000D01*
X131250000Y-82062792D02*
X134727208Y-85540000D01*
X180500000Y-80000000D02*
X177000000Y-80000000D01*
X139500000Y-73500000D02*
X134000000Y-73500000D01*
X177000000Y-80000000D02*
X173000000Y-76000000D01*
X131250000Y-76250000D02*
X131250000Y-82062792D01*
D26*
X175000000Y-58750000D02*
X173875000Y-59875000D01*
X194750000Y-61250000D02*
X192250000Y-58750000D01*
X194750000Y-110250000D02*
X194750000Y-108500000D01*
X190250000Y-115500000D02*
X190250000Y-110420000D01*
X190250000Y-110420000D02*
X194580000Y-110420000D01*
X186100000Y-142650000D02*
X194750000Y-134000000D01*
X144900000Y-142650000D02*
X186100000Y-142650000D01*
X173875000Y-59875000D02*
X171000000Y-57000000D01*
X194750000Y-108500000D02*
X194750000Y-61250000D01*
X192250000Y-58750000D02*
X175000000Y-58750000D01*
X123500000Y-57000000D02*
X119500000Y-53000000D01*
X194660000Y-132660000D02*
X194750000Y-132750000D01*
X194580000Y-110420000D02*
X194750000Y-110250000D01*
X173875000Y-61320000D02*
X173875000Y-59875000D01*
X171000000Y-57000000D02*
X123500000Y-57000000D01*
X194750000Y-132750000D02*
X194750000Y-110250000D01*
X190250000Y-132660000D02*
X194660000Y-132660000D01*
X194750000Y-134000000D02*
X194750000Y-132750000D01*
X115200000Y-57300000D02*
X119500000Y-53000000D01*
X115200000Y-61350000D02*
X115200000Y-57300000D01*
D25*
X171000000Y-55500000D02*
X142095000Y-55500000D01*
X171335000Y-55165000D02*
X171000000Y-55500000D01*
X142095000Y-55500000D02*
X140295000Y-53700000D01*
X171335000Y-53700000D02*
X171335000Y-55165000D01*
X117500000Y-64000000D02*
X117500000Y-61350000D01*
X145375000Y-63375000D02*
X144750000Y-64000000D01*
X117500000Y-64000000D02*
X117500000Y-67650000D01*
X144750000Y-64000000D02*
X117500000Y-64000000D01*
X145375000Y-61320000D02*
X145375000Y-63375000D01*
X190250000Y-62880000D02*
X172895000Y-62880000D01*
X190250000Y-65420000D02*
X190250000Y-62880000D01*
X172895000Y-62880000D02*
X171335000Y-61320000D01*
X182500000Y-77500000D02*
X182780000Y-77220000D01*
X182500000Y-80000000D02*
X182500000Y-77500000D01*
X182780000Y-77220000D02*
X190250000Y-77220000D01*
X182700000Y-82300000D02*
X190250000Y-82300000D01*
X182500000Y-85000000D02*
X182500000Y-82500000D01*
X182500000Y-82500000D02*
X182700000Y-82300000D01*
X182620000Y-87380000D02*
X190250000Y-87380000D01*
X182500000Y-87500000D02*
X182620000Y-87380000D01*
X182500000Y-90000000D02*
X182500000Y-87500000D01*
X182500000Y-92500000D02*
X182540000Y-92460000D01*
X182540000Y-92460000D02*
X190250000Y-92460000D01*
X182500000Y-95000000D02*
X182500000Y-92500000D01*
G04 #@! TA.AperFunction,Conductor*
G36*
X190346288Y-105858954D02*
G01*
X190427070Y-105912930D01*
X190481046Y-105993712D01*
X190500000Y-106089000D01*
X190500000Y-107131000D01*
X190481046Y-107226288D01*
X190427070Y-107307070D01*
X190346288Y-107361046D01*
X190251000Y-107380000D01*
X190249000Y-107380000D01*
X190153712Y-107361046D01*
X190072930Y-107307070D01*
X190018954Y-107226288D01*
X190000000Y-107131000D01*
X190000000Y-106089000D01*
X190018954Y-105993712D01*
X190072930Y-105912930D01*
X190153712Y-105858954D01*
X190249000Y-105840000D01*
X190251000Y-105840000D01*
X190346288Y-105858954D01*
G37*
G04 #@! TD.AperFunction*
G04 #@! TA.AperFunction,Conductor*
G36*
X190346288Y-103318954D02*
G01*
X190427070Y-103372930D01*
X190481046Y-103453712D01*
X190500000Y-103549000D01*
X190500000Y-104591000D01*
X190481046Y-104686288D01*
X190427070Y-104767070D01*
X190346288Y-104821046D01*
X190251000Y-104840000D01*
X190249000Y-104840000D01*
X190153712Y-104821046D01*
X190072930Y-104767070D01*
X190018954Y-104686288D01*
X190000000Y-104591000D01*
X190000000Y-103549000D01*
X190018954Y-103453712D01*
X190072930Y-103372930D01*
X190153712Y-103318954D01*
X190249000Y-103300000D01*
X190251000Y-103300000D01*
X190346288Y-103318954D01*
G37*
G04 #@! TD.AperFunction*
G04 #@! TA.AperFunction,Conductor*
G36*
X190346288Y-68478954D02*
G01*
X190427070Y-68532930D01*
X190481046Y-68613712D01*
X190500000Y-68709000D01*
X190500000Y-69751000D01*
X190481046Y-69846288D01*
X190427070Y-69927070D01*
X190346288Y-69981046D01*
X190251000Y-70000000D01*
X190249000Y-70000000D01*
X190153712Y-69981046D01*
X190072930Y-69927070D01*
X190018954Y-69846288D01*
X190000000Y-69751000D01*
X190000000Y-68709000D01*
X190018954Y-68613712D01*
X190072930Y-68532930D01*
X190153712Y-68478954D01*
X190249000Y-68460000D01*
X190251000Y-68460000D01*
X190346288Y-68478954D01*
G37*
G04 #@! TD.AperFunction*
G04 #@! TA.AperFunction,Conductor*
G36*
X134656302Y-61088954D02*
G01*
X134737084Y-61142930D01*
X134791060Y-61223712D01*
X134810014Y-61319000D01*
X134810014Y-61321000D01*
X134791060Y-61416288D01*
X134737084Y-61497070D01*
X134656302Y-61551046D01*
X134561014Y-61570000D01*
X133328986Y-61570000D01*
X133233698Y-61551046D01*
X133152916Y-61497070D01*
X133098940Y-61416288D01*
X133079986Y-61321000D01*
X133079986Y-61319000D01*
X133098940Y-61223712D01*
X133152916Y-61142930D01*
X133233698Y-61088954D01*
X133328986Y-61070000D01*
X134561014Y-61070000D01*
X134656302Y-61088954D01*
G37*
G04 #@! TD.AperFunction*
G04 #@! TA.AperFunction,Conductor*
G36*
X142276302Y-61088954D02*
G01*
X142357084Y-61142930D01*
X142411060Y-61223712D01*
X142430014Y-61319000D01*
X142430014Y-61321000D01*
X142411060Y-61416288D01*
X142357084Y-61497070D01*
X142276302Y-61551046D01*
X142181014Y-61570000D01*
X140948986Y-61570000D01*
X140853698Y-61551046D01*
X140772916Y-61497070D01*
X140718940Y-61416288D01*
X140699986Y-61321000D01*
X140699986Y-61319000D01*
X140718940Y-61223712D01*
X140772916Y-61142930D01*
X140853698Y-61088954D01*
X140948986Y-61070000D01*
X142181014Y-61070000D01*
X142276302Y-61088954D01*
G37*
G04 #@! TD.AperFunction*
G04 #@! TA.AperFunction,Conductor*
G36*
X158068488Y-114369454D02*
G01*
X158149270Y-114423430D01*
X158203246Y-114504212D01*
X158222200Y-114599500D01*
X158203246Y-114694788D01*
X158193905Y-114714784D01*
X158166559Y-114767136D01*
X158166557Y-114767140D01*
X158110610Y-114962666D01*
X158110609Y-114962671D01*
X158100000Y-115081992D01*
X158100000Y-115789999D01*
X158100001Y-115790000D01*
X159298966Y-115790000D01*
X159394254Y-115808954D01*
X159475036Y-115862930D01*
X159529012Y-115943712D01*
X159547276Y-116020496D01*
X159547403Y-116022179D01*
X159547427Y-116022501D01*
X159535605Y-116118934D01*
X159487779Y-116203502D01*
X159411231Y-116263331D01*
X159317614Y-116289312D01*
X159299115Y-116290000D01*
X158100001Y-116290000D01*
X158100000Y-116290001D01*
X158100000Y-116998008D01*
X158110609Y-117117328D01*
X158110610Y-117117333D01*
X158166557Y-117312859D01*
X158166560Y-117312867D01*
X158260719Y-117493126D01*
X158260720Y-117493128D01*
X158260730Y-117493140D01*
X158260737Y-117493153D01*
X158267672Y-117503676D01*
X158266669Y-117504336D01*
X158306260Y-117578966D01*
X158315479Y-117675683D01*
X158286985Y-117768566D01*
X158225116Y-117843474D01*
X158139290Y-117889004D01*
X158067756Y-117899500D01*
X131824058Y-117899500D01*
X131728770Y-117880546D01*
X131647988Y-117826570D01*
X128596988Y-114775570D01*
X128543012Y-114694788D01*
X128524058Y-114599500D01*
X128543012Y-114504212D01*
X128596988Y-114423430D01*
X128677770Y-114369454D01*
X128773058Y-114350500D01*
X157973200Y-114350500D01*
X158068488Y-114369454D01*
G37*
G04 #@! TD.AperFunction*
G04 #@! TA.AperFunction,Conductor*
G36*
X158514969Y-82119454D02*
G01*
X158595751Y-82173430D01*
X158649727Y-82254212D01*
X158668681Y-82349500D01*
X158649727Y-82444788D01*
X158595751Y-82525570D01*
X158514969Y-82579546D01*
X158500532Y-82585008D01*
X158395188Y-82621172D01*
X158176485Y-82739529D01*
X157980261Y-82892257D01*
X157980248Y-82892269D01*
X157811836Y-83075214D01*
X157811830Y-83075221D01*
X157675828Y-83283391D01*
X157675825Y-83283396D01*
X157575936Y-83511121D01*
X157575935Y-83511125D01*
X157514894Y-83752168D01*
X157514892Y-83752176D01*
X157494357Y-84000000D01*
X157514892Y-84247823D01*
X157514894Y-84247831D01*
X157575935Y-84488874D01*
X157575937Y-84488881D01*
X157624868Y-84600433D01*
X157675825Y-84716603D01*
X157675828Y-84716608D01*
X157811830Y-84924778D01*
X157811836Y-84924785D01*
X157980248Y-85107730D01*
X157980252Y-85107733D01*
X157980256Y-85107738D01*
X157980260Y-85107741D01*
X157980261Y-85107742D01*
X158176485Y-85260470D01*
X158176487Y-85260471D01*
X158176491Y-85260474D01*
X158395190Y-85378828D01*
X158415703Y-85385870D01*
X158630378Y-85459569D01*
X158630382Y-85459569D01*
X158630386Y-85459571D01*
X158875665Y-85500500D01*
X159124335Y-85500500D01*
X159369614Y-85459571D01*
X159546391Y-85398883D01*
X159642664Y-85385870D01*
X159736595Y-85410692D01*
X159813877Y-85469569D01*
X159820215Y-85477037D01*
X159929245Y-85610750D01*
X159929249Y-85610754D01*
X160086867Y-85739276D01*
X160086873Y-85739280D01*
X160267132Y-85833439D01*
X160267140Y-85833442D01*
X160462666Y-85889389D01*
X160462671Y-85889390D01*
X160581992Y-85900000D01*
X161289999Y-85900000D01*
X161290000Y-85899998D01*
X161290000Y-84699000D01*
X161308954Y-84603712D01*
X161362930Y-84522930D01*
X161443712Y-84468954D01*
X161539000Y-84450000D01*
X161541000Y-84450000D01*
X161636288Y-84468954D01*
X161717070Y-84522930D01*
X161771046Y-84603712D01*
X161790000Y-84699000D01*
X161790000Y-85899999D01*
X161790001Y-85900000D01*
X162498008Y-85900000D01*
X162617328Y-85889390D01*
X162617333Y-85889389D01*
X162812859Y-85833442D01*
X162812867Y-85833439D01*
X162993126Y-85739280D01*
X162993132Y-85739276D01*
X163150750Y-85610754D01*
X163150754Y-85610750D01*
X163279276Y-85453132D01*
X163279280Y-85453126D01*
X163373439Y-85272867D01*
X163373442Y-85272859D01*
X163429389Y-85077333D01*
X163429390Y-85077328D01*
X163440000Y-84958008D01*
X163440000Y-84250001D01*
X163439999Y-84250000D01*
X162241034Y-84250000D01*
X162145746Y-84231046D01*
X162064964Y-84177070D01*
X162010988Y-84096288D01*
X161992723Y-84019503D01*
X161992572Y-84017499D01*
X162004395Y-83921066D01*
X162052221Y-83836498D01*
X162128769Y-83776669D01*
X162222386Y-83750688D01*
X162240885Y-83750000D01*
X163439999Y-83750000D01*
X163440000Y-83749998D01*
X163440000Y-83041992D01*
X163429390Y-82922671D01*
X163429389Y-82922666D01*
X163373442Y-82727140D01*
X163373439Y-82727132D01*
X163279280Y-82546873D01*
X163279272Y-82546861D01*
X163246651Y-82506855D01*
X163201123Y-82421028D01*
X163191905Y-82324312D01*
X163220401Y-82231430D01*
X163282273Y-82156523D01*
X163368100Y-82110995D01*
X163439628Y-82100500D01*
X165154681Y-82100500D01*
X165249969Y-82119454D01*
X165330751Y-82173430D01*
X165384727Y-82254212D01*
X165403681Y-82349500D01*
X165384727Y-82444788D01*
X165330751Y-82525570D01*
X165249969Y-82579546D01*
X165235532Y-82585008D01*
X165130188Y-82621172D01*
X164911485Y-82739529D01*
X164715261Y-82892257D01*
X164715248Y-82892269D01*
X164546836Y-83075214D01*
X164546830Y-83075221D01*
X164410828Y-83283391D01*
X164410825Y-83283396D01*
X164310936Y-83511121D01*
X164310935Y-83511125D01*
X164249894Y-83752168D01*
X164249892Y-83752176D01*
X164229357Y-84000000D01*
X164249892Y-84247823D01*
X164249894Y-84247831D01*
X164310935Y-84488874D01*
X164310937Y-84488881D01*
X164359868Y-84600433D01*
X164410825Y-84716603D01*
X164410828Y-84716608D01*
X164546830Y-84924778D01*
X164546836Y-84924785D01*
X164715248Y-85107730D01*
X164715251Y-85107732D01*
X164715256Y-85107738D01*
X164715265Y-85107745D01*
X164790548Y-85166340D01*
X164854103Y-85239824D01*
X164884331Y-85329222D01*
X164890729Y-85376184D01*
X164899484Y-85456697D01*
X164901969Y-85467984D01*
X164904774Y-85479263D01*
X164932700Y-85555278D01*
X164958559Y-85632022D01*
X164963417Y-85642524D01*
X164968566Y-85652904D01*
X164968567Y-85652905D01*
X164968568Y-85652908D01*
X165012184Y-85721145D01*
X165053930Y-85790528D01*
X165053931Y-85790529D01*
X165053933Y-85790532D01*
X165060935Y-85799743D01*
X165068201Y-85808783D01*
X165125458Y-85866039D01*
X165181149Y-85924831D01*
X165191441Y-85933572D01*
X165190820Y-85934303D01*
X165207523Y-85948103D01*
X167332792Y-88073374D01*
X167339648Y-88080811D01*
X167373871Y-88121100D01*
X167438335Y-88170104D01*
X167501455Y-88220842D01*
X167501461Y-88220845D01*
X167511214Y-88227079D01*
X167521145Y-88233055D01*
X167594637Y-88267055D01*
X167667182Y-88303035D01*
X167678075Y-88307036D01*
X167689030Y-88310727D01*
X167689041Y-88310732D01*
X167768124Y-88328139D01*
X167846714Y-88347684D01*
X167846716Y-88347684D01*
X167858177Y-88349245D01*
X167869709Y-88350499D01*
X167869711Y-88350500D01*
X167950676Y-88350500D01*
X167952756Y-88350556D01*
X168031640Y-88352693D01*
X168031648Y-88352691D01*
X168045098Y-88351597D01*
X168045175Y-88352550D01*
X168066742Y-88350500D01*
X179261406Y-88350500D01*
X179356694Y-88369454D01*
X179437476Y-88423430D01*
X179455475Y-88443493D01*
X179545060Y-88554940D01*
X179546286Y-88555926D01*
X179547524Y-88557403D01*
X179554606Y-88564485D01*
X179553981Y-88565109D01*
X179608679Y-88630396D01*
X179637825Y-88723076D01*
X179629285Y-88819855D01*
X179584360Y-88905999D01*
X179546305Y-88944058D01*
X179545070Y-88945050D01*
X179545062Y-88945058D01*
X179545060Y-88945060D01*
X179500001Y-89001116D01*
X179455479Y-89056503D01*
X179381006Y-89118896D01*
X179288326Y-89148041D01*
X179261406Y-89149500D01*
X149079632Y-89149500D01*
X149069525Y-89149089D01*
X149016835Y-89144799D01*
X149016830Y-89144799D01*
X148936607Y-89155729D01*
X148856089Y-89164485D01*
X148844800Y-89166970D01*
X148833530Y-89169773D01*
X148757513Y-89197700D01*
X148680775Y-89223557D01*
X148670264Y-89228419D01*
X148659883Y-89233568D01*
X148591658Y-89277177D01*
X148522265Y-89318929D01*
X148513042Y-89325940D01*
X148504011Y-89333200D01*
X148446769Y-89390442D01*
X148387962Y-89446147D01*
X148379224Y-89456435D01*
X148378498Y-89455819D01*
X148364694Y-89472516D01*
X131403546Y-106433663D01*
X131322764Y-106487639D01*
X131227476Y-106506593D01*
X131186497Y-106503198D01*
X131164335Y-106499500D01*
X130915665Y-106499500D01*
X130670389Y-106540428D01*
X130670381Y-106540430D01*
X130493610Y-106601115D01*
X130397330Y-106614127D01*
X130303400Y-106589305D01*
X130226119Y-106530426D01*
X130219783Y-106522961D01*
X130110754Y-106389249D01*
X130110750Y-106389245D01*
X129953132Y-106260723D01*
X129953126Y-106260719D01*
X129772867Y-106166560D01*
X129772859Y-106166557D01*
X129577333Y-106110610D01*
X129577328Y-106110609D01*
X129458008Y-106100000D01*
X128750001Y-106100000D01*
X128750000Y-106100001D01*
X128750000Y-107301000D01*
X128731046Y-107396288D01*
X128677070Y-107477070D01*
X128596288Y-107531046D01*
X128501000Y-107550000D01*
X128499000Y-107550000D01*
X128403712Y-107531046D01*
X128322930Y-107477070D01*
X128268954Y-107396288D01*
X128250000Y-107301000D01*
X128249999Y-106100001D01*
X128249999Y-106100000D01*
X127953927Y-106100000D01*
X127858639Y-106081046D01*
X127777857Y-106027070D01*
X127723881Y-105946288D01*
X127704927Y-105851000D01*
X127723881Y-105755712D01*
X127777854Y-105674933D01*
X151279358Y-82173429D01*
X151360140Y-82119454D01*
X151455428Y-82100500D01*
X158419681Y-82100500D01*
X158514969Y-82119454D01*
G37*
G04 #@! TD.AperFunction*
G04 #@! TA.AperFunction,Conductor*
G36*
X179356694Y-90869454D02*
G01*
X179437476Y-90923430D01*
X179455475Y-90943493D01*
X179545060Y-91054940D01*
X179545065Y-91054944D01*
X179545066Y-91054945D01*
X179546295Y-91055933D01*
X179547539Y-91057418D01*
X179554606Y-91064485D01*
X179553982Y-91065108D01*
X179608686Y-91130408D01*
X179637827Y-91223090D01*
X179629282Y-91319868D01*
X179584352Y-91406010D01*
X179546295Y-91444067D01*
X179545066Y-91445054D01*
X179545060Y-91445060D01*
X179471502Y-91536570D01*
X179455479Y-91556503D01*
X179381006Y-91618896D01*
X179288326Y-91648041D01*
X179261406Y-91649500D01*
X153039632Y-91649500D01*
X153029525Y-91649089D01*
X152976835Y-91644799D01*
X152976830Y-91644799D01*
X152896607Y-91655729D01*
X152816089Y-91664485D01*
X152804800Y-91666970D01*
X152793530Y-91669773D01*
X152717513Y-91697700D01*
X152640775Y-91723557D01*
X152630264Y-91728419D01*
X152619883Y-91733568D01*
X152551658Y-91777177D01*
X152482265Y-91818929D01*
X152473042Y-91825940D01*
X152464011Y-91833200D01*
X152406769Y-91890442D01*
X152347962Y-91946147D01*
X152339224Y-91956435D01*
X152338498Y-91955819D01*
X152324694Y-91972516D01*
X137863546Y-106433663D01*
X137782764Y-106487639D01*
X137687476Y-106506593D01*
X137646497Y-106503198D01*
X137624335Y-106499500D01*
X137375665Y-106499500D01*
X137130389Y-106540428D01*
X137130381Y-106540430D01*
X136953610Y-106601115D01*
X136857330Y-106614127D01*
X136763400Y-106589305D01*
X136686119Y-106530426D01*
X136679783Y-106522961D01*
X136570754Y-106389249D01*
X136570750Y-106389245D01*
X136413132Y-106260723D01*
X136413126Y-106260719D01*
X136232867Y-106166560D01*
X136232859Y-106166557D01*
X136037333Y-106110610D01*
X136037328Y-106110609D01*
X135918008Y-106100000D01*
X135210001Y-106100000D01*
X135210000Y-106100001D01*
X135210000Y-107301000D01*
X135191046Y-107396288D01*
X135137070Y-107477070D01*
X135056288Y-107531046D01*
X134961000Y-107550000D01*
X134959000Y-107550000D01*
X134863712Y-107531046D01*
X134782930Y-107477070D01*
X134728954Y-107396288D01*
X134710000Y-107301000D01*
X134710000Y-106100001D01*
X134701574Y-106091575D01*
X134648640Y-106081046D01*
X134567858Y-106027070D01*
X134513882Y-105946288D01*
X134494928Y-105851000D01*
X134513882Y-105755712D01*
X134567858Y-105674930D01*
X149319359Y-90923430D01*
X149400141Y-90869454D01*
X149495429Y-90850500D01*
X179261406Y-90850500D01*
X179356694Y-90869454D01*
G37*
G04 #@! TD.AperFunction*
G04 #@! TA.AperFunction,Conductor*
G36*
X131740548Y-72600556D02*
G01*
X131819432Y-72602693D01*
X131819440Y-72602691D01*
X131832890Y-72601597D01*
X131832967Y-72602550D01*
X131854534Y-72600500D01*
X133095571Y-72600500D01*
X133190859Y-72619454D01*
X133271641Y-72673430D01*
X133325617Y-72754212D01*
X133344571Y-72849500D01*
X133325617Y-72944788D01*
X133271641Y-73025570D01*
X130676613Y-75620595D01*
X130669176Y-75627451D01*
X130628900Y-75661662D01*
X130579909Y-75726108D01*
X130529164Y-75789236D01*
X130522936Y-75798980D01*
X130516943Y-75808940D01*
X130482939Y-75882438D01*
X130446959Y-75954988D01*
X130442960Y-75965872D01*
X130439268Y-75976831D01*
X130421858Y-76055926D01*
X130402315Y-76134505D01*
X130400758Y-76145926D01*
X130399500Y-76157506D01*
X130399500Y-76238467D01*
X130397307Y-76319436D01*
X130398403Y-76332895D01*
X130397449Y-76332972D01*
X130399500Y-76354537D01*
X130399500Y-82023159D01*
X130399089Y-82033266D01*
X130394799Y-82085956D01*
X130394799Y-82085960D01*
X130405729Y-82166184D01*
X130414484Y-82246697D01*
X130416969Y-82257984D01*
X130419774Y-82269263D01*
X130447700Y-82345278D01*
X130473559Y-82422022D01*
X130478417Y-82432524D01*
X130483566Y-82442904D01*
X130483567Y-82442905D01*
X130483568Y-82442908D01*
X130527184Y-82511145D01*
X130568930Y-82580528D01*
X130568931Y-82580529D01*
X130568933Y-82580532D01*
X130575935Y-82589743D01*
X130583201Y-82598783D01*
X130640458Y-82656040D01*
X130640460Y-82656041D01*
X130696151Y-82714833D01*
X130696154Y-82714835D01*
X130696155Y-82714836D01*
X130706441Y-82723573D01*
X130705821Y-82724302D01*
X130722520Y-82738101D01*
X134097794Y-86113375D01*
X134104647Y-86120809D01*
X134138871Y-86161100D01*
X134203335Y-86210104D01*
X134266455Y-86260842D01*
X134266461Y-86260845D01*
X134276214Y-86267079D01*
X134286145Y-86273055D01*
X134359637Y-86307055D01*
X134432182Y-86343035D01*
X134443075Y-86347036D01*
X134454030Y-86350727D01*
X134454041Y-86350732D01*
X134533124Y-86368139D01*
X134611714Y-86387684D01*
X134611716Y-86387684D01*
X134623177Y-86389245D01*
X134634706Y-86390499D01*
X134634711Y-86390500D01*
X134634715Y-86390500D01*
X134648129Y-86391959D01*
X134647990Y-86393236D01*
X134729519Y-86409454D01*
X134810301Y-86463430D01*
X134817394Y-86470822D01*
X134980256Y-86647738D01*
X134980260Y-86647741D01*
X134980261Y-86647742D01*
X135176485Y-86800470D01*
X135176487Y-86800471D01*
X135176491Y-86800474D01*
X135395190Y-86918828D01*
X135464736Y-86942703D01*
X135630378Y-86999569D01*
X135630382Y-86999569D01*
X135630386Y-86999571D01*
X135875665Y-87040500D01*
X136124335Y-87040500D01*
X136369614Y-86999571D01*
X136369618Y-86999569D01*
X136369621Y-86999569D01*
X136459077Y-86968858D01*
X136604810Y-86918828D01*
X136823509Y-86800474D01*
X137019744Y-86647738D01*
X137188164Y-86464785D01*
X137189050Y-86463430D01*
X137235839Y-86391813D01*
X137324173Y-86256607D01*
X137424063Y-86028881D01*
X137485108Y-85787821D01*
X137505643Y-85540000D01*
X137485108Y-85292179D01*
X137424063Y-85051119D01*
X137407013Y-85012251D01*
X137386095Y-84917380D01*
X137403075Y-84821720D01*
X137455370Y-84739840D01*
X137477688Y-84719253D01*
X137610751Y-84610753D01*
X137610754Y-84610750D01*
X137739276Y-84453132D01*
X137739280Y-84453126D01*
X137833439Y-84272867D01*
X137833442Y-84272859D01*
X137889389Y-84077333D01*
X137889390Y-84077328D01*
X137900000Y-83958008D01*
X137900000Y-83250000D01*
X136701034Y-83250000D01*
X136605746Y-83231046D01*
X136524964Y-83177070D01*
X136470988Y-83096288D01*
X136452723Y-83019503D01*
X136452572Y-83017499D01*
X136464395Y-82921066D01*
X136512221Y-82836498D01*
X136588769Y-82776669D01*
X136682386Y-82750688D01*
X136700885Y-82750000D01*
X137899999Y-82750000D01*
X137900000Y-82749999D01*
X137900000Y-82041992D01*
X137889390Y-81922671D01*
X137889389Y-81922666D01*
X137833442Y-81727140D01*
X137833439Y-81727132D01*
X137739280Y-81546873D01*
X137739276Y-81546867D01*
X137610754Y-81389249D01*
X137610750Y-81389245D01*
X137453132Y-81260723D01*
X137453126Y-81260719D01*
X137272867Y-81166560D01*
X137272859Y-81166557D01*
X137077333Y-81110610D01*
X137077328Y-81110609D01*
X136958008Y-81100000D01*
X136250001Y-81100000D01*
X136250000Y-81100001D01*
X136250000Y-82301000D01*
X136231046Y-82396288D01*
X136177070Y-82477070D01*
X136096288Y-82531046D01*
X136001000Y-82550000D01*
X135999000Y-82550000D01*
X135903712Y-82531046D01*
X135822930Y-82477070D01*
X135768954Y-82396288D01*
X135750000Y-82301000D01*
X135750000Y-81100000D01*
X135041992Y-81100000D01*
X134922671Y-81110609D01*
X134922666Y-81110610D01*
X134727140Y-81166557D01*
X134727132Y-81166560D01*
X134546873Y-81260719D01*
X134546867Y-81260723D01*
X134389249Y-81389245D01*
X134389245Y-81389249D01*
X134260723Y-81546867D01*
X134260719Y-81546873D01*
X134166560Y-81727132D01*
X134166557Y-81727140D01*
X134110610Y-81922666D01*
X134110609Y-81922671D01*
X134100000Y-82041992D01*
X134100000Y-82749998D01*
X134100001Y-82750000D01*
X135298966Y-82750000D01*
X135394254Y-82768954D01*
X135475036Y-82822930D01*
X135529012Y-82903712D01*
X135547276Y-82980496D01*
X135547403Y-82982179D01*
X135547427Y-82982501D01*
X135535605Y-83078934D01*
X135487779Y-83163502D01*
X135411231Y-83223331D01*
X135317614Y-83249312D01*
X135299115Y-83250000D01*
X134100001Y-83250000D01*
X134046069Y-83303932D01*
X133965287Y-83357908D01*
X133869999Y-83376862D01*
X133774711Y-83357908D01*
X133693929Y-83303932D01*
X132173429Y-81783432D01*
X132119453Y-81702650D01*
X132100499Y-81607362D01*
X132100499Y-79204979D01*
X132100499Y-76705424D01*
X132119453Y-76610141D01*
X132173426Y-76529362D01*
X133747440Y-74955348D01*
X133828219Y-74901375D01*
X133923507Y-74882421D01*
X134018795Y-74901375D01*
X134099577Y-74955351D01*
X134153553Y-75036133D01*
X134172507Y-75131421D01*
X134162900Y-75199919D01*
X134110610Y-75382663D01*
X134110609Y-75382671D01*
X134100000Y-75501992D01*
X134100000Y-76209999D01*
X134100001Y-76210000D01*
X135298966Y-76210000D01*
X135394254Y-76228954D01*
X135475036Y-76282930D01*
X135529012Y-76363712D01*
X135547276Y-76440496D01*
X135547403Y-76442179D01*
X135547427Y-76442501D01*
X135535605Y-76538934D01*
X135487779Y-76623502D01*
X135411231Y-76683331D01*
X135317614Y-76709312D01*
X135299115Y-76710000D01*
X134100001Y-76710000D01*
X134100000Y-76710001D01*
X134100000Y-77418008D01*
X134110609Y-77537328D01*
X134110610Y-77537333D01*
X134166557Y-77732859D01*
X134166560Y-77732867D01*
X134260719Y-77913126D01*
X134260723Y-77913132D01*
X134389245Y-78070750D01*
X134389249Y-78070754D01*
X134522312Y-78179254D01*
X134584183Y-78254161D01*
X134612680Y-78347042D01*
X134603462Y-78443759D01*
X134592987Y-78472247D01*
X134575937Y-78511119D01*
X134575936Y-78511122D01*
X134575935Y-78511125D01*
X134514894Y-78752168D01*
X134514892Y-78752176D01*
X134494357Y-79000000D01*
X134514892Y-79247823D01*
X134514894Y-79247831D01*
X134575832Y-79488467D01*
X134575937Y-79488881D01*
X134632151Y-79617037D01*
X134675825Y-79716603D01*
X134675828Y-79716608D01*
X134811830Y-79924778D01*
X134811836Y-79924785D01*
X134980248Y-80107730D01*
X134980252Y-80107733D01*
X134980256Y-80107738D01*
X134980260Y-80107741D01*
X134980261Y-80107742D01*
X135176485Y-80260470D01*
X135176487Y-80260471D01*
X135176491Y-80260474D01*
X135395190Y-80378828D01*
X135459076Y-80400760D01*
X135630378Y-80459569D01*
X135630382Y-80459569D01*
X135630386Y-80459571D01*
X135875665Y-80500500D01*
X136124335Y-80500500D01*
X136369614Y-80459571D01*
X136369618Y-80459569D01*
X136369621Y-80459569D01*
X136485544Y-80419772D01*
X136604810Y-80378828D01*
X136823509Y-80260474D01*
X137019744Y-80107738D01*
X137182577Y-79930854D01*
X137261055Y-79873588D01*
X137355479Y-79850713D01*
X137365769Y-79850500D01*
X171544571Y-79850500D01*
X171639859Y-79869454D01*
X171720641Y-79923430D01*
X174870593Y-83073382D01*
X174877445Y-83080816D01*
X174894815Y-83101265D01*
X174911665Y-83121102D01*
X174976117Y-83170097D01*
X175004248Y-83192709D01*
X175039246Y-83220841D01*
X175039252Y-83220844D01*
X175049034Y-83227097D01*
X175058933Y-83233053D01*
X175132444Y-83267062D01*
X175204978Y-83303036D01*
X175204981Y-83303036D01*
X175215859Y-83307033D01*
X175226830Y-83310730D01*
X175226833Y-83310732D01*
X175226835Y-83310732D01*
X175226837Y-83310733D01*
X175305923Y-83328141D01*
X175384505Y-83347684D01*
X175395953Y-83349243D01*
X175407501Y-83350499D01*
X175407503Y-83350500D01*
X175488468Y-83350500D01*
X175490548Y-83350556D01*
X175569432Y-83352693D01*
X175569440Y-83352691D01*
X175582890Y-83351597D01*
X175582967Y-83352550D01*
X175604534Y-83350500D01*
X179261406Y-83350500D01*
X179356694Y-83369454D01*
X179437476Y-83423430D01*
X179455475Y-83443493D01*
X179545060Y-83554940D01*
X179546286Y-83555926D01*
X179547524Y-83557403D01*
X179554606Y-83564485D01*
X179553981Y-83565109D01*
X179608679Y-83630396D01*
X179637825Y-83723076D01*
X179629285Y-83819855D01*
X179584360Y-83905999D01*
X179546305Y-83944058D01*
X179545070Y-83945050D01*
X179545062Y-83945058D01*
X179545060Y-83945060D01*
X179486832Y-84017499D01*
X179455479Y-84056503D01*
X179381006Y-84118896D01*
X179288326Y-84148041D01*
X179261406Y-84149500D01*
X174205429Y-84149500D01*
X174110141Y-84130546D01*
X174029359Y-84076570D01*
X170629412Y-80676622D01*
X170622555Y-80669184D01*
X170588334Y-80628897D01*
X170528216Y-80583197D01*
X170523891Y-80579909D01*
X170505944Y-80565483D01*
X170460756Y-80529159D01*
X170451015Y-80522933D01*
X170441063Y-80516945D01*
X170367561Y-80482939D01*
X170295019Y-80446963D01*
X170284102Y-80442952D01*
X170273172Y-80439269D01*
X170194073Y-80421858D01*
X170115491Y-80402314D01*
X170104087Y-80400760D01*
X170092500Y-80399500D01*
X170092497Y-80399500D01*
X170092493Y-80399500D01*
X170011532Y-80399500D01*
X169971031Y-80398403D01*
X169930568Y-80397307D01*
X169930567Y-80397307D01*
X169930566Y-80397307D01*
X169917110Y-80398403D01*
X169917032Y-80397449D01*
X169895466Y-80399500D01*
X151039632Y-80399500D01*
X151029525Y-80399089D01*
X150976835Y-80394799D01*
X150976830Y-80394799D01*
X150896607Y-80405729D01*
X150816089Y-80414485D01*
X150804800Y-80416970D01*
X150793533Y-80419772D01*
X150745431Y-80437443D01*
X150717499Y-80447705D01*
X150643171Y-80472749D01*
X150640776Y-80473557D01*
X150630223Y-80478439D01*
X150619880Y-80483568D01*
X150551631Y-80527193D01*
X150482261Y-80568931D01*
X150473024Y-80575953D01*
X150464013Y-80583197D01*
X150406750Y-80640460D01*
X150347962Y-80696147D01*
X150339224Y-80706435D01*
X150338498Y-80705818D01*
X150324696Y-80722513D01*
X124775569Y-106271640D01*
X124694787Y-106325616D01*
X124599499Y-106344570D01*
X124504211Y-106325616D01*
X124423429Y-106271640D01*
X124369453Y-106190858D01*
X124350499Y-106095574D01*
X124350499Y-79955427D01*
X124369453Y-79860140D01*
X124423426Y-79779361D01*
X131529357Y-72673430D01*
X131610140Y-72619454D01*
X131705428Y-72600500D01*
X131738468Y-72600500D01*
X131740548Y-72600556D01*
G37*
G04 #@! TD.AperFunction*
G04 #@! TA.AperFunction,Conductor*
G36*
X170519288Y-82998882D02*
G01*
X170600067Y-83052856D01*
X171408319Y-83861107D01*
X173120587Y-85573375D01*
X173127444Y-85580814D01*
X173161663Y-85621100D01*
X173226118Y-85670098D01*
X173262069Y-85698996D01*
X173289246Y-85720842D01*
X173289247Y-85720842D01*
X173289248Y-85720843D01*
X173298986Y-85727066D01*
X173308933Y-85733052D01*
X173308936Y-85733054D01*
X173382422Y-85767052D01*
X173454972Y-85803034D01*
X173454975Y-85803035D01*
X173454979Y-85803037D01*
X173454982Y-85803037D01*
X173465871Y-85807037D01*
X173476822Y-85810727D01*
X173476833Y-85810732D01*
X173555916Y-85828139D01*
X173634506Y-85847684D01*
X173634508Y-85847684D01*
X173645969Y-85849245D01*
X173657501Y-85850499D01*
X173657503Y-85850500D01*
X173738468Y-85850500D01*
X173740548Y-85850556D01*
X173819432Y-85852693D01*
X173819440Y-85852691D01*
X173832890Y-85851597D01*
X173832967Y-85852550D01*
X173854534Y-85850500D01*
X179261406Y-85850500D01*
X179356694Y-85869454D01*
X179437476Y-85923430D01*
X179455475Y-85943493D01*
X179545060Y-86054940D01*
X179545065Y-86054944D01*
X179545066Y-86054945D01*
X179546295Y-86055933D01*
X179547539Y-86057418D01*
X179554606Y-86064485D01*
X179553982Y-86065108D01*
X179608686Y-86130408D01*
X179637827Y-86223090D01*
X179629282Y-86319868D01*
X179584352Y-86406010D01*
X179546295Y-86444067D01*
X179545066Y-86445054D01*
X179545060Y-86445060D01*
X179477185Y-86529500D01*
X179455479Y-86556503D01*
X179381006Y-86618896D01*
X179288326Y-86648041D01*
X179261406Y-86649500D01*
X168417637Y-86649500D01*
X168322349Y-86630546D01*
X168241567Y-86576570D01*
X167971068Y-86306071D01*
X167917092Y-86225289D01*
X167898138Y-86130001D01*
X167917092Y-86034713D01*
X167971068Y-85953931D01*
X168025000Y-85899999D01*
X168025000Y-84699000D01*
X168043954Y-84603712D01*
X168097930Y-84522930D01*
X168178712Y-84468954D01*
X168274000Y-84450000D01*
X168276000Y-84450000D01*
X168371288Y-84468954D01*
X168452070Y-84522930D01*
X168506046Y-84603712D01*
X168525000Y-84699000D01*
X168525000Y-85899999D01*
X168525001Y-85900000D01*
X169233008Y-85900000D01*
X169352328Y-85889390D01*
X169352333Y-85889389D01*
X169547859Y-85833442D01*
X169547867Y-85833439D01*
X169728126Y-85739280D01*
X169728132Y-85739276D01*
X169885750Y-85610754D01*
X169885754Y-85610750D01*
X170014276Y-85453132D01*
X170014280Y-85453126D01*
X170108439Y-85272867D01*
X170108442Y-85272859D01*
X170164389Y-85077333D01*
X170164390Y-85077328D01*
X170175000Y-84958008D01*
X170175000Y-84250000D01*
X168976034Y-84250000D01*
X168880746Y-84231046D01*
X168799964Y-84177070D01*
X168745988Y-84096288D01*
X168727723Y-84019503D01*
X168727572Y-84017499D01*
X168739395Y-83921066D01*
X168787221Y-83836498D01*
X168863769Y-83776669D01*
X168957386Y-83750688D01*
X168975885Y-83750000D01*
X170174999Y-83750000D01*
X170175000Y-83749998D01*
X170175000Y-83228928D01*
X170193954Y-83133640D01*
X170247930Y-83052858D01*
X170328712Y-82998882D01*
X170424000Y-82979928D01*
X170519288Y-82998882D01*
G37*
G04 #@! TD.AperFunction*
G04 #@! TA.AperFunction,Conductor*
G36*
X139139859Y-74369454D02*
G01*
X139220641Y-74423430D01*
X141370584Y-76573374D01*
X141377440Y-76580811D01*
X141411663Y-76621100D01*
X141411665Y-76621102D01*
X141476119Y-76670097D01*
X141476119Y-76670098D01*
X141539246Y-76720842D01*
X141539249Y-76720843D01*
X141539251Y-76720845D01*
X141548967Y-76727056D01*
X141558934Y-76733053D01*
X141558935Y-76733053D01*
X141558936Y-76733054D01*
X141632439Y-76767060D01*
X141704979Y-76803036D01*
X141704986Y-76803037D01*
X141715897Y-76807046D01*
X141726827Y-76810729D01*
X141726833Y-76810732D01*
X141805926Y-76828141D01*
X141884505Y-76847684D01*
X141884510Y-76847684D01*
X141895953Y-76849243D01*
X141907501Y-76850499D01*
X141907503Y-76850500D01*
X141988468Y-76850500D01*
X141990548Y-76850556D01*
X142069432Y-76852693D01*
X142069440Y-76852691D01*
X142082890Y-76851597D01*
X142082967Y-76852550D01*
X142104534Y-76850500D01*
X172544571Y-76850500D01*
X172639859Y-76869454D01*
X172720641Y-76923430D01*
X176370593Y-80573382D01*
X176377445Y-80580816D01*
X176411663Y-80621100D01*
X176411665Y-80621102D01*
X176476117Y-80670097D01*
X176479785Y-80673045D01*
X176539246Y-80720841D01*
X176539252Y-80720844D01*
X176549004Y-80727077D01*
X176558939Y-80733056D01*
X176632452Y-80767066D01*
X176704979Y-80803036D01*
X176704984Y-80803037D01*
X176715893Y-80807045D01*
X176726827Y-80810729D01*
X176726833Y-80810732D01*
X176805926Y-80828141D01*
X176884505Y-80847684D01*
X176884510Y-80847684D01*
X176895953Y-80849243D01*
X176907501Y-80850499D01*
X176907503Y-80850500D01*
X176988468Y-80850500D01*
X176990548Y-80850556D01*
X177069432Y-80852693D01*
X177069440Y-80852691D01*
X177082890Y-80851597D01*
X177082967Y-80852550D01*
X177104534Y-80850500D01*
X179261406Y-80850500D01*
X179356694Y-80869454D01*
X179437476Y-80923430D01*
X179455475Y-80943493D01*
X179545060Y-81054940D01*
X179545065Y-81054944D01*
X179545066Y-81054945D01*
X179546295Y-81055933D01*
X179547539Y-81057418D01*
X179554606Y-81064485D01*
X179553982Y-81065108D01*
X179608686Y-81130408D01*
X179637827Y-81223090D01*
X179629282Y-81319868D01*
X179584352Y-81406010D01*
X179546295Y-81444067D01*
X179545066Y-81445054D01*
X179545060Y-81445060D01*
X179463225Y-81546867D01*
X179455479Y-81556503D01*
X179381006Y-81618896D01*
X179288326Y-81648041D01*
X179261406Y-81649500D01*
X175955428Y-81649500D01*
X175860140Y-81630546D01*
X175779358Y-81576570D01*
X172629412Y-78426622D01*
X172622555Y-78419184D01*
X172588334Y-78378897D01*
X172523892Y-78329910D01*
X172460756Y-78279159D01*
X172451015Y-78272933D01*
X172441063Y-78266945D01*
X172367561Y-78232939D01*
X172295019Y-78196963D01*
X172284102Y-78192952D01*
X172273172Y-78189269D01*
X172194073Y-78171858D01*
X172115491Y-78152314D01*
X172104087Y-78150760D01*
X172092500Y-78149500D01*
X172092497Y-78149500D01*
X172092493Y-78149500D01*
X172011532Y-78149500D01*
X171971031Y-78148403D01*
X171930568Y-78147307D01*
X171930567Y-78147307D01*
X171930566Y-78147307D01*
X171917110Y-78148403D01*
X171917032Y-78147449D01*
X171895466Y-78149500D01*
X138026800Y-78149500D01*
X137931512Y-78130546D01*
X137850730Y-78076570D01*
X137796754Y-77995788D01*
X137777800Y-77900500D01*
X137796754Y-77805212D01*
X137806095Y-77785216D01*
X137833440Y-77732863D01*
X137833442Y-77732859D01*
X137889389Y-77537333D01*
X137889390Y-77537328D01*
X137900000Y-77418008D01*
X137900000Y-76710001D01*
X137899999Y-76710000D01*
X136701034Y-76710000D01*
X136605746Y-76691046D01*
X136524964Y-76637070D01*
X136470988Y-76556288D01*
X136452723Y-76479503D01*
X136452572Y-76477499D01*
X136464395Y-76381066D01*
X136512221Y-76296498D01*
X136588769Y-76236669D01*
X136682386Y-76210688D01*
X136700885Y-76210000D01*
X137899999Y-76210000D01*
X137900000Y-76209999D01*
X137900000Y-75501992D01*
X137889390Y-75382671D01*
X137889389Y-75382666D01*
X137833442Y-75187140D01*
X137833439Y-75187132D01*
X137739280Y-75006873D01*
X137739276Y-75006867D01*
X137610754Y-74849249D01*
X137610749Y-74849244D01*
X137541132Y-74792478D01*
X137479260Y-74717571D01*
X137450764Y-74624689D01*
X137459982Y-74527972D01*
X137505509Y-74442145D01*
X137580416Y-74380273D01*
X137673298Y-74351777D01*
X137698487Y-74350500D01*
X139044571Y-74350500D01*
X139139859Y-74369454D01*
G37*
G04 #@! TD.AperFunction*
G04 #@! TA.AperFunction,Conductor*
G36*
X196345788Y-49519454D02*
G01*
X196426570Y-49573430D01*
X196480546Y-49654212D01*
X196499500Y-49749500D01*
X196499500Y-147250500D01*
X196480546Y-147345788D01*
X196426570Y-147426570D01*
X196345788Y-147480546D01*
X196250500Y-147499500D01*
X98749500Y-147499500D01*
X98654212Y-147480546D01*
X98573430Y-147426570D01*
X98519454Y-147345788D01*
X98500500Y-147250500D01*
X98500500Y-143643681D01*
X100399500Y-143643681D01*
X100438627Y-143928351D01*
X100516155Y-144205057D01*
X100630639Y-144468626D01*
X100779944Y-144714146D01*
X100779945Y-144714147D01*
X100961292Y-144937053D01*
X101171302Y-145133189D01*
X101406064Y-145298901D01*
X101661203Y-145431104D01*
X101931968Y-145527334D01*
X102213314Y-145585798D01*
X102213321Y-145585798D01*
X102213324Y-145585799D01*
X102428243Y-145600500D01*
X102428248Y-145600500D01*
X102571757Y-145600500D01*
X102786675Y-145585799D01*
X102786677Y-145585798D01*
X102786686Y-145585798D01*
X103068032Y-145527334D01*
X103338797Y-145431104D01*
X103593936Y-145298901D01*
X103828698Y-145133189D01*
X104038708Y-144937053D01*
X104220055Y-144714147D01*
X104369361Y-144468625D01*
X104483844Y-144205058D01*
X104561371Y-143928358D01*
X104600500Y-143643678D01*
X104600500Y-143356322D01*
X104564165Y-143091968D01*
X104561372Y-143071648D01*
X104561371Y-143071646D01*
X104561371Y-143071642D01*
X104483844Y-142794942D01*
X104459401Y-142738669D01*
X115295700Y-142738669D01*
X115326044Y-143091965D01*
X115396463Y-143439493D01*
X115396463Y-143439494D01*
X115506034Y-143776719D01*
X115506038Y-143776729D01*
X115653330Y-144099255D01*
X115653334Y-144099261D01*
X115653336Y-144099266D01*
X115717130Y-144205057D01*
X115836440Y-144402911D01*
X115836442Y-144402914D01*
X115836443Y-144402915D01*
X116052971Y-144683713D01*
X116179964Y-144814385D01*
X116299177Y-144937053D01*
X116300095Y-144937997D01*
X116574595Y-145162455D01*
X116872891Y-145354159D01*
X117191096Y-145510609D01*
X117525061Y-145629768D01*
X117870432Y-145710080D01*
X118134638Y-145740394D01*
X118222706Y-145750500D01*
X118222707Y-145750500D01*
X120488578Y-145750500D01*
X120665530Y-145740381D01*
X120754008Y-145735322D01*
X121103400Y-145674857D01*
X121443623Y-145574959D01*
X121770241Y-145436929D01*
X122078995Y-145262568D01*
X122365861Y-145054147D01*
X122627099Y-144814385D01*
X122859304Y-144546407D01*
X123059448Y-144253706D01*
X123224921Y-143940098D01*
X123353568Y-143609672D01*
X123443710Y-143266736D01*
X123494173Y-142915759D01*
X123504299Y-142561317D01*
X123473955Y-142208032D01*
X123403537Y-141860508D01*
X123293964Y-141523277D01*
X123244152Y-141414203D01*
X123146669Y-141200744D01*
X123146667Y-141200740D01*
X123146664Y-141200734D01*
X122963557Y-140897085D01*
X122747029Y-140616287D01*
X122499905Y-140362003D01*
X122225405Y-140137545D01*
X121927109Y-139945841D01*
X121927110Y-139945841D01*
X121927104Y-139945838D01*
X121879654Y-139922508D01*
X121802506Y-139863455D01*
X121753829Y-139779374D01*
X121741034Y-139683065D01*
X121766069Y-139589191D01*
X121825122Y-139512043D01*
X121867075Y-139482244D01*
X122078995Y-139362568D01*
X122365861Y-139154147D01*
X122627099Y-138914385D01*
X122859304Y-138646407D01*
X123059448Y-138353706D01*
X123224921Y-138040098D01*
X123353568Y-137709672D01*
X123443710Y-137366736D01*
X123494173Y-137015759D01*
X123504299Y-136661317D01*
X123473955Y-136308032D01*
X123403537Y-135960508D01*
X123293964Y-135623277D01*
X123293961Y-135623270D01*
X123146669Y-135300744D01*
X123146667Y-135300740D01*
X123146664Y-135300734D01*
X122963557Y-134997085D01*
X122747029Y-134716287D01*
X122514259Y-134476773D01*
X122499910Y-134462008D01*
X122499909Y-134462007D01*
X122499908Y-134462006D01*
X122499905Y-134462003D01*
X122225405Y-134237545D01*
X122069627Y-134137432D01*
X121927112Y-134045842D01*
X121819395Y-133992882D01*
X121784993Y-133975967D01*
X121707846Y-133916916D01*
X121659168Y-133832836D01*
X121646372Y-133736527D01*
X121671405Y-133642653D01*
X121730458Y-133565504D01*
X121772417Y-133535700D01*
X121793082Y-133524030D01*
X122078995Y-133362568D01*
X122365861Y-133154147D01*
X122627099Y-132914385D01*
X122859304Y-132646407D01*
X123059448Y-132353706D01*
X123224921Y-132040098D01*
X123353568Y-131709672D01*
X123443710Y-131366736D01*
X123494173Y-131015759D01*
X123494623Y-131000000D01*
X123504299Y-130661330D01*
X123504298Y-130661326D01*
X123504299Y-130661317D01*
X123473955Y-130308032D01*
X123403537Y-129960508D01*
X123293964Y-129623277D01*
X123275327Y-129582467D01*
X123146669Y-129300744D01*
X123146667Y-129300740D01*
X123146664Y-129300734D01*
X122990621Y-129041966D01*
X122963559Y-128997088D01*
X122881667Y-128890889D01*
X122747029Y-128716287D01*
X122499905Y-128462003D01*
X122225405Y-128237545D01*
X122059546Y-128130953D01*
X121927111Y-128045842D01*
X121927106Y-128045839D01*
X121608911Y-127889394D01*
X121608906Y-127889392D01*
X121608904Y-127889391D01*
X121608896Y-127889388D01*
X121274940Y-127770232D01*
X120929573Y-127689921D01*
X120929564Y-127689919D01*
X120577294Y-127649500D01*
X120577293Y-127649500D01*
X118311424Y-127649500D01*
X118311422Y-127649500D01*
X118045992Y-127664677D01*
X117696599Y-127725143D01*
X117356379Y-127825040D01*
X117356373Y-127825042D01*
X117029763Y-127963068D01*
X117029758Y-127963071D01*
X116721006Y-128137431D01*
X116434143Y-128345849D01*
X116434139Y-128345852D01*
X116172904Y-128585612D01*
X115940700Y-128853586D01*
X115740557Y-129146286D01*
X115740553Y-129146292D01*
X115575082Y-129459894D01*
X115446434Y-129790320D01*
X115446431Y-129790328D01*
X115446432Y-129790328D01*
X115359777Y-130120000D01*
X115356289Y-130133269D01*
X115305827Y-130484233D01*
X115305826Y-130484239D01*
X115295700Y-130838669D01*
X115326044Y-131191965D01*
X115396463Y-131539493D01*
X115396463Y-131539494D01*
X115506034Y-131876719D01*
X115506038Y-131876729D01*
X115653330Y-132199255D01*
X115653334Y-132199261D01*
X115653336Y-132199266D01*
X115689163Y-132258678D01*
X115836440Y-132502911D01*
X115986548Y-132697575D01*
X116052971Y-132783713D01*
X116300095Y-133037997D01*
X116574595Y-133262455D01*
X116715062Y-133352728D01*
X116872887Y-133454157D01*
X116872890Y-133454158D01*
X116872891Y-133454159D01*
X117015007Y-133524032D01*
X117092153Y-133583082D01*
X117140831Y-133667163D01*
X117153627Y-133763471D01*
X117128594Y-133857346D01*
X117069542Y-133934495D01*
X117027583Y-133964298D01*
X116721008Y-134137429D01*
X116434143Y-134345849D01*
X116434139Y-134345852D01*
X116172904Y-134585612D01*
X115940700Y-134853586D01*
X115740557Y-135146286D01*
X115740553Y-135146292D01*
X115575082Y-135459894D01*
X115446434Y-135790320D01*
X115446431Y-135790328D01*
X115446432Y-135790328D01*
X115363954Y-136104109D01*
X115356289Y-136133269D01*
X115305827Y-136484233D01*
X115305826Y-136484239D01*
X115295700Y-136838669D01*
X115326044Y-137191965D01*
X115396463Y-137539493D01*
X115396463Y-137539494D01*
X115506034Y-137876719D01*
X115506038Y-137876729D01*
X115653330Y-138199255D01*
X115653334Y-138199261D01*
X115653336Y-138199266D01*
X115746049Y-138353014D01*
X115836440Y-138502911D01*
X115836442Y-138502914D01*
X115836443Y-138502915D01*
X116052971Y-138783713D01*
X116300095Y-139037997D01*
X116574595Y-139262455D01*
X116872888Y-139454157D01*
X116872893Y-139454160D01*
X116920343Y-139477490D01*
X116997492Y-139536543D01*
X117046169Y-139620623D01*
X117058965Y-139716932D01*
X117033931Y-139810806D01*
X116974878Y-139887955D01*
X116932922Y-139917757D01*
X116721005Y-140037432D01*
X116721003Y-140037433D01*
X116721002Y-140037434D01*
X116434143Y-140245849D01*
X116434139Y-140245852D01*
X116172904Y-140485612D01*
X115940700Y-140753586D01*
X115740557Y-141046286D01*
X115740553Y-141046292D01*
X115575082Y-141359894D01*
X115446434Y-141690320D01*
X115356289Y-142033269D01*
X115305827Y-142384233D01*
X115305826Y-142384239D01*
X115295700Y-142738669D01*
X104459401Y-142738669D01*
X104369361Y-142531375D01*
X104220055Y-142285853D01*
X104038708Y-142062947D01*
X103828698Y-141866811D01*
X103593936Y-141701099D01*
X103573134Y-141690320D01*
X103338802Y-141568898D01*
X103338800Y-141568897D01*
X103284222Y-141549500D01*
X103068032Y-141472666D01*
X102939430Y-141445942D01*
X102786692Y-141414203D01*
X102786675Y-141414200D01*
X102571757Y-141399500D01*
X102571752Y-141399500D01*
X102428248Y-141399500D01*
X102428243Y-141399500D01*
X102213324Y-141414200D01*
X102213307Y-141414203D01*
X101931968Y-141472666D01*
X101661199Y-141568897D01*
X101661197Y-141568898D01*
X101406065Y-141701098D01*
X101171304Y-141866809D01*
X101171303Y-141866810D01*
X100961290Y-142062949D01*
X100779944Y-142285853D01*
X100630639Y-142531373D01*
X100516155Y-142794942D01*
X100438627Y-143071648D01*
X100399500Y-143356318D01*
X100399500Y-143643681D01*
X98500500Y-143643681D01*
X98500500Y-110904538D01*
X122644799Y-110904538D01*
X122655729Y-110984762D01*
X122664484Y-111065275D01*
X122666969Y-111076562D01*
X122669774Y-111087841D01*
X122697700Y-111163856D01*
X122723559Y-111240600D01*
X122728417Y-111251102D01*
X122733566Y-111261482D01*
X122733567Y-111261483D01*
X122733568Y-111261486D01*
X122777184Y-111329723D01*
X122818930Y-111399106D01*
X122818931Y-111399107D01*
X122818933Y-111399110D01*
X122825935Y-111408321D01*
X122833201Y-111417361D01*
X122877052Y-111461211D01*
X122890460Y-111474619D01*
X122946151Y-111533411D01*
X122946154Y-111533413D01*
X122946155Y-111533414D01*
X122956441Y-111542151D01*
X122955821Y-111542880D01*
X122972520Y-111556679D01*
X130739223Y-119323382D01*
X130746080Y-119330821D01*
X130780295Y-119371102D01*
X130844747Y-119420097D01*
X130858400Y-119431071D01*
X130907876Y-119470841D01*
X130907882Y-119470844D01*
X130917634Y-119477077D01*
X130927569Y-119483056D01*
X130999707Y-119516430D01*
X131001082Y-119517066D01*
X131073609Y-119553036D01*
X131073614Y-119553037D01*
X131084523Y-119557045D01*
X131095457Y-119560729D01*
X131095463Y-119560732D01*
X131174556Y-119578141D01*
X131253135Y-119597684D01*
X131253140Y-119597684D01*
X131264583Y-119599243D01*
X131276131Y-119600499D01*
X131276133Y-119600500D01*
X131357098Y-119600500D01*
X131359178Y-119600556D01*
X131438062Y-119602693D01*
X131438070Y-119602691D01*
X131451520Y-119601597D01*
X131451597Y-119602550D01*
X131473164Y-119600500D01*
X162960368Y-119600500D01*
X162970475Y-119600911D01*
X162992354Y-119602692D01*
X163023167Y-119605201D01*
X163103392Y-119594270D01*
X163183910Y-119585514D01*
X163195217Y-119583024D01*
X163206461Y-119580227D01*
X163206468Y-119580227D01*
X163282486Y-119552299D01*
X163359221Y-119526444D01*
X163359230Y-119526438D01*
X163369754Y-119521570D01*
X163380108Y-119516434D01*
X163380116Y-119516432D01*
X163448353Y-119472815D01*
X163517736Y-119431070D01*
X163517742Y-119431063D01*
X163526981Y-119424041D01*
X163535987Y-119416802D01*
X163593249Y-119359539D01*
X163652041Y-119303849D01*
X163652041Y-119303848D01*
X163652046Y-119303844D01*
X163660786Y-119293554D01*
X163661519Y-119294176D01*
X163675314Y-119277472D01*
X166573372Y-116379414D01*
X166580794Y-116372572D01*
X166621100Y-116338337D01*
X166670104Y-116273872D01*
X166720842Y-116210753D01*
X166720842Y-116210751D01*
X166727063Y-116201018D01*
X166733050Y-116191069D01*
X166733054Y-116191064D01*
X166767055Y-116117570D01*
X166803037Y-116045021D01*
X166803038Y-116045016D01*
X166807037Y-116034129D01*
X166810732Y-116023166D01*
X166810879Y-116022501D01*
X166828139Y-115944083D01*
X166828232Y-115943712D01*
X166845633Y-115873740D01*
X166847684Y-115865494D01*
X166847684Y-115865490D01*
X166849244Y-115854041D01*
X166850500Y-115842495D01*
X166850500Y-115761531D01*
X166851993Y-115706401D01*
X166852693Y-115680568D01*
X166852691Y-115680560D01*
X166851597Y-115667110D01*
X166852555Y-115667031D01*
X166850499Y-115645475D01*
X166850499Y-108039624D01*
X166850910Y-108029515D01*
X166855201Y-107976833D01*
X166844270Y-107896607D01*
X166835514Y-107816090D01*
X166835513Y-107816087D01*
X166833027Y-107804793D01*
X166830227Y-107793538D01*
X166830227Y-107793532D01*
X166802299Y-107717513D01*
X166776444Y-107640779D01*
X166776438Y-107640770D01*
X166771571Y-107630248D01*
X166766433Y-107619888D01*
X166766432Y-107619884D01*
X166766429Y-107619880D01*
X166766427Y-107619875D01*
X166722822Y-107551658D01*
X166681067Y-107482259D01*
X166674116Y-107473115D01*
X166666802Y-107464017D01*
X166666799Y-107464011D01*
X166609556Y-107406768D01*
X166553849Y-107347959D01*
X166553846Y-107347957D01*
X166543564Y-107339224D01*
X166544182Y-107338496D01*
X166527479Y-107324691D01*
X165364412Y-106161622D01*
X165357555Y-106154184D01*
X165323334Y-106113897D01*
X165258892Y-106064910D01*
X165195756Y-106014159D01*
X165186015Y-106007933D01*
X165176063Y-106001945D01*
X165102561Y-105967939D01*
X165030019Y-105931963D01*
X165019102Y-105927952D01*
X165008172Y-105924269D01*
X164929073Y-105906858D01*
X164850491Y-105887314D01*
X164839087Y-105885760D01*
X164827500Y-105884500D01*
X164827497Y-105884500D01*
X164827493Y-105884500D01*
X164746532Y-105884500D01*
X164706031Y-105883403D01*
X164665568Y-105882307D01*
X164665567Y-105882307D01*
X164665566Y-105882307D01*
X164652110Y-105883403D01*
X164652032Y-105882449D01*
X164630466Y-105884500D01*
X161365769Y-105884500D01*
X161270481Y-105865546D01*
X161189699Y-105811570D01*
X161182605Y-105804177D01*
X161019744Y-105627262D01*
X161019738Y-105627257D01*
X160823514Y-105474529D01*
X160823510Y-105474526D01*
X160823509Y-105474526D01*
X160707766Y-105411889D01*
X160604811Y-105356172D01*
X160369621Y-105275430D01*
X160369610Y-105275428D01*
X160124335Y-105234500D01*
X159875665Y-105234500D01*
X159630389Y-105275428D01*
X159630378Y-105275430D01*
X159395188Y-105356172D01*
X159176485Y-105474529D01*
X158980261Y-105627257D01*
X158980248Y-105627269D01*
X158811836Y-105810214D01*
X158811830Y-105810221D01*
X158675828Y-106018391D01*
X158675825Y-106018396D01*
X158575936Y-106246121D01*
X158575935Y-106246125D01*
X158514894Y-106487168D01*
X158514892Y-106487176D01*
X158494357Y-106735000D01*
X158514892Y-106982823D01*
X158514894Y-106982831D01*
X158552416Y-107131000D01*
X158575937Y-107223881D01*
X158592985Y-107262747D01*
X158613904Y-107357622D01*
X158596923Y-107453281D01*
X158544627Y-107535161D01*
X158522312Y-107555744D01*
X158389255Y-107664239D01*
X158389245Y-107664249D01*
X158260723Y-107821867D01*
X158260719Y-107821873D01*
X158166560Y-108002132D01*
X158166557Y-108002140D01*
X158110610Y-108197666D01*
X158110609Y-108197671D01*
X158100000Y-108316992D01*
X158100000Y-109024999D01*
X158100001Y-109025000D01*
X159298966Y-109025000D01*
X159394254Y-109043954D01*
X159475036Y-109097930D01*
X159529012Y-109178712D01*
X159547276Y-109255496D01*
X159547403Y-109257179D01*
X159547427Y-109257501D01*
X159535605Y-109353934D01*
X159487779Y-109438502D01*
X159411231Y-109498331D01*
X159317614Y-109524312D01*
X159299115Y-109525000D01*
X158100000Y-109525000D01*
X158100000Y-110233008D01*
X158110609Y-110352328D01*
X158110610Y-110352333D01*
X158166557Y-110547859D01*
X158166560Y-110547867D01*
X158260719Y-110728126D01*
X158260723Y-110728132D01*
X158389245Y-110885750D01*
X158389249Y-110885754D01*
X158546867Y-111014276D01*
X158546873Y-111014280D01*
X158727132Y-111108439D01*
X158727140Y-111108442D01*
X158922666Y-111164389D01*
X158922671Y-111164390D01*
X159041992Y-111175000D01*
X159749999Y-111175000D01*
X159750000Y-111174999D01*
X159750000Y-109974000D01*
X159768954Y-109878712D01*
X159822930Y-109797930D01*
X159903712Y-109743954D01*
X159999000Y-109725000D01*
X160001000Y-109725000D01*
X160096288Y-109743954D01*
X160177070Y-109797930D01*
X160231046Y-109878712D01*
X160250000Y-109974000D01*
X160250000Y-111174999D01*
X160250001Y-111175000D01*
X160958008Y-111175000D01*
X161077328Y-111164390D01*
X161077333Y-111164389D01*
X161272859Y-111108442D01*
X161272867Y-111108439D01*
X161453126Y-111014280D01*
X161453132Y-111014276D01*
X161610750Y-110885754D01*
X161610754Y-110885750D01*
X161739276Y-110728132D01*
X161739280Y-110728126D01*
X161833439Y-110547867D01*
X161833442Y-110547859D01*
X161889389Y-110352333D01*
X161889390Y-110352328D01*
X161900000Y-110233008D01*
X161900000Y-109525000D01*
X160701034Y-109525000D01*
X160605746Y-109506046D01*
X160524964Y-109452070D01*
X160470988Y-109371288D01*
X160452723Y-109294503D01*
X160452572Y-109292499D01*
X160464395Y-109196066D01*
X160512221Y-109111498D01*
X160588769Y-109051669D01*
X160682386Y-109025688D01*
X160700885Y-109025000D01*
X161899999Y-109025000D01*
X161900000Y-109024999D01*
X161900000Y-108316992D01*
X161889390Y-108197671D01*
X161889389Y-108197666D01*
X161833442Y-108002140D01*
X161833440Y-108002136D01*
X161806095Y-107949784D01*
X161778778Y-107856549D01*
X161789220Y-107759957D01*
X161835831Y-107674713D01*
X161911516Y-107613795D01*
X162004751Y-107586478D01*
X162026800Y-107585500D01*
X164279572Y-107585500D01*
X164374860Y-107604454D01*
X164455641Y-107658430D01*
X165076569Y-108279357D01*
X165130546Y-108360139D01*
X165149500Y-108455427D01*
X165149500Y-115294571D01*
X165130546Y-115389859D01*
X165076570Y-115470641D01*
X162720641Y-117826570D01*
X162639859Y-117880546D01*
X162544571Y-117899500D01*
X161932244Y-117899500D01*
X161836956Y-117880546D01*
X161756174Y-117826570D01*
X161702198Y-117745788D01*
X161683244Y-117650500D01*
X161702198Y-117555212D01*
X161732794Y-117503983D01*
X161732328Y-117503676D01*
X161739253Y-117493167D01*
X161739270Y-117493140D01*
X161739279Y-117493128D01*
X161739280Y-117493126D01*
X161833439Y-117312867D01*
X161833442Y-117312859D01*
X161889389Y-117117333D01*
X161889390Y-117117328D01*
X161900000Y-116998008D01*
X161900000Y-116290001D01*
X161899999Y-116290000D01*
X160701034Y-116290000D01*
X160605746Y-116271046D01*
X160524964Y-116217070D01*
X160470988Y-116136288D01*
X160452723Y-116059503D01*
X160452572Y-116057499D01*
X160464395Y-115961066D01*
X160512221Y-115876498D01*
X160588769Y-115816669D01*
X160682386Y-115790688D01*
X160700885Y-115790000D01*
X161899999Y-115790000D01*
X161900000Y-115789999D01*
X161900000Y-115081992D01*
X161889390Y-114962671D01*
X161889389Y-114962666D01*
X161833442Y-114767140D01*
X161833439Y-114767132D01*
X161739280Y-114586873D01*
X161739276Y-114586867D01*
X161610754Y-114429249D01*
X161610750Y-114429245D01*
X161477687Y-114320745D01*
X161415816Y-114245838D01*
X161387319Y-114152956D01*
X161396537Y-114056240D01*
X161407008Y-114027760D01*
X161424063Y-113988881D01*
X161485108Y-113747821D01*
X161505643Y-113500000D01*
X161485108Y-113252179D01*
X161424063Y-113011119D01*
X161324173Y-112783393D01*
X161236697Y-112649500D01*
X161188169Y-112575221D01*
X161188163Y-112575214D01*
X161019751Y-112392269D01*
X161019745Y-112392263D01*
X161019744Y-112392262D01*
X161019738Y-112392257D01*
X160823514Y-112239529D01*
X160823510Y-112239526D01*
X160823509Y-112239526D01*
X160746502Y-112197852D01*
X160604811Y-112121172D01*
X160369621Y-112040430D01*
X160369610Y-112040428D01*
X160124335Y-111999500D01*
X159875665Y-111999500D01*
X159630389Y-112040428D01*
X159630378Y-112040430D01*
X159395188Y-112121172D01*
X159176485Y-112239529D01*
X158980261Y-112392257D01*
X158980255Y-112392263D01*
X158971101Y-112402206D01*
X158817422Y-112569145D01*
X158738945Y-112626412D01*
X158644521Y-112649287D01*
X158634231Y-112649500D01*
X127705429Y-112649500D01*
X127610141Y-112630546D01*
X127529359Y-112576570D01*
X125923429Y-110970640D01*
X125869453Y-110889858D01*
X125850499Y-110794570D01*
X125850499Y-109255501D01*
X125850499Y-107705421D01*
X125869453Y-107610138D01*
X125923422Y-107529365D01*
X126174934Y-107277853D01*
X126255712Y-107223880D01*
X126351000Y-107204926D01*
X126446289Y-107223880D01*
X126527070Y-107277857D01*
X126581046Y-107358638D01*
X126600000Y-107453926D01*
X126600000Y-107749999D01*
X126600001Y-107750000D01*
X127798966Y-107750000D01*
X127894254Y-107768954D01*
X127975036Y-107822930D01*
X128029012Y-107903712D01*
X128047276Y-107980496D01*
X128047403Y-107982179D01*
X128047427Y-107982501D01*
X128035605Y-108078934D01*
X127987779Y-108163502D01*
X127911231Y-108223331D01*
X127817614Y-108249312D01*
X127799115Y-108250000D01*
X126600001Y-108250000D01*
X126600000Y-108250001D01*
X126600000Y-108958008D01*
X126610609Y-109077328D01*
X126610610Y-109077333D01*
X126666557Y-109272859D01*
X126666560Y-109272867D01*
X126760719Y-109453126D01*
X126760723Y-109453132D01*
X126889245Y-109610750D01*
X126889249Y-109610754D01*
X127046867Y-109739276D01*
X127046873Y-109739280D01*
X127227132Y-109833439D01*
X127227140Y-109833442D01*
X127422666Y-109889389D01*
X127422671Y-109889390D01*
X127541992Y-109900000D01*
X128249999Y-109900000D01*
X128249999Y-109899999D01*
X128250000Y-108699000D01*
X128268954Y-108603712D01*
X128322930Y-108522930D01*
X128403712Y-108468954D01*
X128499000Y-108450000D01*
X128501000Y-108450000D01*
X128596288Y-108468954D01*
X128677070Y-108522930D01*
X128731046Y-108603712D01*
X128750000Y-108699000D01*
X128750000Y-109899999D01*
X128750001Y-109900000D01*
X129458008Y-109900000D01*
X129577328Y-109889390D01*
X129577333Y-109889389D01*
X129772859Y-109833442D01*
X129772867Y-109833439D01*
X129953126Y-109739280D01*
X129953132Y-109739276D01*
X130110750Y-109610754D01*
X130110753Y-109610751D01*
X130219783Y-109477038D01*
X130294690Y-109415166D01*
X130387572Y-109386669D01*
X130484288Y-109395886D01*
X130493567Y-109398869D01*
X130670386Y-109459571D01*
X130915665Y-109500500D01*
X131164335Y-109500500D01*
X131409614Y-109459571D01*
X131409618Y-109459569D01*
X131409621Y-109459569D01*
X131538961Y-109415166D01*
X131644810Y-109378828D01*
X131863509Y-109260474D01*
X132059744Y-109107738D01*
X132228164Y-108924785D01*
X132364173Y-108716607D01*
X132464063Y-108488881D01*
X132525108Y-108247821D01*
X132545643Y-108000000D01*
X132544027Y-107980501D01*
X132531999Y-107835342D01*
X132543019Y-107738814D01*
X132590140Y-107653851D01*
X132604081Y-107638707D01*
X132634933Y-107607856D01*
X132715716Y-107553880D01*
X132811004Y-107534928D01*
X132906292Y-107553884D01*
X132987072Y-107607861D01*
X133041048Y-107688644D01*
X133051575Y-107741574D01*
X133060001Y-107750000D01*
X134258966Y-107750000D01*
X134354254Y-107768954D01*
X134435036Y-107822930D01*
X134489012Y-107903712D01*
X134507276Y-107980496D01*
X134507403Y-107982179D01*
X134507427Y-107982501D01*
X134495605Y-108078934D01*
X134447779Y-108163502D01*
X134371231Y-108223331D01*
X134277614Y-108249312D01*
X134259115Y-108250000D01*
X133060000Y-108250000D01*
X133060000Y-108958008D01*
X133070609Y-109077328D01*
X133070610Y-109077333D01*
X133126557Y-109272859D01*
X133126560Y-109272867D01*
X133220719Y-109453126D01*
X133220723Y-109453132D01*
X133349245Y-109610750D01*
X133349249Y-109610754D01*
X133506867Y-109739276D01*
X133506873Y-109739280D01*
X133687132Y-109833439D01*
X133687140Y-109833442D01*
X133882666Y-109889389D01*
X133882671Y-109889390D01*
X134001992Y-109900000D01*
X134709999Y-109900000D01*
X134710000Y-109899999D01*
X134710000Y-108699000D01*
X134728954Y-108603712D01*
X134782930Y-108522930D01*
X134863712Y-108468954D01*
X134959000Y-108450000D01*
X134961000Y-108450000D01*
X135056288Y-108468954D01*
X135137070Y-108522930D01*
X135191046Y-108603712D01*
X135210000Y-108699000D01*
X135210000Y-109899999D01*
X135210001Y-109900000D01*
X135918008Y-109900000D01*
X136037328Y-109889390D01*
X136037333Y-109889389D01*
X136232859Y-109833442D01*
X136232867Y-109833439D01*
X136413126Y-109739280D01*
X136413132Y-109739276D01*
X136570750Y-109610754D01*
X136570753Y-109610751D01*
X136679783Y-109477038D01*
X136754690Y-109415166D01*
X136847572Y-109386669D01*
X136944288Y-109395886D01*
X136953567Y-109398869D01*
X137130386Y-109459571D01*
X137375665Y-109500500D01*
X137624335Y-109500500D01*
X137869614Y-109459571D01*
X137869618Y-109459569D01*
X137869621Y-109459569D01*
X137998961Y-109415166D01*
X138104810Y-109378828D01*
X138323509Y-109260474D01*
X138519744Y-109107738D01*
X138688164Y-108924785D01*
X138824173Y-108716607D01*
X138924063Y-108488881D01*
X138985108Y-108247821D01*
X139005643Y-108000000D01*
X139004027Y-107980501D01*
X138991999Y-107835342D01*
X139003019Y-107738814D01*
X139050140Y-107653851D01*
X139064066Y-107638721D01*
X153279358Y-93423430D01*
X153360141Y-93369454D01*
X153455429Y-93350500D01*
X179261406Y-93350500D01*
X179356694Y-93369454D01*
X179437476Y-93423430D01*
X179455475Y-93443493D01*
X179545060Y-93554940D01*
X179546286Y-93555926D01*
X179547524Y-93557403D01*
X179554606Y-93564485D01*
X179553981Y-93565109D01*
X179608679Y-93630396D01*
X179637825Y-93723076D01*
X179629285Y-93819855D01*
X179584360Y-93905999D01*
X179546305Y-93944058D01*
X179545070Y-93945050D01*
X179545056Y-93945064D01*
X179429159Y-94089245D01*
X179429155Y-94089251D01*
X179346964Y-94254974D01*
X179346963Y-94254975D01*
X179302317Y-94434506D01*
X179302315Y-94434516D01*
X179299500Y-94476040D01*
X179299500Y-95523960D01*
X179302315Y-95565483D01*
X179302317Y-95565493D01*
X179346963Y-95745024D01*
X179346964Y-95745025D01*
X179429155Y-95910748D01*
X179429159Y-95910754D01*
X179553518Y-96065462D01*
X179551411Y-96067155D01*
X179593577Y-96130262D01*
X179612531Y-96225550D01*
X179593577Y-96320838D01*
X179583131Y-96342925D01*
X179571185Y-96365273D01*
X179513975Y-96553868D01*
X179494659Y-96750000D01*
X179513975Y-96946131D01*
X179571185Y-97134725D01*
X179571188Y-97134733D01*
X179664088Y-97308536D01*
X179664090Y-97308538D01*
X179789117Y-97460883D01*
X179898870Y-97550955D01*
X179941463Y-97585911D01*
X180115266Y-97678811D01*
X180115270Y-97678812D01*
X180115273Y-97678814D01*
X180303868Y-97736024D01*
X180500000Y-97755341D01*
X180696132Y-97736024D01*
X180884727Y-97678814D01*
X181058538Y-97585910D01*
X181210883Y-97460883D01*
X181335910Y-97308538D01*
X181428814Y-97134727D01*
X181486024Y-96946132D01*
X181505341Y-96750000D01*
X181486024Y-96553868D01*
X181480518Y-96535719D01*
X181470995Y-96439036D01*
X181499195Y-96346064D01*
X181560829Y-96270961D01*
X181646511Y-96225161D01*
X181743198Y-96215637D01*
X181829431Y-96240367D01*
X181854975Y-96253036D01*
X181854978Y-96253036D01*
X181854979Y-96253037D01*
X182034505Y-96297683D01*
X182034514Y-96297683D01*
X182034516Y-96297684D01*
X182076040Y-96300500D01*
X182076046Y-96300500D01*
X182923960Y-96300500D01*
X182965483Y-96297684D01*
X182965484Y-96297683D01*
X182965495Y-96297683D01*
X183145021Y-96253037D01*
X183145022Y-96253036D01*
X183145024Y-96253036D01*
X183145025Y-96253035D01*
X183170568Y-96240367D01*
X183310753Y-96170842D01*
X183454940Y-96054940D01*
X183570842Y-95910753D01*
X183653037Y-95745021D01*
X183697683Y-95565495D01*
X183700500Y-95523954D01*
X183700500Y-94476046D01*
X183697683Y-94434505D01*
X183653037Y-94254979D01*
X183653036Y-94254978D01*
X183653036Y-94254975D01*
X183653035Y-94254974D01*
X183570844Y-94089251D01*
X183570840Y-94089244D01*
X183454944Y-93945064D01*
X183454938Y-93945058D01*
X183453710Y-93944071D01*
X183452465Y-93942585D01*
X183445395Y-93935515D01*
X183446019Y-93934890D01*
X183391317Y-93869598D01*
X183362173Y-93776917D01*
X183370715Y-93680138D01*
X183415642Y-93593995D01*
X183453716Y-93555923D01*
X183454940Y-93554940D01*
X183570842Y-93410753D01*
X183570843Y-93410749D01*
X183576672Y-93403499D01*
X183651145Y-93341105D01*
X183743825Y-93311960D01*
X183770746Y-93310500D01*
X188952192Y-93310500D01*
X189047480Y-93329454D01*
X189128262Y-93383430D01*
X189135356Y-93390823D01*
X189264236Y-93530825D01*
X189267086Y-93533043D01*
X189267683Y-93533508D01*
X189269757Y-93535906D01*
X189271812Y-93537798D01*
X189271595Y-93538032D01*
X189331235Y-93606994D01*
X189361828Y-93699207D01*
X189354803Y-93796108D01*
X189311231Y-93882944D01*
X189267683Y-93926492D01*
X189264243Y-93929169D01*
X189264235Y-93929176D01*
X189101428Y-94106032D01*
X188969950Y-94307272D01*
X188969949Y-94307274D01*
X188873389Y-94527409D01*
X188814380Y-94760433D01*
X188794529Y-95000000D01*
X188814380Y-95239566D01*
X188873389Y-95472590D01*
X188969949Y-95692725D01*
X188969950Y-95692727D01*
X189039713Y-95799506D01*
X189101429Y-95893969D01*
X189264236Y-96070825D01*
X189453933Y-96218472D01*
X189665344Y-96332882D01*
X189892703Y-96410934D01*
X190129808Y-96450500D01*
X190370192Y-96450500D01*
X190607297Y-96410934D01*
X190834656Y-96332882D01*
X191046067Y-96218472D01*
X191235764Y-96070825D01*
X191398571Y-95893969D01*
X191530049Y-95692728D01*
X191626610Y-95472591D01*
X191685620Y-95239563D01*
X191705471Y-95000000D01*
X191685620Y-94760437D01*
X191626610Y-94527409D01*
X191604080Y-94476046D01*
X191530050Y-94307274D01*
X191530049Y-94307272D01*
X191495881Y-94254974D01*
X191398571Y-94106031D01*
X191235764Y-93929175D01*
X191232322Y-93926496D01*
X191230250Y-93924100D01*
X191228188Y-93922202D01*
X191228404Y-93921966D01*
X191168769Y-93853015D01*
X191138173Y-93760803D01*
X191145193Y-93663902D01*
X191188762Y-93577064D01*
X191232321Y-93533504D01*
X191235764Y-93530825D01*
X191398571Y-93353969D01*
X191530049Y-93152728D01*
X191626610Y-92932591D01*
X191685620Y-92699563D01*
X191705471Y-92460000D01*
X191685620Y-92220437D01*
X191626610Y-91987409D01*
X191530049Y-91767272D01*
X191398571Y-91566031D01*
X191235764Y-91389175D01*
X191232322Y-91386496D01*
X191230250Y-91384100D01*
X191228188Y-91382202D01*
X191228404Y-91381966D01*
X191168769Y-91313015D01*
X191138173Y-91220803D01*
X191145193Y-91123902D01*
X191188762Y-91037064D01*
X191232321Y-90993504D01*
X191235764Y-90990825D01*
X191398571Y-90813969D01*
X191530049Y-90612728D01*
X191626610Y-90392591D01*
X191685620Y-90159563D01*
X191705471Y-89920000D01*
X191685620Y-89680437D01*
X191626610Y-89447409D01*
X191570254Y-89318930D01*
X191530050Y-89227274D01*
X191530049Y-89227272D01*
X191527621Y-89223556D01*
X191398571Y-89026031D01*
X191235764Y-88849175D01*
X191232322Y-88846496D01*
X191230250Y-88844100D01*
X191228188Y-88842202D01*
X191228404Y-88841966D01*
X191168769Y-88773015D01*
X191138173Y-88680803D01*
X191145193Y-88583902D01*
X191188762Y-88497064D01*
X191232321Y-88453504D01*
X191235764Y-88450825D01*
X191398571Y-88273969D01*
X191530049Y-88072728D01*
X191626610Y-87852591D01*
X191685620Y-87619563D01*
X191705471Y-87380000D01*
X191685620Y-87140437D01*
X191626610Y-86907409D01*
X191530049Y-86687272D01*
X191398571Y-86486031D01*
X191235764Y-86309175D01*
X191232322Y-86306496D01*
X191230250Y-86304100D01*
X191228188Y-86302202D01*
X191228404Y-86301966D01*
X191168769Y-86233015D01*
X191138173Y-86140803D01*
X191145193Y-86043902D01*
X191188762Y-85957064D01*
X191232321Y-85913504D01*
X191235764Y-85910825D01*
X191398571Y-85733969D01*
X191530049Y-85532728D01*
X191626610Y-85312591D01*
X191685620Y-85079563D01*
X191705471Y-84840000D01*
X191685620Y-84600437D01*
X191626610Y-84367409D01*
X191577292Y-84254975D01*
X191530050Y-84147274D01*
X191530049Y-84147272D01*
X191470746Y-84056503D01*
X191398571Y-83946031D01*
X191235764Y-83769175D01*
X191232322Y-83766496D01*
X191230250Y-83764100D01*
X191228188Y-83762202D01*
X191228404Y-83761966D01*
X191168769Y-83693015D01*
X191138173Y-83600803D01*
X191145193Y-83503902D01*
X191188762Y-83417064D01*
X191232321Y-83373504D01*
X191235764Y-83370825D01*
X191398571Y-83193969D01*
X191530049Y-82992728D01*
X191626610Y-82772591D01*
X191685620Y-82539563D01*
X191705471Y-82300000D01*
X191685620Y-82060437D01*
X191626610Y-81827409D01*
X191582628Y-81727140D01*
X191530050Y-81607274D01*
X191530049Y-81607272D01*
X191460693Y-81501116D01*
X191398571Y-81406031D01*
X191235764Y-81229175D01*
X191232322Y-81226496D01*
X191230250Y-81224100D01*
X191228188Y-81222202D01*
X191228404Y-81221966D01*
X191168769Y-81153015D01*
X191138173Y-81060803D01*
X191145193Y-80963902D01*
X191188762Y-80877064D01*
X191232321Y-80833504D01*
X191235764Y-80830825D01*
X191398571Y-80653969D01*
X191530049Y-80452728D01*
X191626610Y-80232591D01*
X191685620Y-79999563D01*
X191705471Y-79760000D01*
X191685620Y-79520437D01*
X191626610Y-79287409D01*
X191612383Y-79254974D01*
X191530050Y-79067274D01*
X191530049Y-79067272D01*
X191428384Y-78911663D01*
X191408090Y-78880601D01*
X191371841Y-78790464D01*
X191372844Y-78693314D01*
X191410949Y-78603944D01*
X191464962Y-78546868D01*
X191528282Y-78498282D01*
X191624536Y-78372841D01*
X191685044Y-78226762D01*
X191700500Y-78109361D01*
X191700499Y-76330640D01*
X191685044Y-76213238D01*
X191624536Y-76067159D01*
X191592290Y-76025135D01*
X191528286Y-75941723D01*
X191528285Y-75941722D01*
X191528282Y-75941718D01*
X191528277Y-75941714D01*
X191528276Y-75941713D01*
X191402844Y-75845466D01*
X191402843Y-75845465D01*
X191402841Y-75845464D01*
X191256762Y-75784956D01*
X191256760Y-75784955D01*
X191139362Y-75769500D01*
X189360639Y-75769500D01*
X189360637Y-75769501D01*
X189243238Y-75784955D01*
X189134475Y-75830006D01*
X189097159Y-75845464D01*
X189097158Y-75845464D01*
X189097155Y-75845466D01*
X188971723Y-75941713D01*
X188971713Y-75941723D01*
X188875466Y-76067155D01*
X188875464Y-76067159D01*
X188813898Y-76215790D01*
X188759921Y-76296571D01*
X188679140Y-76350547D01*
X188583853Y-76369500D01*
X183446648Y-76369500D01*
X183351360Y-76350546D01*
X183312547Y-76330304D01*
X183310753Y-76329157D01*
X183145025Y-76246964D01*
X183145024Y-76246963D01*
X183009409Y-76213238D01*
X182965495Y-76202317D01*
X182965491Y-76202316D01*
X182965483Y-76202315D01*
X182923960Y-76199500D01*
X182923954Y-76199500D01*
X182076046Y-76199500D01*
X182076040Y-76199500D01*
X182034516Y-76202315D01*
X182034506Y-76202316D01*
X182034505Y-76202317D01*
X182003615Y-76209999D01*
X181854975Y-76246963D01*
X181854974Y-76246964D01*
X181689251Y-76329155D01*
X181689240Y-76329161D01*
X181655999Y-76355882D01*
X181569855Y-76400808D01*
X181473076Y-76409347D01*
X181380396Y-76380201D01*
X181344001Y-76355882D01*
X181310759Y-76329161D01*
X181310748Y-76329155D01*
X181145025Y-76246964D01*
X181145024Y-76246963D01*
X181009409Y-76213238D01*
X180965495Y-76202317D01*
X180965491Y-76202316D01*
X180965483Y-76202315D01*
X180923960Y-76199500D01*
X180923954Y-76199500D01*
X180076046Y-76199500D01*
X180076040Y-76199500D01*
X180034516Y-76202315D01*
X180034506Y-76202316D01*
X180034505Y-76202317D01*
X180003615Y-76209999D01*
X179854975Y-76246963D01*
X179854974Y-76246964D01*
X179689251Y-76329155D01*
X179689245Y-76329159D01*
X179545064Y-76445056D01*
X179545060Y-76445060D01*
X179455652Y-76556288D01*
X179455479Y-76556503D01*
X179381006Y-76618896D01*
X179288326Y-76648041D01*
X179261406Y-76649500D01*
X178205429Y-76649500D01*
X178110141Y-76630546D01*
X178029359Y-76576570D01*
X173673430Y-72220640D01*
X173619454Y-72139858D01*
X173600500Y-72044570D01*
X173600500Y-71839529D01*
X173603780Y-71799244D01*
X173604260Y-71796315D01*
X173600683Y-71730329D01*
X173600500Y-71723588D01*
X173600500Y-71703888D01*
X173598371Y-71684312D01*
X173597823Y-71677586D01*
X173597462Y-71670932D01*
X173594245Y-71611593D01*
X173593449Y-71608728D01*
X173585834Y-71569032D01*
X173585514Y-71566089D01*
X173564415Y-71503472D01*
X173562434Y-71497022D01*
X173544754Y-71433341D01*
X173543361Y-71430714D01*
X173527390Y-71393587D01*
X173526444Y-71390779D01*
X173526441Y-71390773D01*
X173492372Y-71334149D01*
X173489053Y-71328279D01*
X173486562Y-71323582D01*
X173458100Y-71269896D01*
X173456179Y-71267635D01*
X173432600Y-71234807D01*
X173431071Y-71232266D01*
X173431070Y-71232264D01*
X173385610Y-71184273D01*
X173381116Y-71179263D01*
X173338337Y-71128900D01*
X173335975Y-71127104D01*
X173305891Y-71100115D01*
X173303850Y-71097960D01*
X173303845Y-71097956D01*
X173249144Y-71060868D01*
X173243667Y-71056934D01*
X173191064Y-71016945D01*
X173188365Y-71015697D01*
X173153184Y-70995806D01*
X173150730Y-70994142D01*
X173089336Y-70969679D01*
X173083143Y-70967015D01*
X173023168Y-70939268D01*
X173021481Y-70938897D01*
X173020257Y-70938627D01*
X172981638Y-70926770D01*
X172978875Y-70925669D01*
X172978873Y-70925668D01*
X172978869Y-70925667D01*
X172978871Y-70925667D01*
X172913663Y-70914977D01*
X172907046Y-70913707D01*
X172890913Y-70910156D01*
X172842499Y-70899500D01*
X172842497Y-70899500D01*
X172839528Y-70899500D01*
X172799245Y-70896220D01*
X172796318Y-70895740D01*
X172796314Y-70895739D01*
X172730330Y-70899317D01*
X172723589Y-70899500D01*
X132199583Y-70899500D01*
X132104295Y-70880546D01*
X132033305Y-70835845D01*
X132030357Y-70833200D01*
X131999102Y-70805160D01*
X131999100Y-70805159D01*
X131999097Y-70805156D01*
X131996513Y-70803695D01*
X131963072Y-70781021D01*
X131960756Y-70779159D01*
X131901533Y-70749786D01*
X131895577Y-70746628D01*
X131838064Y-70714113D01*
X131835211Y-70713237D01*
X131797683Y-70698284D01*
X131795021Y-70696964D01*
X131795019Y-70696963D01*
X131795011Y-70696961D01*
X131730891Y-70681015D01*
X131724393Y-70679211D01*
X131661218Y-70659813D01*
X131661212Y-70659812D01*
X131658252Y-70659571D01*
X131618382Y-70653034D01*
X131615500Y-70652317D01*
X131615496Y-70652316D01*
X131615495Y-70652316D01*
X131615494Y-70652315D01*
X131615489Y-70652315D01*
X131549411Y-70650524D01*
X131542683Y-70650159D01*
X131476837Y-70644799D01*
X131476828Y-70644799D01*
X131473881Y-70645201D01*
X131433555Y-70647387D01*
X131430576Y-70647306D01*
X131430563Y-70647307D01*
X131365654Y-70659762D01*
X131359001Y-70660853D01*
X131293539Y-70669772D01*
X131293526Y-70669775D01*
X131290724Y-70670805D01*
X131251819Y-70681606D01*
X131248892Y-70682167D01*
X131248879Y-70682171D01*
X131188179Y-70708282D01*
X131181918Y-70710777D01*
X131119887Y-70733566D01*
X131119873Y-70733573D01*
X131117356Y-70735182D01*
X131081693Y-70754090D01*
X131078952Y-70755269D01*
X131078941Y-70755275D01*
X131025271Y-70793827D01*
X131019691Y-70797610D01*
X130964012Y-70833200D01*
X130964007Y-70833203D01*
X130961905Y-70835306D01*
X130931117Y-70861458D01*
X130928703Y-70863191D01*
X130928697Y-70863197D01*
X130884569Y-70912382D01*
X130879933Y-70917276D01*
X122926613Y-78870595D01*
X122919177Y-78877451D01*
X122878900Y-78911663D01*
X122829909Y-78976108D01*
X122779164Y-79039236D01*
X122772936Y-79048980D01*
X122766943Y-79058940D01*
X122732939Y-79132438D01*
X122696959Y-79204988D01*
X122692960Y-79215872D01*
X122689268Y-79226831D01*
X122671858Y-79305926D01*
X122652315Y-79384505D01*
X122650758Y-79395926D01*
X122649500Y-79407506D01*
X122649500Y-79488467D01*
X122647307Y-79569436D01*
X122648403Y-79582895D01*
X122647449Y-79582972D01*
X122649500Y-79604537D01*
X122649500Y-110841737D01*
X122649089Y-110851844D01*
X122644799Y-110904534D01*
X122644799Y-110904538D01*
X98500500Y-110904538D01*
X98500500Y-53643681D01*
X100399500Y-53643681D01*
X100438627Y-53928351D01*
X100516155Y-54205057D01*
X100630639Y-54468626D01*
X100740632Y-54649500D01*
X100779945Y-54714147D01*
X100961292Y-54937053D01*
X101171302Y-55133189D01*
X101406064Y-55298901D01*
X101616867Y-55408130D01*
X101640649Y-55420454D01*
X101661203Y-55431104D01*
X101931968Y-55527334D01*
X102213314Y-55585798D01*
X102213321Y-55585798D01*
X102213324Y-55585799D01*
X102428243Y-55600500D01*
X102428248Y-55600500D01*
X102571757Y-55600500D01*
X102786675Y-55585799D01*
X102786677Y-55585798D01*
X102786686Y-55585798D01*
X103068032Y-55527334D01*
X103338797Y-55431104D01*
X103593936Y-55298901D01*
X103828698Y-55133189D01*
X104038708Y-54937053D01*
X104220055Y-54714147D01*
X104369361Y-54468625D01*
X104483844Y-54205058D01*
X104561371Y-53928358D01*
X104600500Y-53643678D01*
X104600500Y-53356322D01*
X104561371Y-53071642D01*
X104541298Y-53000000D01*
X112245172Y-53000000D01*
X112264461Y-53294312D01*
X112264463Y-53294324D01*
X112322003Y-53583592D01*
X112322004Y-53583599D01*
X112416808Y-53862877D01*
X112416816Y-53862896D01*
X112547256Y-54127403D01*
X112547266Y-54127420D01*
X112711125Y-54372652D01*
X112711131Y-54372660D01*
X112740405Y-54406039D01*
X113687197Y-53459248D01*
X113767979Y-53405272D01*
X113863267Y-53386318D01*
X113958555Y-53405272D01*
X114033643Y-53453733D01*
X114035101Y-53455101D01*
X114091621Y-53534124D01*
X114113599Y-53628760D01*
X114097688Y-53724603D01*
X114046310Y-53807062D01*
X114040795Y-53812755D01*
X113093959Y-54759592D01*
X113127352Y-54788878D01*
X113372579Y-54952733D01*
X113372596Y-54952743D01*
X113637103Y-55083183D01*
X113637122Y-55083191D01*
X113916400Y-55177995D01*
X113916407Y-55177996D01*
X114205675Y-55235536D01*
X114205687Y-55235538D01*
X114500000Y-55254827D01*
X114794312Y-55235538D01*
X114794324Y-55235536D01*
X115083591Y-55177997D01*
X115104936Y-55170751D01*
X115201259Y-55158067D01*
X115295105Y-55183209D01*
X115372185Y-55242351D01*
X115420765Y-55326488D01*
X115433449Y-55422811D01*
X115408307Y-55516657D01*
X115361052Y-55582604D01*
X114501492Y-56442164D01*
X114484682Y-56456385D01*
X114485003Y-56456755D01*
X114476046Y-56464515D01*
X114412572Y-56531085D01*
X114384751Y-56558907D01*
X114379217Y-56565608D01*
X114373331Y-56572239D01*
X114331013Y-56616622D01*
X114313655Y-56643629D01*
X114304925Y-56655585D01*
X114284478Y-56680350D01*
X114284474Y-56680357D01*
X114255080Y-56734187D01*
X114250546Y-56741830D01*
X114217387Y-56793427D01*
X114205454Y-56823233D01*
X114199139Y-56836638D01*
X114183753Y-56864814D01*
X114183749Y-56864824D01*
X114165072Y-56923248D01*
X114162067Y-56931607D01*
X114139277Y-56988536D01*
X114139273Y-56988550D01*
X114133196Y-57020075D01*
X114129534Y-57034422D01*
X114119757Y-57065008D01*
X114112475Y-57125911D01*
X114111106Y-57134690D01*
X114099500Y-57194914D01*
X114099500Y-57227026D01*
X114098619Y-57241818D01*
X114094808Y-57273691D01*
X114099183Y-57334868D01*
X114099500Y-57343751D01*
X114099500Y-59740796D01*
X114080546Y-59836084D01*
X114026575Y-59916860D01*
X114021718Y-59921716D01*
X113925466Y-60047155D01*
X113864955Y-60193239D01*
X113849500Y-60310637D01*
X113849500Y-62389360D01*
X113849501Y-62389362D01*
X113864955Y-62506761D01*
X113881930Y-62547741D01*
X113925464Y-62652841D01*
X113925465Y-62652843D01*
X113925466Y-62652844D01*
X113979190Y-62722859D01*
X114021718Y-62778282D01*
X114147159Y-62874536D01*
X114293238Y-62935044D01*
X114410639Y-62950500D01*
X115989360Y-62950499D01*
X116088965Y-62937386D01*
X116106763Y-62935044D01*
X116190158Y-62900500D01*
X116252841Y-62874536D01*
X116252843Y-62874534D01*
X116254710Y-62873761D01*
X116349998Y-62854806D01*
X116445286Y-62873759D01*
X116445291Y-62873761D01*
X116447155Y-62874533D01*
X116447159Y-62874536D01*
X116495792Y-62894680D01*
X116576570Y-62948656D01*
X116630546Y-63029438D01*
X116649499Y-63124724D01*
X116649499Y-63910477D01*
X116646219Y-63950757D01*
X116645740Y-63953675D01*
X116645740Y-63953683D01*
X116649317Y-64019668D01*
X116649500Y-64026410D01*
X116649500Y-65800500D01*
X116630546Y-65895788D01*
X116576570Y-65976570D01*
X116495788Y-66030546D01*
X116400500Y-66049500D01*
X115560639Y-66049500D01*
X115560637Y-66049501D01*
X115443238Y-66064955D01*
X115334475Y-66110006D01*
X115297159Y-66125464D01*
X115297158Y-66125464D01*
X115297155Y-66125466D01*
X115171723Y-66221713D01*
X115171713Y-66221723D01*
X115075466Y-66347155D01*
X115014955Y-66493239D01*
X114999500Y-66610637D01*
X114999500Y-68689360D01*
X114999501Y-68689362D01*
X115014955Y-68806761D01*
X115041345Y-68870472D01*
X115075464Y-68952841D01*
X115075465Y-68952843D01*
X115075466Y-68952844D01*
X115083060Y-68962741D01*
X115171718Y-69078282D01*
X115297159Y-69174536D01*
X115443238Y-69235044D01*
X115560639Y-69250500D01*
X119439360Y-69250499D01*
X119556762Y-69235044D01*
X119702841Y-69174536D01*
X119828282Y-69078282D01*
X119924536Y-68952841D01*
X119985044Y-68806762D01*
X120000500Y-68689361D01*
X120000499Y-66610640D01*
X119985044Y-66493238D01*
X119924536Y-66347159D01*
X119921094Y-66342673D01*
X119828286Y-66221723D01*
X119828285Y-66221722D01*
X119828282Y-66221718D01*
X119828277Y-66221714D01*
X119828276Y-66221713D01*
X119702844Y-66125466D01*
X119702843Y-66125465D01*
X119702841Y-66125464D01*
X119556762Y-66064956D01*
X119556760Y-66064955D01*
X119439362Y-66049500D01*
X119439361Y-66049500D01*
X118599500Y-66049500D01*
X118504212Y-66030546D01*
X118423430Y-65976570D01*
X118369454Y-65895788D01*
X118350500Y-65800500D01*
X118350500Y-65099500D01*
X118369454Y-65004212D01*
X118423430Y-64923430D01*
X118504212Y-64869454D01*
X118599500Y-64850500D01*
X144710368Y-64850500D01*
X144720475Y-64850911D01*
X144742536Y-64852706D01*
X144773167Y-64855201D01*
X144853392Y-64844270D01*
X144933910Y-64835514D01*
X144945217Y-64833024D01*
X144956461Y-64830227D01*
X144956468Y-64830227D01*
X145032486Y-64802299D01*
X145109221Y-64776444D01*
X145109230Y-64776438D01*
X145119754Y-64771570D01*
X145130108Y-64766434D01*
X145130116Y-64766432D01*
X145198353Y-64722815D01*
X145267736Y-64681070D01*
X145267742Y-64681063D01*
X145276981Y-64674041D01*
X145285987Y-64666802D01*
X145343249Y-64609539D01*
X145402041Y-64553849D01*
X145410781Y-64543559D01*
X145411514Y-64544182D01*
X145425308Y-64527479D01*
X145948379Y-64004408D01*
X145955801Y-63997566D01*
X145996100Y-63963337D01*
X146045097Y-63898881D01*
X146095841Y-63835754D01*
X146095845Y-63835744D01*
X146102065Y-63826015D01*
X146108047Y-63816072D01*
X146108054Y-63816064D01*
X146142062Y-63742555D01*
X146178036Y-63670022D01*
X146178038Y-63670009D01*
X146182044Y-63659108D01*
X146185728Y-63648174D01*
X146185732Y-63648167D01*
X146196149Y-63600839D01*
X146203141Y-63569076D01*
X146222684Y-63490494D01*
X146224242Y-63479056D01*
X146225500Y-63467495D01*
X146225500Y-63386532D01*
X146225554Y-63384503D01*
X146227693Y-63305568D01*
X146227691Y-63305560D01*
X146226597Y-63292110D01*
X146227549Y-63292032D01*
X146225500Y-63270465D01*
X146225500Y-62554474D01*
X146244454Y-62459186D01*
X146298430Y-62378404D01*
X146321568Y-62357973D01*
X146322709Y-62357084D01*
X146326784Y-62353913D01*
X146483979Y-62183153D01*
X146610924Y-61988849D01*
X146704157Y-61776300D01*
X146761134Y-61551305D01*
X146780300Y-61320000D01*
X146761134Y-61088695D01*
X146704157Y-60863700D01*
X146611436Y-60652318D01*
X146610925Y-60651153D01*
X146483980Y-60456848D01*
X146483977Y-60456844D01*
X146326785Y-60286088D01*
X146326779Y-60286083D01*
X146143628Y-60143531D01*
X145939512Y-60033068D01*
X145939507Y-60033066D01*
X145939503Y-60033064D01*
X145719981Y-59957702D01*
X145719978Y-59957701D01*
X145719974Y-59957700D01*
X145491049Y-59919500D01*
X145258951Y-59919500D01*
X145030025Y-59957700D01*
X145030019Y-59957701D01*
X145030019Y-59957702D01*
X144810497Y-60033064D01*
X144810494Y-60033065D01*
X144810487Y-60033068D01*
X144606372Y-60143530D01*
X144549254Y-60187987D01*
X144462416Y-60231556D01*
X144365515Y-60238576D01*
X144273303Y-60207981D01*
X144201641Y-60146738D01*
X144158193Y-60092256D01*
X144158188Y-60092251D01*
X143960425Y-59908754D01*
X143737527Y-59756784D01*
X143737522Y-59756782D01*
X143494465Y-59639731D01*
X143494459Y-59639729D01*
X143236666Y-59560210D01*
X143085000Y-59537349D01*
X143085000Y-60671000D01*
X143066046Y-60766288D01*
X143012070Y-60847070D01*
X142931288Y-60901046D01*
X142836000Y-60920000D01*
X142834000Y-60920000D01*
X142738712Y-60901046D01*
X142657930Y-60847070D01*
X142603954Y-60766288D01*
X142585000Y-60671000D01*
X142585000Y-59537349D01*
X142433334Y-59560210D01*
X142433332Y-59560210D01*
X142175540Y-59639729D01*
X142175535Y-59639731D01*
X141932478Y-59756782D01*
X141932476Y-59756783D01*
X141705266Y-59911692D01*
X141615858Y-59949709D01*
X141518708Y-59950617D01*
X141428604Y-59914278D01*
X141424733Y-59911691D01*
X141197527Y-59756784D01*
X141197522Y-59756782D01*
X140954465Y-59639731D01*
X140954459Y-59639729D01*
X140696666Y-59560210D01*
X140545000Y-59537349D01*
X140545000Y-60671000D01*
X140526046Y-60766288D01*
X140472070Y-60847070D01*
X140391288Y-60901046D01*
X140296000Y-60920000D01*
X140294000Y-60920000D01*
X140198712Y-60901046D01*
X140117930Y-60847070D01*
X140063954Y-60766288D01*
X140045000Y-60671000D01*
X140045000Y-59537349D01*
X139893334Y-59560210D01*
X139893332Y-59560210D01*
X139635540Y-59639729D01*
X139635535Y-59639731D01*
X139392478Y-59756782D01*
X139392473Y-59756784D01*
X139169574Y-59908754D01*
X138971811Y-60092251D01*
X138971804Y-60092258D01*
X138928357Y-60146740D01*
X138854127Y-60209421D01*
X138761560Y-60238924D01*
X138664749Y-60230758D01*
X138580742Y-60187985D01*
X138523629Y-60143531D01*
X138319512Y-60033068D01*
X138319507Y-60033066D01*
X138319503Y-60033064D01*
X138099981Y-59957702D01*
X138099978Y-59957701D01*
X138099974Y-59957700D01*
X137871049Y-59919500D01*
X137638951Y-59919500D01*
X137410025Y-59957700D01*
X137410019Y-59957701D01*
X137410019Y-59957702D01*
X137190497Y-60033064D01*
X137190494Y-60033065D01*
X137190487Y-60033068D01*
X136986372Y-60143530D01*
X136929254Y-60187987D01*
X136842416Y-60231556D01*
X136745515Y-60238576D01*
X136653303Y-60207981D01*
X136581641Y-60146738D01*
X136538193Y-60092256D01*
X136538188Y-60092251D01*
X136340425Y-59908754D01*
X136117527Y-59756784D01*
X136117522Y-59756782D01*
X135874465Y-59639731D01*
X135874459Y-59639729D01*
X135616666Y-59560210D01*
X135465000Y-59537349D01*
X135465000Y-60671000D01*
X135446046Y-60766288D01*
X135392070Y-60847070D01*
X135311288Y-60901046D01*
X135216000Y-60920000D01*
X135214000Y-60920000D01*
X135118712Y-60901046D01*
X135037930Y-60847070D01*
X134983954Y-60766288D01*
X134965000Y-60671000D01*
X134965000Y-59537349D01*
X134813334Y-59560210D01*
X134813332Y-59560210D01*
X134555540Y-59639729D01*
X134555535Y-59639731D01*
X134312478Y-59756782D01*
X134312476Y-59756783D01*
X134085266Y-59911692D01*
X133995858Y-59949709D01*
X133898708Y-59950617D01*
X133808604Y-59914278D01*
X133804733Y-59911691D01*
X133577527Y-59756784D01*
X133577522Y-59756782D01*
X133334465Y-59639731D01*
X133334459Y-59639729D01*
X133076666Y-59560210D01*
X132924999Y-59537349D01*
X132925000Y-60671000D01*
X132906046Y-60766288D01*
X132852070Y-60847069D01*
X132771288Y-60901046D01*
X132676000Y-60920000D01*
X132673999Y-60920000D01*
X132578711Y-60901046D01*
X132497929Y-60847070D01*
X132443953Y-60766288D01*
X132424999Y-60671000D01*
X132424999Y-59537349D01*
X132273334Y-59560210D01*
X132273332Y-59560210D01*
X132015540Y-59639729D01*
X132015535Y-59639731D01*
X131772478Y-59756782D01*
X131772473Y-59756784D01*
X131549574Y-59908754D01*
X131351811Y-60092251D01*
X131351804Y-60092258D01*
X131308357Y-60146740D01*
X131234127Y-60209421D01*
X131141560Y-60238924D01*
X131044749Y-60230758D01*
X130960742Y-60187985D01*
X130903629Y-60143531D01*
X130699512Y-60033068D01*
X130699507Y-60033066D01*
X130699503Y-60033064D01*
X130479981Y-59957702D01*
X130479978Y-59957701D01*
X130479974Y-59957700D01*
X130251049Y-59919500D01*
X130018951Y-59919500D01*
X129790025Y-59957700D01*
X129790019Y-59957701D01*
X129790019Y-59957702D01*
X129570497Y-60033064D01*
X129570494Y-60033065D01*
X129570487Y-60033068D01*
X129366371Y-60143531D01*
X129183220Y-60286083D01*
X129183214Y-60286088D01*
X129026022Y-60456844D01*
X129026019Y-60456848D01*
X128899074Y-60651153D01*
X128805842Y-60863702D01*
X128805841Y-60863706D01*
X128748868Y-61088684D01*
X128748866Y-61088691D01*
X128729700Y-61320000D01*
X128748866Y-61551308D01*
X128748868Y-61551315D01*
X128805841Y-61776293D01*
X128805843Y-61776300D01*
X128820178Y-61808981D01*
X128899074Y-61988846D01*
X129026019Y-62183151D01*
X129026022Y-62183155D01*
X129183214Y-62353911D01*
X129183220Y-62353916D01*
X129362249Y-62493260D01*
X129366374Y-62496470D01*
X129385392Y-62506762D01*
X129570492Y-62606934D01*
X129570495Y-62606935D01*
X129570497Y-62606936D01*
X129689706Y-62647860D01*
X129739608Y-62664992D01*
X129823579Y-62713859D01*
X129882457Y-62791140D01*
X129907279Y-62885071D01*
X129894266Y-62981350D01*
X129845399Y-63065321D01*
X129768118Y-63124199D01*
X129674187Y-63149021D01*
X129658758Y-63149500D01*
X121671576Y-63149500D01*
X121576288Y-63130546D01*
X121495506Y-63076570D01*
X121441530Y-62995788D01*
X121422576Y-62900500D01*
X121441530Y-62805212D01*
X121450872Y-62785214D01*
X121483441Y-62722862D01*
X121483442Y-62722859D01*
X121539389Y-62527333D01*
X121539390Y-62527328D01*
X121550000Y-62408008D01*
X121550000Y-61600001D01*
X121549999Y-61600000D01*
X119799000Y-61600000D01*
X119703712Y-61581046D01*
X119622930Y-61527070D01*
X119568954Y-61446288D01*
X119550000Y-61351000D01*
X119550000Y-59350001D01*
X119549999Y-59350000D01*
X120050000Y-59350000D01*
X120050000Y-61099999D01*
X120050001Y-61100000D01*
X121549999Y-61100000D01*
X121550000Y-61099999D01*
X121550000Y-60291992D01*
X121539390Y-60172671D01*
X121539389Y-60172666D01*
X121483442Y-59977140D01*
X121483439Y-59977132D01*
X121389280Y-59796873D01*
X121389276Y-59796867D01*
X121260754Y-59639249D01*
X121260750Y-59639245D01*
X121103132Y-59510723D01*
X121103126Y-59510719D01*
X120922867Y-59416560D01*
X120922859Y-59416557D01*
X120727333Y-59360610D01*
X120727328Y-59360609D01*
X120608008Y-59350000D01*
X120050000Y-59350000D01*
X119549999Y-59350000D01*
X118991992Y-59350000D01*
X118872671Y-59360609D01*
X118872666Y-59360610D01*
X118677140Y-59416557D01*
X118677132Y-59416560D01*
X118496873Y-59510719D01*
X118496868Y-59510722D01*
X118339251Y-59639243D01*
X118339244Y-59639250D01*
X118324072Y-59657857D01*
X118249165Y-59719727D01*
X118156283Y-59748223D01*
X118131096Y-59749500D01*
X116710639Y-59749500D01*
X116710637Y-59749501D01*
X116581998Y-59766435D01*
X116485051Y-59760080D01*
X116397916Y-59717108D01*
X116333858Y-59644062D01*
X116302630Y-59552063D01*
X116300500Y-59519565D01*
X116300500Y-57858980D01*
X116319454Y-57763692D01*
X116373427Y-57682913D01*
X119132912Y-54923428D01*
X119213694Y-54869453D01*
X119308982Y-54850499D01*
X119691017Y-54850499D01*
X119786305Y-54869453D01*
X119867087Y-54923429D01*
X122642159Y-57698501D01*
X122656375Y-57715307D01*
X122656746Y-57714987D01*
X122664510Y-57723948D01*
X122664513Y-57723951D01*
X122664514Y-57723952D01*
X122710068Y-57767387D01*
X122731085Y-57787427D01*
X122758904Y-57815246D01*
X122763938Y-57819402D01*
X122764649Y-57819989D01*
X122765586Y-57820762D01*
X122772232Y-57826661D01*
X122816622Y-57868986D01*
X122835338Y-57881014D01*
X122843628Y-57886342D01*
X122855590Y-57895076D01*
X122880355Y-57915524D01*
X122934203Y-57944926D01*
X122941836Y-57949456D01*
X122993426Y-57982612D01*
X123023236Y-57994547D01*
X123036640Y-58000862D01*
X123056684Y-58011806D01*
X123064817Y-58016247D01*
X123118671Y-58033462D01*
X123123235Y-58034921D01*
X123131602Y-58037929D01*
X123188543Y-58060725D01*
X123220071Y-58066801D01*
X123234410Y-58070460D01*
X123265008Y-58080242D01*
X123325938Y-58087526D01*
X123334672Y-58088889D01*
X123394915Y-58100500D01*
X123427026Y-58100500D01*
X123441813Y-58101380D01*
X123473691Y-58105192D01*
X123529894Y-58101172D01*
X123534864Y-58100817D01*
X123543748Y-58100500D01*
X170441018Y-58100500D01*
X170536306Y-58119454D01*
X170617088Y-58173430D01*
X172017427Y-59573768D01*
X172071403Y-59654550D01*
X172090357Y-59749838D01*
X172071403Y-59845126D01*
X172017427Y-59925908D01*
X171936645Y-59979884D01*
X171841357Y-59998838D01*
X171760508Y-59985347D01*
X171679981Y-59957702D01*
X171679976Y-59957701D01*
X171451049Y-59919500D01*
X171218951Y-59919500D01*
X170990025Y-59957700D01*
X170990019Y-59957701D01*
X170990019Y-59957702D01*
X170770497Y-60033064D01*
X170770494Y-60033065D01*
X170770487Y-60033068D01*
X170566371Y-60143531D01*
X170383220Y-60286083D01*
X170383217Y-60286086D01*
X170383216Y-60286087D01*
X170342017Y-60330841D01*
X170248195Y-60432759D01*
X170169713Y-60490027D01*
X170075289Y-60512902D01*
X169979299Y-60497902D01*
X169896356Y-60447310D01*
X169881805Y-60432759D01*
X169812520Y-60357496D01*
X169746784Y-60286087D01*
X169746779Y-60286083D01*
X169563628Y-60143531D01*
X169359512Y-60033068D01*
X169359507Y-60033066D01*
X169359503Y-60033064D01*
X169139981Y-59957702D01*
X169139978Y-59957701D01*
X169139974Y-59957700D01*
X168911049Y-59919500D01*
X168678951Y-59919500D01*
X168450025Y-59957700D01*
X168450019Y-59957701D01*
X168450019Y-59957702D01*
X168230497Y-60033064D01*
X168230494Y-60033065D01*
X168230487Y-60033068D01*
X168026371Y-60143531D01*
X167843220Y-60286083D01*
X167843217Y-60286086D01*
X167843216Y-60286087D01*
X167802017Y-60330841D01*
X167708195Y-60432759D01*
X167629713Y-60490027D01*
X167535289Y-60512902D01*
X167439299Y-60497902D01*
X167356356Y-60447310D01*
X167341805Y-60432759D01*
X167272520Y-60357496D01*
X167206784Y-60286087D01*
X167206779Y-60286083D01*
X167023628Y-60143531D01*
X166819512Y-60033068D01*
X166819507Y-60033066D01*
X166819503Y-60033064D01*
X166599981Y-59957702D01*
X166599978Y-59957701D01*
X166599974Y-59957700D01*
X166371049Y-59919500D01*
X166138951Y-59919500D01*
X165910025Y-59957700D01*
X165910019Y-59957701D01*
X165910019Y-59957702D01*
X165690497Y-60033064D01*
X165690494Y-60033065D01*
X165690487Y-60033068D01*
X165486371Y-60143531D01*
X165303220Y-60286083D01*
X165303217Y-60286086D01*
X165303216Y-60286087D01*
X165262017Y-60330841D01*
X165168195Y-60432759D01*
X165089713Y-60490027D01*
X164995289Y-60512902D01*
X164899299Y-60497902D01*
X164816356Y-60447310D01*
X164801805Y-60432759D01*
X164732520Y-60357496D01*
X164666784Y-60286087D01*
X164666779Y-60286083D01*
X164483628Y-60143531D01*
X164279512Y-60033068D01*
X164279507Y-60033066D01*
X164279503Y-60033064D01*
X164059981Y-59957702D01*
X164059978Y-59957701D01*
X164059974Y-59957700D01*
X163831049Y-59919500D01*
X163598951Y-59919500D01*
X163370025Y-59957700D01*
X163370019Y-59957701D01*
X163370019Y-59957702D01*
X163150497Y-60033064D01*
X163150494Y-60033065D01*
X163150487Y-60033068D01*
X162946371Y-60143531D01*
X162763220Y-60286083D01*
X162763217Y-60286086D01*
X162763216Y-60286087D01*
X162722017Y-60330841D01*
X162628195Y-60432759D01*
X162549713Y-60490027D01*
X162455289Y-60512902D01*
X162359299Y-60497902D01*
X162276356Y-60447310D01*
X162261805Y-60432759D01*
X162192520Y-60357496D01*
X162126784Y-60286087D01*
X162126779Y-60286083D01*
X161943628Y-60143531D01*
X161739512Y-60033068D01*
X161739507Y-60033066D01*
X161739503Y-60033064D01*
X161519981Y-59957702D01*
X161519978Y-59957701D01*
X161519974Y-59957700D01*
X161291049Y-59919500D01*
X161058951Y-59919500D01*
X160830025Y-59957700D01*
X160830019Y-59957701D01*
X160830019Y-59957702D01*
X160610497Y-60033064D01*
X160610494Y-60033065D01*
X160610487Y-60033068D01*
X160406371Y-60143531D01*
X160223220Y-60286083D01*
X160223217Y-60286086D01*
X160223216Y-60286087D01*
X160182017Y-60330841D01*
X160088195Y-60432759D01*
X160009713Y-60490027D01*
X159915289Y-60512902D01*
X159819299Y-60497902D01*
X159736356Y-60447310D01*
X159721805Y-60432759D01*
X159652520Y-60357496D01*
X159586784Y-60286087D01*
X159586779Y-60286083D01*
X159403628Y-60143531D01*
X159199512Y-60033068D01*
X159199507Y-60033066D01*
X159199503Y-60033064D01*
X158979981Y-59957702D01*
X158979978Y-59957701D01*
X158979974Y-59957700D01*
X158751049Y-59919500D01*
X158518951Y-59919500D01*
X158290025Y-59957700D01*
X158290019Y-59957701D01*
X158290019Y-59957702D01*
X158070497Y-60033064D01*
X158070494Y-60033065D01*
X158070487Y-60033068D01*
X157866371Y-60143531D01*
X157683220Y-60286083D01*
X157683214Y-60286088D01*
X157526022Y-60456844D01*
X157526019Y-60456848D01*
X157399074Y-60651153D01*
X157305842Y-60863702D01*
X157305841Y-60863706D01*
X157248868Y-61088684D01*
X157248866Y-61088691D01*
X157229700Y-61320000D01*
X157248866Y-61551308D01*
X157248868Y-61551315D01*
X157305841Y-61776293D01*
X157305843Y-61776300D01*
X157320178Y-61808981D01*
X157399074Y-61988846D01*
X157526019Y-62183151D01*
X157526022Y-62183155D01*
X157683214Y-62353911D01*
X157683220Y-62353916D01*
X157862249Y-62493260D01*
X157866374Y-62496470D01*
X157885392Y-62506762D01*
X158070487Y-62606931D01*
X158070489Y-62606931D01*
X158070497Y-62606936D01*
X158290019Y-62682298D01*
X158518951Y-62720500D01*
X158751049Y-62720500D01*
X158979981Y-62682298D01*
X159199503Y-62606936D01*
X159403626Y-62496470D01*
X159586784Y-62353913D01*
X159721805Y-62207241D01*
X159800286Y-62149972D01*
X159894710Y-62127097D01*
X159990700Y-62142097D01*
X160073643Y-62192689D01*
X160088195Y-62207241D01*
X160223214Y-62353911D01*
X160223220Y-62353916D01*
X160402249Y-62493260D01*
X160406374Y-62496470D01*
X160425392Y-62506762D01*
X160610487Y-62606931D01*
X160610489Y-62606931D01*
X160610497Y-62606936D01*
X160830019Y-62682298D01*
X161058951Y-62720500D01*
X161291049Y-62720500D01*
X161519981Y-62682298D01*
X161739503Y-62606936D01*
X161943626Y-62496470D01*
X162126784Y-62353913D01*
X162261805Y-62207241D01*
X162340286Y-62149972D01*
X162434710Y-62127097D01*
X162530700Y-62142097D01*
X162613643Y-62192689D01*
X162628195Y-62207241D01*
X162763214Y-62353911D01*
X162763220Y-62353916D01*
X162942249Y-62493260D01*
X162946374Y-62496470D01*
X162965392Y-62506762D01*
X163150487Y-62606931D01*
X163150489Y-62606931D01*
X163150497Y-62606936D01*
X163370019Y-62682298D01*
X163598951Y-62720500D01*
X163831049Y-62720500D01*
X164059981Y-62682298D01*
X164279503Y-62606936D01*
X164483626Y-62496470D01*
X164666784Y-62353913D01*
X164801805Y-62207241D01*
X164880286Y-62149972D01*
X164974710Y-62127097D01*
X165070700Y-62142097D01*
X165153643Y-62192689D01*
X165168195Y-62207241D01*
X165303214Y-62353911D01*
X165303220Y-62353916D01*
X165482249Y-62493260D01*
X165486374Y-62496470D01*
X165505392Y-62506762D01*
X165690487Y-62606931D01*
X165690489Y-62606931D01*
X165690497Y-62606936D01*
X165910019Y-62682298D01*
X166138951Y-62720500D01*
X166371049Y-62720500D01*
X166599981Y-62682298D01*
X166819503Y-62606936D01*
X167023626Y-62496470D01*
X167206784Y-62353913D01*
X167341805Y-62207241D01*
X167420286Y-62149972D01*
X167514710Y-62127097D01*
X167610700Y-62142097D01*
X167693643Y-62192689D01*
X167708195Y-62207241D01*
X167843214Y-62353911D01*
X167843220Y-62353916D01*
X168022249Y-62493260D01*
X168026374Y-62496470D01*
X168045392Y-62506762D01*
X168230487Y-62606931D01*
X168230489Y-62606931D01*
X168230497Y-62606936D01*
X168450019Y-62682298D01*
X168678951Y-62720500D01*
X168911049Y-62720500D01*
X169139981Y-62682298D01*
X169359503Y-62606936D01*
X169563626Y-62496470D01*
X169746784Y-62353913D01*
X169881805Y-62207241D01*
X169960286Y-62149972D01*
X170054710Y-62127097D01*
X170150700Y-62142097D01*
X170233643Y-62192689D01*
X170248195Y-62207241D01*
X170383214Y-62353911D01*
X170383220Y-62353916D01*
X170562249Y-62493260D01*
X170566374Y-62496470D01*
X170585392Y-62506762D01*
X170770487Y-62606931D01*
X170770489Y-62606931D01*
X170770497Y-62606936D01*
X170990019Y-62682298D01*
X171218951Y-62720500D01*
X171429571Y-62720500D01*
X171524859Y-62739454D01*
X171605641Y-62793430D01*
X172265593Y-63453382D01*
X172272445Y-63460816D01*
X172306663Y-63501100D01*
X172371108Y-63550090D01*
X172394728Y-63569076D01*
X172434241Y-63600839D01*
X172443986Y-63607067D01*
X172453934Y-63613053D01*
X172453935Y-63613053D01*
X172453936Y-63613054D01*
X172527439Y-63647060D01*
X172599979Y-63683036D01*
X172599986Y-63683037D01*
X172610897Y-63687046D01*
X172621827Y-63690729D01*
X172621833Y-63690732D01*
X172700926Y-63708141D01*
X172779505Y-63727684D01*
X172779510Y-63727684D01*
X172790953Y-63729243D01*
X172802501Y-63730499D01*
X172802503Y-63730500D01*
X172883468Y-63730500D01*
X172885548Y-63730556D01*
X172964432Y-63732693D01*
X172964440Y-63732691D01*
X172977890Y-63731597D01*
X172977967Y-63732550D01*
X172999534Y-63730500D01*
X188583853Y-63730500D01*
X188679141Y-63749454D01*
X188759923Y-63803430D01*
X188813898Y-63884210D01*
X188846674Y-63963336D01*
X188875464Y-64032841D01*
X188971718Y-64158282D01*
X188971722Y-64158285D01*
X188971723Y-64158286D01*
X189035035Y-64206867D01*
X189099094Y-64279912D01*
X189130324Y-64371911D01*
X189123970Y-64468858D01*
X189091908Y-64540602D01*
X188969953Y-64727266D01*
X188969949Y-64727274D01*
X188873389Y-64947409D01*
X188814380Y-65180433D01*
X188794529Y-65420000D01*
X188814380Y-65659566D01*
X188873389Y-65892590D01*
X188969949Y-66112725D01*
X188969951Y-66112729D01*
X188978273Y-66125466D01*
X189061293Y-66252536D01*
X189097543Y-66342673D01*
X189096540Y-66439823D01*
X189058435Y-66529194D01*
X189028909Y-66564795D01*
X188848297Y-66745407D01*
X188848285Y-66745420D01*
X188689705Y-66957258D01*
X188562883Y-67189516D01*
X188562877Y-67189528D01*
X188470405Y-67437456D01*
X188470404Y-67437457D01*
X188414152Y-67696043D01*
X188413155Y-67710000D01*
X189501000Y-67710000D01*
X189596288Y-67728954D01*
X189677070Y-67782930D01*
X189731046Y-67863712D01*
X189750000Y-67959000D01*
X189750000Y-67961000D01*
X189731046Y-68056288D01*
X189677070Y-68137070D01*
X189596288Y-68191046D01*
X189501000Y-68210000D01*
X188413155Y-68210000D01*
X188414152Y-68223956D01*
X188470404Y-68482542D01*
X188470405Y-68482543D01*
X188562877Y-68730471D01*
X188562883Y-68730483D01*
X188689705Y-68962740D01*
X188778068Y-69080780D01*
X188819998Y-69168421D01*
X188825199Y-69265437D01*
X188792876Y-69357057D01*
X188778068Y-69379220D01*
X188689705Y-69497259D01*
X188562883Y-69729516D01*
X188562877Y-69729528D01*
X188470405Y-69977456D01*
X188470404Y-69977457D01*
X188414152Y-70236043D01*
X188413155Y-70250000D01*
X189501000Y-70250000D01*
X189596288Y-70268954D01*
X189677070Y-70322930D01*
X189731046Y-70403712D01*
X189750000Y-70499000D01*
X189750000Y-70501000D01*
X189731046Y-70596288D01*
X189677070Y-70677070D01*
X189596288Y-70731046D01*
X189501000Y-70750000D01*
X188413155Y-70750000D01*
X188414152Y-70763956D01*
X188470404Y-71022542D01*
X188470405Y-71022543D01*
X188562877Y-71270471D01*
X188562883Y-71270483D01*
X188689705Y-71502741D01*
X188848285Y-71714579D01*
X189035420Y-71901714D01*
X189247258Y-72060294D01*
X189247257Y-72060294D01*
X189479516Y-72187116D01*
X189479528Y-72187122D01*
X189727456Y-72279594D01*
X189727457Y-72279595D01*
X189986043Y-72335847D01*
X190000000Y-72336845D01*
X190000000Y-71249000D01*
X190018954Y-71153712D01*
X190072930Y-71072930D01*
X190153712Y-71018954D01*
X190249000Y-71000000D01*
X190251000Y-71000000D01*
X190346288Y-71018954D01*
X190427070Y-71072930D01*
X190481046Y-71153712D01*
X190500000Y-71249000D01*
X190500000Y-72336844D01*
X190513956Y-72335847D01*
X190772542Y-72279595D01*
X190772543Y-72279594D01*
X191020471Y-72187122D01*
X191020483Y-72187116D01*
X191252741Y-72060294D01*
X191464579Y-71901714D01*
X191651714Y-71714579D01*
X191810294Y-71502741D01*
X191937116Y-71270483D01*
X191937122Y-71270471D01*
X192029594Y-71022543D01*
X192029595Y-71022542D01*
X192085847Y-70763956D01*
X192086845Y-70750000D01*
X190999000Y-70750000D01*
X190903712Y-70731046D01*
X190822930Y-70677070D01*
X190768954Y-70596288D01*
X190750000Y-70501000D01*
X190750000Y-70499000D01*
X190768954Y-70403712D01*
X190822930Y-70322930D01*
X190903712Y-70268954D01*
X190999000Y-70250000D01*
X192086845Y-70250000D01*
X192085847Y-70236043D01*
X192029595Y-69977457D01*
X192029594Y-69977456D01*
X191937122Y-69729528D01*
X191937116Y-69729516D01*
X191810294Y-69497258D01*
X191721932Y-69379221D01*
X191680001Y-69291580D01*
X191674800Y-69194565D01*
X191707122Y-69102944D01*
X191721932Y-69080779D01*
X191810294Y-68962741D01*
X191937116Y-68730483D01*
X191937122Y-68730471D01*
X192029594Y-68482543D01*
X192029595Y-68482542D01*
X192085847Y-68223956D01*
X192086845Y-68210000D01*
X190999000Y-68210000D01*
X190903712Y-68191046D01*
X190822930Y-68137070D01*
X190768954Y-68056288D01*
X190750000Y-67961000D01*
X190750000Y-67959000D01*
X190768954Y-67863712D01*
X190822930Y-67782930D01*
X190903712Y-67728954D01*
X190999000Y-67710000D01*
X192086845Y-67710000D01*
X192085847Y-67696043D01*
X192029595Y-67437457D01*
X192029594Y-67437456D01*
X191937122Y-67189528D01*
X191937116Y-67189516D01*
X191810294Y-66957258D01*
X191651714Y-66745420D01*
X191471090Y-66564796D01*
X191417114Y-66484014D01*
X191398160Y-66388726D01*
X191417114Y-66293438D01*
X191438697Y-66252551D01*
X191530049Y-66112728D01*
X191626610Y-65892591D01*
X191685620Y-65659563D01*
X191705471Y-65420000D01*
X191685620Y-65180437D01*
X191626610Y-64947409D01*
X191530049Y-64727272D01*
X191408090Y-64540601D01*
X191371841Y-64450464D01*
X191372844Y-64353314D01*
X191410949Y-64263944D01*
X191464962Y-64206868D01*
X191528282Y-64158282D01*
X191624536Y-64032841D01*
X191685044Y-63886762D01*
X191700500Y-63769361D01*
X191700499Y-61990640D01*
X191685044Y-61873238D01*
X191624536Y-61727159D01*
X191608178Y-61705841D01*
X191528286Y-61601723D01*
X191528285Y-61601722D01*
X191528282Y-61601718D01*
X191528277Y-61601714D01*
X191528276Y-61601713D01*
X191402844Y-61505466D01*
X191402843Y-61505465D01*
X191402841Y-61505464D01*
X191256762Y-61444956D01*
X191256760Y-61444955D01*
X191139362Y-61429500D01*
X189360639Y-61429500D01*
X189360637Y-61429501D01*
X189243238Y-61444955D01*
X189134475Y-61490006D01*
X189097159Y-61505464D01*
X189097158Y-61505464D01*
X189097155Y-61505466D01*
X188971723Y-61601713D01*
X188971713Y-61601723D01*
X188875466Y-61727155D01*
X188875464Y-61727159D01*
X188813898Y-61875790D01*
X188759921Y-61956571D01*
X188679140Y-62010547D01*
X188583853Y-62029500D01*
X175459953Y-62029500D01*
X175364665Y-62010546D01*
X175283883Y-61956570D01*
X175229907Y-61875788D01*
X175210953Y-61780500D01*
X175218573Y-61719373D01*
X175261132Y-61551315D01*
X175261133Y-61551308D01*
X175261134Y-61551305D01*
X175280300Y-61320000D01*
X175261134Y-61088695D01*
X175204157Y-60863700D01*
X175110924Y-60651151D01*
X175041429Y-60544782D01*
X175005181Y-60454646D01*
X175006186Y-60357496D01*
X175044291Y-60268125D01*
X175073817Y-60232525D01*
X175382913Y-59923430D01*
X175463694Y-59869454D01*
X175558982Y-59850500D01*
X191691018Y-59850500D01*
X191786306Y-59869454D01*
X191867088Y-59923430D01*
X193576570Y-61632911D01*
X193630546Y-61713693D01*
X193649500Y-61808981D01*
X193649500Y-109070500D01*
X193630546Y-109165788D01*
X193576570Y-109246570D01*
X193495788Y-109300546D01*
X193400500Y-109319500D01*
X191980780Y-109319500D01*
X191885492Y-109300546D01*
X191804710Y-109246570D01*
X191750734Y-109165788D01*
X191731780Y-109070500D01*
X191750734Y-108975212D01*
X191781445Y-108921280D01*
X191810294Y-108882740D01*
X191937116Y-108650483D01*
X191937122Y-108650471D01*
X192029594Y-108402543D01*
X192029595Y-108402542D01*
X192085847Y-108143956D01*
X192086845Y-108130000D01*
X190999000Y-108130000D01*
X190903712Y-108111046D01*
X190822930Y-108057070D01*
X190768954Y-107976288D01*
X190750000Y-107881000D01*
X190750000Y-107879000D01*
X190768954Y-107783712D01*
X190822930Y-107702930D01*
X190903712Y-107648954D01*
X190999000Y-107630000D01*
X192086845Y-107630000D01*
X192085847Y-107616043D01*
X192029595Y-107357457D01*
X192029594Y-107357456D01*
X191937122Y-107109528D01*
X191937116Y-107109516D01*
X191810294Y-106877258D01*
X191721932Y-106759221D01*
X191680001Y-106671580D01*
X191674800Y-106574565D01*
X191707122Y-106482944D01*
X191721932Y-106460779D01*
X191810294Y-106342741D01*
X191937116Y-106110483D01*
X191937122Y-106110471D01*
X192029594Y-105862543D01*
X192029595Y-105862542D01*
X192085847Y-105603956D01*
X192086845Y-105590000D01*
X190999000Y-105590000D01*
X190903712Y-105571046D01*
X190822930Y-105517070D01*
X190768954Y-105436288D01*
X190750000Y-105341000D01*
X190750000Y-105339000D01*
X190768954Y-105243712D01*
X190822930Y-105162930D01*
X190903712Y-105108954D01*
X190999000Y-105090000D01*
X192086845Y-105090000D01*
X192085847Y-105076043D01*
X192029595Y-104817457D01*
X192029594Y-104817456D01*
X191937121Y-104569525D01*
X191898395Y-104498604D01*
X191869364Y-104405888D01*
X191878023Y-104309120D01*
X191923055Y-104223031D01*
X191923963Y-104221911D01*
X191939280Y-104203127D01*
X192033439Y-104022867D01*
X192033442Y-104022859D01*
X192089389Y-103827333D01*
X192089390Y-103827328D01*
X192100000Y-103708008D01*
X192100000Y-103050001D01*
X192099999Y-103050000D01*
X190999000Y-103050000D01*
X190903712Y-103031046D01*
X190822930Y-102977070D01*
X190768954Y-102896288D01*
X190750000Y-102801000D01*
X190750000Y-102799000D01*
X190768954Y-102703712D01*
X190822930Y-102622930D01*
X190903712Y-102568954D01*
X190999000Y-102550000D01*
X192099999Y-102550000D01*
X192100000Y-102549999D01*
X192100000Y-101891992D01*
X192089390Y-101772671D01*
X192089389Y-101772666D01*
X192033442Y-101577140D01*
X192033439Y-101577132D01*
X191939280Y-101396873D01*
X191939276Y-101396867D01*
X191810754Y-101239249D01*
X191810750Y-101239245D01*
X191653132Y-101110723D01*
X191653126Y-101110719D01*
X191472867Y-101016560D01*
X191472859Y-101016557D01*
X191277333Y-100960610D01*
X191277328Y-100960609D01*
X191158008Y-100950000D01*
X190500000Y-100950000D01*
X190500000Y-102051000D01*
X190481046Y-102146288D01*
X190427070Y-102227070D01*
X190346288Y-102281046D01*
X190251000Y-102300000D01*
X190249000Y-102300000D01*
X190153712Y-102281046D01*
X190072930Y-102227070D01*
X190018954Y-102146288D01*
X190000000Y-102051000D01*
X190000000Y-100950001D01*
X189999999Y-100950000D01*
X189341992Y-100950000D01*
X189222671Y-100960609D01*
X189222666Y-100960610D01*
X189027140Y-101016557D01*
X189027132Y-101016560D01*
X188846873Y-101110719D01*
X188846867Y-101110723D01*
X188689249Y-101239245D01*
X188689245Y-101239249D01*
X188560723Y-101396867D01*
X188560719Y-101396873D01*
X188466560Y-101577132D01*
X188466557Y-101577140D01*
X188410610Y-101772666D01*
X188410609Y-101772671D01*
X188400000Y-101891992D01*
X188400000Y-102549999D01*
X188400001Y-102550000D01*
X189501000Y-102550000D01*
X189596288Y-102568954D01*
X189677070Y-102622930D01*
X189731046Y-102703712D01*
X189750000Y-102799000D01*
X189750000Y-102801000D01*
X189731046Y-102896288D01*
X189677070Y-102977070D01*
X189596288Y-103031046D01*
X189501000Y-103050000D01*
X188400001Y-103050000D01*
X188400000Y-103050001D01*
X188400000Y-103708008D01*
X188410609Y-103827328D01*
X188410610Y-103827333D01*
X188466557Y-104022859D01*
X188466560Y-104022867D01*
X188560719Y-104203126D01*
X188560722Y-104203130D01*
X188576041Y-104221918D01*
X188621567Y-104307746D01*
X188630783Y-104404463D01*
X188602286Y-104497345D01*
X188601605Y-104498600D01*
X188562879Y-104569523D01*
X188470405Y-104817456D01*
X188470404Y-104817457D01*
X188414152Y-105076043D01*
X188413155Y-105090000D01*
X189501000Y-105090000D01*
X189596288Y-105108954D01*
X189677070Y-105162930D01*
X189731046Y-105243712D01*
X189750000Y-105339000D01*
X189750000Y-105341000D01*
X189731046Y-105436288D01*
X189677070Y-105517070D01*
X189596288Y-105571046D01*
X189501000Y-105590000D01*
X188413155Y-105590000D01*
X188414152Y-105603956D01*
X188470404Y-105862542D01*
X188470405Y-105862543D01*
X188562877Y-106110471D01*
X188562883Y-106110483D01*
X188689705Y-106342740D01*
X188778068Y-106460780D01*
X188819998Y-106548421D01*
X188825199Y-106645437D01*
X188792876Y-106737057D01*
X188778068Y-106759220D01*
X188689705Y-106877259D01*
X188562883Y-107109516D01*
X188562877Y-107109528D01*
X188470405Y-107357456D01*
X188470404Y-107357457D01*
X188414152Y-107616043D01*
X188413155Y-107630000D01*
X189501000Y-107630000D01*
X189596288Y-107648954D01*
X189677070Y-107702930D01*
X189731046Y-107783712D01*
X189750000Y-107879000D01*
X189750000Y-107881000D01*
X189731046Y-107976288D01*
X189677070Y-108057070D01*
X189596288Y-108111046D01*
X189501000Y-108130000D01*
X188413155Y-108130000D01*
X188414152Y-108143956D01*
X188470404Y-108402542D01*
X188470405Y-108402543D01*
X188562877Y-108650471D01*
X188562883Y-108650483D01*
X188689705Y-108882741D01*
X188848285Y-109094579D01*
X189028908Y-109275202D01*
X189082884Y-109355984D01*
X189101838Y-109451272D01*
X189082884Y-109546560D01*
X189061293Y-109587461D01*
X188969952Y-109727269D01*
X188969949Y-109727274D01*
X188873389Y-109947409D01*
X188814380Y-110180433D01*
X188794529Y-110420000D01*
X188814380Y-110659566D01*
X188873389Y-110892590D01*
X188969949Y-111112725D01*
X188969950Y-111112727D01*
X189020700Y-111190405D01*
X189101429Y-111313969D01*
X189101430Y-111313971D01*
X189107062Y-111322590D01*
X189104886Y-111324011D01*
X189140555Y-111395069D01*
X189149500Y-111461211D01*
X189149500Y-111918787D01*
X189130546Y-112014075D01*
X189105804Y-112056588D01*
X189107061Y-112057409D01*
X188969953Y-112267266D01*
X188969949Y-112267274D01*
X188873389Y-112487409D01*
X188814380Y-112720433D01*
X188794529Y-112960000D01*
X188814380Y-113199566D01*
X188873389Y-113432590D01*
X188969949Y-113652725D01*
X188969950Y-113652727D01*
X188969951Y-113652728D01*
X189101429Y-113853969D01*
X189101430Y-113853971D01*
X189107062Y-113862590D01*
X189104886Y-113864011D01*
X189140555Y-113935069D01*
X189149500Y-114001211D01*
X189149500Y-114458787D01*
X189130546Y-114554075D01*
X189105804Y-114596588D01*
X189107061Y-114597409D01*
X188969953Y-114807266D01*
X188969949Y-114807274D01*
X188873389Y-115027409D01*
X188814380Y-115260433D01*
X188794529Y-115500000D01*
X188814380Y-115739566D01*
X188873389Y-115972590D01*
X188969949Y-116192725D01*
X188969950Y-116192727D01*
X189016078Y-116263331D01*
X189101429Y-116393969D01*
X189264236Y-116570825D01*
X189453933Y-116718472D01*
X189665344Y-116832882D01*
X189892703Y-116910934D01*
X190129808Y-116950500D01*
X190370192Y-116950500D01*
X190607297Y-116910934D01*
X190834656Y-116832882D01*
X191046067Y-116718472D01*
X191235764Y-116570825D01*
X191398571Y-116393969D01*
X191530049Y-116192728D01*
X191626610Y-115972591D01*
X191685620Y-115739563D01*
X191705471Y-115500000D01*
X191685620Y-115260437D01*
X191626610Y-115027409D01*
X191530049Y-114807272D01*
X191530046Y-114807266D01*
X191392939Y-114597409D01*
X191395109Y-114595990D01*
X191359436Y-114524894D01*
X191350500Y-114458787D01*
X191350500Y-114001211D01*
X191369454Y-113905923D01*
X191394197Y-113863413D01*
X191392938Y-113862590D01*
X191398568Y-113853971D01*
X191398571Y-113853969D01*
X191530049Y-113652728D01*
X191626610Y-113432591D01*
X191685620Y-113199563D01*
X191705471Y-112960000D01*
X191685620Y-112720437D01*
X191626610Y-112487409D01*
X191584875Y-112392262D01*
X191530050Y-112267274D01*
X191530046Y-112267266D01*
X191392939Y-112057409D01*
X191395115Y-112055986D01*
X191359452Y-111984956D01*
X191350500Y-111918792D01*
X191350500Y-111769497D01*
X191369455Y-111674210D01*
X191423432Y-111593429D01*
X191504213Y-111539453D01*
X191599500Y-111520500D01*
X193400500Y-111520500D01*
X193495788Y-111539454D01*
X193576570Y-111593430D01*
X193630546Y-111674212D01*
X193649500Y-111769500D01*
X193649500Y-131310500D01*
X193630546Y-131405788D01*
X193576570Y-131486570D01*
X193495788Y-131540546D01*
X193400500Y-131559500D01*
X191464037Y-131559500D01*
X191368749Y-131540546D01*
X191287967Y-131486570D01*
X191233991Y-131405788D01*
X191215037Y-131310500D01*
X191233991Y-131215212D01*
X191280842Y-131141857D01*
X191314254Y-131105562D01*
X191398571Y-131013969D01*
X191530049Y-130812728D01*
X191626610Y-130592591D01*
X191685620Y-130359563D01*
X191705471Y-130120000D01*
X191685620Y-129880437D01*
X191626610Y-129647409D01*
X191597869Y-129581886D01*
X191530050Y-129427274D01*
X191530049Y-129427272D01*
X191463534Y-129325464D01*
X191398571Y-129226031D01*
X191235764Y-129049175D01*
X191232322Y-129046496D01*
X191230250Y-129044100D01*
X191228188Y-129042202D01*
X191228404Y-129041966D01*
X191168769Y-128973015D01*
X191138173Y-128880803D01*
X191145193Y-128783902D01*
X191188762Y-128697064D01*
X191232321Y-128653504D01*
X191235764Y-128650825D01*
X191398571Y-128473969D01*
X191530049Y-128272728D01*
X191626610Y-128052591D01*
X191685620Y-127819563D01*
X191705471Y-127580000D01*
X191685620Y-127340437D01*
X191626610Y-127107409D01*
X191530049Y-126887272D01*
X191398571Y-126686031D01*
X191235764Y-126509175D01*
X191235755Y-126509168D01*
X191235752Y-126509165D01*
X191232314Y-126506489D01*
X191230240Y-126504091D01*
X191228188Y-126502202D01*
X191228403Y-126501967D01*
X191168762Y-126433002D01*
X191138171Y-126340789D01*
X191145197Y-126243888D01*
X191188770Y-126157053D01*
X191232328Y-126113499D01*
X191235764Y-126110825D01*
X191398571Y-125933969D01*
X191530049Y-125732728D01*
X191626610Y-125512591D01*
X191685620Y-125279563D01*
X191705471Y-125040000D01*
X191685620Y-124800437D01*
X191626610Y-124567409D01*
X191587473Y-124478186D01*
X191566554Y-124383313D01*
X191583534Y-124287653D01*
X191635829Y-124205773D01*
X191658147Y-124185186D01*
X191810751Y-124060753D01*
X191810754Y-124060750D01*
X191939276Y-123903132D01*
X191939280Y-123903126D01*
X192033439Y-123722867D01*
X192033442Y-123722859D01*
X192089389Y-123527333D01*
X192089390Y-123527328D01*
X192100000Y-123408008D01*
X192100000Y-122750000D01*
X190999000Y-122750000D01*
X190903712Y-122731046D01*
X190822930Y-122677070D01*
X190768954Y-122596288D01*
X190750000Y-122501000D01*
X190750000Y-122499000D01*
X190768954Y-122403712D01*
X190822930Y-122322930D01*
X190903712Y-122268954D01*
X190999000Y-122250000D01*
X192099999Y-122250000D01*
X192100000Y-122249999D01*
X192100000Y-121591992D01*
X192089390Y-121472671D01*
X192089389Y-121472666D01*
X192033442Y-121277140D01*
X192033439Y-121277132D01*
X191939280Y-121096873D01*
X191939276Y-121096867D01*
X191810754Y-120939249D01*
X191810750Y-120939245D01*
X191653132Y-120810723D01*
X191653126Y-120810719D01*
X191472867Y-120716560D01*
X191472859Y-120716557D01*
X191277333Y-120660610D01*
X191277328Y-120660609D01*
X191158008Y-120650000D01*
X190500001Y-120650000D01*
X190500000Y-120650001D01*
X190500000Y-121751000D01*
X190481046Y-121846288D01*
X190427070Y-121927070D01*
X190346288Y-121981046D01*
X190251000Y-122000000D01*
X190249000Y-122000000D01*
X190153712Y-121981046D01*
X190072930Y-121927070D01*
X190018954Y-121846288D01*
X190000000Y-121751000D01*
X190000000Y-120650001D01*
X189999999Y-120650000D01*
X189341992Y-120650000D01*
X189222671Y-120660609D01*
X189222666Y-120660610D01*
X189027140Y-120716557D01*
X189027132Y-120716560D01*
X188846873Y-120810719D01*
X188846867Y-120810723D01*
X188689249Y-120939245D01*
X188689245Y-120939249D01*
X188560723Y-121096867D01*
X188560719Y-121096873D01*
X188466560Y-121277132D01*
X188466557Y-121277140D01*
X188410610Y-121472666D01*
X188410609Y-121472671D01*
X188400000Y-121591992D01*
X188400000Y-122249998D01*
X188400001Y-122250000D01*
X189501000Y-122250000D01*
X189596288Y-122268954D01*
X189677070Y-122322930D01*
X189731046Y-122403712D01*
X189750000Y-122499000D01*
X189750000Y-122501000D01*
X189731046Y-122596288D01*
X189677070Y-122677070D01*
X189596288Y-122731046D01*
X189501000Y-122750000D01*
X188400000Y-122750000D01*
X188400000Y-123408008D01*
X188410609Y-123527328D01*
X188410610Y-123527333D01*
X188466557Y-123722859D01*
X188466560Y-123722867D01*
X188560719Y-123903126D01*
X188560723Y-123903132D01*
X188689245Y-124060750D01*
X188689254Y-124060759D01*
X188841852Y-124185187D01*
X188903724Y-124260093D01*
X188932221Y-124352975D01*
X188923004Y-124449692D01*
X188912526Y-124478187D01*
X188873389Y-124567409D01*
X188814380Y-124800433D01*
X188794529Y-125040000D01*
X188814380Y-125279566D01*
X188873389Y-125512590D01*
X188969949Y-125732725D01*
X188969950Y-125732727D01*
X188969951Y-125732728D01*
X189101429Y-125933969D01*
X189264236Y-126110825D01*
X189267675Y-126113502D01*
X189269747Y-126115897D01*
X189271812Y-126117798D01*
X189271595Y-126118033D01*
X189331229Y-126186982D01*
X189361826Y-126279193D01*
X189354807Y-126376094D01*
X189311239Y-126462933D01*
X189267694Y-126506483D01*
X189264244Y-126509168D01*
X189264235Y-126509176D01*
X189101428Y-126686032D01*
X188969950Y-126887272D01*
X188969949Y-126887274D01*
X188873389Y-127107409D01*
X188814380Y-127340433D01*
X188794529Y-127580000D01*
X188814380Y-127819566D01*
X188873389Y-128052590D01*
X188969949Y-128272725D01*
X188969950Y-128272727D01*
X189017726Y-128345853D01*
X189101429Y-128473969D01*
X189264236Y-128650825D01*
X189267086Y-128653043D01*
X189267683Y-128653508D01*
X189269757Y-128655906D01*
X189271812Y-128657798D01*
X189271595Y-128658032D01*
X189331235Y-128726994D01*
X189361828Y-128819207D01*
X189354803Y-128916108D01*
X189311231Y-129002944D01*
X189267683Y-129046492D01*
X189264243Y-129049169D01*
X189264235Y-129049176D01*
X189101428Y-129226032D01*
X188969950Y-129427272D01*
X188969949Y-129427274D01*
X188873389Y-129647409D01*
X188814380Y-129880433D01*
X188794529Y-130120000D01*
X188814380Y-130359566D01*
X188873389Y-130592590D01*
X188969949Y-130812725D01*
X188969950Y-130812727D01*
X188969951Y-130812728D01*
X189101429Y-131013969D01*
X189264236Y-131190825D01*
X189265701Y-131191965D01*
X189267683Y-131193508D01*
X189269757Y-131195906D01*
X189271812Y-131197798D01*
X189271595Y-131198032D01*
X189331235Y-131266994D01*
X189361828Y-131359207D01*
X189354803Y-131456108D01*
X189311231Y-131542944D01*
X189267683Y-131586492D01*
X189264243Y-131589169D01*
X189264235Y-131589176D01*
X189101428Y-131766032D01*
X188969950Y-131967272D01*
X188969949Y-131967274D01*
X188873389Y-132187409D01*
X188814380Y-132420433D01*
X188794529Y-132660000D01*
X188814380Y-132899566D01*
X188873389Y-133132590D01*
X188969949Y-133352725D01*
X188969950Y-133352727D01*
X188969951Y-133352728D01*
X189101429Y-133553969D01*
X189264236Y-133730825D01*
X189453933Y-133878472D01*
X189665344Y-133992882D01*
X189892703Y-134070934D01*
X190129808Y-134110500D01*
X190370192Y-134110500D01*
X190607297Y-134070934D01*
X190834656Y-133992882D01*
X191046067Y-133878472D01*
X191108532Y-133829853D01*
X191130181Y-133813004D01*
X191217019Y-133769434D01*
X191283120Y-133760500D01*
X192832018Y-133760500D01*
X192927306Y-133779454D01*
X193008088Y-133833430D01*
X193062064Y-133914212D01*
X193081018Y-134009500D01*
X193062064Y-134104788D01*
X193008088Y-134185570D01*
X185717088Y-141476570D01*
X185636306Y-141530546D01*
X185541018Y-141549500D01*
X148965962Y-141549500D01*
X148870674Y-141530546D01*
X148789892Y-141476570D01*
X148739465Y-141403941D01*
X148646664Y-141200734D01*
X148463557Y-140897085D01*
X148247029Y-140616287D01*
X147999905Y-140362003D01*
X147725405Y-140137545D01*
X147427109Y-139945841D01*
X147427110Y-139945841D01*
X147427104Y-139945838D01*
X147379654Y-139922508D01*
X147302506Y-139863455D01*
X147253829Y-139779374D01*
X147241034Y-139683065D01*
X147266069Y-139589191D01*
X147325122Y-139512043D01*
X147367075Y-139482244D01*
X147578995Y-139362568D01*
X147865861Y-139154147D01*
X148127099Y-138914385D01*
X148359304Y-138646407D01*
X148404694Y-138580026D01*
X162439500Y-138580026D01*
X162454498Y-138789722D01*
X162514109Y-139063747D01*
X162612110Y-139326500D01*
X162612112Y-139326504D01*
X162746508Y-139572633D01*
X162914563Y-139797128D01*
X162914565Y-139797130D01*
X162914568Y-139797134D01*
X163112866Y-139995432D01*
X163337366Y-140163491D01*
X163583498Y-140297889D01*
X163846252Y-140395891D01*
X164120279Y-140455502D01*
X164400000Y-140475508D01*
X164679721Y-140455502D01*
X164953748Y-140395891D01*
X165216502Y-140297889D01*
X165462634Y-140163491D01*
X165687134Y-139995432D01*
X165885432Y-139797134D01*
X166053491Y-139572634D01*
X166187889Y-139326502D01*
X166285891Y-139063748D01*
X166345502Y-138789721D01*
X166360500Y-138580026D01*
X172039500Y-138580026D01*
X172054498Y-138789722D01*
X172114109Y-139063747D01*
X172212110Y-139326500D01*
X172212112Y-139326504D01*
X172346508Y-139572633D01*
X172514563Y-139797128D01*
X172514565Y-139797130D01*
X172514568Y-139797134D01*
X172712866Y-139995432D01*
X172937366Y-140163491D01*
X173183498Y-140297889D01*
X173446252Y-140395891D01*
X173720279Y-140455502D01*
X174000000Y-140475508D01*
X174279721Y-140455502D01*
X174553748Y-140395891D01*
X174816502Y-140297889D01*
X175062634Y-140163491D01*
X175287134Y-139995432D01*
X175485432Y-139797134D01*
X175653491Y-139572634D01*
X175787889Y-139326502D01*
X175885891Y-139063748D01*
X175945502Y-138789721D01*
X175960500Y-138580021D01*
X175960500Y-137919979D01*
X175945502Y-137710279D01*
X175885891Y-137436252D01*
X175787889Y-137173498D01*
X175653491Y-136927366D01*
X175485432Y-136702866D01*
X175287134Y-136504568D01*
X175287130Y-136504565D01*
X175287128Y-136504563D01*
X175062633Y-136336508D01*
X174816504Y-136202112D01*
X174816500Y-136202110D01*
X174749749Y-136177213D01*
X174553748Y-136104109D01*
X174279722Y-136044498D01*
X174139860Y-136034494D01*
X174000000Y-136024492D01*
X173999999Y-136024492D01*
X173720277Y-136044498D01*
X173446252Y-136104109D01*
X173183499Y-136202110D01*
X173183495Y-136202112D01*
X172937366Y-136336508D01*
X172712871Y-136504563D01*
X172514563Y-136702871D01*
X172346508Y-136927366D01*
X172212112Y-137173495D01*
X172212110Y-137173499D01*
X172114109Y-137436252D01*
X172054498Y-137710277D01*
X172039500Y-137919974D01*
X172039500Y-138580026D01*
X166360500Y-138580026D01*
X166360500Y-138580021D01*
X166360500Y-137919979D01*
X166345502Y-137710279D01*
X166285891Y-137436252D01*
X166187889Y-137173498D01*
X166053491Y-136927366D01*
X165885432Y-136702866D01*
X165687134Y-136504568D01*
X165687130Y-136504565D01*
X165687128Y-136504563D01*
X165462633Y-136336508D01*
X165216504Y-136202112D01*
X165216500Y-136202110D01*
X165149749Y-136177213D01*
X164953748Y-136104109D01*
X164679722Y-136044498D01*
X164539860Y-136034494D01*
X164400000Y-136024492D01*
X164399999Y-136024492D01*
X164120277Y-136044498D01*
X163846252Y-136104109D01*
X163583499Y-136202110D01*
X163583495Y-136202112D01*
X163337366Y-136336508D01*
X163112871Y-136504563D01*
X162914563Y-136702871D01*
X162746508Y-136927366D01*
X162612112Y-137173495D01*
X162612110Y-137173499D01*
X162514109Y-137436252D01*
X162454498Y-137710277D01*
X162439500Y-137919974D01*
X162439500Y-138580026D01*
X148404694Y-138580026D01*
X148559448Y-138353706D01*
X148724921Y-138040098D01*
X148853568Y-137709672D01*
X148943710Y-137366736D01*
X148994173Y-137015759D01*
X149004299Y-136661317D01*
X148973955Y-136308032D01*
X148903537Y-135960508D01*
X148793964Y-135623277D01*
X148793961Y-135623270D01*
X148646669Y-135300744D01*
X148646667Y-135300740D01*
X148646664Y-135300734D01*
X148463557Y-134997085D01*
X148247029Y-134716287D01*
X148014259Y-134476773D01*
X147999910Y-134462008D01*
X147999909Y-134462007D01*
X147999908Y-134462006D01*
X147999905Y-134462003D01*
X147725405Y-134237545D01*
X147704759Y-134224277D01*
X147663778Y-134197939D01*
X147593864Y-134130477D01*
X147555089Y-134041395D01*
X147553356Y-133944255D01*
X147588928Y-133853847D01*
X147656390Y-133783933D01*
X147673832Y-133773409D01*
X147673641Y-133773084D01*
X147679342Y-133769724D01*
X147990257Y-133563472D01*
X148277459Y-133325361D01*
X148537737Y-133058059D01*
X148537739Y-133058057D01*
X148768125Y-132764610D01*
X148966017Y-132448334D01*
X149129167Y-132112817D01*
X149129174Y-132112800D01*
X149255731Y-131761863D01*
X149344275Y-131399434D01*
X149393793Y-131029652D01*
X149394584Y-131000000D01*
X147154109Y-131000000D01*
X147058821Y-130981046D01*
X146978039Y-130927070D01*
X146924063Y-130846288D01*
X146905109Y-130751000D01*
X146905109Y-130750000D01*
X164795147Y-130750000D01*
X164814536Y-131021090D01*
X164872308Y-131286660D01*
X164967284Y-131541302D01*
X165097535Y-131779838D01*
X165191320Y-131905122D01*
X165992195Y-131104249D01*
X166072977Y-131050273D01*
X166168265Y-131031319D01*
X166263553Y-131050273D01*
X166331340Y-131092150D01*
X166332858Y-131093465D01*
X166392452Y-131170196D01*
X166418147Y-131263891D01*
X166406030Y-131360288D01*
X166357947Y-131444710D01*
X166345850Y-131457701D01*
X165544875Y-132258677D01*
X165544875Y-132258678D01*
X165670156Y-132352462D01*
X165908697Y-132482715D01*
X166163339Y-132577691D01*
X166428909Y-132635463D01*
X166700000Y-132654852D01*
X166971090Y-132635463D01*
X167236660Y-132577691D01*
X167491303Y-132482715D01*
X167491307Y-132482713D01*
X167729834Y-132352467D01*
X167729843Y-132352462D01*
X167855123Y-132258678D01*
X167855123Y-132258677D01*
X167054149Y-131457701D01*
X167000173Y-131376920D01*
X166981219Y-131281632D01*
X167000173Y-131186344D01*
X167054150Y-131105562D01*
X167067123Y-131093481D01*
X167068660Y-131092149D01*
X167153078Y-131044069D01*
X167249475Y-131031952D01*
X167343170Y-131057647D01*
X167407804Y-131104249D01*
X168223462Y-131919907D01*
X168239500Y-131921922D01*
X168313804Y-131961683D01*
X168376486Y-132010471D01*
X168376489Y-132010473D01*
X168376491Y-132010474D01*
X168595190Y-132128828D01*
X168664736Y-132152703D01*
X168830378Y-132209569D01*
X168830382Y-132209569D01*
X168830386Y-132209571D01*
X169075665Y-132250500D01*
X169324335Y-132250500D01*
X169569614Y-132209571D01*
X169569618Y-132209569D01*
X169569621Y-132209569D01*
X169671676Y-132174533D01*
X169804810Y-132128828D01*
X170023509Y-132010474D01*
X170023517Y-132010467D01*
X170027565Y-132007824D01*
X170030833Y-132006509D01*
X170032566Y-132005572D01*
X170032673Y-132005769D01*
X170117704Y-131971576D01*
X170214854Y-131972581D01*
X170304224Y-132010688D01*
X170361294Y-132064697D01*
X170371718Y-132078282D01*
X170497159Y-132174536D01*
X170643238Y-132235044D01*
X170760639Y-132250500D01*
X172639360Y-132250499D01*
X172756762Y-132235044D01*
X172902841Y-132174536D01*
X173028282Y-132078282D01*
X173124536Y-131952841D01*
X173185044Y-131806762D01*
X173200500Y-131689361D01*
X173200499Y-129810640D01*
X173185044Y-129693238D01*
X173124536Y-129547159D01*
X173057582Y-129459902D01*
X173028286Y-129421723D01*
X173028285Y-129421722D01*
X173028282Y-129421718D01*
X173028277Y-129421714D01*
X173028276Y-129421713D01*
X172902844Y-129325466D01*
X172902843Y-129325465D01*
X172902841Y-129325464D01*
X172756762Y-129264956D01*
X172756760Y-129264955D01*
X172639362Y-129249500D01*
X170760639Y-129249500D01*
X170760637Y-129249501D01*
X170643238Y-129264955D01*
X170556862Y-129300734D01*
X170497159Y-129325464D01*
X170497158Y-129325464D01*
X170497155Y-129325466D01*
X170371723Y-129421713D01*
X170371713Y-129421723D01*
X170361294Y-129435302D01*
X170288248Y-129499360D01*
X170196249Y-129530588D01*
X170099302Y-129524233D01*
X170032572Y-129494415D01*
X170032566Y-129494428D01*
X170032404Y-129494340D01*
X170027576Y-129492183D01*
X170023511Y-129489527D01*
X169804811Y-129371172D01*
X169569621Y-129290430D01*
X169569610Y-129290428D01*
X169324335Y-129249500D01*
X169075665Y-129249500D01*
X168830389Y-129290428D01*
X168830378Y-129290430D01*
X168595188Y-129371172D01*
X168376493Y-129489525D01*
X168376481Y-129489532D01*
X168313802Y-129538317D01*
X168226964Y-129581886D01*
X168221085Y-129582467D01*
X167407802Y-130395749D01*
X167327021Y-130449725D01*
X167231733Y-130468679D01*
X167136445Y-130449725D01*
X167068726Y-130407907D01*
X167068184Y-130407438D01*
X167067209Y-130406593D01*
X167007588Y-130329887D01*
X166981857Y-130236201D01*
X166993938Y-130139800D01*
X167041990Y-130055360D01*
X167054148Y-130042298D01*
X167855123Y-129241321D01*
X167729838Y-129147535D01*
X167729839Y-129147535D01*
X167491302Y-129017284D01*
X167236660Y-128922308D01*
X166971090Y-128864536D01*
X166699999Y-128845147D01*
X166428909Y-128864536D01*
X166163339Y-128922308D01*
X165908697Y-129017284D01*
X165670156Y-129147538D01*
X165544875Y-129241320D01*
X165544875Y-129241321D01*
X166345850Y-130042298D01*
X166399826Y-130123079D01*
X166418780Y-130218367D01*
X166399826Y-130313655D01*
X166345849Y-130394437D01*
X166332858Y-130406534D01*
X166331343Y-130407847D01*
X166246921Y-130455930D01*
X166150524Y-130468047D01*
X166056829Y-130442352D01*
X165992195Y-130395750D01*
X165191320Y-129594875D01*
X165097538Y-129720156D01*
X164967284Y-129958697D01*
X164872308Y-130213339D01*
X164814536Y-130478909D01*
X164795147Y-130750000D01*
X146905109Y-130750000D01*
X146905109Y-130749000D01*
X146924063Y-130653712D01*
X146978039Y-130572930D01*
X147058821Y-130518954D01*
X147154109Y-130500000D01*
X149391184Y-130500000D01*
X149373958Y-130284798D01*
X149304832Y-129918184D01*
X149197125Y-129560984D01*
X149052055Y-129217244D01*
X148871280Y-128890889D01*
X148656840Y-128585599D01*
X148656832Y-128585588D01*
X148411164Y-128304829D01*
X148411159Y-128304824D01*
X148137028Y-128051760D01*
X147837537Y-127829254D01*
X147837535Y-127829253D01*
X147516113Y-127639858D01*
X147176376Y-127485699D01*
X146822161Y-127368518D01*
X146457498Y-127289653D01*
X146086551Y-127250000D01*
X145150001Y-127250000D01*
X145150000Y-127250001D01*
X145150000Y-128501000D01*
X145131046Y-128596288D01*
X145077070Y-128677070D01*
X144996288Y-128731046D01*
X144901000Y-128750000D01*
X144899000Y-128750000D01*
X144803712Y-128731046D01*
X144722930Y-128677070D01*
X144668954Y-128596288D01*
X144650000Y-128501000D01*
X144650000Y-127250001D01*
X144649999Y-127250000D01*
X143806777Y-127250000D01*
X143527442Y-127264888D01*
X143159103Y-127324233D01*
X142799179Y-127422389D01*
X142451713Y-127558250D01*
X142451693Y-127558259D01*
X142120656Y-127730275D01*
X141809742Y-127936527D01*
X141522540Y-128174638D01*
X141262262Y-128441940D01*
X141262260Y-128441942D01*
X141031874Y-128735389D01*
X140833982Y-129051665D01*
X140670832Y-129387182D01*
X140670825Y-129387199D01*
X140544268Y-129738136D01*
X140455724Y-130100565D01*
X140406206Y-130470347D01*
X140405416Y-130500000D01*
X142645891Y-130500000D01*
X142741179Y-130518954D01*
X142821961Y-130572930D01*
X142875937Y-130653712D01*
X142894891Y-130749000D01*
X142894891Y-130751000D01*
X142875937Y-130846288D01*
X142821961Y-130927070D01*
X142741179Y-130981046D01*
X142645891Y-131000000D01*
X140408816Y-131000000D01*
X140426041Y-131215201D01*
X140495167Y-131581815D01*
X140602874Y-131939015D01*
X140747944Y-132282755D01*
X140928719Y-132609110D01*
X141143159Y-132914400D01*
X141143167Y-132914411D01*
X141388835Y-133195170D01*
X141388840Y-133195175D01*
X141662971Y-133448239D01*
X141962460Y-133670743D01*
X142132749Y-133771084D01*
X142205223Y-133835788D01*
X142247420Y-133923302D01*
X142252914Y-134020301D01*
X142220870Y-134112019D01*
X142156166Y-134184493D01*
X142152701Y-134187057D01*
X141934143Y-134345849D01*
X141934139Y-134345852D01*
X141672904Y-134585612D01*
X141440700Y-134853586D01*
X141240557Y-135146286D01*
X141240553Y-135146292D01*
X141075082Y-135459894D01*
X140946434Y-135790320D01*
X140946431Y-135790328D01*
X140946432Y-135790328D01*
X140863954Y-136104109D01*
X140856289Y-136133269D01*
X140805827Y-136484233D01*
X140805826Y-136484239D01*
X140795700Y-136838669D01*
X140826044Y-137191965D01*
X140896463Y-137539493D01*
X140896463Y-137539494D01*
X141006034Y-137876719D01*
X141006038Y-137876729D01*
X141153330Y-138199255D01*
X141153334Y-138199261D01*
X141153336Y-138199266D01*
X141246049Y-138353014D01*
X141336440Y-138502911D01*
X141336442Y-138502914D01*
X141336443Y-138502915D01*
X141552971Y-138783713D01*
X141800095Y-139037997D01*
X142074595Y-139262455D01*
X142372888Y-139454157D01*
X142372893Y-139454160D01*
X142420343Y-139477490D01*
X142497492Y-139536543D01*
X142546169Y-139620623D01*
X142558965Y-139716932D01*
X142533931Y-139810806D01*
X142474878Y-139887955D01*
X142432922Y-139917757D01*
X142221005Y-140037432D01*
X142221003Y-140037433D01*
X142221002Y-140037434D01*
X141934143Y-140245849D01*
X141934139Y-140245852D01*
X141672904Y-140485612D01*
X141440700Y-140753586D01*
X141240557Y-141046286D01*
X141240553Y-141046292D01*
X141075082Y-141359894D01*
X140946434Y-141690320D01*
X140856289Y-142033269D01*
X140805827Y-142384233D01*
X140805826Y-142384239D01*
X140795700Y-142738669D01*
X140826044Y-143091965D01*
X140896463Y-143439493D01*
X140896463Y-143439494D01*
X141006034Y-143776719D01*
X141006038Y-143776729D01*
X141153330Y-144099255D01*
X141153334Y-144099261D01*
X141153336Y-144099266D01*
X141217130Y-144205057D01*
X141336440Y-144402911D01*
X141336442Y-144402914D01*
X141336443Y-144402915D01*
X141552971Y-144683713D01*
X141679964Y-144814385D01*
X141799177Y-144937053D01*
X141800095Y-144937997D01*
X142074595Y-145162455D01*
X142372891Y-145354159D01*
X142691096Y-145510609D01*
X143025061Y-145629768D01*
X143370432Y-145710080D01*
X143634638Y-145740394D01*
X143722706Y-145750500D01*
X143722707Y-145750500D01*
X145988578Y-145750500D01*
X146165530Y-145740381D01*
X146254008Y-145735322D01*
X146603400Y-145674857D01*
X146943623Y-145574959D01*
X147270241Y-145436929D01*
X147578995Y-145262568D01*
X147865861Y-145054147D01*
X148127099Y-144814385D01*
X148359304Y-144546407D01*
X148559448Y-144253706D01*
X148724921Y-143940098D01*
X148736966Y-143909158D01*
X148789197Y-143827244D01*
X148868803Y-143771549D01*
X148963664Y-143750557D01*
X148968999Y-143750500D01*
X185987325Y-143750500D01*
X186009267Y-143752332D01*
X186009302Y-143751843D01*
X186021130Y-143752688D01*
X186021134Y-143752689D01*
X186021137Y-143752688D01*
X186021139Y-143752689D01*
X186097759Y-143750864D01*
X186113084Y-143750500D01*
X186152425Y-143750500D01*
X186152428Y-143750500D01*
X186161052Y-143749676D01*
X186169929Y-143749146D01*
X186231245Y-143747687D01*
X186262610Y-143740863D01*
X186277243Y-143738580D01*
X186309218Y-143735528D01*
X186368071Y-143718246D01*
X186376678Y-143716050D01*
X186393135Y-143712469D01*
X186436612Y-143703013D01*
X186466140Y-143690367D01*
X186480059Y-143685363D01*
X186510875Y-143676316D01*
X186565425Y-143648192D01*
X186573406Y-143644432D01*
X186575160Y-143643681D01*
X190399500Y-143643681D01*
X190438627Y-143928351D01*
X190516155Y-144205057D01*
X190630639Y-144468626D01*
X190779944Y-144714146D01*
X190779945Y-144714147D01*
X190961292Y-144937053D01*
X191171302Y-145133189D01*
X191406064Y-145298901D01*
X191661203Y-145431104D01*
X191931968Y-145527334D01*
X192213314Y-145585798D01*
X192213321Y-145585798D01*
X192213324Y-145585799D01*
X192428243Y-145600500D01*
X192428248Y-145600500D01*
X192571757Y-145600500D01*
X192786675Y-145585799D01*
X192786677Y-145585798D01*
X192786686Y-145585798D01*
X193068032Y-145527334D01*
X193338797Y-145431104D01*
X193593936Y-145298901D01*
X193828698Y-145133189D01*
X194038708Y-144937053D01*
X194220055Y-144714147D01*
X194369361Y-144468625D01*
X194483844Y-144205058D01*
X194561371Y-143928358D01*
X194600500Y-143643678D01*
X194600500Y-143356322D01*
X194564165Y-143091968D01*
X194561372Y-143071648D01*
X194561371Y-143071646D01*
X194561371Y-143071642D01*
X194483844Y-142794942D01*
X194369361Y-142531375D01*
X194220055Y-142285853D01*
X194038708Y-142062947D01*
X193828698Y-141866811D01*
X193593936Y-141701099D01*
X193573134Y-141690320D01*
X193338802Y-141568898D01*
X193338800Y-141568897D01*
X193284222Y-141549500D01*
X193068032Y-141472666D01*
X192939430Y-141445942D01*
X192786692Y-141414203D01*
X192786675Y-141414200D01*
X192571757Y-141399500D01*
X192571752Y-141399500D01*
X192428248Y-141399500D01*
X192428243Y-141399500D01*
X192213324Y-141414200D01*
X192213307Y-141414203D01*
X191931968Y-141472666D01*
X191661199Y-141568897D01*
X191661197Y-141568898D01*
X191406065Y-141701098D01*
X191171304Y-141866809D01*
X191171303Y-141866810D01*
X190961290Y-142062949D01*
X190779944Y-142285853D01*
X190630639Y-142531373D01*
X190516155Y-142794942D01*
X190438627Y-143071648D01*
X190399500Y-143356318D01*
X190399500Y-143643681D01*
X186575160Y-143643681D01*
X186629812Y-143620279D01*
X186656401Y-143602281D01*
X186669123Y-143594732D01*
X186697682Y-143580011D01*
X186745904Y-143542086D01*
X186753070Y-143536853D01*
X186803865Y-143502477D01*
X186826573Y-143479767D01*
X186837655Y-143469933D01*
X186862883Y-143450094D01*
X186862886Y-143450092D01*
X186903051Y-143403737D01*
X186909087Y-143397253D01*
X195448501Y-134857839D01*
X195465307Y-134843627D01*
X195464985Y-134843255D01*
X195473941Y-134835493D01*
X195473952Y-134835486D01*
X195537427Y-134768914D01*
X195565241Y-134741101D01*
X195570761Y-134734414D01*
X195576662Y-134727765D01*
X195618986Y-134683378D01*
X195636345Y-134656364D01*
X195645074Y-134644409D01*
X195665523Y-134619645D01*
X195694926Y-134565794D01*
X195699452Y-134558170D01*
X195732613Y-134506572D01*
X195744547Y-134476758D01*
X195750858Y-134463364D01*
X195766247Y-134435183D01*
X195784930Y-134376733D01*
X195787919Y-134368420D01*
X195810725Y-134311457D01*
X195816801Y-134279929D01*
X195820468Y-134265566D01*
X195830242Y-134234992D01*
X195837526Y-134174064D01*
X195838892Y-134165309D01*
X195844266Y-134137429D01*
X195850500Y-134105085D01*
X195850500Y-134072973D01*
X195851380Y-134058188D01*
X195855192Y-134026309D01*
X195850817Y-133965135D01*
X195850500Y-133956251D01*
X195850500Y-132862671D01*
X195852332Y-132840727D01*
X195851843Y-132840693D01*
X195852689Y-132828862D01*
X195850499Y-132736916D01*
X195850500Y-132697575D01*
X195850500Y-110322973D01*
X195851380Y-110308188D01*
X195855192Y-110276309D01*
X195850817Y-110215135D01*
X195850500Y-110206251D01*
X195850500Y-108447575D01*
X195850500Y-84917380D01*
X195850500Y-61362660D01*
X195852333Y-61340729D01*
X195851843Y-61340694D01*
X195852689Y-61328862D01*
X195850499Y-61236916D01*
X195850499Y-61223712D01*
X195850500Y-61197575D01*
X195849676Y-61188948D01*
X195849146Y-61180067D01*
X195847687Y-61118757D01*
X195847687Y-61118755D01*
X195840861Y-61087381D01*
X195838579Y-61072741D01*
X195838317Y-61070000D01*
X195835528Y-61040782D01*
X195818246Y-60981929D01*
X195816053Y-60973337D01*
X195803013Y-60913388D01*
X195790373Y-60883871D01*
X195785359Y-60869923D01*
X195784006Y-60865315D01*
X195776316Y-60839125D01*
X195748204Y-60784596D01*
X195744426Y-60776577D01*
X195720279Y-60720188D01*
X195702279Y-60693594D01*
X195694730Y-60680871D01*
X195680011Y-60652318D01*
X195680009Y-60652315D01*
X195680005Y-60652309D01*
X195642097Y-60604108D01*
X195636853Y-60596926D01*
X195623367Y-60577001D01*
X195602477Y-60546135D01*
X195602474Y-60546132D01*
X195602473Y-60546130D01*
X195579770Y-60523427D01*
X195569935Y-60512346D01*
X195566676Y-60508202D01*
X195550092Y-60487114D01*
X195503739Y-60446949D01*
X195497241Y-60440898D01*
X193107841Y-58051499D01*
X193093627Y-58034694D01*
X193093257Y-58035016D01*
X193085491Y-58026053D01*
X193059071Y-58000862D01*
X193018914Y-57962572D01*
X192991101Y-57934759D01*
X192984398Y-57929225D01*
X192977759Y-57923331D01*
X192933378Y-57881014D01*
X192933375Y-57881012D01*
X192933374Y-57881011D01*
X192906370Y-57863656D01*
X192894408Y-57854921D01*
X192886710Y-57848565D01*
X192869650Y-57834479D01*
X192869642Y-57834474D01*
X192815810Y-57805079D01*
X192808164Y-57800543D01*
X192756579Y-57767391D01*
X192756568Y-57767385D01*
X192726763Y-57755452D01*
X192713361Y-57749138D01*
X192700936Y-57742354D01*
X192685183Y-57733752D01*
X192685179Y-57733750D01*
X192685173Y-57733748D01*
X192626750Y-57715072D01*
X192618386Y-57712065D01*
X192561455Y-57689274D01*
X192561450Y-57689272D01*
X192529935Y-57683198D01*
X192515582Y-57679535D01*
X192484993Y-57669758D01*
X192424089Y-57662475D01*
X192415310Y-57661106D01*
X192355086Y-57649500D01*
X192355085Y-57649500D01*
X192322974Y-57649500D01*
X192308186Y-57648619D01*
X192276309Y-57644808D01*
X192276308Y-57644808D01*
X192215131Y-57649183D01*
X192206248Y-57649500D01*
X175112672Y-57649500D01*
X175090728Y-57647667D01*
X175090693Y-57648157D01*
X175078861Y-57647310D01*
X174988832Y-57649454D01*
X174986916Y-57649500D01*
X174947563Y-57649500D01*
X174938907Y-57650326D01*
X174930051Y-57650853D01*
X174868758Y-57652312D01*
X174868749Y-57652313D01*
X174837382Y-57659136D01*
X174822746Y-57661419D01*
X174790790Y-57664470D01*
X174790782Y-57664472D01*
X174731936Y-57681749D01*
X174723327Y-57683946D01*
X174663391Y-57696985D01*
X174663389Y-57696986D01*
X174633869Y-57709627D01*
X174619929Y-57714638D01*
X174589125Y-57723683D01*
X174548365Y-57744696D01*
X174534603Y-57751790D01*
X174526572Y-57755574D01*
X174470188Y-57779719D01*
X174470182Y-57779723D01*
X174443593Y-57797718D01*
X174430860Y-57805272D01*
X174402315Y-57819990D01*
X174402312Y-57819992D01*
X174354099Y-57857907D01*
X174346922Y-57863148D01*
X174296137Y-57897520D01*
X174296135Y-57897521D01*
X174273430Y-57920226D01*
X174262353Y-57930057D01*
X174237117Y-57949904D01*
X174196957Y-57996250D01*
X174190901Y-58002755D01*
X174051069Y-58142587D01*
X173970287Y-58196563D01*
X173874999Y-58215517D01*
X173779711Y-58196563D01*
X173698929Y-58142587D01*
X171857841Y-56301499D01*
X171843627Y-56284694D01*
X171843257Y-56285016D01*
X171835486Y-56276048D01*
X171810797Y-56252507D01*
X171754913Y-56173033D01*
X171733697Y-56078223D01*
X171750379Y-55982510D01*
X171802418Y-55900468D01*
X171806457Y-55896329D01*
X171908374Y-55794412D01*
X171915795Y-55787571D01*
X171956100Y-55753337D01*
X172005104Y-55688872D01*
X172055842Y-55625753D01*
X172055842Y-55625751D01*
X172062063Y-55616018D01*
X172068050Y-55606069D01*
X172068054Y-55606064D01*
X172102055Y-55532570D01*
X172138037Y-55460021D01*
X172138038Y-55460016D01*
X172142037Y-55449129D01*
X172145732Y-55438166D01*
X172147287Y-55431104D01*
X172163139Y-55359083D01*
X172182684Y-55280494D01*
X172182684Y-55280490D01*
X172184244Y-55269041D01*
X172185500Y-55257495D01*
X172185500Y-55176531D01*
X172185584Y-55173430D01*
X172187693Y-55095567D01*
X172187691Y-55095557D01*
X172186597Y-55082113D01*
X172190205Y-55081819D01*
X172190693Y-55010584D01*
X172228486Y-54921081D01*
X172297653Y-54852854D01*
X172387665Y-54816290D01*
X172484818Y-54816955D01*
X172574321Y-54854748D01*
X172632115Y-54909251D01*
X172646718Y-54928282D01*
X172646722Y-54928285D01*
X172646723Y-54928286D01*
X172753976Y-55010584D01*
X172772159Y-55024536D01*
X172918238Y-55085044D01*
X173035639Y-55100500D01*
X174714360Y-55100499D01*
X174831762Y-55085044D01*
X174977841Y-55024536D01*
X175103282Y-54928282D01*
X175199536Y-54802841D01*
X175260044Y-54656762D01*
X175275500Y-54539361D01*
X175275499Y-53643681D01*
X190399500Y-53643681D01*
X190438627Y-53928351D01*
X190516155Y-54205057D01*
X190630639Y-54468626D01*
X190740632Y-54649500D01*
X190779945Y-54714147D01*
X190961292Y-54937053D01*
X191171302Y-55133189D01*
X191406064Y-55298901D01*
X191616867Y-55408130D01*
X191640649Y-55420454D01*
X191661203Y-55431104D01*
X191931968Y-55527334D01*
X192213314Y-55585798D01*
X192213321Y-55585798D01*
X192213324Y-55585799D01*
X192428243Y-55600500D01*
X192428248Y-55600500D01*
X192571757Y-55600500D01*
X192786675Y-55585799D01*
X192786677Y-55585798D01*
X192786686Y-55585798D01*
X193068032Y-55527334D01*
X193338797Y-55431104D01*
X193593936Y-55298901D01*
X193828698Y-55133189D01*
X194038708Y-54937053D01*
X194220055Y-54714147D01*
X194369361Y-54468625D01*
X194483844Y-54205058D01*
X194561371Y-53928358D01*
X194600500Y-53643678D01*
X194600500Y-53356322D01*
X194561371Y-53071642D01*
X194483844Y-52794942D01*
X194369361Y-52531375D01*
X194364590Y-52523530D01*
X194220055Y-52285853D01*
X194203428Y-52265416D01*
X194038708Y-52062947D01*
X193828698Y-51866811D01*
X193593936Y-51701099D01*
X193579157Y-51693441D01*
X193338802Y-51568898D01*
X193338800Y-51568897D01*
X193296282Y-51553786D01*
X193068032Y-51472666D01*
X192939430Y-51445942D01*
X192786692Y-51414203D01*
X192786675Y-51414200D01*
X192571757Y-51399500D01*
X192571752Y-51399500D01*
X192428248Y-51399500D01*
X192428243Y-51399500D01*
X192213324Y-51414200D01*
X192213307Y-51414203D01*
X191931968Y-51472666D01*
X191661199Y-51568897D01*
X191661197Y-51568898D01*
X191406065Y-51701098D01*
X191171304Y-51866809D01*
X191171303Y-51866810D01*
X190961290Y-52062949D01*
X190779944Y-52285853D01*
X190630639Y-52531373D01*
X190516155Y-52794942D01*
X190438627Y-53071648D01*
X190399500Y-53356318D01*
X190399500Y-53643681D01*
X175275499Y-53643681D01*
X175275499Y-52860640D01*
X175260044Y-52743238D01*
X175199536Y-52597159D01*
X175197669Y-52594726D01*
X175103286Y-52471723D01*
X175103285Y-52471722D01*
X175103282Y-52471718D01*
X175103277Y-52471714D01*
X175103276Y-52471713D01*
X174977844Y-52375466D01*
X174977843Y-52375465D01*
X174977841Y-52375464D01*
X174831762Y-52314956D01*
X174831760Y-52314955D01*
X174714362Y-52299500D01*
X173035639Y-52299500D01*
X173035637Y-52299501D01*
X172918238Y-52314955D01*
X172833634Y-52350000D01*
X172772159Y-52375464D01*
X172772158Y-52375464D01*
X172772155Y-52375466D01*
X172646723Y-52471713D01*
X172646716Y-52471720D01*
X172571385Y-52569894D01*
X172498340Y-52633953D01*
X172406341Y-52665182D01*
X172309394Y-52658827D01*
X172222258Y-52615857D01*
X172220901Y-52614808D01*
X172103628Y-52523531D01*
X171899512Y-52413068D01*
X171899507Y-52413066D01*
X171899503Y-52413064D01*
X171679981Y-52337702D01*
X171679978Y-52337701D01*
X171679974Y-52337700D01*
X171451049Y-52299500D01*
X171218951Y-52299500D01*
X170990025Y-52337700D01*
X170990019Y-52337701D01*
X170990019Y-52337702D01*
X170770497Y-52413064D01*
X170770494Y-52413065D01*
X170770487Y-52413068D01*
X170566371Y-52523531D01*
X170383220Y-52666083D01*
X170248195Y-52812759D01*
X170169713Y-52870027D01*
X170075289Y-52892902D01*
X169979299Y-52877902D01*
X169896356Y-52827310D01*
X169881805Y-52812759D01*
X169797375Y-52721044D01*
X169746784Y-52666087D01*
X169685742Y-52618576D01*
X169563628Y-52523531D01*
X169359512Y-52413068D01*
X169359507Y-52413066D01*
X169359503Y-52413064D01*
X169139981Y-52337702D01*
X169139978Y-52337701D01*
X169139974Y-52337700D01*
X168911049Y-52299500D01*
X168678951Y-52299500D01*
X168450025Y-52337700D01*
X168450019Y-52337701D01*
X168450019Y-52337702D01*
X168230497Y-52413064D01*
X168230494Y-52413065D01*
X168230487Y-52413068D01*
X168026371Y-52523531D01*
X167843220Y-52666083D01*
X167708195Y-52812759D01*
X167629713Y-52870027D01*
X167535289Y-52892902D01*
X167439299Y-52877902D01*
X167356356Y-52827310D01*
X167341805Y-52812759D01*
X167257375Y-52721044D01*
X167206784Y-52666087D01*
X167145742Y-52618576D01*
X167023628Y-52523531D01*
X166819512Y-52413068D01*
X166819507Y-52413066D01*
X166819503Y-52413064D01*
X166599981Y-52337702D01*
X166599978Y-52337701D01*
X166599974Y-52337700D01*
X166371049Y-52299500D01*
X166138951Y-52299500D01*
X165910025Y-52337700D01*
X165910019Y-52337701D01*
X165910019Y-52337702D01*
X165690497Y-52413064D01*
X165690494Y-52413065D01*
X165690487Y-52413068D01*
X165486371Y-52523531D01*
X165303220Y-52666083D01*
X165168195Y-52812759D01*
X165089713Y-52870027D01*
X164995289Y-52892902D01*
X164899299Y-52877902D01*
X164816356Y-52827310D01*
X164801805Y-52812759D01*
X164717375Y-52721044D01*
X164666784Y-52666087D01*
X164605742Y-52618576D01*
X164483628Y-52523531D01*
X164279512Y-52413068D01*
X164279507Y-52413066D01*
X164279503Y-52413064D01*
X164059981Y-52337702D01*
X164059978Y-52337701D01*
X164059974Y-52337700D01*
X163831049Y-52299500D01*
X163598951Y-52299500D01*
X163370025Y-52337700D01*
X163370019Y-52337701D01*
X163370019Y-52337702D01*
X163150497Y-52413064D01*
X163150494Y-52413065D01*
X163150487Y-52413068D01*
X162946371Y-52523531D01*
X162763220Y-52666083D01*
X162628195Y-52812759D01*
X162549713Y-52870027D01*
X162455289Y-52892902D01*
X162359299Y-52877902D01*
X162276356Y-52827310D01*
X162261805Y-52812759D01*
X162177375Y-52721044D01*
X162126784Y-52666087D01*
X162065742Y-52618576D01*
X161943628Y-52523531D01*
X161739512Y-52413068D01*
X161739507Y-52413066D01*
X161739503Y-52413064D01*
X161519981Y-52337702D01*
X161519978Y-52337701D01*
X161519974Y-52337700D01*
X161291049Y-52299500D01*
X161058951Y-52299500D01*
X160830025Y-52337700D01*
X160830019Y-52337701D01*
X160830019Y-52337702D01*
X160610497Y-52413064D01*
X160610494Y-52413065D01*
X160610487Y-52413068D01*
X160406372Y-52523530D01*
X160349254Y-52567987D01*
X160262416Y-52611556D01*
X160165515Y-52618576D01*
X160073303Y-52587981D01*
X160001641Y-52526738D01*
X159958193Y-52472256D01*
X159958188Y-52472251D01*
X159760425Y-52288754D01*
X159537527Y-52136784D01*
X159537522Y-52136782D01*
X159294465Y-52019731D01*
X159294459Y-52019729D01*
X159036666Y-51940210D01*
X158885000Y-51917349D01*
X158885000Y-53051000D01*
X158866046Y-53146288D01*
X158812070Y-53227070D01*
X158731288Y-53281046D01*
X158636000Y-53300000D01*
X158634000Y-53300000D01*
X158538712Y-53281046D01*
X158457930Y-53227070D01*
X158403954Y-53146288D01*
X158385000Y-53051000D01*
X158385000Y-51917349D01*
X158233334Y-51940210D01*
X158233332Y-51940210D01*
X157975540Y-52019729D01*
X157975535Y-52019731D01*
X157732478Y-52136782D01*
X157732473Y-52136784D01*
X157509574Y-52288754D01*
X157311811Y-52472251D01*
X157311806Y-52472256D01*
X157143598Y-52683182D01*
X157008713Y-52916810D01*
X157008705Y-52916826D01*
X156910144Y-53167958D01*
X156850115Y-53430968D01*
X156848689Y-53450000D01*
X157981014Y-53450000D01*
X158076302Y-53468954D01*
X158157084Y-53522930D01*
X158211060Y-53603712D01*
X158230014Y-53699000D01*
X158230014Y-53701000D01*
X158211060Y-53796288D01*
X158157084Y-53877070D01*
X158076302Y-53931046D01*
X157981014Y-53950000D01*
X156848689Y-53950000D01*
X156850115Y-53969031D01*
X156910144Y-54232043D01*
X156940556Y-54309529D01*
X156957725Y-54405155D01*
X156936993Y-54500073D01*
X156881516Y-54579831D01*
X156799740Y-54632287D01*
X156708769Y-54649500D01*
X147024500Y-54649500D01*
X146929212Y-54630546D01*
X146848430Y-54576570D01*
X146794454Y-54495788D01*
X146775500Y-54400500D01*
X146775499Y-52860639D01*
X146775498Y-52860638D01*
X146760044Y-52743238D01*
X146699536Y-52597159D01*
X146697669Y-52594726D01*
X146603286Y-52471723D01*
X146603285Y-52471722D01*
X146603282Y-52471718D01*
X146603277Y-52471714D01*
X146603276Y-52471713D01*
X146477844Y-52375466D01*
X146477843Y-52375465D01*
X146477841Y-52375464D01*
X146331762Y-52314956D01*
X146331760Y-52314955D01*
X146214362Y-52299500D01*
X144535639Y-52299500D01*
X144535637Y-52299501D01*
X144418238Y-52314955D01*
X144333634Y-52350000D01*
X144272159Y-52375464D01*
X144272158Y-52375464D01*
X144272155Y-52375466D01*
X144146723Y-52471713D01*
X144146716Y-52471720D01*
X144071385Y-52569894D01*
X143998340Y-52633953D01*
X143906341Y-52665182D01*
X143809394Y-52658827D01*
X143722258Y-52615857D01*
X143720901Y-52614808D01*
X143603628Y-52523531D01*
X143399512Y-52413068D01*
X143399507Y-52413066D01*
X143399503Y-52413064D01*
X143179981Y-52337702D01*
X143179978Y-52337701D01*
X143179974Y-52337700D01*
X142951049Y-52299500D01*
X142718951Y-52299500D01*
X142490025Y-52337700D01*
X142490019Y-52337701D01*
X142490019Y-52337702D01*
X142270497Y-52413064D01*
X142270494Y-52413065D01*
X142270487Y-52413068D01*
X142066371Y-52523531D01*
X141883220Y-52666083D01*
X141748195Y-52812759D01*
X141669713Y-52870027D01*
X141575289Y-52892902D01*
X141479299Y-52877902D01*
X141396356Y-52827310D01*
X141381805Y-52812759D01*
X141297375Y-52721044D01*
X141246784Y-52666087D01*
X141185742Y-52618576D01*
X141063628Y-52523531D01*
X140859512Y-52413068D01*
X140859507Y-52413066D01*
X140859503Y-52413064D01*
X140639981Y-52337702D01*
X140639978Y-52337701D01*
X140639974Y-52337700D01*
X140411049Y-52299500D01*
X140178951Y-52299500D01*
X139950025Y-52337700D01*
X139950019Y-52337701D01*
X139950019Y-52337702D01*
X139730497Y-52413064D01*
X139730494Y-52413065D01*
X139730487Y-52413068D01*
X139526371Y-52523531D01*
X139343220Y-52666083D01*
X139208195Y-52812759D01*
X139129713Y-52870027D01*
X139035289Y-52892902D01*
X138939299Y-52877902D01*
X138856356Y-52827310D01*
X138841805Y-52812759D01*
X138757375Y-52721044D01*
X138706784Y-52666087D01*
X138645742Y-52618576D01*
X138523628Y-52523531D01*
X138319512Y-52413068D01*
X138319507Y-52413066D01*
X138319503Y-52413064D01*
X138099981Y-52337702D01*
X138099978Y-52337701D01*
X138099974Y-52337700D01*
X137871049Y-52299500D01*
X137638951Y-52299500D01*
X137410025Y-52337700D01*
X137410019Y-52337701D01*
X137410019Y-52337702D01*
X137190497Y-52413064D01*
X137190494Y-52413065D01*
X137190487Y-52413068D01*
X136986371Y-52523531D01*
X136803220Y-52666083D01*
X136668195Y-52812759D01*
X136589713Y-52870027D01*
X136495289Y-52892902D01*
X136399299Y-52877902D01*
X136316356Y-52827310D01*
X136301805Y-52812759D01*
X136217375Y-52721044D01*
X136166784Y-52666087D01*
X136105742Y-52618576D01*
X135983628Y-52523531D01*
X135779512Y-52413068D01*
X135779507Y-52413066D01*
X135779503Y-52413064D01*
X135559981Y-52337702D01*
X135559978Y-52337701D01*
X135559974Y-52337700D01*
X135331049Y-52299500D01*
X135098951Y-52299500D01*
X134870025Y-52337700D01*
X134870019Y-52337701D01*
X134870019Y-52337702D01*
X134650497Y-52413064D01*
X134650494Y-52413065D01*
X134650487Y-52413068D01*
X134446371Y-52523531D01*
X134263220Y-52666083D01*
X134128195Y-52812759D01*
X134049713Y-52870027D01*
X133955289Y-52892902D01*
X133859299Y-52877902D01*
X133776356Y-52827310D01*
X133761805Y-52812759D01*
X133677375Y-52721044D01*
X133626784Y-52666087D01*
X133565742Y-52618576D01*
X133443628Y-52523531D01*
X133239512Y-52413068D01*
X133239507Y-52413066D01*
X133239503Y-52413064D01*
X133019981Y-52337702D01*
X133019978Y-52337701D01*
X133019974Y-52337700D01*
X132791049Y-52299500D01*
X132558951Y-52299500D01*
X132330025Y-52337700D01*
X132330019Y-52337701D01*
X132330019Y-52337702D01*
X132110497Y-52413064D01*
X132110494Y-52413065D01*
X132110487Y-52413068D01*
X131906372Y-52523530D01*
X131849254Y-52567987D01*
X131762416Y-52611556D01*
X131665515Y-52618576D01*
X131573303Y-52587981D01*
X131501641Y-52526738D01*
X131458193Y-52472256D01*
X131458188Y-52472251D01*
X131260425Y-52288754D01*
X131037527Y-52136784D01*
X131037522Y-52136782D01*
X130794465Y-52019731D01*
X130794459Y-52019729D01*
X130536666Y-51940210D01*
X130384999Y-51917349D01*
X130384999Y-53051000D01*
X130366045Y-53146288D01*
X130312068Y-53227070D01*
X130231287Y-53281046D01*
X130135999Y-53300000D01*
X130134000Y-53300000D01*
X130038712Y-53281046D01*
X129957930Y-53227070D01*
X129903954Y-53146288D01*
X129885000Y-53051000D01*
X129885000Y-51917349D01*
X129733334Y-51940210D01*
X129733332Y-51940210D01*
X129475540Y-52019729D01*
X129475535Y-52019731D01*
X129232478Y-52136782D01*
X129232473Y-52136784D01*
X129009574Y-52288754D01*
X128811811Y-52472251D01*
X128811806Y-52472256D01*
X128643598Y-52683182D01*
X128508713Y-52916810D01*
X128508705Y-52916826D01*
X128410144Y-53167958D01*
X128350115Y-53430968D01*
X128348689Y-53450000D01*
X129481014Y-53450000D01*
X129576302Y-53468954D01*
X129657084Y-53522930D01*
X129711060Y-53603712D01*
X129730014Y-53699000D01*
X129730014Y-53701000D01*
X129711060Y-53796288D01*
X129657084Y-53877070D01*
X129576302Y-53931046D01*
X129481014Y-53950000D01*
X128348689Y-53950000D01*
X128350115Y-53969031D01*
X128410144Y-54232041D01*
X128508705Y-54483173D01*
X128508713Y-54483189D01*
X128643598Y-54716817D01*
X128811806Y-54927743D01*
X128811811Y-54927748D01*
X129009574Y-55111245D01*
X129232473Y-55263215D01*
X129232478Y-55263217D01*
X129475535Y-55380268D01*
X129475540Y-55380270D01*
X129580229Y-55412563D01*
X129665697Y-55458762D01*
X129726979Y-55534151D01*
X129754746Y-55627253D01*
X129744771Y-55723895D01*
X129698572Y-55809363D01*
X129623183Y-55870645D01*
X129530081Y-55898412D01*
X129506834Y-55899500D01*
X124058982Y-55899500D01*
X123963694Y-55880546D01*
X123882912Y-55826570D01*
X121423429Y-53367086D01*
X121369453Y-53286304D01*
X121350499Y-53191016D01*
X121350499Y-51710639D01*
X121350498Y-51710638D01*
X121335044Y-51593238D01*
X121274536Y-51447159D01*
X121178282Y-51321718D01*
X121178277Y-51321714D01*
X121178276Y-51321713D01*
X121052844Y-51225466D01*
X121052843Y-51225465D01*
X121052841Y-51225464D01*
X120906762Y-51164956D01*
X120906760Y-51164955D01*
X120789362Y-51149500D01*
X118210639Y-51149500D01*
X118210637Y-51149501D01*
X118093238Y-51164955D01*
X117984475Y-51210006D01*
X117947159Y-51225464D01*
X117947158Y-51225464D01*
X117947155Y-51225466D01*
X117821723Y-51321713D01*
X117821713Y-51321723D01*
X117725466Y-51447155D01*
X117664955Y-51593239D01*
X117649499Y-51710637D01*
X117649499Y-53191017D01*
X117630545Y-53286305D01*
X117576569Y-53367087D01*
X117082604Y-53861052D01*
X117001822Y-53915028D01*
X116906534Y-53933982D01*
X116811246Y-53915028D01*
X116730464Y-53861052D01*
X116676488Y-53780270D01*
X116657534Y-53684982D01*
X116670751Y-53604936D01*
X116677997Y-53583591D01*
X116735536Y-53294324D01*
X116735538Y-53294312D01*
X116754827Y-52999999D01*
X116735538Y-52705687D01*
X116735536Y-52705675D01*
X116677996Y-52416407D01*
X116677995Y-52416400D01*
X116583191Y-52137122D01*
X116583183Y-52137103D01*
X116452743Y-51872596D01*
X116452733Y-51872579D01*
X116288878Y-51627352D01*
X116259592Y-51593959D01*
X115312800Y-52540750D01*
X115232019Y-52594726D01*
X115136731Y-52613680D01*
X115041443Y-52594726D01*
X114966355Y-52546265D01*
X114964897Y-52544897D01*
X114908377Y-52465874D01*
X114886399Y-52371238D01*
X114902310Y-52275395D01*
X114953688Y-52192936D01*
X114959203Y-52187242D01*
X115906039Y-51240405D01*
X115906039Y-51240404D01*
X115872660Y-51211131D01*
X115872652Y-51211125D01*
X115627420Y-51047266D01*
X115627403Y-51047256D01*
X115362896Y-50916816D01*
X115362877Y-50916808D01*
X115083599Y-50822004D01*
X115083592Y-50822003D01*
X114794324Y-50764463D01*
X114794312Y-50764461D01*
X114499999Y-50745172D01*
X114205687Y-50764461D01*
X114205675Y-50764463D01*
X113916407Y-50822003D01*
X113916400Y-50822004D01*
X113637122Y-50916808D01*
X113637103Y-50916816D01*
X113372596Y-51047256D01*
X113372587Y-51047261D01*
X113127341Y-51211130D01*
X113093959Y-51240405D01*
X114038187Y-52184634D01*
X114092163Y-52265416D01*
X114111117Y-52360704D01*
X114092163Y-52455992D01*
X114053962Y-52519438D01*
X114052682Y-52520985D01*
X113977334Y-52582318D01*
X113884250Y-52610148D01*
X113787602Y-52600238D01*
X113702103Y-52554096D01*
X113684767Y-52538321D01*
X112740405Y-51593959D01*
X112711130Y-51627341D01*
X112547261Y-51872587D01*
X112547256Y-51872596D01*
X112416816Y-52137103D01*
X112416808Y-52137122D01*
X112322004Y-52416400D01*
X112322003Y-52416407D01*
X112264463Y-52705675D01*
X112264461Y-52705687D01*
X112245172Y-53000000D01*
X104541298Y-53000000D01*
X104483844Y-52794942D01*
X104369361Y-52531375D01*
X104364590Y-52523530D01*
X104220055Y-52285853D01*
X104203428Y-52265416D01*
X104038708Y-52062947D01*
X103828698Y-51866811D01*
X103593936Y-51701099D01*
X103579157Y-51693441D01*
X103338802Y-51568898D01*
X103338800Y-51568897D01*
X103296282Y-51553786D01*
X103068032Y-51472666D01*
X102939430Y-51445942D01*
X102786692Y-51414203D01*
X102786675Y-51414200D01*
X102571757Y-51399500D01*
X102571752Y-51399500D01*
X102428248Y-51399500D01*
X102428243Y-51399500D01*
X102213324Y-51414200D01*
X102213307Y-51414203D01*
X101931968Y-51472666D01*
X101661199Y-51568897D01*
X101661197Y-51568898D01*
X101406065Y-51701098D01*
X101171304Y-51866809D01*
X101171303Y-51866810D01*
X100961290Y-52062949D01*
X100779944Y-52285853D01*
X100630639Y-52531373D01*
X100516155Y-52794942D01*
X100438627Y-53071648D01*
X100399500Y-53356318D01*
X100399500Y-53643681D01*
X98500500Y-53643681D01*
X98500500Y-49749500D01*
X98519454Y-49654212D01*
X98573430Y-49573430D01*
X98654212Y-49519454D01*
X98749500Y-49500500D01*
X196250500Y-49500500D01*
X196345788Y-49519454D01*
G37*
G04 #@! TD.AperFunction*
M02*
