M48
; DRILL file {KiCad 7.0.7} date Wed Jan 31 17:55:56 2024
; FORMAT={-:-/ absolute / metric / decimal}
; #@! TF.CreationDate,2024-01-31T17:55:56+01:00
; #@! TF.GenerationSoftware,Kicad,Pcbnew,7.0.7
; #@! TF.FileFunction,Plated,1,2,PTH
FMAT,2
METRIC
; #@! TA.AperFunction,Plated,PTH,ViaDrill
T1C0.400
; #@! TA.AperFunction,Plated,PTH,ComponentDrill
T2C0.800
; #@! TA.AperFunction,Plated,PTH,ComponentDrill
T3C0.900
; #@! TA.AperFunction,Plated,PTH,ComponentDrill
T4C1.000
; #@! TA.AperFunction,Plated,PTH,ComponentDrill
T5C1.100
; #@! TA.AperFunction,Plated,PTH,ComponentDrill
T6C1.300
; #@! TA.AperFunction,Plated,PTH,ComponentDrill
T7C4.000
%
G90
G05
T1
X180.5Y-96.75
T2
X130.135Y-53.7
X130.135Y-61.32
X132.675Y-53.7
X132.675Y-61.32
X135.215Y-53.7
X135.215Y-61.32
X137.755Y-53.7
X137.755Y-61.32
X140.295Y-53.7
X140.295Y-61.32
X142.835Y-53.7
X142.835Y-61.32
X145.375Y-53.7
X145.375Y-61.32
X158.635Y-53.7
X158.635Y-61.32
X161.175Y-53.7
X161.175Y-61.32
X163.715Y-53.7
X163.715Y-61.32
X166.255Y-53.7
X166.255Y-61.32
X168.795Y-53.7
X168.795Y-61.32
X171.335Y-53.7
X171.335Y-61.32
X173.875Y-53.7
X173.875Y-61.32
T3
X128.5Y-108.0
X131.04Y-108.0
X134.96Y-108.0
X136.0Y-76.46
X136.0Y-79.0
X136.0Y-83.0
X136.0Y-85.54
X137.5Y-108.0
X159.0Y-84.0
X160.0Y-106.735
X160.0Y-109.275
X160.0Y-113.5
X160.0Y-116.04
X161.54Y-84.0
X165.735Y-84.0
X168.275Y-84.0
T4
X166.7Y-130.75
X169.2Y-130.75
X171.7Y-130.75
X190.25Y-62.88
X190.25Y-65.42
X190.25Y-67.96
X190.25Y-70.5
X190.25Y-77.22
X190.25Y-79.76
X190.25Y-82.3
X190.25Y-84.84
X190.25Y-87.38
X190.25Y-89.92
X190.25Y-92.46
X190.25Y-95.0
X190.25Y-102.8
X190.25Y-105.34
X190.25Y-107.88
X190.25Y-110.42
X190.25Y-112.96
X190.25Y-115.5
X190.25Y-122.5
X190.25Y-125.04
X190.25Y-127.58
X190.25Y-130.12
X190.25Y-132.66
T6
X114.5Y-53.0
X119.5Y-53.0
T7
X119.4Y-130.75
X119.4Y-136.75
X119.4Y-142.65
X144.9Y-130.75
X144.9Y-136.75
X144.9Y-142.65
T5
X164.4Y-137.9G85X164.4Y-138.6
G05
X174.0Y-137.9G85X174.0Y-138.6
G05
T0
M30
