G04 #@! TF.GenerationSoftware,KiCad,Pcbnew,7.0.7*
G04 #@! TF.CreationDate,2024-01-31T17:55:45+01:00*
G04 #@! TF.ProjectId,AmpelSchaltung,416d7065-6c53-4636-9861-6c74756e672e,rev?*
G04 #@! TF.SameCoordinates,Original*
G04 #@! TF.FileFunction,Legend,Top*
G04 #@! TF.FilePolarity,Positive*
%FSLAX46Y46*%
G04 Gerber Fmt 4.6, Leading zero omitted, Abs format (unit mm)*
G04 Created by KiCad (PCBNEW 7.0.7) date 2024-01-31 17:55:45*
%MOMM*%
%LPD*%
G01*
G04 APERTURE LIST*
G04 Aperture macros list*
%AMRoundRect*
0 Rectangle with rounded corners*
0 $1 Rounding radius*
0 $2 $3 $4 $5 $6 $7 $8 $9 X,Y pos of 4 corners*
0 Add a 4 corners polygon primitive as box body*
4,1,4,$2,$3,$4,$5,$6,$7,$8,$9,$2,$3,0*
0 Add four circle primitives for the rounded corners*
1,1,$1+$1,$2,$3*
1,1,$1+$1,$4,$5*
1,1,$1+$1,$6,$7*
1,1,$1+$1,$8,$9*
0 Add four rect primitives between the rounded corners*
20,1,$1+$1,$2,$3,$4,$5,0*
20,1,$1+$1,$4,$5,$6,$7,0*
20,1,$1+$1,$6,$7,$8,$9,0*
20,1,$1+$1,$8,$9,$2,$3,0*%
G04 Aperture macros list end*
%ADD10C,0.300000*%
%ADD11C,0.150000*%
%ADD12C,0.590388*%
%ADD13C,0.600000*%
%ADD14C,0.200000*%
%ADD15C,0.120000*%
%ADD16RoundRect,0.250000X-0.350000X-0.450000X0.350000X-0.450000X0.350000X0.450000X-0.350000X0.450000X0*%
%ADD17R,1.800000X1.800000*%
%ADD18C,1.800000*%
%ADD19O,7.000000X5.000000*%
%ADD20C,3.200000*%
%ADD21R,1.700000X1.700000*%
%ADD22O,1.700000X1.700000*%
%ADD23O,2.720000X3.240000*%
%ADD24RoundRect,0.250000X0.350000X0.450000X-0.350000X0.450000X-0.350000X-0.450000X0.350000X-0.450000X0*%
%ADD25R,1.600000X1.600000*%
%ADD26O,1.600000X1.600000*%
%ADD27R,1.500000X2.000000*%
%ADD28R,3.800000X2.000000*%
%ADD29R,2.500000X2.500000*%
%ADD30C,2.500000*%
G04 APERTURE END LIST*
D10*
X136000000Y-116000000D02*
X138000000Y-119500000D01*
X168000000Y-108000000D02*
G75*
G03*
X168000000Y-108000000I-500000J0D01*
G01*
D11*
X126250000Y-111500000D02*
X139750000Y-111500000D01*
D10*
X148000000Y-119500000D02*
X148000000Y-122500000D01*
D11*
X170500000Y-83750000D02*
X174000000Y-83750000D01*
X174000000Y-84250000D01*
X170500000Y-84250000D01*
X170500000Y-83750000D01*
G36*
X170500000Y-83750000D02*
G01*
X174000000Y-83750000D01*
X174000000Y-84250000D01*
X170500000Y-84250000D01*
X170500000Y-83750000D01*
G37*
D10*
X148000000Y-115000000D02*
X148000000Y-118000000D01*
X103500000Y-96500000D02*
X117000000Y-96500000D01*
D12*
X117295194Y-96500000D02*
G75*
G03*
X117295194Y-96500000I-295194J0D01*
G01*
D11*
X138500000Y-97000000D02*
X139500000Y-97000000D01*
X139500000Y-102500000D01*
X138500000Y-102500000D01*
X138500000Y-97000000D01*
G36*
X138500000Y-97000000D02*
G01*
X139500000Y-97000000D01*
X139500000Y-102500000D01*
X138500000Y-102500000D01*
X138500000Y-97000000D01*
G37*
D10*
X117000000Y-78000000D02*
X122500000Y-78000000D01*
X136500000Y-115500000D02*
G75*
G03*
X136500000Y-115500000I-500000J0D01*
G01*
X124500000Y-82500000D02*
X124500000Y-86500000D01*
X136000000Y-116000000D02*
X134000000Y-119500000D01*
X128750000Y-66250000D02*
X160500000Y-66250000D01*
D11*
X170500000Y-87500000D02*
X170500000Y-80500000D01*
X105353553Y-109000000D02*
G75*
G03*
X105353553Y-109000000I-353553J0D01*
G01*
X103500000Y-106853553D02*
X104500000Y-108750000D01*
D10*
X133500000Y-96000000D02*
X130500000Y-96000000D01*
X117000000Y-124750000D02*
X117000000Y-78000000D01*
X148000000Y-72500000D02*
X148000000Y-69500000D01*
X168000000Y-108000000D02*
X171500000Y-110000000D01*
D11*
X139750000Y-104500000D02*
X126250000Y-104500000D01*
D13*
X140500000Y-103500000D02*
X140500000Y-123500000D01*
X155500000Y-88500000D02*
X155500000Y-68500000D01*
X120500000Y-103500000D02*
X140500000Y-103500000D01*
D10*
X161000000Y-76500000D02*
G75*
G03*
X161000000Y-76500000I-500000J0D01*
G01*
X160500000Y-77000000D02*
X160500000Y-80000000D01*
X148000000Y-86000000D02*
X148000000Y-83000000D01*
D12*
X160779806Y-70500000D02*
G75*
G03*
X160779806Y-70500000I-295194J0D01*
G01*
D10*
X101500000Y-94500000D02*
X105500000Y-94500000D01*
X173500000Y-125000000D02*
X117000000Y-125000000D01*
X122500000Y-84375000D02*
X122500000Y-78125000D01*
D11*
X163500000Y-104500000D02*
X156500000Y-104500000D01*
X159750000Y-118000000D02*
X160250000Y-118000000D01*
X160250000Y-121500000D01*
X159750000Y-121500000D01*
X159750000Y-118000000D01*
G36*
X159750000Y-118000000D02*
G01*
X160250000Y-118000000D01*
X160250000Y-121500000D01*
X159750000Y-121500000D01*
X159750000Y-118000000D01*
G37*
D13*
X155500000Y-123500000D02*
X155500000Y-103500000D01*
D10*
X129750000Y-121500000D02*
X115000000Y-121500000D01*
X160500000Y-76000000D02*
X162500000Y-72500000D01*
X138000000Y-96000000D02*
X135000000Y-96000000D01*
D13*
X140500000Y-68500000D02*
X140500000Y-88500000D01*
D10*
X171500000Y-96000000D02*
X174500000Y-96000000D01*
X136000000Y-121500000D02*
X129750000Y-121500000D01*
X148000000Y-81500000D02*
X148000000Y-78500000D01*
X103500000Y-91000000D02*
X101500000Y-94500000D01*
X124500000Y-84500000D02*
X122500000Y-84500000D01*
X148000000Y-110500000D02*
X148000000Y-113500000D01*
X103500000Y-96500000D02*
X103500000Y-106146447D01*
X171500000Y-110000000D02*
X171500000Y-106000000D01*
X103500000Y-86750000D02*
X115000000Y-86750000D01*
X158000000Y-96000000D02*
X161000000Y-96000000D01*
D11*
X156500000Y-104500000D02*
X156500000Y-118000000D01*
D10*
X148000000Y-106000000D02*
X148000000Y-109000000D01*
X129000000Y-84500000D02*
G75*
G03*
X129000000Y-84500000I-500000J0D01*
G01*
X129750000Y-121500000D02*
X129750000Y-112000000D01*
D13*
X175500000Y-88500000D02*
X155500000Y-88500000D01*
D12*
X115295194Y-86750000D02*
G75*
G03*
X115295194Y-86750000I-295194J0D01*
G01*
D13*
X140500000Y-88500000D02*
X120500000Y-88500000D01*
D10*
X162500000Y-96000000D02*
X165500000Y-96000000D01*
X115000000Y-73000000D02*
X128750000Y-73000000D01*
D11*
X99000000Y-85500000D02*
X100650000Y-85500000D01*
X101250000Y-85500000D02*
X102900000Y-85500000D01*
X103500000Y-85500000D02*
X105150000Y-85500000D01*
X105750000Y-85500000D02*
X107400000Y-85500000D01*
X108000000Y-85500000D02*
X109000000Y-85500000D01*
X109000000Y-85500000D02*
X109000000Y-87150000D01*
X109000000Y-87750000D02*
X109000000Y-89400000D01*
X109000000Y-90000000D02*
X109000000Y-91650000D01*
X109000000Y-92250000D02*
X109000000Y-93900000D01*
X109000000Y-94500000D02*
X109000000Y-96150000D01*
X109000000Y-96750000D02*
X109000000Y-98400000D01*
X109000000Y-99000000D02*
X109000000Y-100650000D01*
X109000000Y-101250000D02*
X109000000Y-102900000D01*
X109000000Y-103500000D02*
X109000000Y-105150000D01*
X109000000Y-105750000D02*
X109000000Y-107400000D01*
X109000000Y-108000000D02*
X109000000Y-109650000D01*
X109000000Y-110250000D02*
X109000000Y-111900000D01*
X109000000Y-112500000D02*
X109000000Y-114150000D01*
X109000000Y-114750000D02*
X109000000Y-116400000D01*
X109000000Y-117000000D02*
X109000000Y-118650000D01*
X109000000Y-119250000D02*
X109000000Y-120900000D01*
X109000000Y-121500000D02*
X109000000Y-121750000D01*
X109000000Y-121750000D02*
X107350000Y-121750000D01*
X106750000Y-121750000D02*
X105100000Y-121750000D01*
X104500000Y-121750000D02*
X102850000Y-121750000D01*
X102250000Y-121750000D02*
X100600000Y-121750000D01*
X100000000Y-121750000D02*
X99000000Y-121750000D01*
X99000000Y-121750000D02*
X99000000Y-120100000D01*
X99000000Y-119500000D02*
X99000000Y-117850000D01*
X99000000Y-117250000D02*
X99000000Y-115600000D01*
X99000000Y-115000000D02*
X99000000Y-113350000D01*
X99000000Y-112750000D02*
X99000000Y-111100000D01*
X99000000Y-110500000D02*
X99000000Y-108850000D01*
X99000000Y-108250000D02*
X99000000Y-106600000D01*
X99000000Y-106000000D02*
X99000000Y-104350000D01*
X99000000Y-103750000D02*
X99000000Y-102100000D01*
X99000000Y-101500000D02*
X99000000Y-99850000D01*
X99000000Y-99250000D02*
X99000000Y-97600000D01*
X99000000Y-97000000D02*
X99000000Y-95350000D01*
X99000000Y-94750000D02*
X99000000Y-93100000D01*
X99000000Y-92500000D02*
X99000000Y-90850000D01*
X99000000Y-90250000D02*
X99000000Y-88600000D01*
X99000000Y-88000000D02*
X99000000Y-86350000D01*
X99000000Y-85750000D02*
X99000000Y-85500000D01*
X132500000Y-74250000D02*
X132500000Y-87750000D01*
D10*
X136000000Y-115000000D02*
X136000000Y-112000000D01*
X162500000Y-72500000D02*
X158500000Y-72500000D01*
D11*
X135750000Y-70750000D02*
X136250000Y-70750000D01*
X136250000Y-74250000D01*
X135750000Y-74250000D01*
X135750000Y-70750000D01*
G36*
X135750000Y-70750000D02*
G01*
X136250000Y-70750000D01*
X136250000Y-74250000D01*
X135750000Y-74250000D01*
X135750000Y-70750000D01*
G37*
D10*
X115000000Y-121500000D02*
X115000000Y-73000000D01*
X103500000Y-94500000D02*
X103500000Y-96500000D01*
X160625000Y-70500000D02*
X166875000Y-70500000D01*
X167000000Y-96000000D02*
X170000000Y-96000000D01*
X160500000Y-66250000D02*
X160500000Y-70500000D01*
X168000000Y-108000000D02*
X171500000Y-106000000D01*
X129000000Y-96000000D02*
X126000000Y-96000000D01*
X103500000Y-91000000D02*
X105500000Y-94500000D01*
D12*
X173795194Y-114375000D02*
G75*
G03*
X173795194Y-114375000I-295194J0D01*
G01*
D10*
X105000000Y-109353553D02*
X105000000Y-112250000D01*
D11*
X103853553Y-106500000D02*
G75*
G03*
X103853553Y-106500000I-353553J0D01*
G01*
D10*
X128000000Y-84500000D02*
X124500000Y-86500000D01*
D11*
X100750000Y-105250000D02*
X106250000Y-105250000D01*
X106250000Y-110250000D01*
X100750000Y-110250000D01*
X100750000Y-105250000D01*
X139500000Y-87750000D02*
X139500000Y-74250000D01*
X141500000Y-86500000D02*
X147000000Y-86500000D01*
X147000000Y-87500000D01*
X141500000Y-87500000D01*
X141500000Y-86500000D01*
G36*
X141500000Y-86500000D02*
G01*
X147000000Y-86500000D01*
X147000000Y-87500000D01*
X141500000Y-87500000D01*
X141500000Y-86500000D01*
G37*
X157000000Y-80500000D02*
X157000000Y-87500000D01*
D10*
X160500000Y-72500000D02*
X160500000Y-70500000D01*
X129000000Y-84500000D02*
X132000000Y-84500000D01*
X173500000Y-108125000D02*
X173500000Y-114375000D01*
X103500000Y-90000000D02*
X103500000Y-86750000D01*
D11*
X157000000Y-87500000D02*
X170500000Y-87500000D01*
X102353553Y-109000000D02*
G75*
G03*
X102353553Y-109000000I-353553J0D01*
G01*
D10*
X166875000Y-70500000D02*
X166875000Y-80000000D01*
X173500000Y-114375000D02*
X173500000Y-125000000D01*
X124500000Y-96000000D02*
X121500000Y-96000000D01*
X167000000Y-108000000D02*
X164000000Y-108000000D01*
D11*
X126250000Y-104500000D02*
X126250000Y-111500000D01*
X170500000Y-80500000D02*
X157000000Y-80500000D01*
D10*
X122500000Y-78125000D02*
X132000000Y-78125000D01*
X136000000Y-119500000D02*
X136000000Y-121500000D01*
D11*
X132500000Y-87750000D02*
X139500000Y-87750000D01*
X122750000Y-107750000D02*
X126250000Y-107750000D01*
X126250000Y-108250000D01*
X122750000Y-108250000D01*
X122750000Y-107750000D01*
G36*
X122750000Y-107750000D02*
G01*
X126250000Y-107750000D01*
X126250000Y-108250000D01*
X122750000Y-108250000D01*
X122750000Y-107750000D01*
G37*
D10*
X128750000Y-73000000D02*
X128750000Y-66250000D01*
D11*
X156500000Y-89500000D02*
X157500000Y-89500000D01*
X157500000Y-95000000D01*
X156500000Y-95000000D01*
X156500000Y-89500000D01*
G36*
X156500000Y-89500000D02*
G01*
X157500000Y-89500000D01*
X157500000Y-95000000D01*
X156500000Y-95000000D01*
X156500000Y-89500000D01*
G37*
X139750000Y-111500000D02*
X139750000Y-104500000D01*
X163500000Y-118000000D02*
X163500000Y-104500000D01*
D10*
X102000000Y-109353553D02*
X102000000Y-112250000D01*
D11*
X149000000Y-104500000D02*
X154500000Y-104500000D01*
X154500000Y-105500000D01*
X149000000Y-105500000D01*
X149000000Y-104500000D01*
G36*
X149000000Y-104500000D02*
G01*
X154500000Y-104500000D01*
X154500000Y-105500000D01*
X149000000Y-105500000D01*
X149000000Y-104500000D01*
G37*
D13*
X155500000Y-103500000D02*
X175500000Y-103500000D01*
D10*
X173500000Y-114375000D02*
X164000000Y-114375000D01*
D12*
X130029806Y-121500000D02*
G75*
G03*
X130029806Y-121500000I-295194J0D01*
G01*
D11*
X139500000Y-74250000D02*
X132500000Y-74250000D01*
X156500000Y-118000000D02*
X163500000Y-118000000D01*
D10*
X160500000Y-76000000D02*
X158500000Y-72500000D01*
X128000000Y-84500000D02*
X124500000Y-82500000D01*
X104000000Y-90500000D02*
G75*
G03*
X104000000Y-90500000I-500000J0D01*
G01*
D12*
X122779806Y-78000000D02*
G75*
G03*
X122779806Y-78000000I-295194J0D01*
G01*
D10*
X134000000Y-119500000D02*
X138000000Y-119500000D01*
X148000000Y-77000000D02*
X148000000Y-74000000D01*
X171500000Y-108000000D02*
X173500000Y-108000000D01*
D14*
X192643482Y-81914838D02*
X192548244Y-81867219D01*
X192548244Y-81867219D02*
X192405387Y-81867219D01*
X192405387Y-81867219D02*
X192262530Y-81914838D01*
X192262530Y-81914838D02*
X192167292Y-82010076D01*
X192167292Y-82010076D02*
X192119673Y-82105314D01*
X192119673Y-82105314D02*
X192072054Y-82295790D01*
X192072054Y-82295790D02*
X192072054Y-82438647D01*
X192072054Y-82438647D02*
X192119673Y-82629123D01*
X192119673Y-82629123D02*
X192167292Y-82724361D01*
X192167292Y-82724361D02*
X192262530Y-82819600D01*
X192262530Y-82819600D02*
X192405387Y-82867219D01*
X192405387Y-82867219D02*
X192500625Y-82867219D01*
X192500625Y-82867219D02*
X192643482Y-82819600D01*
X192643482Y-82819600D02*
X192691101Y-82771980D01*
X192691101Y-82771980D02*
X192691101Y-82438647D01*
X192691101Y-82438647D02*
X192500625Y-82438647D01*
X193119673Y-82486266D02*
X193881578Y-82486266D01*
X194262530Y-81867219D02*
X194881577Y-81867219D01*
X194881577Y-81867219D02*
X194548244Y-82248171D01*
X194548244Y-82248171D02*
X194691101Y-82248171D01*
X194691101Y-82248171D02*
X194786339Y-82295790D01*
X194786339Y-82295790D02*
X194833958Y-82343409D01*
X194833958Y-82343409D02*
X194881577Y-82438647D01*
X194881577Y-82438647D02*
X194881577Y-82676742D01*
X194881577Y-82676742D02*
X194833958Y-82771980D01*
X194833958Y-82771980D02*
X194786339Y-82819600D01*
X194786339Y-82819600D02*
X194691101Y-82867219D01*
X194691101Y-82867219D02*
X194405387Y-82867219D01*
X194405387Y-82867219D02*
X194310149Y-82819600D01*
X194310149Y-82819600D02*
X194262530Y-82771980D01*
X195167292Y-81867219D02*
X195500625Y-82867219D01*
X195500625Y-82867219D02*
X195833958Y-81867219D01*
X196072054Y-81867219D02*
X196691101Y-81867219D01*
X196691101Y-81867219D02*
X196357768Y-82248171D01*
X196357768Y-82248171D02*
X196500625Y-82248171D01*
X196500625Y-82248171D02*
X196595863Y-82295790D01*
X196595863Y-82295790D02*
X196643482Y-82343409D01*
X196643482Y-82343409D02*
X196691101Y-82438647D01*
X196691101Y-82438647D02*
X196691101Y-82676742D01*
X196691101Y-82676742D02*
X196643482Y-82771980D01*
X196643482Y-82771980D02*
X196595863Y-82819600D01*
X196595863Y-82819600D02*
X196500625Y-82867219D01*
X196500625Y-82867219D02*
X196214911Y-82867219D01*
X196214911Y-82867219D02*
X196119673Y-82819600D01*
X196119673Y-82819600D02*
X196072054Y-82771980D01*
D10*
X104273558Y-128339638D02*
X104273558Y-126339638D01*
X104273558Y-126339638D02*
X105416415Y-128339638D01*
X105416415Y-128339638D02*
X105416415Y-126339638D01*
X106749748Y-126339638D02*
X107130701Y-126339638D01*
X107130701Y-126339638D02*
X107321177Y-126434876D01*
X107321177Y-126434876D02*
X107511653Y-126625352D01*
X107511653Y-126625352D02*
X107606891Y-127006304D01*
X107606891Y-127006304D02*
X107606891Y-127672971D01*
X107606891Y-127672971D02*
X107511653Y-128053923D01*
X107511653Y-128053923D02*
X107321177Y-128244400D01*
X107321177Y-128244400D02*
X107130701Y-128339638D01*
X107130701Y-128339638D02*
X106749748Y-128339638D01*
X106749748Y-128339638D02*
X106559272Y-128244400D01*
X106559272Y-128244400D02*
X106368796Y-128053923D01*
X106368796Y-128053923D02*
X106273558Y-127672971D01*
X106273558Y-127672971D02*
X106273558Y-127006304D01*
X106273558Y-127006304D02*
X106368796Y-126625352D01*
X106368796Y-126625352D02*
X106559272Y-126434876D01*
X106559272Y-126434876D02*
X106749748Y-126339638D01*
X109606891Y-128339638D02*
X108940224Y-127387257D01*
X108464034Y-128339638D02*
X108464034Y-126339638D01*
X108464034Y-126339638D02*
X109225939Y-126339638D01*
X109225939Y-126339638D02*
X109416415Y-126434876D01*
X109416415Y-126434876D02*
X109511653Y-126530114D01*
X109511653Y-126530114D02*
X109606891Y-126720590D01*
X109606891Y-126720590D02*
X109606891Y-127006304D01*
X109606891Y-127006304D02*
X109511653Y-127196780D01*
X109511653Y-127196780D02*
X109416415Y-127292019D01*
X109416415Y-127292019D02*
X109225939Y-127387257D01*
X109225939Y-127387257D02*
X108464034Y-127387257D01*
X110464034Y-128339638D02*
X110464034Y-126339638D01*
X110464034Y-126339638D02*
X111130701Y-127768209D01*
X111130701Y-127768209D02*
X111797367Y-126339638D01*
X111797367Y-126339638D02*
X111797367Y-128339638D01*
X112654510Y-127768209D02*
X113606891Y-127768209D01*
X112464034Y-128339638D02*
X113130700Y-126339638D01*
X113130700Y-126339638D02*
X113797367Y-128339638D01*
X115416415Y-128339638D02*
X114464034Y-128339638D01*
X114464034Y-128339638D02*
X114464034Y-126339638D01*
D11*
X101158207Y-121024580D02*
X101110588Y-121072200D01*
X101110588Y-121072200D02*
X100967731Y-121119819D01*
X100967731Y-121119819D02*
X100872493Y-121119819D01*
X100872493Y-121119819D02*
X100729636Y-121072200D01*
X100729636Y-121072200D02*
X100634398Y-120976961D01*
X100634398Y-120976961D02*
X100586779Y-120881723D01*
X100586779Y-120881723D02*
X100539160Y-120691247D01*
X100539160Y-120691247D02*
X100539160Y-120548390D01*
X100539160Y-120548390D02*
X100586779Y-120357914D01*
X100586779Y-120357914D02*
X100634398Y-120262676D01*
X100634398Y-120262676D02*
X100729636Y-120167438D01*
X100729636Y-120167438D02*
X100872493Y-120119819D01*
X100872493Y-120119819D02*
X100967731Y-120119819D01*
X100967731Y-120119819D02*
X101110588Y-120167438D01*
X101110588Y-120167438D02*
X101158207Y-120215057D01*
X101729636Y-121119819D02*
X101634398Y-121072200D01*
X101634398Y-121072200D02*
X101586779Y-121024580D01*
X101586779Y-121024580D02*
X101539160Y-120929342D01*
X101539160Y-120929342D02*
X101539160Y-120643628D01*
X101539160Y-120643628D02*
X101586779Y-120548390D01*
X101586779Y-120548390D02*
X101634398Y-120500771D01*
X101634398Y-120500771D02*
X101729636Y-120453152D01*
X101729636Y-120453152D02*
X101872493Y-120453152D01*
X101872493Y-120453152D02*
X101967731Y-120500771D01*
X101967731Y-120500771D02*
X102015350Y-120548390D01*
X102015350Y-120548390D02*
X102062969Y-120643628D01*
X102062969Y-120643628D02*
X102062969Y-120929342D01*
X102062969Y-120929342D02*
X102015350Y-121024580D01*
X102015350Y-121024580D02*
X101967731Y-121072200D01*
X101967731Y-121072200D02*
X101872493Y-121119819D01*
X101872493Y-121119819D02*
X101729636Y-121119819D01*
X102491541Y-120453152D02*
X102491541Y-121119819D01*
X102491541Y-120548390D02*
X102539160Y-120500771D01*
X102539160Y-120500771D02*
X102634398Y-120453152D01*
X102634398Y-120453152D02*
X102777255Y-120453152D01*
X102777255Y-120453152D02*
X102872493Y-120500771D01*
X102872493Y-120500771D02*
X102920112Y-120596009D01*
X102920112Y-120596009D02*
X102920112Y-121119819D01*
X103253446Y-120453152D02*
X103634398Y-120453152D01*
X103396303Y-120119819D02*
X103396303Y-120976961D01*
X103396303Y-120976961D02*
X103443922Y-121072200D01*
X103443922Y-121072200D02*
X103539160Y-121119819D01*
X103539160Y-121119819D02*
X103634398Y-121119819D01*
X103967732Y-121119819D02*
X103967732Y-120453152D01*
X103967732Y-120643628D02*
X104015351Y-120548390D01*
X104015351Y-120548390D02*
X104062970Y-120500771D01*
X104062970Y-120500771D02*
X104158208Y-120453152D01*
X104158208Y-120453152D02*
X104253446Y-120453152D01*
X104729637Y-121119819D02*
X104634399Y-121072200D01*
X104634399Y-121072200D02*
X104586780Y-121024580D01*
X104586780Y-121024580D02*
X104539161Y-120929342D01*
X104539161Y-120929342D02*
X104539161Y-120643628D01*
X104539161Y-120643628D02*
X104586780Y-120548390D01*
X104586780Y-120548390D02*
X104634399Y-120500771D01*
X104634399Y-120500771D02*
X104729637Y-120453152D01*
X104729637Y-120453152D02*
X104872494Y-120453152D01*
X104872494Y-120453152D02*
X104967732Y-120500771D01*
X104967732Y-120500771D02*
X105015351Y-120548390D01*
X105015351Y-120548390D02*
X105062970Y-120643628D01*
X105062970Y-120643628D02*
X105062970Y-120929342D01*
X105062970Y-120929342D02*
X105015351Y-121024580D01*
X105015351Y-121024580D02*
X104967732Y-121072200D01*
X104967732Y-121072200D02*
X104872494Y-121119819D01*
X104872494Y-121119819D02*
X104729637Y-121119819D01*
X105634399Y-121119819D02*
X105539161Y-121072200D01*
X105539161Y-121072200D02*
X105491542Y-120976961D01*
X105491542Y-120976961D02*
X105491542Y-120119819D01*
X106158209Y-121119819D02*
X106062971Y-121072200D01*
X106062971Y-121072200D02*
X106015352Y-120976961D01*
X106015352Y-120976961D02*
X106015352Y-120119819D01*
X106920114Y-121072200D02*
X106824876Y-121119819D01*
X106824876Y-121119819D02*
X106634400Y-121119819D01*
X106634400Y-121119819D02*
X106539162Y-121072200D01*
X106539162Y-121072200D02*
X106491543Y-120976961D01*
X106491543Y-120976961D02*
X106491543Y-120596009D01*
X106491543Y-120596009D02*
X106539162Y-120500771D01*
X106539162Y-120500771D02*
X106634400Y-120453152D01*
X106634400Y-120453152D02*
X106824876Y-120453152D01*
X106824876Y-120453152D02*
X106920114Y-120500771D01*
X106920114Y-120500771D02*
X106967733Y-120596009D01*
X106967733Y-120596009D02*
X106967733Y-120691247D01*
X106967733Y-120691247D02*
X106491543Y-120786485D01*
X107396305Y-121119819D02*
X107396305Y-120453152D01*
X107396305Y-120643628D02*
X107443924Y-120548390D01*
X107443924Y-120548390D02*
X107491543Y-120500771D01*
X107491543Y-120500771D02*
X107586781Y-120453152D01*
X107586781Y-120453152D02*
X107682019Y-120453152D01*
D14*
X192643482Y-86914838D02*
X192548244Y-86867219D01*
X192548244Y-86867219D02*
X192405387Y-86867219D01*
X192405387Y-86867219D02*
X192262530Y-86914838D01*
X192262530Y-86914838D02*
X192167292Y-87010076D01*
X192167292Y-87010076D02*
X192119673Y-87105314D01*
X192119673Y-87105314D02*
X192072054Y-87295790D01*
X192072054Y-87295790D02*
X192072054Y-87438647D01*
X192072054Y-87438647D02*
X192119673Y-87629123D01*
X192119673Y-87629123D02*
X192167292Y-87724361D01*
X192167292Y-87724361D02*
X192262530Y-87819600D01*
X192262530Y-87819600D02*
X192405387Y-87867219D01*
X192405387Y-87867219D02*
X192500625Y-87867219D01*
X192500625Y-87867219D02*
X192643482Y-87819600D01*
X192643482Y-87819600D02*
X192691101Y-87771980D01*
X192691101Y-87771980D02*
X192691101Y-87438647D01*
X192691101Y-87438647D02*
X192500625Y-87438647D01*
X193119673Y-87486266D02*
X193881578Y-87486266D01*
X194833958Y-86867219D02*
X194357768Y-86867219D01*
X194357768Y-86867219D02*
X194310149Y-87343409D01*
X194310149Y-87343409D02*
X194357768Y-87295790D01*
X194357768Y-87295790D02*
X194453006Y-87248171D01*
X194453006Y-87248171D02*
X194691101Y-87248171D01*
X194691101Y-87248171D02*
X194786339Y-87295790D01*
X194786339Y-87295790D02*
X194833958Y-87343409D01*
X194833958Y-87343409D02*
X194881577Y-87438647D01*
X194881577Y-87438647D02*
X194881577Y-87676742D01*
X194881577Y-87676742D02*
X194833958Y-87771980D01*
X194833958Y-87771980D02*
X194786339Y-87819600D01*
X194786339Y-87819600D02*
X194691101Y-87867219D01*
X194691101Y-87867219D02*
X194453006Y-87867219D01*
X194453006Y-87867219D02*
X194357768Y-87819600D01*
X194357768Y-87819600D02*
X194310149Y-87771980D01*
X195167292Y-86867219D02*
X195500625Y-87867219D01*
X195500625Y-87867219D02*
X195833958Y-86867219D01*
X192845863Y-109867219D02*
X192369673Y-109867219D01*
X192369673Y-109867219D02*
X192322054Y-110343409D01*
X192322054Y-110343409D02*
X192369673Y-110295790D01*
X192369673Y-110295790D02*
X192464911Y-110248171D01*
X192464911Y-110248171D02*
X192703006Y-110248171D01*
X192703006Y-110248171D02*
X192798244Y-110295790D01*
X192798244Y-110295790D02*
X192845863Y-110343409D01*
X192845863Y-110343409D02*
X192893482Y-110438647D01*
X192893482Y-110438647D02*
X192893482Y-110676742D01*
X192893482Y-110676742D02*
X192845863Y-110771980D01*
X192845863Y-110771980D02*
X192798244Y-110819600D01*
X192798244Y-110819600D02*
X192703006Y-110867219D01*
X192703006Y-110867219D02*
X192464911Y-110867219D01*
X192464911Y-110867219D02*
X192369673Y-110819600D01*
X192369673Y-110819600D02*
X192322054Y-110771980D01*
X193179197Y-109867219D02*
X193512530Y-110867219D01*
X193512530Y-110867219D02*
X193845863Y-109867219D01*
X163474435Y-50167219D02*
X164141101Y-50167219D01*
X164141101Y-50167219D02*
X163712530Y-51167219D01*
X164950625Y-50500552D02*
X164950625Y-51167219D01*
X164712530Y-50119600D02*
X164474435Y-50833885D01*
X164474435Y-50833885D02*
X165093482Y-50833885D01*
X165474435Y-51167219D02*
X165474435Y-50167219D01*
X165474435Y-50643409D02*
X166045863Y-50643409D01*
X166045863Y-51167219D02*
X166045863Y-50167219D01*
X167093482Y-51071980D02*
X167045863Y-51119600D01*
X167045863Y-51119600D02*
X166903006Y-51167219D01*
X166903006Y-51167219D02*
X166807768Y-51167219D01*
X166807768Y-51167219D02*
X166664911Y-51119600D01*
X166664911Y-51119600D02*
X166569673Y-51024361D01*
X166569673Y-51024361D02*
X166522054Y-50929123D01*
X166522054Y-50929123D02*
X166474435Y-50738647D01*
X166474435Y-50738647D02*
X166474435Y-50595790D01*
X166474435Y-50595790D02*
X166522054Y-50405314D01*
X166522054Y-50405314D02*
X166569673Y-50310076D01*
X166569673Y-50310076D02*
X166664911Y-50214838D01*
X166664911Y-50214838D02*
X166807768Y-50167219D01*
X166807768Y-50167219D02*
X166903006Y-50167219D01*
X166903006Y-50167219D02*
X167045863Y-50214838D01*
X167045863Y-50214838D02*
X167093482Y-50262457D01*
X167712530Y-50167219D02*
X167807768Y-50167219D01*
X167807768Y-50167219D02*
X167903006Y-50214838D01*
X167903006Y-50214838D02*
X167950625Y-50262457D01*
X167950625Y-50262457D02*
X167998244Y-50357695D01*
X167998244Y-50357695D02*
X168045863Y-50548171D01*
X168045863Y-50548171D02*
X168045863Y-50786266D01*
X168045863Y-50786266D02*
X167998244Y-50976742D01*
X167998244Y-50976742D02*
X167950625Y-51071980D01*
X167950625Y-51071980D02*
X167903006Y-51119600D01*
X167903006Y-51119600D02*
X167807768Y-51167219D01*
X167807768Y-51167219D02*
X167712530Y-51167219D01*
X167712530Y-51167219D02*
X167617292Y-51119600D01*
X167617292Y-51119600D02*
X167569673Y-51071980D01*
X167569673Y-51071980D02*
X167522054Y-50976742D01*
X167522054Y-50976742D02*
X167474435Y-50786266D01*
X167474435Y-50786266D02*
X167474435Y-50548171D01*
X167474435Y-50548171D02*
X167522054Y-50357695D01*
X167522054Y-50357695D02*
X167569673Y-50262457D01*
X167569673Y-50262457D02*
X167617292Y-50214838D01*
X167617292Y-50214838D02*
X167712530Y-50167219D01*
X168664911Y-50167219D02*
X168760149Y-50167219D01*
X168760149Y-50167219D02*
X168855387Y-50214838D01*
X168855387Y-50214838D02*
X168903006Y-50262457D01*
X168903006Y-50262457D02*
X168950625Y-50357695D01*
X168950625Y-50357695D02*
X168998244Y-50548171D01*
X168998244Y-50548171D02*
X168998244Y-50786266D01*
X168998244Y-50786266D02*
X168950625Y-50976742D01*
X168950625Y-50976742D02*
X168903006Y-51071980D01*
X168903006Y-51071980D02*
X168855387Y-51119600D01*
X168855387Y-51119600D02*
X168760149Y-51167219D01*
X168760149Y-51167219D02*
X168664911Y-51167219D01*
X168664911Y-51167219D02*
X168569673Y-51119600D01*
X168569673Y-51119600D02*
X168522054Y-51071980D01*
X168522054Y-51071980D02*
X168474435Y-50976742D01*
X168474435Y-50976742D02*
X168426816Y-50786266D01*
X168426816Y-50786266D02*
X168426816Y-50548171D01*
X168426816Y-50548171D02*
X168474435Y-50357695D01*
X168474435Y-50357695D02*
X168522054Y-50262457D01*
X168522054Y-50262457D02*
X168569673Y-50214838D01*
X168569673Y-50214838D02*
X168664911Y-50167219D01*
X134774435Y-50167219D02*
X135441101Y-50167219D01*
X135441101Y-50167219D02*
X135012530Y-51167219D01*
X136250625Y-50500552D02*
X136250625Y-51167219D01*
X136012530Y-50119600D02*
X135774435Y-50833885D01*
X135774435Y-50833885D02*
X136393482Y-50833885D01*
X136774435Y-51167219D02*
X136774435Y-50167219D01*
X136774435Y-50643409D02*
X137345863Y-50643409D01*
X137345863Y-51167219D02*
X137345863Y-50167219D01*
X138393482Y-51071980D02*
X138345863Y-51119600D01*
X138345863Y-51119600D02*
X138203006Y-51167219D01*
X138203006Y-51167219D02*
X138107768Y-51167219D01*
X138107768Y-51167219D02*
X137964911Y-51119600D01*
X137964911Y-51119600D02*
X137869673Y-51024361D01*
X137869673Y-51024361D02*
X137822054Y-50929123D01*
X137822054Y-50929123D02*
X137774435Y-50738647D01*
X137774435Y-50738647D02*
X137774435Y-50595790D01*
X137774435Y-50595790D02*
X137822054Y-50405314D01*
X137822054Y-50405314D02*
X137869673Y-50310076D01*
X137869673Y-50310076D02*
X137964911Y-50214838D01*
X137964911Y-50214838D02*
X138107768Y-50167219D01*
X138107768Y-50167219D02*
X138203006Y-50167219D01*
X138203006Y-50167219D02*
X138345863Y-50214838D01*
X138345863Y-50214838D02*
X138393482Y-50262457D01*
X139012530Y-50167219D02*
X139107768Y-50167219D01*
X139107768Y-50167219D02*
X139203006Y-50214838D01*
X139203006Y-50214838D02*
X139250625Y-50262457D01*
X139250625Y-50262457D02*
X139298244Y-50357695D01*
X139298244Y-50357695D02*
X139345863Y-50548171D01*
X139345863Y-50548171D02*
X139345863Y-50786266D01*
X139345863Y-50786266D02*
X139298244Y-50976742D01*
X139298244Y-50976742D02*
X139250625Y-51071980D01*
X139250625Y-51071980D02*
X139203006Y-51119600D01*
X139203006Y-51119600D02*
X139107768Y-51167219D01*
X139107768Y-51167219D02*
X139012530Y-51167219D01*
X139012530Y-51167219D02*
X138917292Y-51119600D01*
X138917292Y-51119600D02*
X138869673Y-51071980D01*
X138869673Y-51071980D02*
X138822054Y-50976742D01*
X138822054Y-50976742D02*
X138774435Y-50786266D01*
X138774435Y-50786266D02*
X138774435Y-50548171D01*
X138774435Y-50548171D02*
X138822054Y-50357695D01*
X138822054Y-50357695D02*
X138869673Y-50262457D01*
X138869673Y-50262457D02*
X138917292Y-50214838D01*
X138917292Y-50214838D02*
X139012530Y-50167219D01*
X139964911Y-50167219D02*
X140060149Y-50167219D01*
X140060149Y-50167219D02*
X140155387Y-50214838D01*
X140155387Y-50214838D02*
X140203006Y-50262457D01*
X140203006Y-50262457D02*
X140250625Y-50357695D01*
X140250625Y-50357695D02*
X140298244Y-50548171D01*
X140298244Y-50548171D02*
X140298244Y-50786266D01*
X140298244Y-50786266D02*
X140250625Y-50976742D01*
X140250625Y-50976742D02*
X140203006Y-51071980D01*
X140203006Y-51071980D02*
X140155387Y-51119600D01*
X140155387Y-51119600D02*
X140060149Y-51167219D01*
X140060149Y-51167219D02*
X139964911Y-51167219D01*
X139964911Y-51167219D02*
X139869673Y-51119600D01*
X139869673Y-51119600D02*
X139822054Y-51071980D01*
X139822054Y-51071980D02*
X139774435Y-50976742D01*
X139774435Y-50976742D02*
X139726816Y-50786266D01*
X139726816Y-50786266D02*
X139726816Y-50548171D01*
X139726816Y-50548171D02*
X139774435Y-50357695D01*
X139774435Y-50357695D02*
X139822054Y-50262457D01*
X139822054Y-50262457D02*
X139869673Y-50214838D01*
X139869673Y-50214838D02*
X139964911Y-50167219D01*
D11*
X105619819Y-116063220D02*
X104619819Y-116063220D01*
X105096009Y-116063220D02*
X105096009Y-115491792D01*
X105619819Y-115491792D02*
X104619819Y-115491792D01*
X105619819Y-115015601D02*
X104619819Y-115015601D01*
X104667438Y-114015602D02*
X104619819Y-114110840D01*
X104619819Y-114110840D02*
X104619819Y-114253697D01*
X104619819Y-114253697D02*
X104667438Y-114396554D01*
X104667438Y-114396554D02*
X104762676Y-114491792D01*
X104762676Y-114491792D02*
X104857914Y-114539411D01*
X104857914Y-114539411D02*
X105048390Y-114587030D01*
X105048390Y-114587030D02*
X105191247Y-114587030D01*
X105191247Y-114587030D02*
X105381723Y-114539411D01*
X105381723Y-114539411D02*
X105476961Y-114491792D01*
X105476961Y-114491792D02*
X105572200Y-114396554D01*
X105572200Y-114396554D02*
X105619819Y-114253697D01*
X105619819Y-114253697D02*
X105619819Y-114158459D01*
X105619819Y-114158459D02*
X105572200Y-114015602D01*
X105572200Y-114015602D02*
X105524580Y-113967983D01*
X105524580Y-113967983D02*
X105191247Y-113967983D01*
X105191247Y-113967983D02*
X105191247Y-114158459D01*
X105619819Y-113539411D02*
X104619819Y-113539411D01*
X105096009Y-113539411D02*
X105096009Y-112967983D01*
X105619819Y-112967983D02*
X104619819Y-112967983D01*
D14*
X192893482Y-107164838D02*
X192798244Y-107117219D01*
X192798244Y-107117219D02*
X192655387Y-107117219D01*
X192655387Y-107117219D02*
X192512530Y-107164838D01*
X192512530Y-107164838D02*
X192417292Y-107260076D01*
X192417292Y-107260076D02*
X192369673Y-107355314D01*
X192369673Y-107355314D02*
X192322054Y-107545790D01*
X192322054Y-107545790D02*
X192322054Y-107688647D01*
X192322054Y-107688647D02*
X192369673Y-107879123D01*
X192369673Y-107879123D02*
X192417292Y-107974361D01*
X192417292Y-107974361D02*
X192512530Y-108069600D01*
X192512530Y-108069600D02*
X192655387Y-108117219D01*
X192655387Y-108117219D02*
X192750625Y-108117219D01*
X192750625Y-108117219D02*
X192893482Y-108069600D01*
X192893482Y-108069600D02*
X192941101Y-108021980D01*
X192941101Y-108021980D02*
X192941101Y-107688647D01*
X192941101Y-107688647D02*
X192750625Y-107688647D01*
X193369673Y-108117219D02*
X193369673Y-107117219D01*
X193369673Y-107117219D02*
X193941101Y-108117219D01*
X193941101Y-108117219D02*
X193941101Y-107117219D01*
X194417292Y-108117219D02*
X194417292Y-107117219D01*
X194417292Y-107117219D02*
X194655387Y-107117219D01*
X194655387Y-107117219D02*
X194798244Y-107164838D01*
X194798244Y-107164838D02*
X194893482Y-107260076D01*
X194893482Y-107260076D02*
X194941101Y-107355314D01*
X194941101Y-107355314D02*
X194988720Y-107545790D01*
X194988720Y-107545790D02*
X194988720Y-107688647D01*
X194988720Y-107688647D02*
X194941101Y-107879123D01*
X194941101Y-107879123D02*
X194893482Y-107974361D01*
X194893482Y-107974361D02*
X194798244Y-108069600D01*
X194798244Y-108069600D02*
X194655387Y-108117219D01*
X194655387Y-108117219D02*
X194417292Y-108117219D01*
X192643482Y-84414838D02*
X192548244Y-84367219D01*
X192548244Y-84367219D02*
X192405387Y-84367219D01*
X192405387Y-84367219D02*
X192262530Y-84414838D01*
X192262530Y-84414838D02*
X192167292Y-84510076D01*
X192167292Y-84510076D02*
X192119673Y-84605314D01*
X192119673Y-84605314D02*
X192072054Y-84795790D01*
X192072054Y-84795790D02*
X192072054Y-84938647D01*
X192072054Y-84938647D02*
X192119673Y-85129123D01*
X192119673Y-85129123D02*
X192167292Y-85224361D01*
X192167292Y-85224361D02*
X192262530Y-85319600D01*
X192262530Y-85319600D02*
X192405387Y-85367219D01*
X192405387Y-85367219D02*
X192500625Y-85367219D01*
X192500625Y-85367219D02*
X192643482Y-85319600D01*
X192643482Y-85319600D02*
X192691101Y-85271980D01*
X192691101Y-85271980D02*
X192691101Y-84938647D01*
X192691101Y-84938647D02*
X192500625Y-84938647D01*
X193119673Y-84986266D02*
X193881578Y-84986266D01*
X194262530Y-84367219D02*
X194881577Y-84367219D01*
X194881577Y-84367219D02*
X194548244Y-84748171D01*
X194548244Y-84748171D02*
X194691101Y-84748171D01*
X194691101Y-84748171D02*
X194786339Y-84795790D01*
X194786339Y-84795790D02*
X194833958Y-84843409D01*
X194833958Y-84843409D02*
X194881577Y-84938647D01*
X194881577Y-84938647D02*
X194881577Y-85176742D01*
X194881577Y-85176742D02*
X194833958Y-85271980D01*
X194833958Y-85271980D02*
X194786339Y-85319600D01*
X194786339Y-85319600D02*
X194691101Y-85367219D01*
X194691101Y-85367219D02*
X194405387Y-85367219D01*
X194405387Y-85367219D02*
X194310149Y-85319600D01*
X194310149Y-85319600D02*
X194262530Y-85271980D01*
X195167292Y-84367219D02*
X195500625Y-85367219D01*
X195500625Y-85367219D02*
X195833958Y-84367219D01*
X196072054Y-84367219D02*
X196691101Y-84367219D01*
X196691101Y-84367219D02*
X196357768Y-84748171D01*
X196357768Y-84748171D02*
X196500625Y-84748171D01*
X196500625Y-84748171D02*
X196595863Y-84795790D01*
X196595863Y-84795790D02*
X196643482Y-84843409D01*
X196643482Y-84843409D02*
X196691101Y-84938647D01*
X196691101Y-84938647D02*
X196691101Y-85176742D01*
X196691101Y-85176742D02*
X196643482Y-85271980D01*
X196643482Y-85271980D02*
X196595863Y-85319600D01*
X196595863Y-85319600D02*
X196500625Y-85367219D01*
X196500625Y-85367219D02*
X196214911Y-85367219D01*
X196214911Y-85367219D02*
X196119673Y-85319600D01*
X196119673Y-85319600D02*
X196072054Y-85271980D01*
X192893482Y-104664838D02*
X192798244Y-104617219D01*
X192798244Y-104617219D02*
X192655387Y-104617219D01*
X192655387Y-104617219D02*
X192512530Y-104664838D01*
X192512530Y-104664838D02*
X192417292Y-104760076D01*
X192417292Y-104760076D02*
X192369673Y-104855314D01*
X192369673Y-104855314D02*
X192322054Y-105045790D01*
X192322054Y-105045790D02*
X192322054Y-105188647D01*
X192322054Y-105188647D02*
X192369673Y-105379123D01*
X192369673Y-105379123D02*
X192417292Y-105474361D01*
X192417292Y-105474361D02*
X192512530Y-105569600D01*
X192512530Y-105569600D02*
X192655387Y-105617219D01*
X192655387Y-105617219D02*
X192750625Y-105617219D01*
X192750625Y-105617219D02*
X192893482Y-105569600D01*
X192893482Y-105569600D02*
X192941101Y-105521980D01*
X192941101Y-105521980D02*
X192941101Y-105188647D01*
X192941101Y-105188647D02*
X192750625Y-105188647D01*
X193369673Y-105617219D02*
X193369673Y-104617219D01*
X193369673Y-104617219D02*
X193941101Y-105617219D01*
X193941101Y-105617219D02*
X193941101Y-104617219D01*
X194417292Y-105617219D02*
X194417292Y-104617219D01*
X194417292Y-104617219D02*
X194655387Y-104617219D01*
X194655387Y-104617219D02*
X194798244Y-104664838D01*
X194798244Y-104664838D02*
X194893482Y-104760076D01*
X194893482Y-104760076D02*
X194941101Y-104855314D01*
X194941101Y-104855314D02*
X194988720Y-105045790D01*
X194988720Y-105045790D02*
X194988720Y-105188647D01*
X194988720Y-105188647D02*
X194941101Y-105379123D01*
X194941101Y-105379123D02*
X194893482Y-105474361D01*
X194893482Y-105474361D02*
X194798244Y-105569600D01*
X194798244Y-105569600D02*
X194655387Y-105617219D01*
X194655387Y-105617219D02*
X194417292Y-105617219D01*
X192845863Y-112467219D02*
X192369673Y-112467219D01*
X192369673Y-112467219D02*
X192322054Y-112943409D01*
X192322054Y-112943409D02*
X192369673Y-112895790D01*
X192369673Y-112895790D02*
X192464911Y-112848171D01*
X192464911Y-112848171D02*
X192703006Y-112848171D01*
X192703006Y-112848171D02*
X192798244Y-112895790D01*
X192798244Y-112895790D02*
X192845863Y-112943409D01*
X192845863Y-112943409D02*
X192893482Y-113038647D01*
X192893482Y-113038647D02*
X192893482Y-113276742D01*
X192893482Y-113276742D02*
X192845863Y-113371980D01*
X192845863Y-113371980D02*
X192798244Y-113419600D01*
X192798244Y-113419600D02*
X192703006Y-113467219D01*
X192703006Y-113467219D02*
X192464911Y-113467219D01*
X192464911Y-113467219D02*
X192369673Y-113419600D01*
X192369673Y-113419600D02*
X192322054Y-113371980D01*
X193179197Y-112467219D02*
X193512530Y-113467219D01*
X193512530Y-113467219D02*
X193845863Y-112467219D01*
X193067219Y-130830326D02*
X193876742Y-130830326D01*
X193876742Y-130830326D02*
X193971980Y-130782707D01*
X193971980Y-130782707D02*
X194019600Y-130735088D01*
X194019600Y-130735088D02*
X194067219Y-130639850D01*
X194067219Y-130639850D02*
X194067219Y-130449374D01*
X194067219Y-130449374D02*
X194019600Y-130354136D01*
X194019600Y-130354136D02*
X193971980Y-130306517D01*
X193971980Y-130306517D02*
X193876742Y-130258898D01*
X193876742Y-130258898D02*
X193067219Y-130258898D01*
X194019600Y-129830326D02*
X194067219Y-129687469D01*
X194067219Y-129687469D02*
X194067219Y-129449374D01*
X194067219Y-129449374D02*
X194019600Y-129354136D01*
X194019600Y-129354136D02*
X193971980Y-129306517D01*
X193971980Y-129306517D02*
X193876742Y-129258898D01*
X193876742Y-129258898D02*
X193781504Y-129258898D01*
X193781504Y-129258898D02*
X193686266Y-129306517D01*
X193686266Y-129306517D02*
X193638647Y-129354136D01*
X193638647Y-129354136D02*
X193591028Y-129449374D01*
X193591028Y-129449374D02*
X193543409Y-129639850D01*
X193543409Y-129639850D02*
X193495790Y-129735088D01*
X193495790Y-129735088D02*
X193448171Y-129782707D01*
X193448171Y-129782707D02*
X193352933Y-129830326D01*
X193352933Y-129830326D02*
X193257695Y-129830326D01*
X193257695Y-129830326D02*
X193162457Y-129782707D01*
X193162457Y-129782707D02*
X193114838Y-129735088D01*
X193114838Y-129735088D02*
X193067219Y-129639850D01*
X193067219Y-129639850D02*
X193067219Y-129401755D01*
X193067219Y-129401755D02*
X193114838Y-129258898D01*
X193543409Y-128496993D02*
X193591028Y-128354136D01*
X193591028Y-128354136D02*
X193638647Y-128306517D01*
X193638647Y-128306517D02*
X193733885Y-128258898D01*
X193733885Y-128258898D02*
X193876742Y-128258898D01*
X193876742Y-128258898D02*
X193971980Y-128306517D01*
X193971980Y-128306517D02*
X194019600Y-128354136D01*
X194019600Y-128354136D02*
X194067219Y-128449374D01*
X194067219Y-128449374D02*
X194067219Y-128830326D01*
X194067219Y-128830326D02*
X193067219Y-128830326D01*
X193067219Y-128830326D02*
X193067219Y-128496993D01*
X193067219Y-128496993D02*
X193114838Y-128401755D01*
X193114838Y-128401755D02*
X193162457Y-128354136D01*
X193162457Y-128354136D02*
X193257695Y-128306517D01*
X193257695Y-128306517D02*
X193352933Y-128306517D01*
X193352933Y-128306517D02*
X193448171Y-128354136D01*
X193448171Y-128354136D02*
X193495790Y-128401755D01*
X193495790Y-128401755D02*
X193543409Y-128496993D01*
X193543409Y-128496993D02*
X193543409Y-128830326D01*
X193971980Y-126496993D02*
X194019600Y-126544612D01*
X194019600Y-126544612D02*
X194067219Y-126687469D01*
X194067219Y-126687469D02*
X194067219Y-126782707D01*
X194067219Y-126782707D02*
X194019600Y-126925564D01*
X194019600Y-126925564D02*
X193924361Y-127020802D01*
X193924361Y-127020802D02*
X193829123Y-127068421D01*
X193829123Y-127068421D02*
X193638647Y-127116040D01*
X193638647Y-127116040D02*
X193495790Y-127116040D01*
X193495790Y-127116040D02*
X193305314Y-127068421D01*
X193305314Y-127068421D02*
X193210076Y-127020802D01*
X193210076Y-127020802D02*
X193114838Y-126925564D01*
X193114838Y-126925564D02*
X193067219Y-126782707D01*
X193067219Y-126782707D02*
X193067219Y-126687469D01*
X193067219Y-126687469D02*
X193114838Y-126544612D01*
X193114838Y-126544612D02*
X193162457Y-126496993D01*
X193067219Y-125877945D02*
X193067219Y-125687469D01*
X193067219Y-125687469D02*
X193114838Y-125592231D01*
X193114838Y-125592231D02*
X193210076Y-125496993D01*
X193210076Y-125496993D02*
X193400552Y-125449374D01*
X193400552Y-125449374D02*
X193733885Y-125449374D01*
X193733885Y-125449374D02*
X193924361Y-125496993D01*
X193924361Y-125496993D02*
X194019600Y-125592231D01*
X194019600Y-125592231D02*
X194067219Y-125687469D01*
X194067219Y-125687469D02*
X194067219Y-125877945D01*
X194067219Y-125877945D02*
X194019600Y-125973183D01*
X194019600Y-125973183D02*
X193924361Y-126068421D01*
X193924361Y-126068421D02*
X193733885Y-126116040D01*
X193733885Y-126116040D02*
X193400552Y-126116040D01*
X193400552Y-126116040D02*
X193210076Y-126068421D01*
X193210076Y-126068421D02*
X193114838Y-125973183D01*
X193114838Y-125973183D02*
X193067219Y-125877945D01*
X194067219Y-125020802D02*
X193067219Y-125020802D01*
X193067219Y-125020802D02*
X194067219Y-124449374D01*
X194067219Y-124449374D02*
X193067219Y-124449374D01*
X194067219Y-123973183D02*
X193067219Y-123973183D01*
X193067219Y-123973183D02*
X194067219Y-123401755D01*
X194067219Y-123401755D02*
X193067219Y-123401755D01*
D11*
X161622493Y-56869819D02*
X161622493Y-57584104D01*
X161622493Y-57584104D02*
X161574874Y-57726961D01*
X161574874Y-57726961D02*
X161479636Y-57822200D01*
X161479636Y-57822200D02*
X161336779Y-57869819D01*
X161336779Y-57869819D02*
X161241541Y-57869819D01*
X162574874Y-57869819D02*
X162098684Y-57869819D01*
X162098684Y-57869819D02*
X162098684Y-56869819D01*
X163479636Y-57774580D02*
X163432017Y-57822200D01*
X163432017Y-57822200D02*
X163289160Y-57869819D01*
X163289160Y-57869819D02*
X163193922Y-57869819D01*
X163193922Y-57869819D02*
X163051065Y-57822200D01*
X163051065Y-57822200D02*
X162955827Y-57726961D01*
X162955827Y-57726961D02*
X162908208Y-57631723D01*
X162908208Y-57631723D02*
X162860589Y-57441247D01*
X162860589Y-57441247D02*
X162860589Y-57298390D01*
X162860589Y-57298390D02*
X162908208Y-57107914D01*
X162908208Y-57107914D02*
X162955827Y-57012676D01*
X162955827Y-57012676D02*
X163051065Y-56917438D01*
X163051065Y-56917438D02*
X163193922Y-56869819D01*
X163193922Y-56869819D02*
X163289160Y-56869819D01*
X163289160Y-56869819D02*
X163432017Y-56917438D01*
X163432017Y-56917438D02*
X163479636Y-56965057D01*
X164193922Y-56869819D02*
X164193922Y-57584104D01*
X164193922Y-57584104D02*
X164146303Y-57726961D01*
X164146303Y-57726961D02*
X164051065Y-57822200D01*
X164051065Y-57822200D02*
X163908208Y-57869819D01*
X163908208Y-57869819D02*
X163812970Y-57869819D01*
X165146303Y-57869819D02*
X164670113Y-57869819D01*
X164670113Y-57869819D02*
X164670113Y-56869819D01*
X166051065Y-57774580D02*
X166003446Y-57822200D01*
X166003446Y-57822200D02*
X165860589Y-57869819D01*
X165860589Y-57869819D02*
X165765351Y-57869819D01*
X165765351Y-57869819D02*
X165622494Y-57822200D01*
X165622494Y-57822200D02*
X165527256Y-57726961D01*
X165527256Y-57726961D02*
X165479637Y-57631723D01*
X165479637Y-57631723D02*
X165432018Y-57441247D01*
X165432018Y-57441247D02*
X165432018Y-57298390D01*
X165432018Y-57298390D02*
X165479637Y-57107914D01*
X165479637Y-57107914D02*
X165527256Y-57012676D01*
X165527256Y-57012676D02*
X165622494Y-56917438D01*
X165622494Y-56917438D02*
X165765351Y-56869819D01*
X165765351Y-56869819D02*
X165860589Y-56869819D01*
X165860589Y-56869819D02*
X166003446Y-56917438D01*
X166003446Y-56917438D02*
X166051065Y-56965057D01*
X166765351Y-56869819D02*
X166765351Y-57584104D01*
X166765351Y-57584104D02*
X166717732Y-57726961D01*
X166717732Y-57726961D02*
X166622494Y-57822200D01*
X166622494Y-57822200D02*
X166479637Y-57869819D01*
X166479637Y-57869819D02*
X166384399Y-57869819D01*
X167717732Y-57869819D02*
X167241542Y-57869819D01*
X167241542Y-57869819D02*
X167241542Y-56869819D01*
X168622494Y-57774580D02*
X168574875Y-57822200D01*
X168574875Y-57822200D02*
X168432018Y-57869819D01*
X168432018Y-57869819D02*
X168336780Y-57869819D01*
X168336780Y-57869819D02*
X168193923Y-57822200D01*
X168193923Y-57822200D02*
X168098685Y-57726961D01*
X168098685Y-57726961D02*
X168051066Y-57631723D01*
X168051066Y-57631723D02*
X168003447Y-57441247D01*
X168003447Y-57441247D02*
X168003447Y-57298390D01*
X168003447Y-57298390D02*
X168051066Y-57107914D01*
X168051066Y-57107914D02*
X168098685Y-57012676D01*
X168098685Y-57012676D02*
X168193923Y-56917438D01*
X168193923Y-56917438D02*
X168336780Y-56869819D01*
X168336780Y-56869819D02*
X168432018Y-56869819D01*
X168432018Y-56869819D02*
X168574875Y-56917438D01*
X168574875Y-56917438D02*
X168622494Y-56965057D01*
X169336780Y-56869819D02*
X169336780Y-57584104D01*
X169336780Y-57584104D02*
X169289161Y-57726961D01*
X169289161Y-57726961D02*
X169193923Y-57822200D01*
X169193923Y-57822200D02*
X169051066Y-57869819D01*
X169051066Y-57869819D02*
X168955828Y-57869819D01*
X170289161Y-57869819D02*
X169812971Y-57869819D01*
X169812971Y-57869819D02*
X169812971Y-56869819D01*
X171193923Y-57774580D02*
X171146304Y-57822200D01*
X171146304Y-57822200D02*
X171003447Y-57869819D01*
X171003447Y-57869819D02*
X170908209Y-57869819D01*
X170908209Y-57869819D02*
X170765352Y-57822200D01*
X170765352Y-57822200D02*
X170670114Y-57726961D01*
X170670114Y-57726961D02*
X170622495Y-57631723D01*
X170622495Y-57631723D02*
X170574876Y-57441247D01*
X170574876Y-57441247D02*
X170574876Y-57298390D01*
X170574876Y-57298390D02*
X170622495Y-57107914D01*
X170622495Y-57107914D02*
X170670114Y-57012676D01*
X170670114Y-57012676D02*
X170765352Y-56917438D01*
X170765352Y-56917438D02*
X170908209Y-56869819D01*
X170908209Y-56869819D02*
X171003447Y-56869819D01*
X171003447Y-56869819D02*
X171146304Y-56917438D01*
X171146304Y-56917438D02*
X171193923Y-56965057D01*
D10*
X132973558Y-129039638D02*
X132973558Y-127039638D01*
X132973558Y-127992019D02*
X134116415Y-127992019D01*
X134116415Y-129039638D02*
X134116415Y-127039638D01*
X135068796Y-129039638D02*
X135068796Y-127039638D01*
X137068796Y-127134876D02*
X136878320Y-127039638D01*
X136878320Y-127039638D02*
X136592606Y-127039638D01*
X136592606Y-127039638D02*
X136306891Y-127134876D01*
X136306891Y-127134876D02*
X136116415Y-127325352D01*
X136116415Y-127325352D02*
X136021177Y-127515828D01*
X136021177Y-127515828D02*
X135925939Y-127896780D01*
X135925939Y-127896780D02*
X135925939Y-128182495D01*
X135925939Y-128182495D02*
X136021177Y-128563447D01*
X136021177Y-128563447D02*
X136116415Y-128753923D01*
X136116415Y-128753923D02*
X136306891Y-128944400D01*
X136306891Y-128944400D02*
X136592606Y-129039638D01*
X136592606Y-129039638D02*
X136783082Y-129039638D01*
X136783082Y-129039638D02*
X137068796Y-128944400D01*
X137068796Y-128944400D02*
X137164034Y-128849161D01*
X137164034Y-128849161D02*
X137164034Y-128182495D01*
X137164034Y-128182495D02*
X136783082Y-128182495D01*
X138021177Y-129039638D02*
X138021177Y-127039638D01*
X138021177Y-127992019D02*
X139164034Y-127992019D01*
X139164034Y-129039638D02*
X139164034Y-127039638D01*
X135225939Y-146239638D02*
X134273558Y-146239638D01*
X134273558Y-146239638D02*
X134273558Y-144239638D01*
X136273558Y-144239638D02*
X136654511Y-144239638D01*
X136654511Y-144239638D02*
X136844987Y-144334876D01*
X136844987Y-144334876D02*
X137035463Y-144525352D01*
X137035463Y-144525352D02*
X137130701Y-144906304D01*
X137130701Y-144906304D02*
X137130701Y-145572971D01*
X137130701Y-145572971D02*
X137035463Y-145953923D01*
X137035463Y-145953923D02*
X136844987Y-146144400D01*
X136844987Y-146144400D02*
X136654511Y-146239638D01*
X136654511Y-146239638D02*
X136273558Y-146239638D01*
X136273558Y-146239638D02*
X136083082Y-146144400D01*
X136083082Y-146144400D02*
X135892606Y-145953923D01*
X135892606Y-145953923D02*
X135797368Y-145572971D01*
X135797368Y-145572971D02*
X135797368Y-144906304D01*
X135797368Y-144906304D02*
X135892606Y-144525352D01*
X135892606Y-144525352D02*
X136083082Y-144334876D01*
X136083082Y-144334876D02*
X136273558Y-144239638D01*
X137797368Y-144239638D02*
X138273558Y-146239638D01*
X138273558Y-146239638D02*
X138654511Y-144811066D01*
X138654511Y-144811066D02*
X139035463Y-146239638D01*
X139035463Y-146239638D02*
X139511654Y-144239638D01*
D14*
X192643482Y-67414838D02*
X192548244Y-67367219D01*
X192548244Y-67367219D02*
X192405387Y-67367219D01*
X192405387Y-67367219D02*
X192262530Y-67414838D01*
X192262530Y-67414838D02*
X192167292Y-67510076D01*
X192167292Y-67510076D02*
X192119673Y-67605314D01*
X192119673Y-67605314D02*
X192072054Y-67795790D01*
X192072054Y-67795790D02*
X192072054Y-67938647D01*
X192072054Y-67938647D02*
X192119673Y-68129123D01*
X192119673Y-68129123D02*
X192167292Y-68224361D01*
X192167292Y-68224361D02*
X192262530Y-68319600D01*
X192262530Y-68319600D02*
X192405387Y-68367219D01*
X192405387Y-68367219D02*
X192500625Y-68367219D01*
X192500625Y-68367219D02*
X192643482Y-68319600D01*
X192643482Y-68319600D02*
X192691101Y-68271980D01*
X192691101Y-68271980D02*
X192691101Y-67938647D01*
X192691101Y-67938647D02*
X192500625Y-67938647D01*
X193119673Y-68367219D02*
X193119673Y-67367219D01*
X193119673Y-67367219D02*
X193691101Y-68367219D01*
X193691101Y-68367219D02*
X193691101Y-67367219D01*
X194167292Y-68367219D02*
X194167292Y-67367219D01*
X194167292Y-67367219D02*
X194405387Y-67367219D01*
X194405387Y-67367219D02*
X194548244Y-67414838D01*
X194548244Y-67414838D02*
X194643482Y-67510076D01*
X194643482Y-67510076D02*
X194691101Y-67605314D01*
X194691101Y-67605314D02*
X194738720Y-67795790D01*
X194738720Y-67795790D02*
X194738720Y-67938647D01*
X194738720Y-67938647D02*
X194691101Y-68129123D01*
X194691101Y-68129123D02*
X194643482Y-68224361D01*
X194643482Y-68224361D02*
X194548244Y-68319600D01*
X194548244Y-68319600D02*
X194405387Y-68367219D01*
X194405387Y-68367219D02*
X194167292Y-68367219D01*
X192893482Y-102164838D02*
X192798244Y-102117219D01*
X192798244Y-102117219D02*
X192655387Y-102117219D01*
X192655387Y-102117219D02*
X192512530Y-102164838D01*
X192512530Y-102164838D02*
X192417292Y-102260076D01*
X192417292Y-102260076D02*
X192369673Y-102355314D01*
X192369673Y-102355314D02*
X192322054Y-102545790D01*
X192322054Y-102545790D02*
X192322054Y-102688647D01*
X192322054Y-102688647D02*
X192369673Y-102879123D01*
X192369673Y-102879123D02*
X192417292Y-102974361D01*
X192417292Y-102974361D02*
X192512530Y-103069600D01*
X192512530Y-103069600D02*
X192655387Y-103117219D01*
X192655387Y-103117219D02*
X192750625Y-103117219D01*
X192750625Y-103117219D02*
X192893482Y-103069600D01*
X192893482Y-103069600D02*
X192941101Y-103021980D01*
X192941101Y-103021980D02*
X192941101Y-102688647D01*
X192941101Y-102688647D02*
X192750625Y-102688647D01*
X193369673Y-103117219D02*
X193369673Y-102117219D01*
X193369673Y-102117219D02*
X193941101Y-103117219D01*
X193941101Y-103117219D02*
X193941101Y-102117219D01*
X194417292Y-103117219D02*
X194417292Y-102117219D01*
X194417292Y-102117219D02*
X194655387Y-102117219D01*
X194655387Y-102117219D02*
X194798244Y-102164838D01*
X194798244Y-102164838D02*
X194893482Y-102260076D01*
X194893482Y-102260076D02*
X194941101Y-102355314D01*
X194941101Y-102355314D02*
X194988720Y-102545790D01*
X194988720Y-102545790D02*
X194988720Y-102688647D01*
X194988720Y-102688647D02*
X194941101Y-102879123D01*
X194941101Y-102879123D02*
X194893482Y-102974361D01*
X194893482Y-102974361D02*
X194798244Y-103069600D01*
X194798244Y-103069600D02*
X194655387Y-103117219D01*
X194655387Y-103117219D02*
X194417292Y-103117219D01*
X192119673Y-65867219D02*
X192119673Y-64867219D01*
X192595863Y-65867219D02*
X192595863Y-64867219D01*
X192595863Y-64867219D02*
X193167291Y-65867219D01*
X193167291Y-65867219D02*
X193167291Y-64867219D01*
X193643482Y-65867219D02*
X193643482Y-64867219D01*
X193643482Y-64867219D02*
X194024434Y-64867219D01*
X194024434Y-64867219D02*
X194119672Y-64914838D01*
X194119672Y-64914838D02*
X194167291Y-64962457D01*
X194167291Y-64962457D02*
X194214910Y-65057695D01*
X194214910Y-65057695D02*
X194214910Y-65200552D01*
X194214910Y-65200552D02*
X194167291Y-65295790D01*
X194167291Y-65295790D02*
X194119672Y-65343409D01*
X194119672Y-65343409D02*
X194024434Y-65391028D01*
X194024434Y-65391028D02*
X193643482Y-65391028D01*
X194643482Y-64867219D02*
X194643482Y-65676742D01*
X194643482Y-65676742D02*
X194691101Y-65771980D01*
X194691101Y-65771980D02*
X194738720Y-65819600D01*
X194738720Y-65819600D02*
X194833958Y-65867219D01*
X194833958Y-65867219D02*
X195024434Y-65867219D01*
X195024434Y-65867219D02*
X195119672Y-65819600D01*
X195119672Y-65819600D02*
X195167291Y-65771980D01*
X195167291Y-65771980D02*
X195214910Y-65676742D01*
X195214910Y-65676742D02*
X195214910Y-64867219D01*
X195548244Y-64867219D02*
X196119672Y-64867219D01*
X195833958Y-65867219D02*
X195833958Y-64867219D01*
X192643482Y-89414838D02*
X192548244Y-89367219D01*
X192548244Y-89367219D02*
X192405387Y-89367219D01*
X192405387Y-89367219D02*
X192262530Y-89414838D01*
X192262530Y-89414838D02*
X192167292Y-89510076D01*
X192167292Y-89510076D02*
X192119673Y-89605314D01*
X192119673Y-89605314D02*
X192072054Y-89795790D01*
X192072054Y-89795790D02*
X192072054Y-89938647D01*
X192072054Y-89938647D02*
X192119673Y-90129123D01*
X192119673Y-90129123D02*
X192167292Y-90224361D01*
X192167292Y-90224361D02*
X192262530Y-90319600D01*
X192262530Y-90319600D02*
X192405387Y-90367219D01*
X192405387Y-90367219D02*
X192500625Y-90367219D01*
X192500625Y-90367219D02*
X192643482Y-90319600D01*
X192643482Y-90319600D02*
X192691101Y-90271980D01*
X192691101Y-90271980D02*
X192691101Y-89938647D01*
X192691101Y-89938647D02*
X192500625Y-89938647D01*
X193119673Y-89986266D02*
X193881578Y-89986266D01*
X194833958Y-89367219D02*
X194357768Y-89367219D01*
X194357768Y-89367219D02*
X194310149Y-89843409D01*
X194310149Y-89843409D02*
X194357768Y-89795790D01*
X194357768Y-89795790D02*
X194453006Y-89748171D01*
X194453006Y-89748171D02*
X194691101Y-89748171D01*
X194691101Y-89748171D02*
X194786339Y-89795790D01*
X194786339Y-89795790D02*
X194833958Y-89843409D01*
X194833958Y-89843409D02*
X194881577Y-89938647D01*
X194881577Y-89938647D02*
X194881577Y-90176742D01*
X194881577Y-90176742D02*
X194833958Y-90271980D01*
X194833958Y-90271980D02*
X194786339Y-90319600D01*
X194786339Y-90319600D02*
X194691101Y-90367219D01*
X194691101Y-90367219D02*
X194453006Y-90367219D01*
X194453006Y-90367219D02*
X194357768Y-90319600D01*
X194357768Y-90319600D02*
X194310149Y-90271980D01*
X195167292Y-89367219D02*
X195500625Y-90367219D01*
X195500625Y-90367219D02*
X195833958Y-89367219D01*
X192119673Y-63367219D02*
X192119673Y-62367219D01*
X192595863Y-63367219D02*
X192595863Y-62367219D01*
X192595863Y-62367219D02*
X193167291Y-63367219D01*
X193167291Y-63367219D02*
X193167291Y-62367219D01*
X193643482Y-63367219D02*
X193643482Y-62367219D01*
X193643482Y-62367219D02*
X194024434Y-62367219D01*
X194024434Y-62367219D02*
X194119672Y-62414838D01*
X194119672Y-62414838D02*
X194167291Y-62462457D01*
X194167291Y-62462457D02*
X194214910Y-62557695D01*
X194214910Y-62557695D02*
X194214910Y-62700552D01*
X194214910Y-62700552D02*
X194167291Y-62795790D01*
X194167291Y-62795790D02*
X194119672Y-62843409D01*
X194119672Y-62843409D02*
X194024434Y-62891028D01*
X194024434Y-62891028D02*
X193643482Y-62891028D01*
X194643482Y-62367219D02*
X194643482Y-63176742D01*
X194643482Y-63176742D02*
X194691101Y-63271980D01*
X194691101Y-63271980D02*
X194738720Y-63319600D01*
X194738720Y-63319600D02*
X194833958Y-63367219D01*
X194833958Y-63367219D02*
X195024434Y-63367219D01*
X195024434Y-63367219D02*
X195119672Y-63319600D01*
X195119672Y-63319600D02*
X195167291Y-63271980D01*
X195167291Y-63271980D02*
X195214910Y-63176742D01*
X195214910Y-63176742D02*
X195214910Y-62367219D01*
X195548244Y-62367219D02*
X196119672Y-62367219D01*
X195833958Y-63367219D02*
X195833958Y-62367219D01*
D10*
X107840225Y-145092019D02*
X107173558Y-145092019D01*
X107173558Y-146139638D02*
X107173558Y-144139638D01*
X107173558Y-144139638D02*
X108125939Y-144139638D01*
X108792606Y-145568209D02*
X109744987Y-145568209D01*
X108602130Y-146139638D02*
X109268796Y-144139638D01*
X109268796Y-144139638D02*
X109935463Y-146139638D01*
X110602130Y-144139638D02*
X110602130Y-145758685D01*
X110602130Y-145758685D02*
X110697368Y-145949161D01*
X110697368Y-145949161D02*
X110792606Y-146044400D01*
X110792606Y-146044400D02*
X110983082Y-146139638D01*
X110983082Y-146139638D02*
X111364035Y-146139638D01*
X111364035Y-146139638D02*
X111554511Y-146044400D01*
X111554511Y-146044400D02*
X111649749Y-145949161D01*
X111649749Y-145949161D02*
X111744987Y-145758685D01*
X111744987Y-145758685D02*
X111744987Y-144139638D01*
X113649749Y-146139638D02*
X112697368Y-146139638D01*
X112697368Y-146139638D02*
X112697368Y-144139638D01*
X114030702Y-144139638D02*
X115173559Y-144139638D01*
X114602130Y-146139638D02*
X114602130Y-144139638D01*
D14*
X192691101Y-77617219D02*
X192357768Y-77141028D01*
X192119673Y-77617219D02*
X192119673Y-76617219D01*
X192119673Y-76617219D02*
X192500625Y-76617219D01*
X192500625Y-76617219D02*
X192595863Y-76664838D01*
X192595863Y-76664838D02*
X192643482Y-76712457D01*
X192643482Y-76712457D02*
X192691101Y-76807695D01*
X192691101Y-76807695D02*
X192691101Y-76950552D01*
X192691101Y-76950552D02*
X192643482Y-77045790D01*
X192643482Y-77045790D02*
X192595863Y-77093409D01*
X192595863Y-77093409D02*
X192500625Y-77141028D01*
X192500625Y-77141028D02*
X192119673Y-77141028D01*
X193119673Y-77236266D02*
X193881578Y-77236266D01*
X194262530Y-76617219D02*
X194881577Y-76617219D01*
X194881577Y-76617219D02*
X194548244Y-76998171D01*
X194548244Y-76998171D02*
X194691101Y-76998171D01*
X194691101Y-76998171D02*
X194786339Y-77045790D01*
X194786339Y-77045790D02*
X194833958Y-77093409D01*
X194833958Y-77093409D02*
X194881577Y-77188647D01*
X194881577Y-77188647D02*
X194881577Y-77426742D01*
X194881577Y-77426742D02*
X194833958Y-77521980D01*
X194833958Y-77521980D02*
X194786339Y-77569600D01*
X194786339Y-77569600D02*
X194691101Y-77617219D01*
X194691101Y-77617219D02*
X194405387Y-77617219D01*
X194405387Y-77617219D02*
X194310149Y-77569600D01*
X194310149Y-77569600D02*
X194262530Y-77521980D01*
X195167292Y-76617219D02*
X195500625Y-77617219D01*
X195500625Y-77617219D02*
X195833958Y-76617219D01*
X196072054Y-76617219D02*
X196691101Y-76617219D01*
X196691101Y-76617219D02*
X196357768Y-76998171D01*
X196357768Y-76998171D02*
X196500625Y-76998171D01*
X196500625Y-76998171D02*
X196595863Y-77045790D01*
X196595863Y-77045790D02*
X196643482Y-77093409D01*
X196643482Y-77093409D02*
X196691101Y-77188647D01*
X196691101Y-77188647D02*
X196691101Y-77426742D01*
X196691101Y-77426742D02*
X196643482Y-77521980D01*
X196643482Y-77521980D02*
X196595863Y-77569600D01*
X196595863Y-77569600D02*
X196500625Y-77617219D01*
X196500625Y-77617219D02*
X196214911Y-77617219D01*
X196214911Y-77617219D02*
X196119673Y-77569600D01*
X196119673Y-77569600D02*
X196072054Y-77521980D01*
X192691101Y-92867219D02*
X192357768Y-92391028D01*
X192119673Y-92867219D02*
X192119673Y-91867219D01*
X192119673Y-91867219D02*
X192500625Y-91867219D01*
X192500625Y-91867219D02*
X192595863Y-91914838D01*
X192595863Y-91914838D02*
X192643482Y-91962457D01*
X192643482Y-91962457D02*
X192691101Y-92057695D01*
X192691101Y-92057695D02*
X192691101Y-92200552D01*
X192691101Y-92200552D02*
X192643482Y-92295790D01*
X192643482Y-92295790D02*
X192595863Y-92343409D01*
X192595863Y-92343409D02*
X192500625Y-92391028D01*
X192500625Y-92391028D02*
X192119673Y-92391028D01*
X193119673Y-92486266D02*
X193881578Y-92486266D01*
X194833958Y-91867219D02*
X194357768Y-91867219D01*
X194357768Y-91867219D02*
X194310149Y-92343409D01*
X194310149Y-92343409D02*
X194357768Y-92295790D01*
X194357768Y-92295790D02*
X194453006Y-92248171D01*
X194453006Y-92248171D02*
X194691101Y-92248171D01*
X194691101Y-92248171D02*
X194786339Y-92295790D01*
X194786339Y-92295790D02*
X194833958Y-92343409D01*
X194833958Y-92343409D02*
X194881577Y-92438647D01*
X194881577Y-92438647D02*
X194881577Y-92676742D01*
X194881577Y-92676742D02*
X194833958Y-92771980D01*
X194833958Y-92771980D02*
X194786339Y-92819600D01*
X194786339Y-92819600D02*
X194691101Y-92867219D01*
X194691101Y-92867219D02*
X194453006Y-92867219D01*
X194453006Y-92867219D02*
X194357768Y-92819600D01*
X194357768Y-92819600D02*
X194310149Y-92771980D01*
X195167292Y-91867219D02*
X195500625Y-92867219D01*
X195500625Y-92867219D02*
X195833958Y-91867219D01*
X164576190Y-145257219D02*
X164576190Y-144257219D01*
X165052380Y-144590552D02*
X165052380Y-145257219D01*
X165052380Y-144685790D02*
X165099999Y-144638171D01*
X165099999Y-144638171D02*
X165195237Y-144590552D01*
X165195237Y-144590552D02*
X165338094Y-144590552D01*
X165338094Y-144590552D02*
X165433332Y-144638171D01*
X165433332Y-144638171D02*
X165480951Y-144733409D01*
X165480951Y-144733409D02*
X165480951Y-145257219D01*
X165957142Y-144590552D02*
X165957142Y-145590552D01*
X165957142Y-144638171D02*
X166052380Y-144590552D01*
X166052380Y-144590552D02*
X166242856Y-144590552D01*
X166242856Y-144590552D02*
X166338094Y-144638171D01*
X166338094Y-144638171D02*
X166385713Y-144685790D01*
X166385713Y-144685790D02*
X166433332Y-144781028D01*
X166433332Y-144781028D02*
X166433332Y-145066742D01*
X166433332Y-145066742D02*
X166385713Y-145161980D01*
X166385713Y-145161980D02*
X166338094Y-145209600D01*
X166338094Y-145209600D02*
X166242856Y-145257219D01*
X166242856Y-145257219D02*
X166052380Y-145257219D01*
X166052380Y-145257219D02*
X165957142Y-145209600D01*
X167290475Y-144590552D02*
X167290475Y-145257219D01*
X166861904Y-144590552D02*
X166861904Y-145114361D01*
X166861904Y-145114361D02*
X166909523Y-145209600D01*
X166909523Y-145209600D02*
X167004761Y-145257219D01*
X167004761Y-145257219D02*
X167147618Y-145257219D01*
X167147618Y-145257219D02*
X167242856Y-145209600D01*
X167242856Y-145209600D02*
X167290475Y-145161980D01*
X167623809Y-144590552D02*
X168004761Y-144590552D01*
X167766666Y-144257219D02*
X167766666Y-145114361D01*
X167766666Y-145114361D02*
X167814285Y-145209600D01*
X167814285Y-145209600D02*
X167909523Y-145257219D01*
X167909523Y-145257219D02*
X168004761Y-145257219D01*
X168338095Y-144876266D02*
X169100000Y-144876266D01*
X169433333Y-144257219D02*
X169766666Y-145257219D01*
X169766666Y-145257219D02*
X170099999Y-144257219D01*
X170576190Y-145257219D02*
X170480952Y-145209600D01*
X170480952Y-145209600D02*
X170433333Y-145161980D01*
X170433333Y-145161980D02*
X170385714Y-145066742D01*
X170385714Y-145066742D02*
X170385714Y-144781028D01*
X170385714Y-144781028D02*
X170433333Y-144685790D01*
X170433333Y-144685790D02*
X170480952Y-144638171D01*
X170480952Y-144638171D02*
X170576190Y-144590552D01*
X170576190Y-144590552D02*
X170719047Y-144590552D01*
X170719047Y-144590552D02*
X170814285Y-144638171D01*
X170814285Y-144638171D02*
X170861904Y-144685790D01*
X170861904Y-144685790D02*
X170909523Y-144781028D01*
X170909523Y-144781028D02*
X170909523Y-145066742D01*
X170909523Y-145066742D02*
X170861904Y-145161980D01*
X170861904Y-145161980D02*
X170814285Y-145209600D01*
X170814285Y-145209600D02*
X170719047Y-145257219D01*
X170719047Y-145257219D02*
X170576190Y-145257219D01*
X171480952Y-145257219D02*
X171385714Y-145209600D01*
X171385714Y-145209600D02*
X171338095Y-145114361D01*
X171338095Y-145114361D02*
X171338095Y-144257219D01*
X171719048Y-144590552D02*
X172100000Y-144590552D01*
X171861905Y-144257219D02*
X171861905Y-145114361D01*
X171861905Y-145114361D02*
X171909524Y-145209600D01*
X171909524Y-145209600D02*
X172004762Y-145257219D01*
X172004762Y-145257219D02*
X172100000Y-145257219D01*
X172861905Y-145257219D02*
X172861905Y-144733409D01*
X172861905Y-144733409D02*
X172814286Y-144638171D01*
X172814286Y-144638171D02*
X172719048Y-144590552D01*
X172719048Y-144590552D02*
X172528572Y-144590552D01*
X172528572Y-144590552D02*
X172433334Y-144638171D01*
X172861905Y-145209600D02*
X172766667Y-145257219D01*
X172766667Y-145257219D02*
X172528572Y-145257219D01*
X172528572Y-145257219D02*
X172433334Y-145209600D01*
X172433334Y-145209600D02*
X172385715Y-145114361D01*
X172385715Y-145114361D02*
X172385715Y-145019123D01*
X172385715Y-145019123D02*
X172433334Y-144923885D01*
X172433334Y-144923885D02*
X172528572Y-144876266D01*
X172528572Y-144876266D02*
X172766667Y-144876266D01*
X172766667Y-144876266D02*
X172861905Y-144828647D01*
X173766667Y-144590552D02*
X173766667Y-145400076D01*
X173766667Y-145400076D02*
X173719048Y-145495314D01*
X173719048Y-145495314D02*
X173671429Y-145542933D01*
X173671429Y-145542933D02*
X173576191Y-145590552D01*
X173576191Y-145590552D02*
X173433334Y-145590552D01*
X173433334Y-145590552D02*
X173338096Y-145542933D01*
X173766667Y-145209600D02*
X173671429Y-145257219D01*
X173671429Y-145257219D02*
X173480953Y-145257219D01*
X173480953Y-145257219D02*
X173385715Y-145209600D01*
X173385715Y-145209600D02*
X173338096Y-145161980D01*
X173338096Y-145161980D02*
X173290477Y-145066742D01*
X173290477Y-145066742D02*
X173290477Y-144781028D01*
X173290477Y-144781028D02*
X173338096Y-144685790D01*
X173338096Y-144685790D02*
X173385715Y-144638171D01*
X173385715Y-144638171D02*
X173480953Y-144590552D01*
X173480953Y-144590552D02*
X173671429Y-144590552D01*
X173671429Y-144590552D02*
X173766667Y-144638171D01*
X174623810Y-145209600D02*
X174528572Y-145257219D01*
X174528572Y-145257219D02*
X174338096Y-145257219D01*
X174338096Y-145257219D02*
X174242858Y-145209600D01*
X174242858Y-145209600D02*
X174195239Y-145114361D01*
X174195239Y-145114361D02*
X174195239Y-144733409D01*
X174195239Y-144733409D02*
X174242858Y-144638171D01*
X174242858Y-144638171D02*
X174338096Y-144590552D01*
X174338096Y-144590552D02*
X174528572Y-144590552D01*
X174528572Y-144590552D02*
X174623810Y-144638171D01*
X174623810Y-144638171D02*
X174671429Y-144733409D01*
X174671429Y-144733409D02*
X174671429Y-144828647D01*
X174671429Y-144828647D02*
X174195239Y-144923885D01*
X166814284Y-146867219D02*
X166480951Y-146391028D01*
X166242856Y-146867219D02*
X166242856Y-145867219D01*
X166242856Y-145867219D02*
X166623808Y-145867219D01*
X166623808Y-145867219D02*
X166719046Y-145914838D01*
X166719046Y-145914838D02*
X166766665Y-145962457D01*
X166766665Y-145962457D02*
X166814284Y-146057695D01*
X166814284Y-146057695D02*
X166814284Y-146200552D01*
X166814284Y-146200552D02*
X166766665Y-146295790D01*
X166766665Y-146295790D02*
X166719046Y-146343409D01*
X166719046Y-146343409D02*
X166623808Y-146391028D01*
X166623808Y-146391028D02*
X166242856Y-146391028D01*
X167623808Y-146819600D02*
X167528570Y-146867219D01*
X167528570Y-146867219D02*
X167338094Y-146867219D01*
X167338094Y-146867219D02*
X167242856Y-146819600D01*
X167242856Y-146819600D02*
X167195237Y-146724361D01*
X167195237Y-146724361D02*
X167195237Y-146343409D01*
X167195237Y-146343409D02*
X167242856Y-146248171D01*
X167242856Y-146248171D02*
X167338094Y-146200552D01*
X167338094Y-146200552D02*
X167528570Y-146200552D01*
X167528570Y-146200552D02*
X167623808Y-146248171D01*
X167623808Y-146248171D02*
X167671427Y-146343409D01*
X167671427Y-146343409D02*
X167671427Y-146438647D01*
X167671427Y-146438647D02*
X167195237Y-146533885D01*
X168528570Y-146200552D02*
X168528570Y-147010076D01*
X168528570Y-147010076D02*
X168480951Y-147105314D01*
X168480951Y-147105314D02*
X168433332Y-147152933D01*
X168433332Y-147152933D02*
X168338094Y-147200552D01*
X168338094Y-147200552D02*
X168195237Y-147200552D01*
X168195237Y-147200552D02*
X168099999Y-147152933D01*
X168528570Y-146819600D02*
X168433332Y-146867219D01*
X168433332Y-146867219D02*
X168242856Y-146867219D01*
X168242856Y-146867219D02*
X168147618Y-146819600D01*
X168147618Y-146819600D02*
X168099999Y-146771980D01*
X168099999Y-146771980D02*
X168052380Y-146676742D01*
X168052380Y-146676742D02*
X168052380Y-146391028D01*
X168052380Y-146391028D02*
X168099999Y-146295790D01*
X168099999Y-146295790D02*
X168147618Y-146248171D01*
X168147618Y-146248171D02*
X168242856Y-146200552D01*
X168242856Y-146200552D02*
X168433332Y-146200552D01*
X168433332Y-146200552D02*
X168528570Y-146248171D01*
X169433332Y-146200552D02*
X169433332Y-146867219D01*
X169004761Y-146200552D02*
X169004761Y-146724361D01*
X169004761Y-146724361D02*
X169052380Y-146819600D01*
X169052380Y-146819600D02*
X169147618Y-146867219D01*
X169147618Y-146867219D02*
X169290475Y-146867219D01*
X169290475Y-146867219D02*
X169385713Y-146819600D01*
X169385713Y-146819600D02*
X169433332Y-146771980D01*
X170052380Y-146867219D02*
X169957142Y-146819600D01*
X169957142Y-146819600D02*
X169909523Y-146724361D01*
X169909523Y-146724361D02*
X169909523Y-145867219D01*
X170861904Y-146867219D02*
X170861904Y-146343409D01*
X170861904Y-146343409D02*
X170814285Y-146248171D01*
X170814285Y-146248171D02*
X170719047Y-146200552D01*
X170719047Y-146200552D02*
X170528571Y-146200552D01*
X170528571Y-146200552D02*
X170433333Y-146248171D01*
X170861904Y-146819600D02*
X170766666Y-146867219D01*
X170766666Y-146867219D02*
X170528571Y-146867219D01*
X170528571Y-146867219D02*
X170433333Y-146819600D01*
X170433333Y-146819600D02*
X170385714Y-146724361D01*
X170385714Y-146724361D02*
X170385714Y-146629123D01*
X170385714Y-146629123D02*
X170433333Y-146533885D01*
X170433333Y-146533885D02*
X170528571Y-146486266D01*
X170528571Y-146486266D02*
X170766666Y-146486266D01*
X170766666Y-146486266D02*
X170861904Y-146438647D01*
X171195238Y-146200552D02*
X171576190Y-146200552D01*
X171338095Y-145867219D02*
X171338095Y-146724361D01*
X171338095Y-146724361D02*
X171385714Y-146819600D01*
X171385714Y-146819600D02*
X171480952Y-146867219D01*
X171480952Y-146867219D02*
X171576190Y-146867219D01*
X172052381Y-146867219D02*
X171957143Y-146819600D01*
X171957143Y-146819600D02*
X171909524Y-146771980D01*
X171909524Y-146771980D02*
X171861905Y-146676742D01*
X171861905Y-146676742D02*
X171861905Y-146391028D01*
X171861905Y-146391028D02*
X171909524Y-146295790D01*
X171909524Y-146295790D02*
X171957143Y-146248171D01*
X171957143Y-146248171D02*
X172052381Y-146200552D01*
X172052381Y-146200552D02*
X172195238Y-146200552D01*
X172195238Y-146200552D02*
X172290476Y-146248171D01*
X172290476Y-146248171D02*
X172338095Y-146295790D01*
X172338095Y-146295790D02*
X172385714Y-146391028D01*
X172385714Y-146391028D02*
X172385714Y-146676742D01*
X172385714Y-146676742D02*
X172338095Y-146771980D01*
X172338095Y-146771980D02*
X172290476Y-146819600D01*
X172290476Y-146819600D02*
X172195238Y-146867219D01*
X172195238Y-146867219D02*
X172052381Y-146867219D01*
X172814286Y-146867219D02*
X172814286Y-146200552D01*
X172814286Y-146391028D02*
X172861905Y-146295790D01*
X172861905Y-146295790D02*
X172909524Y-146248171D01*
X172909524Y-146248171D02*
X173004762Y-146200552D01*
X173004762Y-146200552D02*
X173100000Y-146200552D01*
D11*
X102369819Y-114937030D02*
X102369819Y-115413220D01*
X102369819Y-115413220D02*
X101369819Y-115413220D01*
X101369819Y-114413220D02*
X101369819Y-114222744D01*
X101369819Y-114222744D02*
X101417438Y-114127506D01*
X101417438Y-114127506D02*
X101512676Y-114032268D01*
X101512676Y-114032268D02*
X101703152Y-113984649D01*
X101703152Y-113984649D02*
X102036485Y-113984649D01*
X102036485Y-113984649D02*
X102226961Y-114032268D01*
X102226961Y-114032268D02*
X102322200Y-114127506D01*
X102322200Y-114127506D02*
X102369819Y-114222744D01*
X102369819Y-114222744D02*
X102369819Y-114413220D01*
X102369819Y-114413220D02*
X102322200Y-114508458D01*
X102322200Y-114508458D02*
X102226961Y-114603696D01*
X102226961Y-114603696D02*
X102036485Y-114651315D01*
X102036485Y-114651315D02*
X101703152Y-114651315D01*
X101703152Y-114651315D02*
X101512676Y-114603696D01*
X101512676Y-114603696D02*
X101417438Y-114508458D01*
X101417438Y-114508458D02*
X101369819Y-114413220D01*
X101369819Y-113651315D02*
X102369819Y-113413220D01*
X102369819Y-113413220D02*
X101655533Y-113222744D01*
X101655533Y-113222744D02*
X102369819Y-113032268D01*
X102369819Y-113032268D02*
X101369819Y-112794173D01*
D14*
X192691101Y-95367219D02*
X192357768Y-94891028D01*
X192119673Y-95367219D02*
X192119673Y-94367219D01*
X192119673Y-94367219D02*
X192500625Y-94367219D01*
X192500625Y-94367219D02*
X192595863Y-94414838D01*
X192595863Y-94414838D02*
X192643482Y-94462457D01*
X192643482Y-94462457D02*
X192691101Y-94557695D01*
X192691101Y-94557695D02*
X192691101Y-94700552D01*
X192691101Y-94700552D02*
X192643482Y-94795790D01*
X192643482Y-94795790D02*
X192595863Y-94843409D01*
X192595863Y-94843409D02*
X192500625Y-94891028D01*
X192500625Y-94891028D02*
X192119673Y-94891028D01*
X193119673Y-94986266D02*
X193881578Y-94986266D01*
X194833958Y-94367219D02*
X194357768Y-94367219D01*
X194357768Y-94367219D02*
X194310149Y-94843409D01*
X194310149Y-94843409D02*
X194357768Y-94795790D01*
X194357768Y-94795790D02*
X194453006Y-94748171D01*
X194453006Y-94748171D02*
X194691101Y-94748171D01*
X194691101Y-94748171D02*
X194786339Y-94795790D01*
X194786339Y-94795790D02*
X194833958Y-94843409D01*
X194833958Y-94843409D02*
X194881577Y-94938647D01*
X194881577Y-94938647D02*
X194881577Y-95176742D01*
X194881577Y-95176742D02*
X194833958Y-95271980D01*
X194833958Y-95271980D02*
X194786339Y-95319600D01*
X194786339Y-95319600D02*
X194691101Y-95367219D01*
X194691101Y-95367219D02*
X194453006Y-95367219D01*
X194453006Y-95367219D02*
X194357768Y-95319600D01*
X194357768Y-95319600D02*
X194310149Y-95271980D01*
X195167292Y-94367219D02*
X195500625Y-95367219D01*
X195500625Y-95367219D02*
X195833958Y-94367219D01*
X192845863Y-115067219D02*
X192369673Y-115067219D01*
X192369673Y-115067219D02*
X192322054Y-115543409D01*
X192322054Y-115543409D02*
X192369673Y-115495790D01*
X192369673Y-115495790D02*
X192464911Y-115448171D01*
X192464911Y-115448171D02*
X192703006Y-115448171D01*
X192703006Y-115448171D02*
X192798244Y-115495790D01*
X192798244Y-115495790D02*
X192845863Y-115543409D01*
X192845863Y-115543409D02*
X192893482Y-115638647D01*
X192893482Y-115638647D02*
X192893482Y-115876742D01*
X192893482Y-115876742D02*
X192845863Y-115971980D01*
X192845863Y-115971980D02*
X192798244Y-116019600D01*
X192798244Y-116019600D02*
X192703006Y-116067219D01*
X192703006Y-116067219D02*
X192464911Y-116067219D01*
X192464911Y-116067219D02*
X192369673Y-116019600D01*
X192369673Y-116019600D02*
X192322054Y-115971980D01*
X193179197Y-115067219D02*
X193512530Y-116067219D01*
X193512530Y-116067219D02*
X193845863Y-115067219D01*
X192691101Y-80117219D02*
X192357768Y-79641028D01*
X192119673Y-80117219D02*
X192119673Y-79117219D01*
X192119673Y-79117219D02*
X192500625Y-79117219D01*
X192500625Y-79117219D02*
X192595863Y-79164838D01*
X192595863Y-79164838D02*
X192643482Y-79212457D01*
X192643482Y-79212457D02*
X192691101Y-79307695D01*
X192691101Y-79307695D02*
X192691101Y-79450552D01*
X192691101Y-79450552D02*
X192643482Y-79545790D01*
X192643482Y-79545790D02*
X192595863Y-79593409D01*
X192595863Y-79593409D02*
X192500625Y-79641028D01*
X192500625Y-79641028D02*
X192119673Y-79641028D01*
X193119673Y-79736266D02*
X193881578Y-79736266D01*
X194262530Y-79117219D02*
X194881577Y-79117219D01*
X194881577Y-79117219D02*
X194548244Y-79498171D01*
X194548244Y-79498171D02*
X194691101Y-79498171D01*
X194691101Y-79498171D02*
X194786339Y-79545790D01*
X194786339Y-79545790D02*
X194833958Y-79593409D01*
X194833958Y-79593409D02*
X194881577Y-79688647D01*
X194881577Y-79688647D02*
X194881577Y-79926742D01*
X194881577Y-79926742D02*
X194833958Y-80021980D01*
X194833958Y-80021980D02*
X194786339Y-80069600D01*
X194786339Y-80069600D02*
X194691101Y-80117219D01*
X194691101Y-80117219D02*
X194405387Y-80117219D01*
X194405387Y-80117219D02*
X194310149Y-80069600D01*
X194310149Y-80069600D02*
X194262530Y-80021980D01*
X195167292Y-79117219D02*
X195500625Y-80117219D01*
X195500625Y-80117219D02*
X195833958Y-79117219D01*
X196072054Y-79117219D02*
X196691101Y-79117219D01*
X196691101Y-79117219D02*
X196357768Y-79498171D01*
X196357768Y-79498171D02*
X196500625Y-79498171D01*
X196500625Y-79498171D02*
X196595863Y-79545790D01*
X196595863Y-79545790D02*
X196643482Y-79593409D01*
X196643482Y-79593409D02*
X196691101Y-79688647D01*
X196691101Y-79688647D02*
X196691101Y-79926742D01*
X196691101Y-79926742D02*
X196643482Y-80021980D01*
X196643482Y-80021980D02*
X196595863Y-80069600D01*
X196595863Y-80069600D02*
X196500625Y-80117219D01*
X196500625Y-80117219D02*
X196214911Y-80117219D01*
X196214911Y-80117219D02*
X196119673Y-80069600D01*
X196119673Y-80069600D02*
X196072054Y-80021980D01*
X192643482Y-70164838D02*
X192548244Y-70117219D01*
X192548244Y-70117219D02*
X192405387Y-70117219D01*
X192405387Y-70117219D02*
X192262530Y-70164838D01*
X192262530Y-70164838D02*
X192167292Y-70260076D01*
X192167292Y-70260076D02*
X192119673Y-70355314D01*
X192119673Y-70355314D02*
X192072054Y-70545790D01*
X192072054Y-70545790D02*
X192072054Y-70688647D01*
X192072054Y-70688647D02*
X192119673Y-70879123D01*
X192119673Y-70879123D02*
X192167292Y-70974361D01*
X192167292Y-70974361D02*
X192262530Y-71069600D01*
X192262530Y-71069600D02*
X192405387Y-71117219D01*
X192405387Y-71117219D02*
X192500625Y-71117219D01*
X192500625Y-71117219D02*
X192643482Y-71069600D01*
X192643482Y-71069600D02*
X192691101Y-71021980D01*
X192691101Y-71021980D02*
X192691101Y-70688647D01*
X192691101Y-70688647D02*
X192500625Y-70688647D01*
X193119673Y-71117219D02*
X193119673Y-70117219D01*
X193119673Y-70117219D02*
X193691101Y-71117219D01*
X193691101Y-71117219D02*
X193691101Y-70117219D01*
X194167292Y-71117219D02*
X194167292Y-70117219D01*
X194167292Y-70117219D02*
X194405387Y-70117219D01*
X194405387Y-70117219D02*
X194548244Y-70164838D01*
X194548244Y-70164838D02*
X194643482Y-70260076D01*
X194643482Y-70260076D02*
X194691101Y-70355314D01*
X194691101Y-70355314D02*
X194738720Y-70545790D01*
X194738720Y-70545790D02*
X194738720Y-70688647D01*
X194738720Y-70688647D02*
X194691101Y-70879123D01*
X194691101Y-70879123D02*
X194643482Y-70974361D01*
X194643482Y-70974361D02*
X194548244Y-71069600D01*
X194548244Y-71069600D02*
X194405387Y-71117219D01*
X194405387Y-71117219D02*
X194167292Y-71117219D01*
D11*
X178533333Y-90494819D02*
X178200000Y-90018628D01*
X177961905Y-90494819D02*
X177961905Y-89494819D01*
X177961905Y-89494819D02*
X178342857Y-89494819D01*
X178342857Y-89494819D02*
X178438095Y-89542438D01*
X178438095Y-89542438D02*
X178485714Y-89590057D01*
X178485714Y-89590057D02*
X178533333Y-89685295D01*
X178533333Y-89685295D02*
X178533333Y-89828152D01*
X178533333Y-89828152D02*
X178485714Y-89923390D01*
X178485714Y-89923390D02*
X178438095Y-89971009D01*
X178438095Y-89971009D02*
X178342857Y-90018628D01*
X178342857Y-90018628D02*
X177961905Y-90018628D01*
X178914286Y-89590057D02*
X178961905Y-89542438D01*
X178961905Y-89542438D02*
X179057143Y-89494819D01*
X179057143Y-89494819D02*
X179295238Y-89494819D01*
X179295238Y-89494819D02*
X179390476Y-89542438D01*
X179390476Y-89542438D02*
X179438095Y-89590057D01*
X179438095Y-89590057D02*
X179485714Y-89685295D01*
X179485714Y-89685295D02*
X179485714Y-89780533D01*
X179485714Y-89780533D02*
X179438095Y-89923390D01*
X179438095Y-89923390D02*
X178866667Y-90494819D01*
X178866667Y-90494819D02*
X179485714Y-90494819D01*
D14*
X150804600Y-131983332D02*
X150852219Y-131840475D01*
X150852219Y-131840475D02*
X150852219Y-131602380D01*
X150852219Y-131602380D02*
X150804600Y-131507142D01*
X150804600Y-131507142D02*
X150756980Y-131459523D01*
X150756980Y-131459523D02*
X150661742Y-131411904D01*
X150661742Y-131411904D02*
X150566504Y-131411904D01*
X150566504Y-131411904D02*
X150471266Y-131459523D01*
X150471266Y-131459523D02*
X150423647Y-131507142D01*
X150423647Y-131507142D02*
X150376028Y-131602380D01*
X150376028Y-131602380D02*
X150328409Y-131792856D01*
X150328409Y-131792856D02*
X150280790Y-131888094D01*
X150280790Y-131888094D02*
X150233171Y-131935713D01*
X150233171Y-131935713D02*
X150137933Y-131983332D01*
X150137933Y-131983332D02*
X150042695Y-131983332D01*
X150042695Y-131983332D02*
X149947457Y-131935713D01*
X149947457Y-131935713D02*
X149899838Y-131888094D01*
X149899838Y-131888094D02*
X149852219Y-131792856D01*
X149852219Y-131792856D02*
X149852219Y-131554761D01*
X149852219Y-131554761D02*
X149899838Y-131411904D01*
X149852219Y-131078570D02*
X150852219Y-130840475D01*
X150852219Y-130840475D02*
X150137933Y-130649999D01*
X150137933Y-130649999D02*
X150852219Y-130459523D01*
X150852219Y-130459523D02*
X149852219Y-130221428D01*
X149852219Y-129935713D02*
X149852219Y-129316666D01*
X149852219Y-129316666D02*
X150233171Y-129649999D01*
X150233171Y-129649999D02*
X150233171Y-129507142D01*
X150233171Y-129507142D02*
X150280790Y-129411904D01*
X150280790Y-129411904D02*
X150328409Y-129364285D01*
X150328409Y-129364285D02*
X150423647Y-129316666D01*
X150423647Y-129316666D02*
X150661742Y-129316666D01*
X150661742Y-129316666D02*
X150756980Y-129364285D01*
X150756980Y-129364285D02*
X150804600Y-129411904D01*
X150804600Y-129411904D02*
X150852219Y-129507142D01*
X150852219Y-129507142D02*
X150852219Y-129792856D01*
X150852219Y-129792856D02*
X150804600Y-129888094D01*
X150804600Y-129888094D02*
X150756980Y-129935713D01*
D11*
X178333333Y-82954819D02*
X178000000Y-82478628D01*
X177761905Y-82954819D02*
X177761905Y-81954819D01*
X177761905Y-81954819D02*
X178142857Y-81954819D01*
X178142857Y-81954819D02*
X178238095Y-82002438D01*
X178238095Y-82002438D02*
X178285714Y-82050057D01*
X178285714Y-82050057D02*
X178333333Y-82145295D01*
X178333333Y-82145295D02*
X178333333Y-82288152D01*
X178333333Y-82288152D02*
X178285714Y-82383390D01*
X178285714Y-82383390D02*
X178238095Y-82431009D01*
X178238095Y-82431009D02*
X178142857Y-82478628D01*
X178142857Y-82478628D02*
X177761905Y-82478628D01*
X178666667Y-81954819D02*
X179333333Y-81954819D01*
X179333333Y-81954819D02*
X178904762Y-82954819D01*
X105438095Y-50754819D02*
X105438095Y-49754819D01*
X105438095Y-50231009D02*
X106009523Y-50231009D01*
X106009523Y-50754819D02*
X106009523Y-49754819D01*
X107009523Y-50754819D02*
X106438095Y-50754819D01*
X106723809Y-50754819D02*
X106723809Y-49754819D01*
X106723809Y-49754819D02*
X106628571Y-49897676D01*
X106628571Y-49897676D02*
X106533333Y-49992914D01*
X106533333Y-49992914D02*
X106438095Y-50040533D01*
X178333333Y-80454819D02*
X178000000Y-79978628D01*
X177761905Y-80454819D02*
X177761905Y-79454819D01*
X177761905Y-79454819D02*
X178142857Y-79454819D01*
X178142857Y-79454819D02*
X178238095Y-79502438D01*
X178238095Y-79502438D02*
X178285714Y-79550057D01*
X178285714Y-79550057D02*
X178333333Y-79645295D01*
X178333333Y-79645295D02*
X178333333Y-79788152D01*
X178333333Y-79788152D02*
X178285714Y-79883390D01*
X178285714Y-79883390D02*
X178238095Y-79931009D01*
X178238095Y-79931009D02*
X178142857Y-79978628D01*
X178142857Y-79978628D02*
X177761905Y-79978628D01*
X178904762Y-79883390D02*
X178809524Y-79835771D01*
X178809524Y-79835771D02*
X178761905Y-79788152D01*
X178761905Y-79788152D02*
X178714286Y-79692914D01*
X178714286Y-79692914D02*
X178714286Y-79645295D01*
X178714286Y-79645295D02*
X178761905Y-79550057D01*
X178761905Y-79550057D02*
X178809524Y-79502438D01*
X178809524Y-79502438D02*
X178904762Y-79454819D01*
X178904762Y-79454819D02*
X179095238Y-79454819D01*
X179095238Y-79454819D02*
X179190476Y-79502438D01*
X179190476Y-79502438D02*
X179238095Y-79550057D01*
X179238095Y-79550057D02*
X179285714Y-79645295D01*
X179285714Y-79645295D02*
X179285714Y-79692914D01*
X179285714Y-79692914D02*
X179238095Y-79788152D01*
X179238095Y-79788152D02*
X179190476Y-79835771D01*
X179190476Y-79835771D02*
X179095238Y-79883390D01*
X179095238Y-79883390D02*
X178904762Y-79883390D01*
X178904762Y-79883390D02*
X178809524Y-79931009D01*
X178809524Y-79931009D02*
X178761905Y-79978628D01*
X178761905Y-79978628D02*
X178714286Y-80073866D01*
X178714286Y-80073866D02*
X178714286Y-80264342D01*
X178714286Y-80264342D02*
X178761905Y-80359580D01*
X178761905Y-80359580D02*
X178809524Y-80407200D01*
X178809524Y-80407200D02*
X178904762Y-80454819D01*
X178904762Y-80454819D02*
X179095238Y-80454819D01*
X179095238Y-80454819D02*
X179190476Y-80407200D01*
X179190476Y-80407200D02*
X179238095Y-80359580D01*
X179238095Y-80359580D02*
X179285714Y-80264342D01*
X179285714Y-80264342D02*
X179285714Y-80073866D01*
X179285714Y-80073866D02*
X179238095Y-79978628D01*
X179238095Y-79978628D02*
X179190476Y-79931009D01*
X179190476Y-79931009D02*
X179095238Y-79883390D01*
X187738095Y-50854819D02*
X187738095Y-49854819D01*
X187738095Y-50331009D02*
X188309523Y-50331009D01*
X188309523Y-50854819D02*
X188309523Y-49854819D01*
X188738095Y-49950057D02*
X188785714Y-49902438D01*
X188785714Y-49902438D02*
X188880952Y-49854819D01*
X188880952Y-49854819D02*
X189119047Y-49854819D01*
X189119047Y-49854819D02*
X189214285Y-49902438D01*
X189214285Y-49902438D02*
X189261904Y-49950057D01*
X189261904Y-49950057D02*
X189309523Y-50045295D01*
X189309523Y-50045295D02*
X189309523Y-50140533D01*
X189309523Y-50140533D02*
X189261904Y-50283390D01*
X189261904Y-50283390D02*
X188690476Y-50854819D01*
X188690476Y-50854819D02*
X189309523Y-50854819D01*
X189916666Y-60004819D02*
X189916666Y-60719104D01*
X189916666Y-60719104D02*
X189869047Y-60861961D01*
X189869047Y-60861961D02*
X189773809Y-60957200D01*
X189773809Y-60957200D02*
X189630952Y-61004819D01*
X189630952Y-61004819D02*
X189535714Y-61004819D01*
X190869047Y-60004819D02*
X190392857Y-60004819D01*
X190392857Y-60004819D02*
X190345238Y-60481009D01*
X190345238Y-60481009D02*
X190392857Y-60433390D01*
X190392857Y-60433390D02*
X190488095Y-60385771D01*
X190488095Y-60385771D02*
X190726190Y-60385771D01*
X190726190Y-60385771D02*
X190821428Y-60433390D01*
X190821428Y-60433390D02*
X190869047Y-60481009D01*
X190869047Y-60481009D02*
X190916666Y-60576247D01*
X190916666Y-60576247D02*
X190916666Y-60814342D01*
X190916666Y-60814342D02*
X190869047Y-60909580D01*
X190869047Y-60909580D02*
X190821428Y-60957200D01*
X190821428Y-60957200D02*
X190726190Y-61004819D01*
X190726190Y-61004819D02*
X190488095Y-61004819D01*
X190488095Y-61004819D02*
X190392857Y-60957200D01*
X190392857Y-60957200D02*
X190345238Y-60909580D01*
X189916666Y-99924819D02*
X189916666Y-100639104D01*
X189916666Y-100639104D02*
X189869047Y-100781961D01*
X189869047Y-100781961D02*
X189773809Y-100877200D01*
X189773809Y-100877200D02*
X189630952Y-100924819D01*
X189630952Y-100924819D02*
X189535714Y-100924819D01*
X190297619Y-99924819D02*
X190916666Y-99924819D01*
X190916666Y-99924819D02*
X190583333Y-100305771D01*
X190583333Y-100305771D02*
X190726190Y-100305771D01*
X190726190Y-100305771D02*
X190821428Y-100353390D01*
X190821428Y-100353390D02*
X190869047Y-100401009D01*
X190869047Y-100401009D02*
X190916666Y-100496247D01*
X190916666Y-100496247D02*
X190916666Y-100734342D01*
X190916666Y-100734342D02*
X190869047Y-100829580D01*
X190869047Y-100829580D02*
X190821428Y-100877200D01*
X190821428Y-100877200D02*
X190726190Y-100924819D01*
X190726190Y-100924819D02*
X190440476Y-100924819D01*
X190440476Y-100924819D02*
X190345238Y-100877200D01*
X190345238Y-100877200D02*
X190297619Y-100829580D01*
X191738095Y-139754819D02*
X191738095Y-138754819D01*
X191738095Y-139231009D02*
X192309523Y-139231009D01*
X192309523Y-139754819D02*
X192309523Y-138754819D01*
X193214285Y-139088152D02*
X193214285Y-139754819D01*
X192976190Y-138707200D02*
X192738095Y-139421485D01*
X192738095Y-139421485D02*
X193357142Y-139421485D01*
D14*
X125304600Y-131983332D02*
X125352219Y-131840475D01*
X125352219Y-131840475D02*
X125352219Y-131602380D01*
X125352219Y-131602380D02*
X125304600Y-131507142D01*
X125304600Y-131507142D02*
X125256980Y-131459523D01*
X125256980Y-131459523D02*
X125161742Y-131411904D01*
X125161742Y-131411904D02*
X125066504Y-131411904D01*
X125066504Y-131411904D02*
X124971266Y-131459523D01*
X124971266Y-131459523D02*
X124923647Y-131507142D01*
X124923647Y-131507142D02*
X124876028Y-131602380D01*
X124876028Y-131602380D02*
X124828409Y-131792856D01*
X124828409Y-131792856D02*
X124780790Y-131888094D01*
X124780790Y-131888094D02*
X124733171Y-131935713D01*
X124733171Y-131935713D02*
X124637933Y-131983332D01*
X124637933Y-131983332D02*
X124542695Y-131983332D01*
X124542695Y-131983332D02*
X124447457Y-131935713D01*
X124447457Y-131935713D02*
X124399838Y-131888094D01*
X124399838Y-131888094D02*
X124352219Y-131792856D01*
X124352219Y-131792856D02*
X124352219Y-131554761D01*
X124352219Y-131554761D02*
X124399838Y-131411904D01*
X124352219Y-131078570D02*
X125352219Y-130840475D01*
X125352219Y-130840475D02*
X124637933Y-130649999D01*
X124637933Y-130649999D02*
X125352219Y-130459523D01*
X125352219Y-130459523D02*
X124352219Y-130221428D01*
X124685552Y-129411904D02*
X125352219Y-129411904D01*
X124304600Y-129649999D02*
X125018885Y-129888094D01*
X125018885Y-129888094D02*
X125018885Y-129269047D01*
D11*
X178333333Y-85454819D02*
X178000000Y-84978628D01*
X177761905Y-85454819D02*
X177761905Y-84454819D01*
X177761905Y-84454819D02*
X178142857Y-84454819D01*
X178142857Y-84454819D02*
X178238095Y-84502438D01*
X178238095Y-84502438D02*
X178285714Y-84550057D01*
X178285714Y-84550057D02*
X178333333Y-84645295D01*
X178333333Y-84645295D02*
X178333333Y-84788152D01*
X178333333Y-84788152D02*
X178285714Y-84883390D01*
X178285714Y-84883390D02*
X178238095Y-84931009D01*
X178238095Y-84931009D02*
X178142857Y-84978628D01*
X178142857Y-84978628D02*
X177761905Y-84978628D01*
X178666667Y-84454819D02*
X179285714Y-84454819D01*
X179285714Y-84454819D02*
X178952381Y-84835771D01*
X178952381Y-84835771D02*
X179095238Y-84835771D01*
X179095238Y-84835771D02*
X179190476Y-84883390D01*
X179190476Y-84883390D02*
X179238095Y-84931009D01*
X179238095Y-84931009D02*
X179285714Y-85026247D01*
X179285714Y-85026247D02*
X179285714Y-85264342D01*
X179285714Y-85264342D02*
X179238095Y-85359580D01*
X179238095Y-85359580D02*
X179190476Y-85407200D01*
X179190476Y-85407200D02*
X179095238Y-85454819D01*
X179095238Y-85454819D02*
X178809524Y-85454819D01*
X178809524Y-85454819D02*
X178714286Y-85407200D01*
X178714286Y-85407200D02*
X178666667Y-85359580D01*
X176794819Y-138055238D02*
X176318628Y-138388571D01*
X176794819Y-138626666D02*
X175794819Y-138626666D01*
X175794819Y-138626666D02*
X175794819Y-138245714D01*
X175794819Y-138245714D02*
X175842438Y-138150476D01*
X175842438Y-138150476D02*
X175890057Y-138102857D01*
X175890057Y-138102857D02*
X175985295Y-138055238D01*
X175985295Y-138055238D02*
X176128152Y-138055238D01*
X176128152Y-138055238D02*
X176223390Y-138102857D01*
X176223390Y-138102857D02*
X176271009Y-138150476D01*
X176271009Y-138150476D02*
X176318628Y-138245714D01*
X176318628Y-138245714D02*
X176318628Y-138626666D01*
X175794819Y-137769523D02*
X176794819Y-137436190D01*
X176794819Y-137436190D02*
X175794819Y-137102857D01*
X176794819Y-136245714D02*
X176794819Y-136817142D01*
X176794819Y-136531428D02*
X175794819Y-136531428D01*
X175794819Y-136531428D02*
X175937676Y-136626666D01*
X175937676Y-136626666D02*
X176032914Y-136721904D01*
X176032914Y-136721904D02*
X176080533Y-136817142D01*
X189916666Y-119624819D02*
X189916666Y-120339104D01*
X189916666Y-120339104D02*
X189869047Y-120481961D01*
X189869047Y-120481961D02*
X189773809Y-120577200D01*
X189773809Y-120577200D02*
X189630952Y-120624819D01*
X189630952Y-120624819D02*
X189535714Y-120624819D01*
X190345238Y-119720057D02*
X190392857Y-119672438D01*
X190392857Y-119672438D02*
X190488095Y-119624819D01*
X190488095Y-119624819D02*
X190726190Y-119624819D01*
X190726190Y-119624819D02*
X190821428Y-119672438D01*
X190821428Y-119672438D02*
X190869047Y-119720057D01*
X190869047Y-119720057D02*
X190916666Y-119815295D01*
X190916666Y-119815295D02*
X190916666Y-119910533D01*
X190916666Y-119910533D02*
X190869047Y-120053390D01*
X190869047Y-120053390D02*
X190297619Y-120624819D01*
X190297619Y-120624819D02*
X190916666Y-120624819D01*
X178333333Y-77954819D02*
X178000000Y-77478628D01*
X177761905Y-77954819D02*
X177761905Y-76954819D01*
X177761905Y-76954819D02*
X178142857Y-76954819D01*
X178142857Y-76954819D02*
X178238095Y-77002438D01*
X178238095Y-77002438D02*
X178285714Y-77050057D01*
X178285714Y-77050057D02*
X178333333Y-77145295D01*
X178333333Y-77145295D02*
X178333333Y-77288152D01*
X178333333Y-77288152D02*
X178285714Y-77383390D01*
X178285714Y-77383390D02*
X178238095Y-77431009D01*
X178238095Y-77431009D02*
X178142857Y-77478628D01*
X178142857Y-77478628D02*
X177761905Y-77478628D01*
X179190476Y-77288152D02*
X179190476Y-77954819D01*
X178952381Y-76907200D02*
X178714286Y-77621485D01*
X178714286Y-77621485D02*
X179333333Y-77621485D01*
X178333333Y-87954819D02*
X178000000Y-87478628D01*
X177761905Y-87954819D02*
X177761905Y-86954819D01*
X177761905Y-86954819D02*
X178142857Y-86954819D01*
X178142857Y-86954819D02*
X178238095Y-87002438D01*
X178238095Y-87002438D02*
X178285714Y-87050057D01*
X178285714Y-87050057D02*
X178333333Y-87145295D01*
X178333333Y-87145295D02*
X178333333Y-87288152D01*
X178333333Y-87288152D02*
X178285714Y-87383390D01*
X178285714Y-87383390D02*
X178238095Y-87431009D01*
X178238095Y-87431009D02*
X178142857Y-87478628D01*
X178142857Y-87478628D02*
X177761905Y-87478628D01*
X179190476Y-86954819D02*
X179000000Y-86954819D01*
X179000000Y-86954819D02*
X178904762Y-87002438D01*
X178904762Y-87002438D02*
X178857143Y-87050057D01*
X178857143Y-87050057D02*
X178761905Y-87192914D01*
X178761905Y-87192914D02*
X178714286Y-87383390D01*
X178714286Y-87383390D02*
X178714286Y-87764342D01*
X178714286Y-87764342D02*
X178761905Y-87859580D01*
X178761905Y-87859580D02*
X178809524Y-87907200D01*
X178809524Y-87907200D02*
X178904762Y-87954819D01*
X178904762Y-87954819D02*
X179095238Y-87954819D01*
X179095238Y-87954819D02*
X179190476Y-87907200D01*
X179190476Y-87907200D02*
X179238095Y-87859580D01*
X179238095Y-87859580D02*
X179285714Y-87764342D01*
X179285714Y-87764342D02*
X179285714Y-87526247D01*
X179285714Y-87526247D02*
X179238095Y-87431009D01*
X179238095Y-87431009D02*
X179190476Y-87383390D01*
X179190476Y-87383390D02*
X179095238Y-87335771D01*
X179095238Y-87335771D02*
X178904762Y-87335771D01*
X178904762Y-87335771D02*
X178809524Y-87383390D01*
X178809524Y-87383390D02*
X178761905Y-87431009D01*
X178761905Y-87431009D02*
X178714286Y-87526247D01*
X178333333Y-92954819D02*
X178000000Y-92478628D01*
X177761905Y-92954819D02*
X177761905Y-91954819D01*
X177761905Y-91954819D02*
X178142857Y-91954819D01*
X178142857Y-91954819D02*
X178238095Y-92002438D01*
X178238095Y-92002438D02*
X178285714Y-92050057D01*
X178285714Y-92050057D02*
X178333333Y-92145295D01*
X178333333Y-92145295D02*
X178333333Y-92288152D01*
X178333333Y-92288152D02*
X178285714Y-92383390D01*
X178285714Y-92383390D02*
X178238095Y-92431009D01*
X178238095Y-92431009D02*
X178142857Y-92478628D01*
X178142857Y-92478628D02*
X177761905Y-92478628D01*
X179285714Y-92954819D02*
X178714286Y-92954819D01*
X179000000Y-92954819D02*
X179000000Y-91954819D01*
X179000000Y-91954819D02*
X178904762Y-92097676D01*
X178904762Y-92097676D02*
X178809524Y-92192914D01*
X178809524Y-92192914D02*
X178714286Y-92240533D01*
X175659819Y-58271904D02*
X176469342Y-58271904D01*
X176469342Y-58271904D02*
X176564580Y-58224285D01*
X176564580Y-58224285D02*
X176612200Y-58176666D01*
X176612200Y-58176666D02*
X176659819Y-58081428D01*
X176659819Y-58081428D02*
X176659819Y-57890952D01*
X176659819Y-57890952D02*
X176612200Y-57795714D01*
X176612200Y-57795714D02*
X176564580Y-57748095D01*
X176564580Y-57748095D02*
X176469342Y-57700476D01*
X176469342Y-57700476D02*
X175659819Y-57700476D01*
X176659819Y-56700476D02*
X176659819Y-57271904D01*
X176659819Y-56986190D02*
X175659819Y-56986190D01*
X175659819Y-56986190D02*
X175802676Y-57081428D01*
X175802676Y-57081428D02*
X175897914Y-57176666D01*
X175897914Y-57176666D02*
X175945533Y-57271904D01*
X101738095Y-139754819D02*
X101738095Y-138754819D01*
X101738095Y-139231009D02*
X102309523Y-139231009D01*
X102309523Y-139754819D02*
X102309523Y-138754819D01*
X102690476Y-138754819D02*
X103309523Y-138754819D01*
X103309523Y-138754819D02*
X102976190Y-139135771D01*
X102976190Y-139135771D02*
X103119047Y-139135771D01*
X103119047Y-139135771D02*
X103214285Y-139183390D01*
X103214285Y-139183390D02*
X103261904Y-139231009D01*
X103261904Y-139231009D02*
X103309523Y-139326247D01*
X103309523Y-139326247D02*
X103309523Y-139564342D01*
X103309523Y-139564342D02*
X103261904Y-139659580D01*
X103261904Y-139659580D02*
X103214285Y-139707200D01*
X103214285Y-139707200D02*
X103119047Y-139754819D01*
X103119047Y-139754819D02*
X102833333Y-139754819D01*
X102833333Y-139754819D02*
X102738095Y-139707200D01*
X102738095Y-139707200D02*
X102690476Y-139659580D01*
X178333333Y-95454819D02*
X178000000Y-94978628D01*
X177761905Y-95454819D02*
X177761905Y-94454819D01*
X177761905Y-94454819D02*
X178142857Y-94454819D01*
X178142857Y-94454819D02*
X178238095Y-94502438D01*
X178238095Y-94502438D02*
X178285714Y-94550057D01*
X178285714Y-94550057D02*
X178333333Y-94645295D01*
X178333333Y-94645295D02*
X178333333Y-94788152D01*
X178333333Y-94788152D02*
X178285714Y-94883390D01*
X178285714Y-94883390D02*
X178238095Y-94931009D01*
X178238095Y-94931009D02*
X178142857Y-94978628D01*
X178142857Y-94978628D02*
X177761905Y-94978628D01*
X179238095Y-94454819D02*
X178761905Y-94454819D01*
X178761905Y-94454819D02*
X178714286Y-94931009D01*
X178714286Y-94931009D02*
X178761905Y-94883390D01*
X178761905Y-94883390D02*
X178857143Y-94835771D01*
X178857143Y-94835771D02*
X179095238Y-94835771D01*
X179095238Y-94835771D02*
X179190476Y-94883390D01*
X179190476Y-94883390D02*
X179238095Y-94931009D01*
X179238095Y-94931009D02*
X179285714Y-95026247D01*
X179285714Y-95026247D02*
X179285714Y-95264342D01*
X179285714Y-95264342D02*
X179238095Y-95359580D01*
X179238095Y-95359580D02*
X179190476Y-95407200D01*
X179190476Y-95407200D02*
X179095238Y-95454819D01*
X179095238Y-95454819D02*
X178857143Y-95454819D01*
X178857143Y-95454819D02*
X178761905Y-95407200D01*
X178761905Y-95407200D02*
X178714286Y-95359580D01*
X121454819Y-65261904D02*
X122264342Y-65261904D01*
X122264342Y-65261904D02*
X122359580Y-65214285D01*
X122359580Y-65214285D02*
X122407200Y-65166666D01*
X122407200Y-65166666D02*
X122454819Y-65071428D01*
X122454819Y-65071428D02*
X122454819Y-64880952D01*
X122454819Y-64880952D02*
X122407200Y-64785714D01*
X122407200Y-64785714D02*
X122359580Y-64738095D01*
X122359580Y-64738095D02*
X122264342Y-64690476D01*
X122264342Y-64690476D02*
X121454819Y-64690476D01*
X121454819Y-64309523D02*
X121454819Y-63690476D01*
X121454819Y-63690476D02*
X121835771Y-64023809D01*
X121835771Y-64023809D02*
X121835771Y-63880952D01*
X121835771Y-63880952D02*
X121883390Y-63785714D01*
X121883390Y-63785714D02*
X121931009Y-63738095D01*
X121931009Y-63738095D02*
X122026247Y-63690476D01*
X122026247Y-63690476D02*
X122264342Y-63690476D01*
X122264342Y-63690476D02*
X122359580Y-63738095D01*
X122359580Y-63738095D02*
X122407200Y-63785714D01*
X122407200Y-63785714D02*
X122454819Y-63880952D01*
X122454819Y-63880952D02*
X122454819Y-64166666D01*
X122454819Y-64166666D02*
X122407200Y-64261904D01*
X122407200Y-64261904D02*
X122359580Y-64309523D01*
X116666666Y-57514819D02*
X116666666Y-58229104D01*
X116666666Y-58229104D02*
X116619047Y-58371961D01*
X116619047Y-58371961D02*
X116523809Y-58467200D01*
X116523809Y-58467200D02*
X116380952Y-58514819D01*
X116380952Y-58514819D02*
X116285714Y-58514819D01*
X117666666Y-58514819D02*
X117095238Y-58514819D01*
X117380952Y-58514819D02*
X117380952Y-57514819D01*
X117380952Y-57514819D02*
X117285714Y-57657676D01*
X117285714Y-57657676D02*
X117190476Y-57752914D01*
X117190476Y-57752914D02*
X117095238Y-57800533D01*
X147159819Y-58271904D02*
X147969342Y-58271904D01*
X147969342Y-58271904D02*
X148064580Y-58224285D01*
X148064580Y-58224285D02*
X148112200Y-58176666D01*
X148112200Y-58176666D02*
X148159819Y-58081428D01*
X148159819Y-58081428D02*
X148159819Y-57890952D01*
X148159819Y-57890952D02*
X148112200Y-57795714D01*
X148112200Y-57795714D02*
X148064580Y-57748095D01*
X148064580Y-57748095D02*
X147969342Y-57700476D01*
X147969342Y-57700476D02*
X147159819Y-57700476D01*
X147255057Y-57271904D02*
X147207438Y-57224285D01*
X147207438Y-57224285D02*
X147159819Y-57129047D01*
X147159819Y-57129047D02*
X147159819Y-56890952D01*
X147159819Y-56890952D02*
X147207438Y-56795714D01*
X147207438Y-56795714D02*
X147255057Y-56748095D01*
X147255057Y-56748095D02*
X147350295Y-56700476D01*
X147350295Y-56700476D02*
X147445533Y-56700476D01*
X147445533Y-56700476D02*
X147588390Y-56748095D01*
X147588390Y-56748095D02*
X148159819Y-57319523D01*
X148159819Y-57319523D02*
X148159819Y-56700476D01*
X189916666Y-74344819D02*
X189916666Y-75059104D01*
X189916666Y-75059104D02*
X189869047Y-75201961D01*
X189869047Y-75201961D02*
X189773809Y-75297200D01*
X189773809Y-75297200D02*
X189630952Y-75344819D01*
X189630952Y-75344819D02*
X189535714Y-75344819D01*
X190821428Y-74344819D02*
X190630952Y-74344819D01*
X190630952Y-74344819D02*
X190535714Y-74392438D01*
X190535714Y-74392438D02*
X190488095Y-74440057D01*
X190488095Y-74440057D02*
X190392857Y-74582914D01*
X190392857Y-74582914D02*
X190345238Y-74773390D01*
X190345238Y-74773390D02*
X190345238Y-75154342D01*
X190345238Y-75154342D02*
X190392857Y-75249580D01*
X190392857Y-75249580D02*
X190440476Y-75297200D01*
X190440476Y-75297200D02*
X190535714Y-75344819D01*
X190535714Y-75344819D02*
X190726190Y-75344819D01*
X190726190Y-75344819D02*
X190821428Y-75297200D01*
X190821428Y-75297200D02*
X190869047Y-75249580D01*
X190869047Y-75249580D02*
X190916666Y-75154342D01*
X190916666Y-75154342D02*
X190916666Y-74916247D01*
X190916666Y-74916247D02*
X190869047Y-74821009D01*
X190869047Y-74821009D02*
X190821428Y-74773390D01*
X190821428Y-74773390D02*
X190726190Y-74725771D01*
X190726190Y-74725771D02*
X190535714Y-74725771D01*
X190535714Y-74725771D02*
X190440476Y-74773390D01*
X190440476Y-74773390D02*
X190392857Y-74821009D01*
X190392857Y-74821009D02*
X190345238Y-74916247D01*
D15*
X181272936Y-89265000D02*
X181727064Y-89265000D01*
X181272936Y-90735000D02*
X181727064Y-90735000D01*
X158455000Y-110565000D02*
X161545000Y-110565000D01*
X160000462Y-105015001D02*
G75*
G03*
X158455170Y-110564999I-462J-2989999D01*
G01*
X161544830Y-110565000D02*
G75*
G03*
X159999538Y-105015000I-1544830J2560000D01*
G01*
X162500000Y-108005000D02*
G75*
G03*
X162500000Y-108005000I-2500000J0D01*
G01*
D14*
X140900000Y-143200000D02*
X140900000Y-141250000D01*
X148900000Y-143200000D02*
X148900000Y-141250000D01*
X140900000Y-130300000D02*
X140900000Y-132250000D01*
X148900000Y-130300000D02*
X148900000Y-132250000D01*
X140900001Y-132250001D02*
G75*
G03*
X140900001Y-141249999I3999997J-4499999D01*
G01*
X148899999Y-141249999D02*
G75*
G03*
X148899999Y-132250001I-3999997J4499999D01*
G01*
D15*
X181272936Y-81765000D02*
X181727064Y-81765000D01*
X181272936Y-83235000D02*
X181727064Y-83235000D01*
X181272936Y-79265000D02*
X181727064Y-79265000D01*
X181272936Y-80735000D02*
X181727064Y-80735000D01*
X188920000Y-61550000D02*
X190250000Y-61550000D01*
X188920000Y-62880000D02*
X188920000Y-61550000D01*
X188920000Y-64150000D02*
X188920000Y-71830000D01*
X188920000Y-64150000D02*
X191580000Y-64150000D01*
X188920000Y-71830000D02*
X191580000Y-71830000D01*
X191580000Y-64150000D02*
X191580000Y-71830000D01*
X188920000Y-101470000D02*
X190250000Y-101470000D01*
X188920000Y-102800000D02*
X188920000Y-101470000D01*
X188920000Y-104070000D02*
X188920000Y-116830000D01*
X188920000Y-104070000D02*
X191580000Y-104070000D01*
X188920000Y-116830000D02*
X191580000Y-116830000D01*
X191580000Y-104070000D02*
X191580000Y-116830000D01*
X137545000Y-81710000D02*
X134455000Y-81710000D01*
X135999538Y-87259999D02*
G75*
G03*
X137544830Y-81710001I462J2989999D01*
G01*
X134455170Y-81710000D02*
G75*
G03*
X136000462Y-87260000I1544830J-2560000D01*
G01*
X138500000Y-84270000D02*
G75*
G03*
X138500000Y-84270000I-2500000J0D01*
G01*
X133670000Y-106455000D02*
X133670000Y-109545000D01*
X139219999Y-108000462D02*
G75*
G03*
X133670001Y-106455170I-2989999J462D01*
G01*
X133670000Y-109544830D02*
G75*
G03*
X139220000Y-107999538I2560000J1544830D01*
G01*
X138730000Y-108000000D02*
G75*
G03*
X138730000Y-108000000I-2500000J0D01*
G01*
X158455000Y-117330000D02*
X161545000Y-117330000D01*
X160000462Y-111780001D02*
G75*
G03*
X158455170Y-117329999I-462J-2989999D01*
G01*
X161544830Y-117330000D02*
G75*
G03*
X159999538Y-111780000I-1544830J2560000D01*
G01*
X162500000Y-114770000D02*
G75*
G03*
X162500000Y-114770000I-2500000J0D01*
G01*
D14*
X115400000Y-143200000D02*
X115400000Y-141250000D01*
X123400000Y-143200000D02*
X123400000Y-141250000D01*
X115400000Y-130300000D02*
X115400000Y-132250000D01*
X123400000Y-130300000D02*
X123400000Y-132250000D01*
X115400001Y-132250001D02*
G75*
G03*
X115400001Y-141249999I3999997J-4499999D01*
G01*
X123399999Y-141249999D02*
G75*
G03*
X123399999Y-132250001I-3999997J4499999D01*
G01*
D15*
X181272936Y-84265000D02*
X181727064Y-84265000D01*
X181272936Y-85735000D02*
X181727064Y-85735000D01*
X137545000Y-75170000D02*
X134455000Y-75170000D01*
X135999538Y-80719999D02*
G75*
G03*
X137544830Y-75170001I462J2989999D01*
G01*
X134455170Y-75170000D02*
G75*
G03*
X136000462Y-80720000I1544830J-2560000D01*
G01*
X138500000Y-77730000D02*
G75*
G03*
X138500000Y-77730000I-2500000J0D01*
G01*
X174080000Y-131630000D02*
X174080000Y-136350000D01*
X172890000Y-131630000D02*
X174070000Y-131630000D01*
X169990000Y-131630000D02*
X170520000Y-131630000D01*
X167540000Y-131630000D02*
X168370000Y-131630000D01*
X164330000Y-131630000D02*
X165820000Y-131630000D01*
X164330000Y-131630000D02*
X164330000Y-136350000D01*
X174070000Y-140160000D02*
X174070000Y-143220000D01*
X164330000Y-140160000D02*
X164330000Y-143220000D01*
X164330000Y-143220000D02*
X174070000Y-143220000D01*
X162830000Y-85545000D02*
X162830000Y-82455000D01*
X157280001Y-83999538D02*
G75*
G03*
X162829999Y-85544830I2989999J-462D01*
G01*
X162830000Y-82455170D02*
G75*
G03*
X157280000Y-84000462I-2560000J-1544830D01*
G01*
X162770000Y-84000000D02*
G75*
G03*
X162770000Y-84000000I-2500000J0D01*
G01*
X188920000Y-121170000D02*
X190250000Y-121170000D01*
X188920000Y-122500000D02*
X188920000Y-121170000D01*
X188920000Y-123770000D02*
X188920000Y-133990000D01*
X188920000Y-123770000D02*
X191580000Y-123770000D01*
X188920000Y-133990000D02*
X191580000Y-133990000D01*
X191580000Y-123770000D02*
X191580000Y-133990000D01*
X181272936Y-76765000D02*
X181727064Y-76765000D01*
X181272936Y-78235000D02*
X181727064Y-78235000D01*
X181272936Y-86765000D02*
X181727064Y-86765000D01*
X181272936Y-88235000D02*
X181727064Y-88235000D01*
X181727064Y-93235000D02*
X181272936Y-93235000D01*
X181727064Y-91765000D02*
X181272936Y-91765000D01*
X169565000Y-85545000D02*
X169565000Y-82455000D01*
X164015001Y-83999538D02*
G75*
G03*
X169564999Y-85544830I2989999J-462D01*
G01*
X169565000Y-82455170D02*
G75*
G03*
X164015000Y-84000462I-2560000J-1544830D01*
G01*
X169505000Y-84000000D02*
G75*
G03*
X169505000Y-84000000I-2500000J0D01*
G01*
X127210000Y-106455000D02*
X127210000Y-109545000D01*
X132759999Y-108000462D02*
G75*
G03*
X127210001Y-106455170I-2989999J462D01*
G01*
X127210000Y-109544830D02*
G75*
G03*
X132760000Y-107999538I2560000J1544830D01*
G01*
X132270000Y-108000000D02*
G75*
G03*
X132270000Y-108000000I-2500000J0D01*
G01*
X175265000Y-52370000D02*
X157245000Y-52370000D01*
X157245000Y-52370000D02*
X157245000Y-62650000D01*
X175205000Y-54860000D02*
X157305000Y-54860000D01*
X157305000Y-54860000D02*
X157305000Y-60160000D01*
X175205000Y-56510000D02*
X175205000Y-54860000D01*
X175205000Y-60160000D02*
X175205000Y-58510000D01*
X157305000Y-60160000D02*
X175205000Y-60160000D01*
X175265000Y-62650000D02*
X175265000Y-52370000D01*
X157245000Y-62650000D02*
X175265000Y-62650000D01*
X175205000Y-56510000D02*
G75*
G03*
X175205000Y-58510000I0J-1000000D01*
G01*
X181272936Y-94265000D02*
X181727064Y-94265000D01*
X181272936Y-95735000D02*
X181727064Y-95735000D01*
X120910000Y-60400000D02*
X120910000Y-66410000D01*
X114090000Y-62650000D02*
X114090000Y-66410000D01*
X120910000Y-66410000D02*
X119650000Y-66410000D01*
X114090000Y-66410000D02*
X115350000Y-66410000D01*
X122300000Y-50940000D02*
X122300000Y-48700000D01*
X122300000Y-48700000D02*
X120300000Y-48700000D01*
X122060000Y-57060000D02*
X122060000Y-48940000D01*
X122060000Y-57060000D02*
X111940000Y-57060000D01*
X122060000Y-55000000D02*
X111940000Y-55000000D01*
X122060000Y-51000000D02*
X111940000Y-51000000D01*
X122060000Y-48940000D02*
X111940000Y-48940000D01*
X115680000Y-52024000D02*
X115774000Y-51931000D01*
X115510000Y-51784000D02*
X115569000Y-51726000D01*
X113430000Y-54275000D02*
X113489000Y-54216000D01*
X113225000Y-54069000D02*
X113319000Y-53976000D01*
X111940000Y-57060000D02*
X111940000Y-48940000D01*
X120984000Y-53789000D02*
G75*
G03*
X120983953Y-52210911I-1483995J789000D01*
G01*
X118711000Y-54484000D02*
G75*
G03*
X120289089Y-54483953I789000J1483995D01*
G01*
X120289000Y-51516001D02*
G75*
G03*
X119470617Y-51319551I-788998J-1483994D01*
G01*
X119500000Y-51320001D02*
G75*
G03*
X118711288Y-51516649I0J-1679999D01*
G01*
X118016000Y-52211000D02*
G75*
G03*
X118016048Y-53789089I1484000J-789000D01*
G01*
X116180000Y-53000000D02*
G75*
G03*
X116180000Y-53000000I-1680000J0D01*
G01*
X146765000Y-52370000D02*
X128745000Y-52370000D01*
X128745000Y-52370000D02*
X128745000Y-62650000D01*
X146705000Y-54860000D02*
X128805000Y-54860000D01*
X128805000Y-54860000D02*
X128805000Y-60160000D01*
X146705000Y-56510000D02*
X146705000Y-54860000D01*
X146705000Y-60160000D02*
X146705000Y-58510000D01*
X128805000Y-60160000D02*
X146705000Y-60160000D01*
X146765000Y-62650000D02*
X146765000Y-52370000D01*
X128745000Y-62650000D02*
X146765000Y-62650000D01*
X146705000Y-56510000D02*
G75*
G03*
X146705000Y-58510000I0J-1000000D01*
G01*
X188920000Y-75890000D02*
X190250000Y-75890000D01*
X188920000Y-77220000D02*
X188920000Y-75890000D01*
X188920000Y-78490000D02*
X188920000Y-96330000D01*
X188920000Y-78490000D02*
X191580000Y-78490000D01*
X188920000Y-96330000D02*
X191580000Y-96330000D01*
X191580000Y-78490000D02*
X191580000Y-96330000D01*
%LPC*%
D16*
X180500000Y-90000000D03*
X182500000Y-90000000D03*
D17*
X160000000Y-109275000D03*
D18*
X160000000Y-106735000D03*
D19*
X144900000Y-142650000D03*
X144900000Y-136750000D03*
X144900000Y-130750000D03*
D16*
X180500000Y-82500000D03*
X182500000Y-82500000D03*
D20*
X102500000Y-53500000D03*
D16*
X180500000Y-80000000D03*
X182500000Y-80000000D03*
D20*
X192500000Y-53500000D03*
D21*
X190250000Y-62880000D03*
D22*
X190250000Y-65420000D03*
X190250000Y-67960000D03*
X190250000Y-70500000D03*
D21*
X190250000Y-102800000D03*
D22*
X190250000Y-105340000D03*
X190250000Y-107880000D03*
X190250000Y-110420000D03*
X190250000Y-112960000D03*
X190250000Y-115500000D03*
D20*
X192500000Y-143500000D03*
D17*
X136000000Y-83000000D03*
D18*
X136000000Y-85540000D03*
D17*
X134960000Y-108000000D03*
D18*
X137500000Y-108000000D03*
D17*
X160000000Y-116040000D03*
D18*
X160000000Y-113500000D03*
D19*
X119400000Y-142650000D03*
X119400000Y-136750000D03*
X119400000Y-130750000D03*
D16*
X180500000Y-85000000D03*
X182500000Y-85000000D03*
D17*
X136000000Y-76460000D03*
D18*
X136000000Y-79000000D03*
D23*
X174000000Y-138250000D03*
X164400000Y-138250000D03*
D17*
X171700000Y-130750000D03*
D18*
X169200000Y-130750000D03*
X166700000Y-130750000D03*
D17*
X161540000Y-84000000D03*
D18*
X159000000Y-84000000D03*
D21*
X190250000Y-122500000D03*
D22*
X190250000Y-125040000D03*
X190250000Y-127580000D03*
X190250000Y-130120000D03*
X190250000Y-132660000D03*
D16*
X180500000Y-77500000D03*
X182500000Y-77500000D03*
X180500000Y-87500000D03*
X182500000Y-87500000D03*
D24*
X182500000Y-92500000D03*
X180500000Y-92500000D03*
D17*
X168275000Y-84000000D03*
D18*
X165735000Y-84000000D03*
D17*
X128500000Y-108000000D03*
D18*
X131040000Y-108000000D03*
D25*
X173875000Y-53700000D03*
D26*
X171335000Y-53700000D03*
X168795000Y-53700000D03*
X166255000Y-53700000D03*
X163715000Y-53700000D03*
X161175000Y-53700000D03*
X158635000Y-53700000D03*
X158635000Y-61320000D03*
X161175000Y-61320000D03*
X163715000Y-61320000D03*
X166255000Y-61320000D03*
X168795000Y-61320000D03*
X171335000Y-61320000D03*
X173875000Y-61320000D03*
D20*
X102500000Y-143500000D03*
D16*
X180500000Y-95000000D03*
X182500000Y-95000000D03*
D27*
X119800000Y-61350000D03*
X117500000Y-61350000D03*
D28*
X117500000Y-67650000D03*
D27*
X115200000Y-61350000D03*
D29*
X119500000Y-53000000D03*
D30*
X114500000Y-53000000D03*
D25*
X145375000Y-53700000D03*
D26*
X142835000Y-53700000D03*
X140295000Y-53700000D03*
X137755000Y-53700000D03*
X135215000Y-53700000D03*
X132675000Y-53700000D03*
X130135000Y-53700000D03*
X130135000Y-61320000D03*
X132675000Y-61320000D03*
X135215000Y-61320000D03*
X137755000Y-61320000D03*
X140295000Y-61320000D03*
X142835000Y-61320000D03*
X145375000Y-61320000D03*
D21*
X190250000Y-77220000D03*
D22*
X190250000Y-79760000D03*
X190250000Y-82300000D03*
X190250000Y-84840000D03*
X190250000Y-87380000D03*
X190250000Y-89920000D03*
X190250000Y-92460000D03*
X190250000Y-95000000D03*
%LPD*%
M02*
