G04 #@! TF.GenerationSoftware,KiCad,Pcbnew,7.0.7*
G04 #@! TF.CreationDate,2024-01-31T17:55:45+01:00*
G04 #@! TF.ProjectId,AmpelSchaltung,416d7065-6c53-4636-9861-6c74756e672e,rev?*
G04 #@! TF.SameCoordinates,Original*
G04 #@! TF.FileFunction,Copper,L2,Bot*
G04 #@! TF.FilePolarity,Positive*
%FSLAX46Y46*%
G04 Gerber Fmt 4.6, Leading zero omitted, Abs format (unit mm)*
G04 Created by KiCad (PCBNEW 7.0.7) date 2024-01-31 17:55:45*
%MOMM*%
%LPD*%
G01*
G04 APERTURE LIST*
G04 #@! TA.AperFunction,ComponentPad*
%ADD10R,1.800000X1.800000*%
G04 #@! TD*
G04 #@! TA.AperFunction,ComponentPad*
%ADD11C,1.800000*%
G04 #@! TD*
G04 #@! TA.AperFunction,ComponentPad*
%ADD12O,7.000000X5.000000*%
G04 #@! TD*
G04 #@! TA.AperFunction,ComponentPad*
%ADD13R,1.700000X1.700000*%
G04 #@! TD*
G04 #@! TA.AperFunction,ComponentPad*
%ADD14O,1.700000X1.700000*%
G04 #@! TD*
G04 #@! TA.AperFunction,ComponentPad*
%ADD15O,2.720000X3.240000*%
G04 #@! TD*
G04 #@! TA.AperFunction,ComponentPad*
%ADD16R,1.600000X1.600000*%
G04 #@! TD*
G04 #@! TA.AperFunction,ComponentPad*
%ADD17O,1.600000X1.600000*%
G04 #@! TD*
G04 #@! TA.AperFunction,ComponentPad*
%ADD18R,2.500000X2.500000*%
G04 #@! TD*
G04 #@! TA.AperFunction,ComponentPad*
%ADD19C,2.500000*%
G04 #@! TD*
G04 #@! TA.AperFunction,ViaPad*
%ADD20C,0.800000*%
G04 #@! TD*
G04 #@! TA.AperFunction,Conductor*
%ADD21C,0.500000*%
G04 #@! TD*
G04 APERTURE END LIST*
D10*
X160000000Y-109275000D03*
D11*
X160000000Y-106735000D03*
D12*
X144900000Y-142650000D03*
X144900000Y-136750000D03*
X144900000Y-130750000D03*
D13*
X190250000Y-62880000D03*
D14*
X190250000Y-65420000D03*
X190250000Y-67960000D03*
X190250000Y-70500000D03*
D13*
X190250000Y-102800000D03*
D14*
X190250000Y-105340000D03*
X190250000Y-107880000D03*
X190250000Y-110420000D03*
X190250000Y-112960000D03*
X190250000Y-115500000D03*
D10*
X136000000Y-83000000D03*
D11*
X136000000Y-85540000D03*
D10*
X134960000Y-108000000D03*
D11*
X137500000Y-108000000D03*
D10*
X160000000Y-116040000D03*
D11*
X160000000Y-113500000D03*
D12*
X119400000Y-142650000D03*
X119400000Y-136750000D03*
X119400000Y-130750000D03*
D10*
X136000000Y-76460000D03*
D11*
X136000000Y-79000000D03*
D15*
X174000000Y-138250000D03*
X164400000Y-138250000D03*
D10*
X171700000Y-130750000D03*
D11*
X169200000Y-130750000D03*
X166700000Y-130750000D03*
D10*
X161540000Y-84000000D03*
D11*
X159000000Y-84000000D03*
D13*
X190250000Y-122500000D03*
D14*
X190250000Y-125040000D03*
X190250000Y-127580000D03*
X190250000Y-130120000D03*
X190250000Y-132660000D03*
D10*
X168275000Y-84000000D03*
D11*
X165735000Y-84000000D03*
D10*
X128500000Y-108000000D03*
D11*
X131040000Y-108000000D03*
D16*
X173875000Y-53700000D03*
D17*
X171335000Y-53700000D03*
X168795000Y-53700000D03*
X166255000Y-53700000D03*
X163715000Y-53700000D03*
X161175000Y-53700000D03*
X158635000Y-53700000D03*
X158635000Y-61320000D03*
X161175000Y-61320000D03*
X163715000Y-61320000D03*
X166255000Y-61320000D03*
X168795000Y-61320000D03*
X171335000Y-61320000D03*
X173875000Y-61320000D03*
D18*
X119500000Y-53000000D03*
D19*
X114500000Y-53000000D03*
D16*
X145375000Y-53700000D03*
D17*
X142835000Y-53700000D03*
X140295000Y-53700000D03*
X137755000Y-53700000D03*
X135215000Y-53700000D03*
X132675000Y-53700000D03*
X130135000Y-53700000D03*
X130135000Y-61320000D03*
X132675000Y-61320000D03*
X135215000Y-61320000D03*
X137755000Y-61320000D03*
X140295000Y-61320000D03*
X142835000Y-61320000D03*
X145375000Y-61320000D03*
D13*
X190250000Y-77220000D03*
D14*
X190250000Y-79760000D03*
X190250000Y-82300000D03*
X190250000Y-84840000D03*
X190250000Y-87380000D03*
X190250000Y-89920000D03*
X190250000Y-92460000D03*
X190250000Y-95000000D03*
D20*
X180500000Y-96750000D03*
D21*
X159000000Y-86500000D02*
X159000000Y-84000000D01*
X169250000Y-96750000D02*
X159000000Y-86500000D01*
X180500000Y-96750000D02*
X169250000Y-96750000D01*
X163250000Y-133750000D02*
X168700000Y-133750000D01*
X137750000Y-136750000D02*
X144900000Y-136750000D01*
X131850000Y-142650000D02*
X137750000Y-136750000D01*
X119400000Y-142650000D02*
X131850000Y-142650000D01*
X160250000Y-136750000D02*
X163250000Y-133750000D01*
X144900000Y-136750000D02*
X160250000Y-136750000D01*
X168700000Y-133750000D02*
X171700000Y-130750000D01*
X167750000Y-127250000D02*
X129500000Y-127250000D01*
X126000000Y-130750000D02*
X119400000Y-130750000D01*
X169200000Y-130750000D02*
X169200000Y-128700000D01*
X129500000Y-127250000D02*
X126000000Y-130750000D01*
X169200000Y-128700000D02*
X167750000Y-127250000D01*
X133750000Y-51250000D02*
X132675000Y-52325000D01*
X166255000Y-53700000D02*
X163715000Y-53700000D01*
X163715000Y-53700000D02*
X163715000Y-54785000D01*
X151500000Y-55500000D02*
X147250000Y-51250000D01*
X147250000Y-51250000D02*
X133750000Y-51250000D01*
X163000000Y-55500000D02*
X151500000Y-55500000D01*
X163715000Y-54785000D02*
X163000000Y-55500000D01*
X132675000Y-52325000D02*
X132675000Y-53700000D01*
X173875000Y-53700000D02*
X171335000Y-53700000D01*
X140295000Y-53700000D02*
X135215000Y-53700000D01*
X145375000Y-53700000D02*
X142835000Y-53700000D01*
X111500000Y-89750000D02*
X135250000Y-66000000D01*
X119400000Y-136750000D02*
X111500000Y-128850000D01*
X148750000Y-57250000D02*
X145375000Y-53875000D01*
X171335000Y-61320000D02*
X168795000Y-61320000D01*
X146500000Y-66000000D02*
X148750000Y-63750000D01*
X148750000Y-63750000D02*
X148750000Y-57250000D01*
X168795000Y-61320000D02*
X164725000Y-57250000D01*
X135250000Y-66000000D02*
X146500000Y-66000000D01*
X111500000Y-128850000D02*
X111500000Y-89750000D01*
X145375000Y-53875000D02*
X145375000Y-53700000D01*
X164725000Y-57250000D02*
X148750000Y-57250000D01*
X162750000Y-50750000D02*
X175500000Y-50750000D01*
X183720000Y-77220000D02*
X190250000Y-77220000D01*
X161175000Y-53700000D02*
X161175000Y-52325000D01*
X179250000Y-54500000D02*
X179250000Y-72750000D01*
X190250000Y-77220000D02*
X190250000Y-79760000D01*
X179250000Y-72750000D02*
X183720000Y-77220000D01*
X161175000Y-52325000D02*
X162750000Y-50750000D01*
X175500000Y-50750000D02*
X179250000Y-54500000D01*
X182700000Y-82300000D02*
X190250000Y-82300000D01*
X177000000Y-60250000D02*
X177000000Y-77000000D01*
X168795000Y-53700000D02*
X171595000Y-56500000D01*
X177000000Y-77000000D02*
X182500000Y-82500000D01*
X173250000Y-56500000D02*
X177000000Y-60250000D01*
X190250000Y-82300000D02*
X190250000Y-84840000D01*
X171595000Y-56500000D02*
X173250000Y-56500000D01*
X182500000Y-82500000D02*
X182700000Y-82300000D01*
X166255000Y-61320000D02*
X166255000Y-71255000D01*
X182620000Y-87380000D02*
X190250000Y-87380000D01*
X190250000Y-87380000D02*
X190250000Y-89920000D01*
X161175000Y-61320000D02*
X166255000Y-61320000D01*
X166255000Y-71255000D02*
X182500000Y-87500000D01*
X182500000Y-87500000D02*
X182620000Y-87380000D01*
X182750000Y-92500000D02*
X182790000Y-92460000D01*
X190250000Y-92460000D02*
X190250000Y-95000000D01*
X158635000Y-61320000D02*
X158635000Y-68385000D01*
X158635000Y-68385000D02*
X182750000Y-92500000D01*
X182790000Y-92460000D02*
X190250000Y-92460000D01*
G04 #@! TA.AperFunction,Conductor*
G36*
X190346288Y-105858954D02*
G01*
X190427070Y-105912930D01*
X190481046Y-105993712D01*
X190500000Y-106089000D01*
X190500000Y-107131000D01*
X190481046Y-107226288D01*
X190427070Y-107307070D01*
X190346288Y-107361046D01*
X190251000Y-107380000D01*
X190249000Y-107380000D01*
X190153712Y-107361046D01*
X190072930Y-107307070D01*
X190018954Y-107226288D01*
X190000000Y-107131000D01*
X190000000Y-106089000D01*
X190018954Y-105993712D01*
X190072930Y-105912930D01*
X190153712Y-105858954D01*
X190249000Y-105840000D01*
X190251000Y-105840000D01*
X190346288Y-105858954D01*
G37*
G04 #@! TD.AperFunction*
G04 #@! TA.AperFunction,Conductor*
G36*
X190346288Y-103318954D02*
G01*
X190427070Y-103372930D01*
X190481046Y-103453712D01*
X190500000Y-103549000D01*
X190500000Y-104591000D01*
X190481046Y-104686288D01*
X190427070Y-104767070D01*
X190346288Y-104821046D01*
X190251000Y-104840000D01*
X190249000Y-104840000D01*
X190153712Y-104821046D01*
X190072930Y-104767070D01*
X190018954Y-104686288D01*
X190000000Y-104591000D01*
X190000000Y-103549000D01*
X190018954Y-103453712D01*
X190072930Y-103372930D01*
X190153712Y-103318954D01*
X190249000Y-103300000D01*
X190251000Y-103300000D01*
X190346288Y-103318954D01*
G37*
G04 #@! TD.AperFunction*
G04 #@! TA.AperFunction,Conductor*
G36*
X190346288Y-68478954D02*
G01*
X190427070Y-68532930D01*
X190481046Y-68613712D01*
X190500000Y-68709000D01*
X190500000Y-69751000D01*
X190481046Y-69846288D01*
X190427070Y-69927070D01*
X190346288Y-69981046D01*
X190251000Y-70000000D01*
X190249000Y-70000000D01*
X190153712Y-69981046D01*
X190072930Y-69927070D01*
X190018954Y-69846288D01*
X190000000Y-69751000D01*
X190000000Y-68709000D01*
X190018954Y-68613712D01*
X190072930Y-68532930D01*
X190153712Y-68478954D01*
X190249000Y-68460000D01*
X190251000Y-68460000D01*
X190346288Y-68478954D01*
G37*
G04 #@! TD.AperFunction*
G04 #@! TA.AperFunction,Conductor*
G36*
X134656302Y-61088954D02*
G01*
X134737084Y-61142930D01*
X134791060Y-61223712D01*
X134810014Y-61319000D01*
X134810014Y-61321000D01*
X134791060Y-61416288D01*
X134737084Y-61497070D01*
X134656302Y-61551046D01*
X134561014Y-61570000D01*
X133328986Y-61570000D01*
X133233698Y-61551046D01*
X133152916Y-61497070D01*
X133098940Y-61416288D01*
X133079986Y-61321000D01*
X133079986Y-61319000D01*
X133098940Y-61223712D01*
X133152916Y-61142930D01*
X133233698Y-61088954D01*
X133328986Y-61070000D01*
X134561014Y-61070000D01*
X134656302Y-61088954D01*
G37*
G04 #@! TD.AperFunction*
G04 #@! TA.AperFunction,Conductor*
G36*
X142276302Y-61088954D02*
G01*
X142357084Y-61142930D01*
X142411060Y-61223712D01*
X142430014Y-61319000D01*
X142430014Y-61321000D01*
X142411060Y-61416288D01*
X142357084Y-61497070D01*
X142276302Y-61551046D01*
X142181014Y-61570000D01*
X140948986Y-61570000D01*
X140853698Y-61551046D01*
X140772916Y-61497070D01*
X140718940Y-61416288D01*
X140699986Y-61321000D01*
X140699986Y-61319000D01*
X140718940Y-61223712D01*
X140772916Y-61142930D01*
X140853698Y-61088954D01*
X140948986Y-61070000D01*
X142181014Y-61070000D01*
X142276302Y-61088954D01*
G37*
G04 #@! TD.AperFunction*
G04 #@! TA.AperFunction,Conductor*
G36*
X162377342Y-49519454D02*
G01*
X162458124Y-49573430D01*
X162512100Y-49654212D01*
X162531054Y-49749500D01*
X162512100Y-49844788D01*
X162458124Y-49925570D01*
X162401384Y-49965170D01*
X162402270Y-49966644D01*
X162401004Y-49967405D01*
X162392003Y-49971718D01*
X162386602Y-49975488D01*
X162380264Y-49978419D01*
X162369883Y-49983568D01*
X162301658Y-50027177D01*
X162232265Y-50068929D01*
X162223042Y-50075940D01*
X162214011Y-50083200D01*
X162156768Y-50140443D01*
X162097962Y-50196147D01*
X162089224Y-50206435D01*
X162088498Y-50205819D01*
X162074694Y-50222516D01*
X160601613Y-51695595D01*
X160594182Y-51702445D01*
X160584537Y-51710639D01*
X160553900Y-51736663D01*
X160504909Y-51801108D01*
X160454164Y-51864236D01*
X160447936Y-51873980D01*
X160441943Y-51883940D01*
X160407939Y-51957438D01*
X160371959Y-52029988D01*
X160367960Y-52040872D01*
X160364268Y-52051831D01*
X160346858Y-52130926D01*
X160327315Y-52209505D01*
X160325758Y-52220926D01*
X160324500Y-52232506D01*
X160324500Y-52241424D01*
X160305546Y-52336712D01*
X160251570Y-52417494D01*
X160170788Y-52471470D01*
X160075500Y-52490424D01*
X159980212Y-52471470D01*
X159906138Y-52423955D01*
X159760424Y-52288754D01*
X159537527Y-52136784D01*
X159537522Y-52136782D01*
X159294465Y-52019731D01*
X159294459Y-52019729D01*
X159036666Y-51940210D01*
X158885000Y-51917349D01*
X158885000Y-53051000D01*
X158866046Y-53146288D01*
X158812070Y-53227070D01*
X158731288Y-53281046D01*
X158636000Y-53300000D01*
X158634000Y-53300000D01*
X158538712Y-53281046D01*
X158457930Y-53227070D01*
X158403954Y-53146288D01*
X158385000Y-53051000D01*
X158385000Y-51917349D01*
X158233334Y-51940210D01*
X158233332Y-51940210D01*
X157975540Y-52019729D01*
X157975535Y-52019731D01*
X157732478Y-52136782D01*
X157732473Y-52136784D01*
X157509574Y-52288754D01*
X157311811Y-52472251D01*
X157311806Y-52472256D01*
X157143598Y-52683182D01*
X157008713Y-52916810D01*
X157008705Y-52916826D01*
X156910144Y-53167958D01*
X156850115Y-53430968D01*
X156848689Y-53450000D01*
X157981014Y-53450000D01*
X158076302Y-53468954D01*
X158157084Y-53522930D01*
X158211060Y-53603712D01*
X158230014Y-53699000D01*
X158230014Y-53701000D01*
X158211060Y-53796288D01*
X158157084Y-53877070D01*
X158076302Y-53931046D01*
X157981014Y-53950000D01*
X156848689Y-53950000D01*
X156850115Y-53969031D01*
X156910144Y-54232043D01*
X156940556Y-54309529D01*
X156957725Y-54405155D01*
X156936993Y-54500073D01*
X156881516Y-54579831D01*
X156799740Y-54632287D01*
X156708769Y-54649500D01*
X151955429Y-54649500D01*
X151860141Y-54630546D01*
X151779359Y-54576570D01*
X147879412Y-50676622D01*
X147872555Y-50669184D01*
X147838334Y-50628897D01*
X147773892Y-50579910D01*
X147768969Y-50575953D01*
X147758483Y-50567524D01*
X147710756Y-50529159D01*
X147701015Y-50522933D01*
X147691063Y-50516945D01*
X147617561Y-50482939D01*
X147545019Y-50446963D01*
X147534102Y-50442952D01*
X147523172Y-50439269D01*
X147444073Y-50421858D01*
X147365491Y-50402314D01*
X147354087Y-50400760D01*
X147342500Y-50399500D01*
X147342497Y-50399500D01*
X147342493Y-50399500D01*
X147261532Y-50399500D01*
X147221031Y-50398403D01*
X147180568Y-50397307D01*
X147180567Y-50397307D01*
X147180566Y-50397307D01*
X147167110Y-50398403D01*
X147167032Y-50397449D01*
X147145466Y-50399500D01*
X133789632Y-50399500D01*
X133779525Y-50399089D01*
X133726835Y-50394799D01*
X133726830Y-50394799D01*
X133646607Y-50405729D01*
X133566089Y-50414485D01*
X133554800Y-50416970D01*
X133543533Y-50419772D01*
X133495431Y-50437443D01*
X133467499Y-50447705D01*
X133393171Y-50472749D01*
X133390776Y-50473557D01*
X133380223Y-50478439D01*
X133369880Y-50483568D01*
X133301631Y-50527193D01*
X133232261Y-50568931D01*
X133223024Y-50575953D01*
X133214013Y-50583197D01*
X133156750Y-50640460D01*
X133097962Y-50696147D01*
X133089224Y-50706435D01*
X133088498Y-50705818D01*
X133074696Y-50722513D01*
X132101613Y-51695595D01*
X132094182Y-51702445D01*
X132084537Y-51710639D01*
X132053900Y-51736663D01*
X132004909Y-51801108D01*
X131954164Y-51864236D01*
X131947936Y-51873980D01*
X131941943Y-51883940D01*
X131907939Y-51957438D01*
X131871959Y-52029988D01*
X131867960Y-52040872D01*
X131864268Y-52051831D01*
X131846858Y-52130926D01*
X131827315Y-52209505D01*
X131825758Y-52220926D01*
X131824500Y-52232506D01*
X131824500Y-52241424D01*
X131805546Y-52336712D01*
X131751570Y-52417494D01*
X131670788Y-52471470D01*
X131575500Y-52490424D01*
X131480212Y-52471470D01*
X131406138Y-52423955D01*
X131260424Y-52288754D01*
X131037527Y-52136784D01*
X131037522Y-52136782D01*
X130794465Y-52019731D01*
X130794459Y-52019729D01*
X130536666Y-51940210D01*
X130384999Y-51917349D01*
X130384999Y-53051000D01*
X130366045Y-53146288D01*
X130312068Y-53227070D01*
X130231287Y-53281046D01*
X130135999Y-53300000D01*
X130134000Y-53300000D01*
X130038712Y-53281046D01*
X129957930Y-53227070D01*
X129903954Y-53146288D01*
X129885000Y-53051000D01*
X129885000Y-51917349D01*
X129733334Y-51940210D01*
X129733332Y-51940210D01*
X129475540Y-52019729D01*
X129475535Y-52019731D01*
X129232478Y-52136782D01*
X129232473Y-52136784D01*
X129009574Y-52288754D01*
X128811811Y-52472251D01*
X128811806Y-52472256D01*
X128643598Y-52683182D01*
X128508713Y-52916810D01*
X128508705Y-52916826D01*
X128410144Y-53167958D01*
X128350115Y-53430968D01*
X128348689Y-53450000D01*
X129481014Y-53450000D01*
X129576302Y-53468954D01*
X129657084Y-53522930D01*
X129711060Y-53603712D01*
X129730014Y-53699000D01*
X129730014Y-53701000D01*
X129711060Y-53796288D01*
X129657084Y-53877070D01*
X129576302Y-53931046D01*
X129481014Y-53950000D01*
X128348689Y-53950000D01*
X128350115Y-53969031D01*
X128410144Y-54232041D01*
X128508705Y-54483173D01*
X128508713Y-54483189D01*
X128643598Y-54716817D01*
X128811806Y-54927743D01*
X128811811Y-54927748D01*
X129009574Y-55111245D01*
X129232473Y-55263215D01*
X129232478Y-55263217D01*
X129475535Y-55380268D01*
X129475540Y-55380270D01*
X129733333Y-55459789D01*
X129884999Y-55482649D01*
X129885000Y-55482649D01*
X129885000Y-54349000D01*
X129903954Y-54253712D01*
X129957930Y-54172930D01*
X130038712Y-54118954D01*
X130134000Y-54100000D01*
X130135999Y-54100000D01*
X130231287Y-54118954D01*
X130312069Y-54172930D01*
X130366045Y-54253712D01*
X130384999Y-54349000D01*
X130384999Y-55482648D01*
X130385000Y-55482649D01*
X130536666Y-55459789D01*
X130794459Y-55380270D01*
X130794465Y-55380268D01*
X131037522Y-55263217D01*
X131037527Y-55263215D01*
X131260425Y-55111245D01*
X131458188Y-54927748D01*
X131458191Y-54927745D01*
X131501640Y-54873262D01*
X131575870Y-54810580D01*
X131668437Y-54781076D01*
X131765248Y-54789241D01*
X131849256Y-54832014D01*
X131885393Y-54860140D01*
X131906374Y-54876470D01*
X132001118Y-54927743D01*
X132110487Y-54986931D01*
X132110489Y-54986931D01*
X132110497Y-54986936D01*
X132330019Y-55062298D01*
X132558951Y-55100500D01*
X132791049Y-55100500D01*
X133019981Y-55062298D01*
X133239503Y-54986936D01*
X133443626Y-54876470D01*
X133626784Y-54733913D01*
X133761805Y-54587241D01*
X133840286Y-54529972D01*
X133934710Y-54507097D01*
X134030700Y-54522097D01*
X134113643Y-54572689D01*
X134128195Y-54587241D01*
X134212004Y-54678282D01*
X134263216Y-54733913D01*
X134273119Y-54741621D01*
X134413007Y-54850500D01*
X134446374Y-54876470D01*
X134541118Y-54927743D01*
X134650487Y-54986931D01*
X134650489Y-54986931D01*
X134650497Y-54986936D01*
X134870019Y-55062298D01*
X135098951Y-55100500D01*
X135331049Y-55100500D01*
X135559981Y-55062298D01*
X135779503Y-54986936D01*
X135983626Y-54876470D01*
X136166784Y-54733913D01*
X136237808Y-54656760D01*
X136261654Y-54630857D01*
X136340136Y-54573588D01*
X136434559Y-54550713D01*
X136444849Y-54550500D01*
X136525151Y-54550500D01*
X136620439Y-54569454D01*
X136701221Y-54623430D01*
X136708346Y-54630857D01*
X136752004Y-54678282D01*
X136803216Y-54733913D01*
X136813119Y-54741621D01*
X136953007Y-54850500D01*
X136986374Y-54876470D01*
X137081118Y-54927743D01*
X137190487Y-54986931D01*
X137190489Y-54986931D01*
X137190497Y-54986936D01*
X137410019Y-55062298D01*
X137638951Y-55100500D01*
X137871049Y-55100500D01*
X138099981Y-55062298D01*
X138319503Y-54986936D01*
X138523626Y-54876470D01*
X138706784Y-54733913D01*
X138777808Y-54656760D01*
X138801654Y-54630857D01*
X138880136Y-54573588D01*
X138974559Y-54550713D01*
X138984849Y-54550500D01*
X139065151Y-54550500D01*
X139160439Y-54569454D01*
X139241221Y-54623430D01*
X139248346Y-54630857D01*
X139292004Y-54678282D01*
X139343216Y-54733913D01*
X139353119Y-54741621D01*
X139493007Y-54850500D01*
X139526374Y-54876470D01*
X139621118Y-54927743D01*
X139730487Y-54986931D01*
X139730489Y-54986931D01*
X139730497Y-54986936D01*
X139950019Y-55062298D01*
X140178951Y-55100500D01*
X140411049Y-55100500D01*
X140639981Y-55062298D01*
X140859503Y-54986936D01*
X141063626Y-54876470D01*
X141246784Y-54733913D01*
X141381805Y-54587241D01*
X141460286Y-54529972D01*
X141554710Y-54507097D01*
X141650700Y-54522097D01*
X141733643Y-54572689D01*
X141748195Y-54587241D01*
X141832004Y-54678282D01*
X141883216Y-54733913D01*
X141893119Y-54741621D01*
X142033007Y-54850500D01*
X142066374Y-54876470D01*
X142161118Y-54927743D01*
X142270487Y-54986931D01*
X142270489Y-54986931D01*
X142270497Y-54986936D01*
X142490019Y-55062298D01*
X142718951Y-55100500D01*
X142951049Y-55100500D01*
X143179981Y-55062298D01*
X143399503Y-54986936D01*
X143603626Y-54876470D01*
X143636993Y-54850500D01*
X143715698Y-54789241D01*
X143720901Y-54785191D01*
X143807738Y-54741621D01*
X143904639Y-54734599D01*
X143996851Y-54765194D01*
X144070335Y-54828747D01*
X144071385Y-54830106D01*
X144125395Y-54900494D01*
X144146718Y-54928282D01*
X144146722Y-54928285D01*
X144146723Y-54928286D01*
X144266238Y-55019993D01*
X144272159Y-55024536D01*
X144418238Y-55085044D01*
X144535639Y-55100500D01*
X145294570Y-55100499D01*
X145389858Y-55119453D01*
X145470639Y-55173429D01*
X145470640Y-55173429D01*
X147826570Y-57529358D01*
X147880546Y-57610140D01*
X147899500Y-57705428D01*
X147899500Y-63294570D01*
X147880546Y-63389858D01*
X147826570Y-63470640D01*
X146220641Y-65076570D01*
X146139859Y-65130546D01*
X146044571Y-65149500D01*
X135289632Y-65149500D01*
X135279525Y-65149089D01*
X135226835Y-65144799D01*
X135226830Y-65144799D01*
X135146607Y-65155729D01*
X135066089Y-65164485D01*
X135054800Y-65166970D01*
X135043530Y-65169773D01*
X134967513Y-65197700D01*
X134890775Y-65223557D01*
X134880264Y-65228419D01*
X134869883Y-65233568D01*
X134801658Y-65277177D01*
X134732265Y-65318929D01*
X134723042Y-65325940D01*
X134714011Y-65333200D01*
X134656769Y-65390442D01*
X134597962Y-65446147D01*
X134589224Y-65456435D01*
X134588498Y-65455819D01*
X134574694Y-65472516D01*
X110926613Y-89120595D01*
X110919177Y-89127451D01*
X110878900Y-89161663D01*
X110829909Y-89226108D01*
X110779164Y-89289236D01*
X110772936Y-89298980D01*
X110766943Y-89308940D01*
X110732939Y-89382438D01*
X110696959Y-89454988D01*
X110692960Y-89465872D01*
X110689268Y-89476831D01*
X110671858Y-89555926D01*
X110652315Y-89634505D01*
X110650754Y-89645959D01*
X110649499Y-89657498D01*
X110649499Y-89738467D01*
X110647307Y-89819433D01*
X110648403Y-89832886D01*
X110647449Y-89832963D01*
X110649500Y-89854533D01*
X110649499Y-128810366D01*
X110649088Y-128820471D01*
X110644799Y-128873159D01*
X110644799Y-128873168D01*
X110655729Y-128953392D01*
X110664484Y-129033905D01*
X110666969Y-129045192D01*
X110669774Y-129056471D01*
X110697700Y-129132486D01*
X110723559Y-129209230D01*
X110728417Y-129219732D01*
X110733566Y-129230112D01*
X110733567Y-129230113D01*
X110733568Y-129230116D01*
X110777184Y-129298353D01*
X110818930Y-129367736D01*
X110818931Y-129367737D01*
X110818933Y-129367740D01*
X110825935Y-129376951D01*
X110833201Y-129385991D01*
X110868924Y-129421713D01*
X110890460Y-129443249D01*
X110946151Y-129502041D01*
X110946154Y-129502043D01*
X110946155Y-129502044D01*
X110956441Y-129510781D01*
X110955821Y-129511510D01*
X110972520Y-129525309D01*
X115943945Y-134496734D01*
X115997921Y-134577516D01*
X116016875Y-134672804D01*
X115997921Y-134768092D01*
X115956063Y-134835857D01*
X115940700Y-134853587D01*
X115940697Y-134853592D01*
X115740557Y-135146286D01*
X115740553Y-135146292D01*
X115575082Y-135459894D01*
X115446434Y-135790320D01*
X115446431Y-135790328D01*
X115446432Y-135790328D01*
X115363954Y-136104109D01*
X115356289Y-136133269D01*
X115305827Y-136484233D01*
X115305826Y-136484239D01*
X115295700Y-136838669D01*
X115326044Y-137191965D01*
X115396463Y-137539493D01*
X115396463Y-137539494D01*
X115506034Y-137876719D01*
X115506038Y-137876729D01*
X115653330Y-138199255D01*
X115653334Y-138199261D01*
X115653336Y-138199266D01*
X115746049Y-138353014D01*
X115836440Y-138502911D01*
X115836442Y-138502914D01*
X115836443Y-138502915D01*
X116052971Y-138783713D01*
X116300095Y-139037997D01*
X116574595Y-139262455D01*
X116872888Y-139454157D01*
X116872893Y-139454160D01*
X116920343Y-139477490D01*
X116997492Y-139536543D01*
X117046169Y-139620623D01*
X117058965Y-139716932D01*
X117033931Y-139810806D01*
X116974878Y-139887955D01*
X116932922Y-139917757D01*
X116721005Y-140037432D01*
X116721003Y-140037433D01*
X116721002Y-140037434D01*
X116434143Y-140245849D01*
X116434139Y-140245852D01*
X116172904Y-140485612D01*
X115940700Y-140753586D01*
X115740557Y-141046286D01*
X115740553Y-141046292D01*
X115575082Y-141359894D01*
X115446434Y-141690320D01*
X115356289Y-142033269D01*
X115305827Y-142384233D01*
X115305826Y-142384239D01*
X115295700Y-142738669D01*
X115326044Y-143091965D01*
X115396463Y-143439493D01*
X115396463Y-143439494D01*
X115506034Y-143776719D01*
X115506038Y-143776729D01*
X115653330Y-144099255D01*
X115653334Y-144099261D01*
X115653336Y-144099266D01*
X115717130Y-144205057D01*
X115836440Y-144402911D01*
X115836442Y-144402914D01*
X115836443Y-144402915D01*
X116052971Y-144683713D01*
X116179964Y-144814385D01*
X116299177Y-144937053D01*
X116300095Y-144937997D01*
X116574595Y-145162455D01*
X116872891Y-145354159D01*
X117191096Y-145510609D01*
X117525061Y-145629768D01*
X117870432Y-145710080D01*
X118134638Y-145740394D01*
X118222706Y-145750500D01*
X118222707Y-145750500D01*
X120488578Y-145750500D01*
X120665530Y-145740381D01*
X120754008Y-145735322D01*
X121103400Y-145674857D01*
X121443623Y-145574959D01*
X121770241Y-145436929D01*
X122078995Y-145262568D01*
X122365861Y-145054147D01*
X122627099Y-144814385D01*
X122859304Y-144546407D01*
X123059448Y-144253706D01*
X123224921Y-143940098D01*
X123334300Y-143659160D01*
X123386534Y-143577242D01*
X123466141Y-143521548D01*
X123561001Y-143500557D01*
X123566334Y-143500500D01*
X131810368Y-143500500D01*
X131820475Y-143500911D01*
X131842536Y-143502706D01*
X131873167Y-143505201D01*
X131953392Y-143494270D01*
X132033910Y-143485514D01*
X132045217Y-143483024D01*
X132056461Y-143480227D01*
X132056468Y-143480227D01*
X132132486Y-143452299D01*
X132209221Y-143426444D01*
X132209230Y-143426438D01*
X132219754Y-143421570D01*
X132230108Y-143416434D01*
X132230116Y-143416432D01*
X132298353Y-143372815D01*
X132367736Y-143331070D01*
X132367742Y-143331063D01*
X132376981Y-143324041D01*
X132385987Y-143316802D01*
X132443249Y-143259539D01*
X132502041Y-143203849D01*
X132510781Y-143193559D01*
X132511514Y-143194182D01*
X132525308Y-143177479D01*
X138029358Y-137673430D01*
X138110141Y-137619454D01*
X138205429Y-137600500D01*
X140735377Y-137600500D01*
X140830665Y-137619454D01*
X140911447Y-137673430D01*
X140965423Y-137754212D01*
X140972190Y-137772555D01*
X141006034Y-137876719D01*
X141006038Y-137876729D01*
X141153330Y-138199255D01*
X141153334Y-138199261D01*
X141153336Y-138199266D01*
X141246049Y-138353014D01*
X141336440Y-138502911D01*
X141336442Y-138502914D01*
X141336443Y-138502915D01*
X141552971Y-138783713D01*
X141800095Y-139037997D01*
X142074595Y-139262455D01*
X142372888Y-139454157D01*
X142372893Y-139454160D01*
X142420343Y-139477490D01*
X142497492Y-139536543D01*
X142546169Y-139620623D01*
X142558965Y-139716932D01*
X142533931Y-139810806D01*
X142474878Y-139887955D01*
X142432922Y-139917757D01*
X142221005Y-140037432D01*
X142221003Y-140037433D01*
X142221002Y-140037434D01*
X141934143Y-140245849D01*
X141934139Y-140245852D01*
X141672904Y-140485612D01*
X141440700Y-140753586D01*
X141240557Y-141046286D01*
X141240553Y-141046292D01*
X141075082Y-141359894D01*
X140946434Y-141690320D01*
X140856289Y-142033269D01*
X140805827Y-142384233D01*
X140805826Y-142384239D01*
X140795700Y-142738669D01*
X140826044Y-143091965D01*
X140896463Y-143439493D01*
X140896463Y-143439494D01*
X141006034Y-143776719D01*
X141006038Y-143776729D01*
X141153330Y-144099255D01*
X141153334Y-144099261D01*
X141153336Y-144099266D01*
X141217130Y-144205057D01*
X141336440Y-144402911D01*
X141336442Y-144402914D01*
X141336443Y-144402915D01*
X141552971Y-144683713D01*
X141679964Y-144814385D01*
X141799177Y-144937053D01*
X141800095Y-144937997D01*
X142074595Y-145162455D01*
X142372891Y-145354159D01*
X142691096Y-145510609D01*
X143025061Y-145629768D01*
X143370432Y-145710080D01*
X143634638Y-145740394D01*
X143722706Y-145750500D01*
X143722707Y-145750500D01*
X145988578Y-145750500D01*
X146165530Y-145740381D01*
X146254008Y-145735322D01*
X146603400Y-145674857D01*
X146943623Y-145574959D01*
X147270241Y-145436929D01*
X147578995Y-145262568D01*
X147865861Y-145054147D01*
X148127099Y-144814385D01*
X148359304Y-144546407D01*
X148559448Y-144253706D01*
X148724921Y-143940098D01*
X148840327Y-143643681D01*
X190399500Y-143643681D01*
X190438627Y-143928351D01*
X190516155Y-144205057D01*
X190630639Y-144468626D01*
X190779944Y-144714146D01*
X190779945Y-144714147D01*
X190961292Y-144937053D01*
X191171302Y-145133189D01*
X191406064Y-145298901D01*
X191661203Y-145431104D01*
X191931968Y-145527334D01*
X192213314Y-145585798D01*
X192213321Y-145585798D01*
X192213324Y-145585799D01*
X192428243Y-145600500D01*
X192428248Y-145600500D01*
X192571757Y-145600500D01*
X192786675Y-145585799D01*
X192786677Y-145585798D01*
X192786686Y-145585798D01*
X193068032Y-145527334D01*
X193338797Y-145431104D01*
X193593936Y-145298901D01*
X193828698Y-145133189D01*
X194038708Y-144937053D01*
X194220055Y-144714147D01*
X194369361Y-144468625D01*
X194483844Y-144205058D01*
X194561371Y-143928358D01*
X194600500Y-143643678D01*
X194600500Y-143356322D01*
X194564165Y-143091968D01*
X194561372Y-143071648D01*
X194561371Y-143071646D01*
X194561371Y-143071642D01*
X194483844Y-142794942D01*
X194369361Y-142531375D01*
X194220055Y-142285853D01*
X194038708Y-142062947D01*
X193828698Y-141866811D01*
X193593936Y-141701099D01*
X193573134Y-141690320D01*
X193338802Y-141568898D01*
X193338800Y-141568897D01*
X193210446Y-141523280D01*
X193068032Y-141472666D01*
X192939430Y-141445942D01*
X192786692Y-141414203D01*
X192786675Y-141414200D01*
X192571757Y-141399500D01*
X192571752Y-141399500D01*
X192428248Y-141399500D01*
X192428243Y-141399500D01*
X192213324Y-141414200D01*
X192213307Y-141414203D01*
X191931968Y-141472666D01*
X191661199Y-141568897D01*
X191661197Y-141568898D01*
X191406065Y-141701098D01*
X191171304Y-141866809D01*
X191171303Y-141866810D01*
X190961290Y-142062949D01*
X190779944Y-142285853D01*
X190630639Y-142531373D01*
X190516155Y-142794942D01*
X190438627Y-143071648D01*
X190399500Y-143356318D01*
X190399500Y-143643681D01*
X148840327Y-143643681D01*
X148853568Y-143609672D01*
X148943710Y-143266736D01*
X148994173Y-142915759D01*
X149004299Y-142561317D01*
X148973955Y-142208032D01*
X148903537Y-141860508D01*
X148793964Y-141523277D01*
X148744152Y-141414203D01*
X148646669Y-141200744D01*
X148646667Y-141200740D01*
X148646664Y-141200734D01*
X148463557Y-140897085D01*
X148247029Y-140616287D01*
X147999905Y-140362003D01*
X147725405Y-140137545D01*
X147427109Y-139945841D01*
X147427110Y-139945841D01*
X147427104Y-139945838D01*
X147379654Y-139922508D01*
X147302506Y-139863455D01*
X147253829Y-139779374D01*
X147241034Y-139683065D01*
X147266069Y-139589191D01*
X147325122Y-139512043D01*
X147367075Y-139482244D01*
X147578995Y-139362568D01*
X147865861Y-139154147D01*
X148127099Y-138914385D01*
X148359304Y-138646407D01*
X148404694Y-138580026D01*
X162439500Y-138580026D01*
X162454498Y-138789722D01*
X162514109Y-139063747D01*
X162612110Y-139326500D01*
X162612112Y-139326504D01*
X162746508Y-139572633D01*
X162914563Y-139797128D01*
X162914565Y-139797130D01*
X162914568Y-139797134D01*
X163112866Y-139995432D01*
X163337366Y-140163491D01*
X163583498Y-140297889D01*
X163846252Y-140395891D01*
X164120279Y-140455502D01*
X164400000Y-140475508D01*
X164679721Y-140455502D01*
X164953748Y-140395891D01*
X165216502Y-140297889D01*
X165462634Y-140163491D01*
X165687134Y-139995432D01*
X165885432Y-139797134D01*
X166053491Y-139572634D01*
X166187889Y-139326502D01*
X166285891Y-139063748D01*
X166345502Y-138789721D01*
X166360500Y-138580026D01*
X172039500Y-138580026D01*
X172054498Y-138789722D01*
X172114109Y-139063747D01*
X172212110Y-139326500D01*
X172212112Y-139326504D01*
X172346508Y-139572633D01*
X172514563Y-139797128D01*
X172514565Y-139797130D01*
X172514568Y-139797134D01*
X172712866Y-139995432D01*
X172937366Y-140163491D01*
X173183498Y-140297889D01*
X173446252Y-140395891D01*
X173720279Y-140455502D01*
X174000000Y-140475508D01*
X174279721Y-140455502D01*
X174553748Y-140395891D01*
X174816502Y-140297889D01*
X175062634Y-140163491D01*
X175287134Y-139995432D01*
X175485432Y-139797134D01*
X175653491Y-139572634D01*
X175787889Y-139326502D01*
X175885891Y-139063748D01*
X175945502Y-138789721D01*
X175960500Y-138580021D01*
X175960500Y-137919979D01*
X175945502Y-137710279D01*
X175885891Y-137436252D01*
X175787889Y-137173498D01*
X175653491Y-136927366D01*
X175485432Y-136702866D01*
X175287134Y-136504568D01*
X175287130Y-136504565D01*
X175287128Y-136504563D01*
X175062633Y-136336508D01*
X174816504Y-136202112D01*
X174816500Y-136202110D01*
X174749749Y-136177213D01*
X174553748Y-136104109D01*
X174279722Y-136044498D01*
X174139860Y-136034494D01*
X174000000Y-136024492D01*
X173999999Y-136024492D01*
X173720277Y-136044498D01*
X173446252Y-136104109D01*
X173183499Y-136202110D01*
X173183495Y-136202112D01*
X172937366Y-136336508D01*
X172712871Y-136504563D01*
X172514563Y-136702871D01*
X172346508Y-136927366D01*
X172212112Y-137173495D01*
X172212110Y-137173499D01*
X172114109Y-137436252D01*
X172054498Y-137710277D01*
X172039500Y-137919974D01*
X172039500Y-138580026D01*
X166360500Y-138580026D01*
X166360500Y-138580021D01*
X166360500Y-137919979D01*
X166345502Y-137710279D01*
X166285891Y-137436252D01*
X166187889Y-137173498D01*
X166053491Y-136927366D01*
X165885432Y-136702866D01*
X165687134Y-136504568D01*
X165687130Y-136504565D01*
X165687128Y-136504563D01*
X165462633Y-136336508D01*
X165216504Y-136202112D01*
X165216500Y-136202110D01*
X165149749Y-136177213D01*
X164953748Y-136104109D01*
X164679722Y-136044498D01*
X164539860Y-136034494D01*
X164400000Y-136024492D01*
X164399999Y-136024492D01*
X164120277Y-136044498D01*
X163846252Y-136104109D01*
X163583499Y-136202110D01*
X163583495Y-136202112D01*
X163337366Y-136336508D01*
X163112871Y-136504563D01*
X162914563Y-136702871D01*
X162746508Y-136927366D01*
X162612112Y-137173495D01*
X162612110Y-137173499D01*
X162514109Y-137436252D01*
X162454498Y-137710277D01*
X162439500Y-137919974D01*
X162439500Y-138580026D01*
X148404694Y-138580026D01*
X148559448Y-138353706D01*
X148724921Y-138040098D01*
X148834300Y-137759160D01*
X148886534Y-137677242D01*
X148966141Y-137621548D01*
X149061001Y-137600557D01*
X149066334Y-137600500D01*
X160210368Y-137600500D01*
X160220475Y-137600911D01*
X160242536Y-137602706D01*
X160273167Y-137605201D01*
X160353392Y-137594270D01*
X160433910Y-137585514D01*
X160445217Y-137583024D01*
X160456461Y-137580227D01*
X160456468Y-137580227D01*
X160532486Y-137552299D01*
X160609221Y-137526444D01*
X160609230Y-137526438D01*
X160619754Y-137521570D01*
X160630108Y-137516434D01*
X160630116Y-137516432D01*
X160698353Y-137472815D01*
X160767736Y-137431070D01*
X160767742Y-137431063D01*
X160776981Y-137424041D01*
X160785987Y-137416802D01*
X160843249Y-137359539D01*
X160902046Y-137303844D01*
X160910786Y-137293554D01*
X160911519Y-137294176D01*
X160925314Y-137277472D01*
X163529357Y-134673430D01*
X163610140Y-134619454D01*
X163705428Y-134600500D01*
X168660368Y-134600500D01*
X168670475Y-134600911D01*
X168692536Y-134602706D01*
X168723167Y-134605201D01*
X168803392Y-134594270D01*
X168883910Y-134585514D01*
X168895217Y-134583024D01*
X168906461Y-134580227D01*
X168906468Y-134580227D01*
X168982486Y-134552299D01*
X169059221Y-134526444D01*
X169059230Y-134526438D01*
X169069754Y-134521570D01*
X169080108Y-134516434D01*
X169080116Y-134516432D01*
X169148353Y-134472815D01*
X169217736Y-134431070D01*
X169217742Y-134431063D01*
X169226981Y-134424041D01*
X169235987Y-134416802D01*
X169293249Y-134359539D01*
X169307698Y-134345852D01*
X169352041Y-134303849D01*
X169352041Y-134303848D01*
X169352046Y-134303844D01*
X169360786Y-134293554D01*
X169361519Y-134294176D01*
X169375314Y-134277472D01*
X171329357Y-132323428D01*
X171410140Y-132269453D01*
X171505428Y-132250499D01*
X172639361Y-132250499D01*
X172639361Y-132250498D01*
X172756762Y-132235044D01*
X172902841Y-132174536D01*
X173028282Y-132078282D01*
X173124536Y-131952841D01*
X173185044Y-131806762D01*
X173200500Y-131689361D01*
X173200499Y-129810640D01*
X173185044Y-129693238D01*
X173124536Y-129547159D01*
X173057582Y-129459902D01*
X173028286Y-129421723D01*
X173028285Y-129421722D01*
X173028282Y-129421718D01*
X173028277Y-129421714D01*
X173028276Y-129421713D01*
X172902844Y-129325466D01*
X172902843Y-129325465D01*
X172902841Y-129325464D01*
X172756762Y-129264956D01*
X172756760Y-129264955D01*
X172639362Y-129249500D01*
X170760639Y-129249500D01*
X170760637Y-129249501D01*
X170643238Y-129264955D01*
X170562608Y-129298354D01*
X170497159Y-129325464D01*
X170451081Y-129360821D01*
X170363945Y-129403791D01*
X170266998Y-129410145D01*
X170174999Y-129378915D01*
X170101954Y-129314856D01*
X170058984Y-129227720D01*
X170050500Y-129163275D01*
X170050500Y-128739632D01*
X170050911Y-128729525D01*
X170052610Y-128708643D01*
X170055201Y-128676833D01*
X170044270Y-128596607D01*
X170035514Y-128516090D01*
X170035513Y-128516087D01*
X170033025Y-128504784D01*
X170030227Y-128493533D01*
X170028877Y-128489859D01*
X170002294Y-128417499D01*
X169994569Y-128394571D01*
X169976444Y-128340778D01*
X169971555Y-128330212D01*
X169966434Y-128319885D01*
X169922806Y-128251631D01*
X169881071Y-128182265D01*
X169874063Y-128173047D01*
X169866804Y-128164015D01*
X169809539Y-128106750D01*
X169753851Y-128047961D01*
X169743560Y-128039220D01*
X169744178Y-128038491D01*
X169727480Y-128024691D01*
X168379412Y-126676622D01*
X168372555Y-126669184D01*
X168338334Y-126628897D01*
X168290002Y-126592156D01*
X168273891Y-126579909D01*
X168258483Y-126567524D01*
X168210756Y-126529159D01*
X168201015Y-126522933D01*
X168191063Y-126516945D01*
X168117561Y-126482939D01*
X168045019Y-126446963D01*
X168034102Y-126442952D01*
X168023172Y-126439269D01*
X167944073Y-126421858D01*
X167865491Y-126402314D01*
X167854087Y-126400760D01*
X167842500Y-126399500D01*
X167842497Y-126399500D01*
X167842493Y-126399500D01*
X167761532Y-126399500D01*
X167721031Y-126398403D01*
X167680568Y-126397307D01*
X167680567Y-126397307D01*
X167680566Y-126397307D01*
X167667110Y-126398403D01*
X167667032Y-126397449D01*
X167645466Y-126399500D01*
X129539632Y-126399500D01*
X129529525Y-126399089D01*
X129476835Y-126394799D01*
X129476831Y-126394799D01*
X129396623Y-126405727D01*
X129316087Y-126414486D01*
X129304850Y-126416959D01*
X129293524Y-126419776D01*
X129217531Y-126447694D01*
X129140780Y-126473555D01*
X129130212Y-126478445D01*
X129119884Y-126483567D01*
X129084024Y-126506489D01*
X129051658Y-126527177D01*
X128982263Y-126568930D01*
X128982264Y-126568930D01*
X128973042Y-126575940D01*
X128964011Y-126583200D01*
X128906769Y-126640442D01*
X128847962Y-126696147D01*
X128839224Y-126706435D01*
X128838498Y-126705819D01*
X128824694Y-126722516D01*
X125720641Y-129826570D01*
X125639859Y-129880546D01*
X125544571Y-129899500D01*
X123564623Y-129899500D01*
X123469335Y-129880546D01*
X123388553Y-129826570D01*
X123334577Y-129745788D01*
X123327810Y-129727445D01*
X123293965Y-129623280D01*
X123293961Y-129623270D01*
X123146669Y-129300744D01*
X123146667Y-129300740D01*
X123146664Y-129300734D01*
X122985760Y-129033905D01*
X122963559Y-128997088D01*
X122929864Y-128953392D01*
X122747029Y-128716287D01*
X122499905Y-128462003D01*
X122225405Y-128237545D01*
X122012160Y-128100500D01*
X121927111Y-128045842D01*
X121927106Y-128045839D01*
X121608911Y-127889394D01*
X121608906Y-127889392D01*
X121608904Y-127889391D01*
X121608896Y-127889388D01*
X121274940Y-127770232D01*
X120929573Y-127689921D01*
X120929564Y-127689919D01*
X120577294Y-127649500D01*
X120577293Y-127649500D01*
X118311424Y-127649500D01*
X118311422Y-127649500D01*
X118045992Y-127664677D01*
X117696599Y-127725143D01*
X117356379Y-127825040D01*
X117356373Y-127825042D01*
X117029763Y-127963068D01*
X117029758Y-127963071D01*
X116721006Y-128137431D01*
X116434143Y-128345849D01*
X116434139Y-128345852D01*
X116189216Y-128570641D01*
X116172901Y-128585615D01*
X116135194Y-128629130D01*
X115940700Y-128853586D01*
X115740557Y-129146286D01*
X115740553Y-129146292D01*
X115575082Y-129459894D01*
X115446434Y-129790320D01*
X115446431Y-129790328D01*
X115446432Y-129790328D01*
X115359777Y-130120000D01*
X115356289Y-130133269D01*
X115305827Y-130484233D01*
X115305826Y-130484239D01*
X115295497Y-130845794D01*
X115293704Y-130845742D01*
X115279365Y-130930426D01*
X115227721Y-131012719D01*
X115148517Y-131068984D01*
X115053810Y-131090656D01*
X114958019Y-131074436D01*
X114875726Y-131022792D01*
X114870617Y-131017828D01*
X112423430Y-128570641D01*
X112369454Y-128489859D01*
X112350500Y-128394571D01*
X112350500Y-123408008D01*
X188400000Y-123408008D01*
X188410609Y-123527328D01*
X188410610Y-123527333D01*
X188466557Y-123722859D01*
X188466560Y-123722867D01*
X188560719Y-123903126D01*
X188560723Y-123903132D01*
X188689245Y-124060750D01*
X188689254Y-124060759D01*
X188841852Y-124185187D01*
X188903724Y-124260093D01*
X188932221Y-124352975D01*
X188923004Y-124449692D01*
X188912526Y-124478187D01*
X188873389Y-124567409D01*
X188814380Y-124800433D01*
X188794529Y-125040000D01*
X188814380Y-125279566D01*
X188873389Y-125512590D01*
X188969949Y-125732725D01*
X188969950Y-125732727D01*
X188969951Y-125732728D01*
X189101429Y-125933969D01*
X189264236Y-126110825D01*
X189267675Y-126113502D01*
X189269747Y-126115897D01*
X189271812Y-126117798D01*
X189271595Y-126118033D01*
X189331229Y-126186982D01*
X189361826Y-126279193D01*
X189354807Y-126376094D01*
X189311239Y-126462933D01*
X189267694Y-126506483D01*
X189264244Y-126509168D01*
X189264235Y-126509176D01*
X189101428Y-126686032D01*
X188969950Y-126887272D01*
X188969949Y-126887274D01*
X188873389Y-127107409D01*
X188814380Y-127340433D01*
X188794529Y-127580000D01*
X188814380Y-127819566D01*
X188873389Y-128052590D01*
X188969949Y-128272725D01*
X188969950Y-128272727D01*
X189017726Y-128345853D01*
X189101429Y-128473969D01*
X189264236Y-128650825D01*
X189267086Y-128653043D01*
X189267683Y-128653508D01*
X189269757Y-128655906D01*
X189271812Y-128657798D01*
X189271595Y-128658032D01*
X189331235Y-128726994D01*
X189361828Y-128819207D01*
X189354803Y-128916108D01*
X189311231Y-129002944D01*
X189267683Y-129046492D01*
X189264243Y-129049169D01*
X189264235Y-129049176D01*
X189101428Y-129226032D01*
X188969950Y-129427272D01*
X188969949Y-129427274D01*
X188873389Y-129647409D01*
X188814380Y-129880433D01*
X188794529Y-130120000D01*
X188814380Y-130359566D01*
X188873389Y-130592590D01*
X188969949Y-130812725D01*
X188969950Y-130812727D01*
X188969951Y-130812728D01*
X189101429Y-131013969D01*
X189264236Y-131190825D01*
X189265705Y-131191968D01*
X189267683Y-131193508D01*
X189269757Y-131195906D01*
X189271812Y-131197798D01*
X189271595Y-131198032D01*
X189331235Y-131266994D01*
X189361828Y-131359207D01*
X189354803Y-131456108D01*
X189311231Y-131542944D01*
X189267683Y-131586492D01*
X189264243Y-131589169D01*
X189264235Y-131589176D01*
X189101428Y-131766032D01*
X188969950Y-131967272D01*
X188969949Y-131967274D01*
X188873389Y-132187409D01*
X188814380Y-132420433D01*
X188794529Y-132660000D01*
X188814380Y-132899566D01*
X188873389Y-133132590D01*
X188969949Y-133352725D01*
X188969950Y-133352727D01*
X188969951Y-133352728D01*
X189101429Y-133553969D01*
X189264236Y-133730825D01*
X189453933Y-133878472D01*
X189665344Y-133992882D01*
X189892703Y-134070934D01*
X190129808Y-134110500D01*
X190370192Y-134110500D01*
X190607297Y-134070934D01*
X190834656Y-133992882D01*
X191046067Y-133878472D01*
X191235764Y-133730825D01*
X191398571Y-133553969D01*
X191530049Y-133352728D01*
X191626610Y-133132591D01*
X191685620Y-132899563D01*
X191705471Y-132660000D01*
X191685620Y-132420437D01*
X191626610Y-132187409D01*
X191593891Y-132112817D01*
X191530050Y-131967274D01*
X191530049Y-131967272D01*
X191398571Y-131766031D01*
X191235764Y-131589175D01*
X191232322Y-131586496D01*
X191230250Y-131584100D01*
X191228188Y-131582202D01*
X191228404Y-131581966D01*
X191168769Y-131513015D01*
X191138173Y-131420803D01*
X191145193Y-131323902D01*
X191188762Y-131237064D01*
X191232321Y-131193504D01*
X191235764Y-131190825D01*
X191398571Y-131013969D01*
X191530049Y-130812728D01*
X191626610Y-130592591D01*
X191685620Y-130359563D01*
X191705471Y-130120000D01*
X191685620Y-129880437D01*
X191626610Y-129647409D01*
X191603566Y-129594875D01*
X191530050Y-129427274D01*
X191530049Y-129427272D01*
X191503077Y-129385989D01*
X191398571Y-129226031D01*
X191235764Y-129049175D01*
X191232322Y-129046496D01*
X191230250Y-129044100D01*
X191228188Y-129042202D01*
X191228404Y-129041966D01*
X191168769Y-128973015D01*
X191138173Y-128880803D01*
X191145193Y-128783902D01*
X191188762Y-128697064D01*
X191232321Y-128653504D01*
X191235764Y-128650825D01*
X191398571Y-128473969D01*
X191530049Y-128272728D01*
X191626610Y-128052591D01*
X191685620Y-127819563D01*
X191705471Y-127580000D01*
X191685620Y-127340437D01*
X191626610Y-127107409D01*
X191530049Y-126887272D01*
X191398571Y-126686031D01*
X191235764Y-126509175D01*
X191235755Y-126509168D01*
X191235752Y-126509165D01*
X191232314Y-126506489D01*
X191230240Y-126504091D01*
X191228188Y-126502202D01*
X191228403Y-126501967D01*
X191168762Y-126433002D01*
X191138171Y-126340789D01*
X191145197Y-126243888D01*
X191188770Y-126157053D01*
X191232328Y-126113499D01*
X191235764Y-126110825D01*
X191398571Y-125933969D01*
X191530049Y-125732728D01*
X191626610Y-125512591D01*
X191685620Y-125279563D01*
X191705471Y-125040000D01*
X191685620Y-124800437D01*
X191626610Y-124567409D01*
X191587473Y-124478186D01*
X191566554Y-124383313D01*
X191583534Y-124287653D01*
X191635829Y-124205773D01*
X191658147Y-124185186D01*
X191810751Y-124060753D01*
X191810754Y-124060750D01*
X191939276Y-123903132D01*
X191939280Y-123903126D01*
X192033439Y-123722867D01*
X192033442Y-123722859D01*
X192089389Y-123527333D01*
X192089390Y-123527328D01*
X192100000Y-123408008D01*
X192100000Y-122750000D01*
X190999000Y-122750000D01*
X190903712Y-122731046D01*
X190822930Y-122677070D01*
X190768954Y-122596288D01*
X190750000Y-122501000D01*
X190750000Y-122499000D01*
X190768954Y-122403712D01*
X190822930Y-122322930D01*
X190903712Y-122268954D01*
X190999000Y-122250000D01*
X192099999Y-122250000D01*
X192100000Y-122249999D01*
X192100000Y-121591992D01*
X192089390Y-121472671D01*
X192089389Y-121472666D01*
X192033442Y-121277140D01*
X192033439Y-121277132D01*
X191939280Y-121096873D01*
X191939276Y-121096867D01*
X191810754Y-120939249D01*
X191810750Y-120939245D01*
X191653132Y-120810723D01*
X191653126Y-120810719D01*
X191472867Y-120716560D01*
X191472859Y-120716557D01*
X191277333Y-120660610D01*
X191277328Y-120660609D01*
X191158008Y-120650000D01*
X190500001Y-120650000D01*
X190500000Y-120650001D01*
X190500000Y-121751000D01*
X190481046Y-121846288D01*
X190427070Y-121927070D01*
X190346288Y-121981046D01*
X190251000Y-122000000D01*
X190249000Y-122000000D01*
X190153712Y-121981046D01*
X190072930Y-121927070D01*
X190018954Y-121846288D01*
X190000000Y-121751000D01*
X190000000Y-120650001D01*
X189999999Y-120650000D01*
X189341992Y-120650000D01*
X189222671Y-120660609D01*
X189222666Y-120660610D01*
X189027140Y-120716557D01*
X189027132Y-120716560D01*
X188846873Y-120810719D01*
X188846867Y-120810723D01*
X188689249Y-120939245D01*
X188689245Y-120939249D01*
X188560723Y-121096867D01*
X188560719Y-121096873D01*
X188466560Y-121277132D01*
X188466557Y-121277140D01*
X188410610Y-121472666D01*
X188410609Y-121472671D01*
X188400000Y-121591992D01*
X188400000Y-122249998D01*
X188400001Y-122250000D01*
X189501000Y-122250000D01*
X189596288Y-122268954D01*
X189677070Y-122322930D01*
X189731046Y-122403712D01*
X189750000Y-122499000D01*
X189750000Y-122501000D01*
X189731046Y-122596288D01*
X189677070Y-122677070D01*
X189596288Y-122731046D01*
X189501000Y-122750000D01*
X188400000Y-122750000D01*
X188400000Y-123408008D01*
X112350500Y-123408008D01*
X112350500Y-116998008D01*
X158100000Y-116998008D01*
X158110609Y-117117328D01*
X158110610Y-117117333D01*
X158166557Y-117312859D01*
X158166560Y-117312867D01*
X158260719Y-117493126D01*
X158260723Y-117493132D01*
X158389245Y-117650750D01*
X158389249Y-117650754D01*
X158546867Y-117779276D01*
X158546873Y-117779280D01*
X158727132Y-117873439D01*
X158727140Y-117873442D01*
X158922666Y-117929389D01*
X158922671Y-117929390D01*
X159041992Y-117940000D01*
X159749999Y-117940000D01*
X159750000Y-117939999D01*
X159750000Y-116739000D01*
X159768954Y-116643712D01*
X159822930Y-116562930D01*
X159903712Y-116508954D01*
X159999000Y-116490000D01*
X160001000Y-116490000D01*
X160096288Y-116508954D01*
X160177070Y-116562930D01*
X160231046Y-116643712D01*
X160250000Y-116739000D01*
X160250000Y-117939999D01*
X160250001Y-117940000D01*
X160958008Y-117940000D01*
X161077328Y-117929390D01*
X161077333Y-117929389D01*
X161272859Y-117873442D01*
X161272867Y-117873439D01*
X161453126Y-117779280D01*
X161453132Y-117779276D01*
X161610750Y-117650754D01*
X161610754Y-117650750D01*
X161739276Y-117493132D01*
X161739280Y-117493126D01*
X161833439Y-117312867D01*
X161833442Y-117312859D01*
X161889389Y-117117333D01*
X161889390Y-117117328D01*
X161900000Y-116998008D01*
X161900000Y-116290001D01*
X161899999Y-116290000D01*
X160701034Y-116290000D01*
X160605746Y-116271046D01*
X160524964Y-116217070D01*
X160470988Y-116136288D01*
X160452723Y-116059503D01*
X160452572Y-116057499D01*
X160464395Y-115961066D01*
X160512221Y-115876498D01*
X160588769Y-115816669D01*
X160682386Y-115790688D01*
X160700885Y-115790000D01*
X161899999Y-115790000D01*
X161900000Y-115789999D01*
X161900000Y-115081992D01*
X161889390Y-114962671D01*
X161889389Y-114962666D01*
X161833442Y-114767140D01*
X161833439Y-114767132D01*
X161739280Y-114586873D01*
X161739276Y-114586867D01*
X161610754Y-114429249D01*
X161610750Y-114429245D01*
X161477687Y-114320745D01*
X161415816Y-114245838D01*
X161387319Y-114152956D01*
X161396537Y-114056240D01*
X161407008Y-114027760D01*
X161424063Y-113988881D01*
X161485108Y-113747821D01*
X161505643Y-113500000D01*
X161485108Y-113252179D01*
X161424063Y-113011119D01*
X161324173Y-112783393D01*
X161270997Y-112702001D01*
X161188169Y-112575221D01*
X161188163Y-112575214D01*
X161019751Y-112392269D01*
X161019747Y-112392265D01*
X161019744Y-112392262D01*
X161019738Y-112392257D01*
X160823514Y-112239529D01*
X160823510Y-112239526D01*
X160823509Y-112239526D01*
X160746502Y-112197852D01*
X160604811Y-112121172D01*
X160369621Y-112040430D01*
X160369610Y-112040428D01*
X160124335Y-111999500D01*
X159875665Y-111999500D01*
X159630389Y-112040428D01*
X159630378Y-112040430D01*
X159395188Y-112121172D01*
X159176485Y-112239529D01*
X158980261Y-112392257D01*
X158980248Y-112392269D01*
X158811836Y-112575214D01*
X158811830Y-112575221D01*
X158675828Y-112783391D01*
X158675825Y-112783396D01*
X158575936Y-113011121D01*
X158575935Y-113011125D01*
X158514894Y-113252168D01*
X158514892Y-113252176D01*
X158494357Y-113500000D01*
X158514892Y-113747823D01*
X158514894Y-113747831D01*
X158541772Y-113853967D01*
X158575937Y-113988881D01*
X158592985Y-114027747D01*
X158613904Y-114122622D01*
X158596923Y-114218281D01*
X158544627Y-114300161D01*
X158522312Y-114320744D01*
X158389255Y-114429239D01*
X158389245Y-114429249D01*
X158260723Y-114586867D01*
X158260719Y-114586873D01*
X158166560Y-114767132D01*
X158166557Y-114767140D01*
X158110610Y-114962666D01*
X158110609Y-114962671D01*
X158100000Y-115081992D01*
X158100000Y-115789999D01*
X158100001Y-115790000D01*
X159298966Y-115790000D01*
X159394254Y-115808954D01*
X159475036Y-115862930D01*
X159529012Y-115943712D01*
X159547276Y-116020496D01*
X159547403Y-116022179D01*
X159547427Y-116022501D01*
X159535605Y-116118934D01*
X159487779Y-116203502D01*
X159411231Y-116263331D01*
X159317614Y-116289312D01*
X159299115Y-116290000D01*
X158100001Y-116290000D01*
X158100000Y-116290001D01*
X158100000Y-116998008D01*
X112350500Y-116998008D01*
X112350500Y-110233008D01*
X158100000Y-110233008D01*
X158110609Y-110352328D01*
X158110610Y-110352333D01*
X158166557Y-110547859D01*
X158166560Y-110547867D01*
X158260719Y-110728126D01*
X158260723Y-110728132D01*
X158389245Y-110885750D01*
X158389249Y-110885754D01*
X158546867Y-111014276D01*
X158546873Y-111014280D01*
X158727132Y-111108439D01*
X158727140Y-111108442D01*
X158922666Y-111164389D01*
X158922671Y-111164390D01*
X159041992Y-111175000D01*
X159749999Y-111175000D01*
X159750000Y-111174999D01*
X159750000Y-109974000D01*
X159768954Y-109878712D01*
X159822930Y-109797930D01*
X159903712Y-109743954D01*
X159999000Y-109725000D01*
X160001000Y-109725000D01*
X160096288Y-109743954D01*
X160177070Y-109797930D01*
X160231046Y-109878712D01*
X160250000Y-109974000D01*
X160250000Y-111174999D01*
X160250001Y-111175000D01*
X160958008Y-111175000D01*
X161077328Y-111164390D01*
X161077333Y-111164389D01*
X161272859Y-111108442D01*
X161272867Y-111108439D01*
X161453126Y-111014280D01*
X161453132Y-111014276D01*
X161610750Y-110885754D01*
X161610754Y-110885750D01*
X161739276Y-110728132D01*
X161739280Y-110728126D01*
X161833439Y-110547867D01*
X161833442Y-110547859D01*
X161889389Y-110352333D01*
X161889390Y-110352328D01*
X161900000Y-110233008D01*
X161900000Y-109525000D01*
X160701034Y-109525000D01*
X160605746Y-109506046D01*
X160524964Y-109452070D01*
X160470988Y-109371288D01*
X160452723Y-109294503D01*
X160452572Y-109292499D01*
X160464395Y-109196066D01*
X160512221Y-109111498D01*
X160588769Y-109051669D01*
X160682386Y-109025688D01*
X160700885Y-109025000D01*
X161899999Y-109025000D01*
X161900000Y-109024999D01*
X161900000Y-108316992D01*
X161889390Y-108197671D01*
X161889389Y-108197666D01*
X161833442Y-108002140D01*
X161833439Y-108002132D01*
X161739280Y-107821873D01*
X161739276Y-107821867D01*
X161610754Y-107664249D01*
X161610750Y-107664245D01*
X161477687Y-107555745D01*
X161415816Y-107480838D01*
X161387319Y-107387956D01*
X161396537Y-107291240D01*
X161407008Y-107262760D01*
X161424063Y-107223881D01*
X161485108Y-106982821D01*
X161505643Y-106735000D01*
X161485108Y-106487179D01*
X161424063Y-106246119D01*
X161324173Y-106018393D01*
X161255271Y-105912930D01*
X161188169Y-105810221D01*
X161188163Y-105810214D01*
X161019751Y-105627269D01*
X161019747Y-105627265D01*
X161019744Y-105627262D01*
X161019738Y-105627257D01*
X160823514Y-105474529D01*
X160823510Y-105474526D01*
X160823509Y-105474526D01*
X160707766Y-105411889D01*
X160604811Y-105356172D01*
X160369621Y-105275430D01*
X160369610Y-105275428D01*
X160124335Y-105234500D01*
X159875665Y-105234500D01*
X159630389Y-105275428D01*
X159630378Y-105275430D01*
X159395188Y-105356172D01*
X159176485Y-105474529D01*
X158980261Y-105627257D01*
X158980248Y-105627269D01*
X158811836Y-105810214D01*
X158811830Y-105810221D01*
X158675828Y-106018391D01*
X158675825Y-106018396D01*
X158575936Y-106246121D01*
X158575935Y-106246125D01*
X158514894Y-106487168D01*
X158514892Y-106487176D01*
X158494357Y-106735000D01*
X158514892Y-106982823D01*
X158514894Y-106982831D01*
X158552416Y-107131000D01*
X158575937Y-107223881D01*
X158592985Y-107262747D01*
X158613904Y-107357622D01*
X158596923Y-107453281D01*
X158544627Y-107535161D01*
X158522312Y-107555744D01*
X158389255Y-107664239D01*
X158389245Y-107664249D01*
X158260723Y-107821867D01*
X158260719Y-107821873D01*
X158166560Y-108002132D01*
X158166557Y-108002140D01*
X158110610Y-108197666D01*
X158110609Y-108197671D01*
X158100000Y-108316992D01*
X158100000Y-109024999D01*
X158100001Y-109025000D01*
X159298966Y-109025000D01*
X159394254Y-109043954D01*
X159475036Y-109097930D01*
X159529012Y-109178712D01*
X159547276Y-109255496D01*
X159547403Y-109257179D01*
X159547427Y-109257501D01*
X159535605Y-109353934D01*
X159487779Y-109438502D01*
X159411231Y-109498331D01*
X159317614Y-109524312D01*
X159299115Y-109525000D01*
X158100000Y-109525000D01*
X158100000Y-110233008D01*
X112350500Y-110233008D01*
X112350500Y-108958008D01*
X126600000Y-108958008D01*
X126610609Y-109077328D01*
X126610610Y-109077333D01*
X126666557Y-109272859D01*
X126666560Y-109272867D01*
X126760719Y-109453126D01*
X126760723Y-109453132D01*
X126889245Y-109610750D01*
X126889249Y-109610754D01*
X127046867Y-109739276D01*
X127046873Y-109739280D01*
X127227132Y-109833439D01*
X127227140Y-109833442D01*
X127422666Y-109889389D01*
X127422671Y-109889390D01*
X127541992Y-109900000D01*
X128249999Y-109900000D01*
X128249999Y-109899999D01*
X128250000Y-108699000D01*
X128268954Y-108603712D01*
X128322930Y-108522930D01*
X128403712Y-108468954D01*
X128499000Y-108450000D01*
X128501000Y-108450000D01*
X128596288Y-108468954D01*
X128677070Y-108522930D01*
X128731046Y-108603712D01*
X128750000Y-108699000D01*
X128750000Y-109899999D01*
X128750001Y-109900000D01*
X129458008Y-109900000D01*
X129577328Y-109889390D01*
X129577333Y-109889389D01*
X129772859Y-109833442D01*
X129772867Y-109833439D01*
X129953126Y-109739280D01*
X129953132Y-109739276D01*
X130110750Y-109610754D01*
X130110753Y-109610751D01*
X130219783Y-109477038D01*
X130294690Y-109415166D01*
X130387572Y-109386669D01*
X130484288Y-109395886D01*
X130493567Y-109398869D01*
X130670386Y-109459571D01*
X130915665Y-109500500D01*
X131164335Y-109500500D01*
X131409614Y-109459571D01*
X131409618Y-109459569D01*
X131409621Y-109459569D01*
X131538961Y-109415166D01*
X131644810Y-109378828D01*
X131863509Y-109260474D01*
X132059744Y-109107738D01*
X132197580Y-108958008D01*
X133060000Y-108958008D01*
X133070609Y-109077328D01*
X133070610Y-109077333D01*
X133126557Y-109272859D01*
X133126560Y-109272867D01*
X133220719Y-109453126D01*
X133220723Y-109453132D01*
X133349245Y-109610750D01*
X133349249Y-109610754D01*
X133506867Y-109739276D01*
X133506873Y-109739280D01*
X133687132Y-109833439D01*
X133687140Y-109833442D01*
X133882666Y-109889389D01*
X133882671Y-109889390D01*
X134001992Y-109900000D01*
X134709999Y-109900000D01*
X134710000Y-109899999D01*
X134710000Y-108699000D01*
X134728954Y-108603712D01*
X134782930Y-108522930D01*
X134863712Y-108468954D01*
X134959000Y-108450000D01*
X134961000Y-108450000D01*
X135056288Y-108468954D01*
X135137070Y-108522930D01*
X135191046Y-108603712D01*
X135210000Y-108699000D01*
X135210000Y-109899999D01*
X135210001Y-109900000D01*
X135918008Y-109900000D01*
X136037328Y-109889390D01*
X136037333Y-109889389D01*
X136232859Y-109833442D01*
X136232867Y-109833439D01*
X136413126Y-109739280D01*
X136413132Y-109739276D01*
X136570750Y-109610754D01*
X136570753Y-109610751D01*
X136679783Y-109477038D01*
X136754690Y-109415166D01*
X136847572Y-109386669D01*
X136944288Y-109395886D01*
X136953567Y-109398869D01*
X137130386Y-109459571D01*
X137375665Y-109500500D01*
X137624335Y-109500500D01*
X137869614Y-109459571D01*
X137869618Y-109459569D01*
X137869621Y-109459569D01*
X137998961Y-109415166D01*
X138104810Y-109378828D01*
X138323509Y-109260474D01*
X138519744Y-109107738D01*
X138688164Y-108924785D01*
X138824173Y-108716607D01*
X138924063Y-108488881D01*
X138985108Y-108247821D01*
X139005643Y-108000000D01*
X138985108Y-107752179D01*
X138924063Y-107511119D01*
X138824173Y-107283393D01*
X138770997Y-107202001D01*
X138688169Y-107075221D01*
X138688163Y-107075214D01*
X138519751Y-106892269D01*
X138519747Y-106892265D01*
X138519744Y-106892262D01*
X138519738Y-106892257D01*
X138323514Y-106739529D01*
X138323510Y-106739526D01*
X138323509Y-106739526D01*
X138149648Y-106645437D01*
X138104811Y-106621172D01*
X137869621Y-106540430D01*
X137869610Y-106540428D01*
X137624335Y-106499500D01*
X137375665Y-106499500D01*
X137130389Y-106540428D01*
X137130381Y-106540430D01*
X136953610Y-106601115D01*
X136857330Y-106614127D01*
X136763400Y-106589305D01*
X136686119Y-106530426D01*
X136679783Y-106522961D01*
X136570754Y-106389249D01*
X136570750Y-106389245D01*
X136413132Y-106260723D01*
X136413126Y-106260719D01*
X136232867Y-106166560D01*
X136232859Y-106166557D01*
X136037333Y-106110610D01*
X136037328Y-106110609D01*
X135918008Y-106100000D01*
X135210001Y-106100000D01*
X135210000Y-106100001D01*
X135210000Y-107301000D01*
X135191046Y-107396288D01*
X135137070Y-107477070D01*
X135056288Y-107531046D01*
X134961000Y-107550000D01*
X134959000Y-107550000D01*
X134863712Y-107531046D01*
X134782930Y-107477070D01*
X134728954Y-107396288D01*
X134710000Y-107301000D01*
X134710000Y-106100001D01*
X134709999Y-106100000D01*
X134001992Y-106100000D01*
X133882671Y-106110609D01*
X133882666Y-106110610D01*
X133687140Y-106166557D01*
X133687132Y-106166560D01*
X133506873Y-106260719D01*
X133506867Y-106260723D01*
X133349249Y-106389245D01*
X133349245Y-106389249D01*
X133220723Y-106546867D01*
X133220719Y-106546873D01*
X133126560Y-106727132D01*
X133126557Y-106727140D01*
X133070610Y-106922666D01*
X133070609Y-106922671D01*
X133060000Y-107041992D01*
X133060000Y-107749999D01*
X133060001Y-107750000D01*
X134258966Y-107750000D01*
X134354254Y-107768954D01*
X134435036Y-107822930D01*
X134489012Y-107903712D01*
X134507276Y-107980496D01*
X134507403Y-107982179D01*
X134507427Y-107982501D01*
X134495605Y-108078934D01*
X134447779Y-108163502D01*
X134371231Y-108223331D01*
X134277614Y-108249312D01*
X134259115Y-108250000D01*
X133060000Y-108250000D01*
X133060000Y-108958008D01*
X132197580Y-108958008D01*
X132228164Y-108924785D01*
X132364173Y-108716607D01*
X132464063Y-108488881D01*
X132525108Y-108247821D01*
X132545643Y-108000000D01*
X132525108Y-107752179D01*
X132464063Y-107511119D01*
X132364173Y-107283393D01*
X132310997Y-107202001D01*
X132228169Y-107075221D01*
X132228163Y-107075214D01*
X132059751Y-106892269D01*
X132059747Y-106892265D01*
X132059744Y-106892262D01*
X132059738Y-106892257D01*
X131863514Y-106739529D01*
X131863510Y-106739526D01*
X131863509Y-106739526D01*
X131689648Y-106645437D01*
X131644811Y-106621172D01*
X131409621Y-106540430D01*
X131409610Y-106540428D01*
X131164335Y-106499500D01*
X130915665Y-106499500D01*
X130670389Y-106540428D01*
X130670381Y-106540430D01*
X130493610Y-106601115D01*
X130397330Y-106614127D01*
X130303400Y-106589305D01*
X130226119Y-106530426D01*
X130219783Y-106522961D01*
X130110754Y-106389249D01*
X130110750Y-106389245D01*
X129953132Y-106260723D01*
X129953126Y-106260719D01*
X129772867Y-106166560D01*
X129772859Y-106166557D01*
X129577333Y-106110610D01*
X129577328Y-106110609D01*
X129458008Y-106100000D01*
X128750001Y-106100000D01*
X128750000Y-106100001D01*
X128750000Y-107301000D01*
X128731046Y-107396288D01*
X128677070Y-107477070D01*
X128596288Y-107531046D01*
X128501000Y-107550000D01*
X128499000Y-107550000D01*
X128403712Y-107531046D01*
X128322930Y-107477070D01*
X128268954Y-107396288D01*
X128250000Y-107301000D01*
X128249999Y-106100001D01*
X128249999Y-106100000D01*
X127541992Y-106100000D01*
X127422671Y-106110609D01*
X127422666Y-106110610D01*
X127227140Y-106166557D01*
X127227132Y-106166560D01*
X127046873Y-106260719D01*
X127046867Y-106260723D01*
X126889249Y-106389245D01*
X126889245Y-106389249D01*
X126760723Y-106546867D01*
X126760719Y-106546873D01*
X126666560Y-106727132D01*
X126666557Y-106727140D01*
X126610610Y-106922666D01*
X126610609Y-106922671D01*
X126600000Y-107041992D01*
X126600000Y-107749999D01*
X126600001Y-107750000D01*
X127798966Y-107750000D01*
X127894254Y-107768954D01*
X127975036Y-107822930D01*
X128029012Y-107903712D01*
X128047276Y-107980496D01*
X128047403Y-107982179D01*
X128047427Y-107982501D01*
X128035605Y-108078934D01*
X127987779Y-108163502D01*
X127911231Y-108223331D01*
X127817614Y-108249312D01*
X127799115Y-108250000D01*
X126600001Y-108250000D01*
X126600000Y-108250001D01*
X126600000Y-108958008D01*
X112350500Y-108958008D01*
X112350500Y-103708008D01*
X188400000Y-103708008D01*
X188410609Y-103827328D01*
X188410610Y-103827333D01*
X188466557Y-104022859D01*
X188466560Y-104022867D01*
X188560719Y-104203126D01*
X188560722Y-104203130D01*
X188576041Y-104221918D01*
X188621567Y-104307746D01*
X188630783Y-104404463D01*
X188602286Y-104497345D01*
X188601605Y-104498600D01*
X188562879Y-104569523D01*
X188470405Y-104817456D01*
X188470404Y-104817457D01*
X188414152Y-105076043D01*
X188413155Y-105090000D01*
X189501000Y-105090000D01*
X189596288Y-105108954D01*
X189677070Y-105162930D01*
X189731046Y-105243712D01*
X189750000Y-105339000D01*
X189750000Y-105341000D01*
X189731046Y-105436288D01*
X189677070Y-105517070D01*
X189596288Y-105571046D01*
X189501000Y-105590000D01*
X188413155Y-105590000D01*
X188414152Y-105603956D01*
X188470404Y-105862542D01*
X188470405Y-105862543D01*
X188562877Y-106110471D01*
X188562883Y-106110483D01*
X188689705Y-106342740D01*
X188778068Y-106460780D01*
X188819998Y-106548421D01*
X188825199Y-106645437D01*
X188792876Y-106737057D01*
X188778068Y-106759220D01*
X188689705Y-106877259D01*
X188562883Y-107109516D01*
X188562877Y-107109528D01*
X188470405Y-107357456D01*
X188470404Y-107357457D01*
X188414152Y-107616043D01*
X188413155Y-107630000D01*
X189501000Y-107630000D01*
X189596288Y-107648954D01*
X189677070Y-107702930D01*
X189731046Y-107783712D01*
X189750000Y-107879000D01*
X189750000Y-107881000D01*
X189731046Y-107976288D01*
X189677070Y-108057070D01*
X189596288Y-108111046D01*
X189501000Y-108130000D01*
X188413155Y-108130000D01*
X188414152Y-108143956D01*
X188470404Y-108402542D01*
X188470405Y-108402543D01*
X188562877Y-108650471D01*
X188562883Y-108650483D01*
X188689705Y-108882741D01*
X188848285Y-109094579D01*
X189028908Y-109275202D01*
X189082884Y-109355984D01*
X189101838Y-109451272D01*
X189082884Y-109546560D01*
X189061293Y-109587461D01*
X188969952Y-109727269D01*
X188969949Y-109727274D01*
X188873389Y-109947409D01*
X188814380Y-110180433D01*
X188794529Y-110420000D01*
X188814380Y-110659566D01*
X188873389Y-110892590D01*
X188969949Y-111112725D01*
X188969950Y-111112727D01*
X189039713Y-111219506D01*
X189101429Y-111313969D01*
X189264236Y-111490825D01*
X189267086Y-111493043D01*
X189267683Y-111493508D01*
X189269757Y-111495906D01*
X189271812Y-111497798D01*
X189271595Y-111498032D01*
X189331235Y-111566994D01*
X189361828Y-111659207D01*
X189354803Y-111756108D01*
X189311231Y-111842944D01*
X189267683Y-111886492D01*
X189264243Y-111889169D01*
X189264235Y-111889176D01*
X189101428Y-112066032D01*
X188969950Y-112267272D01*
X188969949Y-112267274D01*
X188873389Y-112487409D01*
X188814380Y-112720433D01*
X188794529Y-112960000D01*
X188814380Y-113199566D01*
X188873389Y-113432590D01*
X188969949Y-113652725D01*
X188969950Y-113652727D01*
X188969951Y-113652728D01*
X189101429Y-113853969D01*
X189264236Y-114030825D01*
X189267086Y-114033043D01*
X189267683Y-114033508D01*
X189269757Y-114035906D01*
X189271812Y-114037798D01*
X189271595Y-114038032D01*
X189331235Y-114106994D01*
X189361828Y-114199207D01*
X189354803Y-114296108D01*
X189311231Y-114382944D01*
X189267683Y-114426492D01*
X189264243Y-114429169D01*
X189264235Y-114429176D01*
X189101428Y-114606032D01*
X188969950Y-114807272D01*
X188969949Y-114807274D01*
X188873389Y-115027409D01*
X188814380Y-115260433D01*
X188794529Y-115500000D01*
X188814380Y-115739566D01*
X188873389Y-115972590D01*
X188969949Y-116192725D01*
X188969950Y-116192727D01*
X189016078Y-116263331D01*
X189101429Y-116393969D01*
X189264236Y-116570825D01*
X189453933Y-116718472D01*
X189665344Y-116832882D01*
X189892703Y-116910934D01*
X190129808Y-116950500D01*
X190370192Y-116950500D01*
X190607297Y-116910934D01*
X190834656Y-116832882D01*
X191046067Y-116718472D01*
X191235764Y-116570825D01*
X191398571Y-116393969D01*
X191530049Y-116192728D01*
X191626610Y-115972591D01*
X191685620Y-115739563D01*
X191705471Y-115500000D01*
X191685620Y-115260437D01*
X191626610Y-115027409D01*
X191530049Y-114807272D01*
X191398571Y-114606031D01*
X191235764Y-114429175D01*
X191232322Y-114426496D01*
X191230250Y-114424100D01*
X191228188Y-114422202D01*
X191228404Y-114421966D01*
X191168769Y-114353015D01*
X191138173Y-114260803D01*
X191145193Y-114163902D01*
X191188762Y-114077064D01*
X191232321Y-114033504D01*
X191235764Y-114030825D01*
X191398571Y-113853969D01*
X191530049Y-113652728D01*
X191626610Y-113432591D01*
X191685620Y-113199563D01*
X191705471Y-112960000D01*
X191685620Y-112720437D01*
X191626610Y-112487409D01*
X191584875Y-112392262D01*
X191530050Y-112267274D01*
X191530049Y-112267272D01*
X191511923Y-112239529D01*
X191398571Y-112066031D01*
X191235764Y-111889175D01*
X191232322Y-111886496D01*
X191230250Y-111884100D01*
X191228188Y-111882202D01*
X191228404Y-111881966D01*
X191168769Y-111813015D01*
X191138173Y-111720803D01*
X191145193Y-111623902D01*
X191188762Y-111537064D01*
X191232321Y-111493504D01*
X191235764Y-111490825D01*
X191398571Y-111313969D01*
X191530049Y-111112728D01*
X191626610Y-110892591D01*
X191685620Y-110659563D01*
X191705471Y-110420000D01*
X191685620Y-110180437D01*
X191626610Y-109947409D01*
X191626609Y-109947409D01*
X191530050Y-109727274D01*
X191530048Y-109727270D01*
X191480222Y-109651007D01*
X191438705Y-109587460D01*
X191402456Y-109497326D01*
X191403459Y-109400176D01*
X191441563Y-109310806D01*
X191471091Y-109275203D01*
X191651703Y-109094591D01*
X191651714Y-109094579D01*
X191810294Y-108882741D01*
X191937116Y-108650483D01*
X191937122Y-108650471D01*
X192029594Y-108402543D01*
X192029595Y-108402542D01*
X192085847Y-108143956D01*
X192086845Y-108130000D01*
X190999000Y-108130000D01*
X190903712Y-108111046D01*
X190822930Y-108057070D01*
X190768954Y-107976288D01*
X190750000Y-107881000D01*
X190750000Y-107879000D01*
X190768954Y-107783712D01*
X190822930Y-107702930D01*
X190903712Y-107648954D01*
X190999000Y-107630000D01*
X192086845Y-107630000D01*
X192085847Y-107616043D01*
X192029595Y-107357457D01*
X192029594Y-107357456D01*
X191937122Y-107109528D01*
X191937116Y-107109516D01*
X191810294Y-106877258D01*
X191721932Y-106759221D01*
X191680001Y-106671580D01*
X191674800Y-106574565D01*
X191707122Y-106482944D01*
X191721932Y-106460779D01*
X191810294Y-106342741D01*
X191937116Y-106110483D01*
X191937122Y-106110471D01*
X192029594Y-105862543D01*
X192029595Y-105862542D01*
X192085847Y-105603956D01*
X192086845Y-105590000D01*
X190999000Y-105590000D01*
X190903712Y-105571046D01*
X190822930Y-105517070D01*
X190768954Y-105436288D01*
X190750000Y-105341000D01*
X190750000Y-105339000D01*
X190768954Y-105243712D01*
X190822930Y-105162930D01*
X190903712Y-105108954D01*
X190999000Y-105090000D01*
X192086845Y-105090000D01*
X192085847Y-105076043D01*
X192029595Y-104817457D01*
X192029594Y-104817456D01*
X191937121Y-104569525D01*
X191898395Y-104498604D01*
X191869364Y-104405888D01*
X191878023Y-104309120D01*
X191923055Y-104223031D01*
X191923963Y-104221911D01*
X191939280Y-104203127D01*
X192033439Y-104022867D01*
X192033442Y-104022859D01*
X192089389Y-103827333D01*
X192089390Y-103827328D01*
X192100000Y-103708008D01*
X192100000Y-103050001D01*
X192099999Y-103050000D01*
X190999000Y-103050000D01*
X190903712Y-103031046D01*
X190822930Y-102977070D01*
X190768954Y-102896288D01*
X190750000Y-102801000D01*
X190750000Y-102799000D01*
X190768954Y-102703712D01*
X190822930Y-102622930D01*
X190903712Y-102568954D01*
X190999000Y-102550000D01*
X192099999Y-102550000D01*
X192100000Y-102549999D01*
X192100000Y-101891992D01*
X192089390Y-101772671D01*
X192089389Y-101772666D01*
X192033442Y-101577140D01*
X192033439Y-101577132D01*
X191939280Y-101396873D01*
X191939276Y-101396867D01*
X191810754Y-101239249D01*
X191810750Y-101239245D01*
X191653132Y-101110723D01*
X191653126Y-101110719D01*
X191472867Y-101016560D01*
X191472859Y-101016557D01*
X191277333Y-100960610D01*
X191277328Y-100960609D01*
X191158008Y-100950000D01*
X190500000Y-100950000D01*
X190500000Y-102051000D01*
X190481046Y-102146288D01*
X190427070Y-102227070D01*
X190346288Y-102281046D01*
X190251000Y-102300000D01*
X190249000Y-102300000D01*
X190153712Y-102281046D01*
X190072930Y-102227070D01*
X190018954Y-102146288D01*
X190000000Y-102051000D01*
X190000000Y-100950001D01*
X189999999Y-100950000D01*
X189341992Y-100950000D01*
X189222671Y-100960609D01*
X189222666Y-100960610D01*
X189027140Y-101016557D01*
X189027132Y-101016560D01*
X188846873Y-101110719D01*
X188846867Y-101110723D01*
X188689249Y-101239245D01*
X188689245Y-101239249D01*
X188560723Y-101396867D01*
X188560719Y-101396873D01*
X188466560Y-101577132D01*
X188466557Y-101577140D01*
X188410610Y-101772666D01*
X188410609Y-101772671D01*
X188400000Y-101891992D01*
X188400000Y-102549999D01*
X188400001Y-102550000D01*
X189501000Y-102550000D01*
X189596288Y-102568954D01*
X189677070Y-102622930D01*
X189731046Y-102703712D01*
X189750000Y-102799000D01*
X189750000Y-102801000D01*
X189731046Y-102896288D01*
X189677070Y-102977070D01*
X189596288Y-103031046D01*
X189501000Y-103050000D01*
X188400001Y-103050000D01*
X188400000Y-103050001D01*
X188400000Y-103708008D01*
X112350500Y-103708008D01*
X112350500Y-90205429D01*
X112369454Y-90110141D01*
X112423430Y-90029359D01*
X118494781Y-83958008D01*
X134100000Y-83958008D01*
X134110609Y-84077328D01*
X134110610Y-84077333D01*
X134166557Y-84272859D01*
X134166560Y-84272867D01*
X134260719Y-84453126D01*
X134260723Y-84453132D01*
X134389245Y-84610750D01*
X134389249Y-84610754D01*
X134522312Y-84719254D01*
X134584183Y-84794161D01*
X134612680Y-84887042D01*
X134603462Y-84983759D01*
X134592986Y-85012252D01*
X134575936Y-85051122D01*
X134575935Y-85051125D01*
X134514894Y-85292168D01*
X134514892Y-85292176D01*
X134494357Y-85539999D01*
X134514892Y-85787823D01*
X134514894Y-85787831D01*
X134575410Y-86026799D01*
X134575937Y-86028881D01*
X134588917Y-86058472D01*
X134675825Y-86256603D01*
X134675828Y-86256608D01*
X134811830Y-86464778D01*
X134811836Y-86464785D01*
X134980248Y-86647730D01*
X134980252Y-86647733D01*
X134980256Y-86647738D01*
X134980260Y-86647741D01*
X134980261Y-86647742D01*
X135176485Y-86800470D01*
X135176487Y-86800471D01*
X135176491Y-86800474D01*
X135395190Y-86918828D01*
X135464736Y-86942703D01*
X135630378Y-86999569D01*
X135630382Y-86999569D01*
X135630386Y-86999571D01*
X135875665Y-87040500D01*
X136124335Y-87040500D01*
X136369614Y-86999571D01*
X136369618Y-86999569D01*
X136369621Y-86999569D01*
X136459077Y-86968858D01*
X136604810Y-86918828D01*
X136823509Y-86800474D01*
X137019744Y-86647738D01*
X137188164Y-86464785D01*
X137191051Y-86460367D01*
X137220892Y-86414690D01*
X137324173Y-86256607D01*
X137424063Y-86028881D01*
X137485108Y-85787821D01*
X137505643Y-85540000D01*
X137485108Y-85292179D01*
X137424063Y-85051119D01*
X137407013Y-85012251D01*
X137386095Y-84917380D01*
X137403075Y-84821720D01*
X137455370Y-84739840D01*
X137477688Y-84719253D01*
X137610751Y-84610753D01*
X137610754Y-84610750D01*
X137739276Y-84453132D01*
X137739280Y-84453126D01*
X137833439Y-84272867D01*
X137833442Y-84272859D01*
X137889389Y-84077333D01*
X137889390Y-84077328D01*
X137896266Y-84000000D01*
X157494357Y-84000000D01*
X157514892Y-84247823D01*
X157514894Y-84247831D01*
X157566884Y-84453132D01*
X157575937Y-84488881D01*
X157675827Y-84716607D01*
X157691006Y-84739840D01*
X157811830Y-84924778D01*
X157811836Y-84924785D01*
X157980248Y-85107730D01*
X157980251Y-85107733D01*
X157980256Y-85107738D01*
X158053440Y-85164700D01*
X158116993Y-85238182D01*
X158147588Y-85330394D01*
X158149500Y-85361194D01*
X158149500Y-86460367D01*
X158149089Y-86470474D01*
X158144799Y-86523164D01*
X158144799Y-86523168D01*
X158155729Y-86603392D01*
X158164484Y-86683905D01*
X158166969Y-86695192D01*
X158169774Y-86706471D01*
X158197700Y-86782486D01*
X158223559Y-86859230D01*
X158228417Y-86869732D01*
X158233566Y-86880112D01*
X158233567Y-86880113D01*
X158233568Y-86880116D01*
X158277184Y-86948353D01*
X158318930Y-87017736D01*
X158318931Y-87017737D01*
X158318933Y-87017740D01*
X158325935Y-87026951D01*
X158333201Y-87035991D01*
X158390458Y-87093248D01*
X158390460Y-87093249D01*
X158446151Y-87152041D01*
X158446154Y-87152043D01*
X158446155Y-87152044D01*
X158456441Y-87160781D01*
X158455821Y-87161510D01*
X158472520Y-87175309D01*
X168620593Y-97323382D01*
X168627445Y-97330816D01*
X168661663Y-97371100D01*
X168726108Y-97420090D01*
X168753946Y-97442467D01*
X168789241Y-97470839D01*
X168798986Y-97477067D01*
X168808934Y-97483053D01*
X168808935Y-97483053D01*
X168808936Y-97483054D01*
X168882439Y-97517060D01*
X168954979Y-97553036D01*
X168954986Y-97553037D01*
X168965897Y-97557046D01*
X168976827Y-97560729D01*
X168976833Y-97560732D01*
X169055926Y-97578141D01*
X169134505Y-97597684D01*
X169134510Y-97597684D01*
X169145953Y-97599243D01*
X169157501Y-97600499D01*
X169157503Y-97600500D01*
X169238468Y-97600500D01*
X169240548Y-97600556D01*
X169319432Y-97602693D01*
X169319440Y-97602691D01*
X169332890Y-97601597D01*
X169332967Y-97602550D01*
X169354534Y-97600500D01*
X179906387Y-97600500D01*
X180001675Y-97619454D01*
X180023759Y-97629898D01*
X180115273Y-97678814D01*
X180303868Y-97736024D01*
X180500000Y-97755341D01*
X180696132Y-97736024D01*
X180884727Y-97678814D01*
X181058538Y-97585910D01*
X181210883Y-97460883D01*
X181335910Y-97308538D01*
X181428814Y-97134727D01*
X181486024Y-96946132D01*
X181505341Y-96750000D01*
X181486024Y-96553868D01*
X181428814Y-96365273D01*
X181428812Y-96365270D01*
X181428811Y-96365266D01*
X181335911Y-96191463D01*
X181236905Y-96070825D01*
X181210883Y-96039117D01*
X181058538Y-95914090D01*
X181058539Y-95914090D01*
X181058536Y-95914088D01*
X180884733Y-95821188D01*
X180884725Y-95821185D01*
X180696131Y-95763975D01*
X180500000Y-95744659D01*
X180303868Y-95763975D01*
X180115274Y-95821185D01*
X180115271Y-95821186D01*
X180049859Y-95856150D01*
X180023764Y-95870098D01*
X179930794Y-95898301D01*
X179906387Y-95899500D01*
X169705429Y-95899500D01*
X169610141Y-95880546D01*
X169529359Y-95826570D01*
X159923430Y-86220641D01*
X159869454Y-86139859D01*
X159850500Y-86044571D01*
X159850500Y-86026799D01*
X159869454Y-85931511D01*
X159923430Y-85850729D01*
X160004212Y-85796753D01*
X160099500Y-85777799D01*
X160194788Y-85796753D01*
X160214787Y-85806096D01*
X160267133Y-85833440D01*
X160267140Y-85833442D01*
X160462666Y-85889389D01*
X160462671Y-85889390D01*
X160581992Y-85900000D01*
X161289999Y-85900000D01*
X161290000Y-85899998D01*
X161290000Y-84699000D01*
X161308954Y-84603712D01*
X161362930Y-84522930D01*
X161443712Y-84468954D01*
X161539000Y-84450000D01*
X161541000Y-84450000D01*
X161636288Y-84468954D01*
X161717070Y-84522930D01*
X161771046Y-84603712D01*
X161790000Y-84699000D01*
X161790000Y-85899999D01*
X161790001Y-85900000D01*
X162498008Y-85900000D01*
X162617328Y-85889390D01*
X162617333Y-85889389D01*
X162812859Y-85833442D01*
X162812867Y-85833439D01*
X162993126Y-85739280D01*
X162993132Y-85739276D01*
X163150750Y-85610754D01*
X163150754Y-85610750D01*
X163279276Y-85453132D01*
X163279280Y-85453126D01*
X163373439Y-85272867D01*
X163373442Y-85272859D01*
X163429389Y-85077333D01*
X163429390Y-85077328D01*
X163440000Y-84958008D01*
X163440000Y-84250001D01*
X163439999Y-84250000D01*
X162241034Y-84250000D01*
X162145746Y-84231046D01*
X162064964Y-84177070D01*
X162010988Y-84096288D01*
X161992723Y-84019503D01*
X161992572Y-84017499D01*
X161994717Y-84000000D01*
X164229357Y-84000000D01*
X164249892Y-84247823D01*
X164249894Y-84247831D01*
X164301884Y-84453132D01*
X164310937Y-84488881D01*
X164410827Y-84716607D01*
X164426006Y-84739840D01*
X164546830Y-84924778D01*
X164546836Y-84924785D01*
X164715248Y-85107730D01*
X164715252Y-85107733D01*
X164715256Y-85107738D01*
X164715259Y-85107740D01*
X164715261Y-85107742D01*
X164911485Y-85260470D01*
X164911487Y-85260471D01*
X164911491Y-85260474D01*
X165130190Y-85378828D01*
X165150703Y-85385870D01*
X165365378Y-85459569D01*
X165365382Y-85459569D01*
X165365386Y-85459571D01*
X165610665Y-85500500D01*
X165859335Y-85500500D01*
X166104614Y-85459571D01*
X166281391Y-85398883D01*
X166377664Y-85385870D01*
X166471595Y-85410692D01*
X166548877Y-85469569D01*
X166555215Y-85477037D01*
X166664245Y-85610750D01*
X166664249Y-85610754D01*
X166821867Y-85739276D01*
X166821873Y-85739280D01*
X167002132Y-85833439D01*
X167002140Y-85833442D01*
X167197666Y-85889389D01*
X167197671Y-85889390D01*
X167316992Y-85900000D01*
X168024999Y-85900000D01*
X168025000Y-85899999D01*
X168025000Y-84699000D01*
X168043954Y-84603712D01*
X168097930Y-84522930D01*
X168178712Y-84468954D01*
X168274000Y-84450000D01*
X168276000Y-84450000D01*
X168371288Y-84468954D01*
X168452070Y-84522930D01*
X168506046Y-84603712D01*
X168525000Y-84699000D01*
X168525000Y-85899999D01*
X168525001Y-85900000D01*
X169233008Y-85900000D01*
X169352328Y-85889390D01*
X169352333Y-85889389D01*
X169547859Y-85833442D01*
X169547867Y-85833439D01*
X169728126Y-85739280D01*
X169728132Y-85739276D01*
X169885750Y-85610754D01*
X169885754Y-85610750D01*
X170014276Y-85453132D01*
X170014280Y-85453126D01*
X170108439Y-85272867D01*
X170108442Y-85272859D01*
X170164389Y-85077333D01*
X170164390Y-85077328D01*
X170175000Y-84958008D01*
X170175000Y-84250000D01*
X168976034Y-84250000D01*
X168880746Y-84231046D01*
X168799964Y-84177070D01*
X168745988Y-84096288D01*
X168727723Y-84019503D01*
X168727572Y-84017499D01*
X168739395Y-83921066D01*
X168787221Y-83836498D01*
X168863769Y-83776669D01*
X168957386Y-83750688D01*
X168975885Y-83750000D01*
X170174999Y-83750000D01*
X170175000Y-83749999D01*
X170175000Y-83041992D01*
X170164390Y-82922671D01*
X170164389Y-82922666D01*
X170108442Y-82727140D01*
X170108439Y-82727132D01*
X170014280Y-82546873D01*
X170014276Y-82546867D01*
X169885754Y-82389249D01*
X169885750Y-82389245D01*
X169728132Y-82260723D01*
X169728126Y-82260719D01*
X169547867Y-82166560D01*
X169547859Y-82166557D01*
X169352333Y-82110610D01*
X169352328Y-82110609D01*
X169233008Y-82100000D01*
X168525000Y-82100000D01*
X168525000Y-83301000D01*
X168506046Y-83396288D01*
X168452070Y-83477070D01*
X168371288Y-83531046D01*
X168276000Y-83550000D01*
X168274000Y-83550000D01*
X168178712Y-83531046D01*
X168097930Y-83477070D01*
X168043954Y-83396288D01*
X168025000Y-83301000D01*
X168025000Y-82100001D01*
X168024999Y-82100000D01*
X167316992Y-82100000D01*
X167197671Y-82110609D01*
X167197666Y-82110610D01*
X167002140Y-82166557D01*
X167002132Y-82166560D01*
X166821873Y-82260719D01*
X166821867Y-82260723D01*
X166664249Y-82389245D01*
X166664239Y-82389255D01*
X166555215Y-82522961D01*
X166480309Y-82584833D01*
X166387427Y-82613329D01*
X166290710Y-82604111D01*
X166281389Y-82601115D01*
X166104618Y-82540430D01*
X166104610Y-82540428D01*
X165859335Y-82499500D01*
X165610665Y-82499500D01*
X165365389Y-82540428D01*
X165365378Y-82540430D01*
X165130188Y-82621172D01*
X164911485Y-82739529D01*
X164715261Y-82892257D01*
X164715248Y-82892269D01*
X164546836Y-83075214D01*
X164546830Y-83075221D01*
X164410828Y-83283391D01*
X164410825Y-83283396D01*
X164310936Y-83511121D01*
X164310935Y-83511125D01*
X164249894Y-83752168D01*
X164249892Y-83752176D01*
X164229357Y-84000000D01*
X161994717Y-84000000D01*
X162004395Y-83921066D01*
X162052221Y-83836498D01*
X162128769Y-83776669D01*
X162222386Y-83750688D01*
X162240885Y-83750000D01*
X163439999Y-83750000D01*
X163440000Y-83749998D01*
X163440000Y-83041992D01*
X163429390Y-82922671D01*
X163429389Y-82922666D01*
X163373442Y-82727140D01*
X163373439Y-82727132D01*
X163279280Y-82546873D01*
X163279276Y-82546867D01*
X163150754Y-82389249D01*
X163150750Y-82389245D01*
X162993132Y-82260723D01*
X162993126Y-82260719D01*
X162812867Y-82166560D01*
X162812859Y-82166557D01*
X162617333Y-82110610D01*
X162617328Y-82110609D01*
X162498008Y-82100000D01*
X161790001Y-82100000D01*
X161790000Y-82100001D01*
X161790000Y-83301000D01*
X161771046Y-83396288D01*
X161717070Y-83477070D01*
X161636288Y-83531046D01*
X161541000Y-83550000D01*
X161539000Y-83550000D01*
X161443712Y-83531046D01*
X161362930Y-83477070D01*
X161308954Y-83396288D01*
X161290000Y-83301000D01*
X161290000Y-82100001D01*
X161289999Y-82100000D01*
X160581992Y-82100000D01*
X160462671Y-82110609D01*
X160462666Y-82110610D01*
X160267140Y-82166557D01*
X160267132Y-82166560D01*
X160086873Y-82260719D01*
X160086867Y-82260723D01*
X159929249Y-82389245D01*
X159929239Y-82389255D01*
X159820215Y-82522961D01*
X159745309Y-82584833D01*
X159652427Y-82613329D01*
X159555710Y-82604111D01*
X159546389Y-82601115D01*
X159369618Y-82540430D01*
X159369610Y-82540428D01*
X159124335Y-82499500D01*
X158875665Y-82499500D01*
X158630389Y-82540428D01*
X158630378Y-82540430D01*
X158395188Y-82621172D01*
X158176485Y-82739529D01*
X157980261Y-82892257D01*
X157980248Y-82892269D01*
X157811836Y-83075214D01*
X157811830Y-83075221D01*
X157675828Y-83283391D01*
X157675825Y-83283396D01*
X157575936Y-83511121D01*
X157575935Y-83511125D01*
X157514894Y-83752168D01*
X157514892Y-83752176D01*
X157494357Y-84000000D01*
X137896266Y-84000000D01*
X137900000Y-83958008D01*
X137900000Y-83250000D01*
X136701034Y-83250000D01*
X136605746Y-83231046D01*
X136524964Y-83177070D01*
X136470988Y-83096288D01*
X136452723Y-83019503D01*
X136452572Y-83017499D01*
X136464395Y-82921066D01*
X136512221Y-82836498D01*
X136588769Y-82776669D01*
X136682386Y-82750688D01*
X136700885Y-82750000D01*
X137899999Y-82750000D01*
X137900000Y-82749999D01*
X137900000Y-82041992D01*
X137889390Y-81922671D01*
X137889389Y-81922666D01*
X137833442Y-81727140D01*
X137833439Y-81727132D01*
X137739280Y-81546873D01*
X137739276Y-81546867D01*
X137610754Y-81389249D01*
X137610750Y-81389245D01*
X137453132Y-81260723D01*
X137453126Y-81260719D01*
X137272867Y-81166560D01*
X137272859Y-81166557D01*
X137077333Y-81110610D01*
X137077328Y-81110609D01*
X136958008Y-81100000D01*
X136250001Y-81100000D01*
X136250000Y-81100001D01*
X136250000Y-82301000D01*
X136231046Y-82396288D01*
X136177070Y-82477070D01*
X136096288Y-82531046D01*
X136001000Y-82550000D01*
X135999000Y-82550000D01*
X135903712Y-82531046D01*
X135822930Y-82477070D01*
X135768954Y-82396288D01*
X135750000Y-82301000D01*
X135750000Y-81100000D01*
X135041992Y-81100000D01*
X134922671Y-81110609D01*
X134922666Y-81110610D01*
X134727140Y-81166557D01*
X134727132Y-81166560D01*
X134546873Y-81260719D01*
X134546867Y-81260723D01*
X134389249Y-81389245D01*
X134389245Y-81389249D01*
X134260723Y-81546867D01*
X134260719Y-81546873D01*
X134166560Y-81727132D01*
X134166557Y-81727140D01*
X134110610Y-81922666D01*
X134110609Y-81922671D01*
X134100000Y-82041992D01*
X134100000Y-82749998D01*
X134100001Y-82750000D01*
X135298966Y-82750000D01*
X135394254Y-82768954D01*
X135475036Y-82822930D01*
X135529012Y-82903712D01*
X135547276Y-82980496D01*
X135547403Y-82982179D01*
X135547427Y-82982501D01*
X135535605Y-83078934D01*
X135487779Y-83163502D01*
X135411231Y-83223331D01*
X135317614Y-83249312D01*
X135299115Y-83250000D01*
X134100001Y-83250000D01*
X134100000Y-83250001D01*
X134100000Y-83958008D01*
X118494781Y-83958008D01*
X125034781Y-77418008D01*
X134100000Y-77418008D01*
X134110609Y-77537328D01*
X134110610Y-77537333D01*
X134166557Y-77732859D01*
X134166560Y-77732867D01*
X134260719Y-77913126D01*
X134260723Y-77913132D01*
X134389245Y-78070750D01*
X134389249Y-78070754D01*
X134522312Y-78179254D01*
X134584183Y-78254161D01*
X134612680Y-78347042D01*
X134603462Y-78443759D01*
X134592987Y-78472247D01*
X134581568Y-78498282D01*
X134575936Y-78511122D01*
X134575935Y-78511125D01*
X134514894Y-78752168D01*
X134514892Y-78752176D01*
X134494357Y-79000000D01*
X134514892Y-79247823D01*
X134514894Y-79247831D01*
X134575935Y-79488874D01*
X134575936Y-79488878D01*
X134675825Y-79716603D01*
X134675828Y-79716608D01*
X134811830Y-79924778D01*
X134811836Y-79924785D01*
X134980248Y-80107730D01*
X134980252Y-80107733D01*
X134980256Y-80107738D01*
X134980260Y-80107741D01*
X134980261Y-80107742D01*
X135176485Y-80260470D01*
X135176487Y-80260471D01*
X135176491Y-80260474D01*
X135395190Y-80378828D01*
X135464736Y-80402703D01*
X135630378Y-80459569D01*
X135630382Y-80459569D01*
X135630386Y-80459571D01*
X135875665Y-80500500D01*
X136124335Y-80500500D01*
X136369614Y-80459571D01*
X136369618Y-80459569D01*
X136369621Y-80459569D01*
X136459077Y-80428858D01*
X136604810Y-80378828D01*
X136823509Y-80260474D01*
X137019744Y-80107738D01*
X137188164Y-79924785D01*
X137324173Y-79716607D01*
X137424063Y-79488881D01*
X137485108Y-79247821D01*
X137505643Y-79000000D01*
X137485108Y-78752179D01*
X137424063Y-78511119D01*
X137407013Y-78472251D01*
X137386095Y-78377380D01*
X137403075Y-78281720D01*
X137455370Y-78199840D01*
X137477688Y-78179253D01*
X137610751Y-78070753D01*
X137610754Y-78070750D01*
X137739276Y-77913132D01*
X137739280Y-77913126D01*
X137833439Y-77732867D01*
X137833442Y-77732859D01*
X137889389Y-77537333D01*
X137889390Y-77537328D01*
X137900000Y-77418008D01*
X137900000Y-76710001D01*
X137899999Y-76710000D01*
X136701034Y-76710000D01*
X136605746Y-76691046D01*
X136524964Y-76637070D01*
X136470988Y-76556288D01*
X136452723Y-76479503D01*
X136452572Y-76477499D01*
X136464395Y-76381066D01*
X136512221Y-76296498D01*
X136588769Y-76236669D01*
X136682386Y-76210688D01*
X136700885Y-76210000D01*
X137899999Y-76210000D01*
X137900000Y-76209999D01*
X137900000Y-75501992D01*
X137889390Y-75382671D01*
X137889389Y-75382666D01*
X137833442Y-75187140D01*
X137833439Y-75187132D01*
X137739280Y-75006873D01*
X137739276Y-75006867D01*
X137610754Y-74849249D01*
X137610750Y-74849245D01*
X137453132Y-74720723D01*
X137453126Y-74720719D01*
X137272867Y-74626560D01*
X137272859Y-74626557D01*
X137077333Y-74570610D01*
X137077328Y-74570609D01*
X136958008Y-74560000D01*
X136250001Y-74560000D01*
X136250000Y-74560001D01*
X136250000Y-75761000D01*
X136231046Y-75856288D01*
X136177070Y-75937070D01*
X136096288Y-75991046D01*
X136001000Y-76010000D01*
X135999000Y-76010000D01*
X135903712Y-75991046D01*
X135822930Y-75937070D01*
X135768954Y-75856288D01*
X135750000Y-75761000D01*
X135750000Y-74560000D01*
X135041992Y-74560000D01*
X134922671Y-74570609D01*
X134922666Y-74570610D01*
X134727140Y-74626557D01*
X134727132Y-74626560D01*
X134546873Y-74720719D01*
X134546867Y-74720723D01*
X134389249Y-74849245D01*
X134389245Y-74849249D01*
X134260723Y-75006867D01*
X134260719Y-75006873D01*
X134166560Y-75187132D01*
X134166557Y-75187140D01*
X134110610Y-75382666D01*
X134110609Y-75382671D01*
X134100000Y-75501992D01*
X134100000Y-76209999D01*
X134100001Y-76210000D01*
X135298966Y-76210000D01*
X135394254Y-76228954D01*
X135475036Y-76282930D01*
X135529012Y-76363712D01*
X135547276Y-76440496D01*
X135547403Y-76442179D01*
X135547427Y-76442501D01*
X135535605Y-76538934D01*
X135487779Y-76623502D01*
X135411231Y-76683331D01*
X135317614Y-76709312D01*
X135299115Y-76710000D01*
X134100001Y-76710000D01*
X134100000Y-76710001D01*
X134100000Y-77418008D01*
X125034781Y-77418008D01*
X135529359Y-66923430D01*
X135610141Y-66869454D01*
X135705429Y-66850500D01*
X146460368Y-66850500D01*
X146470475Y-66850911D01*
X146492536Y-66852706D01*
X146523167Y-66855201D01*
X146603392Y-66844270D01*
X146683910Y-66835514D01*
X146695217Y-66833024D01*
X146706461Y-66830227D01*
X146706468Y-66830227D01*
X146782486Y-66802299D01*
X146859221Y-66776444D01*
X146859230Y-66776438D01*
X146869754Y-66771570D01*
X146880108Y-66766434D01*
X146880116Y-66766432D01*
X146948353Y-66722815D01*
X147017736Y-66681070D01*
X147017742Y-66681063D01*
X147026981Y-66674041D01*
X147035987Y-66666802D01*
X147093247Y-66609541D01*
X147094797Y-66608071D01*
X147152041Y-66553849D01*
X147152048Y-66553838D01*
X147160789Y-66543549D01*
X147161522Y-66544172D01*
X147175314Y-66527472D01*
X149323376Y-64379411D01*
X149330794Y-64372572D01*
X149371100Y-64338337D01*
X149420104Y-64273872D01*
X149470842Y-64210753D01*
X149470842Y-64210751D01*
X149477063Y-64201018D01*
X149483050Y-64191069D01*
X149483054Y-64191064D01*
X149517055Y-64117570D01*
X149553037Y-64045021D01*
X149553038Y-64045016D01*
X149557037Y-64034129D01*
X149560732Y-64023166D01*
X149578139Y-63944084D01*
X149583025Y-63924435D01*
X149597684Y-63865494D01*
X149597684Y-63865490D01*
X149599244Y-63854041D01*
X149600500Y-63842495D01*
X149600500Y-63761531D01*
X149600559Y-63759338D01*
X149602693Y-63680567D01*
X149602691Y-63680557D01*
X149601597Y-63667113D01*
X149602549Y-63667035D01*
X149600500Y-63645467D01*
X149600500Y-58349500D01*
X149619454Y-58254212D01*
X149673430Y-58173430D01*
X149754212Y-58119454D01*
X149849500Y-58100500D01*
X164269571Y-58100500D01*
X164364859Y-58119454D01*
X164445641Y-58173430D01*
X165866101Y-59593890D01*
X165920077Y-59674672D01*
X165939031Y-59769960D01*
X165920077Y-59865248D01*
X165866101Y-59946030D01*
X165785319Y-60000006D01*
X165770881Y-60005468D01*
X165690492Y-60033065D01*
X165486371Y-60143531D01*
X165303220Y-60286083D01*
X165303214Y-60286088D01*
X165208346Y-60389143D01*
X165129864Y-60446412D01*
X165035441Y-60469287D01*
X165025151Y-60469500D01*
X164944849Y-60469500D01*
X164849561Y-60450546D01*
X164768779Y-60396570D01*
X164761654Y-60389143D01*
X164666785Y-60286088D01*
X164666779Y-60286083D01*
X164483628Y-60143531D01*
X164279512Y-60033068D01*
X164279507Y-60033066D01*
X164279503Y-60033064D01*
X164059981Y-59957702D01*
X164059978Y-59957701D01*
X164059974Y-59957700D01*
X163831049Y-59919500D01*
X163598951Y-59919500D01*
X163370025Y-59957700D01*
X163370019Y-59957701D01*
X163370019Y-59957702D01*
X163150497Y-60033064D01*
X163150494Y-60033065D01*
X163150487Y-60033068D01*
X162946371Y-60143531D01*
X162763220Y-60286083D01*
X162763214Y-60286088D01*
X162668346Y-60389143D01*
X162589864Y-60446412D01*
X162495441Y-60469287D01*
X162485151Y-60469500D01*
X162404849Y-60469500D01*
X162309561Y-60450546D01*
X162228779Y-60396570D01*
X162221654Y-60389143D01*
X162126785Y-60286088D01*
X162126779Y-60286083D01*
X161943628Y-60143531D01*
X161739512Y-60033068D01*
X161739507Y-60033066D01*
X161739503Y-60033064D01*
X161519981Y-59957702D01*
X161519978Y-59957701D01*
X161519974Y-59957700D01*
X161291049Y-59919500D01*
X161058951Y-59919500D01*
X160830025Y-59957700D01*
X160830019Y-59957701D01*
X160830019Y-59957702D01*
X160610497Y-60033064D01*
X160610494Y-60033065D01*
X160610487Y-60033068D01*
X160406371Y-60143531D01*
X160223220Y-60286083D01*
X160088195Y-60432759D01*
X160009713Y-60490027D01*
X159915289Y-60512902D01*
X159819299Y-60497902D01*
X159736356Y-60447310D01*
X159721805Y-60432759D01*
X159681653Y-60389143D01*
X159586784Y-60286087D01*
X159525742Y-60238576D01*
X159403628Y-60143531D01*
X159199512Y-60033068D01*
X159199507Y-60033066D01*
X159199503Y-60033064D01*
X158979981Y-59957702D01*
X158979978Y-59957701D01*
X158979974Y-59957700D01*
X158751049Y-59919500D01*
X158518951Y-59919500D01*
X158290025Y-59957700D01*
X158290019Y-59957701D01*
X158290019Y-59957702D01*
X158070497Y-60033064D01*
X158070494Y-60033065D01*
X158070487Y-60033068D01*
X157866371Y-60143531D01*
X157683220Y-60286083D01*
X157683214Y-60286088D01*
X157526022Y-60456844D01*
X157526019Y-60456848D01*
X157399074Y-60651153D01*
X157305842Y-60863702D01*
X157305841Y-60863706D01*
X157248868Y-61088684D01*
X157248866Y-61088691D01*
X157229700Y-61320000D01*
X157248866Y-61551308D01*
X157248868Y-61551315D01*
X157305841Y-61776293D01*
X157305842Y-61776297D01*
X157399074Y-61988846D01*
X157526019Y-62183151D01*
X157526022Y-62183155D01*
X157683214Y-62353911D01*
X157683220Y-62353916D01*
X157688432Y-62357973D01*
X157751989Y-62431455D01*
X157782587Y-62523666D01*
X157784500Y-62554474D01*
X157784500Y-68345367D01*
X157784089Y-68355474D01*
X157779799Y-68408164D01*
X157779799Y-68408168D01*
X157790729Y-68488392D01*
X157799484Y-68568905D01*
X157801969Y-68580192D01*
X157804774Y-68591471D01*
X157832700Y-68667486D01*
X157858559Y-68744230D01*
X157863417Y-68754732D01*
X157868566Y-68765112D01*
X157868567Y-68765113D01*
X157868568Y-68765116D01*
X157912184Y-68833353D01*
X157953930Y-68902736D01*
X157953931Y-68902737D01*
X157953933Y-68902740D01*
X157960935Y-68911951D01*
X157968201Y-68920991D01*
X158009951Y-68962740D01*
X158025460Y-68978249D01*
X158081151Y-69037041D01*
X158081154Y-69037043D01*
X158081155Y-69037044D01*
X158091441Y-69045781D01*
X158090821Y-69046510D01*
X158107520Y-69060309D01*
X182085301Y-93038090D01*
X182111465Y-93068893D01*
X182113193Y-93071299D01*
X182162374Y-93115422D01*
X182167266Y-93120056D01*
X182181207Y-93133996D01*
X182181212Y-93134001D01*
X182191322Y-93142128D01*
X182196587Y-93146361D01*
X182201713Y-93150715D01*
X182250897Y-93194840D01*
X182253428Y-93196271D01*
X182253481Y-93196301D01*
X182286923Y-93218975D01*
X182289243Y-93220840D01*
X182289244Y-93220840D01*
X182289246Y-93220842D01*
X182348457Y-93250207D01*
X182354392Y-93253354D01*
X182411936Y-93285888D01*
X182414775Y-93286759D01*
X182452334Y-93301724D01*
X182454979Y-93303036D01*
X182519135Y-93318991D01*
X182525575Y-93320779D01*
X182588779Y-93340186D01*
X182588782Y-93340187D01*
X182591719Y-93340426D01*
X182631629Y-93346968D01*
X182634505Y-93347684D01*
X182681301Y-93348951D01*
X182700578Y-93349474D01*
X182707311Y-93349839D01*
X182729850Y-93351673D01*
X182773167Y-93355201D01*
X182773174Y-93355200D01*
X182773175Y-93355200D01*
X182776099Y-93354802D01*
X182816458Y-93352612D01*
X182819432Y-93352693D01*
X182884346Y-93340235D01*
X182890961Y-93339151D01*
X182956468Y-93330227D01*
X182959233Y-93329210D01*
X182998215Y-93318387D01*
X183014382Y-93315286D01*
X183014832Y-93317633D01*
X183062356Y-93310500D01*
X188952192Y-93310500D01*
X189047480Y-93329454D01*
X189128262Y-93383430D01*
X189135356Y-93390823D01*
X189264236Y-93530825D01*
X189267675Y-93533502D01*
X189269747Y-93535897D01*
X189271812Y-93537798D01*
X189271595Y-93538033D01*
X189331229Y-93606982D01*
X189361826Y-93699193D01*
X189354807Y-93796094D01*
X189311239Y-93882933D01*
X189267685Y-93926489D01*
X189264246Y-93929165D01*
X189264241Y-93929170D01*
X189101428Y-94106032D01*
X188969950Y-94307272D01*
X188969949Y-94307274D01*
X188873389Y-94527409D01*
X188814380Y-94760433D01*
X188794529Y-95000000D01*
X188814380Y-95239566D01*
X188873389Y-95472590D01*
X188969949Y-95692725D01*
X188969950Y-95692727D01*
X188969951Y-95692728D01*
X189101429Y-95893969D01*
X189264236Y-96070825D01*
X189453933Y-96218472D01*
X189665344Y-96332882D01*
X189892703Y-96410934D01*
X190129808Y-96450500D01*
X190370192Y-96450500D01*
X190607297Y-96410934D01*
X190834656Y-96332882D01*
X191046067Y-96218472D01*
X191235764Y-96070825D01*
X191398571Y-95893969D01*
X191530049Y-95692728D01*
X191626610Y-95472591D01*
X191685620Y-95239563D01*
X191705471Y-95000000D01*
X191685620Y-94760437D01*
X191626610Y-94527409D01*
X191530049Y-94307272D01*
X191398571Y-94106031D01*
X191235764Y-93929175D01*
X191232321Y-93926495D01*
X191230244Y-93924093D01*
X191228183Y-93922196D01*
X191228399Y-93921960D01*
X191168768Y-93853011D01*
X191138172Y-93760799D01*
X191145194Y-93663898D01*
X191188763Y-93577061D01*
X191232328Y-93533499D01*
X191235764Y-93530825D01*
X191398571Y-93353969D01*
X191530049Y-93152728D01*
X191626610Y-92932591D01*
X191685620Y-92699563D01*
X191705471Y-92460000D01*
X191685620Y-92220437D01*
X191626610Y-91987409D01*
X191530049Y-91767272D01*
X191398571Y-91566031D01*
X191235764Y-91389175D01*
X191232322Y-91386496D01*
X191230250Y-91384100D01*
X191228188Y-91382202D01*
X191228404Y-91381966D01*
X191168769Y-91313015D01*
X191138173Y-91220803D01*
X191145193Y-91123902D01*
X191188762Y-91037064D01*
X191232321Y-90993504D01*
X191235764Y-90990825D01*
X191398571Y-90813969D01*
X191530049Y-90612728D01*
X191626610Y-90392591D01*
X191685620Y-90159563D01*
X191705471Y-89920000D01*
X191685620Y-89680437D01*
X191626610Y-89447409D01*
X191530049Y-89227272D01*
X191398571Y-89026031D01*
X191235764Y-88849175D01*
X191232321Y-88846495D01*
X191230244Y-88844093D01*
X191228183Y-88842196D01*
X191228399Y-88841960D01*
X191168768Y-88773011D01*
X191138172Y-88680799D01*
X191145194Y-88583898D01*
X191188763Y-88497061D01*
X191232328Y-88453499D01*
X191235764Y-88450825D01*
X191398571Y-88273969D01*
X191530049Y-88072728D01*
X191626610Y-87852591D01*
X191685620Y-87619563D01*
X191705471Y-87380000D01*
X191685620Y-87140437D01*
X191626610Y-86907409D01*
X191571814Y-86782486D01*
X191530050Y-86687274D01*
X191530049Y-86687272D01*
X191527849Y-86683905D01*
X191398571Y-86486031D01*
X191235764Y-86309175D01*
X191232322Y-86306496D01*
X191230250Y-86304100D01*
X191228188Y-86302202D01*
X191228404Y-86301966D01*
X191168769Y-86233015D01*
X191138173Y-86140803D01*
X191145193Y-86043902D01*
X191188762Y-85957064D01*
X191232321Y-85913504D01*
X191235764Y-85910825D01*
X191398571Y-85733969D01*
X191530049Y-85532728D01*
X191626610Y-85312591D01*
X191685620Y-85079563D01*
X191705471Y-84840000D01*
X191685620Y-84600437D01*
X191626610Y-84367409D01*
X191530049Y-84147272D01*
X191398571Y-83946031D01*
X191235764Y-83769175D01*
X191232321Y-83766495D01*
X191230244Y-83764093D01*
X191228183Y-83762196D01*
X191228399Y-83761960D01*
X191168768Y-83693011D01*
X191138172Y-83600799D01*
X191145194Y-83503898D01*
X191188763Y-83417061D01*
X191232328Y-83373499D01*
X191235764Y-83370825D01*
X191398571Y-83193969D01*
X191530049Y-82992728D01*
X191626610Y-82772591D01*
X191685620Y-82539563D01*
X191705471Y-82300000D01*
X191685620Y-82060437D01*
X191626610Y-81827409D01*
X191582628Y-81727140D01*
X191530050Y-81607274D01*
X191530049Y-81607272D01*
X191490584Y-81546867D01*
X191398571Y-81406031D01*
X191235764Y-81229175D01*
X191232322Y-81226496D01*
X191230250Y-81224100D01*
X191228188Y-81222202D01*
X191228404Y-81221966D01*
X191168769Y-81153015D01*
X191138173Y-81060803D01*
X191145193Y-80963902D01*
X191188762Y-80877064D01*
X191232321Y-80833504D01*
X191235764Y-80830825D01*
X191398571Y-80653969D01*
X191530049Y-80452728D01*
X191626610Y-80232591D01*
X191685620Y-79999563D01*
X191705471Y-79760000D01*
X191685620Y-79520437D01*
X191626610Y-79287409D01*
X191626609Y-79287408D01*
X191530050Y-79067274D01*
X191530049Y-79067272D01*
X191408091Y-78880603D01*
X191371841Y-78790464D01*
X191372844Y-78693314D01*
X191410949Y-78603944D01*
X191464962Y-78546868D01*
X191528282Y-78498282D01*
X191624536Y-78372841D01*
X191685044Y-78226762D01*
X191700500Y-78109361D01*
X191700499Y-76330640D01*
X191685044Y-76213238D01*
X191624536Y-76067159D01*
X191592290Y-76025135D01*
X191528286Y-75941723D01*
X191528285Y-75941722D01*
X191528282Y-75941718D01*
X191528277Y-75941714D01*
X191528276Y-75941713D01*
X191402844Y-75845466D01*
X191402843Y-75845465D01*
X191402841Y-75845464D01*
X191256762Y-75784956D01*
X191256760Y-75784955D01*
X191139362Y-75769500D01*
X189360639Y-75769500D01*
X189360637Y-75769501D01*
X189243238Y-75784955D01*
X189134475Y-75830006D01*
X189097159Y-75845464D01*
X189097158Y-75845464D01*
X189097155Y-75845466D01*
X188971723Y-75941713D01*
X188971713Y-75941723D01*
X188875466Y-76067155D01*
X188875464Y-76067159D01*
X188813898Y-76215790D01*
X188759921Y-76296571D01*
X188679140Y-76350547D01*
X188583853Y-76369500D01*
X184175429Y-76369500D01*
X184080141Y-76350546D01*
X183999359Y-76296570D01*
X180173430Y-72470641D01*
X180119454Y-72389859D01*
X180100500Y-72294571D01*
X180100500Y-70750000D01*
X188413155Y-70750000D01*
X188414152Y-70763956D01*
X188470404Y-71022542D01*
X188470405Y-71022543D01*
X188562877Y-71270471D01*
X188562883Y-71270483D01*
X188689705Y-71502741D01*
X188848285Y-71714579D01*
X189035420Y-71901714D01*
X189247258Y-72060294D01*
X189247257Y-72060294D01*
X189479516Y-72187116D01*
X189479528Y-72187122D01*
X189727456Y-72279594D01*
X189727457Y-72279595D01*
X189986043Y-72335847D01*
X190000000Y-72336845D01*
X190000000Y-71249000D01*
X190018954Y-71153712D01*
X190072930Y-71072930D01*
X190153712Y-71018954D01*
X190249000Y-71000000D01*
X190251000Y-71000000D01*
X190346288Y-71018954D01*
X190427070Y-71072930D01*
X190481046Y-71153712D01*
X190500000Y-71249000D01*
X190500000Y-72336844D01*
X190513956Y-72335847D01*
X190772542Y-72279595D01*
X190772543Y-72279594D01*
X191020471Y-72187122D01*
X191020483Y-72187116D01*
X191252741Y-72060294D01*
X191464579Y-71901714D01*
X191651714Y-71714579D01*
X191810294Y-71502741D01*
X191937116Y-71270483D01*
X191937122Y-71270471D01*
X192029594Y-71022543D01*
X192029595Y-71022542D01*
X192085847Y-70763956D01*
X192086845Y-70750000D01*
X190999000Y-70750000D01*
X190903712Y-70731046D01*
X190822930Y-70677070D01*
X190768954Y-70596288D01*
X190750000Y-70501000D01*
X190750000Y-70499000D01*
X190768954Y-70403712D01*
X190822930Y-70322930D01*
X190903712Y-70268954D01*
X190999000Y-70250000D01*
X192086845Y-70250000D01*
X192085847Y-70236043D01*
X192029595Y-69977457D01*
X192029594Y-69977456D01*
X191937122Y-69729528D01*
X191937116Y-69729516D01*
X191810294Y-69497258D01*
X191721932Y-69379221D01*
X191680001Y-69291580D01*
X191674800Y-69194565D01*
X191707122Y-69102944D01*
X191721932Y-69080779D01*
X191810294Y-68962741D01*
X191937116Y-68730483D01*
X191937122Y-68730471D01*
X192029594Y-68482543D01*
X192029595Y-68482542D01*
X192085847Y-68223956D01*
X192086845Y-68210000D01*
X190999000Y-68210000D01*
X190903712Y-68191046D01*
X190822930Y-68137070D01*
X190768954Y-68056288D01*
X190750000Y-67961000D01*
X190750000Y-67959000D01*
X190768954Y-67863712D01*
X190822930Y-67782930D01*
X190903712Y-67728954D01*
X190999000Y-67710000D01*
X192086845Y-67710000D01*
X192085847Y-67696043D01*
X192029595Y-67437457D01*
X192029594Y-67437456D01*
X191937122Y-67189528D01*
X191937116Y-67189516D01*
X191810294Y-66957258D01*
X191651714Y-66745420D01*
X191471090Y-66564796D01*
X191417114Y-66484014D01*
X191398160Y-66388726D01*
X191417114Y-66293438D01*
X191438697Y-66252551D01*
X191530049Y-66112728D01*
X191626610Y-65892591D01*
X191685620Y-65659563D01*
X191705471Y-65420000D01*
X191685620Y-65180437D01*
X191626610Y-64947409D01*
X191530049Y-64727272D01*
X191408090Y-64540601D01*
X191371841Y-64450464D01*
X191372844Y-64353314D01*
X191410949Y-64263944D01*
X191464962Y-64206868D01*
X191528282Y-64158282D01*
X191624536Y-64032841D01*
X191685044Y-63886762D01*
X191700500Y-63769361D01*
X191700499Y-61990640D01*
X191685044Y-61873238D01*
X191624536Y-61727159D01*
X191619043Y-61720000D01*
X191528286Y-61601723D01*
X191528285Y-61601722D01*
X191528282Y-61601718D01*
X191528277Y-61601714D01*
X191528276Y-61601713D01*
X191402844Y-61505466D01*
X191402843Y-61505465D01*
X191402841Y-61505464D01*
X191256762Y-61444956D01*
X191256760Y-61444955D01*
X191139362Y-61429500D01*
X189360639Y-61429500D01*
X189360637Y-61429501D01*
X189243238Y-61444955D01*
X189134475Y-61490006D01*
X189097159Y-61505464D01*
X189097158Y-61505464D01*
X189097155Y-61505466D01*
X188971723Y-61601713D01*
X188971713Y-61601723D01*
X188875466Y-61727155D01*
X188875464Y-61727158D01*
X188875464Y-61727159D01*
X188855112Y-61776293D01*
X188814955Y-61873239D01*
X188799500Y-61990637D01*
X188799500Y-63769360D01*
X188799501Y-63769362D01*
X188814955Y-63886761D01*
X188838699Y-63944083D01*
X188875464Y-64032841D01*
X188875465Y-64032843D01*
X188875466Y-64032844D01*
X188940478Y-64117570D01*
X188971718Y-64158282D01*
X188971722Y-64158285D01*
X188971723Y-64158286D01*
X189035035Y-64206867D01*
X189099094Y-64279912D01*
X189130324Y-64371911D01*
X189123970Y-64468858D01*
X189091908Y-64540602D01*
X188969953Y-64727266D01*
X188969949Y-64727274D01*
X188873389Y-64947409D01*
X188814380Y-65180433D01*
X188794529Y-65420000D01*
X188814380Y-65659566D01*
X188873389Y-65892590D01*
X188969949Y-66112725D01*
X188969951Y-66112729D01*
X189014039Y-66180210D01*
X189061293Y-66252536D01*
X189097543Y-66342673D01*
X189096540Y-66439823D01*
X189058435Y-66529194D01*
X189028909Y-66564795D01*
X188848297Y-66745407D01*
X188848285Y-66745420D01*
X188689705Y-66957258D01*
X188562883Y-67189516D01*
X188562877Y-67189528D01*
X188470405Y-67437456D01*
X188470404Y-67437457D01*
X188414152Y-67696043D01*
X188413155Y-67710000D01*
X189501000Y-67710000D01*
X189596288Y-67728954D01*
X189677070Y-67782930D01*
X189731046Y-67863712D01*
X189750000Y-67959000D01*
X189750000Y-67961000D01*
X189731046Y-68056288D01*
X189677070Y-68137070D01*
X189596288Y-68191046D01*
X189501000Y-68210000D01*
X188413155Y-68210000D01*
X188414152Y-68223956D01*
X188470404Y-68482542D01*
X188470405Y-68482543D01*
X188562877Y-68730471D01*
X188562883Y-68730483D01*
X188689705Y-68962740D01*
X188778068Y-69080780D01*
X188819998Y-69168421D01*
X188825199Y-69265437D01*
X188792876Y-69357057D01*
X188778068Y-69379220D01*
X188689705Y-69497259D01*
X188562883Y-69729516D01*
X188562877Y-69729528D01*
X188470405Y-69977456D01*
X188470404Y-69977457D01*
X188414152Y-70236043D01*
X188413155Y-70250000D01*
X189501000Y-70250000D01*
X189596288Y-70268954D01*
X189677070Y-70322930D01*
X189731046Y-70403712D01*
X189750000Y-70499000D01*
X189750000Y-70501000D01*
X189731046Y-70596288D01*
X189677070Y-70677070D01*
X189596288Y-70731046D01*
X189501000Y-70750000D01*
X188413155Y-70750000D01*
X180100500Y-70750000D01*
X180100500Y-54539632D01*
X180100911Y-54529525D01*
X180102737Y-54507097D01*
X180105201Y-54476833D01*
X180094270Y-54396607D01*
X180085514Y-54316090D01*
X180085513Y-54316087D01*
X180083027Y-54304793D01*
X180080227Y-54293538D01*
X180080227Y-54293532D01*
X180052299Y-54217513D01*
X180026444Y-54140779D01*
X180026438Y-54140770D01*
X180021550Y-54130204D01*
X180016434Y-54119888D01*
X180016432Y-54119886D01*
X180016432Y-54119884D01*
X179972815Y-54051646D01*
X179931070Y-53982264D01*
X179924070Y-53973056D01*
X179916796Y-53964006D01*
X179859540Y-53906751D01*
X179803851Y-53847961D01*
X179793560Y-53839220D01*
X179794178Y-53838491D01*
X179777480Y-53824691D01*
X179596470Y-53643681D01*
X190399500Y-53643681D01*
X190438627Y-53928351D01*
X190516155Y-54205057D01*
X190630639Y-54468626D01*
X190758137Y-54678286D01*
X190779945Y-54714147D01*
X190961292Y-54937053D01*
X191171302Y-55133189D01*
X191406064Y-55298901D01*
X191615775Y-55407565D01*
X191622093Y-55410839D01*
X191661203Y-55431104D01*
X191931968Y-55527334D01*
X192213314Y-55585798D01*
X192213321Y-55585798D01*
X192213324Y-55585799D01*
X192428243Y-55600500D01*
X192428248Y-55600500D01*
X192571757Y-55600500D01*
X192786675Y-55585799D01*
X192786677Y-55585798D01*
X192786686Y-55585798D01*
X193068032Y-55527334D01*
X193338797Y-55431104D01*
X193593936Y-55298901D01*
X193828698Y-55133189D01*
X194038708Y-54937053D01*
X194220055Y-54714147D01*
X194369361Y-54468625D01*
X194483844Y-54205058D01*
X194561371Y-53928358D01*
X194600500Y-53643678D01*
X194600500Y-53356322D01*
X194561371Y-53071642D01*
X194483844Y-52794942D01*
X194369361Y-52531375D01*
X194364590Y-52523530D01*
X194220055Y-52285853D01*
X194147411Y-52196561D01*
X194038708Y-52062947D01*
X193828698Y-51866811D01*
X193593936Y-51701099D01*
X193540538Y-51673430D01*
X193338802Y-51568898D01*
X193338800Y-51568897D01*
X193296282Y-51553786D01*
X193068032Y-51472666D01*
X192939430Y-51445942D01*
X192786692Y-51414203D01*
X192786675Y-51414200D01*
X192571757Y-51399500D01*
X192571752Y-51399500D01*
X192428248Y-51399500D01*
X192428243Y-51399500D01*
X192213324Y-51414200D01*
X192213307Y-51414203D01*
X191931968Y-51472666D01*
X191661199Y-51568897D01*
X191661197Y-51568898D01*
X191406065Y-51701098D01*
X191171304Y-51866809D01*
X191171303Y-51866810D01*
X191171302Y-51866811D01*
X190996583Y-52029988D01*
X190961290Y-52062949D01*
X190779944Y-52285853D01*
X190630639Y-52531373D01*
X190516155Y-52794942D01*
X190438627Y-53071648D01*
X190399500Y-53356318D01*
X190399500Y-53643681D01*
X179596470Y-53643681D01*
X176129412Y-50176622D01*
X176122555Y-50169184D01*
X176088334Y-50128897D01*
X176040002Y-50092156D01*
X176023891Y-50079909D01*
X176008483Y-50067524D01*
X175960756Y-50029159D01*
X175951015Y-50022933D01*
X175941064Y-50016945D01*
X175867560Y-49982939D01*
X175846659Y-49972573D01*
X175769714Y-49913256D01*
X175721326Y-49829008D01*
X175708861Y-49732656D01*
X175734218Y-49638868D01*
X175793535Y-49561923D01*
X175877783Y-49513535D01*
X175957291Y-49500500D01*
X196250500Y-49500500D01*
X196345788Y-49519454D01*
X196426570Y-49573430D01*
X196480546Y-49654212D01*
X196499500Y-49749500D01*
X196499500Y-147250500D01*
X196480546Y-147345788D01*
X196426570Y-147426570D01*
X196345788Y-147480546D01*
X196250500Y-147499500D01*
X98749500Y-147499500D01*
X98654212Y-147480546D01*
X98573430Y-147426570D01*
X98519454Y-147345788D01*
X98500500Y-147250500D01*
X98500500Y-143643681D01*
X100399500Y-143643681D01*
X100438627Y-143928351D01*
X100516155Y-144205057D01*
X100630639Y-144468626D01*
X100779944Y-144714146D01*
X100779945Y-144714147D01*
X100961292Y-144937053D01*
X101171302Y-145133189D01*
X101406064Y-145298901D01*
X101661203Y-145431104D01*
X101931968Y-145527334D01*
X102213314Y-145585798D01*
X102213321Y-145585798D01*
X102213324Y-145585799D01*
X102428243Y-145600500D01*
X102428248Y-145600500D01*
X102571757Y-145600500D01*
X102786675Y-145585799D01*
X102786677Y-145585798D01*
X102786686Y-145585798D01*
X103068032Y-145527334D01*
X103338797Y-145431104D01*
X103593936Y-145298901D01*
X103828698Y-145133189D01*
X104038708Y-144937053D01*
X104220055Y-144714147D01*
X104369361Y-144468625D01*
X104483844Y-144205058D01*
X104561371Y-143928358D01*
X104600500Y-143643678D01*
X104600500Y-143356322D01*
X104564165Y-143091968D01*
X104561372Y-143071648D01*
X104561371Y-143071646D01*
X104561371Y-143071642D01*
X104483844Y-142794942D01*
X104369361Y-142531375D01*
X104220055Y-142285853D01*
X104038708Y-142062947D01*
X103828698Y-141866811D01*
X103593936Y-141701099D01*
X103573134Y-141690320D01*
X103338802Y-141568898D01*
X103338800Y-141568897D01*
X103210446Y-141523280D01*
X103068032Y-141472666D01*
X102939430Y-141445942D01*
X102786692Y-141414203D01*
X102786675Y-141414200D01*
X102571757Y-141399500D01*
X102571752Y-141399500D01*
X102428248Y-141399500D01*
X102428243Y-141399500D01*
X102213324Y-141414200D01*
X102213307Y-141414203D01*
X101931968Y-141472666D01*
X101661199Y-141568897D01*
X101661197Y-141568898D01*
X101406065Y-141701098D01*
X101171304Y-141866809D01*
X101171303Y-141866810D01*
X100961290Y-142062949D01*
X100779944Y-142285853D01*
X100630639Y-142531373D01*
X100516155Y-142794942D01*
X100438627Y-143071648D01*
X100399500Y-143356318D01*
X100399500Y-143643681D01*
X98500500Y-143643681D01*
X98500500Y-61320000D01*
X128729700Y-61320000D01*
X128748866Y-61551308D01*
X128748868Y-61551315D01*
X128805841Y-61776293D01*
X128805842Y-61776297D01*
X128899074Y-61988846D01*
X129026019Y-62183151D01*
X129026022Y-62183155D01*
X129183214Y-62353911D01*
X129183220Y-62353916D01*
X129362249Y-62493260D01*
X129366374Y-62496470D01*
X129416628Y-62523666D01*
X129570487Y-62606931D01*
X129570489Y-62606931D01*
X129570497Y-62606936D01*
X129790019Y-62682298D01*
X130018951Y-62720500D01*
X130251049Y-62720500D01*
X130479981Y-62682298D01*
X130699503Y-62606936D01*
X130903626Y-62496470D01*
X130907751Y-62493260D01*
X130960742Y-62452015D01*
X131047579Y-62408445D01*
X131144480Y-62401422D01*
X131236692Y-62432016D01*
X131308357Y-62493260D01*
X131351804Y-62547741D01*
X131351811Y-62547748D01*
X131549574Y-62731245D01*
X131772473Y-62883215D01*
X131772478Y-62883217D01*
X132015535Y-63000268D01*
X132015540Y-63000270D01*
X132273333Y-63079789D01*
X132424999Y-63102649D01*
X132424999Y-61969000D01*
X132443953Y-61873712D01*
X132497929Y-61792931D01*
X132578711Y-61738954D01*
X132673999Y-61720000D01*
X132676000Y-61720000D01*
X132771288Y-61738954D01*
X132852070Y-61792930D01*
X132906046Y-61873712D01*
X132925000Y-61969000D01*
X132924999Y-63102649D01*
X133076666Y-63079789D01*
X133334459Y-63000270D01*
X133334465Y-63000268D01*
X133577522Y-62883217D01*
X133577527Y-62883215D01*
X133804733Y-62728308D01*
X133894140Y-62690290D01*
X133991291Y-62689382D01*
X134081395Y-62725720D01*
X134085267Y-62728308D01*
X134312473Y-62883215D01*
X134312478Y-62883217D01*
X134555535Y-63000268D01*
X134555540Y-63000270D01*
X134813333Y-63079789D01*
X134964999Y-63102649D01*
X134965000Y-63102649D01*
X134965000Y-61969000D01*
X134983954Y-61873712D01*
X135037930Y-61792930D01*
X135118712Y-61738954D01*
X135214000Y-61720000D01*
X135216000Y-61720000D01*
X135311288Y-61738954D01*
X135392070Y-61792930D01*
X135446046Y-61873712D01*
X135465000Y-61969000D01*
X135465000Y-63102649D01*
X135616666Y-63079789D01*
X135874459Y-63000270D01*
X135874465Y-63000268D01*
X136117522Y-62883217D01*
X136117527Y-62883215D01*
X136340425Y-62731245D01*
X136538188Y-62547748D01*
X136538191Y-62547745D01*
X136581640Y-62493262D01*
X136655870Y-62430580D01*
X136748437Y-62401076D01*
X136845248Y-62409241D01*
X136929256Y-62452014D01*
X136982252Y-62493262D01*
X136986374Y-62496470D01*
X137036628Y-62523666D01*
X137190487Y-62606931D01*
X137190489Y-62606931D01*
X137190497Y-62606936D01*
X137410019Y-62682298D01*
X137638951Y-62720500D01*
X137871049Y-62720500D01*
X138099981Y-62682298D01*
X138319503Y-62606936D01*
X138523626Y-62496470D01*
X138527751Y-62493260D01*
X138580742Y-62452015D01*
X138667579Y-62408445D01*
X138764480Y-62401422D01*
X138856692Y-62432016D01*
X138928357Y-62493260D01*
X138971804Y-62547741D01*
X138971811Y-62547748D01*
X139169574Y-62731245D01*
X139392473Y-62883215D01*
X139392478Y-62883217D01*
X139635535Y-63000268D01*
X139635540Y-63000270D01*
X139893333Y-63079789D01*
X140044999Y-63102649D01*
X140045000Y-63102649D01*
X140045000Y-61969000D01*
X140063954Y-61873712D01*
X140117930Y-61792930D01*
X140198712Y-61738954D01*
X140294000Y-61720000D01*
X140296000Y-61720000D01*
X140391288Y-61738954D01*
X140472070Y-61792930D01*
X140526046Y-61873712D01*
X140545000Y-61969000D01*
X140545000Y-63102649D01*
X140696666Y-63079789D01*
X140954459Y-63000270D01*
X140954465Y-63000268D01*
X141197522Y-62883217D01*
X141197527Y-62883215D01*
X141424733Y-62728308D01*
X141514140Y-62690290D01*
X141611291Y-62689382D01*
X141701395Y-62725720D01*
X141705267Y-62728308D01*
X141932473Y-62883215D01*
X141932478Y-62883217D01*
X142175535Y-63000268D01*
X142175540Y-63000270D01*
X142433333Y-63079789D01*
X142584999Y-63102649D01*
X142585000Y-63102649D01*
X142585000Y-61969000D01*
X142603954Y-61873712D01*
X142657930Y-61792930D01*
X142738712Y-61738954D01*
X142834000Y-61720000D01*
X142836000Y-61720000D01*
X142931288Y-61738954D01*
X143012070Y-61792930D01*
X143066046Y-61873712D01*
X143085000Y-61969000D01*
X143085000Y-63102649D01*
X143236666Y-63079789D01*
X143494459Y-63000270D01*
X143494465Y-63000268D01*
X143737522Y-62883217D01*
X143737527Y-62883215D01*
X143960425Y-62731245D01*
X144158188Y-62547748D01*
X144158191Y-62547745D01*
X144201640Y-62493262D01*
X144275870Y-62430580D01*
X144368437Y-62401076D01*
X144465248Y-62409241D01*
X144549256Y-62452014D01*
X144602252Y-62493262D01*
X144606374Y-62496470D01*
X144656628Y-62523666D01*
X144810487Y-62606931D01*
X144810489Y-62606931D01*
X144810497Y-62606936D01*
X145030019Y-62682298D01*
X145258951Y-62720500D01*
X145491049Y-62720500D01*
X145719981Y-62682298D01*
X145939503Y-62606936D01*
X146143626Y-62496470D01*
X146326784Y-62353913D01*
X146483979Y-62183153D01*
X146610924Y-61988849D01*
X146704157Y-61776300D01*
X146761134Y-61551305D01*
X146780300Y-61320000D01*
X146761134Y-61088695D01*
X146704157Y-60863700D01*
X146610924Y-60651151D01*
X146492246Y-60469500D01*
X146483980Y-60456848D01*
X146483977Y-60456844D01*
X146326785Y-60286088D01*
X146326779Y-60286083D01*
X146143628Y-60143531D01*
X145939512Y-60033068D01*
X145939507Y-60033066D01*
X145939503Y-60033064D01*
X145719981Y-59957702D01*
X145719978Y-59957701D01*
X145719974Y-59957700D01*
X145491049Y-59919500D01*
X145258951Y-59919500D01*
X145030025Y-59957700D01*
X145030019Y-59957701D01*
X145030019Y-59957702D01*
X144810497Y-60033064D01*
X144810494Y-60033065D01*
X144810487Y-60033068D01*
X144606372Y-60143530D01*
X144549254Y-60187987D01*
X144462416Y-60231556D01*
X144365515Y-60238576D01*
X144273303Y-60207981D01*
X144201641Y-60146738D01*
X144158193Y-60092256D01*
X144158188Y-60092251D01*
X143960425Y-59908754D01*
X143737527Y-59756784D01*
X143737522Y-59756782D01*
X143494465Y-59639731D01*
X143494459Y-59639729D01*
X143236666Y-59560210D01*
X143085000Y-59537349D01*
X143085000Y-60671000D01*
X143066046Y-60766288D01*
X143012070Y-60847070D01*
X142931288Y-60901046D01*
X142836000Y-60920000D01*
X142834000Y-60920000D01*
X142738712Y-60901046D01*
X142657930Y-60847070D01*
X142603954Y-60766288D01*
X142585000Y-60671000D01*
X142585000Y-59537349D01*
X142433334Y-59560210D01*
X142433332Y-59560210D01*
X142175540Y-59639729D01*
X142175535Y-59639731D01*
X141932478Y-59756782D01*
X141932476Y-59756783D01*
X141705266Y-59911692D01*
X141615858Y-59949709D01*
X141518708Y-59950617D01*
X141428604Y-59914278D01*
X141424733Y-59911691D01*
X141197527Y-59756784D01*
X141197522Y-59756782D01*
X140954465Y-59639731D01*
X140954459Y-59639729D01*
X140696666Y-59560210D01*
X140545000Y-59537349D01*
X140545000Y-60671000D01*
X140526046Y-60766288D01*
X140472070Y-60847070D01*
X140391288Y-60901046D01*
X140296000Y-60920000D01*
X140294000Y-60920000D01*
X140198712Y-60901046D01*
X140117930Y-60847070D01*
X140063954Y-60766288D01*
X140045000Y-60671000D01*
X140045000Y-59537349D01*
X139893334Y-59560210D01*
X139893332Y-59560210D01*
X139635540Y-59639729D01*
X139635535Y-59639731D01*
X139392478Y-59756782D01*
X139392473Y-59756784D01*
X139169574Y-59908754D01*
X138971811Y-60092251D01*
X138971804Y-60092258D01*
X138928357Y-60146740D01*
X138854127Y-60209421D01*
X138761560Y-60238924D01*
X138664749Y-60230758D01*
X138580742Y-60187985D01*
X138523629Y-60143531D01*
X138319512Y-60033068D01*
X138319507Y-60033066D01*
X138319503Y-60033064D01*
X138099981Y-59957702D01*
X138099978Y-59957701D01*
X138099974Y-59957700D01*
X137871049Y-59919500D01*
X137638951Y-59919500D01*
X137410025Y-59957700D01*
X137410019Y-59957701D01*
X137410019Y-59957702D01*
X137190497Y-60033064D01*
X137190494Y-60033065D01*
X137190487Y-60033068D01*
X136986372Y-60143530D01*
X136929254Y-60187987D01*
X136842416Y-60231556D01*
X136745515Y-60238576D01*
X136653303Y-60207981D01*
X136581641Y-60146738D01*
X136538193Y-60092256D01*
X136538188Y-60092251D01*
X136340425Y-59908754D01*
X136117527Y-59756784D01*
X136117522Y-59756782D01*
X135874465Y-59639731D01*
X135874459Y-59639729D01*
X135616666Y-59560210D01*
X135465000Y-59537349D01*
X135465000Y-60671000D01*
X135446046Y-60766288D01*
X135392070Y-60847070D01*
X135311288Y-60901046D01*
X135216000Y-60920000D01*
X135214000Y-60920000D01*
X135118712Y-60901046D01*
X135037930Y-60847070D01*
X134983954Y-60766288D01*
X134965000Y-60671000D01*
X134965000Y-59537349D01*
X134813334Y-59560210D01*
X134813332Y-59560210D01*
X134555540Y-59639729D01*
X134555535Y-59639731D01*
X134312478Y-59756782D01*
X134312476Y-59756783D01*
X134085266Y-59911692D01*
X133995858Y-59949709D01*
X133898708Y-59950617D01*
X133808604Y-59914278D01*
X133804733Y-59911691D01*
X133577527Y-59756784D01*
X133577522Y-59756782D01*
X133334465Y-59639731D01*
X133334459Y-59639729D01*
X133076666Y-59560210D01*
X132924999Y-59537349D01*
X132925000Y-60671000D01*
X132906046Y-60766288D01*
X132852070Y-60847069D01*
X132771288Y-60901046D01*
X132676000Y-60920000D01*
X132673999Y-60920000D01*
X132578711Y-60901046D01*
X132497929Y-60847070D01*
X132443953Y-60766288D01*
X132424999Y-60671000D01*
X132424999Y-59537349D01*
X132273334Y-59560210D01*
X132273332Y-59560210D01*
X132015540Y-59639729D01*
X132015535Y-59639731D01*
X131772478Y-59756782D01*
X131772473Y-59756784D01*
X131549574Y-59908754D01*
X131351811Y-60092251D01*
X131351804Y-60092258D01*
X131308357Y-60146740D01*
X131234127Y-60209421D01*
X131141560Y-60238924D01*
X131044749Y-60230758D01*
X130960742Y-60187985D01*
X130903629Y-60143531D01*
X130699512Y-60033068D01*
X130699507Y-60033066D01*
X130699503Y-60033064D01*
X130479981Y-59957702D01*
X130479978Y-59957701D01*
X130479974Y-59957700D01*
X130251049Y-59919500D01*
X130018951Y-59919500D01*
X129790025Y-59957700D01*
X129790019Y-59957701D01*
X129790019Y-59957702D01*
X129570497Y-60033064D01*
X129570494Y-60033065D01*
X129570487Y-60033068D01*
X129366371Y-60143531D01*
X129183220Y-60286083D01*
X129183214Y-60286088D01*
X129026022Y-60456844D01*
X129026019Y-60456848D01*
X128899074Y-60651153D01*
X128805842Y-60863702D01*
X128805841Y-60863706D01*
X128748868Y-61088684D01*
X128748866Y-61088691D01*
X128729700Y-61320000D01*
X98500500Y-61320000D01*
X98500500Y-53643681D01*
X100399500Y-53643681D01*
X100438627Y-53928351D01*
X100516155Y-54205057D01*
X100630639Y-54468626D01*
X100758137Y-54678286D01*
X100779945Y-54714147D01*
X100961292Y-54937053D01*
X101171302Y-55133189D01*
X101406064Y-55298901D01*
X101615775Y-55407565D01*
X101622093Y-55410839D01*
X101661203Y-55431104D01*
X101931968Y-55527334D01*
X102213314Y-55585798D01*
X102213321Y-55585798D01*
X102213324Y-55585799D01*
X102428243Y-55600500D01*
X102428248Y-55600500D01*
X102571757Y-55600500D01*
X102786675Y-55585799D01*
X102786677Y-55585798D01*
X102786686Y-55585798D01*
X103068032Y-55527334D01*
X103338797Y-55431104D01*
X103593936Y-55298901D01*
X103828698Y-55133189D01*
X104038708Y-54937053D01*
X104220055Y-54714147D01*
X104369361Y-54468625D01*
X104483844Y-54205058D01*
X104561371Y-53928358D01*
X104600500Y-53643678D01*
X104600500Y-53356322D01*
X104561371Y-53071642D01*
X104541298Y-53000000D01*
X112245172Y-53000000D01*
X112264461Y-53294312D01*
X112264463Y-53294324D01*
X112322003Y-53583592D01*
X112322004Y-53583599D01*
X112416808Y-53862877D01*
X112416816Y-53862896D01*
X112547256Y-54127403D01*
X112547266Y-54127420D01*
X112711125Y-54372652D01*
X112711131Y-54372660D01*
X112740405Y-54406039D01*
X113687197Y-53459248D01*
X113767979Y-53405272D01*
X113863267Y-53386318D01*
X113958555Y-53405272D01*
X114033643Y-53453733D01*
X114035101Y-53455101D01*
X114091621Y-53534124D01*
X114113599Y-53628760D01*
X114097688Y-53724603D01*
X114046310Y-53807062D01*
X114040795Y-53812755D01*
X113093959Y-54759592D01*
X113127352Y-54788878D01*
X113372579Y-54952733D01*
X113372596Y-54952743D01*
X113637103Y-55083183D01*
X113637122Y-55083191D01*
X113916400Y-55177995D01*
X113916407Y-55177996D01*
X114205675Y-55235536D01*
X114205687Y-55235538D01*
X114500000Y-55254827D01*
X114794312Y-55235538D01*
X114794324Y-55235536D01*
X115083592Y-55177996D01*
X115083599Y-55177995D01*
X115362877Y-55083191D01*
X115362896Y-55083183D01*
X115627403Y-54952743D01*
X115627420Y-54952733D01*
X115872653Y-54788873D01*
X115906039Y-54759593D01*
X114961812Y-53815365D01*
X114907836Y-53734583D01*
X114888882Y-53639295D01*
X114907836Y-53544007D01*
X114946037Y-53480561D01*
X114947317Y-53479014D01*
X115022665Y-53417681D01*
X115115749Y-53389851D01*
X115212397Y-53399761D01*
X115297896Y-53445903D01*
X115315232Y-53461678D01*
X116259593Y-54406039D01*
X116288873Y-54372653D01*
X116344528Y-54289360D01*
X117649500Y-54289360D01*
X117649501Y-54289362D01*
X117664955Y-54406761D01*
X117690581Y-54468625D01*
X117725464Y-54552841D01*
X117725465Y-54552843D01*
X117725466Y-54552844D01*
X117805203Y-54656760D01*
X117821718Y-54678282D01*
X117821722Y-54678285D01*
X117821723Y-54678286D01*
X117927685Y-54759593D01*
X117947159Y-54774536D01*
X118093238Y-54835044D01*
X118210639Y-54850500D01*
X120789360Y-54850499D01*
X120906762Y-54835044D01*
X121052841Y-54774536D01*
X121178282Y-54678282D01*
X121274536Y-54552841D01*
X121335044Y-54406762D01*
X121350500Y-54289361D01*
X121350499Y-51710640D01*
X121335044Y-51593238D01*
X121274536Y-51447159D01*
X121178282Y-51321718D01*
X121178277Y-51321714D01*
X121178276Y-51321713D01*
X121052844Y-51225466D01*
X121052843Y-51225465D01*
X121052841Y-51225464D01*
X120906762Y-51164956D01*
X120906760Y-51164955D01*
X120789362Y-51149500D01*
X118210639Y-51149500D01*
X118210637Y-51149501D01*
X118093238Y-51164955D01*
X117984475Y-51210006D01*
X117947159Y-51225464D01*
X117947158Y-51225464D01*
X117947155Y-51225466D01*
X117821723Y-51321713D01*
X117821713Y-51321723D01*
X117725466Y-51447155D01*
X117664955Y-51593239D01*
X117649500Y-51710637D01*
X117649500Y-54289360D01*
X116344528Y-54289360D01*
X116452733Y-54127420D01*
X116452743Y-54127403D01*
X116583183Y-53862896D01*
X116583191Y-53862877D01*
X116677995Y-53583599D01*
X116677996Y-53583592D01*
X116735536Y-53294324D01*
X116735538Y-53294312D01*
X116754827Y-52999999D01*
X116735538Y-52705687D01*
X116735536Y-52705675D01*
X116677996Y-52416407D01*
X116677995Y-52416400D01*
X116583191Y-52137122D01*
X116583183Y-52137103D01*
X116452743Y-51872596D01*
X116452733Y-51872579D01*
X116288878Y-51627352D01*
X116259592Y-51593959D01*
X115312800Y-52540750D01*
X115232019Y-52594726D01*
X115136731Y-52613680D01*
X115041443Y-52594726D01*
X114966355Y-52546265D01*
X114964897Y-52544897D01*
X114908377Y-52465874D01*
X114886399Y-52371238D01*
X114902310Y-52275395D01*
X114953688Y-52192936D01*
X114959203Y-52187242D01*
X115906039Y-51240405D01*
X115906039Y-51240404D01*
X115872660Y-51211131D01*
X115872652Y-51211125D01*
X115627420Y-51047266D01*
X115627403Y-51047256D01*
X115362896Y-50916816D01*
X115362877Y-50916808D01*
X115083599Y-50822004D01*
X115083592Y-50822003D01*
X114794324Y-50764463D01*
X114794312Y-50764461D01*
X114499999Y-50745172D01*
X114205687Y-50764461D01*
X114205675Y-50764463D01*
X113916407Y-50822003D01*
X113916400Y-50822004D01*
X113637122Y-50916808D01*
X113637103Y-50916816D01*
X113372596Y-51047256D01*
X113372587Y-51047261D01*
X113127341Y-51211130D01*
X113093959Y-51240405D01*
X114038187Y-52184634D01*
X114092163Y-52265416D01*
X114111117Y-52360704D01*
X114092163Y-52455992D01*
X114053962Y-52519438D01*
X114052682Y-52520985D01*
X113977334Y-52582318D01*
X113884250Y-52610148D01*
X113787602Y-52600238D01*
X113702103Y-52554096D01*
X113684767Y-52538321D01*
X112740405Y-51593959D01*
X112711130Y-51627341D01*
X112547261Y-51872587D01*
X112547256Y-51872596D01*
X112416816Y-52137103D01*
X112416808Y-52137122D01*
X112322004Y-52416400D01*
X112322003Y-52416407D01*
X112264463Y-52705675D01*
X112264461Y-52705687D01*
X112245172Y-53000000D01*
X104541298Y-53000000D01*
X104483844Y-52794942D01*
X104369361Y-52531375D01*
X104364590Y-52523530D01*
X104220055Y-52285853D01*
X104147411Y-52196561D01*
X104038708Y-52062947D01*
X103828698Y-51866811D01*
X103593936Y-51701099D01*
X103540538Y-51673430D01*
X103338802Y-51568898D01*
X103338800Y-51568897D01*
X103296282Y-51553786D01*
X103068032Y-51472666D01*
X102939430Y-51445942D01*
X102786692Y-51414203D01*
X102786675Y-51414200D01*
X102571757Y-51399500D01*
X102571752Y-51399500D01*
X102428248Y-51399500D01*
X102428243Y-51399500D01*
X102213324Y-51414200D01*
X102213307Y-51414203D01*
X101931968Y-51472666D01*
X101661199Y-51568897D01*
X101661197Y-51568898D01*
X101406065Y-51701098D01*
X101171304Y-51866809D01*
X101171303Y-51866810D01*
X101171302Y-51866811D01*
X100996583Y-52029988D01*
X100961290Y-52062949D01*
X100779944Y-52285853D01*
X100630639Y-52531373D01*
X100516155Y-52794942D01*
X100438627Y-53071648D01*
X100399500Y-53356318D01*
X100399500Y-53643681D01*
X98500500Y-53643681D01*
X98500500Y-49749500D01*
X98519454Y-49654212D01*
X98573430Y-49573430D01*
X98654212Y-49519454D01*
X98749500Y-49500500D01*
X162282054Y-49500500D01*
X162377342Y-49519454D01*
G37*
G04 #@! TD.AperFunction*
G04 #@! TA.AperFunction,Conductor*
G36*
X141113554Y-128119454D02*
G01*
X141194336Y-128173430D01*
X141248312Y-128254212D01*
X141267266Y-128349500D01*
X141248312Y-128444788D01*
X141214117Y-128503263D01*
X141031880Y-128735380D01*
X141031874Y-128735389D01*
X140833982Y-129051665D01*
X140670832Y-129387182D01*
X140670825Y-129387199D01*
X140544268Y-129738136D01*
X140455724Y-130100565D01*
X140406206Y-130470347D01*
X140405416Y-130500000D01*
X142645891Y-130500000D01*
X142741179Y-130518954D01*
X142821961Y-130572930D01*
X142875937Y-130653712D01*
X142894891Y-130749000D01*
X142894891Y-130751000D01*
X142875937Y-130846288D01*
X142821961Y-130927070D01*
X142741179Y-130981046D01*
X142645891Y-131000000D01*
X140408816Y-131000000D01*
X140426041Y-131215201D01*
X140495167Y-131581815D01*
X140602874Y-131939015D01*
X140747944Y-132282755D01*
X140928719Y-132609110D01*
X141143159Y-132914400D01*
X141143167Y-132914411D01*
X141388835Y-133195170D01*
X141388840Y-133195175D01*
X141662971Y-133448239D01*
X141962460Y-133670743D01*
X142132749Y-133771084D01*
X142205223Y-133835788D01*
X142247420Y-133923302D01*
X142252914Y-134020301D01*
X142220870Y-134112019D01*
X142156166Y-134184493D01*
X142152701Y-134187057D01*
X141934143Y-134345849D01*
X141934139Y-134345852D01*
X141677061Y-134581797D01*
X141672901Y-134585615D01*
X141655930Y-134605201D01*
X141440700Y-134853586D01*
X141240557Y-135146286D01*
X141240553Y-135146292D01*
X141075081Y-135459895D01*
X141075080Y-135459898D01*
X140965700Y-135740839D01*
X140913466Y-135822758D01*
X140833859Y-135878452D01*
X140738999Y-135899443D01*
X140733666Y-135899500D01*
X137789632Y-135899500D01*
X137779525Y-135899089D01*
X137726835Y-135894799D01*
X137726830Y-135894799D01*
X137646607Y-135905729D01*
X137566089Y-135914485D01*
X137554800Y-135916970D01*
X137543530Y-135919773D01*
X137467513Y-135947700D01*
X137390775Y-135973557D01*
X137380220Y-135978440D01*
X137369889Y-135983564D01*
X137322782Y-136013674D01*
X137301646Y-136027184D01*
X137284300Y-136037620D01*
X137232267Y-136068927D01*
X137223028Y-136075950D01*
X137214013Y-136083197D01*
X137156750Y-136140460D01*
X137097962Y-136196147D01*
X137089224Y-136206435D01*
X137088498Y-136205818D01*
X137074696Y-136222513D01*
X131570641Y-141726570D01*
X131489859Y-141780546D01*
X131394571Y-141799500D01*
X123564623Y-141799500D01*
X123469335Y-141780546D01*
X123388553Y-141726570D01*
X123334577Y-141645788D01*
X123327810Y-141627445D01*
X123293965Y-141523280D01*
X123293961Y-141523270D01*
X123146669Y-141200744D01*
X123146667Y-141200740D01*
X123146664Y-141200734D01*
X122963557Y-140897085D01*
X122747029Y-140616287D01*
X122499905Y-140362003D01*
X122225405Y-140137545D01*
X121927109Y-139945841D01*
X121927110Y-139945841D01*
X121927104Y-139945838D01*
X121879654Y-139922508D01*
X121802506Y-139863455D01*
X121753829Y-139779374D01*
X121741034Y-139683065D01*
X121766069Y-139589191D01*
X121825122Y-139512043D01*
X121867075Y-139482244D01*
X122078995Y-139362568D01*
X122365861Y-139154147D01*
X122627099Y-138914385D01*
X122859304Y-138646407D01*
X123059448Y-138353706D01*
X123224921Y-138040098D01*
X123353568Y-137709672D01*
X123443710Y-137366736D01*
X123494173Y-137015759D01*
X123504299Y-136661317D01*
X123473955Y-136308032D01*
X123403537Y-135960508D01*
X123293964Y-135623277D01*
X123293961Y-135623270D01*
X123146669Y-135300744D01*
X123146667Y-135300740D01*
X123146664Y-135300734D01*
X122963557Y-134997085D01*
X122747029Y-134716287D01*
X122499905Y-134462003D01*
X122225405Y-134237545D01*
X122030084Y-134112019D01*
X121927112Y-134045842D01*
X121819395Y-133992882D01*
X121784993Y-133975967D01*
X121707846Y-133916916D01*
X121659168Y-133832836D01*
X121646372Y-133736527D01*
X121671405Y-133642653D01*
X121730458Y-133565504D01*
X121772417Y-133535700D01*
X122078995Y-133362568D01*
X122365861Y-133154147D01*
X122627099Y-132914385D01*
X122847526Y-132660000D01*
X122859299Y-132646413D01*
X122859299Y-132646411D01*
X122859304Y-132646407D01*
X123059448Y-132353706D01*
X123224921Y-132040098D01*
X123334300Y-131759160D01*
X123386534Y-131677242D01*
X123466141Y-131621548D01*
X123561001Y-131600557D01*
X123566334Y-131600500D01*
X125960368Y-131600500D01*
X125970475Y-131600911D01*
X125992536Y-131602706D01*
X126023167Y-131605201D01*
X126103392Y-131594270D01*
X126183910Y-131585514D01*
X126195217Y-131583024D01*
X126206461Y-131580227D01*
X126206468Y-131580227D01*
X126282486Y-131552299D01*
X126359221Y-131526444D01*
X126359230Y-131526438D01*
X126369754Y-131521570D01*
X126380108Y-131516434D01*
X126380116Y-131516432D01*
X126448353Y-131472815D01*
X126517736Y-131431070D01*
X126517742Y-131431063D01*
X126526981Y-131424041D01*
X126535987Y-131416802D01*
X126593249Y-131359539D01*
X126652041Y-131303849D01*
X126660781Y-131293559D01*
X126661514Y-131294182D01*
X126675308Y-131277479D01*
X129779358Y-128173430D01*
X129860141Y-128119454D01*
X129955429Y-128100500D01*
X141018266Y-128100500D01*
X141113554Y-128119454D01*
G37*
G04 #@! TD.AperFunction*
G04 #@! TA.AperFunction,Conductor*
G36*
X167389860Y-128119454D02*
G01*
X167470641Y-128173430D01*
X167867852Y-128570641D01*
X168111663Y-128814451D01*
X168165640Y-128895233D01*
X168184594Y-128990521D01*
X168165640Y-129085809D01*
X168111664Y-129166590D01*
X168030882Y-129220567D01*
X167935594Y-129239521D01*
X167840306Y-129220567D01*
X167786374Y-129189856D01*
X167729843Y-129147537D01*
X167491302Y-129017284D01*
X167236660Y-128922308D01*
X166971090Y-128864536D01*
X166699999Y-128845147D01*
X166428909Y-128864536D01*
X166163339Y-128922308D01*
X165908697Y-129017284D01*
X165670156Y-129147538D01*
X165544875Y-129241320D01*
X165544875Y-129241321D01*
X166345850Y-130042298D01*
X166399826Y-130123079D01*
X166418780Y-130218367D01*
X166399826Y-130313655D01*
X166345849Y-130394437D01*
X166332858Y-130406534D01*
X166331343Y-130407847D01*
X166246921Y-130455930D01*
X166150524Y-130468047D01*
X166056829Y-130442352D01*
X165992195Y-130395750D01*
X165191320Y-129594875D01*
X165097538Y-129720156D01*
X164967284Y-129958697D01*
X164872308Y-130213339D01*
X164814536Y-130478909D01*
X164795147Y-130750000D01*
X164814536Y-131021090D01*
X164872308Y-131286660D01*
X164967284Y-131541302D01*
X165097535Y-131779838D01*
X165191320Y-131905122D01*
X165992195Y-131104249D01*
X166072977Y-131050273D01*
X166168265Y-131031319D01*
X166263553Y-131050273D01*
X166331340Y-131092150D01*
X166332858Y-131093465D01*
X166392452Y-131170196D01*
X166418147Y-131263891D01*
X166406030Y-131360288D01*
X166357947Y-131444710D01*
X166345850Y-131457701D01*
X165544875Y-132258677D01*
X165544875Y-132258678D01*
X165670159Y-132352464D01*
X165815741Y-132431958D01*
X165890290Y-132494261D01*
X165935322Y-132580349D01*
X165943981Y-132677117D01*
X165914950Y-132769833D01*
X165852647Y-132844382D01*
X165766559Y-132889414D01*
X165696408Y-132899500D01*
X163289632Y-132899500D01*
X163279525Y-132899089D01*
X163226835Y-132894799D01*
X163226830Y-132894799D01*
X163146607Y-132905729D01*
X163066089Y-132914485D01*
X163054800Y-132916970D01*
X163043533Y-132919772D01*
X162995432Y-132937443D01*
X162967499Y-132947705D01*
X162893171Y-132972749D01*
X162890776Y-132973557D01*
X162880223Y-132978439D01*
X162869880Y-132983568D01*
X162801631Y-133027193D01*
X162732261Y-133068931D01*
X162723024Y-133075953D01*
X162714013Y-133083197D01*
X162656750Y-133140460D01*
X162597962Y-133196147D01*
X162589224Y-133206435D01*
X162588498Y-133205818D01*
X162574696Y-133222513D01*
X159970641Y-135826570D01*
X159889859Y-135880546D01*
X159794571Y-135899500D01*
X149064623Y-135899500D01*
X148969335Y-135880546D01*
X148888553Y-135826570D01*
X148834577Y-135745788D01*
X148827810Y-135727445D01*
X148793965Y-135623280D01*
X148793961Y-135623270D01*
X148646669Y-135300744D01*
X148646667Y-135300740D01*
X148646664Y-135300734D01*
X148463557Y-134997085D01*
X148247029Y-134716287D01*
X147999905Y-134462003D01*
X147725405Y-134237545D01*
X147704759Y-134224277D01*
X147663778Y-134197939D01*
X147593864Y-134130477D01*
X147555089Y-134041395D01*
X147553356Y-133944255D01*
X147588928Y-133853847D01*
X147656390Y-133783933D01*
X147673832Y-133773409D01*
X147673641Y-133773084D01*
X147679342Y-133769724D01*
X147990257Y-133563472D01*
X148277459Y-133325361D01*
X148537737Y-133058059D01*
X148537739Y-133058057D01*
X148768125Y-132764610D01*
X148966017Y-132448334D01*
X149129167Y-132112817D01*
X149129174Y-132112800D01*
X149255731Y-131761863D01*
X149344275Y-131399434D01*
X149393793Y-131029652D01*
X149394584Y-131000000D01*
X147154109Y-131000000D01*
X147058821Y-130981046D01*
X146978039Y-130927070D01*
X146924063Y-130846288D01*
X146905109Y-130751000D01*
X146905109Y-130749000D01*
X146924063Y-130653712D01*
X146978039Y-130572930D01*
X147058821Y-130518954D01*
X147154109Y-130500000D01*
X149391184Y-130500000D01*
X149373958Y-130284798D01*
X149304832Y-129918184D01*
X149197125Y-129560984D01*
X149052055Y-129217244D01*
X148871280Y-128890889D01*
X148656840Y-128585599D01*
X148593726Y-128513469D01*
X148545242Y-128429276D01*
X148532668Y-128332938D01*
X148557918Y-128239121D01*
X148617148Y-128162109D01*
X148701341Y-128113625D01*
X148781117Y-128100500D01*
X167294572Y-128100500D01*
X167389860Y-128119454D01*
G37*
G04 #@! TD.AperFunction*
G04 #@! TA.AperFunction,Conductor*
G36*
X167343170Y-131057647D02*
G01*
X167407804Y-131104249D01*
X168223462Y-131919907D01*
X168239500Y-131921922D01*
X168313804Y-131961683D01*
X168376486Y-132010471D01*
X168376489Y-132010473D01*
X168376491Y-132010474D01*
X168595190Y-132128828D01*
X168607396Y-132133018D01*
X168691365Y-132181884D01*
X168750244Y-132259165D01*
X168775066Y-132353096D01*
X168762054Y-132449375D01*
X168713187Y-132533346D01*
X168702615Y-132544595D01*
X168420642Y-132826569D01*
X168339861Y-132880546D01*
X168244572Y-132899500D01*
X167703593Y-132899500D01*
X167608305Y-132880546D01*
X167527523Y-132826570D01*
X167473547Y-132745788D01*
X167454593Y-132650500D01*
X167473547Y-132555212D01*
X167527523Y-132474430D01*
X167584260Y-132431958D01*
X167729834Y-132352467D01*
X167729843Y-132352462D01*
X167855123Y-132258678D01*
X167855123Y-132258677D01*
X167054149Y-131457701D01*
X167000173Y-131376920D01*
X166981219Y-131281632D01*
X167000173Y-131186344D01*
X167054150Y-131105562D01*
X167067123Y-131093481D01*
X167068660Y-131092149D01*
X167153078Y-131044069D01*
X167249475Y-131031952D01*
X167343170Y-131057647D01*
G37*
G04 #@! TD.AperFunction*
M02*
