<?xml version="1.0" encoding="UTF-8" standalone="no"?>
<!-- Created with Inkscape (http://www.inkscape.org/) -->

<svg
   version="1.1"
   id="svg2"
   width="545.66119"
   height="595.00482"
   viewBox="0 0 545.66119 595.00482"
   sodipodi:docname="LM4562_Supply_Output_Voltage.png"
   inkscape:version="0.0"
   inkscape:export-filename="LM4562_Supply_Output_Voltage.svg"
   inkscape:export-xdpi="96"
   inkscape:export-ydpi="96"
   xmlns:inkscape="http://www.inkscape.org/namespaces/inkscape"
   xmlns:sodipodi="http://sodipodi.sourceforge.net/DTD/sodipodi-0.dtd"
   xmlns="http://www.w3.org/2000/svg"
   xmlns:svg="http://www.w3.org/2000/svg">
  <defs
     id="defs6" />
  <sodipodi:namedview
     id="namedview4"
     pagecolor="#959595"
     bordercolor="#000000"
     borderopacity="0.25"
     inkscape:showpageshadow="2"
     inkscape:pageopacity="0"
     inkscape:pagecheckerboard="0"
     inkscape:deskcolor="#d1d1d1"
     showgrid="false"
     inkscape:zoom="1.585443"
     inkscape:cx="533.92016"
     inkscape:cy="186.6986"
     inkscape:window-width="2560"
     inkscape:window-height="1377"
     inkscape:window-x="1912"
     inkscape:window-y="-8"
     inkscape:window-maximized="1"
     inkscape:current-layer="g8" />
  <g
     inkscape:groupmode="layer"
     inkscape:label="Image"
     id="g8"
     transform="translate(-34.657653,-28.649717)">
    <path
       style="fill:#ffffff"
       d="m 292.20409,622.75328 c -1.2375,-0.49742 -2.25,-1.59389 -2.25,-2.43662 0,-1.82678 1.34735,-1.95675 3.8811,-0.3744 2.51901,1.57315 5.1189,0.39155 5.1189,-2.32644 v -2.23138 l -1.2,1.2 c -1.78207,1.78207 -4.54271,1.45729 -6.8,-0.8 l -2,-2 v -2.77749 c 0,-1.52763 0.68253,-3.75194 1.51673,-4.94294 l 1.51673,-2.16543 4.98327,0.11351 4.98327,0.11351 v 8.27271 8.27272 l -2.22251,1.55671 c -2.48034,1.73729 -4.21202,1.85819 -7.52749,0.52554 z m 5.73922,-9.45585 1.23411,-1.48702 -0.64701,-2.5779 -0.64701,-2.57791 -2.21466,0.31492 -2.21465,0.31492 -0.32908,2.32273 c -0.67257,4.74714 2.14821,6.90753 4.8183,3.69026 z m -30.98922,-5.06071 v -9.54771 l 6.17063,0.29771 6.17063,0.29772 0.4127,1.25 0.41271,1.25 h -4.58334 -4.58333 v 2.5 2.5 h 3.5 3.5 v 1.5 1.5 h -3.5 -3.5 v 4 4 h -2 -2 z m 16,2.54772 v -7 h 1.5 1.5 v 7 7 h -1.5 -1.5 z m 24.14012,5.74012 -1.14012,-1.14012 v -5.8 -5.8 h 1.5 1.5 v 4.87756 4.87755 l 1.39405,1.15696 1.39406,1.15696 1.60594,-1.60594 1.60595,-1.60595 v -4.42857 -4.42857 h 1.5 1.5 v 6.82942 6.82942 l -4.85988,0.1107 c -2.67293,0.0609 -5.37293,-0.40235 -6,-1.02942 z m 14.85988,-5.62224 v -6.88211 l 4.06142,-0.0561 4.06141,-0.0561 -0.32511,1.68817 c -0.17881,0.92849 -0.76895,1.69506 -1.31142,1.70348 -0.54246,0.008 -1.5488,0.37248 -2.2363,0.80902 l -1.25,0.7937 v 4.44099 4.44098 h -1.5 -1.5 v -6.88212 z m 10.65499,5.05338 c -2.08364,-2.30239 -2.13051,-7.04735 -0.0983,-9.94875 l 1.55672,-2.22251 h 2.78831 2.7883 l 1.65499,1.82874 c 0.91025,1.00581 1.65499,2.80581 1.65499,4 v 2.17126 h -4 -4 v 1.39301 c 0,1.69554 2.70442,2.89426 3.52699,1.56332 0.32508,-0.52598 1.48032,-0.95633 2.56721,-0.95633 h 1.97617 l -1.07037,2 -1.07037,2 h -3.30983 -3.30982 z m 7.10002,-7.42126 c -0.22642,-0.6875 -1.38892,-1.3938 -2.58334,-1.56955 l -2.17167,-0.31955 v 1.56955 1.56955 h 2.58333 2.58334 z m 19.24499,2.74153 v -6.50848 l -1.95452,1.22062 c -3.58561,2.23925 -3.492,-0.22381 0.14679,-3.8626 l 3.59226,-3.59227 1.10774,0.68462 1.10773,0.68461 v 8.94099 8.94098 h -2 -2 z m 10.43872,4.05529 -1.6844,-2.57072 0.45803,-5.52324 c 0.48612,-5.86194 1.04011,-6.85241 4.39827,-7.86362 l 2.11063,-0.63554 2.26825,1.83672 2.26826,1.83672 0.41338,4.93643 0.41337,4.93643 -1.31506,2.5 -1.31506,2.5 -3.16563,0.30877 -3.16564,0.30876 z m 6.06128,-6.54682 v -5.47261 l -1.62904,-0.31372 -1.62903,-0.31373 -0.65505,2.60991 c -0.36027,1.43545 -0.3604,4.1805 -2.7e-4,6.10011 l 0.65476,3.4902 1.62932,-0.31377 1.62931,-0.31378 z m 12.5,2.49153 v -6.50848 l -1.95452,1.22062 c -3.58561,2.23925 -3.492,-0.22381 0.14679,-3.8626 l 3.59226,-3.59227 1.10774,0.68462 1.10773,0.68461 v 8.94099 8.94098 h -2 -2 z m 10,4.50847 v -2 h 1.5 1.5 v 2 2 h -1.5 -1.5 z m -115,-15.5 c 0,-0.825 0.675,-1.5 1.5,-1.5 0.825,0 1.5,0.675 1.5,1.5 0,0.825 -0.675,1.5 -1.5,1.5 -0.825,0 -1.5,-0.675 -1.5,-1.5 z m 148.92463,-11.64083 c -0.68057,-1.27166 -1.57464,-3.80737 -1.98681,-5.63489 l -0.74941,-3.32277 0.99373,-3.70075 c 0.54655,-2.03542 1.58297,-4.3135 2.30315,-5.0624 l 1.30943,-1.36165 -1.54084,5.53589 -1.54083,5.53589 1.58162,4.80427 c 1.73837,5.28037 1.56125,6.81507 -0.37004,3.20641 z m 21.61092,-1.29 c 1.86026,-4.45223 1.86599,-9.6724 0.0155,-14.10129 -0.79696,-1.90733 -1.07082,-3.46788 -0.6086,-3.46788 4.51592,0 4.68454,17.64036 0.19513,20.41497 l -1.06649,0.65913 z m -230.0411,-3.5753 c -2.23056,-2.46475 -1.24296,-3.88524 1.08365,-1.55863 l 1.67334,1.67334 2.62428,-0.30429 2.62428,-0.30429 v -1.91667 -1.91666 l -4.16399,-1.388 c -4.58839,-1.52946 -5.86664,-3.41865 -4.29724,-6.35111 l 1.0316,-1.92756 h 3.92963 3.92963 l 1.07037,2 1.07037,2 h -0.91274 c -0.50201,0 -1.47294,-0.675 -2.15763,-1.5 -1.58148,-1.90557 -4.40133,-1.92628 -5.96365,-0.0438 -1.63659,1.97198 -0.69659,3.16175 3.09753,3.92058 4.16809,0.83361 5.86612,2.34186 5.86612,5.21048 v 2.34237 l -1.93426,1.03519 c -3.03206,1.62271 -6.58867,1.21982 -8.57129,-0.97095 z m 15.70555,0.80613 -1.2,-1.2 0.16004,-7.05 c 0.088,-3.8775 0.31746,-5.475 0.50987,-3.55 0.1924,1.925 0.58975,4.95703 0.88299,6.73785 l 0.53317,3.23784 1.95696,1.04734 1.95697,1.04734 2,-1.07037 2,-1.07037 v -6.46481 -6.46482 h 1 1 v 6.42857 6.42857 l -1.57143,1.57143 c -1.85518,1.85518 -7.51695,2.08305 -9.22857,0.37143 z m 14.8,-6.8 v -8 h 5.02144 5.02144 l 1.17446,2.57766 1.17446,2.57766 -1.04775,1.67234 -1.04774,1.67234 -4.14815,0.3075 -4.14816,0.3075 v 3.4425 c 0,1.89337 -0.45,3.4425 -1,3.4425 h -1 z m 8.47135,-1.35539 1.85361,-1.35539 -0.6311,-1.64461 -0.63109,-1.64461 h -3.53139 -3.53138 v 3 3 h 2.30887 c 1.26988,0 3.143,-0.60993 4.16248,-1.35539 z m 6.52865,1.35539 v -8 h 5.02144 5.02144 l 1.17446,2.57766 1.17446,2.57766 -1.04775,1.67234 -1.04774,1.67234 -4.14815,0.3075 -4.14816,0.3075 v 3.4425 c 0,1.89337 -0.45,3.4425 -1,3.4425 h -1 z m 8.47135,-1.35539 1.85361,-1.35539 -0.6311,-1.64461 -0.63109,-1.64461 h -3.53139 -3.53138 v 3 3 h 2.30887 c 1.26988,0 3.143,-0.60993 4.16248,-1.35539 z m 6.52865,1.35539 v -8 h 1 1 v 7 7 h 3.44098 c 1.89254,0 3.7191,0.45 4.05902,1 l 0.61803,1 h -5.05901 -5.05902 z m 17,4.7 c 0,-1.815 -0.37798,-3.7275 -0.83996,-4.25 -0.46199,-0.5225 -1.84869,-2.6375 -3.08156,-4.7 -2.86972,-4.8008 -0.94346,-4.91682 2.30334,-0.13873 l 2.45392,3.61127 2.33213,-3.59889 c 1.28267,-1.97939 2.91625,-3.60446 3.63017,-3.61127 l 1.29804,-0.0124 -3.04804,4.43018 -3.04804,4.43017 v 3.56983 c 0,1.9634 -0.45,3.56982 -1,3.56982 -0.55,0 -1,-1.485 -1,-3.3 z m 18.13895,-4.33001 c -1.72584,-4.23741 -2.94307,-7.89921 -2.70495,-8.13732 1.05208,-1.05209 2.35047,1.10132 4.05154,6.71956 2.28901,7.5601 2.62043,7.53254 5.43929,-0.45223 1.26208,-3.575 2.72563,-6.5 3.25232,-6.5 h 0.95763 l -0.62866,1.98072 c -4.74755,14.9582 -6.44986,16.00733 -10.36717,6.38927 z m 15.03536,5.31556 -2.17431,-2.31445 v -3.68555 -3.68555 l 2,-2 2,-2 3.25,0.0153 c 7.0492,0.0332 10.24371,7.54474 5.67742,13.34983 l -2.07258,2.63487 h -3.25311 -3.2531 z m 10.21934,-2.90455 c 0.49151,-1.37507 0.5916,-3.70363 0.22242,-5.17458 l -0.67125,-2.67444 -2.43144,-1.10784 -2.43145,-1.10784 -2.54097,1.6649 -2.54096,1.66491 v 3.28581 c 0,7.33479 8.0499,10.00611 10.39365,3.44908 z m 5.60635,-2.781 v -8 h 1 1 v 7 7 h 3.44098 c 1.89254,0 3.7191,0.45 4.05902,1 l 0.61803,1 h -5.05901 -5.05902 z m 17,1 v -7 h -2.44098 c -1.34254,0 -2.7191,-0.45 -3.05902,-1 l -0.61803,-1 h 6.55901 6.55902 v 1 c 0,0.55 -1.125,1 -2.5,1 h -2.5 v 7 7 h -1 -1 z m 7.98278,6.25 c -0.0497,-2.16607 5.64884,-15.25 6.64197,-15.25 0.97151,0 2.54895,3.27988 7.09392,14.75 0.27242,0.6875 -0.014,1.25 -0.63643,1.25 -0.62246,0 -1.55947,-1.125 -2.08224,-2.5 l -0.9505,-2.5 h -3.5057 -3.5057 l -0.62746,2.5 c -0.56792,2.2628 -2.386,3.57327 -2.42786,1.75 z m 8.46364,-8.5 c -0.37859,-1.2375 -1.00164,-2.83455 -1.38456,-3.54901 l -0.69622,-1.299 -1.08922,3.549 -1.08922,3.54901 h 2.47379 2.47379 z m 9.55358,7.25 -2,-2 v -4 -4 l 2,-2 2,-2 h 3.42857 3.42857 l 1.61905,1.61905 c 2.3541,2.3541 1.25653,2.70845 -2.21606,0.71546 l -3.01075,-1.72793 -2.67931,1.75555 -2.67932,1.75556 0.30463,4.16777 0.30462,4.16777 2.39458,1.18768 2.39457,1.18768 2.10543,-0.77715 c 1.15798,-0.42744 2.25092,-1.51387 2.42874,-2.4143 l 0.32333,-1.63714 h -2.07333 c -1.14032,0 -2.07332,-0.45 -2.07332,-1 0,-0.55 1.35,-1 3,-1 h 3 v 2.96482 2.96481 l -1.93426,1.03519 c -1.06384,0.56935 -3.31384,1.03518 -5,1.03518 h -3.06574 z m 16,-6 v -8 h 5.5 5.5 v 1 1 h -5.06955 -5.06955 l 0.31955,2.25 0.31955,2.25 4.25,0.3075 c 5.66497,0.40987 5.4617,2.1925 -0.25,2.1925 h -4.5 v 2.5 2.5 h 5 5 v 1 1 h -5.5 -5.5 z m 32.53633,7.05878 c -0.6853,-1.10884 -5.53633,-13.8855 -5.53633,-14.58161 0,-2.60554 2.27888,0.85087 4.02958,6.11172 2.4373,7.32409 2.859,7.28381 5.72104,-0.54646 1.09714,-3.00166 2.50565,-5.62785 3.13003,-5.83598 l 1.13523,-0.37841 -1.09691,2.83598 c -0.60331,1.55979 -1.98921,5.19848 -3.07979,8.08598 -1.92156,5.08764 -3.09516,6.26286 -4.30285,4.30878 z M 104.95409,549.2416 c 0,-0.29856 2.07705,-2.76338 4.61567,-5.47737 l 4.61568,-4.93453 -0.58429,-1.52263 c -0.79264,-2.06559 -4.62002,-1.92647 -6.25501,0.22737 l -1.32844,1.75 -0.0318,-1.55 c -0.0772,-3.76075 5.44915,-5.3262 8.39677,-2.37857 2.45919,2.45919 1.89056,4.43466 -2.47068,8.58341 l -4.0421,3.84516 h 4.0421 c 2.22316,0 4.04211,0.45 4.04211,1 v 1 h -5.5 c -3.025,0 -5.5,-0.24428 -5.5,-0.54284 z m 14,-0.45716 c 0,-0.55 0.675,-1 1.5,-1 0.825,0 1.5,0.45 1.5,1 0,0.55 -0.675,1 -1.5,1 -0.825,0 -1.5,-0.45 -1.5,-1 z m 6.52381,-0.61905 c -2.31947,-2.31947 -0.94283,-3.07013 1.52859,-0.83352 l 2.06467,1.86849 1.69147,-1.06514 c 2.18715,-1.37729 2.68798,-4.04758 1.11469,-5.94328 l -1.24191,-1.49642 -2.98803,0.65628 -2.98802,0.65628 0.64737,-3.23682 c 0.35605,-1.78025 0.64736,-3.63057 0.64736,-4.11182 0,-0.48125 1.8,-0.875 4,-0.875 4.77836,0 5.38159,1.73974 0.75819,2.18664 l -3.24181,0.31336 -0.31845,1.68215 -0.31844,1.68214 3.2922,0.31786 3.2922,0.31785 0.95045,2.71972 0.95044,2.71972 -1.83738,2.03028 c -2.2113,2.44346 -5.78761,2.62722 -8.00359,0.41123 z m 41.47619,-0.38095 v -2 h -3.5 c -4.34167,0 -4.33684,-0.26763 0.12178,-6.74134 4.47236,-6.49368 5.37822,-6.57093 5.37822,-0.45866 0,2.64 0.54,5.34 1.2,6 l 1.2,1.2 h -1.2 c -0.66,0 -1.2,0.9 -1.2,2 0,1.1 -0.45,2 -1,2 -0.55,0 -1,-0.9 -1,-2 z m 0,-7 c 0,-1.65 -0.19436,-3 -0.43191,-3 -0.23754,0 -1.39319,1.35 -2.56809,3 l -2.13619,3 h 2.5681 2.56809 z m 7,8 c 0,-0.55 0.675,-1 1.5,-1 0.825,0 1.5,0.45 1.5,1 0,0.55 -0.675,1 -1.5,1 -0.825,0 -1.5,-0.45 -1.5,-1 z m 6.52381,-0.61905 c -2.31947,-2.31947 -0.94283,-3.07013 1.52859,-0.83352 l 2.06467,1.86849 1.69147,-1.06514 c 2.18715,-1.37729 2.68798,-4.04758 1.11469,-5.94328 l -1.24191,-1.49642 -2.98803,0.65628 -2.98802,0.65628 0.64737,-3.23682 c 0.35605,-1.78025 0.64736,-3.63057 0.64736,-4.11182 0,-0.48125 1.8,-0.875 4,-0.875 4.77836,0 5.38159,1.73974 0.75819,2.18664 l -3.24181,0.31336 -0.31845,1.68215 -0.31844,1.68214 3.2922,0.31786 3.2922,0.31785 0.95045,2.71972 0.95044,2.71972 -1.83738,2.03028 c -2.2113,2.44346 -5.78761,2.62722 -8.00359,0.41123 z m 35.55024,0.20828 c -1.75445,-2.11398 -2.37294,-7.73191 -1.19025,-10.8113 l 1.04546,-2.72207 2.62001,-0.65758 2.62,-0.65758 1.60584,1.60584 1.60584,1.60584 -0.82738,0.77381 c -0.45506,0.4256 -1.02827,0.21131 -1.27381,-0.47619 -0.92148,-2.58016 -6.27976,-0.66101 -6.27976,2.2492 v 1.0992 l 3.47302,-0.40546 3.47303,-0.40545 1.16883,2.56529 1.16882,2.56529 -1.6649,2.54097 -1.66491,2.54096 h -2.3545 c -1.29497,0 -2.88138,-0.63485 -3.52534,-1.41077 z m 5.88608,-1.04119 c 1.57111,-1.89307 1.00378,-4.54967 -1.2687,-5.94086 l -1.80857,-1.10718 -1.44143,1.94113 c -2.90802,3.91614 1.43416,8.82355 4.5187,5.10691 z m 6.03987,1.45196 c 0,-0.55 0.45,-1 1,-1 0.55,0 1,0.45 1,1 0,0.55 -0.45,1 -1,1 -0.55,0 -1,-0.45 -1,-1 z m 6.52381,-0.61905 c -2.31947,-2.31947 -0.94283,-3.07013 1.52859,-0.83352 l 2.06467,1.86849 1.69147,-1.06514 c 2.18715,-1.37729 2.68798,-4.04758 1.11469,-5.94328 l -1.24191,-1.49642 -2.98803,0.65628 -2.98802,0.65628 0.64737,-3.23682 c 0.35605,-1.78025 0.64736,-3.63057 0.64736,-4.11182 0,-0.48125 1.8,-0.875 4,-0.875 4.77836,0 5.38159,1.73974 0.75819,2.18664 l -3.24181,0.31336 -0.31845,1.68215 -0.31844,1.68214 3.2922,0.31786 3.2922,0.31785 0.95045,2.71972 0.95044,2.71972 -1.83738,2.03028 c -2.2113,2.44346 -5.78761,2.62722 -8.00359,0.41123 z m 36.67619,0.41905 c -1.45737,-1.45737 -1.58163,-5.44611 -0.19633,-6.30227 l 1.00367,-0.6203 -0.61534,-2.4517 -0.61533,-2.4517 1.23411,-1.48702 c 0.67876,-0.81785 2.28818,-1.48701 3.57648,-1.48701 h 2.34237 l 1.07037,2 1.07037,2 -1.03789,1.93931 -1.03789,1.93931 1.00271,0.61971 c 3.14324,1.94263 0.18108,7.50167 -3.9973,7.50167 -1.43,0 -3.14,-0.54 -3.8,-1.2 z m 6.22659,-1.36945 1.56944,-1.56944 -1.0332,-1.93056 c -1.10121,-2.05763 -1.86598,-2.28868 -4.38104,-1.32356 -1.87146,0.71814 -2.0759,3.4989 -0.38179,5.19301 1.58114,1.58114 2.34256,1.51458 4.22659,-0.36945 z m 0.13272,-10.33459 c -0.37254,-0.60278 -1.55079,-1.09596 -2.61833,-1.09596 h -1.94098 v 1.91667 c 0,1.05416 0.5625,2.12521 1.25,2.3801 1.66041,0.61559 4.16863,-1.81039 3.30931,-3.20081 z m 5.44069,11.90404 c 0,-0.55 0.675,-1 1.5,-1 0.825,0 1.5,0.45 1.5,1 0,0.55 -0.675,1 -1.5,1 -0.825,0 -1.5,-0.45 -1.5,-1 z m 7.02232,-0.4731 c -1.79598,-2.16403 -0.50323,-3.15067 1.50149,-1.14595 2.64977,2.64977 5.47619,1.11482 5.47619,-2.97396 0,-2.57752 -2.17284,-3.6527 -5.62883,-2.7853 l -2.46991,0.61991 0.63289,-2.8708 c 0.34809,-1.57894 0.80619,-3.4333 1.01799,-4.1208 l 0.38509,-1.25 h 3.53139 c 1.94226,0 3.53138,0.45 3.53138,1 0,0.55 -1.29752,1 -2.88337,1 h -2.88337 l -0.50855,1.9447 -0.50855,1.9447 3.04107,0.3053 c 1.67259,0.16792 3.51917,1.06905 4.10352,2.00253 l 1.06245,1.69723 -0.97966,2.80277 -0.97965,2.80277 -3.06712,0.30107 -3.06712,0.30106 z m 33.97768,-4.59429 v -6.06739 l -2.25,0.6916 -2.25,0.6916 2.42431,-2.62421 c 3.63292,-3.93246 4.07569,-3.34845 4.07569,5.37579 v 8 h -1 -1 z m 8.5567,3.84488 c -4.69483,-6.70281 1.45376,-17.62417 6.87187,-12.20606 l 1.57143,1.57143 v 4.49431 c 0,2.47187 -0.46583,5.36473 -1.03518,6.42857 l -1.03519,1.93426 h -2.40811 -2.40811 z m 5.37882,-0.1998 1.18041,-1.4223 -0.30797,-4.8277 -0.30796,-4.82769 h -2.5 -2.5 l -0.30796,4.82769 -0.30797,4.8277 1.18041,1.4223 c 0.64923,0.78227 1.52021,1.42231 1.93552,1.42231 0.41531,0 1.28629,-0.64004 1.93552,-1.42231 z m 6.06448,1.42231 c 0,-0.55 0.675,-1 1.5,-1 0.825,0 1.5,0.45 1.5,1 0,0.55 -0.675,1 -1.5,1 -0.825,0 -1.5,-0.45 -1.5,-1 z m 7.02232,-0.4731 c -1.79598,-2.16403 -0.50323,-3.15067 1.50149,-1.14595 2.64977,2.64977 5.47619,1.11482 5.47619,-2.97396 0,-2.57752 -2.17284,-3.6527 -5.62883,-2.7853 l -2.46991,0.61991 0.63289,-2.8708 c 0.34809,-1.57894 0.80619,-3.4333 1.01799,-4.1208 l 0.38509,-1.25 h 3.53139 c 1.94226,0 3.53138,0.45 3.53138,1 0,0.55 -1.29752,1 -2.88337,1 h -2.88337 l -0.50855,1.9447 -0.50855,1.9447 3.04107,0.3053 c 1.67259,0.16792 3.51917,1.06905 4.10352,2.00253 l 1.06245,1.69723 -0.97966,2.80277 -0.97965,2.80277 -3.06712,0.30107 -3.06712,0.30106 z m 27.97768,-4.59429 v -6.06739 l -2.25,0.6916 -2.25,0.6916 2.42431,-2.62421 c 3.63292,-3.93246 4.07569,-3.34845 4.07569,5.37579 v 8 h -1 -1 z m 6,5.52455 c 0,-0.29856 2.07705,-2.76338 4.61567,-5.47737 l 4.61568,-4.93453 -0.58429,-1.52263 c -0.79264,-2.06559 -4.62002,-1.92647 -6.25501,0.22737 l -1.32844,1.75 -0.0318,-1.55 c -0.0772,-3.76075 5.44915,-5.3262 8.39677,-2.37857 2.45919,2.45919 1.89056,4.43466 -2.47068,8.58341 l -4.0421,3.84516 h 4.0421 c 2.22316,0 4.04211,0.45 4.04211,1 v 1 h -5.5 c -3.025,0 -5.5,-0.24428 -5.5,-0.54284 z m 14,-0.45716 c 0,-0.55 0.45,-1 1,-1 0.55,0 1,0.45 1,1 0,0.55 -0.45,1 -1,1 -0.55,0 -1,-0.45 -1,-1 z m 6.52381,-0.61905 c -2.31947,-2.31947 -0.94283,-3.07013 1.52859,-0.83352 l 2.06467,1.86849 1.69147,-1.06514 c 2.18715,-1.37729 2.68798,-4.04758 1.11469,-5.94328 l -1.24191,-1.49642 -2.98803,0.65628 -2.98802,0.65628 0.64737,-3.23682 c 0.35605,-1.78025 0.64736,-3.63057 0.64736,-4.11182 0,-0.48125 1.8,-0.875 4,-0.875 4.77836,0 5.38159,1.73974 0.75819,2.18664 l -3.24181,0.31336 -0.31845,1.68215 -0.31844,1.68214 3.2922,0.31786 3.2922,0.31785 0.95045,2.71972 0.95044,2.71972 -1.83738,2.03028 c -2.2113,2.44346 -5.78761,2.62722 -8.00359,0.41123 z m 28.47619,-4.44834 v -6.06739 l -2.25,0.6916 -2.25,0.6916 2.42431,-2.62421 c 3.63292,-3.93246 4.07569,-3.34845 4.07569,5.37579 v 8 h -1 -1 z m 13,4.06739 v -2 h -3.5 c -4.32679,0 -4.32758,0.0206 0.25,-6.57398 4.62195,-6.65848 5.25,-6.71941 5.25,-0.50935 v 4.91666 l 1.25,0.58334 1.25,0.58333 -1.25,0.58333 c -0.6875,0.32084 -1.25,1.44584 -1.25,2.5 0,1.05417 -0.45,1.91667 -1,1.91667 -0.55,0 -1,-0.9 -1,-2 z m -0.0222,-7.25 -0.0222,-3.25 -1.9556,2.5 c -2.48795,3.18067 -2.48795,4 0,4 h 2 z m 7.0222,8.25 c 0,-0.55 0.675,-1 1.5,-1 0.825,0 1.5,0.45 1.5,1 0,0.55 -0.675,1 -1.5,1 -0.825,0 -1.5,-0.45 -1.5,-1 z m 7.02232,-0.4731 c -1.79598,-2.16403 -0.50323,-3.15067 1.50149,-1.14595 2.64977,2.64977 5.47619,1.11482 5.47619,-2.97396 0,-2.57752 -2.17284,-3.6527 -5.62883,-2.7853 l -2.46991,0.61991 0.63289,-2.8708 c 0.34809,-1.57894 0.80619,-3.4333 1.01799,-4.1208 l 0.38509,-1.25 h 3.53139 c 1.94226,0 3.53138,0.45 3.53138,1 0,0.55 -1.29752,1 -2.88337,1 h -2.88337 l -0.50855,1.9447 -0.50855,1.9447 3.04107,0.3053 c 1.67259,0.16792 3.51917,1.06905 4.10352,2.00253 l 1.06245,1.69723 -0.97966,2.80277 -0.97965,2.80277 -3.06712,0.30107 -3.06712,0.30106 z m 26.97768,-4.43328 v -5.90638 l -2.25,0.55713 -2.25,0.55713 2.80152,-2.65075 c 3.78498,-3.58128 3.69848,-3.7064 3.69848,5.34925 v 8 h -1 -1 z m 9.07405,4.49561 c -1.75445,-2.11398 -2.37294,-7.73191 -1.19025,-10.8113 l 1.04546,-2.72207 2.62001,-0.65758 2.62,-0.65758 1.60584,1.60584 1.60584,1.60584 -0.82738,0.77381 c -0.45506,0.4256 -1.02827,0.21131 -1.27381,-0.47619 -0.92148,-2.58016 -6.27976,-0.66101 -6.27976,2.2492 v 1.0992 l 3.47302,-0.40546 3.47303,-0.40545 1.16883,2.56529 1.16882,2.56529 -1.6649,2.54097 -1.66491,2.54096 h -2.3545 c -1.29497,0 -2.88138,-0.63485 -3.52534,-1.41077 z m 5.88608,-1.04119 c 1.57111,-1.89307 1.00378,-4.54967 -1.2687,-5.94086 l -1.80857,-1.10718 -1.44143,1.94113 c -2.90802,3.91614 1.43416,8.82355 4.5187,5.10691 z m 6.03987,1.45196 c 0,-0.55 0.45,-1 1,-1 0.55,0 1,0.45 1,1 0,0.55 -0.45,1 -1,1 -0.55,0 -1,-0.45 -1,-1 z m 5.97994,-0.52417 c -1.83155,-2.20689 -0.32848,-3.10123 1.86931,-1.11226 l 1.86151,1.68465 1.5673,-0.60143 c 2.21104,-0.84845 2.90255,-3.2408 1.62614,-5.62579 l -1.08862,-2.03412 -2.90779,0.58156 -2.90779,0.58156 v -2.39321 c 0,-1.31627 0.27314,-3.10502 0.60699,-3.975 l 0.60699,-1.58179 h 3.89301 c 2.14115,0 3.89301,0.45 3.89301,1 0,0.55 -1.575,1 -3.5,1 h -3.5 v 1.93664 1.93664 l 3.25,0.31336 3.25,0.31336 0.31823,3.31532 c 0.53231,5.54561 -5.47483,8.71323 -8.83829,4.66051 z m 28.02006,-4.44445 v -5.96861 l -1.75,0.62874 -1.75,0.62875 2.42431,-2.66013 c 3.21648,-3.52935 3.07569,-3.77378 3.07569,5.33987 v 8 h -1 -1 z m 8.57143,4.39719 c -1.93238,-1.93238 -2.00703,-3.94281 -0.20877,-5.62263 l 1.36266,-1.27291 -1.10537,-1.76997 -1.10536,-1.76997 1.10169,-1.74655 1.10169,-1.74654 h 2.78203 2.78203 l 1.10169,1.74654 1.10169,1.74655 -1.10536,1.76997 -1.10537,1.76997 1.36266,1.27291 c 2.85784,2.66962 0.25581,7.19406 -4.13734,7.19406 -1.29643,0 -3.06429,-0.70714 -3.92857,-1.57143 z m 6.80444,-1.65981 1.09023,-1.73123 -1.65551,-1.65551 -1.65551,-1.65551 -1.60022,0.61406 c -2.26541,0.86932 -3.00206,3.41566 -1.5087,5.21505 1.55489,1.87353 3.86955,1.53181 5.32971,-0.78686 z m -0.37587,-8.87575 v -1.89301 h -2.5 -2.5 v 1.91667 c 0,1.05416 0.5625,2.11287 1.25,2.35269 2.05359,0.71633 3.75,-0.35867 3.75,-2.37635 z m 6,11.10699 c 0,-0.55 0.45,-1 1,-1 0.55,0 1,0.45 1,1 0,0.55 -0.45,1 -1,1 -0.55,0 -1,-0.45 -1,-1 z m 6.52381,-0.61905 c -2.31947,-2.31947 -0.94283,-3.07013 1.52859,-0.83352 l 2.06467,1.86849 1.69147,-1.06514 c 2.18715,-1.37729 2.68798,-4.04758 1.11469,-5.94328 l -1.24191,-1.49642 -2.98803,0.65628 -2.98802,0.65628 0.64737,-3.23682 c 0.35605,-1.78025 0.64736,-3.63057 0.64736,-4.11182 0,-0.48125 1.8,-0.875 4,-0.875 4.77836,0 5.38159,1.73974 0.75819,2.18664 l -3.24181,0.31336 -0.31845,1.68215 -0.31844,1.68214 3.2922,0.31786 3.2922,0.31785 0.95045,2.71972 0.95044,2.71972 -1.83738,2.03028 c -2.2113,2.44346 -5.78761,2.62722 -8.00359,0.41123 z M 101.51079,526.56193 c -4.694827,-6.70281 1.45376,-17.62417 6.87187,-12.20606 l 1.57143,1.57143 v 4.49431 c 0,2.47187 -0.46583,5.36473 -1.03518,6.42857 l -1.03519,1.93426 h -2.40811 -2.40811 z m 5.37882,-0.1998 1.18041,-1.4223 -0.30797,-4.8277 -0.30796,-4.82769 h -2.5 -2.5 l -0.30796,4.82769 -0.30797,4.8277 1.18041,1.4223 c 0.64923,0.78227 1.52021,1.42231 1.93552,1.42231 0.41531,0 1.28629,-0.64004 1.93552,-1.42231 z m 12.73338,-1.24212 c -0.36789,-0.3679 -0.6689,-99.36033 -0.6689,-219.98318 V 85.822535 l 2.25,-0.542356 c 1.2375,-0.298295 100.125,-0.419369 219.75,-0.269052 l 217.5,0.273304 v 220.000009 220 l -219.0811,0.25224 c -120.4946,0.13873 -219.3821,-0.0488 -219.75,-0.41667 z m 55.09535,-33.08557 0.26424,-31.25 h -10.07389 -10.0739 l -16.39445,13.25 -16.39446,13.25 -0.0459,18.2666 -0.0459,18.26661 26.25,-0.26661 26.25,-0.2666 z m 54.23575,0.25 v -31.5 h -26.5 -26.5 v 30.83333 c 0,16.95834 0.3,31.13334 0.66667,31.5 0.36666,0.36667 12.29166,0.66667 26.5,0.66667 h 25.83333 z m 55,0 v -31.5 h -26.5 -26.5 v 31.5 31.5 h 26.5 26.5 z m 54.76425,-0.25 0.26424,-31.25 h -27.01424 -27.01425 v 30.83333 c 0,16.95834 0.30731,31.14065 0.68291,31.51625 0.3756,0.3756 12.4131,0.5631 26.75,0.41667 l 26.06709,-0.26625 z m 54.23575,0.25 v -31.5 h -26.5 -26.5 v 31.5 31.5 h 26.5 26.5 z m 54.76425,-0.25 0.26424,-31.25 h -26.51424 -26.51425 v 31.5166 31.51661 l 26.25,-0.26661 26.25,-0.2666 z m 55,0 0.26424,-31.25 h -27.01424 -27.01425 v 30.83333 c 0,16.95834 0.30731,31.14065 0.68291,31.51625 0.3756,0.3756 12.4131,0.5631 26.75,0.41667 l 26.06709,-0.26625 z m 54.23575,0.25 v -31.5 h -26.5 -26.5 v 31.5 31.5 h 26.5 26.5 z m -420.75,-21.92989 c 5.9125,-4.79184 10.75,-8.90541 10.75,-9.14127 0,-0.23586 -5.625,-0.42884 -12.5,-0.42884 h -12.5 v 10.65499 10.65499 l 1.75,-1.51373 c 0.9625,-0.83254 6.5875,-5.43431 12.5,-10.22614 z m 16.34996,-13.4618 c 2.14502,-1.59043 7.95004,-6.21972 12.90004,-10.28731 l 9,-7.39562 0.27114,-19.71269 0.27114,-19.71269 h -26.52114 -26.52114 v 30 30 h 13.34996 13.34996 z m 21.9829,1.53636 c 0.28605,-0.74543 0.38442,-4.12172 0.21861,-7.50287 l -0.30147,-6.14755 -7.5,6.09073 c -4.125,3.34991 -8.15893,6.7262 -8.96429,7.50288 l -1.46428,1.41214 h 8.74567 8.74567 z m 54.41714,-28.29966 v -29.65499 l -1.75,1.49695 c -0.9625,0.82331 -10.3,8.4048 -20.75,16.84773 -10.45,8.44294 -21.5875,17.55858 -24.75,20.25699 l -5.75,4.9062 v 7.90105 7.90106 h 26.5 26.5 z m 55,-0.34501 v -30 h -26.5 -26.5 v 30 30 h 26.5 26.5 z m 54.76488,-0.25 0.26488,-29.75 h -27.01488 -27.01488 v 29.33333 c 0,16.13334 0.30731,29.64065 0.68291,30.01625 0.3756,0.3756 12.4131,0.5631 26.75,0.41667 l 26.06709,-0.26625 z m 54.23512,0.25 v -30 h -26.5 -26.5 v 30 30 h 26.5 26.5 z m 55,0 v -30 h -26.5 -26.5 v 30 30 h 26.5 26.5 z m 54.76488,-0.25 0.26488,-29.75 h -27.01488 -27.01488 v 29.33333 c 0,16.13334 0.30731,29.64065 0.68291,30.01625 0.3756,0.3756 12.4131,0.5631 26.75,0.41667 l 26.06709,-0.26625 z m 54.23512,0.25 v -30 h -26.5 -26.5 v 30 30 h 26.5 26.5 z m -356.25,-11.96581 c 11.6875,-9.50029 21.25,-17.44446 21.25,-17.65372 0,-0.20926 -10.35,-0.38047 -23,-0.38047 h -23 v 19.15499 19.15499 l 1.75,-1.50127 c 0.9625,-0.82569 11.3125,-9.27423 23,-18.77452 z m -25.75,-50.03419 v -31 h -26.5 -26.5 v 31 31 h 26.5 26.5 z m 51.75,29.05644 2.25,-1.87703 v -29.0897 -29.08971 h -26.5 -26.5 v 31 31 l 24.25,-0.0333 24.25,-0.0333 2.25,-1.87702 z m 57.25,-20.73075 v -22.67432 l -2.25,2.0146 c -1.2375,1.10804 -11.925,10.25172 -23.75,20.31931 -11.825,10.06759 -22.61477,19.36446 -23.97727,20.65971 l -2.47728,2.35501 h 26.22728 26.22727 z m 54.76445,-8.57569 0.26445,-30.75 -17.26445,0.006 -17.26445,0.006 -7,5.56882 c -3.85,3.06285 -8.2375,6.74454 -9.75,8.18152 l -2.75,2.61269 v 22.14624 c 0,26.67715 -3.67443,23.56355 27.43291,23.24583 l 26.06709,-0.2671 z m 54.23555,0.25 v -31 h -26.5 -26.5 v 31 31 h 26.5 26.5 z m 55,0 v -31 h -26.5 -26.5 v 31 31 h 26.5 26.5 z m 54.76445,-0.25 0.26445,-30.75 h -27.01445 -27.01445 v 31.01633 31.01634 l 26.75,-0.26634 26.75,-0.26633 z m 54.23555,0.25 v -31 h -26.5 -26.5 v 31 31 h 26.5 26.5 z m -297.75,1.12945 24.75,-21.19188 v -5.46879 -5.46878 h -26.5 -26.5 v 28.15499 28.15499 l 1.75,-1.49433 c 0.9625,-0.82188 12.8875,-11.03067 26.5,-22.6862 z m 32.26833,-27.23086 c 2.73992,-2.25577 5.16917,-4.28077 5.39834,-4.5 0.22916,-0.21922 -2.35834,-0.39859 -5.75,-0.39859 h -6.16667 v 4.5 c 0,5.50682 0.29206,5.52468 6.51833,0.39859 z m -116.75345,-36.14859 0.26488,-29.75 h -26.51488 -26.51488 v 30.0166 30.01661 l 26.25,-0.26661 26.25,-0.2666 z m 54.23512,0.25 v -30 h -26.5 -26.5 v 29.33333 c 0,16.13334 0.3,29.63334 0.66667,30 0.36666,0.36667 12.29166,0.66667 26.5,0.66667 h 25.83333 z m 55,0 v -30 h -26.5 -26.5 v 30 30 h 26.5 26.5 z m 32.09827,15.90204 c 9.57095,-7.75388 18.63923,-15.26307 20.15173,-16.68709 l 2.75,-2.58913 v -13.31291 -13.31291 h -27 -27 v 29.33333 c 0,33.22865 -0.62782,30.66667 7.51494,30.66667 h 6.1816 z m 22.68231,0.75443 0.28057,-12.84352 -1.0581,0.3527 c -1.6798,0.55993 -30.8693,24.2493 -30.93965,25.10974 -0.0349,0.42647 7.0241,0.65147 15.6866,0.5 l 15.75,-0.27539 z m 54.21942,-16.65647 v -30 h -7.84297 -7.84296 l -18.65704,16.02446 -18.65703,16.02446 v 13.30887 c 0,16.388 -3.23907,14.64221 27.16667,14.64221 h 25.83333 z m 54.76488,-0.25 0.26488,-29.75 h -26.51488 -26.51488 v 30.0166 30.01661 l 26.25,-0.26661 26.25,-0.2666 z m 55,0 0.26488,-29.75 h -27.01488 -27.01488 v 29.33333 c 0,16.13334 0.30731,29.64065 0.68291,30.01625 0.3756,0.3756 12.4131,0.5631 26.75,0.41667 l 26.06709,-0.26625 z m 54.23512,0.25 v -30 h -26.5 -26.5 v 30 30 h 26.5 26.5 z m -201.5,-16.9881 c 6.05,-5.13945 11.8875,-10.16963 12.97222,-11.17818 l 1.97222,-1.83372 h -15.22222 -15.22222 v 13.17431 13.17432 l 2.25,-1.99614 c 1.2375,-1.09788 7.2,-6.20114 13.25,-11.34059 z m -180.73555,-45.2619 0.26445,-30.75 h -26.51445 -26.51445 v 31.0166 31.01661 l 26.25,-0.26661 26.25,-0.2666 z m 54.23555,0.25 v -31 h -26.5 -26.5 v 31 31 h 26.5 26.5 z m 55,0 v -31 h -26.5 -26.5 v 31 31 h 26.5 26.5 z m 54.76445,-0.25 0.26445,-30.75 h -27.01445 -27.01445 v 30.33333 c 0,16.68334 0.30731,30.64065 0.68291,31.01625 0.3756,0.3756 12.4131,0.5631 26.75,0.41667 l 26.06709,-0.26625 z m 43.67032,22.1666 10.56523,-9.0834 v -21.9166 -21.9166 h -26.5 -26.5 v 31 31 h 15.93477 15.93477 z m 10.56523,2.99937 v -6.08403 l -3.75,3.07417 c -11.44489,9.38226 -11.35769,9.09389 -2.75,9.09389 h 6.5 z m 55,-22.48232 v -28.56635 l -5.75,4.56896 c -3.1625,2.51293 -14.975,12.11426 -26.25,21.33629 l -20.5,16.76733 -0.29381,7.23006 -0.29381,7.23006 h 26.54381 26.54381 z m 54.76445,-2.68365 0.26445,-30.75 h -24.7 -24.7 l -2.31445,2.17431 -2.31445,2.17432 v 28.15902 c 0,15.48746 0.30731,28.46633 0.68291,28.84193 0.3756,0.3756 12.4131,0.5631 26.75,0.41667 l 26.06709,-0.26625 z m 54.23555,0.25 v -31 h -26.5 -26.5 v 31 31 h 26.5 26.5 z m -134.75,-10.9467 c 13.0625,-10.6039 23.75,-19.45385 23.75,-19.66656 0,-0.21271 -11.475,-0.38674 -25.5,-0.38674 h -25.5 v 21.15499 21.15499 l 1.75,-1.48843 c 0.9625,-0.81864 12.4375,-10.16435 25.5,-20.76825 z m -247.25,-51.5533 v -29.5 h -26.5 -26.5 v 29.5 29.5 h 26.5 26.5 z m 54,0 v -29.5 h -26.5 -26.5 v 29.5 29.5 h 26.5 26.5 z m 55,0 v -29.5 h -26.5 -26.5 v 29.5 29.5 h 26.5 26.5 z m 55,0 v -29.5 h -27 -27 v 29.5 29.5 h 27 27 z m 54,0 v -29.5 h -26.5 -26.5 v 29.5 29.5 h 26.5 26.5 z m 55,0 v -29.5 h -26.5 -26.5 v 29.5 29.5 h 26.5 26.5 z m 30.41018,6 24.55299,-20 0.0184,-7.75 0.0184,-7.75 h -27 -27 v 29.58341 29.5834 l 2.42859,-1.8334 c 1.33573,-1.00838 13.47744,-10.83341 26.98159,-21.83341 z m 24.58982,4.91667 v -18.58334 l -0.94328,0.33334 c -0.74166,0.26208 -30.0282,23.85657 -43.05672,34.68832 l -2.5,2.07847 23.25,0.0333 23.25,0.0332 z m 54,-10.91667 v -29.5 h -26.5 -26.5 v 7.86872 7.86872 l 5.75,-1.3531 c 3.1625,-0.7442 6.5375,-1.36013 7.5,-1.36872 l 1.75,-0.0156 v 1.9291 1.9291 l -5.75,1.13977 c -3.1625,0.62687 -6.5375,1.3641 -7.5,1.63829 l -1.75,0.49852 v 19.43261 19.43261 h 26.5 26.5 z m -382.23575,-62.25 0.26424,-31.250009 h -26.51424 -26.51425 v 31.516609 31.51661 l 26.25,-0.26661 26.25,-0.2666 z m 54.23575,0.25 V 87.784431 h -26.5 -26.5 v 31.500009 31.5 h 26.5 26.5 z m 55,0 V 87.784431 h -26.5 -26.5 v 31.500009 31.5 h 26.5 26.5 z m 54.76425,-0.25 0.26424,-31.250009 h -27.01424 -27.01425 v 30.833339 c 0,16.95834 0.30731,31.14065 0.68291,31.51625 0.3756,0.3756 12.4131,0.5631 26.75,0.41667 l 26.06709,-0.26625 z m 54.23575,0.25 V 87.784431 h -26.5 -26.5 v 31.500009 31.5 h 26.5 26.5 z m 55,0 V 87.784431 h -26.5 -26.5 v 31.500009 31.5 h 26.5 26.5 z m 54.76425,-0.25 0.26424,-31.250009 h -27.01424 -27.01425 v 30.833339 c 0,16.95834 0.30731,31.14065 0.68291,31.51625 0.3756,0.3756 12.4131,0.5631 26.75,0.41667 l 26.06709,-0.26625 z m 54.23575,0.25 V 87.784431 h -26.5 -26.5 v 31.500009 31.5 h 26.5 26.5 z M 99.954093,466.66892 c 0,-0.61354 1.799997,-2.76089 3.999997,-4.77189 l 4,-3.65636 v -2.22811 -2.22812 h -2.45031 c -1.34767,0 -2.8604,0.73279 -3.36162,1.62842 l -0.9113,1.62841 -0.64758,-1.04779 c -0.929377,-1.50377 2.1186,-4.20904 4.74224,-4.20904 5.60786,0 6.05698,4.95285 0.92562,10.20784 l -3.70295,3.79216 h 3.70295 c 2.03662,0 3.70295,0.45 3.70295,1 v 1 h -5 -4.999997 z m -62.36514,-43.95706 -2.63486,-2.07258 v -3.42742 -3.42742 l 2,-2 2,-2 h 4 4 l 2,2 2,2 v 3.42742 3.42742 l -2.63486,2.07258 c -1.44917,1.13992 -3.86349,2.07258 -5.36514,2.07258 -1.50166,0 -3.91597,-0.93266 -5.36514,-2.07258 z m 8.73333,-1.04932 c 1.35427,-0.61704 2.71009,-2.06945 3.01295,-3.22758 l 0.55065,-2.10568 -1.48895,-2.27242 -1.48895,-2.27242 h -3.95389 -3.95389 l -1.60599,2.45104 -1.60598,2.45103 0.67087,2.11372 c 1.08997,3.4342 5.68277,4.76704 9.86318,2.86231 z m 59.631807,-15.8781 v -2 h -3.5 c -4.326787,0 -4.327577,0.0206 0.25,-6.57398 4.62195,-6.65848 5.25,-6.71941 5.25,-0.50935 v 4.91666 l 1.25,0.58334 1.25,0.58333 -1.25,0.58333 c -0.6875,0.32084 -1.25,1.44584 -1.25,2.5 0,1.05417 -0.45,1.91667 -1,1.91667 -0.55,0 -1,-0.9 -1,-2 z m -0.0222,-7.25 -0.0222,-3.25 -1.9556,2.5 c -2.48795,3.18067 -2.48795,4 0,4 h 2 z m -70.977797,7.25 v -1 h 6.46482 6.46481 l 1.07037,-2 1.07037,-2 -1.07037,-2 -1.07037,-2 h -6.46481 -6.46482 v -1 -1 h 6.8 6.8 l 1.2,1.2 c 1.71162,1.71162 1.48375,7.37339 -0.37143,9.22857 l -1.57143,1.57143 h -6.42857 -6.42857 z m 0,-21 v -6 h 1 c 0.55,0 1,1.125 1,2.5 v 2.5 h 7 7 v 1 1 h -7 -7 v 2.5 c 0,1.375 -0.45,2.5 -1,2.5 h -1 z m 0,-13.02144 v -5.02144 l 2.57766,-1.17446 2.57766,-1.17446 1.67234,1.04775 1.67234,1.04774 0.3075,4.14815 0.3075,4.14816 h 3.4425 c 1.89337,0 3.4425,0.45 3.4425,1 v 1 h -8 -8 z m 8,0.14388 c 0,-3.26119 -2.23161,-5.63128 -4.48727,-4.7657 l -1.51273,0.58049 v 3.53139 3.53138 h 3 3 z m -8,-11.12244 v -1 h 6.46482 6.46481 l 1.07037,-2 1.07037,-2 -1.07037,-2 -1.07037,-2 h -6.46481 -6.46482 v -1 -1 h 6.8 6.8 l 1.2,1.2 c 1.71162,1.71162 1.48375,7.37339 -0.37143,9.22857 l -1.57143,1.57143 h -6.42857 -6.42857 z m 0,-21 v -6 h 1 c 0.55,0 1,1.125 1,2.5 v 2.5 h 7 7 v 1 1 h -7 -7 v 2.5 c 0,1.375 -0.45,2.5 -1,2.5 h -1 z m 66.654987,3.17126 -1.654987,-1.82874 v -3.94875 c 0,-2.17182 0.700517,-4.94889 1.556697,-6.17126 l 1.55671,-2.22251 h 2.32085 c 2.52327,0 5.33008,2.60194 4.07134,3.77417 -0.42868,0.3992 -0.9803,0.16333 -1.22584,-0.52417 -0.24553,-0.6875 -1.48578,-1.25 -2.7561,-1.25 h -2.30968 l -0.60699,1.58179 c -1.03154,2.68814 -0.69641,3.15796 1.89876,2.66186 3.23927,-0.61922 5.49425,1.30107 5.49425,4.67879 0,4.95174 -5.03126,6.91047 -8.34501,3.24882 z m 4.76322,0.22175 1.58179,-0.60699 v -2.92439 -2.9244 l -1.51273,-0.58049 c -3.31916,-1.27368 -5.9154,3.81513 -3.28727,6.44326 1.40234,1.40234 1.20426,1.36584 3.21821,0.59301 z M 34.954093,325.38098 c 0,-0.66158 3.2625,-2.25642 7.25,-3.54408 l 7.25,-2.34121 -6,-2.30403 c -3.3,-1.26722 -6.5625,-2.32725 -7.25,-2.35562 -1.3148,-0.0543 -1.7945,-2.0391 -0.5,-2.06882 2.12473,-0.0488 15.25,5.63908 15.25,6.60862 0,0.62106 -3.6,2.49694 -8,4.16861 l -8,3.03941 z m 2.63486,-16.66912 -2.63486,-2.07258 v -3.42742 -3.42742 l 2,-2 2,-2 h 4 4 l 2,2 2,2 v 3.42742 3.42742 l -2.63486,2.07258 c -1.44917,1.13992 -3.86349,2.07258 -5.36514,2.07258 -1.50166,0 -3.91597,-0.93266 -5.36514,-2.07258 z m 8.73333,-1.04932 c 1.35427,-0.61704 2.71009,-2.06945 3.01295,-3.22758 l 0.55065,-2.10568 -1.48895,-2.27242 -1.48895,-2.27242 h -3.95389 -3.95389 l -1.60599,2.45104 -1.60598,2.45103 0.67087,2.11372 c 1.08997,3.4342 5.68277,4.76704 9.86318,2.86231 z m -11.36819,-15.8781 v -1 h 7 7 v -3.44098 c 0,-1.89254 0.45,-3.7191 1,-4.05902 l 1,-0.61803 v 5.05901 5.05902 h -8 -8 z m 0,-17 v -6 h 1 c 0.55,0 1,1.125 1,2.5 v 2.5 h 7 7 v 1 1 h -7 -7 v 2.5 c 0,1.375 -0.45,2.5 -1,2.5 h -1 z m 66.199997,4.8 c -1.457367,-1.45737 -1.581627,-5.44611 -0.19633,-6.30227 l 1.00367,-0.6203 -0.61534,-2.4517 -0.61533,-2.4517 1.23411,-1.48702 c 0.67876,-0.81785 2.28818,-1.48701 3.57648,-1.48701 h 2.34237 l 1.07037,2 1.07037,2 -1.03789,1.93931 -1.03789,1.93931 1.00271,0.61971 c 3.14324,1.94263 0.18108,7.50167 -3.9973,7.50167 -1.43,0 -3.14,-0.54 -3.8,-1.2 z m 6.22659,-1.36945 1.56944,-1.56944 -1.0332,-1.93056 c -1.10121,-2.05763 -1.86598,-2.28868 -4.38104,-1.32356 -1.87146,0.71814 -2.0759,3.4989 -0.38179,5.19301 1.58114,1.58114 2.34256,1.51458 4.22659,-0.36945 z m 0.13272,-10.33459 c -0.37254,-0.60278 -1.55079,-1.09596 -2.61833,-1.09596 h -1.94098 v 1.91667 c 0,1.05416 0.5625,2.12521 1.25,2.3801 1.66041,0.61559 4.16863,-1.81039 3.30931,-3.20081 z m -64.809307,-2.24298 c -8.84593,-3.44929 -9.49604,-4.75685 -3.5,-7.03959 2.3375,-0.88991 5.9375,-2.34302 8,-3.22912 l 3.75,-1.61111 v 1.03486 c 0,0.56917 -1.125,1.54744 -2.5,2.17393 l -2.5,1.13908 v 3.36424 3.36423 l 2.5,0.9505 c 1.84938,0.70313 3.87149,3.34307 2.25,2.93746 -0.1375,-0.0344 -3.7375,-1.42241 -8,-3.08448 z m 1.25,-4.25938 v -2.4064 l -3.65428,1.12153 -3.65429,1.12153 2.90429,1.23977 c 4.0548,1.73089 4.40428,1.64547 4.40428,-1.07643 z m -4,-9.26593 c -0.825,-0.32375 -2.2875,-1.27467 -3.25,-2.11315 l -1.75,-1.5245 v -3.64501 c 0,-3.84627 1.41438,-6.04501 3.88856,-6.04501 h 1.48856 l -2.18856,2.03896 c -2.57543,2.39937 -2.80969,5.19705 -0.61863,7.38811 3.50702,3.50702 9.15638,2.82136 11.40729,-1.38451 l 1.02306,-1.91161 -0.97539,-2.56548 c -0.53646,-1.41101 -1.66153,-2.56547 -2.50014,-2.56547 h -1.52475 v 1.94098 c 0,1.06754 -0.45,2.2191 -1,2.55902 l -1,0.61803 v -3.55901 -3.55902 h 2.96482 2.96481 l 1.03519,1.93426 c 3.67844,6.87323 -2.9678,15.13927 -9.96482,12.39341 z m -5,-23.82767 v -5.5 h 1 1 v 4.5 4.5 h 2.5 2.5 v -4.55902 -4.55901 l 1,0.61803 c 0.55,0.33992 1,2.39148 1,4.55902 v 3.94098 h 2.5 2.5 v -5 -5 h 1 1 v 6 6 h -8 -8 z m 58,-16.56739 v -6.06739 l -2.25,0.6916 -2.25,0.6916 2.42431,-2.62421 c 3.63291,-3.93246 4.07569,-3.34845 4.07569,5.37579 v 8 h -1 -1 z m 8.556697,3.84488 c -4.694827,-6.70281 1.45376,-17.62417 6.87187,-12.20606 l 1.57143,1.57143 v 4.49431 c 0,2.47187 -0.46583,5.36473 -1.03518,6.42857 l -1.03519,1.93426 h -2.40811 -2.40811 z m 5.37882,-0.1998 1.18041,-1.4223 -0.30797,-4.8277 -0.30796,-4.82769 h -2.5 -2.5 l -0.30796,4.82769 -0.30797,4.8277 1.18041,1.4223 c 0.64923,0.78227 1.52021,1.42231 1.93552,1.42231 0.41531,0 1.28629,-0.64004 1.93552,-1.42231 z m -65.935517,-2.731 c -1.925,-0.54632 -4.11274,-1.58914 -4.86164,-2.31736 l -1.36165,-1.32405 5.53589,1.54084 5.53589,1.54083 4.80427,-1.58162 c 5.52104,-1.8176 6.84313,-1.52249 2.69017,0.6005 -4.18139,2.13751 -8.38953,2.66285 -12.34293,1.54086 z m -6,-6.25015 c 0,-0.66158 3.2625,-2.25642 7.25,-3.54408 l 7.25,-2.34121 -6,-2.30403 c -3.3,-1.26722 -6.5625,-2.32725 -7.25,-2.35562 -1.3148,-0.0543 -1.7945,-2.0391 -0.5,-2.06882 2.12473,-0.0488 15.25,5.63908 15.25,6.60862 0,0.62106 -3.6,2.49694 -8,4.16861 l -8,3.03941 z m 1.21107,-17.23618 c 0.82913,-0.82913 3.25833,-1.90687 5.39822,-2.39498 l 3.89071,-0.88747 3.5309,0.94059 c 1.94199,0.51733 4.41699,1.66153 5.5,2.54268 l 1.9691,1.60209 -2,-0.70077 c -1.1,-0.38543 -3.64931,-1.14221 -5.66514,-1.68174 l -3.66513,-0.98096 -5.23309,1.53404 -5.23308,1.53403 z m 56.78893,-37.42775 v -6.06739 l -2.25,0.6916 -2.25,0.6916 2.42431,-2.62421 c 3.63291,-3.93246 4.07569,-3.34845 4.07569,5.37579 v 8 h -1 -1 z m 7,4.95187 c 0,-0.61354 1.799997,-2.76089 3.999997,-4.77189 l 4,-3.65636 v -2.22811 -2.22812 h -2.45031 c -1.34767,0 -2.8604,0.73279 -3.36162,1.62842 l -0.9113,1.62841 -0.64758,-1.04779 c -0.929377,-1.50377 2.1186,-4.20904 4.74224,-4.20904 5.60786,0 6.05698,4.95285 0.92562,10.20784 l -3.70295,3.79216 h 3.70295 c 2.03662,0 3.70295,0.45 3.70295,1 v 1 h -5 -4.999997 z m -7,-65.951875 v -6.067389 l -2.25,0.691598 -2.25,0.691599 2.42431,-2.624211 c 3.63291,-3.932463 4.07569,-3.348447 4.07569,5.375789 v 8.000004 h -1 -1 z m 12.999997,4.06739 v -2 h -3.5 c -4.326787,0 -4.327577,0.0206 0.25,-6.573987 4.62195,-6.658479 5.25,-6.719411 5.25,-0.50935 v 4.916667 l 1.25,0.58333 1.25,0.58334 -1.25,0.58333 c -0.6875,0.32083 -1.25,1.44583 -1.25,2.5 0,1.05417 -0.45,1.91667 -1,1.91667 -0.55,0 -1,-0.9 -1,-2 z m -0.0222,-7.250004 -0.0222,-3.25 -1.9556,2.5 c -2.48795,3.180664 -2.48795,4.000004 0,4.000004 h 2 z m 104.0222,-16.75 v -7 h 1.5 1.5 v 6 6 h 3.5 c 1.925,0 3.5,0.45 3.5,1 v 1 h -5 -5 z m 107.2634,1.947818 -0.15743,-3.947818 h 1.44701 1.44702 v 2.877555 c 0,1.582656 -0.58031,3.359174 -1.28959,3.947818 l -1.28959,1.070263 z m 150.7366,0.565406 c 0,-1.860435 9.71132,-19.513224 10.7348,-19.513224 h 1.28343 l -5.01823,10 c -4.13198,8.233936 -7,12.131664 -7,9.513224 z m 9.57143,-1.084653 c -1.82683,-1.826832 -1.98822,-3.781283 -0.53625,-6.494312 2.05984,-3.848835 6.96482,-1.689782 6.96482,3.065741 0,4.576211 -3.44409,6.413057 -6.42857,3.428571 z m 3.42857,-3.428571 c 0,-1.65 -0.45,-3 -1,-3 -0.55,0 -1,1.35 -1,3 0,1.65 0.45,3 1,3 0.55,0 1,-1.35 1,-3 z m -289,-5.5 v -9.5 l 4.75,0.01474 c 2.6125,0.0081 5.875,0.581035 7.25,1.273171 l 2.5,1.258429 0.30709,2.630136 0.30709,2.630137 -2.16774,1.518345 -2.16774,1.518345 2.61065,3.422739 c 3.1179,4.087781 3.21239,4.733958 0.69221,4.733958 h -1.91844 l -2.1018,-3.400776 c -1.7823,-2.883831 -3.88704,-4.599224 -5.64311,-4.599224 -0.23001,0 -0.41821,1.8 -0.41821,4 v 4 h -2 -2 z m 10.6771,-3.100925 0.61433,-1.600925 -1.39571,-0.883762 c -0.76765,-0.486069 -2.40822,-0.890653 -3.64572,-0.899075 l -2.25,-0.01531 v 2.5 2.5 h 3.03138 3.03139 z m 55.3229,6.092451 v -6.508474 l -1.95452,1.220619 c -3.58561,2.239247 -3.492,-0.223815 0.14679,-3.862604 l 3.59226,-3.592267 1.10774,0.684617 1.10773,0.684617 v 8.940983 8.940983 h -2 -2 z m 10.43872,4.055292 -1.6844,-2.570716 0.45803,-5.523242 c 0.48612,-5.861941 1.04011,-6.852415 4.39827,-7.863617 l 2.11063,-0.635546 2.26825,1.83672 2.26826,1.836721 0.41338,4.936431 0.41337,4.936431 -1.31506,2.5 -1.31506,2.5 -3.16563,0.308767 -3.16564,0.308768 z m 6.06128,-6.546818 v -5.47261 l -1.62904,-0.313724 -1.62903,-0.313723 -0.65505,2.609905 c -0.36027,1.435448 -0.3604,4.180498 -2.7e-4,6.100111 l 0.65476,3.490205 1.62932,-0.313777 1.62931,-0.313777 z m 7.5,-0.573324 v -9.573324 l 1.75,0.332268 1.75,0.332268 0.5,4.35834 0.5,4.35834 1.90499,-2.117284 c 1.04774,-1.164506 2.81368,-2.117284 3.92431,-2.117284 h 2.01933 l -2.40936,2.564644 -2.40936,2.564644 2.23505,3.883474 c 3.38178,5.875971 0.8962,7.767129 -2.61658,1.990829 -1.97983,-3.255558 -3.14838,-3.00945 -3.14838,0.663076 v 2.333333 h -2 -2 z m 13,8.073324 v -1.5 h 2.5 2.5 l -2,-2 -2,-2 v -3.545455 -3.545454 l 2.45455,-2.454546 2.45454,-2.454545 h 2.9984 c 8.41718,0 12.79467,7.295043 8.01993,13.365141 l -2.07258,2.634859 h 2.07258 2.07258 v 1.5 1.5 h -4 -4 v -1.5 c 0,-0.825 0.9,-2.4 2,-3.5 l 2,-2 v -2.845012 -2.845013 l -2.03028,-1.83738 -2.03028,-1.837379 -2.71972,0.950955 -2.71972,0.950956 -0.29951,4.067905 -0.2995,4.067904 1.5495,1.285977 c 0.85223,0.707287 1.54951,2.130876 1.54951,3.163532 v 1.877555 h -4 -4 z m 40.79206,-6.25 -0.29206,-7.75 -2.80929,-0.322143 -2.80928,-0.322143 0.38928,-1.177857 0.38927,-1.177857 7.17001,-0.29381 7.17001,-0.293809 v 1.477387 1.477387 l -2.75,0.316423 -2.75,0.316422 -0.29206,7.75 -0.29207,7.75 h -1.41587 -1.41587 z m 11.42041,-1.488573 0.28753,-9.238572 1.75,-0.334752 1.75,-0.334751 v 4.073324 4.073324 h 3.43963 3.43964 l 0.31036,-3.741683 0.31037,-3.741684 1.75,-0.331641 1.75,-0.33164 v 9.573324 9.573324 h -2 -2 v -4 -4 h -3.5 -3.5 v 4 4 h -2.03753 -2.03752 z m 19,-0.01143 0.28753,-9.25 4.55558,-0.296851 4.55558,-0.296851 2.65724,2.090182 2.65723,2.090182 0.6516,3.473334 0.6516,3.473335 -1.25156,3.021551 c -1.62042,3.912039 -3.69887,4.945121 -9.94905,4.945121 h -5.10327 l 0.28752,-9.25 z m 10.26905,4.625621 1.62438,-1.624379 -0.30295,-3.618518 -0.30295,-3.618516 -2.75406,-1.313613 c -3.92751,-1.873322 -4.74594,-0.863052 -4.74594,5.858425 v 5.940983 h 2.42857 c 1.33572,0 3.15954,-0.73097 4.05295,-1.624379 z m 23.73095,-4.614194 0.28753,-9.238572 1.58251,-0.302497 1.58252,-0.302497 3.91748,6.29107 3.91749,6.291072 0.29772,-6.25 0.29771,-6.25 h 1.45229 1.45228 v 9.5 9.5 h -1.85095 -1.85094 l -3.61568,-5.75 -3.61567,-5.75 -0.0334,5.75 -0.0334,5.75 h -2.03753 -2.03752 l 0.28752,-9.238573 z m 53.78753,2.538576 v -6.7 l -1.2,1.2 c -1.49883,1.498831 -2.8,1.545864 -2.8,0.10121 0,-1.280086 5.78773,-6.90121 7.10576,-6.90121 h 0.89424 v 9.5 9.5 h -2 -2 z m -65,1.2 v -2.5 h -2.5 -2.5 v -1.5 -1.5 h 2.5 2.5 v -2.5 -2.5 h 1.5 1.5 v 2.5 2.5 h 2.5 2.5 v 1.5 1.5 h -2.5 -2.5 v 2.5 2.5 h -1.5 -1.5 z m -160,-1 v -1.5 h 6.5 6.5 v 1.5 1.5 h -6.5 -6.5 z m 197,0 v -1.5 h 6.5 6.5 v 1.5 1.5 h -6.5 -6.5 z m 39.55943,-3.832887 -1.71685,-1.255393 0.32871,-3.45586 0.32871,-3.45586 2.68274,-0.309932 2.68274,-0.309932 1.12266,2.097704 c 1.36644,2.553216 0.50589,5.687396 -1.91772,6.984475 l -1.79414,0.960192 z m 3.44057,-4.22613 c 0,-2.689846 -1.73044,-3.307013 -2.63837,-0.940983 -0.76852,2.002717 0.3656,4.786618 1.63131,4.004365 0.55388,-0.342319 1.00706,-1.720841 1.00706,-3.063382 z m -239.75396,2.309017 0.4127,-1.25 6.17063,-0.297717 6.17063,-0.297718 v 1.547718 1.547717 h -6.58333 -6.58334 z m 196.75396,-0.25 v -1.5 h 6.5 6.5 v 1.5 1.5 h -6.5 -6.5 z m -136.92103,-7.74058 c -1.33157,-0.692681 -2.60657,-1.82192 -2.83333,-2.50942 l -0.41231,-1.25 h 1.88334 c 1.03583,0 2.39308,0.509752 3.01611,1.132783 1.45855,1.458545 4.26722,0.391969 4.26722,-1.62045 v -1.550437 l -2.54029,0.637573 -2.5403,0.637574 -1.9597,-1.773509 -1.95971,-1.773509 v -3.690025 -3.690025 l 1.75,-1.573845 1.75,-1.573846 4.75,0.07724 4.75,0.07724 v 7.650486 7.650486 l -1.25,1.636396 c -1.75084,2.292056 -5.80549,2.995939 -8.67103,1.505283 z m 5.42103,-11.773115 v -3.486305 l -2.21465,-0.314919 -2.21466,-0.314919 -0.64701,2.577905 -0.64701,2.577905 1.2697,1.529903 c 0.69834,0.841446 1.98609,1.39194 2.86167,1.223319 l 1.59196,-0.306584 z m 139.17767,12.358027 c -1.14216,-1.14216 -0.75503,-2.344332 0.75494,-2.344332 2.58976,0 2.61476,-3.499896 0.0714,-9.98984 -2.98832,-7.625194 -2.9327,-7.01016 -0.63397,-7.01016 h 1.87004 l 1.27524,4.554719 c 1.39868,4.9956 2.13598,4.845067 3.94143,-0.804719 l 1.19835,-3.75 h 1.42245 c 1.87117,0 1.84168,0.242744 -1.09317,8.996591 -3.19006,9.515052 -6.1553,12.999157 -8.80671,10.347741 z m 88.4013,-0.584912 c -1.33157,-0.692681 -2.60657,-1.82192 -2.83333,-2.50942 l -0.41231,-1.25 h 1.88334 c 1.03583,0 2.39308,0.509752 3.01611,1.132783 1.45855,1.458545 4.26722,0.391969 4.26722,-1.62045 v -1.550437 l -2.54029,0.637573 -2.5403,0.637574 -1.9597,-1.773509 -1.95971,-1.773509 v -3.690025 -3.690025 l 1.75,-1.573845 1.75,-1.573846 4.75,0.07724 4.75,0.07724 v 7.650486 7.650486 l -1.25,1.636396 c -1.75084,2.292056 -5.80549,2.995939 -8.67103,1.505283 z m 5.42103,-11.773115 v -3.486305 l -2.21465,-0.314919 -2.21466,-0.314919 -0.64701,2.577905 -0.64701,2.577905 1.2697,1.529903 c 0.69834,0.841446 1.98609,1.39194 2.86167,1.223319 l 1.59196,-0.306584 z m -352.5,2.553952 v -9.459744 l 3.25,0.08922 c 1.7875,0.04907 4.21753,0.253244 5.40007,0.453715 l 2.15008,0.364493 0.99194,2.845491 c 2.10362,6.034444 -0.6144,10.713181 -5.78293,9.954601 l -3.00916,-0.441647 v 2.826807 2.826807 h -1.5 -1.5 z m 7.94981,1.020215 c 0.65709,-0.791741 1.04969,-2.704241 0.87245,-4.25 l -0.32226,-2.810472 h -2.5 -2.5 l -0.32226,2.810472 c -0.51492,4.490756 2.41021,7.095873 4.77207,4.25 z m 212.05019,-1.020215 v -9.459744 l 3.25,0.08922 c 1.7875,0.04907 4.21753,0.253244 5.40007,0.453715 l 2.15008,0.364493 0.99194,2.845491 c 2.10362,6.034444 -0.6144,10.713181 -5.78293,9.954601 l -3.00916,-0.441647 v 2.826807 2.826807 h -1.5 -1.5 z m 7.94981,1.020215 c 0.65709,-0.791741 1.04969,-2.704241 0.87245,-4.25 l -0.32226,-2.810472 h -2.5 -2.5 l -0.32226,2.810472 c -0.51492,4.490756 2.41021,7.095873 4.77207,4.25 z m 8.05019,-1.020215 v -9.459744 l 3.25,0.08922 c 1.7875,0.04907 4.21753,0.253244 5.40007,0.453715 l 2.15008,0.364493 0.99194,2.845491 c 2.10362,6.034444 -0.6144,10.713181 -5.78293,9.954601 l -3.00916,-0.441647 v 2.826807 2.826807 h -1.5 -1.5 z m 7.94981,1.020215 c 0.65709,-0.791741 1.04969,-2.704241 0.87245,-4.25 l -0.32226,-2.810472 h -2.5 -2.5 l -0.32226,2.810472 c -0.51492,4.490756 2.41021,7.095873 4.77207,4.25 z M 132.83523,46.77772 c -0.89038,-0.520242 -2.17937,-2.299059 -2.86442,-3.952926 l -1.24555,-3.007032 0.6516,-3.473335 0.6516,-3.473334 2.59767,-2.043331 2.59768,-2.043331 3.11514,0.0318 c 5.33115,0.05443 8.61514,4.037055 8.61514,10.447913 v 3.611196 l -2.45455,2.454546 -2.45454,2.454545 -3.79546,-0.03041 c -2.0875,-0.01672 -4.52394,-0.456061 -5.41431,-0.976301 z m 9.05752,-3.419384 1.18356,-1.426095 -0.31111,-4.305341 -0.31111,-4.305342 -2.71972,-0.950956 -2.71972,-0.950955 -2.03028,1.837379 -2.03028,1.83738 v 3.273584 c 0,5.442981 5.8517,8.709912 8.93866,4.990346 z m 9.06613,2.435041 c -0.55264,-1.032605 -1.00479,-4.190043 -1.00479,-7.016529 v -5.139065 l 1.75,0.332318 1.75,0.332319 0.31,4.991005 c 0.17049,2.745054 0.71392,5.399434 1.20761,5.898624 l 0.89763,0.907619 1.54238,-1.280063 1.54238,-1.280063 v -4.877556 -4.877555 h 1.5 1.5 v 6.829422 6.829422 l -4.99521,0.113782 -4.99521,0.113782 z m 15.66188,1.324387 c -0.36667,-0.366666 -0.66667,-2.804166 -0.66667,-5.416666 v -4.75 l -1.1989,-0.399634 -1.1989,-0.399633 2.26699,-3.1837 c 2.59342,-3.642117 4.13081,-4.082662 4.13081,-1.1837 0,1.1 0.45,2 1,2 0.55,0 1,0.675 1,1.5 0,0.825 -0.45,1.5 -1,1.5 h -1 v 4.5 4.5 h 1 c 0.55,0 1,0.45 1,1 0,1.112285 -4.28648,1.38019 -5.33333,0.333333 z m 24.96075,-0.03925 c -0.34508,-0.345079 -0.62742,-3.477416 -0.62742,-6.96075 v -6.333333 h 1.5 1.5 v 5.393011 5.393011 l 1.25,0.459682 c 0.6875,0.252824 1.8125,0.263469 2.5,0.02365 l 1.25,-0.436021 v -5.416666 -5.416667 h 2 2 v 6.896577 6.896577 l -5.37258,0.06417 c -2.95492,0.0353 -5.65492,-0.218164 -6,-0.563244 z m 16.03925,0.03925 c -0.36667,-0.366666 -0.66667,-2.841666 -0.66667,-5.5 v -4.833333 h -1 c -0.55,0 -1,-0.675 -1,-1.5 0,-0.825 0.45,-1.5 1,-1.5 0.55,0 1,-0.626855 1,-1.393011 0,-0.766156 0.675,-1.652033 1.5,-1.968615 l 1.5,-0.575604 v 1.968615 1.968615 h 1.5 c 0.825,0 1.5,0.675 1.5,1.5 0,0.825 -0.675,1.5 -1.5,1.5 h -1.5 v 4.031385 4.031385 l 1.5,0.575604 c 0.825,0.316582 1.5,0.977459 1.5,1.468615 0,1.033366 -4.34204,1.21764 -5.33333,0.226344 z m 19.82364,-0.349017 c -0.34525,-0.558626 -1.91828,-4.833626 -3.49561,-9.5 l -2.86788,-8.484316 h 1.85506 1.85506 l 2.19264,6.588889 c 2.43521,7.317816 2.95623,7.278612 5.45155,-0.410203 1.53404,-4.726824 3.72779,-7.303098 5.07314,-5.957746 0.25741,0.25741 -0.96471,4.588002 -2.71583,9.623539 l -3.18385,9.155521 h -1.76828 c -0.97255,0 -2.05075,-0.457058 -2.396,-1.015684 z m 13.99801,-0.997221 c -1.00191,-1.107098 -1.82165,-3.351291 -1.82165,-4.987095 0,-1.635804 0.81974,-3.879997 1.82165,-4.987095 l 1.82166,-2.012905 h 2.84501 2.84501 l 2,2 2,2 v 2.777494 c 0,1.527621 -0.70052,3.777621 -1.5567,5 l -1.55671,2.222506 h -3.28831 -3.2883 z m 8.13198,-3.610382 0.60303,-2.402685 -1.27416,-1.535271 c -0.70079,-0.844399 -2.21354,-1.401055 -3.36166,-1.237014 l -2.08751,0.298257 -0.33579,2.950686 -0.33579,2.950687 1.68299,1.23063 c 2.23936,1.637457 4.36768,0.697921 5.10889,-2.25529 z m 6.59217,-3.626713 0.28753,-9.25 h 1.5 1.5 l 0.28753,9.25 0.28752,9.25 h -2.07505 -2.07505 z m 7.37974,6 c -0.27412,-1.7875 -0.76168,-4.92033 -1.08346,-6.961845 l -0.58506,-3.711845 2.28815,-2.288155 2.28816,-2.288155 0.31955,2.25 c 0.17575,1.2375 0.73825,2.25 1.25,2.25 0.51175,0 0.93045,0.675 0.93045,1.5 0,0.825 -0.45,1.5 -1,1.5 -0.55,0 -1,1.652067 -1,3.671259 v 3.67126 l 1.65499,1.82874 1.65499,1.828741 h -3.10968 -3.10967 z m 8.54791,1.990121 c -2.72245,-2.722447 -0.87038,-5.931566 4.10988,-7.121286 1.5125,-0.361316 2.75,-1.148447 2.75,-1.749178 v -1.092239 l -3.5,0.656604 c -1.925,0.361132 -3.5,0.276213 -3.5,-0.188709 0,-1.791913 2.53697,-3.245313 5.66482,-3.245313 h 3.26481 l 1.03519,1.934259 c 0.56935,1.063842 1.03518,4.137082 1.03518,6.829422 v 4.895163 l -4.85988,0.110699 c -2.67293,0.06088 -5.37293,-0.402355 -6,-1.029422 z m 6.85988,-3.34711 c 0,-0.766156 -0.825,-1.393011 -1.83333,-1.393011 -2.5095,0 -3.36085,1.061105 -2.08488,2.59855 1.28478,1.54807 3.91821,0.737828 3.91821,-1.205539 z m 24.20284,3.351395 c -1.76494,-2.126623 -2.36286,-6.193327 -1.31558,-8.94787 1.82184,-4.79182 8.8031,-4.966305 10.9413,-0.27346 1.82743,4.010765 1.48084,4.476924 -3.32856,4.476924 h -4.5 v 1.416667 c 0,1.938185 2.04486,2.4841 4.75423,1.269234 2.76044,-1.237767 3.97941,-0.274815 2.26583,1.789933 l -1.26495,1.524166 h -3.25511 c -1.79031,0 -3.72403,-0.565017 -4.29716,-1.255594 z m 6.54716,-7.994406 c -0.22917,-0.6875 -1.24167,-1.25 -2.25,-1.25 -1.00833,0 -2.02083,0.5625 -2.25,1.25 l -0.41667,1.25 h 2.66667 2.66667 z m 15.93462,2.56682 c -1.45838,-3.675749 -2.45343,-6.881341 -2.21123,-7.123538 1.23248,-1.232481 3.55258,1.161352 4.63853,4.785948 1.35834,4.533734 2.07659,4.304103 3.84483,-1.22923 l 1.19835,-3.75 h 1.42245 c 1.86678,0 1.82753,0.404239 -0.75236,7.75 l -2.19505,6.25 h -1.64696 -1.64697 z m 13.70822,4.93318 -1.75003,-1.75 1.72664,-0.332576 c 0.94964,-0.182916 2.37428,0.204928 3.16585,0.861876 1.496,1.241569 4.4647,0.683279 4.4647,-0.839628 0,-0.480203 -1.8,-1.41239 -4,-2.071526 l -4,-1.198429 v -2.85287 -2.852869 l 1.58179,-0.606989 c 4.06404,-1.55952 9.41821,-0.03545 9.41821,2.680909 v 0.887898 l -4,-0.675796 -4,-0.675796 v 0.911533 c 0,0.501343 1.6875,1.328397 3.75,1.837898 l 3.75,0.926365 0.32676,2.305042 c 0.46298,3.265907 -1.53396,5.194958 -5.37778,5.194958 h -3.30612 z m 23.26215,-0.07874 c -0.91025,-1.005807 -1.65499,-2.355807 -1.65499,-3 0,-1.681151 2.52889,-1.443839 4.04196,0.379299 l 1.28685,1.550558 2.57704,-0.300558 2.57705,-0.300558 0.3212,-1.694585 0.3212,-1.694586 -4.02604,-1.0841 c -6.25147,-1.683348 -8.48639,-5.639603 -5.09926,-9.02673 l 2,-2 h 2.77749 c 3.26312,0 7.22251,2.497995 7.22251,4.556704 v 1.443296 h -1.89301 c -1.04116,0 -2.16415,-0.706562 -2.49553,-1.570137 l -0.60252,-1.570137 -2.25447,0.320137 c -1.23996,0.176075 -2.25447,0.957637 -2.25447,1.736804 v 1.416666 l 4.32005,1.440016 4.32004,1.440015 1.07181,2.352354 1.0718,2.352354 -1.6649,2.540964 -1.66491,2.540964 h -4.32196 -4.32195 z m 17.48513,0.568861 -1.14012,-1.140121 v -5.8 -5.8 h 1.5 1.5 v 4.877555 4.877556 l 1.39405,1.156962 1.39406,1.156962 1.60594,-1.605946 1.60595,-1.605946 v -4.428572 -4.428571 h 1.5 1.5 v 6.829422 6.829422 l -4.85988,0.110699 c -2.67293,0.06088 -5.37293,-0.402355 -6,-1.029422 z m 46.85988,-8.240121 v -9.5 h 1.5 1.5 v 9.5 9.5 h -1.5 -1.5 z m 33.49031,8.484316 c -0.34525,-0.558626 -1.91828,-4.833626 -3.49561,-9.5 l -2.86788,-8.484316 h 1.85506 1.85506 l 2.19264,6.588889 c 2.43521,7.317816 2.95623,7.278612 5.45155,-0.410203 1.53404,-4.726824 3.72779,-7.303098 5.07314,-5.957746 0.25741,0.25741 -0.96471,4.588002 -2.71583,9.623539 l -3.18385,9.155521 h -1.76828 c -0.97255,0 -2.05075,-0.457058 -2.396,-1.015684 z m 13.99801,-0.997221 c -1.00191,-1.107098 -1.82165,-3.351291 -1.82165,-4.987095 0,-1.635804 0.81974,-3.879997 1.82165,-4.987095 l 1.82166,-2.012905 h 2.84501 2.84501 l 2,2 2,2 v 2.777494 c 0,1.527621 -0.70052,3.777621 -1.5567,5 l -1.55671,2.222506 h -3.28831 -3.2883 z m 8.13198,-3.610382 0.60303,-2.402685 -1.27416,-1.535271 c -0.70079,-0.844399 -2.21354,-1.401055 -3.36166,-1.237014 l -2.08751,0.298257 -0.33579,2.950686 -0.33579,2.950687 1.68299,1.23063 c 2.23936,1.637457 4.36768,0.697921 5.10889,-2.25529 z m 6.59217,-3.626713 0.28753,-9.25 h 1.5 1.5 l 0.28753,9.25 0.28752,9.25 h -2.07505 -2.07505 z m 7.37974,6 c -0.27412,-1.7875 -0.76168,-4.92033 -1.08346,-6.961845 l -0.58506,-3.711845 2.28815,-2.288155 2.28816,-2.288155 0.31955,2.25 c 0.17575,1.2375 0.73825,2.25 1.25,2.25 0.51175,0 0.93045,0.675 0.93045,1.5 0,0.825 -0.45,1.5 -1,1.5 -0.55,0 -1,1.652067 -1,3.671259 v 3.67126 l 1.65499,1.82874 1.65499,1.828741 h -3.10968 -3.10967 z m 8.54791,1.990121 c -2.72245,-2.722447 -0.87038,-5.931566 4.10988,-7.121286 1.5125,-0.361316 2.75,-1.148447 2.75,-1.749178 v -1.092239 l -3.5,0.656604 c -1.925,0.361132 -3.5,0.276213 -3.5,-0.188709 0,-1.791913 2.53697,-3.245313 5.66482,-3.245313 h 3.26481 l 1.03519,1.934259 c 0.56935,1.063842 1.03518,4.137082 1.03518,6.829422 v 4.895163 l -4.85988,0.110699 c -2.67293,0.06088 -5.37293,-0.402355 -6,-1.029422 z m 6.85988,-3.34711 c 0,-0.766156 -0.825,-1.393011 -1.83333,-1.393011 -2.5095,0 -3.36085,1.061105 -2.08488,2.59855 1.28478,1.54807 3.91821,0.737828 3.91821,-1.205539 z m 24.57143,3.03556 -1.57143,-1.571428 V 40.86799 37.094406 l 1.82874,-1.654987 c 1.00581,-0.910244 3.00529,-1.654988 4.4433,-1.654988 h 2.61455 l 1.55671,2.222506 c 0.85618,1.222379 1.5567,3.022379 1.5567,4 v 1.777494 h -4.5 c -4.70156,0 -5.55701,0.877874 -2.95762,3.035174 l 1.54238,1.280063 1.15762,-1.157619 c 0.63669,-0.63669 2.03736,-1.157618 3.11261,-1.157618 h 1.95499 l -1.80998,2 -1.80998,2 h -2.77358 c -1.52547,0 -3.48073,-0.707143 -4.34501,-1.571429 z m 6.76991,-7.981443 -0.5959,-1.552872 -2.04439,0.302872 c -1.12442,0.16658 -2.22964,0.865372 -2.45606,1.552872 l -0.41166,1.25 h 3.05195 3.05195 z"
       id="path301" />
  </g>
</svg>
