<svg version="1.1" xmlns="http://www.w3.org/2000/svg" viewBox="0 0 1473.353610683009 1188.4615256622826" width="1473.353610683009" height="1188.4615256622826" filter="invert(93%) hue-rotate(180deg)">
  <!-- svg-source:excalidraw -->
  
  <defs>
    <style class="style-fonts">
      @font-face {
        font-family: "Virgil";
        src: url("https://excalidraw.com/Virgil.woff2");
      }
      @font-face {
        font-family: "Cascadia";
        src: url("https://excalidraw.com/Cascadia.woff2");
      }
    </style>
  </defs>
  <g stroke-linecap="round" transform="translate(516.1959028100757 243.68440750493207) rotate(0 97.08705476261355 97.08705476261355)"><path d="M-1.76 1.69 C74.8 -0.64, 153.14 -0.05, 192.59 1.65 M-0.89 0.85 C61.71 1.02, 123.8 1.58, 194.02 0.87 M193.73 1.42 C194.31 72.45, 191.61 146.68, 193.17 192.5 M193.91 -0.26 C193.33 48.58, 192.99 96.17, 194.93 194.85 M193.79 193.27 C125.84 192.66, 58.25 193.48, 0.25 193.99 M194.21 194.55 C124.65 192.3, 54.99 192.02, 0.18 193.88 M-0.08 193.15 C1.38 150.3, -1.41 107.42, -0.74 0.94 M0.13 193.89 C-2.86 125.25, -2.54 56.38, -0.85 -0.07" stroke="#000000" stroke-width="1" fill="none"></path></g><g transform="translate(584.1629624555017 323.9714622675456) rotate(0 29.1199951171875 16.80000000000001)"><text x="29.1199951171875" y="0" font-family="Virgil, Segoe UI Emoji" font-size="28px" fill="#000000" text-anchor="middle" style="white-space: pre;" direction="ltr" dominant-baseline="text-before-edge">DAC</text></g><g stroke-linecap="round"><g transform="translate(709.6863006820449 337.3529040012563) rotate(0 69.18645964741069 1.32383203288461)"><path d="M1.38 -0.46 C43.98 0.89, 89.01 0.5, 137.13 3.1 M0.79 0.62 C29.55 1.19, 58.13 0.61, 137.58 0.9" stroke="#000000" stroke-width="1" fill="none"></path></g></g><mask></mask><g stroke-linecap="round" transform="translate(516.6998383544535 498.31825871077467) rotate(0 97.08705476261355 97.08705476261355)"><path d="M1.42 0.72 C71.64 -1.77, 141.45 0.57, 192.85 1.89 M0.34 0.14 C70.29 -0.97, 139.42 -1.43, 193.68 0.92 M195.31 0.15 C192.27 42.31, 194.18 83.77, 194.98 194.62 M193.25 0.36 C192.65 56.39, 193.24 110.43, 194.67 193.68 M193.33 193.2 C155.06 193.76, 112.42 195.99, -1.15 194.51 M193.8 194.79 C154.13 196.85, 116.68 196.11, -0.3 194.14 M1.9 193.77 C1.68 152.21, 1.05 113.45, 1.17 -0.27 M-0.28 193.96 C0.15 140.01, -1.13 85.17, 0.75 0.57" stroke="#000000" stroke-width="1" fill="none"></path></g><g transform="translate(584.6668979998797 578.6053134733883) rotate(0 29.1199951171875 16.80000000000001)"><text x="29.1199951171875" y="0" font-family="Virgil, Segoe UI Emoji" font-size="28px" fill="#000000" text-anchor="middle" style="white-space: pre;" direction="ltr" dominant-baseline="text-before-edge">DAC</text></g><g stroke-linecap="round"><g transform="translate(710.1902362264232 591.986755207099) rotate(0 69.23198200381648 -0.453630324275764)"><path d="M0.58 -1.98 C38.85 0.26, 77.75 2.19, 137.89 0.31 M0.91 -0.07 C48.01 -0.25, 94.21 1.68, 135.94 0.45" stroke="#000000" stroke-width="1" fill="none"></path></g></g><mask></mask><g stroke-linecap="round" transform="translate(517.9329652703898 747.4098957299074) rotate(0 97.08705476261355 97.08705476261355)"><path d="M0.21 1.87 C73.32 0.71, 147.08 2.52, 195.48 0.05 M-0.37 -0.38 C64.05 0.44, 127.15 0.57, 193.92 -0.06 M194.95 1.95 C190.87 54.07, 192.28 104.26, 195.87 194.23 M194.5 -0.95 C193.09 70.51, 193.8 138.39, 194.07 194.83 M195.12 193 C137.31 194.03, 81.29 195.56, 1.95 195.15 M193.87 194.7 C154.03 194.19, 113.66 192.95, -0.82 193.18 M-1.96 193.11 C1.54 141.07, 0.75 88.36, 1.24 0.21 M-0.24 193.48 C-1.25 143.4, -0.1 91.21, 0.07 -0.39" stroke="#000000" stroke-width="1" fill="none"></path></g><g transform="translate(585.900024915816 827.696950492521) rotate(0 29.1199951171875 16.80000000000001)"><text x="29.1199951171875" y="0" font-family="Virgil, Segoe UI Emoji" font-size="28px" fill="#000000" text-anchor="middle" style="white-space: pre;" direction="ltr" dominant-baseline="text-before-edge">ADC</text></g><g stroke-linecap="round"><g transform="translate(708.9571093104867 842.3115191421679) rotate(0 68.92718238747966 0.32387297348424227)"><path d="M0.58 0.15 C38.71 1.06, 75.51 -0.49, 137.28 0.22 M0.62 -0.2 C36.75 0.8, 72.7 1.18, 136.46 0.51" stroke="#000000" stroke-width="1" fill="none"></path></g></g><mask></mask><g stroke-linecap="round" transform="translate(1115.2524673567007 421.37831514958236) rotate(0 97.08705476261355 97.08705476261355)"><path d="M0.1 0.75 C72.97 -2.07, 147.56 -2.84, 195.74 -1.68 M-0.23 0.09 C62.64 -0.21, 126.82 0.06, 193.33 -0.59 M194.72 0.97 C195.8 50.13, 195.26 98.19, 195.87 193.98 M193.41 0.99 C193.96 41.28, 193.33 82.23, 195.03 194.9 M192.56 193 C122.38 192.48, 54.23 191.74, 0.02 195.37 M194.88 193.66 C147.32 196.56, 101.16 196.36, -0.54 194.86 M0.57 195.28 C2.62 132.76, 1.2 72.25, -1.95 -1.44 M-0.04 193.5 C0.04 116.19, 1.54 38.64, -0.66 0.76" stroke="#000000" stroke-width="1" fill="none"></path></g><g transform="translate(1180.1675326783964 501.66536991219596) rotate(0 32.17198944091797 16.80000000000001)"><text x="32.17198944091797" y="0" font-family="Virgil, Segoe UI Emoji" font-size="28px" fill="#000000" text-anchor="middle" style="white-space: pre;" direction="ltr" dominant-baseline="text-before-edge">DUT</text></g><g stroke-linecap="round"><g transform="translate(1310.7230442874009 566.0910899724366) rotate(0 68.07708204902065 0.8315142639195301)"><path d="M-1.14 -0.89 C48.66 -1.68, 100.18 -1.2, 137.3 2.87 M-0.99 0.49 C45.57 1.1, 91.17 0.21, 136.27 1.75" stroke="#000000" stroke-width="1" fill="none"></path></g></g><mask></mask><g transform="translate(1192.7496674018391 435.0988144016693) rotate(0 18.04998779296875 12)"><text x="0" y="0" font-family="Virgil, Segoe UI Emoji" font-size="20px" fill="#000000" text-anchor="start" style="white-space: pre;" direction="ltr" dominant-baseline="text-before-edge">VCC</text></g><g transform="translate(1126.160813941279 578.0090289865349) rotate(0 10.1199951171875 12)"><text x="0" y="0" font-family="Virgil, Segoe UI Emoji" font-size="20px" fill="#000000" text-anchor="start" style="white-space: pre;" direction="ltr" dominant-baseline="text-before-edge">In</text></g><g transform="translate(1256.0077573827355 555.8127444996817) rotate(0 21.29998016357422 11.999999999999972)"><text x="0" y="0" font-family="Virgil, Segoe UI Emoji" font-size="20px" fill="#000000" text-anchor="start" style="white-space: pre;" direction="ltr" dominant-baseline="text-before-edge">Out1</text></g><g stroke-linecap="round"><g transform="translate(1383.8854884828347 565.7500957624516) rotate(0 -270.2855934917381 138.81272761994182)"><path d="M0.42 -1.12 C0.37 78.94, 0.38 160.93, 0.85 276.74 M-0.66 -0.61 C1.18 58.48, 1.4 115.84, 0.77 276.98 M-0.54 276.74 C-171.62 279.6, -344.85 279.13, -541.66 277.06 M0 277.75 C-113.25 278.81, -226.9 278.03, -541.11 276.73" stroke="#000000" stroke-width="1" fill="none"></path></g></g><mask></mask><g stroke-linecap="round"><g transform="translate(845.0078771078031 594.1721865574519) rotate(0 134.7940846963308 0.08347427894176462)"><path d="M-1.06 0.7 C75.43 0.71, 149.22 1.23, 270.64 -0.14 M0.06 0.71 C90.5 -1.66, 180.57 -0.31, 270.02 0.3" stroke="#000000" stroke-width="1" fill="none"></path></g></g><mask></mask><g stroke-linecap="round"><g transform="translate(843.7747501918666 337.68178804270167) rotate(0 183.1385065471212 42.60628138182878)"><path d="M-0.55 -0.73 C109.26 -0.69, 216.5 -1.78, 364.21 -0.53 M0.39 0.24 C139.34 1.43, 278.3 0.67, 365.59 0.05 M363.75 0.68 C364.84 26.25, 366.36 52.19, 366.83 86.35 M364.73 0.17 C365.88 24.14, 364.92 50.12, 365.28 84.83" stroke="#000000" stroke-width="1" fill="none"></path></g></g><mask></mask><g stroke-linecap="round" transform="translate(519.3182402570712 10) rotate(0 97.08705476261355 97.08705476261355)"><path d="M0.53 0.98 C56.46 -2.13, 112.54 -1.39, 193.75 0.91 M0.68 -0.84 C72.08 -0.54, 143.18 -0.26, 194.26 -0.71 M192.4 -1.16 C195.7 76.65, 196.02 151.75, 193.52 194.87 M193.64 0.45 C195.57 39.16, 196.01 78.05, 194.5 194.06 M195.76 193.36 C138.15 194.25, 82.54 191.29, -0.03 195.17 M194.69 193.59 C127.65 191.74, 58.91 192.08, -0.04 194.25 M0.6 192.89 C0.49 143.78, 2.65 94.35, 1.59 0.01 M-0.73 195.15 C1.14 125.85, 1.94 58.86, 0.69 0.42" stroke="#000000" stroke-width="1" fill="none"></path></g><g transform="translate(587.2852999024974 90.28705476261355) rotate(0 29.1199951171875 16.800000000000004)"><text x="29.1199951171875" y="0" font-family="Virgil, Segoe UI Emoji" font-size="28px" fill="#000000" text-anchor="middle" style="white-space: pre;" direction="ltr" dominant-baseline="text-before-edge">ADC</text></g><g stroke-linecap="round"><g transform="translate(710.3423842971681 104.9016234122605) rotate(0 69.12672013036257 0.42131278958092366)"><path d="M0.13 -1.02 C48.75 -0.46, 97.29 1.22, 138.13 1.15 M0.39 0.05 C44.98 1.92, 90.42 1.34, 137.64 1.86" stroke="#000000" stroke-width="1" fill="none"></path></g></g><mask></mask><g stroke-linecap="round"><g transform="translate(846.2410040237392 105.85392784667721) rotate(0 0.42107846020178386 116.2654906656099)"><path d="M-0.36 -0.54 C-1.25 82.45, -0.1 169.08, 0.68 232.81 M0.62 0.73 C1.25 66.29, 1.7 133.29, 1.46 233.07" stroke="#000000" stroke-width="1" fill="none"></path></g></g><mask></mask><g stroke-linecap="round" transform="translate(843.296410162965 333.43149916371203) rotate(0 4.056340777666662 4.05847681809712)"><path d="M3.41 0.92 C4.4 0.68, 5.57 0.36, 6.15 0.62 C6.73 0.89, 6.54 1.89, 6.9 2.51 C7.25 3.14, 8.5 3.49, 8.25 4.37 C8 5.25, 6.19 7.03, 5.4 7.81 C4.6 8.59, 4.12 9.25, 3.49 9.03 C2.85 8.81, 2.26 7.13, 1.61 6.48 C0.96 5.83, -0.44 5.97, -0.42 5.12 C-0.41 4.26, 0.85 2.12, 1.68 1.34 C2.52 0.57, 4.07 0.77, 4.59 0.46 C5.11 0.16, 4.83 -0.33, 4.81 -0.5 M3.45 1.35 C4.25 1.45, 4.26 0.57, 5.11 0.97 C5.97 1.36, 7.95 2.81, 8.61 3.72 C9.26 4.64, 9.52 5.73, 9.03 6.46 C8.54 7.2, 6.55 7.64, 5.65 8.11 C4.75 8.57, 4.26 9.41, 3.63 9.27 C2.99 9.13, 2.43 8.1, 1.83 7.25 C1.23 6.4, 0.07 5.18, 0 4.15 C-0.06 3.11, 1.03 1.83, 1.46 1.05 C1.9 0.28, 2.41 -0.48, 2.62 -0.49 C2.83 -0.49, 2.62 1, 2.73 1.03" stroke="none" stroke-width="0" fill="#000"></path><path d="M3.32 -0.05 C3.94 -0.36, 4.6 -0.23, 5.32 0.31 C6.04 0.86, 7.37 2.49, 7.64 3.24 C7.91 3.98, 7.06 4.25, 6.91 4.8 C6.76 5.35, 7.38 5.97, 6.74 6.56 C6.09 7.15, 4.15 8.46, 3.04 8.34 C1.92 8.21, 0.71 6.39, 0.04 5.81 C-0.63 5.22, -0.99 5.41, -0.99 4.82 C-0.98 4.23, -0.87 3.13, 0.06 2.24 C1 1.35, 3.77 -0.36, 4.61 -0.51 C5.45 -0.65, 5.25 1.06, 5.11 1.36 M1.39 1.12 C2.22 0.65, 5.31 -0.26, 6.13 0.02 C6.95 0.3, 6 1.9, 6.3 2.8 C6.59 3.7, 7.55 4.84, 7.91 5.42 C8.27 6.01, 8.98 5.73, 8.47 6.3 C7.96 6.86, 5.88 8.62, 4.85 8.82 C3.82 9.01, 2.99 8.08, 2.28 7.46 C1.58 6.83, 1.01 6.1, 0.59 5.06 C0.18 4.02, -0.36 2.1, -0.21 1.22 C-0.07 0.34, 0.87 -0.05, 1.46 -0.22 C2.05 -0.4, 3.39 -0.23, 3.34 0.16" stroke="#000000" stroke-width="1" fill="none"></path></g><g stroke-linecap="round" transform="translate(1379.1018495028611 561.0787281356521) rotate(0 4.056340777666605 4.058476818097148)"><path d="M1.55 0.58 C2.36 0.04, 4.67 -0.08, 5.52 0.16 C6.36 0.4, 6.2 1.27, 6.61 2.04 C7.02 2.81, 7.89 3.93, 7.97 4.78 C8.05 5.63, 7.74 6.44, 7.1 7.14 C6.47 7.84, 5.21 8.97, 4.17 8.99 C3.14 9, 1.57 7.99, 0.89 7.22 C0.21 6.44, 0.18 5.26, 0.08 4.31 C-0.01 3.37, 0.02 2.14, 0.32 1.53 C0.62 0.91, 1.48 0.7, 1.87 0.63 C2.26 0.56, 2.65 1.27, 2.66 1.12 M3.34 -0.04 C4.12 -0.59, 6.69 -1.05, 7.37 -0.57 C8.06 -0.09, 7.48 1.93, 7.45 2.82 C7.42 3.71, 7.3 4.1, 7.17 4.77 C7.05 5.43, 7.1 6.06, 6.69 6.79 C6.29 7.53, 5.56 9.13, 4.73 9.2 C3.89 9.27, 2.29 8.19, 1.68 7.22 C1.08 6.25, 1.27 4.6, 1.08 3.4 C0.88 2.19, 0.27 0.77, 0.51 -0.03 C0.75 -0.84, 2.01 -1.6, 2.51 -1.44 C3.01 -1.28, 3.5 0.74, 3.51 0.93" stroke="none" stroke-width="0" fill="#000"></path><path d="M2.4 -0.44 C3.33 -0.57, 5.11 0.13, 6.01 0.62 C6.91 1.1, 7.62 1.89, 7.8 2.49 C7.98 3.08, 7.18 3.37, 7.09 4.21 C7.01 5.04, 7.8 6.91, 7.29 7.49 C6.78 8.06, 4.91 7.66, 4.04 7.67 C3.16 7.68, 2.61 8.17, 2.05 7.55 C1.49 6.92, 0.93 4.74, 0.67 3.91 C0.41 3.08, -0.04 3.21, 0.5 2.57 C1.04 1.93, 3.37 0.39, 3.89 0.1 C4.42 -0.2, 3.73 0.63, 3.66 0.81 M5.69 -0.64 C6.36 -0.07, 6.04 2.17, 6.54 3.02 C7.03 3.87, 8.69 3.58, 8.64 4.46 C8.6 5.33, 6.74 7.72, 6.27 8.28 C5.81 8.84, 6.77 8.05, 5.86 7.8 C4.94 7.56, 1.53 7.02, 0.79 6.82 C0.04 6.62, 1.46 7.24, 1.37 6.61 C1.29 5.99, 0.07 4.19, 0.29 3.08 C0.51 1.97, 2.02 0.56, 2.69 -0.04 C3.35 -0.64, 3.91 -0.4, 4.28 -0.52 C4.64 -0.64, 4.82 -1.12, 4.86 -0.76" stroke="#000000" stroke-width="1" fill="none"></path></g><g transform="translate(1255.2444750636569 583.9016131586033) rotate(0 25.709976196289062 12)"><text x="0" y="0" font-family="Virgil, Segoe UI Emoji" font-size="20px" fill="#000000" text-anchor="start" style="white-space: pre;" direction="ltr" dominant-baseline="text-before-edge">Out2</text></g><g stroke-linecap="round" transform="translate(520.9614216217492 984.2874161370554) rotate(0 97.08705476261355 97.08705476261355)"><path d="M1.83 0.01 C39.72 2.8, 82.18 -0.56, 194.15 -1.22 M0.65 0.44 C68.86 1.82, 139.79 1.56, 194.13 -0.24 M194.75 -1.21 C193.23 67.83, 193.89 136.58, 193.88 193.61 M194.36 0.61 C196.08 63.9, 195.43 127.96, 194.93 194.26 M195.61 195.49 C148.87 191.97, 99.84 191.7, 0.87 192.62 M193.56 194.12 C121.3 192.75, 47.72 194.13, -0.75 194.49 M-0.87 193.88 C-0.31 146.26, -3.05 95.46, 0.68 0.27 M0.92 193.22 C-0.82 129.19, 0.6 63.25, -0.76 0.74" stroke="#000000" stroke-width="1" fill="none"></path></g><g transform="translate(588.9284812671754 1064.574470899669) rotate(0 29.1199951171875 16.799999999999955)"><text x="29.1199951171875" y="0" font-family="Virgil, Segoe UI Emoji" font-size="28px" fill="#000000" text-anchor="middle" style="white-space: pre;" direction="ltr" dominant-baseline="text-before-edge">ADC</text></g><g stroke-linecap="round"><g transform="translate(711.9855656618463 1079.189039549316) rotate(0 68.46957836618003 0.751607620307027)"><path d="M-0.89 1.37 C31.87 -1.69, 61.77 -0.61, 137.94 2 M-1 0.36 C30.86 -0.19, 61.54 -0.23, 137.3 0.98" stroke="#000000" stroke-width="1" fill="none"></path></g></g><mask></mask><g stroke-linecap="round"><g transform="translate(848.1412190447977 1077.952113876145) rotate(0 254.96175132594283 -239.85350833927487)"><path d="M0.75 2.13 C168.82 1.95, 337.98 1.6, 508.5 1.33 M0.17 2.04 C183.27 3.71, 366.27 3.6, 508.77 2.38 M509.76 2.49 C508.81 -108.38, 508.24 -219.82, 508.88 -482.76 M509.52 1.87 C508.83 -182.33, 508.39 -366.6, 509.45 -482.16 M509.68 -480.37 C493.89 -482.39, 481.21 -483.34, 460.07 -480.09 M508.22 -483 C491.57 -481.72, 473.06 -481.55, 461.78 -482.44" stroke="#000000" stroke-width="1" fill="none"></path></g></g><mask></mask><g stroke-linecap="round"><g transform="translate(1355.767458075426 596.093101008857) rotate(0 53.32547929091777 0.27232863241806626)"><path d="M-0.17 0.57 C24.31 1.25, 50.84 -2.27, 106.13 1.37 M-0.94 -0.75 C21.41 1.35, 43.38 1.2, 107.59 -0.83" stroke="#000000" stroke-width="1" fill="none"></path></g></g><mask></mask><g stroke-linecap="round" transform="translate(1352.9682676986768 593.2917745916774) rotate(0 4.056340777666605 4.05847681809712)"><path d="M4.51 0.54 C5.48 0.43, 6.64 -0.01, 7.13 0.64 C7.63 1.29, 7.57 3.39, 7.48 4.43 C7.38 5.48, 7.09 6.35, 6.57 6.92 C6.05 7.48, 5 7.72, 4.35 7.85 C3.69 7.97, 3.22 7.95, 2.62 7.66 C2.01 7.37, 1.13 6.8, 0.69 6.12 C0.24 5.44, -0.21 4.45, -0.07 3.57 C0.08 2.69, 0.55 1.43, 1.54 0.81 C2.54 0.2, 5.15 -0.07, 5.89 -0.11 C6.63 -0.16, 6.27 0.47, 5.98 0.54 M4.64 0.03 C5.52 -0.01, 5.84 0.45, 6.41 1.13 C6.98 1.81, 7.91 3.2, 8.08 4.1 C8.26 4.99, 7.71 5.93, 7.45 6.49 C7.18 7.05, 7.25 7.36, 6.49 7.44 C5.73 7.52, 3.87 7.09, 2.89 6.97 C1.91 6.85, 0.96 7.43, 0.63 6.71 C0.29 5.98, 0.89 3.75, 0.88 2.64 C0.86 1.54, -0.08 0.56, 0.53 0.07 C1.14 -0.41, 3.88 -0.24, 4.53 -0.26 C5.18 -0.28, 4.59 -0.31, 4.43 -0.04" stroke="none" stroke-width="0" fill="#000"></path><path d="M5.1 0.77 C5.69 0.75, 6.33 0.95, 6.79 1.46 C7.24 1.97, 7.95 2.95, 7.85 3.85 C7.76 4.76, 6.81 6.06, 6.24 6.87 C5.66 7.69, 5.07 8.75, 4.39 8.73 C3.71 8.72, 2.83 7.55, 2.16 6.78 C1.49 6.02, 0.5 4.8, 0.38 4.12 C0.26 3.44, 0.98 3.19, 1.45 2.7 C1.91 2.2, 2.36 1.65, 3.17 1.16 C3.99 0.66, 5.84 -0.1, 6.34 -0.28 C6.83 -0.46, 6.11 -0.12, 6.12 0.09 M3.79 -0.75 C4.38 -1.18, 5.05 -0.21, 5.48 0.37 C5.91 0.96, 5.88 1.77, 6.36 2.75 C6.84 3.73, 8.39 5.28, 8.35 6.26 C8.31 7.23, 7.08 8.36, 6.12 8.62 C5.17 8.89, 3.35 8.3, 2.62 7.82 C1.9 7.34, 2.31 6.36, 1.77 5.76 C1.23 5.15, -0.26 4.87, -0.61 4.2 C-0.97 3.52, -1.01 2.27, -0.35 1.73 C0.3 1.18, 2.56 1.4, 3.33 0.94 C4.11 0.48, 4.43 -0.84, 4.28 -1.04" stroke="#000000" stroke-width="1" fill="none"></path></g><g stroke-linecap="round" transform="translate(10 356.9886302185877) rotate(0 128.90658759371846 223.2284809549759)"><path d="M-0.67 -0.25 C71.33 1.61, 145.33 2.49, 259.18 -1.35 M-0.68 0.26 C65.85 -0.15, 132.9 -0.09, 257.81 -0.62 M258.09 -0.45 C258.54 106.16, 258.79 211.67, 258.43 446.17 M258.28 -0.1 C257.27 172.32, 256.53 344.25, 257.69 446.37 M257.97 446.96 C184.51 447.76, 110.53 447.35, 0.64 446.2 M257.92 446.92 C184.13 445.9, 111.09 446.71, -0.15 446.92 M0.45 446.06 C0.9 317.06, 0.88 186.61, 0.97 0.42 M-0.49 446.8 C1.04 303.19, 1.94 159.81, -0.27 -0.28" stroke="#000000" stroke-width="1" fill="none"></path></g><g transform="translate(117.09059333102317 558.6171111735636) rotate(0 21.815994262695312 21.600000000000023)"><text x="21.815994262695312" y="0" font-family="Virgil, Segoe UI Emoji" font-size="36px" fill="#000000" text-anchor="middle" style="white-space: pre;" direction="ltr" dominant-baseline="text-before-edge">uC</text></g><g stroke-linecap="round"><g transform="translate(520.9102557068111 110.17967592329754) rotate(0 -125.33772841559147 168.1057950410022)"><path d="M1.55 -0.41 C-70.4 -0.09, -139.43 2.35, -197.24 0.16 M-196.14 0.93 C-195.66 123.39, -195.18 245.03, -195.17 336.63 M-197.17 336.1 C-211.86 336.35, -229.92 337.16, -252.22 335.03" stroke="#000000" stroke-width="1.5" fill="none" stroke-dasharray="8 9"></path></g></g><mask></mask><g stroke-linecap="round"><g transform="translate(514.6221294827271 341.26831465837824) rotate(0 -124.58406362708547 82.94863924639287)"><path d="M-0.94 1.02 C-29.22 -2.4, -61.64 -1.66, -144.62 -1.25 M-146.81 0.67 C-147.18 43.74, -149.2 84.65, -146.7 166.72 M-147.89 167.51 C-177.29 167.16, -205.83 167.57, -248.23 165.98" stroke="#000000" stroke-width="1.5" fill="none" stroke-dasharray="8 9"></path></g></g><mask></mask><g stroke-linecap="round"><g transform="translate(517.7661925947691 602.2255529578571) rotate(0 -124.24619244872196 0.6697441833961193)"><path d="M0.91 0.51 C-79.78 1.27, -158.29 1.38, -249.4 0.25" stroke="#000000" stroke-width="1.5" fill="none" stroke-dasharray="8 9"></path></g></g><mask></mask><g stroke-linecap="round"><g transform="translate(517.7661925947691 847.4624756971263) rotate(0 -124.50406380319271 -73.03337628425868)"><path d="M-0.46 -0.88 C-49.79 -0.72, -97.06 -1.18, -127.49 1.93 M-124.08 -1.56 C-128.41 -40.39, -124.82 -77.92, -125.39 -146.58 M-123.92 -147.01 C-156.25 -145.89, -190.42 -148.99, -248.55 -147.65" stroke="#000000" stroke-width="1.5" fill="none" stroke-dasharray="8 9"></path></g></g><mask></mask><g stroke-linecap="round"><g transform="translate(519.33822415079 1086.4112722123118) rotate(0 -128.03315933062464 -163.74925158854614)"><path d="M-1.21 0.32 C-60.5 1.39, -116.16 0.96, -186.85 -1.37 M-187.22 -0.15 C-184.84 -102.98, -186.57 -203.36, -188.25 -326.21 M-186.73 -327.11 C-210.86 -328.99, -231.12 -328.34, -254.85 -327.86" stroke="#000000" stroke-width="1.5" fill="none" stroke-dasharray="8 9"></path></g></g><mask></mask></svg>