M48
; DRILL file {KiCad 7.0.7} date Wed Jan 31 17:57:11 2024
; FORMAT={-:-/ absolute / metric / decimal}
; #@! TF.CreationDate,2024-01-31T17:57:11+01:00
; #@! TF.GenerationSoftware,Kicad,Pcbnew,7.0.7
; #@! TF.FileFunction,Plated,1,2,PTH
FMAT,2
METRIC
; #@! TA.AperFunction,Plated,PTH,ViaDrill
T1C0.400
; #@! TA.AperFunction,Plated,PTH,ComponentDrill
T2C0.760
; #@! TA.AperFunction,Plated,PTH,ComponentDrill
T3C0.800
; #@! TA.AperFunction,Plated,PTH,ComponentDrill
T4C0.900
; #@! TA.AperFunction,Plated,PTH,ComponentDrill
T5C1.000
; #@! TA.AperFunction,Plated,PTH,ComponentDrill
T6C1.100
; #@! TA.AperFunction,Plated,PTH,ComponentDrill
T7C1.300
; #@! TA.AperFunction,Plated,PTH,ComponentDrill
T8C1.500
; #@! TA.AperFunction,Plated,PTH,ComponentDrill
T9C4.000
%
G90
G05
T1
X135.0Y-118.5
X135.0Y-120.0
X135.0Y-121.5
X136.5Y-181.0
X139.0Y-183.0
X142.5Y-115.5
X142.5Y-117.0
X142.5Y-118.5
X142.5Y-120.0
X162.5Y-156.0
X163.0Y-184.0
X164.5Y-184.0
X165.0Y-156.0
X166.0Y-184.0
X174.5Y-110.5
X176.0Y-110.5
X177.5Y-110.5
X179.5Y-122.5
X185.5Y-120.5
X185.5Y-122.5
X185.5Y-124.5
X185.5Y-126.5
X187.0Y-148.5
X196.0Y-140.5
X197.0Y-212.5
X198.5Y-212.5
X200.0Y-212.5
X201.5Y-101.0
X201.5Y-102.5
X201.5Y-104.0
X202.0Y-89.0
X203.5Y-89.0
X205.0Y-89.0
X206.0Y-154.0
X206.0Y-159.0
X207.0Y-215.0
X208.5Y-215.0
X210.0Y-149.0
X210.0Y-215.0
X211.0Y-93.0
X212.5Y-93.0
X213.5Y-127.5
X213.5Y-129.0
X213.5Y-130.5
X214.0Y-93.0
X215.5Y-93.0
X217.0Y-220.0
X218.0Y-154.0
X218.0Y-159.0
X219.0Y-220.0
X221.0Y-220.0
X221.5Y-124.0
X221.5Y-125.5
X221.5Y-140.5
X221.5Y-142.0
X222.0Y-104.5
X222.0Y-106.0
X222.0Y-107.5
X222.0Y-114.5
X222.0Y-116.0
X222.5Y-165.0
X223.0Y-220.0
X243.0Y-206.5
X243.0Y-208.0
X243.0Y-209.5
X244.0Y-84.5
X244.0Y-86.0
X244.0Y-87.5
X244.0Y-115.5
X244.0Y-117.0
X244.0Y-118.5
X244.0Y-146.5
X244.0Y-148.0
X244.0Y-149.5
X244.0Y-177.0
X244.0Y-178.5
X244.0Y-180.0
X244.5Y-63.5
X244.5Y-95.0
X244.5Y-125.5
X244.5Y-156.0
X245.0Y-187.0
X246.0Y-63.5
X246.0Y-95.0
X246.0Y-125.5
X246.0Y-156.0
X246.5Y-187.0
X247.5Y-63.5
X247.5Y-95.0
X247.5Y-125.5
X247.5Y-156.0
X248.0Y-187.0
X277.5Y-124.0
X277.5Y-125.5
X277.5Y-127.0
X277.5Y-154.5
X277.5Y-156.0
X277.5Y-157.5
X278.0Y-93.0
X278.0Y-94.5
X278.0Y-96.0
X278.0Y-185.5
X278.0Y-187.0
X278.0Y-188.5
X279.5Y-215.5
X282.5Y-64.0
X284.0Y-64.0
X284.5Y-126.0
X284.5Y-157.5
X285.0Y-95.0
X285.5Y-64.0
X285.5Y-187.0
X286.0Y-126.0
X286.0Y-157.5
X286.5Y-95.0
X287.0Y-187.0
X287.5Y-126.0
X287.5Y-157.5
X288.0Y-95.0
X288.5Y-187.0
T2
X281.735Y-72.125
X281.735Y-74.665
X281.735Y-77.205
X281.735Y-79.745
X281.735Y-102.875
X281.735Y-105.415
X281.735Y-107.955
X281.735Y-110.495
X281.735Y-133.59
X281.735Y-136.13
X281.735Y-138.67
X281.735Y-141.21
X281.735Y-164.305
X281.735Y-166.845
X281.735Y-169.385
X281.735Y-171.925
X281.735Y-195.09
X281.735Y-197.63
X281.735Y-200.17
X281.735Y-202.71
X284.275Y-73.395
X284.275Y-75.935
X284.275Y-78.475
X284.275Y-81.015
X284.275Y-104.145
X284.275Y-106.685
X284.275Y-109.225
X284.275Y-111.765
X284.275Y-134.86
X284.275Y-137.4
X284.275Y-139.94
X284.275Y-142.48
X284.275Y-165.575
X284.275Y-168.115
X284.275Y-170.655
X284.275Y-173.195
X284.275Y-196.36
X284.275Y-198.9
X284.275Y-201.44
X284.275Y-203.98
T3
X143.705Y-83.75
X144.597Y-151.55
X144.597Y-176.95
X146.205Y-83.75
X147.137Y-151.55
X147.137Y-176.95
X149.677Y-151.55
X149.677Y-176.95
X152.217Y-151.55
X152.217Y-176.95
X154.757Y-151.55
X154.757Y-176.95
X157.297Y-151.55
X157.297Y-176.95
X159.837Y-151.55
X159.837Y-176.95
X162.377Y-151.55
X162.377Y-176.95
X164.917Y-151.55
X164.917Y-176.95
X167.457Y-151.55
X167.457Y-176.95
X169.997Y-151.55
X169.997Y-176.95
X172.537Y-151.55
X172.537Y-176.95
X175.077Y-151.55
X175.077Y-176.95
X177.617Y-151.55
X177.617Y-176.95
X180.157Y-151.55
X180.157Y-176.95
X182.697Y-151.55
X182.697Y-176.95
X185.237Y-151.55
X185.237Y-176.95
X185.25Y-140.25
X185.25Y-142.75
X187.774Y-151.554
X187.777Y-176.95
X190.314Y-151.554
X190.317Y-176.95
X191.6Y-97.395
X191.6Y-99.935
X191.6Y-102.475
X191.6Y-105.015
X191.6Y-107.555
X191.6Y-110.095
X191.6Y-112.635
X191.6Y-115.175
X191.6Y-117.715
X191.6Y-120.255
X191.6Y-122.795
X191.6Y-125.335
X191.6Y-127.875
X191.6Y-130.415
X191.6Y-132.955
X191.6Y-135.495
X191.6Y-138.035
X191.6Y-140.575
X191.6Y-143.115
X194.795Y-163.0
X197.295Y-163.0
X216.996Y-140.572
X216.996Y-143.112
X217.0Y-97.395
X217.0Y-99.935
X217.0Y-102.475
X217.0Y-105.015
X217.0Y-107.555
X217.0Y-110.095
X217.0Y-112.635
X217.0Y-115.175
X217.0Y-117.715
X217.0Y-120.255
X217.0Y-122.795
X217.0Y-125.335
X217.0Y-127.875
X217.0Y-130.415
X217.0Y-132.955
X217.0Y-135.495
X217.0Y-138.035
X275.5Y-179.25
X275.5Y-210.0
X275.75Y-87.0
X275.75Y-117.75
X275.75Y-148.5
X278.0Y-179.25
X278.0Y-210.0
X278.25Y-87.0
X278.25Y-117.75
X278.25Y-148.5
T4
X167.55Y-79.4
X167.55Y-84.4
X172.55Y-81.9
T5
X137.71Y-140.21
X137.71Y-142.75
X140.25Y-140.21
X140.25Y-142.75
X153.88Y-82.0
X156.42Y-82.0
X158.96Y-82.0
X161.5Y-82.0
X169.0Y-116.9
X169.0Y-119.44
X169.0Y-121.98
X169.0Y-124.52
X169.0Y-127.06
X169.0Y-129.6
X185.4Y-62.7
X191.5Y-80.46
X191.5Y-83.0
X195.5Y-149.46
X195.5Y-152.0
X195.5Y-174.225
X195.5Y-176.765
X199.38Y-82.0
X201.92Y-82.0
X204.46Y-82.0
X207.0Y-82.0
X215.784Y-62.75
X229.005Y-87.535
X229.085Y-70.01
X229.085Y-72.55
X229.085Y-75.09
X229.085Y-118.285
X229.085Y-149.035
X229.085Y-179.855
X229.085Y-210.615
X229.125Y-100.705
X229.125Y-103.245
X229.125Y-105.785
X229.125Y-131.455
X229.125Y-133.995
X229.125Y-136.535
X229.125Y-162.275
X229.125Y-164.815
X229.125Y-167.355
X229.125Y-193.035
X229.125Y-195.575
X229.125Y-198.115
X231.545Y-87.535
X231.625Y-118.285
X231.625Y-149.035
X231.625Y-179.855
X231.625Y-210.615
X234.085Y-87.535
X234.165Y-118.285
X234.165Y-149.035
X234.165Y-179.855
X234.165Y-210.615
X236.625Y-87.535
X236.705Y-118.285
X236.705Y-149.035
X236.705Y-179.855
X236.705Y-210.615
X239.569Y-67.702
X239.569Y-70.242
X239.569Y-72.782
X239.569Y-98.492
X239.569Y-101.032
X239.569Y-103.572
X239.569Y-129.202
X239.569Y-131.742
X239.569Y-134.282
X239.569Y-159.952
X239.569Y-162.492
X239.569Y-165.032
X239.569Y-190.702
X239.569Y-193.242
X239.569Y-195.782
X258.625Y-89.983
X258.625Y-120.733
X258.625Y-151.483
X258.625Y-182.271
X258.625Y-213.031
T6
X146.3Y-213.35
X146.3Y-217.85
X152.8Y-213.35
X152.8Y-217.85
X159.8Y-213.35
X159.8Y-217.85
X166.3Y-213.35
X166.3Y-217.85
X173.3Y-213.35
X173.3Y-217.85
X179.8Y-213.35
X179.8Y-217.85
X186.8Y-213.35
X186.8Y-217.85
X193.3Y-213.35
X193.3Y-217.85
T7
X135.25Y-84.285
X135.25Y-89.285
T8
X159.65Y-62.7
X190.034Y-62.75
X258.625Y-64.233
X258.625Y-94.983
X258.625Y-125.733
X258.625Y-156.521
X258.625Y-187.281
X287.069Y-68.823
X287.069Y-84.317
X287.069Y-99.573
X287.069Y-115.067
X287.069Y-130.288
X287.069Y-145.782
X287.069Y-161.003
X287.069Y-176.497
X287.069Y-191.788
X287.069Y-207.282
T9
X137.3Y-70.1
X143.2Y-70.1
X149.2Y-70.1
T0
M30
