M48
; DRILL file {KiCad 7.0.7} date Fri Dec  1 16:49:13 2023
; FORMAT={-:-/ absolute / metric / decimal}
; #@! TF.CreationDate,2023-12-01T16:49:13+01:00
; #@! TF.GenerationSoftware,Kicad,Pcbnew,7.0.7
; #@! TF.FileFunction,Plated,1,2,PTH
FMAT,2
METRIC
; #@! TA.AperFunction,Plated,PTH,ComponentDrill
T1C0.760
; #@! TA.AperFunction,Plated,PTH,ComponentDrill
T2C0.800
; #@! TA.AperFunction,Plated,PTH,ComponentDrill
T3C0.900
; #@! TA.AperFunction,Plated,PTH,ComponentDrill
T4C1.000
; #@! TA.AperFunction,Plated,PTH,ComponentDrill
T5C1.100
; #@! TA.AperFunction,Plated,PTH,ComponentDrill
T6C1.300
; #@! TA.AperFunction,Plated,PTH,ComponentDrill
T7C1.500
%
G90
G05
T1
X281.735Y-72.125
X281.735Y-74.665
X281.735Y-77.205
X281.735Y-79.745
X281.735Y-102.875
X281.735Y-105.415
X281.735Y-107.955
X281.735Y-110.495
X281.735Y-133.59
X281.735Y-136.13
X281.735Y-138.67
X281.735Y-141.21
X281.735Y-164.305
X281.735Y-166.845
X281.735Y-169.385
X281.735Y-171.925
X281.735Y-195.09
X281.735Y-197.63
X281.735Y-200.17
X281.735Y-202.71
X284.275Y-73.395
X284.275Y-75.935
X284.275Y-78.475
X284.275Y-81.015
X284.275Y-104.145
X284.275Y-106.685
X284.275Y-109.225
X284.275Y-111.765
X284.275Y-134.86
X284.275Y-137.4
X284.275Y-139.94
X284.275Y-142.48
X284.275Y-165.575
X284.275Y-168.115
X284.275Y-170.655
X284.275Y-173.195
X284.275Y-196.36
X284.275Y-198.9
X284.275Y-201.44
X284.275Y-203.98
T2
X143.705Y-83.75
X144.597Y-151.55
X144.597Y-176.95
X146.205Y-83.75
X147.137Y-151.55
X147.137Y-176.95
X149.677Y-151.55
X149.677Y-176.95
X152.217Y-151.55
X152.217Y-176.95
X154.757Y-151.55
X154.757Y-176.95
X157.297Y-151.55
X157.297Y-176.95
X159.837Y-151.55
X159.837Y-176.95
X162.377Y-151.55
X162.377Y-176.95
X164.917Y-151.55
X164.917Y-176.95
X167.457Y-151.55
X167.457Y-176.95
X169.997Y-151.55
X169.997Y-176.95
X172.537Y-151.55
X172.537Y-176.95
X175.077Y-151.55
X175.077Y-176.95
X177.617Y-151.55
X177.617Y-176.95
X180.157Y-151.55
X180.157Y-176.95
X182.697Y-151.55
X182.697Y-176.95
X185.237Y-151.55
X185.237Y-176.95
X185.25Y-140.25
X185.25Y-142.75
X187.438Y-183.25
X187.774Y-151.554
X187.777Y-176.95
X189.938Y-183.25
X190.314Y-151.554
X190.317Y-176.95
X191.6Y-97.395
X191.6Y-99.935
X191.6Y-102.475
X191.6Y-105.015
X191.6Y-107.555
X191.6Y-110.095
X191.6Y-112.635
X191.6Y-115.175
X191.6Y-117.715
X191.6Y-120.255
X191.6Y-122.795
X191.6Y-125.335
X191.6Y-127.875
X191.6Y-130.415
X191.6Y-132.955
X191.6Y-135.495
X191.6Y-138.035
X191.6Y-140.575
X191.6Y-143.115
X216.996Y-140.572
X216.996Y-143.112
X217.0Y-97.395
X217.0Y-99.935
X217.0Y-102.475
X217.0Y-105.015
X217.0Y-107.555
X217.0Y-110.095
X217.0Y-112.635
X217.0Y-115.175
X217.0Y-117.715
X217.0Y-120.255
X217.0Y-122.795
X217.0Y-125.335
X217.0Y-127.875
X217.0Y-130.415
X217.0Y-132.955
X217.0Y-135.495
X217.0Y-138.035
X275.5Y-179.25
X275.5Y-210.0
X275.75Y-87.0
X275.75Y-117.75
X275.75Y-148.5
X278.0Y-179.25
X278.0Y-210.0
X278.25Y-87.0
X278.25Y-117.75
X278.25Y-148.5
T3
X149.5Y-198.485
X149.5Y-201.025
X160.25Y-198.5
X160.25Y-201.04
X171.0Y-198.5
X171.0Y-201.04
X181.75Y-198.46
X181.75Y-201.0
X203.75Y-183.225
X203.75Y-185.765
X203.75Y-192.935
X203.75Y-195.475
X213.5Y-183.225
X213.5Y-185.765
X213.5Y-192.96
X213.5Y-195.5
T4
X153.88Y-82.0
X156.42Y-82.0
X158.96Y-82.0
X161.5Y-82.0
X169.0Y-116.9
X169.0Y-119.44
X169.0Y-121.98
X169.0Y-124.52
X169.0Y-127.06
X169.0Y-129.6
X170.284Y-62.75
X199.38Y-82.0
X201.92Y-82.0
X204.46Y-82.0
X207.0Y-82.0
X215.784Y-62.75
X229.005Y-87.535
X229.085Y-70.01
X229.085Y-72.55
X229.085Y-75.09
X229.085Y-118.285
X229.085Y-149.035
X229.085Y-179.855
X229.085Y-210.615
X229.125Y-100.705
X229.125Y-103.245
X229.125Y-105.785
X229.125Y-131.455
X229.125Y-133.995
X229.125Y-136.535
X229.125Y-162.275
X229.125Y-164.815
X229.125Y-167.355
X229.125Y-193.035
X229.125Y-195.575
X229.125Y-198.115
X231.545Y-87.535
X231.625Y-118.285
X231.625Y-149.035
X231.625Y-179.855
X231.625Y-210.615
X234.085Y-87.535
X234.165Y-118.285
X234.165Y-149.035
X234.165Y-179.855
X234.165Y-210.615
X236.625Y-87.535
X236.705Y-118.285
X236.705Y-149.035
X236.705Y-179.855
X236.705Y-210.615
X239.569Y-70.242
X239.569Y-72.782
X239.569Y-101.032
X239.569Y-103.572
X239.569Y-131.742
X239.569Y-134.282
X239.569Y-162.492
X239.569Y-165.032
X239.569Y-193.242
X239.569Y-195.782
X258.625Y-89.983
X258.625Y-120.733
X258.625Y-151.483
X258.625Y-182.271
X258.625Y-213.031
T5
X146.25Y-213.5
X146.25Y-218.0
X152.75Y-213.5
X152.75Y-218.0
X157.0Y-213.5
X157.0Y-218.0
X163.5Y-213.5
X163.5Y-218.0
X167.75Y-213.5
X167.75Y-218.0
X174.25Y-213.5
X174.25Y-218.0
X178.5Y-213.5
X178.5Y-218.0
X185.0Y-213.5
X185.0Y-218.0
X198.5Y-213.5
X198.5Y-218.0
X205.0Y-213.5
X205.0Y-218.0
X209.25Y-213.5
X209.25Y-218.0
X215.75Y-213.5
X215.75Y-218.0
T6
X135.25Y-84.285
X135.25Y-89.285
T7
X144.534Y-62.75
X190.034Y-62.75
X258.625Y-64.233
X258.625Y-94.983
X258.625Y-125.733
X258.625Y-156.521
X258.625Y-187.281
X287.069Y-68.823
X287.069Y-84.317
X287.069Y-99.573
X287.069Y-115.067
X287.069Y-130.288
X287.069Y-145.782
X287.069Y-161.003
X287.069Y-176.497
X287.069Y-191.788
X287.069Y-207.282
T0
M30
