G04 #@! TF.GenerationSoftware,KiCad,Pcbnew,7.0.7*
G04 #@! TF.CreationDate,2024-01-31T17:57:02+01:00*
G04 #@! TF.ProjectId,AudioController,41756469-6f43-46f6-9e74-726f6c6c6572,V1.0*
G04 #@! TF.SameCoordinates,Original*
G04 #@! TF.FileFunction,Soldermask,Top*
G04 #@! TF.FilePolarity,Negative*
%FSLAX46Y46*%
G04 Gerber Fmt 4.6, Leading zero omitted, Abs format (unit mm)*
G04 Created by KiCad (PCBNEW 7.0.7) date 2024-01-31 17:57:02*
%MOMM*%
%LPD*%
G01*
G04 APERTURE LIST*
G04 Aperture macros list*
%AMRoundRect*
0 Rectangle with rounded corners*
0 $1 Rounding radius*
0 $2 $3 $4 $5 $6 $7 $8 $9 X,Y pos of 4 corners*
0 Add a 4 corners polygon primitive as box body*
4,1,4,$2,$3,$4,$5,$6,$7,$8,$9,$2,$3,0*
0 Add four circle primitives for the rounded corners*
1,1,$1+$1,$2,$3*
1,1,$1+$1,$4,$5*
1,1,$1+$1,$6,$7*
1,1,$1+$1,$8,$9*
0 Add four rect primitives between the rounded corners*
20,1,$1+$1,$2,$3,$4,$5,0*
20,1,$1+$1,$4,$5,$6,$7,0*
20,1,$1+$1,$6,$7,$8,$9,0*
20,1,$1+$1,$8,$9,$2,$3,0*%
%AMFreePoly0*
4,1,194,0.556446,16.780126,1.110056,16.720607,1.658009,16.621746,2.197514,16.484045,2.725821,16.308208,3.240237,16.095130,3.738142,15.845896,4.216998,15.561778,4.674366,15.244222,5.107914,14.894847,5.515433,14.515433,5.894847,14.107914,6.244222,13.674366,6.561778,13.216998,6.845896,12.738142,7.095130,12.240237,7.308208,11.725821,7.484045,11.197514,7.621746,10.658009,7.720607,10.110056,
7.780126,9.556446,7.800000,9.000000,7.780126,8.443554,7.720607,7.889944,7.621746,7.341991,7.484045,6.802486,7.308208,6.274179,7.095130,5.759763,6.845896,5.261858,6.561778,4.783002,6.244222,4.325634,5.894847,3.892086,5.515433,3.484567,5.107914,3.105153,4.674366,2.755778,4.216998,2.438222,3.738142,2.154104,3.240237,1.904870,2.725821,1.691792,2.197514,1.515955,
1.658009,1.378254,1.500000,1.349746,1.500000,0.000000,1.479542,-0.246892,1.418726,-0.487049,1.319211,-0.713921,1.183711,-0.921319,1.015922,-1.103586,0.820422,-1.255750,0.602543,-1.373660,0.500000,-1.408862,0.500000,-5.000000,0.479746,-5.140866,0.420627,-5.270320,0.327430,-5.377875,0.207708,-5.454816,0.071157,-5.494911,-0.071157,-5.494911,-0.207708,-5.454816,-0.327430,-5.377875,
-0.420627,-5.270320,-0.479746,-5.140866,-0.500000,-5.000000,-0.500000,-1.408862,-0.602543,-1.373660,-0.820422,-1.255750,-1.015922,-1.103586,-1.183711,-0.921319,-1.319211,-0.713921,-1.418726,-0.487049,-1.479542,-0.246892,-1.500000,0.000000,-1.500000,1.349746,-1.658009,1.378254,-2.197514,1.515955,-2.725821,1.691792,-3.240237,1.904870,-3.738142,2.154104,-4.216998,2.438222,-4.674366,2.755778,
-5.107914,3.105153,-5.515433,3.484567,-5.894847,3.892086,-6.244222,4.325634,-6.561778,4.783002,-6.845896,5.261858,-7.095130,5.759763,-7.308208,6.274179,-7.484045,6.802486,-7.621746,7.341991,-7.720607,7.889944,-7.780126,8.443554,-7.800000,9.000000,-5.804959,9.000000,-5.785132,8.520630,-5.725787,8.044535,-5.627329,7.574967,-5.490430,7.115133,-5.316027,6.668175,-5.105309,6.237145,
-4.859717,5.824988,-4.580928,5.434520,-4.270847,5.068408,-3.931592,4.729153,-3.565480,4.419072,-3.175012,4.140283,-2.762855,3.894691,-2.331825,3.683973,-1.884867,3.509570,-1.425033,3.372671,-0.955465,3.274213,-0.479370,3.214868,0.000000,3.195041,0.479370,3.214868,0.955465,3.274213,1.425033,3.372671,1.884867,3.509570,2.331825,3.683973,2.762855,3.894691,3.175012,4.140283,
3.565480,4.419072,3.931592,4.729153,4.270847,5.068408,4.580928,5.434520,4.859717,5.824988,5.105309,6.237145,5.316027,6.668175,5.490430,7.115133,5.627329,7.574967,5.725787,8.044535,5.785132,8.520630,5.804959,9.000000,5.785132,9.479370,5.725787,9.955465,5.627329,10.425033,5.490430,10.884867,5.316027,11.331825,5.105309,11.762855,4.859717,12.175012,4.580928,12.565480,
4.270847,12.931592,3.931592,13.270847,3.565480,13.580928,3.175012,13.859717,2.762855,14.105309,2.331825,14.316027,1.884867,14.490430,1.425033,14.627329,0.955465,14.725787,0.479370,14.785132,0.000000,14.804959,-0.479370,14.785132,-0.955465,14.725787,-1.425033,14.627329,-1.884867,14.490430,-2.331825,14.316027,-2.762855,14.105309,-3.175012,13.859717,-3.565480,13.580928,-3.931592,13.270847,
-4.270847,12.931592,-4.580928,12.565480,-4.859717,12.175012,-5.105309,11.762855,-5.316027,11.331825,-5.490430,10.884867,-5.627329,10.425033,-5.725787,9.955465,-5.785132,9.479370,-5.804959,9.000000,-7.800000,9.000000,-7.780126,9.556446,-7.720607,10.110056,-7.621746,10.658009,-7.484045,11.197514,-7.308208,11.725821,-7.095130,12.240237,-6.845896,12.738142,-6.561778,13.216998,-6.244222,13.674366,
-5.894847,14.107914,-5.515433,14.515433,-5.107914,14.894847,-4.674366,15.244222,-4.216998,15.561778,-3.738142,15.845896,-3.240237,16.095130,-2.725821,16.308208,-2.197514,16.484045,-1.658009,16.621746,-1.110056,16.720607,-0.556446,16.780126,0.000000,16.800000,0.556446,16.780126,0.556446,16.780126,$1*%
%AMFreePoly1*
4,1,39,0.368228,1.454100,0.602543,1.373660,0.820422,1.255750,1.015922,1.103586,1.183711,0.921319,1.319211,0.713921,1.418726,0.487049,1.479542,0.246892,1.500000,0.000000,1.479542,-0.246892,1.418726,-0.487049,1.319211,-0.713921,1.183711,-0.921319,1.015922,-1.103586,0.820422,-1.255750,0.602543,-1.373660,0.368228,-1.454100,0.123869,-1.494877,-0.123869,-1.494877,-0.368228,-1.454100,
-0.602543,-1.373660,-0.820422,-1.255750,-1.015922,-1.103586,-1.183711,-0.921319,-1.319211,-0.713921,-1.418726,-0.487049,-1.479542,-0.246892,-1.500000,0.000000,-1.479542,0.246892,-1.418726,0.487049,-1.319211,0.713921,-1.183711,0.921319,-1.015922,1.103586,-0.820422,1.255750,-0.602543,1.373660,-0.368228,1.454100,-0.123869,1.494877,0.123869,1.494877,0.368228,1.454100,0.368228,1.454100,
$1*%
G04 Aperture macros list end*
%ADD10C,3.000000*%
%ADD11R,1.700000X1.700000*%
%ADD12O,1.700000X1.700000*%
%ADD13RoundRect,0.250000X0.450000X-0.350000X0.450000X0.350000X-0.450000X0.350000X-0.450000X-0.350000X0*%
%ADD14C,3.200000*%
%ADD15R,1.500000X1.500000*%
%ADD16C,1.500000*%
%ADD17C,2.500000*%
%ADD18RoundRect,0.250000X-0.412500X-0.650000X0.412500X-0.650000X0.412500X0.650000X-0.412500X0.650000X0*%
%ADD19R,1.500000X0.900000*%
%ADD20FreePoly0,270.000000*%
%ADD21FreePoly1,270.000000*%
%ADD22R,1.600000X1.600000*%
%ADD23C,1.600000*%
%ADD24FreePoly0,180.000000*%
%ADD25FreePoly1,180.000000*%
%ADD26R,2.500000X2.500000*%
%ADD27RoundRect,0.250000X-0.350000X-0.450000X0.350000X-0.450000X0.350000X0.450000X-0.350000X0.450000X0*%
%ADD28C,2.000000*%
%ADD29R,2.000000X1.200000*%
%ADD30O,2.000000X1.200000*%
%ADD31R,1.000000X1.500000*%
%ADD32R,1.200000X2.000000*%
%ADD33O,1.200000X2.000000*%
%ADD34RoundRect,0.250000X0.650000X-0.412500X0.650000X0.412500X-0.650000X0.412500X-0.650000X-0.412500X0*%
%ADD35RoundRect,0.250000X0.412500X0.650000X-0.412500X0.650000X-0.412500X-0.650000X0.412500X-0.650000X0*%
%ADD36O,5.000000X7.000000*%
%ADD37C,1.620000*%
%ADD38RoundRect,0.250000X-0.650000X0.412500X-0.650000X-0.412500X0.650000X-0.412500X0.650000X0.412500X0*%
G04 APERTURE END LIST*
D10*
X135250000Y-152500000D03*
D11*
X191500000Y-80460000D03*
D12*
X191500000Y-83000000D03*
D13*
X142500000Y-216500000D03*
X142500000Y-214500000D03*
D14*
X290625000Y-82285000D03*
X290625000Y-70855000D03*
D15*
X284275000Y-81015000D03*
D16*
X281735000Y-79745000D03*
X284275000Y-78475000D03*
X281735000Y-77205000D03*
X284275000Y-75935000D03*
X281735000Y-74665000D03*
X284275000Y-73395000D03*
X281735000Y-72125000D03*
D17*
X287069000Y-84317000D03*
X287069000Y-68823000D03*
D18*
X281750000Y-181250000D03*
X284875000Y-181250000D03*
D19*
X160850000Y-201350000D03*
X160850000Y-204650000D03*
X165750000Y-204650000D03*
X165750000Y-201350000D03*
X165700000Y-193150000D03*
X165700000Y-189850000D03*
X160800000Y-189850000D03*
X160800000Y-193150000D03*
D12*
X215784000Y-62750000D03*
D20*
X194784000Y-62750000D03*
D21*
X190034000Y-62750000D03*
D22*
X278250000Y-87000000D03*
D23*
X275750000Y-87000000D03*
D22*
X146205113Y-83750000D03*
D23*
X143705113Y-83750000D03*
D11*
X229005000Y-87535000D03*
D12*
X231545000Y-87535000D03*
X234085000Y-87535000D03*
X236625000Y-87535000D03*
D11*
X137710000Y-140210000D03*
D12*
X140250000Y-140210000D03*
X137710000Y-142750000D03*
X140250000Y-142750000D03*
X258625000Y-120733000D03*
D24*
X258625000Y-99733000D03*
D25*
X258625000Y-94983000D03*
D26*
X135250000Y-84285000D03*
D17*
X135250000Y-89285000D03*
D13*
X183000000Y-216500000D03*
X183000000Y-214500000D03*
D27*
X220000000Y-154000000D03*
X222000000Y-154000000D03*
D19*
X192500000Y-193000000D03*
X192500000Y-189700000D03*
X187600000Y-189700000D03*
X187600000Y-193000000D03*
D28*
X173300000Y-213350000D03*
X179800000Y-213350000D03*
X173300000Y-217850000D03*
X179800000Y-217850000D03*
D11*
X229085000Y-149035000D03*
D12*
X231625000Y-149035000D03*
X234165000Y-149035000D03*
X236705000Y-149035000D03*
D11*
X195500000Y-174225000D03*
D12*
X195500000Y-176765000D03*
D10*
X135500000Y-185500000D03*
D12*
X258625000Y-213031000D03*
D24*
X258625000Y-192031000D03*
D25*
X258625000Y-187281000D03*
D12*
X258625000Y-182271000D03*
D24*
X258625000Y-161271000D03*
D25*
X258625000Y-156521000D03*
D29*
X191600000Y-97395000D03*
D30*
X191600000Y-99935000D03*
X191600000Y-102475000D03*
X191600000Y-105015000D03*
X191600000Y-107555000D03*
X191600000Y-110095000D03*
X191600000Y-112635000D03*
X191600000Y-115175000D03*
X191600000Y-117715000D03*
X191600000Y-120255000D03*
X191600000Y-122795000D03*
X191600000Y-125335000D03*
X191600000Y-127875000D03*
X191600000Y-130415000D03*
X191600000Y-132955000D03*
X191600000Y-135495000D03*
X191600000Y-138035000D03*
X191600000Y-140575000D03*
X191600000Y-143115000D03*
X216996320Y-143112280D03*
X216996320Y-140572280D03*
X217000000Y-138035000D03*
X217000000Y-135495000D03*
X217000000Y-132955000D03*
X217000000Y-130415000D03*
X217000000Y-127875000D03*
X217000000Y-125335000D03*
X217000000Y-122795000D03*
X217000000Y-120255000D03*
X217000000Y-117715000D03*
X217000000Y-115175000D03*
X217000000Y-112635000D03*
X217000000Y-110095000D03*
X217000000Y-107555000D03*
X217000000Y-105015000D03*
X217000000Y-102475000D03*
X217000000Y-99935000D03*
X217000000Y-97395000D03*
D11*
X239569000Y-72782000D03*
D12*
X239569000Y-70242000D03*
X239569000Y-67702000D03*
D14*
X290625000Y-113035000D03*
X290625000Y-101605000D03*
D15*
X284275000Y-111765000D03*
D16*
X281735000Y-110495000D03*
X284275000Y-109225000D03*
X281735000Y-107955000D03*
X284275000Y-106685000D03*
X281735000Y-105415000D03*
X284275000Y-104145000D03*
X281735000Y-102875000D03*
D17*
X287069000Y-115067000D03*
X287069000Y-99573000D03*
D18*
X281687500Y-150500000D03*
X284812500Y-150500000D03*
D11*
X229125000Y-100705000D03*
D12*
X229125000Y-103245000D03*
X229125000Y-105785000D03*
D14*
X290625000Y-174465000D03*
X290625000Y-163035000D03*
D15*
X284275000Y-173195000D03*
D16*
X281735000Y-171925000D03*
X284275000Y-170655000D03*
X281735000Y-169385000D03*
X284275000Y-168115000D03*
X281735000Y-166845000D03*
X284275000Y-165575000D03*
X281735000Y-164305000D03*
D17*
X287069000Y-176497000D03*
X287069000Y-161003000D03*
D11*
X229085000Y-179855000D03*
D12*
X231625000Y-179855000D03*
X234165000Y-179855000D03*
X236705000Y-179855000D03*
D19*
X147350000Y-201350000D03*
X147350000Y-204650000D03*
X152250000Y-204650000D03*
X152250000Y-201350000D03*
D13*
X187300000Y-82750000D03*
X187300000Y-80750000D03*
D11*
X153880000Y-82000000D03*
D12*
X156420000Y-82000000D03*
X158960000Y-82000000D03*
X161500000Y-82000000D03*
D31*
X202700000Y-154000000D03*
X204000000Y-154000000D03*
D13*
X169500000Y-216500000D03*
X169500000Y-214500000D03*
D32*
X144596560Y-176950000D03*
D33*
X147136560Y-176950000D03*
X149676560Y-176950000D03*
X152216560Y-176950000D03*
X154756560Y-176950000D03*
X157296560Y-176950000D03*
X159836560Y-176950000D03*
X162376560Y-176950000D03*
X164916560Y-176950000D03*
X167456560Y-176950000D03*
X169996560Y-176950000D03*
X172536560Y-176950000D03*
X175076560Y-176950000D03*
X177616560Y-176950000D03*
X180156560Y-176950000D03*
X182696560Y-176950000D03*
X185236560Y-176950000D03*
X187776560Y-176950000D03*
X190316560Y-176950000D03*
X190313840Y-151553680D03*
X187773840Y-151553680D03*
X185236560Y-151550000D03*
X182696560Y-151550000D03*
X180156560Y-151550000D03*
X177616560Y-151550000D03*
X175076560Y-151550000D03*
X172536560Y-151550000D03*
X169996560Y-151550000D03*
X167456560Y-151550000D03*
X164916560Y-151550000D03*
X162376560Y-151550000D03*
X159836560Y-151550000D03*
X157296560Y-151550000D03*
X154756560Y-151550000D03*
X152216560Y-151550000D03*
X149676560Y-151550000D03*
X147136560Y-151550000D03*
X144596560Y-151550000D03*
D10*
X134500000Y-101000000D03*
X135250000Y-168500000D03*
D28*
X159800000Y-213350000D03*
X166300000Y-213350000D03*
X159800000Y-217850000D03*
X166300000Y-217850000D03*
D19*
X187600000Y-201200000D03*
X187600000Y-204500000D03*
X192500000Y-204500000D03*
X192500000Y-201200000D03*
D10*
X135250000Y-160035000D03*
D28*
X186800000Y-213350000D03*
X193300000Y-213350000D03*
X186800000Y-217850000D03*
X193300000Y-217850000D03*
D19*
X178750000Y-193000000D03*
X178750000Y-189700000D03*
X173850000Y-189700000D03*
X173850000Y-193000000D03*
D28*
X146300000Y-213350000D03*
X152800000Y-213350000D03*
X146300000Y-217850000D03*
X152800000Y-217850000D03*
D10*
X206500000Y-163500000D03*
D22*
X278000000Y-179250000D03*
D23*
X275500000Y-179250000D03*
D11*
X229125000Y-131455000D03*
D12*
X229125000Y-133995000D03*
X229125000Y-136535000D03*
D22*
X278250000Y-148500000D03*
D23*
X275750000Y-148500000D03*
D14*
X295000000Y-58000000D03*
D19*
X215500000Y-212000000D03*
X215500000Y-208700000D03*
X210600000Y-208700000D03*
X210600000Y-212000000D03*
D34*
X141500000Y-193062500D03*
X141500000Y-189937500D03*
D14*
X295000000Y-218000000D03*
D22*
X278250000Y-117750000D03*
D23*
X275750000Y-117750000D03*
D11*
X229085000Y-118285000D03*
D12*
X231625000Y-118285000D03*
X234165000Y-118285000D03*
X236705000Y-118285000D03*
X258625000Y-89983000D03*
D24*
X258625000Y-68983000D03*
D25*
X258625000Y-64233000D03*
D13*
X156000000Y-216500000D03*
X156000000Y-214500000D03*
D14*
X135000000Y-218000000D03*
D18*
X281687500Y-89000000D03*
X284812500Y-89000000D03*
D10*
X168000000Y-101000000D03*
X206000000Y-148000000D03*
D31*
X214700000Y-159000000D03*
X216000000Y-159000000D03*
D11*
X199380000Y-82000000D03*
D12*
X201920000Y-82000000D03*
X204460000Y-82000000D03*
X207000000Y-82000000D03*
D34*
X220500000Y-181062500D03*
X220500000Y-177937500D03*
D27*
X208000000Y-154000000D03*
X210000000Y-154000000D03*
D11*
X195500000Y-152000000D03*
D12*
X195500000Y-149460000D03*
D11*
X229085000Y-210615000D03*
D12*
X231625000Y-210615000D03*
X234165000Y-210615000D03*
X236705000Y-210615000D03*
D18*
X194375000Y-169000000D03*
X197500000Y-169000000D03*
D11*
X229125000Y-162275000D03*
D12*
X229125000Y-164815000D03*
X229125000Y-167355000D03*
D14*
X135000000Y-58000000D03*
D35*
X146500000Y-91500000D03*
X143375000Y-91500000D03*
D34*
X177500000Y-143312500D03*
X177500000Y-140187500D03*
D11*
X239569000Y-103572000D03*
D12*
X239569000Y-101032000D03*
X239569000Y-98492000D03*
D10*
X151500000Y-101000000D03*
X135250000Y-177000000D03*
D14*
X290625000Y-205250000D03*
X290625000Y-193820000D03*
D15*
X284275000Y-203980000D03*
D16*
X281735000Y-202710000D03*
X284275000Y-201440000D03*
X281735000Y-200170000D03*
X284275000Y-198900000D03*
X281735000Y-197630000D03*
X284275000Y-196360000D03*
X281735000Y-195090000D03*
D17*
X287069000Y-207282000D03*
X287069000Y-191788000D03*
D13*
X182300000Y-82750000D03*
X182300000Y-80750000D03*
D10*
X170750000Y-133000000D03*
X170750000Y-113500000D03*
X133250000Y-133000000D03*
X133250000Y-113500000D03*
D11*
X169000000Y-129600000D03*
D12*
X169000000Y-127060000D03*
X169000000Y-124520000D03*
X169000000Y-121980000D03*
X169000000Y-119440000D03*
X169000000Y-116900000D03*
D22*
X278000000Y-210000000D03*
D23*
X275500000Y-210000000D03*
D13*
X177050000Y-82750000D03*
X177050000Y-80750000D03*
D10*
X206500000Y-170500000D03*
D14*
X290625000Y-143750000D03*
X290625000Y-132320000D03*
D15*
X284275000Y-142480000D03*
D16*
X281735000Y-141210000D03*
X284275000Y-139940000D03*
X281735000Y-138670000D03*
X284275000Y-137400000D03*
X281735000Y-136130000D03*
X284275000Y-134860000D03*
X281735000Y-133590000D03*
D17*
X287069000Y-145782000D03*
X287069000Y-130288000D03*
D10*
X143000000Y-101000000D03*
D11*
X239569000Y-165032000D03*
D12*
X239569000Y-162492000D03*
X239569000Y-159952000D03*
D31*
X214700000Y-154000000D03*
X216000000Y-154000000D03*
D10*
X221000000Y-65000000D03*
X218000000Y-148000000D03*
D31*
X145800000Y-56600000D03*
X144500000Y-56600000D03*
D36*
X137300000Y-70100000D03*
X143200000Y-70100000D03*
X149200000Y-70100000D03*
D27*
X220000000Y-159000000D03*
X222000000Y-159000000D03*
D18*
X281750000Y-212000000D03*
X284875000Y-212000000D03*
D37*
X167550000Y-84400000D03*
X172550000Y-81900000D03*
X167550000Y-79400000D03*
D19*
X215500000Y-191350000D03*
X215500000Y-188050000D03*
X210600000Y-188050000D03*
X210600000Y-191350000D03*
D22*
X194794887Y-163000000D03*
D23*
X197294887Y-163000000D03*
D31*
X202700000Y-159000000D03*
X204000000Y-159000000D03*
D11*
X229125000Y-193035000D03*
D12*
X229125000Y-195575000D03*
X229125000Y-198115000D03*
D22*
X185250000Y-142750000D03*
D23*
X185250000Y-140250000D03*
D11*
X239569000Y-195782000D03*
D12*
X239569000Y-193242000D03*
X239569000Y-190702000D03*
X185400000Y-62700000D03*
D20*
X164400000Y-62700000D03*
D21*
X159650000Y-62700000D03*
D19*
X152150000Y-193150000D03*
X152150000Y-189850000D03*
X147250000Y-189850000D03*
X147250000Y-193150000D03*
X173900000Y-201200000D03*
X173900000Y-204500000D03*
X178800000Y-204500000D03*
X178800000Y-201200000D03*
D27*
X208000000Y-159000000D03*
X210000000Y-159000000D03*
D11*
X229085000Y-70010000D03*
D12*
X229085000Y-72550000D03*
X229085000Y-75090000D03*
D38*
X197000000Y-195437500D03*
X197000000Y-198562500D03*
D10*
X218500000Y-163500000D03*
D12*
X258625000Y-151483000D03*
D24*
X258625000Y-130483000D03*
D25*
X258625000Y-125733000D03*
D19*
X215600000Y-181300000D03*
X215600000Y-178000000D03*
X210700000Y-178000000D03*
X210700000Y-181300000D03*
X215600000Y-201500000D03*
X215600000Y-198200000D03*
X210700000Y-198200000D03*
X210700000Y-201500000D03*
D18*
X281750000Y-119750000D03*
X284875000Y-119750000D03*
D11*
X239569000Y-134282000D03*
D12*
X239569000Y-131742000D03*
X239569000Y-129202000D03*
D10*
X159750000Y-101000000D03*
M02*
