G04 #@! TF.GenerationSoftware,KiCad,Pcbnew,7.0.7*
G04 #@! TF.CreationDate,2024-01-31T17:57:02+01:00*
G04 #@! TF.ProjectId,AudioController,41756469-6f43-46f6-9e74-726f6c6c6572,V1.0*
G04 #@! TF.SameCoordinates,Original*
G04 #@! TF.FileFunction,Paste,Top*
G04 #@! TF.FilePolarity,Positive*
%FSLAX46Y46*%
G04 Gerber Fmt 4.6, Leading zero omitted, Abs format (unit mm)*
G04 Created by KiCad (PCBNEW 7.0.7) date 2024-01-31 17:57:02*
%MOMM*%
%LPD*%
G01*
G04 APERTURE LIST*
G04 Aperture macros list*
%AMRoundRect*
0 Rectangle with rounded corners*
0 $1 Rounding radius*
0 $2 $3 $4 $5 $6 $7 $8 $9 X,Y pos of 4 corners*
0 Add a 4 corners polygon primitive as box body*
4,1,4,$2,$3,$4,$5,$6,$7,$8,$9,$2,$3,0*
0 Add four circle primitives for the rounded corners*
1,1,$1+$1,$2,$3*
1,1,$1+$1,$4,$5*
1,1,$1+$1,$6,$7*
1,1,$1+$1,$8,$9*
0 Add four rect primitives between the rounded corners*
20,1,$1+$1,$2,$3,$4,$5,0*
20,1,$1+$1,$4,$5,$6,$7,0*
20,1,$1+$1,$6,$7,$8,$9,0*
20,1,$1+$1,$8,$9,$2,$3,0*%
%AMFreePoly0*
4,1,194,0.556446,16.780126,1.110056,16.720607,1.658009,16.621746,2.197514,16.484045,2.725821,16.308208,3.240237,16.095130,3.738142,15.845896,4.216998,15.561778,4.674366,15.244222,5.107914,14.894847,5.515433,14.515433,5.894847,14.107914,6.244222,13.674366,6.561778,13.216998,6.845896,12.738142,7.095130,12.240237,7.308208,11.725821,7.484045,11.197514,7.621746,10.658009,7.720607,10.110056,
7.780126,9.556446,7.800000,9.000000,7.780126,8.443554,7.720607,7.889944,7.621746,7.341991,7.484045,6.802486,7.308208,6.274179,7.095130,5.759763,6.845896,5.261858,6.561778,4.783002,6.244222,4.325634,5.894847,3.892086,5.515433,3.484567,5.107914,3.105153,4.674366,2.755778,4.216998,2.438222,3.738142,2.154104,3.240237,1.904870,2.725821,1.691792,2.197514,1.515955,
1.658009,1.378254,1.500000,1.349746,1.500000,0.000000,1.479542,-0.246892,1.418726,-0.487049,1.319211,-0.713921,1.183711,-0.921319,1.015922,-1.103586,0.820422,-1.255750,0.602543,-1.373660,0.500000,-1.408862,0.500000,-5.000000,0.479746,-5.140866,0.420627,-5.270320,0.327430,-5.377875,0.207708,-5.454816,0.071157,-5.494911,-0.071157,-5.494911,-0.207708,-5.454816,-0.327430,-5.377875,
-0.420627,-5.270320,-0.479746,-5.140866,-0.500000,-5.000000,-0.500000,-1.408862,-0.602543,-1.373660,-0.820422,-1.255750,-1.015922,-1.103586,-1.183711,-0.921319,-1.319211,-0.713921,-1.418726,-0.487049,-1.479542,-0.246892,-1.500000,0.000000,-1.500000,1.349746,-1.658009,1.378254,-2.197514,1.515955,-2.725821,1.691792,-3.240237,1.904870,-3.738142,2.154104,-4.216998,2.438222,-4.674366,2.755778,
-5.107914,3.105153,-5.515433,3.484567,-5.894847,3.892086,-6.244222,4.325634,-6.561778,4.783002,-6.845896,5.261858,-7.095130,5.759763,-7.308208,6.274179,-7.484045,6.802486,-7.621746,7.341991,-7.720607,7.889944,-7.780126,8.443554,-7.800000,9.000000,-5.804959,9.000000,-5.785132,8.520630,-5.725787,8.044535,-5.627329,7.574967,-5.490430,7.115133,-5.316027,6.668175,-5.105309,6.237145,
-4.859717,5.824988,-4.580928,5.434520,-4.270847,5.068408,-3.931592,4.729153,-3.565480,4.419072,-3.175012,4.140283,-2.762855,3.894691,-2.331825,3.683973,-1.884867,3.509570,-1.425033,3.372671,-0.955465,3.274213,-0.479370,3.214868,0.000000,3.195041,0.479370,3.214868,0.955465,3.274213,1.425033,3.372671,1.884867,3.509570,2.331825,3.683973,2.762855,3.894691,3.175012,4.140283,
3.565480,4.419072,3.931592,4.729153,4.270847,5.068408,4.580928,5.434520,4.859717,5.824988,5.105309,6.237145,5.316027,6.668175,5.490430,7.115133,5.627329,7.574967,5.725787,8.044535,5.785132,8.520630,5.804959,9.000000,5.785132,9.479370,5.725787,9.955465,5.627329,10.425033,5.490430,10.884867,5.316027,11.331825,5.105309,11.762855,4.859717,12.175012,4.580928,12.565480,
4.270847,12.931592,3.931592,13.270847,3.565480,13.580928,3.175012,13.859717,2.762855,14.105309,2.331825,14.316027,1.884867,14.490430,1.425033,14.627329,0.955465,14.725787,0.479370,14.785132,0.000000,14.804959,-0.479370,14.785132,-0.955465,14.725787,-1.425033,14.627329,-1.884867,14.490430,-2.331825,14.316027,-2.762855,14.105309,-3.175012,13.859717,-3.565480,13.580928,-3.931592,13.270847,
-4.270847,12.931592,-4.580928,12.565480,-4.859717,12.175012,-5.105309,11.762855,-5.316027,11.331825,-5.490430,10.884867,-5.627329,10.425033,-5.725787,9.955465,-5.785132,9.479370,-5.804959,9.000000,-7.800000,9.000000,-7.780126,9.556446,-7.720607,10.110056,-7.621746,10.658009,-7.484045,11.197514,-7.308208,11.725821,-7.095130,12.240237,-6.845896,12.738142,-6.561778,13.216998,-6.244222,13.674366,
-5.894847,14.107914,-5.515433,14.515433,-5.107914,14.894847,-4.674366,15.244222,-4.216998,15.561778,-3.738142,15.845896,-3.240237,16.095130,-2.725821,16.308208,-2.197514,16.484045,-1.658009,16.621746,-1.110056,16.720607,-0.556446,16.780126,0.000000,16.800000,0.556446,16.780126,0.556446,16.780126,$1*%
G04 Aperture macros list end*
%ADD10RoundRect,0.250000X0.450000X-0.350000X0.450000X0.350000X-0.450000X0.350000X-0.450000X-0.350000X0*%
%ADD11RoundRect,0.250000X-0.412500X-0.650000X0.412500X-0.650000X0.412500X0.650000X-0.412500X0.650000X0*%
%ADD12R,1.500000X0.900000*%
%ADD13FreePoly0,270.000000*%
%ADD14FreePoly0,180.000000*%
%ADD15RoundRect,0.250000X-0.350000X-0.450000X0.350000X-0.450000X0.350000X0.450000X-0.350000X0.450000X0*%
%ADD16RoundRect,0.250000X0.650000X-0.412500X0.650000X0.412500X-0.650000X0.412500X-0.650000X-0.412500X0*%
%ADD17RoundRect,0.250000X0.412500X0.650000X-0.412500X0.650000X-0.412500X-0.650000X0.412500X-0.650000X0*%
%ADD18RoundRect,0.250000X-0.650000X0.412500X-0.650000X-0.412500X0.650000X-0.412500X0.650000X0.412500X0*%
G04 APERTURE END LIST*
D10*
X142500000Y-216500000D03*
X142500000Y-214500000D03*
D11*
X281750000Y-181250000D03*
X284875000Y-181250000D03*
D12*
X160850000Y-201350000D03*
X160850000Y-204650000D03*
X165750000Y-204650000D03*
X165750000Y-201350000D03*
X165700000Y-193150000D03*
X165700000Y-189850000D03*
X160800000Y-189850000D03*
X160800000Y-193150000D03*
D13*
X194784000Y-62750000D03*
D14*
X258625000Y-99733000D03*
D10*
X183000000Y-216500000D03*
X183000000Y-214500000D03*
D15*
X220000000Y-154000000D03*
X222000000Y-154000000D03*
D12*
X192500000Y-193000000D03*
X192500000Y-189700000D03*
X187600000Y-189700000D03*
X187600000Y-193000000D03*
D14*
X258625000Y-192031000D03*
X258625000Y-161271000D03*
D11*
X281687500Y-150500000D03*
X284812500Y-150500000D03*
D12*
X147350000Y-201350000D03*
X147350000Y-204650000D03*
X152250000Y-204650000D03*
X152250000Y-201350000D03*
D10*
X187300000Y-82750000D03*
X187300000Y-80750000D03*
X169500000Y-216500000D03*
X169500000Y-214500000D03*
D12*
X187600000Y-201200000D03*
X187600000Y-204500000D03*
X192500000Y-204500000D03*
X192500000Y-201200000D03*
X178750000Y-193000000D03*
X178750000Y-189700000D03*
X173850000Y-189700000D03*
X173850000Y-193000000D03*
X215500000Y-212000000D03*
X215500000Y-208700000D03*
X210600000Y-208700000D03*
X210600000Y-212000000D03*
D16*
X141500000Y-193062500D03*
X141500000Y-189937500D03*
D14*
X258625000Y-68983000D03*
D10*
X156000000Y-216500000D03*
X156000000Y-214500000D03*
D11*
X281687500Y-89000000D03*
X284812500Y-89000000D03*
D16*
X220500000Y-181062500D03*
X220500000Y-177937500D03*
D15*
X208000000Y-154000000D03*
X210000000Y-154000000D03*
D11*
X194375000Y-169000000D03*
X197500000Y-169000000D03*
D17*
X146500000Y-91500000D03*
X143375000Y-91500000D03*
D16*
X177500000Y-143312500D03*
X177500000Y-140187500D03*
D10*
X182300000Y-82750000D03*
X182300000Y-80750000D03*
X177050000Y-82750000D03*
X177050000Y-80750000D03*
D15*
X220000000Y-159000000D03*
X222000000Y-159000000D03*
D11*
X281750000Y-212000000D03*
X284875000Y-212000000D03*
D12*
X215500000Y-191350000D03*
X215500000Y-188050000D03*
X210600000Y-188050000D03*
X210600000Y-191350000D03*
D13*
X164400000Y-62700000D03*
D12*
X152150000Y-193150000D03*
X152150000Y-189850000D03*
X147250000Y-189850000D03*
X147250000Y-193150000D03*
X173900000Y-201200000D03*
X173900000Y-204500000D03*
X178800000Y-204500000D03*
X178800000Y-201200000D03*
D15*
X208000000Y-159000000D03*
X210000000Y-159000000D03*
D18*
X197000000Y-195437500D03*
X197000000Y-198562500D03*
D14*
X258625000Y-130483000D03*
D12*
X215600000Y-181300000D03*
X215600000Y-178000000D03*
X210700000Y-178000000D03*
X210700000Y-181300000D03*
X215600000Y-201500000D03*
X215600000Y-198200000D03*
X210700000Y-198200000D03*
X210700000Y-201500000D03*
D11*
X281750000Y-119750000D03*
X284875000Y-119750000D03*
M02*
