G04 #@! TF.GenerationSoftware,KiCad,Pcbnew,7.0.7*
G04 #@! TF.CreationDate,2024-01-31T17:53:19+01:00*
G04 #@! TF.ProjectId,CabelAdapter,43616265-6c41-4646-9170-7465722e6b69,rev?*
G04 #@! TF.SameCoordinates,Original*
G04 #@! TF.FileFunction,Copper,L1,Top*
G04 #@! TF.FilePolarity,Positive*
%FSLAX46Y46*%
G04 Gerber Fmt 4.6, Leading zero omitted, Abs format (unit mm)*
G04 Created by KiCad (PCBNEW 7.0.7) date 2024-01-31 17:53:19*
%MOMM*%
%LPD*%
G01*
G04 APERTURE LIST*
G04 Aperture macros list*
%AMFreePoly0*
4,1,196,0.542178,16.580636,1.081593,16.522643,1.615496,16.426316,2.141167,16.292147,2.655928,16.120818,3.157154,15.913203,3.642292,15.670360,4.108870,15.393527,4.554510,15.084113,4.976942,14.743697,5.374012,14.374012,5.743697,13.976942,6.084113,13.554510,6.393527,13.108870,6.670360,12.642292,6.913203,12.157154,7.120818,11.655928,7.292147,11.141167,7.426316,10.615496,7.522643,10.081593,
7.580636,9.542178,7.600000,9.000000,7.580636,8.457822,7.522643,7.918407,7.426316,7.384504,7.292147,6.858833,7.120818,6.344072,6.913203,5.842846,6.670360,5.357708,6.393527,4.891130,6.084113,4.445490,5.743697,4.023058,5.374012,3.625988,4.976942,3.256303,4.554510,2.915887,4.108870,2.606473,3.642292,2.329640,3.157154,2.086797,2.655928,1.879182,2.141167,1.707853,
1.615496,1.573684,1.495685,1.552067,1.500000,1.500000,1.500000,0.000000,1.479542,-0.246892,1.418726,-0.487049,1.319211,-0.713921,1.183711,-0.921319,1.015922,-1.103586,0.820422,-1.255750,0.602543,-1.373660,0.500000,-1.408862,0.500000,-5.000000,0.479746,-5.140866,0.420627,-5.270320,0.327430,-5.377875,0.207708,-5.454816,0.071157,-5.494911,-0.071157,-5.494911,-0.207708,-5.454816,
-0.327430,-5.377875,-0.420627,-5.270320,-0.479746,-5.140866,-0.500000,-5.000000,-0.500000,-1.408862,-0.602543,-1.373660,-0.820422,-1.255750,-1.015922,-1.103586,-1.183711,-0.921319,-1.319211,-0.713921,-1.418726,-0.487049,-1.479542,-0.246892,-1.500000,0.000000,-1.500000,1.500000,-1.495685,1.552067,-1.615496,1.573684,-2.141167,1.707853,-2.655928,1.879182,-3.157154,2.086797,-3.642292,2.329640,
-4.108870,2.606473,-4.554510,2.915887,-4.976942,3.256303,-5.374012,3.625988,-5.743697,4.023058,-6.084113,4.445490,-6.393527,4.891130,-6.670360,5.357708,-6.913203,5.842846,-7.120818,6.344072,-7.292147,6.858833,-7.426316,7.384504,-7.522643,7.918407,-7.580636,8.457822,-7.600000,9.000000,-5.804959,9.000000,-5.785132,8.520630,-5.725787,8.044535,-5.627329,7.574967,-5.490430,7.115133,
-5.316027,6.668175,-5.105309,6.237145,-4.859717,5.824988,-4.580928,5.434520,-4.270847,5.068408,-3.931592,4.729153,-3.565480,4.419072,-3.175012,4.140283,-2.762855,3.894691,-2.331825,3.683973,-1.884867,3.509570,-1.425033,3.372671,-0.955465,3.274213,-0.479370,3.214868,0.000000,3.195041,0.479370,3.214868,0.955465,3.274213,1.425033,3.372671,1.884867,3.509570,2.331825,3.683973,
2.762855,3.894691,3.175012,4.140283,3.565480,4.419072,3.931592,4.729153,4.270847,5.068408,4.580928,5.434520,4.859717,5.824988,5.105309,6.237145,5.316027,6.668175,5.490430,7.115133,5.627329,7.574967,5.725787,8.044535,5.785132,8.520630,5.804959,9.000000,5.785132,9.479370,5.725787,9.955465,5.627329,10.425033,5.490430,10.884867,5.316027,11.331825,5.105309,11.762855,
4.859717,12.175012,4.580928,12.565480,4.270847,12.931592,3.931592,13.270847,3.565480,13.580928,3.175012,13.859717,2.762855,14.105309,2.331825,14.316027,1.884867,14.490430,1.425033,14.627329,0.955465,14.725787,0.479370,14.785132,0.000000,14.804959,-0.479370,14.785132,-0.955465,14.725787,-1.425033,14.627329,-1.884867,14.490430,-2.331825,14.316027,-2.762855,14.105309,-3.175012,13.859717,
-3.565480,13.580928,-3.931592,13.270847,-4.270847,12.931592,-4.580928,12.565480,-4.859717,12.175012,-5.105309,11.762855,-5.316027,11.331825,-5.490430,10.884867,-5.627329,10.425033,-5.725787,9.955465,-5.785132,9.479370,-5.804959,9.000000,-7.600000,9.000000,-7.580636,9.542178,-7.522643,10.081593,-7.426316,10.615496,-7.292147,11.141167,-7.120818,11.655928,-6.913203,12.157154,-6.670360,12.642292,
-6.393527,13.108870,-6.084113,13.554510,-5.743697,13.976942,-5.374012,14.374012,-4.976942,14.743697,-4.554510,15.084113,-4.108870,15.393527,-3.642292,15.670360,-3.157154,15.913203,-2.655928,16.120818,-2.141167,16.292147,-1.615496,16.426316,-1.081593,16.522643,-0.542178,16.580636,0.000000,16.600000,0.542178,16.580636,0.542178,16.580636,$1*%
%AMFreePoly1*
4,1,39,0.368228,1.454100,0.602543,1.373660,0.820422,1.255750,1.015922,1.103586,1.183711,0.921319,1.319211,0.713921,1.418726,0.487049,1.479542,0.246892,1.500000,0.000000,1.479542,-0.246892,1.418726,-0.487049,1.319211,-0.713921,1.183711,-0.921319,1.015922,-1.103586,0.820422,-1.255750,0.602543,-1.373660,0.368228,-1.454100,0.123869,-1.494877,-0.123869,-1.494877,-0.368228,-1.454100,
-0.602543,-1.373660,-0.820422,-1.255750,-1.015922,-1.103586,-1.183711,-0.921319,-1.319211,-0.713921,-1.418726,-0.487049,-1.479542,-0.246892,-1.500000,0.000000,-1.479542,0.246892,-1.418726,0.487049,-1.319211,0.713921,-1.183711,0.921319,-1.015922,1.103586,-0.820422,1.255750,-0.602543,1.373660,-0.368228,1.454100,-0.123869,1.494877,0.123869,1.494877,0.368228,1.454100,0.368228,1.454100,
$1*%
G04 Aperture macros list end*
G04 #@! TA.AperFunction,ComponentPad*
%ADD10R,1.700000X1.700000*%
G04 #@! TD*
G04 #@! TA.AperFunction,ComponentPad*
%ADD11O,1.700000X1.700000*%
G04 #@! TD*
G04 #@! TA.AperFunction,SMDPad,CuDef*
%ADD12FreePoly0,0.000000*%
G04 #@! TD*
G04 #@! TA.AperFunction,ComponentPad*
%ADD13FreePoly1,0.000000*%
G04 #@! TD*
G04 #@! TA.AperFunction,ComponentPad*
%ADD14R,1.500000X1.500000*%
G04 #@! TD*
G04 #@! TA.AperFunction,ComponentPad*
%ADD15C,1.500000*%
G04 #@! TD*
G04 #@! TA.AperFunction,ComponentPad*
%ADD16C,2.500000*%
G04 #@! TD*
G04 #@! TA.AperFunction,ComponentPad*
%ADD17R,2.500000X2.500000*%
G04 #@! TD*
G04 #@! TA.AperFunction,Conductor*
%ADD18C,0.500000*%
G04 #@! TD*
G04 APERTURE END LIST*
D10*
X150160000Y-103000000D03*
D11*
X150160000Y-100460000D03*
X147620000Y-103000000D03*
X147620000Y-100460000D03*
X145080000Y-103000000D03*
X145080000Y-100460000D03*
X142540000Y-103000000D03*
X142540000Y-100460000D03*
X140000000Y-103000000D03*
X140000000Y-100460000D03*
X137460000Y-103000000D03*
X137460000Y-100460000D03*
X134920000Y-103000000D03*
X134920000Y-100460000D03*
X132380000Y-103000000D03*
X132380000Y-100460000D03*
D10*
X93800000Y-133250000D03*
D11*
X91260000Y-133250000D03*
X88720000Y-133250000D03*
X86180000Y-133250000D03*
D10*
X127000000Y-130000000D03*
D11*
X127000000Y-127460000D03*
X124460000Y-130000000D03*
X124460000Y-127460000D03*
X121920000Y-130000000D03*
X121920000Y-127460000D03*
X119380000Y-130000000D03*
X119380000Y-127460000D03*
X116840000Y-130000000D03*
X116840000Y-127460000D03*
X114300000Y-130000000D03*
X114300000Y-127460000D03*
X111760000Y-130000000D03*
X111760000Y-127460000D03*
X109220000Y-130000000D03*
X109220000Y-127460000D03*
X152000000Y-138750000D03*
D12*
X152000000Y-159750000D03*
D13*
X152000000Y-164500000D03*
D10*
X132500000Y-88960000D03*
D11*
X132500000Y-91500000D03*
X135040000Y-88960000D03*
X135040000Y-91500000D03*
X137580000Y-88960000D03*
X137580000Y-91500000D03*
X140120000Y-88960000D03*
X140120000Y-91500000D03*
X142660000Y-88960000D03*
X142660000Y-91500000D03*
X145200000Y-88960000D03*
X145200000Y-91500000D03*
X147740000Y-88960000D03*
X147740000Y-91500000D03*
X150280000Y-88960000D03*
X150280000Y-91500000D03*
D10*
X132380000Y-116000000D03*
D11*
X132380000Y-118540000D03*
X134920000Y-116000000D03*
X134920000Y-118540000D03*
X137460000Y-116000000D03*
X137460000Y-118540000D03*
X140000000Y-116000000D03*
X140000000Y-118540000D03*
X142540000Y-116000000D03*
X142540000Y-118540000D03*
X145080000Y-116000000D03*
X145080000Y-118540000D03*
X147620000Y-116000000D03*
X147620000Y-118540000D03*
X150160000Y-116000000D03*
X150160000Y-118540000D03*
X133000000Y-138750000D03*
D12*
X133000000Y-159750000D03*
D13*
X133000000Y-164500000D03*
D14*
X94500000Y-103555000D03*
D15*
X97040000Y-104825000D03*
X94500000Y-106095000D03*
X97040000Y-107365000D03*
X94500000Y-108635000D03*
X97040000Y-109905000D03*
X94500000Y-111175000D03*
X97040000Y-112445000D03*
D16*
X91706000Y-100253000D03*
X91706000Y-115747000D03*
D10*
X127000000Y-103000000D03*
D11*
X127000000Y-100460000D03*
X124460000Y-103000000D03*
X124460000Y-100460000D03*
X121920000Y-103000000D03*
X121920000Y-100460000D03*
X119380000Y-103000000D03*
X119380000Y-100460000D03*
X116840000Y-103000000D03*
X116840000Y-100460000D03*
X114300000Y-103000000D03*
X114300000Y-100460000D03*
X111760000Y-103000000D03*
X111760000Y-100460000D03*
X109220000Y-103000000D03*
X109220000Y-100460000D03*
D10*
X161000000Y-117620000D03*
D11*
X161000000Y-115080000D03*
X161000000Y-112540000D03*
X161000000Y-110000000D03*
X161000000Y-107460000D03*
X161000000Y-104920000D03*
X161000000Y-102380000D03*
X161000000Y-99840000D03*
D10*
X93800000Y-123500000D03*
D11*
X91260000Y-123500000D03*
X88720000Y-123500000D03*
X86180000Y-123500000D03*
D10*
X109220000Y-116000000D03*
D11*
X109220000Y-118540000D03*
X111760000Y-116000000D03*
X111760000Y-118540000D03*
X114300000Y-116000000D03*
X114300000Y-118540000D03*
X116840000Y-116000000D03*
X116840000Y-118540000D03*
X119380000Y-116000000D03*
X119380000Y-118540000D03*
X121920000Y-116000000D03*
X121920000Y-118540000D03*
X124460000Y-116000000D03*
X124460000Y-118540000D03*
X127000000Y-116000000D03*
X127000000Y-118540000D03*
X112750000Y-138750000D03*
D12*
X112750000Y-159750000D03*
D13*
X112750000Y-164500000D03*
D17*
X170800000Y-142320570D03*
D16*
X170800000Y-137320570D03*
D17*
X170800000Y-156820570D03*
D16*
X170800000Y-151820570D03*
D10*
X109220000Y-88960000D03*
D11*
X109220000Y-91500000D03*
X111760000Y-88960000D03*
X111760000Y-91500000D03*
X114300000Y-88960000D03*
X114300000Y-91500000D03*
X116840000Y-88960000D03*
X116840000Y-91500000D03*
X119380000Y-88960000D03*
X119380000Y-91500000D03*
X121920000Y-88960000D03*
X121920000Y-91500000D03*
X124460000Y-88960000D03*
X124460000Y-91500000D03*
X127000000Y-88960000D03*
X127000000Y-91500000D03*
D17*
X170800000Y-127700570D03*
D16*
X170800000Y-122700570D03*
X170800000Y-117700570D03*
X170800000Y-112700570D03*
X170800000Y-107700570D03*
X170800000Y-102700570D03*
X170800000Y-97700570D03*
X170800000Y-92700570D03*
D11*
X94000000Y-138750000D03*
D12*
X94000000Y-159750000D03*
D13*
X94000000Y-164500000D03*
D10*
X87550000Y-93250000D03*
D11*
X90090000Y-93250000D03*
X92630000Y-93250000D03*
X95170000Y-93250000D03*
X97710000Y-93250000D03*
X100250000Y-93250000D03*
D10*
X150130000Y-130000000D03*
D11*
X150130000Y-127460000D03*
X147590000Y-130000000D03*
X147590000Y-127460000D03*
X145050000Y-130000000D03*
X145050000Y-127460000D03*
X142510000Y-130000000D03*
X142510000Y-127460000D03*
X139970000Y-130000000D03*
X139970000Y-127460000D03*
X137430000Y-130000000D03*
X137430000Y-127460000D03*
X134890000Y-130000000D03*
X134890000Y-127460000D03*
X132350000Y-130000000D03*
X132350000Y-127460000D03*
D18*
X121500000Y-82000000D02*
X97500000Y-82000000D01*
X127000000Y-88960000D02*
X127000000Y-87500000D01*
X131500000Y-130000000D02*
X132350000Y-130000000D01*
X130500000Y-116500000D02*
X130500000Y-129000000D01*
X87550000Y-93250000D02*
X87550000Y-94800000D01*
X131000000Y-116000000D02*
X130500000Y-116500000D01*
X87550000Y-91950000D02*
X87550000Y-93250000D01*
X87550000Y-94800000D02*
X89250000Y-96500000D01*
X89250000Y-96500000D02*
X92250000Y-96500000D01*
X127000000Y-87500000D02*
X121500000Y-82000000D01*
X132380000Y-116000000D02*
X131000000Y-116000000D01*
X130500000Y-129000000D02*
X131500000Y-130000000D01*
X94500000Y-98750000D02*
X94500000Y-103555000D01*
X97500000Y-82000000D02*
X87550000Y-91950000D01*
X92250000Y-96500000D02*
X94500000Y-98750000D01*
X124460000Y-88960000D02*
X124460000Y-87960000D01*
X134500000Y-105000000D02*
X134920000Y-104580000D01*
X124460000Y-87960000D02*
X119300000Y-82800000D01*
X124460000Y-104460000D02*
X125000000Y-105000000D01*
X119300000Y-82800000D02*
X99450000Y-82800000D01*
X131000000Y-113750000D02*
X134250000Y-113750000D01*
X134500000Y-131750000D02*
X130250000Y-131750000D01*
X134920000Y-114420000D02*
X134920000Y-116000000D01*
X134890000Y-130000000D02*
X134890000Y-131360000D01*
X90090000Y-92160000D02*
X90090000Y-93250000D01*
X134920000Y-104580000D02*
X134920000Y-103000000D01*
X134250000Y-113750000D02*
X134920000Y-114420000D01*
X129700000Y-131200000D02*
X129700000Y-115050000D01*
X125000000Y-105000000D02*
X134500000Y-105000000D01*
X130250000Y-131750000D02*
X129700000Y-131200000D01*
X124460000Y-103000000D02*
X124460000Y-104460000D01*
X134890000Y-131360000D02*
X134500000Y-131750000D01*
X129700000Y-115050000D02*
X131000000Y-113750000D01*
X99450000Y-82800000D02*
X90090000Y-92160000D01*
X137460000Y-116000000D02*
X137460000Y-115040000D01*
X121920000Y-103000000D02*
X121920000Y-104202081D01*
X137430000Y-131930000D02*
X137430000Y-130000000D01*
X117850000Y-83600000D02*
X100150000Y-83600000D01*
X121920000Y-88960000D02*
X121920000Y-87670000D01*
X152525480Y-135500000D02*
X141000000Y-135500000D01*
X123517919Y-105800000D02*
X135862081Y-105800000D01*
X137460000Y-115040000D02*
X141450000Y-111050000D01*
X137460000Y-104202081D02*
X137460000Y-103000000D01*
X141450000Y-111050000D02*
X153325482Y-111050000D01*
X156250000Y-131775480D02*
X152525480Y-135500000D01*
X156250000Y-113974517D02*
X156250000Y-131775480D01*
X100150000Y-83600000D02*
X92630000Y-91120000D01*
X141000000Y-135500000D02*
X137430000Y-131930000D01*
X92630000Y-91120000D02*
X92630000Y-93250000D01*
X153325482Y-111050000D02*
X156250000Y-113974517D01*
X121920000Y-87670000D02*
X117850000Y-83600000D01*
X135862081Y-105800000D02*
X137460000Y-104202081D01*
X121920000Y-104202081D02*
X123517919Y-105800000D01*
X143000000Y-134500000D02*
X139970000Y-131470000D01*
X137900000Y-106600000D02*
X140000000Y-104500000D01*
X121850000Y-106600000D02*
X137900000Y-106600000D01*
X142900000Y-111850000D02*
X152994111Y-111850000D01*
X101218630Y-84400000D02*
X95170000Y-90448630D01*
X119380000Y-103000000D02*
X119380000Y-104130000D01*
X152994111Y-111850000D02*
X155450000Y-114305888D01*
X140000000Y-104500000D02*
X140000000Y-103000000D01*
X140000000Y-114750000D02*
X142900000Y-111850000D01*
X115900000Y-84400000D02*
X101218630Y-84400000D01*
X119380000Y-87880000D02*
X119380000Y-88960000D01*
X115900000Y-84400000D02*
X119380000Y-87880000D01*
X139970000Y-131470000D02*
X139970000Y-130000000D01*
X95170000Y-90448630D02*
X95170000Y-93250000D01*
X155450000Y-114305888D02*
X155450000Y-131444110D01*
X140000000Y-116000000D02*
X140000000Y-114750000D01*
X119380000Y-104130000D02*
X121850000Y-106600000D01*
X155450000Y-131444110D02*
X152394110Y-134500000D01*
X152394110Y-134500000D02*
X143000000Y-134500000D01*
X116750000Y-87750000D02*
X116750000Y-88870000D01*
X154650000Y-114637259D02*
X154650000Y-131112740D01*
X142540000Y-116000000D02*
X142540000Y-114710000D01*
X152662740Y-112650000D02*
X154650000Y-114637259D01*
X139600000Y-107400000D02*
X142540000Y-104460000D01*
X154650000Y-131112740D02*
X152162740Y-133600000D01*
X142540000Y-114710000D02*
X144600000Y-112650000D01*
X114200000Y-85200000D02*
X116750000Y-87750000D01*
X97710000Y-89040000D02*
X97710000Y-93250000D01*
X142510000Y-131260000D02*
X142510000Y-130000000D01*
X116840000Y-104340000D02*
X119900000Y-107400000D01*
X116750000Y-88870000D02*
X116840000Y-88960000D01*
X101550000Y-85200000D02*
X97710000Y-89040000D01*
X152162740Y-133600000D02*
X144850000Y-133600000D01*
X144600000Y-112650000D02*
X152662740Y-112650000D01*
X142540000Y-104460000D02*
X142540000Y-103000000D01*
X119900000Y-107400000D02*
X139600000Y-107400000D01*
X114200000Y-85200000D02*
X101550000Y-85200000D01*
X116840000Y-103000000D02*
X116840000Y-104340000D01*
X144850000Y-133600000D02*
X142510000Y-131260000D01*
X118450000Y-108200000D02*
X141082081Y-108200000D01*
X114300000Y-103000000D02*
X114300000Y-104050000D01*
X141082081Y-108200000D02*
X145080000Y-104202081D01*
X145080000Y-104202081D02*
X145080000Y-103000000D01*
X114300000Y-87757919D02*
X114300000Y-88960000D01*
X145080000Y-114920000D02*
X146550000Y-113450000D01*
X146550000Y-113450000D02*
X152331370Y-113450000D01*
X152331370Y-113450000D02*
X153850000Y-114968630D01*
X100250000Y-89000000D02*
X103250000Y-86000000D01*
X145080000Y-116000000D02*
X145080000Y-114920000D01*
X100250000Y-93250000D02*
X100250000Y-89000000D01*
X103250000Y-86000000D02*
X112542081Y-86000000D01*
X146550000Y-132800000D02*
X145050000Y-131300000D01*
X153850000Y-130781370D02*
X151831370Y-132800000D01*
X112542081Y-86000000D02*
X114300000Y-87757919D01*
X153850000Y-114968630D02*
X153850000Y-130781370D01*
X151831370Y-132800000D02*
X146550000Y-132800000D01*
X145050000Y-131300000D02*
X145050000Y-130000000D01*
X114300000Y-104050000D02*
X118450000Y-108200000D01*
X147590000Y-131340000D02*
X147590000Y-130000000D01*
X111760000Y-104010000D02*
X116750000Y-109000000D01*
X147620000Y-104380000D02*
X147620000Y-103000000D01*
X112750000Y-138750000D02*
X111760000Y-137760000D01*
X152000000Y-114250000D02*
X153050000Y-115300000D01*
X153050000Y-130450000D02*
X151500000Y-132000000D01*
X148000000Y-114250000D02*
X152000000Y-114250000D01*
X148250000Y-132000000D02*
X147590000Y-131340000D01*
X111760000Y-103000000D02*
X111760000Y-104010000D01*
X153050000Y-115300000D02*
X153050000Y-130450000D01*
X143000000Y-109000000D02*
X147620000Y-104380000D01*
X147620000Y-116000000D02*
X147620000Y-114630000D01*
X116750000Y-109000000D02*
X143000000Y-109000000D01*
X151500000Y-132000000D02*
X148250000Y-132000000D01*
X111760000Y-137760000D02*
X111760000Y-130000000D01*
X147620000Y-114630000D02*
X148000000Y-114250000D01*
X114800000Y-109800000D02*
X144700000Y-109800000D01*
X151750000Y-116000000D02*
X152250000Y-116500000D01*
X150160000Y-116000000D02*
X151750000Y-116000000D01*
X144700000Y-109800000D02*
X150160000Y-104340000D01*
X150160000Y-104340000D02*
X150160000Y-103000000D01*
X109220000Y-104220000D02*
X114800000Y-109800000D01*
X152250000Y-129500000D02*
X151750000Y-130000000D01*
X109220000Y-103000000D02*
X109220000Y-104220000D01*
X151750000Y-130000000D02*
X150130000Y-130000000D01*
X152250000Y-116500000D02*
X152250000Y-129500000D01*
M02*
