M48
; DRILL file {KiCad 7.0.7} date Wed Jan 31 17:53:38 2024
; FORMAT={-:-/ absolute / metric / decimal}
; #@! TF.CreationDate,2024-01-31T17:53:38+01:00
; #@! TF.GenerationSoftware,Kicad,Pcbnew,7.0.7
; #@! TF.FileFunction,Plated,1,4,PTH
FMAT,2
METRIC
; #@! TA.AperFunction,Plated,PTH,ComponentDrill
T1C0.760
; #@! TA.AperFunction,Plated,PTH,ComponentDrill
T2C1.000
; #@! TA.AperFunction,Plated,PTH,ComponentDrill
T3C1.300
; #@! TA.AperFunction,Plated,PTH,ComponentDrill
T4C1.500
%
G90
G05
T1
X94.5Y-103.555
X94.5Y-106.095
X94.5Y-108.635
X94.5Y-111.175
X97.04Y-104.825
X97.04Y-107.365
X97.04Y-109.905
X97.04Y-112.445
T2
X86.18Y-123.5
X86.18Y-133.25
X87.55Y-93.25
X88.72Y-123.5
X88.72Y-133.25
X90.09Y-93.25
X91.26Y-123.5
X91.26Y-133.25
X92.63Y-93.25
X93.8Y-123.5
X93.8Y-133.25
X94.0Y-138.75
X95.17Y-93.25
X97.71Y-93.25
X100.25Y-93.25
X109.22Y-88.96
X109.22Y-91.5
X109.22Y-100.46
X109.22Y-103.0
X109.22Y-116.0
X109.22Y-118.54
X109.22Y-127.46
X109.22Y-130.0
X111.76Y-88.96
X111.76Y-91.5
X111.76Y-100.46
X111.76Y-103.0
X111.76Y-116.0
X111.76Y-118.54
X111.76Y-127.46
X111.76Y-130.0
X112.75Y-138.75
X114.3Y-88.96
X114.3Y-91.5
X114.3Y-100.46
X114.3Y-103.0
X114.3Y-116.0
X114.3Y-118.54
X114.3Y-127.46
X114.3Y-130.0
X116.84Y-88.96
X116.84Y-91.5
X116.84Y-100.46
X116.84Y-103.0
X116.84Y-116.0
X116.84Y-118.54
X116.84Y-127.46
X116.84Y-130.0
X119.38Y-88.96
X119.38Y-91.5
X119.38Y-100.46
X119.38Y-103.0
X119.38Y-116.0
X119.38Y-118.54
X119.38Y-127.46
X119.38Y-130.0
X121.92Y-88.96
X121.92Y-91.5
X121.92Y-100.46
X121.92Y-103.0
X121.92Y-116.0
X121.92Y-118.54
X121.92Y-127.46
X121.92Y-130.0
X124.46Y-88.96
X124.46Y-91.5
X124.46Y-100.46
X124.46Y-103.0
X124.46Y-116.0
X124.46Y-118.54
X124.46Y-127.46
X124.46Y-130.0
X127.0Y-88.96
X127.0Y-91.5
X127.0Y-100.46
X127.0Y-103.0
X127.0Y-116.0
X127.0Y-118.54
X127.0Y-127.46
X127.0Y-130.0
X132.35Y-127.46
X132.35Y-130.0
X132.38Y-100.46
X132.38Y-103.0
X132.38Y-116.0
X132.38Y-118.54
X132.5Y-88.96
X132.5Y-91.5
X133.0Y-138.75
X134.89Y-127.46
X134.89Y-130.0
X134.92Y-100.46
X134.92Y-103.0
X134.92Y-116.0
X134.92Y-118.54
X135.04Y-88.96
X135.04Y-91.5
X137.43Y-127.46
X137.43Y-130.0
X137.46Y-100.46
X137.46Y-103.0
X137.46Y-116.0
X137.46Y-118.54
X137.58Y-88.96
X137.58Y-91.5
X139.97Y-127.46
X139.97Y-130.0
X140.0Y-100.46
X140.0Y-103.0
X140.0Y-116.0
X140.0Y-118.54
X140.12Y-88.96
X140.12Y-91.5
X142.51Y-127.46
X142.51Y-130.0
X142.54Y-100.46
X142.54Y-103.0
X142.54Y-116.0
X142.54Y-118.54
X142.66Y-88.96
X142.66Y-91.5
X145.05Y-127.46
X145.05Y-130.0
X145.08Y-100.46
X145.08Y-103.0
X145.08Y-116.0
X145.08Y-118.54
X145.2Y-88.96
X145.2Y-91.5
X147.59Y-127.46
X147.59Y-130.0
X147.62Y-100.46
X147.62Y-103.0
X147.62Y-116.0
X147.62Y-118.54
X147.74Y-88.96
X147.74Y-91.5
X150.13Y-127.46
X150.13Y-130.0
X150.16Y-100.46
X150.16Y-103.0
X150.16Y-116.0
X150.16Y-118.54
X150.28Y-88.96
X150.28Y-91.5
X152.0Y-138.75
X161.0Y-99.84
X161.0Y-102.38
X161.0Y-104.92
X161.0Y-107.46
X161.0Y-110.0
X161.0Y-112.54
X161.0Y-115.08
X161.0Y-117.62
T3
X170.8Y-92.701
X170.8Y-97.701
X170.8Y-102.701
X170.8Y-107.701
X170.8Y-112.701
X170.8Y-117.701
X170.8Y-122.701
X170.8Y-127.701
X170.8Y-137.321
X170.8Y-142.321
X170.8Y-151.821
X170.8Y-156.821
T4
X91.706Y-100.253
X91.706Y-115.747
X94.0Y-164.5
X112.75Y-164.5
X133.0Y-164.5
X152.0Y-164.5
T0
M30
