G04 #@! TF.GenerationSoftware,KiCad,Pcbnew,7.0.7*
G04 #@! TF.CreationDate,2024-01-31T17:53:19+01:00*
G04 #@! TF.ProjectId,CabelAdapter,43616265-6c41-4646-9170-7465722e6b69,rev?*
G04 #@! TF.SameCoordinates,Original*
G04 #@! TF.FileFunction,Copper,L2,Inr*
G04 #@! TF.FilePolarity,Positive*
%FSLAX46Y46*%
G04 Gerber Fmt 4.6, Leading zero omitted, Abs format (unit mm)*
G04 Created by KiCad (PCBNEW 7.0.7) date 2024-01-31 17:53:19*
%MOMM*%
%LPD*%
G01*
G04 APERTURE LIST*
G04 Aperture macros list*
%AMFreePoly0*
4,1,39,0.368228,1.454100,0.602543,1.373660,0.820422,1.255750,1.015922,1.103586,1.183711,0.921319,1.319211,0.713921,1.418726,0.487049,1.479542,0.246892,1.500000,0.000000,1.479542,-0.246892,1.418726,-0.487049,1.319211,-0.713921,1.183711,-0.921319,1.015922,-1.103586,0.820422,-1.255750,0.602543,-1.373660,0.368228,-1.454100,0.123869,-1.494877,-0.123869,-1.494877,-0.368228,-1.454100,
-0.602543,-1.373660,-0.820422,-1.255750,-1.015922,-1.103586,-1.183711,-0.921319,-1.319211,-0.713921,-1.418726,-0.487049,-1.479542,-0.246892,-1.500000,0.000000,-1.479542,0.246892,-1.418726,0.487049,-1.319211,0.713921,-1.183711,0.921319,-1.015922,1.103586,-0.820422,1.255750,-0.602543,1.373660,-0.368228,1.454100,-0.123869,1.494877,0.123869,1.494877,0.368228,1.454100,0.368228,1.454100,
$1*%
G04 Aperture macros list end*
G04 #@! TA.AperFunction,ComponentPad*
%ADD10R,1.700000X1.700000*%
G04 #@! TD*
G04 #@! TA.AperFunction,ComponentPad*
%ADD11O,1.700000X1.700000*%
G04 #@! TD*
G04 #@! TA.AperFunction,ComponentPad*
%ADD12FreePoly0,0.000000*%
G04 #@! TD*
G04 #@! TA.AperFunction,ComponentPad*
%ADD13R,1.500000X1.500000*%
G04 #@! TD*
G04 #@! TA.AperFunction,ComponentPad*
%ADD14C,1.500000*%
G04 #@! TD*
G04 #@! TA.AperFunction,ComponentPad*
%ADD15C,2.500000*%
G04 #@! TD*
G04 #@! TA.AperFunction,ComponentPad*
%ADD16R,2.500000X2.500000*%
G04 #@! TD*
G04 #@! TA.AperFunction,Conductor*
%ADD17C,0.500000*%
G04 #@! TD*
G04 APERTURE END LIST*
D10*
X150160000Y-103000000D03*
D11*
X150160000Y-100460000D03*
X147620000Y-103000000D03*
X147620000Y-100460000D03*
X145080000Y-103000000D03*
X145080000Y-100460000D03*
X142540000Y-103000000D03*
X142540000Y-100460000D03*
X140000000Y-103000000D03*
X140000000Y-100460000D03*
X137460000Y-103000000D03*
X137460000Y-100460000D03*
X134920000Y-103000000D03*
X134920000Y-100460000D03*
X132380000Y-103000000D03*
X132380000Y-100460000D03*
D10*
X93800000Y-133250000D03*
D11*
X91260000Y-133250000D03*
X88720000Y-133250000D03*
X86180000Y-133250000D03*
D10*
X127000000Y-130000000D03*
D11*
X127000000Y-127460000D03*
X124460000Y-130000000D03*
X124460000Y-127460000D03*
X121920000Y-130000000D03*
X121920000Y-127460000D03*
X119380000Y-130000000D03*
X119380000Y-127460000D03*
X116840000Y-130000000D03*
X116840000Y-127460000D03*
X114300000Y-130000000D03*
X114300000Y-127460000D03*
X111760000Y-130000000D03*
X111760000Y-127460000D03*
X109220000Y-130000000D03*
X109220000Y-127460000D03*
X152000000Y-138750000D03*
D12*
X152000000Y-164500000D03*
D10*
X132500000Y-88960000D03*
D11*
X132500000Y-91500000D03*
X135040000Y-88960000D03*
X135040000Y-91500000D03*
X137580000Y-88960000D03*
X137580000Y-91500000D03*
X140120000Y-88960000D03*
X140120000Y-91500000D03*
X142660000Y-88960000D03*
X142660000Y-91500000D03*
X145200000Y-88960000D03*
X145200000Y-91500000D03*
X147740000Y-88960000D03*
X147740000Y-91500000D03*
X150280000Y-88960000D03*
X150280000Y-91500000D03*
D10*
X132380000Y-116000000D03*
D11*
X132380000Y-118540000D03*
X134920000Y-116000000D03*
X134920000Y-118540000D03*
X137460000Y-116000000D03*
X137460000Y-118540000D03*
X140000000Y-116000000D03*
X140000000Y-118540000D03*
X142540000Y-116000000D03*
X142540000Y-118540000D03*
X145080000Y-116000000D03*
X145080000Y-118540000D03*
X147620000Y-116000000D03*
X147620000Y-118540000D03*
X150160000Y-116000000D03*
X150160000Y-118540000D03*
X133000000Y-138750000D03*
D12*
X133000000Y-164500000D03*
D13*
X94500000Y-103555000D03*
D14*
X97040000Y-104825000D03*
X94500000Y-106095000D03*
X97040000Y-107365000D03*
X94500000Y-108635000D03*
X97040000Y-109905000D03*
X94500000Y-111175000D03*
X97040000Y-112445000D03*
D15*
X91706000Y-100253000D03*
X91706000Y-115747000D03*
D10*
X127000000Y-103000000D03*
D11*
X127000000Y-100460000D03*
X124460000Y-103000000D03*
X124460000Y-100460000D03*
X121920000Y-103000000D03*
X121920000Y-100460000D03*
X119380000Y-103000000D03*
X119380000Y-100460000D03*
X116840000Y-103000000D03*
X116840000Y-100460000D03*
X114300000Y-103000000D03*
X114300000Y-100460000D03*
X111760000Y-103000000D03*
X111760000Y-100460000D03*
X109220000Y-103000000D03*
X109220000Y-100460000D03*
D10*
X161000000Y-117620000D03*
D11*
X161000000Y-115080000D03*
X161000000Y-112540000D03*
X161000000Y-110000000D03*
X161000000Y-107460000D03*
X161000000Y-104920000D03*
X161000000Y-102380000D03*
X161000000Y-99840000D03*
D10*
X93800000Y-123500000D03*
D11*
X91260000Y-123500000D03*
X88720000Y-123500000D03*
X86180000Y-123500000D03*
D10*
X109220000Y-116000000D03*
D11*
X109220000Y-118540000D03*
X111760000Y-116000000D03*
X111760000Y-118540000D03*
X114300000Y-116000000D03*
X114300000Y-118540000D03*
X116840000Y-116000000D03*
X116840000Y-118540000D03*
X119380000Y-116000000D03*
X119380000Y-118540000D03*
X121920000Y-116000000D03*
X121920000Y-118540000D03*
X124460000Y-116000000D03*
X124460000Y-118540000D03*
X127000000Y-116000000D03*
X127000000Y-118540000D03*
X112750000Y-138750000D03*
D12*
X112750000Y-164500000D03*
D16*
X170800000Y-142320570D03*
D15*
X170800000Y-137320570D03*
D16*
X170800000Y-156820570D03*
D15*
X170800000Y-151820570D03*
D10*
X109220000Y-88960000D03*
D11*
X109220000Y-91500000D03*
X111760000Y-88960000D03*
X111760000Y-91500000D03*
X114300000Y-88960000D03*
X114300000Y-91500000D03*
X116840000Y-88960000D03*
X116840000Y-91500000D03*
X119380000Y-88960000D03*
X119380000Y-91500000D03*
X121920000Y-88960000D03*
X121920000Y-91500000D03*
X124460000Y-88960000D03*
X124460000Y-91500000D03*
X127000000Y-88960000D03*
X127000000Y-91500000D03*
D16*
X170800000Y-127700570D03*
D15*
X170800000Y-122700570D03*
X170800000Y-117700570D03*
X170800000Y-112700570D03*
X170800000Y-107700570D03*
X170800000Y-102700570D03*
X170800000Y-97700570D03*
X170800000Y-92700570D03*
D11*
X94000000Y-138750000D03*
D12*
X94000000Y-164500000D03*
D10*
X87550000Y-93250000D03*
D11*
X90090000Y-93250000D03*
X92630000Y-93250000D03*
X95170000Y-93250000D03*
X97710000Y-93250000D03*
X100250000Y-93250000D03*
D10*
X150130000Y-130000000D03*
D11*
X150130000Y-127460000D03*
X147590000Y-130000000D03*
X147590000Y-127460000D03*
X145050000Y-130000000D03*
X145050000Y-127460000D03*
X142510000Y-130000000D03*
X142510000Y-127460000D03*
X139970000Y-130000000D03*
X139970000Y-127460000D03*
X137430000Y-130000000D03*
X137430000Y-127460000D03*
X134890000Y-130000000D03*
X134890000Y-127460000D03*
X132350000Y-130000000D03*
X132350000Y-127460000D03*
D17*
X97040000Y-104825000D02*
X98075000Y-104825000D01*
X127000000Y-114500000D02*
X127000000Y-116000000D01*
X98075000Y-104825000D02*
X99750000Y-106500000D01*
X119000000Y-106500000D02*
X127000000Y-114500000D01*
X132380000Y-103000000D02*
X132380000Y-116000000D01*
X99750000Y-106500000D02*
X119000000Y-106500000D01*
X128250000Y-87250000D02*
X125000000Y-87250000D01*
X124500000Y-87750000D02*
X124500000Y-88920000D01*
X128000000Y-105000000D02*
X128750000Y-104250000D01*
X125000000Y-105000000D02*
X128000000Y-105000000D01*
X128750000Y-87750000D02*
X128250000Y-87250000D01*
X124500000Y-88920000D02*
X124460000Y-88960000D01*
X125000000Y-87250000D02*
X124500000Y-87750000D01*
X128750000Y-104250000D02*
X128750000Y-87750000D01*
X124460000Y-104460000D02*
X125000000Y-105000000D01*
X124460000Y-103000000D02*
X124460000Y-104460000D01*
X134920000Y-103000000D02*
X134920000Y-116000000D01*
X121920000Y-114670000D02*
X114615000Y-107365000D01*
X121920000Y-116000000D02*
X121920000Y-114670000D01*
X137460000Y-103000000D02*
X137460000Y-116000000D01*
X114615000Y-107365000D02*
X96640000Y-107365000D01*
X140000000Y-103000000D02*
X140000000Y-116000000D01*
X120550000Y-86450000D02*
X119380000Y-87620000D01*
X119380000Y-104130000D02*
X121000000Y-105750000D01*
X129750000Y-104381370D02*
X129750000Y-87618630D01*
X128581370Y-86450000D02*
X120550000Y-86450000D01*
X119380000Y-87620000D02*
X119380000Y-88960000D01*
X129750000Y-87618630D02*
X128581370Y-86450000D01*
X121000000Y-105750000D02*
X124500000Y-105750000D01*
X119380000Y-103000000D02*
X119380000Y-104130000D01*
X124500000Y-105750000D02*
X124550000Y-105800000D01*
X124550000Y-105800000D02*
X128331370Y-105800000D01*
X128331370Y-105800000D02*
X129750000Y-104381370D01*
X116840000Y-114797919D02*
X111947081Y-109905000D01*
X116840000Y-116000000D02*
X116840000Y-114797919D01*
X142540000Y-103000000D02*
X142540000Y-116000000D01*
X111947081Y-109905000D02*
X96640000Y-109905000D01*
X114300000Y-114300000D02*
X112445000Y-112445000D01*
X145080000Y-103000000D02*
X145080000Y-116000000D01*
X112445000Y-112445000D02*
X96640000Y-112445000D01*
X114300000Y-116000000D02*
X114300000Y-114300000D01*
X111750000Y-87750000D02*
X111750000Y-88950000D01*
X110500000Y-86500000D02*
X111750000Y-87750000D01*
X111760000Y-103000000D02*
X111760000Y-104740000D01*
X106250000Y-87500000D02*
X107250000Y-86500000D01*
X107250000Y-105250000D02*
X106250000Y-104250000D01*
X147620000Y-103000000D02*
X147620000Y-116000000D01*
X111250000Y-105250000D02*
X107250000Y-105250000D01*
X106250000Y-104250000D02*
X106250000Y-87500000D01*
X107250000Y-86500000D02*
X110500000Y-86500000D01*
X111760000Y-104740000D02*
X111250000Y-105250000D01*
X111750000Y-88950000D02*
X111760000Y-88960000D01*
X150160000Y-103000000D02*
X150160000Y-116000000D01*
M02*
