G04 #@! TF.GenerationSoftware,KiCad,Pcbnew,7.0.7*
G04 #@! TF.CreationDate,2023-10-30T12:22:07+01:00*
G04 #@! TF.ProjectId,Speaker,53706561-6b65-4722-9e6b-696361645f70,rev?*
G04 #@! TF.SameCoordinates,Original*
G04 #@! TF.FileFunction,Soldermask,Bot*
G04 #@! TF.FilePolarity,Negative*
%FSLAX46Y46*%
G04 Gerber Fmt 4.6, Leading zero omitted, Abs format (unit mm)*
G04 Created by KiCad (PCBNEW 7.0.7) date 2023-10-30 12:22:07*
%MOMM*%
%LPD*%
G01*
G04 APERTURE LIST*
%ADD10C,3.200000*%
%ADD11C,3.000000*%
%ADD12R,1.600000X1.600000*%
%ADD13O,1.600000X1.600000*%
%ADD14C,1.600000*%
%ADD15C,1.620000*%
%ADD16R,1.500000X1.500000*%
%ADD17C,1.500000*%
%ADD18C,2.500000*%
%ADD19R,1.700000X1.700000*%
%ADD20O,1.700000X1.700000*%
G04 APERTURE END LIST*
D10*
X197000000Y-79000000D03*
D11*
X138000000Y-81000000D03*
X127000000Y-81000000D03*
D10*
X105000000Y-79000000D03*
X105000000Y-121000000D03*
D11*
X164000000Y-80500000D03*
X115000000Y-81000000D03*
X178500000Y-81000000D03*
D12*
X126200000Y-96200000D03*
D13*
X126200000Y-98740000D03*
X126200000Y-101280000D03*
X126200000Y-103820000D03*
X133820000Y-103820000D03*
X133820000Y-101280000D03*
X133820000Y-98740000D03*
X133820000Y-96200000D03*
D11*
X151000000Y-81000000D03*
D12*
X186000000Y-89000000D03*
D14*
X188500000Y-89000000D03*
D15*
X111500000Y-118500000D03*
X116500000Y-116000000D03*
X111500000Y-113500000D03*
D10*
X109000000Y-94285000D03*
X109000000Y-105715000D03*
D16*
X115350000Y-95555000D03*
D17*
X117890000Y-96825000D03*
X115350000Y-98095000D03*
X117890000Y-99365000D03*
X115350000Y-100635000D03*
X117890000Y-101905000D03*
X115350000Y-103175000D03*
X117890000Y-104445000D03*
D18*
X112556000Y-92253000D03*
X112556000Y-107747000D03*
D19*
X197000000Y-98460000D03*
D20*
X197000000Y-101000000D03*
D12*
X156800000Y-96200000D03*
D13*
X154260000Y-96200000D03*
X151720000Y-96200000D03*
X149180000Y-96200000D03*
X149180000Y-103820000D03*
X151720000Y-103820000D03*
X154260000Y-103820000D03*
X156800000Y-103820000D03*
D12*
X186000000Y-111000000D03*
D14*
X188500000Y-111000000D03*
D10*
X197000000Y-121000000D03*
M02*
