G04 #@! TF.GenerationSoftware,KiCad,Pcbnew,7.0.7*
G04 #@! TF.CreationDate,2023-10-30T12:22:07+01:00*
G04 #@! TF.ProjectId,Speaker,53706561-6b65-4722-9e6b-696361645f70,rev?*
G04 #@! TF.SameCoordinates,Original*
G04 #@! TF.FileFunction,Copper,L1,Top*
G04 #@! TF.FilePolarity,Positive*
%FSLAX46Y46*%
G04 Gerber Fmt 4.6, Leading zero omitted, Abs format (unit mm)*
G04 Created by KiCad (PCBNEW 7.0.7) date 2023-10-30 12:22:07*
%MOMM*%
%LPD*%
G01*
G04 APERTURE LIST*
G04 Aperture macros list*
%AMRoundRect*
0 Rectangle with rounded corners*
0 $1 Rounding radius*
0 $2 $3 $4 $5 $6 $7 $8 $9 X,Y pos of 4 corners*
0 Add a 4 corners polygon primitive as box body*
4,1,4,$2,$3,$4,$5,$6,$7,$8,$9,$2,$3,0*
0 Add four circle primitives for the rounded corners*
1,1,$1+$1,$2,$3*
1,1,$1+$1,$4,$5*
1,1,$1+$1,$6,$7*
1,1,$1+$1,$8,$9*
0 Add four rect primitives between the rounded corners*
20,1,$1+$1,$2,$3,$4,$5,0*
20,1,$1+$1,$4,$5,$6,$7,0*
20,1,$1+$1,$6,$7,$8,$9,0*
20,1,$1+$1,$8,$9,$2,$3,0*%
G04 Aperture macros list end*
G04 #@! TA.AperFunction,SMDPad,CuDef*
%ADD10RoundRect,0.250000X0.450000X-0.350000X0.450000X0.350000X-0.450000X0.350000X-0.450000X-0.350000X0*%
G04 #@! TD*
G04 #@! TA.AperFunction,ComponentPad*
%ADD11C,3.000000*%
G04 #@! TD*
G04 #@! TA.AperFunction,SMDPad,CuDef*
%ADD12RoundRect,0.250000X-0.450000X0.350000X-0.450000X-0.350000X0.450000X-0.350000X0.450000X0.350000X0*%
G04 #@! TD*
G04 #@! TA.AperFunction,SMDPad,CuDef*
%ADD13RoundRect,0.250000X-0.350000X-0.450000X0.350000X-0.450000X0.350000X0.450000X-0.350000X0.450000X0*%
G04 #@! TD*
G04 #@! TA.AperFunction,SMDPad,CuDef*
%ADD14RoundRect,0.250000X-0.412500X-0.650000X0.412500X-0.650000X0.412500X0.650000X-0.412500X0.650000X0*%
G04 #@! TD*
G04 #@! TA.AperFunction,SMDPad,CuDef*
%ADD15R,1.000000X1.500000*%
G04 #@! TD*
G04 #@! TA.AperFunction,ComponentPad*
%ADD16R,1.600000X1.600000*%
G04 #@! TD*
G04 #@! TA.AperFunction,ComponentPad*
%ADD17O,1.600000X1.600000*%
G04 #@! TD*
G04 #@! TA.AperFunction,ComponentPad*
%ADD18C,1.600000*%
G04 #@! TD*
G04 #@! TA.AperFunction,ComponentPad*
%ADD19C,1.620000*%
G04 #@! TD*
G04 #@! TA.AperFunction,ComponentPad*
%ADD20R,1.500000X1.500000*%
G04 #@! TD*
G04 #@! TA.AperFunction,ComponentPad*
%ADD21C,1.500000*%
G04 #@! TD*
G04 #@! TA.AperFunction,ComponentPad*
%ADD22C,2.500000*%
G04 #@! TD*
G04 #@! TA.AperFunction,ComponentPad*
%ADD23R,1.700000X1.700000*%
G04 #@! TD*
G04 #@! TA.AperFunction,ComponentPad*
%ADD24O,1.700000X1.700000*%
G04 #@! TD*
G04 #@! TA.AperFunction,SMDPad,CuDef*
%ADD25RoundRect,0.250000X-0.650000X0.412500X-0.650000X-0.412500X0.650000X-0.412500X0.650000X0.412500X0*%
G04 #@! TD*
G04 #@! TA.AperFunction,SMDPad,CuDef*
%ADD26RoundRect,0.150000X-0.150000X0.650000X-0.150000X-0.650000X0.150000X-0.650000X0.150000X0.650000X0*%
G04 #@! TD*
G04 #@! TA.AperFunction,Conductor*
%ADD27C,0.500000*%
G04 #@! TD*
G04 APERTURE END LIST*
D10*
X172000000Y-97000000D03*
X172000000Y-95000000D03*
D11*
X138000000Y-81000000D03*
X127000000Y-81000000D03*
D12*
X145000000Y-116000000D03*
X145000000Y-118000000D03*
D11*
X164000000Y-80500000D03*
X115000000Y-81000000D03*
D13*
X138000000Y-96000000D03*
X140000000Y-96000000D03*
D11*
X178500000Y-81000000D03*
D14*
X172437500Y-115000000D03*
X175562500Y-115000000D03*
D15*
X175700000Y-122000000D03*
X177000000Y-122000000D03*
D16*
X126200000Y-96200000D03*
D17*
X126200000Y-98740000D03*
X126200000Y-101280000D03*
X126200000Y-103820000D03*
X133820000Y-103820000D03*
X133820000Y-101280000D03*
X133820000Y-98740000D03*
X133820000Y-96200000D03*
D11*
X151000000Y-81000000D03*
D16*
X186000000Y-89000000D03*
D18*
X188500000Y-89000000D03*
D15*
X162200000Y-122000000D03*
X163500000Y-122000000D03*
D19*
X111500000Y-118500000D03*
X116500000Y-116000000D03*
X111500000Y-113500000D03*
D20*
X115350000Y-95555000D03*
D21*
X117890000Y-96825000D03*
X115350000Y-98095000D03*
X117890000Y-99365000D03*
X115350000Y-100635000D03*
X117890000Y-101905000D03*
X115350000Y-103175000D03*
X117890000Y-104445000D03*
D22*
X112556000Y-92253000D03*
X112556000Y-107747000D03*
D12*
X166000000Y-109000000D03*
X166000000Y-111000000D03*
X139000000Y-116000000D03*
X139000000Y-118000000D03*
D23*
X197000000Y-98460000D03*
D24*
X197000000Y-101000000D03*
D16*
X156800000Y-96200000D03*
D17*
X154260000Y-96200000D03*
X151720000Y-96200000D03*
X149180000Y-96200000D03*
X149180000Y-103820000D03*
X151720000Y-103820000D03*
X154260000Y-103820000D03*
X156800000Y-103820000D03*
D12*
X150500000Y-116000000D03*
X150500000Y-118000000D03*
D16*
X186000000Y-111000000D03*
D18*
X188500000Y-111000000D03*
D25*
X140000000Y-100437500D03*
X140000000Y-103562500D03*
D26*
X175905000Y-103400000D03*
X174635000Y-103400000D03*
X173365000Y-103400000D03*
X172095000Y-103400000D03*
X172095000Y-110600000D03*
X173365000Y-110600000D03*
X174635000Y-110600000D03*
X175905000Y-110600000D03*
D27*
X140000000Y-96000000D02*
X140000000Y-100437500D01*
X146000000Y-92500000D02*
X150500000Y-92500000D01*
X151720000Y-93720000D02*
X151720000Y-96200000D01*
X140000000Y-96000000D02*
X142500000Y-96000000D01*
X142500000Y-96000000D02*
X146000000Y-92500000D01*
X150500000Y-92500000D02*
X151720000Y-93720000D01*
X116620000Y-104445000D02*
X115350000Y-103175000D01*
X117890000Y-104445000D02*
X116620000Y-104445000D01*
X178500000Y-112500000D02*
X180500000Y-110500000D01*
X174500000Y-110735000D02*
X174500000Y-112000000D01*
X174500000Y-112000000D02*
X175000000Y-112500000D01*
X180500000Y-110500000D02*
X181500000Y-110500000D01*
X115350000Y-103175000D02*
X115350000Y-104953000D01*
X115350000Y-104953000D02*
X112556000Y-107747000D01*
X112556000Y-92253000D02*
X112556000Y-107747000D01*
X174635000Y-110600000D02*
X174500000Y-110735000D01*
X175000000Y-112500000D02*
X178500000Y-112500000D01*
X139000000Y-118000000D02*
X150500000Y-118000000D01*
X186000000Y-112500000D02*
X186000000Y-111000000D01*
X156800000Y-106700000D02*
X156800000Y-103820000D01*
X173365000Y-113000000D02*
X173365000Y-114072500D01*
X173365000Y-110600000D02*
X173365000Y-113000000D01*
X135280000Y-101280000D02*
X137000000Y-103000000D01*
X126200000Y-96200000D02*
X125555000Y-95555000D01*
X115350000Y-95555000D02*
X116620000Y-95555000D01*
X125555000Y-95555000D02*
X115350000Y-95555000D01*
X156000000Y-107500000D02*
X156800000Y-106700000D01*
X137000000Y-103000000D02*
X137000000Y-105000000D01*
X165100000Y-115000000D02*
X156800000Y-106700000D01*
X133820000Y-101280000D02*
X131280000Y-101280000D01*
X116620000Y-95555000D02*
X117890000Y-96825000D01*
X173365000Y-114072500D02*
X172437500Y-115000000D01*
X139500000Y-107500000D02*
X156000000Y-107500000D01*
X133820000Y-101280000D02*
X135280000Y-101280000D01*
X137000000Y-105000000D02*
X139500000Y-107500000D01*
X131280000Y-101280000D02*
X126200000Y-96200000D01*
X174937500Y-117500000D02*
X181000000Y-117500000D01*
X172437500Y-115000000D02*
X174937500Y-117500000D01*
X181000000Y-117500000D02*
X186000000Y-112500000D01*
X172437500Y-115000000D02*
X165100000Y-115000000D01*
X117890000Y-99365000D02*
X124285000Y-99365000D01*
X124285000Y-99365000D02*
X126200000Y-101280000D01*
X139000000Y-116000000D02*
X138380000Y-116000000D01*
X139000000Y-116000000D02*
X150500000Y-116000000D01*
X123015000Y-100635000D02*
X126200000Y-103820000D01*
X138380000Y-116000000D02*
X126200000Y-103820000D01*
X115350000Y-100635000D02*
X123015000Y-100635000D01*
X173365000Y-103400000D02*
X174635000Y-103400000D01*
X174635000Y-100365000D02*
X186000000Y-89000000D01*
X174635000Y-103400000D02*
X174635000Y-100365000D01*
X115350000Y-98095000D02*
X125555000Y-98095000D01*
X125555000Y-98095000D02*
X126200000Y-98740000D01*
X162200000Y-122000000D02*
X140500000Y-122000000D01*
X117890000Y-101905000D02*
X137985000Y-122000000D01*
X137985000Y-122000000D02*
X140500000Y-122000000D01*
X166500000Y-119000000D02*
X176500000Y-119000000D01*
X197500000Y-95000000D02*
X181500000Y-95000000D01*
X163500000Y-122000000D02*
X166500000Y-119000000D01*
X176500000Y-119000000D02*
X177000000Y-119500000D01*
X186000000Y-122000000D02*
X199500000Y-108500000D01*
X175905000Y-100595000D02*
X175905000Y-103400000D01*
X177000000Y-119500000D02*
X177000000Y-122000000D01*
X199500000Y-97000000D02*
X197500000Y-95000000D01*
X177000000Y-122000000D02*
X186000000Y-122000000D01*
X181500000Y-95000000D02*
X175905000Y-100595000D01*
X199500000Y-108500000D02*
X199500000Y-97000000D01*
X172000000Y-110505000D02*
X172000000Y-109000000D01*
X172095000Y-110600000D02*
X172000000Y-110505000D01*
X172095000Y-110600000D02*
X171695000Y-111000000D01*
X174000000Y-107000000D02*
X179500000Y-107000000D01*
X172000000Y-109000000D02*
X174000000Y-107000000D01*
X171695000Y-111000000D02*
X166000000Y-111000000D01*
X179500000Y-107000000D02*
X188040000Y-98460000D01*
X188040000Y-98460000D02*
X197000000Y-98460000D01*
X175905000Y-110600000D02*
X177900000Y-110600000D01*
X177900000Y-110600000D02*
X187500000Y-101000000D01*
X187500000Y-101000000D02*
X197000000Y-101000000D01*
X134020000Y-96000000D02*
X133820000Y-96200000D01*
X138000000Y-96000000D02*
X134020000Y-96000000D01*
X166000000Y-109000000D02*
X171600000Y-103400000D01*
X172095000Y-97095000D02*
X172095000Y-103400000D01*
X172000000Y-97000000D02*
X172095000Y-97095000D01*
X171600000Y-103400000D02*
X172095000Y-103400000D01*
X151720000Y-103820000D02*
X154260000Y-103820000D01*
X163080000Y-95000000D02*
X164000000Y-94080000D01*
X164000000Y-94080000D02*
X164000000Y-80500000D01*
X163080000Y-95000000D02*
X172000000Y-95000000D01*
X154260000Y-103820000D02*
X163080000Y-95000000D01*
X154260000Y-84260000D02*
X151000000Y-81000000D01*
X154260000Y-96200000D02*
X154260000Y-84260000D01*
X154260000Y-96200000D02*
X156800000Y-96200000D01*
G04 #@! TA.AperFunction,Conductor*
G36*
X200845788Y-75019454D02*
G01*
X200926570Y-75073430D01*
X200980546Y-75154212D01*
X200999500Y-75249500D01*
X200999500Y-96170063D01*
X200980546Y-96265351D01*
X200926570Y-96346133D01*
X200845788Y-96400109D01*
X200750500Y-96419063D01*
X200655212Y-96400109D01*
X200574430Y-96346133D01*
X200549055Y-96316422D01*
X200519922Y-96276324D01*
X200463823Y-96195350D01*
X200456654Y-96186763D01*
X200456887Y-96186568D01*
X200453107Y-96182142D01*
X200452879Y-96182342D01*
X200445527Y-96173926D01*
X200414313Y-96144083D01*
X200374320Y-96105846D01*
X198927245Y-94658771D01*
X198438834Y-94170359D01*
X198429523Y-94159940D01*
X198407508Y-94132334D01*
X198364533Y-94094788D01*
X198357618Y-94088746D01*
X198351524Y-94083050D01*
X198344529Y-94076055D01*
X198344229Y-94075805D01*
X198312181Y-94049048D01*
X198238003Y-93984240D01*
X198228950Y-93977663D01*
X198229128Y-93977417D01*
X198224385Y-93974052D01*
X198224214Y-93974301D01*
X198215026Y-93967935D01*
X198129341Y-93919316D01*
X198086595Y-93893777D01*
X198044764Y-93868785D01*
X198044761Y-93868784D01*
X198044758Y-93868782D01*
X198034685Y-93863931D01*
X198034816Y-93863657D01*
X198029547Y-93861193D01*
X198029422Y-93861470D01*
X198019247Y-93856848D01*
X198019245Y-93856847D01*
X198019242Y-93856846D01*
X198019240Y-93856845D01*
X197926253Y-93824307D01*
X197834019Y-93789691D01*
X197823249Y-93786719D01*
X197823328Y-93786429D01*
X197817699Y-93784943D01*
X197817626Y-93785234D01*
X197806781Y-93782501D01*
X197709472Y-93767089D01*
X197612537Y-93749498D01*
X197601406Y-93748497D01*
X197601433Y-93748195D01*
X197595640Y-93747739D01*
X197595620Y-93748042D01*
X197584461Y-93747289D01*
X197485977Y-93749500D01*
X183620115Y-93749500D01*
X183524827Y-93730546D01*
X183444045Y-93676570D01*
X183390069Y-93595788D01*
X183371115Y-93500500D01*
X183390069Y-93405212D01*
X183444045Y-93324430D01*
X185895045Y-90873429D01*
X185975827Y-90819453D01*
X186071115Y-90800499D01*
X186451914Y-90800499D01*
X186547202Y-90819453D01*
X186627984Y-90873429D01*
X186681960Y-90954211D01*
X186698897Y-91039362D01*
X186700001Y-91039314D01*
X186700313Y-91046482D01*
X186700914Y-91049499D01*
X186700529Y-91051429D01*
X186704779Y-91148772D01*
X186825117Y-91249746D01*
X187097631Y-91428981D01*
X187389099Y-91575363D01*
X187389103Y-91575364D01*
X187695593Y-91686916D01*
X188012960Y-91762135D01*
X188336920Y-91800000D01*
X188663080Y-91800000D01*
X188987039Y-91762135D01*
X189304406Y-91686916D01*
X189304407Y-91686916D01*
X189610896Y-91575364D01*
X189610900Y-91575363D01*
X189902368Y-91428981D01*
X190174888Y-91249743D01*
X190295218Y-91148772D01*
X188782136Y-89635689D01*
X188728160Y-89554907D01*
X188709206Y-89459619D01*
X188728160Y-89364331D01*
X188782133Y-89283552D01*
X188783552Y-89282133D01*
X188864331Y-89228160D01*
X188959619Y-89209206D01*
X189054907Y-89228160D01*
X189135689Y-89282136D01*
X190651907Y-90798353D01*
X190843330Y-90541231D01*
X190843335Y-90541224D01*
X191006403Y-90258782D01*
X191006410Y-90258768D01*
X191135596Y-89959283D01*
X191135598Y-89959276D01*
X191229143Y-89646818D01*
X191285778Y-89325620D01*
X191285779Y-89325613D01*
X191304744Y-89000000D01*
X191285779Y-88674386D01*
X191285778Y-88674379D01*
X191229143Y-88353181D01*
X191135598Y-88040723D01*
X191135596Y-88040716D01*
X191006410Y-87741231D01*
X191006403Y-87741217D01*
X190843333Y-87458771D01*
X190651908Y-87201644D01*
X189135689Y-88717863D01*
X189054907Y-88771839D01*
X188959619Y-88790793D01*
X188864331Y-88771839D01*
X188783549Y-88717863D01*
X188782135Y-88716449D01*
X188728159Y-88635667D01*
X188709205Y-88540379D01*
X188728159Y-88445091D01*
X188782135Y-88364309D01*
X190295218Y-86851226D01*
X190174882Y-86750253D01*
X189902368Y-86571018D01*
X189610900Y-86424636D01*
X189610896Y-86424635D01*
X189304406Y-86313083D01*
X188987039Y-86237864D01*
X188663080Y-86200000D01*
X188336920Y-86200000D01*
X188012960Y-86237864D01*
X187695593Y-86313083D01*
X187695592Y-86313083D01*
X187389103Y-86424635D01*
X187389099Y-86424636D01*
X187097631Y-86571018D01*
X186825117Y-86750252D01*
X186825116Y-86750253D01*
X186704779Y-86851227D01*
X186700529Y-86948569D01*
X186700914Y-86950500D01*
X186700313Y-86953516D01*
X186700001Y-86960685D01*
X186698897Y-86960636D01*
X186681960Y-87045788D01*
X186627984Y-87126570D01*
X186547202Y-87180546D01*
X186451914Y-87199500D01*
X185141961Y-87199501D01*
X185022585Y-87210113D01*
X184826954Y-87266090D01*
X184826946Y-87266093D01*
X184646597Y-87360299D01*
X184646592Y-87360302D01*
X184488893Y-87488889D01*
X184488889Y-87488893D01*
X184360302Y-87646592D01*
X184360299Y-87646597D01*
X184266093Y-87826946D01*
X184266090Y-87826954D01*
X184210115Y-88022578D01*
X184210114Y-88022582D01*
X184199500Y-88141959D01*
X184199500Y-88928884D01*
X184180546Y-89024172D01*
X184126570Y-89104954D01*
X173805360Y-99426163D01*
X173794945Y-99435471D01*
X173767340Y-99457486D01*
X173766576Y-99458217D01*
X173765824Y-99458694D01*
X173758596Y-99464460D01*
X173757979Y-99463686D01*
X173684604Y-99510368D01*
X173588914Y-99527179D01*
X173494075Y-99506093D01*
X173414525Y-99450318D01*
X173362374Y-99368346D01*
X173345500Y-99278242D01*
X173345500Y-98326111D01*
X173364454Y-98230823D01*
X173408552Y-98164823D01*
X173406653Y-98163237D01*
X173413810Y-98154662D01*
X173413819Y-98154654D01*
X173542007Y-97969626D01*
X173635096Y-97764683D01*
X173690096Y-97546412D01*
X173700500Y-97414217D01*
X173700499Y-96585784D01*
X173690096Y-96453588D01*
X173635096Y-96235317D01*
X173574983Y-96102975D01*
X173552834Y-96008380D01*
X173568571Y-95912508D01*
X173574984Y-95897024D01*
X173585270Y-95874379D01*
X173635096Y-95764683D01*
X173690096Y-95546412D01*
X173700500Y-95414217D01*
X173700499Y-94585784D01*
X173690096Y-94453588D01*
X173635096Y-94235317D01*
X173542007Y-94030374D01*
X173542003Y-94030368D01*
X173413822Y-93845350D01*
X173413821Y-93845349D01*
X173413819Y-93845346D01*
X173254654Y-93686181D01*
X173254650Y-93686178D01*
X173254649Y-93686177D01*
X173069631Y-93557996D01*
X173069629Y-93557995D01*
X173069626Y-93557993D01*
X172932729Y-93495812D01*
X172864686Y-93464905D01*
X172864684Y-93464904D01*
X172864683Y-93464904D01*
X172646412Y-93409904D01*
X172646410Y-93409903D01*
X172646407Y-93409903D01*
X172514217Y-93399500D01*
X171485784Y-93399501D01*
X171413212Y-93405212D01*
X171353587Y-93409904D01*
X171135313Y-93464905D01*
X171036294Y-93509882D01*
X170930374Y-93557993D01*
X170930372Y-93557993D01*
X170930368Y-93557996D01*
X170745350Y-93686177D01*
X170738804Y-93691643D01*
X170653509Y-93738161D01*
X170579225Y-93749500D01*
X165499500Y-93749500D01*
X165404212Y-93730546D01*
X165323430Y-93676570D01*
X165269454Y-93595788D01*
X165250500Y-93500500D01*
X165250500Y-82809117D01*
X165269454Y-82713829D01*
X165323430Y-82633047D01*
X165353129Y-82607681D01*
X165597030Y-82430478D01*
X165826390Y-82215094D01*
X166026947Y-81972663D01*
X166195537Y-81707007D01*
X166329503Y-81422315D01*
X166426731Y-81123079D01*
X166450210Y-80999999D01*
X175994556Y-80999999D01*
X176014312Y-81314017D01*
X176014314Y-81314033D01*
X176073267Y-81623070D01*
X176073270Y-81623083D01*
X176170495Y-81922311D01*
X176170497Y-81922315D01*
X176304463Y-82207007D01*
X176473053Y-82472663D01*
X176673610Y-82715094D01*
X176902970Y-82930478D01*
X176902973Y-82930480D01*
X176902975Y-82930482D01*
X177157503Y-83115407D01*
X177157507Y-83115410D01*
X177157516Y-83115416D01*
X177433234Y-83266994D01*
X177725775Y-83382819D01*
X178030527Y-83461066D01*
X178342682Y-83500500D01*
X178342687Y-83500500D01*
X178657313Y-83500500D01*
X178657318Y-83500500D01*
X178969473Y-83461066D01*
X179274225Y-83382819D01*
X179566766Y-83266994D01*
X179842484Y-83115416D01*
X180097030Y-82930478D01*
X180326390Y-82715094D01*
X180526947Y-82472663D01*
X180695537Y-82207007D01*
X180829503Y-81922315D01*
X180926731Y-81623079D01*
X180965029Y-81422315D01*
X180985685Y-81314033D01*
X180985685Y-81314026D01*
X180985688Y-81314015D01*
X181005444Y-81000000D01*
X180985688Y-80685985D01*
X180985686Y-80685975D01*
X180985685Y-80685966D01*
X180953688Y-80518237D01*
X180926731Y-80376921D01*
X180829503Y-80077685D01*
X180695537Y-79792993D01*
X180526947Y-79527337D01*
X180326390Y-79284906D01*
X180097030Y-79069522D01*
X180097027Y-79069519D01*
X180097024Y-79069517D01*
X180094617Y-79067768D01*
X195145787Y-79067768D01*
X195175413Y-79337012D01*
X195175414Y-79337018D01*
X195237490Y-79574461D01*
X195243928Y-79599088D01*
X195349869Y-79848387D01*
X195349872Y-79848394D01*
X195490976Y-80079601D01*
X195490978Y-80079605D01*
X195490982Y-80079610D01*
X195490987Y-80079616D01*
X195490990Y-80079620D01*
X195664254Y-80287819D01*
X195664255Y-80287820D01*
X195861838Y-80464855D01*
X195865996Y-80468580D01*
X195865999Y-80468583D01*
X196091903Y-80618040D01*
X196091906Y-80618041D01*
X196091910Y-80618044D01*
X196337176Y-80733020D01*
X196596569Y-80811060D01*
X196864561Y-80850500D01*
X196864567Y-80850500D01*
X197067634Y-80850500D01*
X197092610Y-80848671D01*
X197270156Y-80835677D01*
X197534553Y-80776780D01*
X197787558Y-80680014D01*
X197835817Y-80652929D01*
X198023773Y-80547444D01*
X198132615Y-80463400D01*
X198238177Y-80381888D01*
X198426186Y-80186881D01*
X198583799Y-79966579D01*
X198707656Y-79725675D01*
X198759243Y-79574463D01*
X198795117Y-79469309D01*
X198819554Y-79337012D01*
X198844319Y-79202933D01*
X198854212Y-78932235D01*
X198824586Y-78662982D01*
X198756072Y-78400912D01*
X198650130Y-78151610D01*
X198509018Y-77920390D01*
X198407334Y-77798204D01*
X198335745Y-77712180D01*
X198285024Y-77666734D01*
X198134002Y-77531418D01*
X198134000Y-77531416D01*
X197908096Y-77381959D01*
X197775900Y-77319988D01*
X197662824Y-77266980D01*
X197403431Y-77188940D01*
X197403427Y-77188939D01*
X197403426Y-77188939D01*
X197341715Y-77179857D01*
X197135439Y-77149500D01*
X196932369Y-77149500D01*
X196932366Y-77149500D01*
X196869487Y-77154102D01*
X196729844Y-77164323D01*
X196729840Y-77164323D01*
X196729837Y-77164324D01*
X196465442Y-77223221D01*
X196212436Y-77319988D01*
X195976226Y-77452555D01*
X195761826Y-77618108D01*
X195573811Y-77813122D01*
X195416204Y-78033416D01*
X195416199Y-78033424D01*
X195292344Y-78274323D01*
X195292343Y-78274325D01*
X195204882Y-78530690D01*
X195155681Y-78797062D01*
X195155680Y-78797073D01*
X195145788Y-79067765D01*
X195145787Y-79067768D01*
X180094617Y-79067768D01*
X179842496Y-78884592D01*
X179842485Y-78884585D01*
X179842486Y-78884585D01*
X179842484Y-78884584D01*
X179683283Y-78797062D01*
X179566769Y-78733007D01*
X179500703Y-78706850D01*
X179274225Y-78617181D01*
X179274218Y-78617179D01*
X179274215Y-78617178D01*
X179083002Y-78568083D01*
X178969473Y-78538934D01*
X178657318Y-78499500D01*
X178342682Y-78499500D01*
X178030526Y-78538933D01*
X178030527Y-78538934D01*
X177725784Y-78617178D01*
X177725778Y-78617180D01*
X177725775Y-78617181D01*
X177610095Y-78662982D01*
X177433230Y-78733007D01*
X177157514Y-78884585D01*
X177157503Y-78884592D01*
X176902975Y-79069517D01*
X176673609Y-79284907D01*
X176473051Y-79527339D01*
X176304466Y-79792987D01*
X176170495Y-80077688D01*
X176073270Y-80376916D01*
X176073267Y-80376929D01*
X176014314Y-80685966D01*
X176014312Y-80685982D01*
X175994556Y-80999999D01*
X166450210Y-80999999D01*
X166485688Y-80814015D01*
X166505444Y-80500000D01*
X166485688Y-80185985D01*
X166485686Y-80185975D01*
X166485685Y-80185966D01*
X166434368Y-79916957D01*
X166426731Y-79876921D01*
X166329503Y-79577685D01*
X166195537Y-79292993D01*
X166026947Y-79027337D01*
X165826390Y-78784906D01*
X165597030Y-78569522D01*
X165597027Y-78569519D01*
X165597024Y-78569517D01*
X165342496Y-78384592D01*
X165342485Y-78384585D01*
X165342486Y-78384585D01*
X165342484Y-78384584D01*
X165141925Y-78274325D01*
X165066769Y-78233007D01*
X165010692Y-78210804D01*
X164774225Y-78117181D01*
X164774218Y-78117179D01*
X164774215Y-78117178D01*
X164583002Y-78068083D01*
X164469473Y-78038934D01*
X164157318Y-77999500D01*
X163842682Y-77999500D01*
X163574144Y-78033424D01*
X163530527Y-78038934D01*
X163225784Y-78117178D01*
X163225778Y-78117180D01*
X163225775Y-78117181D01*
X163138830Y-78151605D01*
X162933230Y-78233007D01*
X162657514Y-78384585D01*
X162657503Y-78384592D01*
X162402975Y-78569517D01*
X162173609Y-78784907D01*
X161973051Y-79027339D01*
X161804466Y-79292987D01*
X161670495Y-79577688D01*
X161573270Y-79876916D01*
X161573267Y-79876929D01*
X161514314Y-80185966D01*
X161514312Y-80185982D01*
X161494556Y-80500000D01*
X161514312Y-80814017D01*
X161514314Y-80814033D01*
X161573267Y-81123070D01*
X161573270Y-81123083D01*
X161670495Y-81422311D01*
X161670497Y-81422315D01*
X161804463Y-81707007D01*
X161973053Y-81972663D01*
X162173610Y-82215094D01*
X162402970Y-82430478D01*
X162646862Y-82607675D01*
X162712807Y-82679014D01*
X162746434Y-82770164D01*
X162749500Y-82809117D01*
X162749500Y-93458886D01*
X162730546Y-93554174D01*
X162676570Y-93634956D01*
X162279208Y-94032318D01*
X162262137Y-94046900D01*
X162262336Y-94047127D01*
X162253924Y-94054476D01*
X162185845Y-94125679D01*
X159021588Y-97289936D01*
X158940806Y-97343912D01*
X158845518Y-97362866D01*
X158750230Y-97343912D01*
X158669448Y-97289936D01*
X158615472Y-97209154D01*
X158596518Y-97113866D01*
X158597497Y-97091809D01*
X158597971Y-97086485D01*
X158598922Y-97075784D01*
X158600500Y-97058042D01*
X158600499Y-95341961D01*
X158589886Y-95222585D01*
X158589886Y-95222582D01*
X158533909Y-95026951D01*
X158439698Y-94846593D01*
X158311109Y-94688891D01*
X158153407Y-94560302D01*
X158153402Y-94560299D01*
X157973053Y-94466093D01*
X157973052Y-94466092D01*
X157973049Y-94466091D01*
X157777418Y-94410114D01*
X157753541Y-94407991D01*
X157658041Y-94399500D01*
X157658037Y-94399500D01*
X156677851Y-94399500D01*
X155941961Y-94399501D01*
X155822580Y-94410113D01*
X155810949Y-94412275D01*
X155810527Y-94410007D01*
X155731153Y-94416552D01*
X155638642Y-94386874D01*
X155564531Y-94324052D01*
X155520102Y-94237651D01*
X155510500Y-94169171D01*
X155510500Y-84337208D01*
X155511282Y-84323272D01*
X155515237Y-84288172D01*
X155510781Y-84222089D01*
X155510500Y-84213716D01*
X155510500Y-84203845D01*
X155510499Y-84203830D01*
X155506721Y-84161859D01*
X155500096Y-84063590D01*
X155498346Y-84052539D01*
X155498648Y-84052491D01*
X155497676Y-84046772D01*
X155497376Y-84046827D01*
X155495378Y-84035818D01*
X155495377Y-84035815D01*
X155495377Y-84035812D01*
X155469166Y-83940840D01*
X155445096Y-83845316D01*
X155441403Y-83834763D01*
X155441690Y-83834662D01*
X155439709Y-83829195D01*
X155439423Y-83829303D01*
X155435496Y-83818841D01*
X155435493Y-83818830D01*
X155392749Y-83730071D01*
X155352007Y-83640374D01*
X155352005Y-83640371D01*
X155346487Y-83630647D01*
X155346752Y-83630496D01*
X155343830Y-83625478D01*
X155343569Y-83625634D01*
X155337828Y-83616026D01*
X155279921Y-83536323D01*
X155223822Y-83455349D01*
X155223820Y-83455346D01*
X155223816Y-83455342D01*
X155216654Y-83446763D01*
X155216887Y-83446568D01*
X155213107Y-83442142D01*
X155212879Y-83442342D01*
X155205527Y-83433926D01*
X155152071Y-83382818D01*
X155134320Y-83365846D01*
X153514319Y-81745844D01*
X153460343Y-81665063D01*
X153441389Y-81569775D01*
X153445800Y-81523117D01*
X153485685Y-81314033D01*
X153485685Y-81314026D01*
X153485688Y-81314015D01*
X153505444Y-81000000D01*
X153485688Y-80685985D01*
X153485686Y-80685975D01*
X153485685Y-80685966D01*
X153453688Y-80518237D01*
X153426731Y-80376921D01*
X153329503Y-80077685D01*
X153195537Y-79792993D01*
X153026947Y-79527337D01*
X152826390Y-79284906D01*
X152597030Y-79069522D01*
X152597027Y-79069519D01*
X152597024Y-79069517D01*
X152342496Y-78884592D01*
X152342485Y-78884585D01*
X152342486Y-78884585D01*
X152342484Y-78884584D01*
X152183283Y-78797062D01*
X152066769Y-78733007D01*
X152000703Y-78706850D01*
X151774225Y-78617181D01*
X151774218Y-78617179D01*
X151774215Y-78617178D01*
X151583002Y-78568083D01*
X151469473Y-78538934D01*
X151157318Y-78499500D01*
X150842682Y-78499500D01*
X150530527Y-78538934D01*
X150225784Y-78617178D01*
X150225778Y-78617180D01*
X150225775Y-78617181D01*
X150110095Y-78662982D01*
X149933230Y-78733007D01*
X149657514Y-78884585D01*
X149657503Y-78884592D01*
X149402975Y-79069517D01*
X149173609Y-79284907D01*
X148973051Y-79527339D01*
X148804466Y-79792987D01*
X148670495Y-80077688D01*
X148573270Y-80376916D01*
X148573267Y-80376929D01*
X148514314Y-80685966D01*
X148514312Y-80685982D01*
X148494556Y-81000000D01*
X148514312Y-81314017D01*
X148514314Y-81314033D01*
X148573267Y-81623070D01*
X148573270Y-81623083D01*
X148670495Y-81922311D01*
X148670497Y-81922315D01*
X148804463Y-82207007D01*
X148973053Y-82472663D01*
X149173610Y-82715094D01*
X149402970Y-82930478D01*
X149402973Y-82930480D01*
X149402975Y-82930482D01*
X149657503Y-83115407D01*
X149657507Y-83115410D01*
X149657516Y-83115416D01*
X149933234Y-83266994D01*
X150225775Y-83382819D01*
X150530527Y-83461066D01*
X150842682Y-83500500D01*
X150842687Y-83500500D01*
X151157313Y-83500500D01*
X151157318Y-83500500D01*
X151469473Y-83461066D01*
X151509440Y-83450803D01*
X151606447Y-83445464D01*
X151698114Y-83477653D01*
X151747436Y-83515910D01*
X152936570Y-84705044D01*
X152990546Y-84785826D01*
X153009500Y-84881114D01*
X153009500Y-92639886D01*
X152990546Y-92735174D01*
X152936570Y-92815956D01*
X152855788Y-92869932D01*
X152760500Y-92888886D01*
X152665212Y-92869932D01*
X152584430Y-92815956D01*
X151438834Y-91670359D01*
X151429523Y-91659940D01*
X151407508Y-91632334D01*
X151395815Y-91622118D01*
X151357618Y-91588746D01*
X151351524Y-91583050D01*
X151344529Y-91576055D01*
X151331108Y-91564850D01*
X151312181Y-91549048D01*
X151238003Y-91484240D01*
X151228950Y-91477663D01*
X151229128Y-91477417D01*
X151224385Y-91474052D01*
X151224214Y-91474301D01*
X151215026Y-91467935D01*
X151129341Y-91419316D01*
X151068755Y-91383119D01*
X151044764Y-91368785D01*
X151044761Y-91368784D01*
X151044758Y-91368782D01*
X151034685Y-91363931D01*
X151034816Y-91363657D01*
X151029547Y-91361193D01*
X151029422Y-91361470D01*
X151019247Y-91356848D01*
X151019245Y-91356847D01*
X151019242Y-91356846D01*
X151019240Y-91356845D01*
X150926253Y-91324307D01*
X150834019Y-91289691D01*
X150823249Y-91286719D01*
X150823328Y-91286429D01*
X150817699Y-91284943D01*
X150817626Y-91285234D01*
X150806781Y-91282501D01*
X150709472Y-91267089D01*
X150612537Y-91249498D01*
X150601406Y-91248497D01*
X150601433Y-91248195D01*
X150595640Y-91247739D01*
X150595620Y-91248042D01*
X150584461Y-91247289D01*
X150485977Y-91249500D01*
X146077209Y-91249500D01*
X146063271Y-91248717D01*
X146028172Y-91244763D01*
X146028171Y-91244763D01*
X145997420Y-91246836D01*
X145962090Y-91249218D01*
X145953717Y-91249500D01*
X145943838Y-91249500D01*
X145901859Y-91253278D01*
X145803589Y-91259903D01*
X145792544Y-91261653D01*
X145792496Y-91261353D01*
X145786758Y-91262328D01*
X145786813Y-91262626D01*
X145775812Y-91264622D01*
X145680844Y-91290832D01*
X145585311Y-91314905D01*
X145574762Y-91318597D01*
X145574662Y-91318312D01*
X145569188Y-91320296D01*
X145569295Y-91320580D01*
X145558822Y-91324510D01*
X145470071Y-91367250D01*
X145380373Y-91407993D01*
X145370647Y-91413512D01*
X145370497Y-91413249D01*
X145365469Y-91416177D01*
X145365624Y-91416437D01*
X145356022Y-91422173D01*
X145276319Y-91480081D01*
X145195342Y-91536183D01*
X145186757Y-91543350D01*
X145186564Y-91543119D01*
X145182138Y-91546900D01*
X145182336Y-91547127D01*
X145173924Y-91554476D01*
X145105845Y-91625679D01*
X142054956Y-94676570D01*
X141974174Y-94730546D01*
X141878886Y-94749500D01*
X141421112Y-94749500D01*
X141325824Y-94730546D01*
X141245045Y-94676572D01*
X141154654Y-94586181D01*
X141154650Y-94586178D01*
X141154649Y-94586177D01*
X140969631Y-94457996D01*
X140969629Y-94457995D01*
X140969626Y-94457993D01*
X140810086Y-94385527D01*
X140764686Y-94364905D01*
X140764684Y-94364904D01*
X140764683Y-94364904D01*
X140546412Y-94309904D01*
X140546410Y-94309903D01*
X140546407Y-94309903D01*
X140414217Y-94299500D01*
X139585784Y-94299501D01*
X139497653Y-94306436D01*
X139453587Y-94309904D01*
X139235316Y-94364904D01*
X139102975Y-94425016D01*
X139008378Y-94447165D01*
X138912506Y-94431428D01*
X138897025Y-94425016D01*
X138764683Y-94364904D01*
X138764682Y-94364903D01*
X138546412Y-94309904D01*
X138546410Y-94309903D01*
X138546407Y-94309903D01*
X138414217Y-94299500D01*
X137585784Y-94299501D01*
X137497653Y-94306436D01*
X137453587Y-94309904D01*
X137235313Y-94364905D01*
X137088859Y-94431428D01*
X137030374Y-94457993D01*
X137030372Y-94457993D01*
X137030368Y-94457996D01*
X136845350Y-94586177D01*
X136845346Y-94586180D01*
X136845346Y-94586181D01*
X136754954Y-94676572D01*
X136674176Y-94730546D01*
X136578888Y-94749500D01*
X134965543Y-94749500D01*
X134870255Y-94730546D01*
X134825276Y-94706233D01*
X134722778Y-94636350D01*
X134722773Y-94636348D01*
X134479649Y-94519265D01*
X134479644Y-94519263D01*
X134479641Y-94519262D01*
X134221772Y-94439720D01*
X133954929Y-94399500D01*
X133685071Y-94399500D01*
X133515783Y-94425016D01*
X133418227Y-94439720D01*
X133160353Y-94519264D01*
X132917227Y-94636348D01*
X132694257Y-94788366D01*
X132496437Y-94971916D01*
X132328189Y-95182892D01*
X132328188Y-95182892D01*
X132193257Y-95416601D01*
X132193256Y-95416604D01*
X132094667Y-95667801D01*
X132094663Y-95667812D01*
X132034616Y-95930899D01*
X132014451Y-96200000D01*
X132033105Y-96448940D01*
X132021324Y-96545378D01*
X131973535Y-96629967D01*
X131944859Y-96658288D01*
X131895261Y-96699907D01*
X131671441Y-96937144D01*
X131671439Y-96937146D01*
X131476666Y-97198771D01*
X131313596Y-97481217D01*
X131313589Y-97481231D01*
X131184403Y-97780716D01*
X131184401Y-97780723D01*
X131090856Y-98093181D01*
X131034221Y-98414379D01*
X131034220Y-98414387D01*
X131029817Y-98490000D01*
X133166014Y-98490000D01*
X133261302Y-98508954D01*
X133342084Y-98562930D01*
X133396060Y-98643712D01*
X133415014Y-98739000D01*
X133415014Y-98741000D01*
X133396060Y-98836288D01*
X133342084Y-98917070D01*
X133261302Y-98971046D01*
X133166014Y-98990000D01*
X131008134Y-98990000D01*
X130994830Y-98999460D01*
X130900133Y-99021176D01*
X130804334Y-99005000D01*
X130722018Y-98953394D01*
X130716825Y-98948351D01*
X128073429Y-96304955D01*
X128019453Y-96224173D01*
X128000499Y-96128885D01*
X128000499Y-95341961D01*
X127989886Y-95222585D01*
X127989886Y-95222582D01*
X127933909Y-95026951D01*
X127839698Y-94846593D01*
X127711109Y-94688891D01*
X127553407Y-94560302D01*
X127553402Y-94560299D01*
X127373053Y-94466093D01*
X127373052Y-94466092D01*
X127373049Y-94466091D01*
X127177418Y-94410114D01*
X127153541Y-94407991D01*
X127058041Y-94399500D01*
X127058037Y-94399500D01*
X126081268Y-94399500D01*
X125999029Y-94385527D01*
X125981254Y-94379307D01*
X125889019Y-94344691D01*
X125878249Y-94341719D01*
X125878328Y-94341429D01*
X125872699Y-94339943D01*
X125872626Y-94340234D01*
X125861781Y-94337501D01*
X125764472Y-94322089D01*
X125667537Y-94304498D01*
X125656406Y-94303497D01*
X125656433Y-94303195D01*
X125650640Y-94302739D01*
X125650620Y-94303042D01*
X125639461Y-94302289D01*
X125540977Y-94304500D01*
X117101089Y-94304500D01*
X117005801Y-94285546D01*
X116925019Y-94231570D01*
X116908115Y-94212859D01*
X116811109Y-94093891D01*
X116653407Y-93965302D01*
X116653402Y-93965299D01*
X116473053Y-93871093D01*
X116473052Y-93871092D01*
X116473049Y-93871091D01*
X116277418Y-93815114D01*
X116253541Y-93812991D01*
X116158041Y-93804500D01*
X115803546Y-93804500D01*
X115708258Y-93785546D01*
X115627476Y-93731570D01*
X115573500Y-93650788D01*
X115554546Y-93555500D01*
X115572231Y-93463335D01*
X115640394Y-93292258D01*
X115734677Y-92952682D01*
X115734679Y-92952675D01*
X115791693Y-92604899D01*
X115810772Y-92252999D01*
X115791693Y-91901100D01*
X115734679Y-91553324D01*
X115734677Y-91553317D01*
X115640393Y-91213739D01*
X115640392Y-91213737D01*
X115509955Y-90886362D01*
X115344873Y-90574984D01*
X115344872Y-90574982D01*
X115147103Y-90283295D01*
X115024084Y-90138467D01*
X113441934Y-91720616D01*
X113361153Y-91774592D01*
X113265865Y-91793546D01*
X113170577Y-91774592D01*
X113105728Y-91735221D01*
X113104192Y-91733931D01*
X113043413Y-91658135D01*
X113016267Y-91564850D01*
X113026886Y-91468277D01*
X113073654Y-91383119D01*
X113088259Y-91367186D01*
X114673373Y-89782071D01*
X114663099Y-89772339D01*
X114382533Y-89559057D01*
X114080565Y-89377370D01*
X114080561Y-89377368D01*
X113760723Y-89229394D01*
X113426745Y-89116865D01*
X113426731Y-89116861D01*
X113082567Y-89041104D01*
X113082552Y-89041102D01*
X112732216Y-89003000D01*
X112379784Y-89003000D01*
X112029447Y-89041102D01*
X112029432Y-89041104D01*
X111685268Y-89116861D01*
X111685254Y-89116865D01*
X111351276Y-89229394D01*
X111031438Y-89377368D01*
X111031434Y-89377370D01*
X110729466Y-89559057D01*
X110448902Y-89772338D01*
X110438625Y-89782071D01*
X112026057Y-91369503D01*
X112080033Y-91450285D01*
X112098987Y-91545573D01*
X112080033Y-91640861D01*
X112031148Y-91716400D01*
X112029776Y-91717855D01*
X111950613Y-91774178D01*
X111855922Y-91795921D01*
X111760119Y-91779771D01*
X111677788Y-91728189D01*
X111672545Y-91723098D01*
X110087913Y-90138467D01*
X109964902Y-90283289D01*
X109964897Y-90283295D01*
X109767127Y-90574982D01*
X109767126Y-90574984D01*
X109602044Y-90886362D01*
X109471607Y-91213737D01*
X109471606Y-91213739D01*
X109377322Y-91553317D01*
X109377320Y-91553324D01*
X109320306Y-91901100D01*
X109304156Y-92198981D01*
X109280071Y-92293103D01*
X109221800Y-92370844D01*
X109138215Y-92420367D01*
X109055521Y-92434500D01*
X108932366Y-92434500D01*
X108869487Y-92439102D01*
X108729844Y-92449323D01*
X108729840Y-92449323D01*
X108729837Y-92449324D01*
X108465442Y-92508221D01*
X108212436Y-92604988D01*
X107976226Y-92737555D01*
X107761826Y-92903108D01*
X107573811Y-93098122D01*
X107416204Y-93318416D01*
X107416199Y-93318424D01*
X107292344Y-93559323D01*
X107292343Y-93559325D01*
X107204882Y-93815690D01*
X107155681Y-94082062D01*
X107155680Y-94082073D01*
X107145788Y-94352765D01*
X107145787Y-94352768D01*
X107175413Y-94622012D01*
X107175414Y-94622018D01*
X107243928Y-94884088D01*
X107331099Y-95089219D01*
X107349869Y-95133387D01*
X107349872Y-95133394D01*
X107490976Y-95364601D01*
X107490978Y-95364605D01*
X107490982Y-95364610D01*
X107490987Y-95364616D01*
X107490990Y-95364620D01*
X107618937Y-95518365D01*
X107664255Y-95572820D01*
X107770260Y-95667801D01*
X107865996Y-95753580D01*
X107865999Y-95753583D01*
X108091903Y-95903040D01*
X108091906Y-95903041D01*
X108091910Y-95903044D01*
X108337176Y-96018020D01*
X108596569Y-96096060D01*
X108864561Y-96135500D01*
X108864567Y-96135500D01*
X109067634Y-96135500D01*
X109092610Y-96133671D01*
X109270156Y-96120677D01*
X109534553Y-96061780D01*
X109787558Y-95965014D01*
X109848348Y-95930897D01*
X110023773Y-95832444D01*
X110238173Y-95666891D01*
X110238172Y-95666891D01*
X110238177Y-95666888D01*
X110426186Y-95471881D01*
X110583799Y-95251579D01*
X110616116Y-95188720D01*
X110676540Y-95112646D01*
X110761480Y-95065484D01*
X110858003Y-95054417D01*
X110951413Y-95081129D01*
X110965935Y-95089219D01*
X111031438Y-95128631D01*
X111351276Y-95276605D01*
X111685254Y-95389134D01*
X111685268Y-95389138D01*
X112029432Y-95464895D01*
X112029447Y-95464897D01*
X112379784Y-95503000D01*
X112732216Y-95503000D01*
X113082552Y-95464897D01*
X113082567Y-95464895D01*
X113296972Y-95417701D01*
X113394107Y-95415727D01*
X113484603Y-95451076D01*
X113554683Y-95518365D01*
X113593678Y-95607351D01*
X113599500Y-95660879D01*
X113599501Y-96363039D01*
X113610113Y-96482414D01*
X113610113Y-96482417D01*
X113610114Y-96482418D01*
X113643759Y-96600000D01*
X113666090Y-96678045D01*
X113666093Y-96678053D01*
X113760299Y-96858402D01*
X113760306Y-96858413D01*
X113817063Y-96928020D01*
X113862590Y-97013848D01*
X113871806Y-97110565D01*
X113843309Y-97203446D01*
X113839725Y-97209872D01*
X113768434Y-97333352D01*
X113768428Y-97333364D01*
X113672578Y-97577587D01*
X113614198Y-97833370D01*
X113614197Y-97833374D01*
X113594592Y-98094999D01*
X113614197Y-98356625D01*
X113614198Y-98356629D01*
X113672578Y-98612412D01*
X113768428Y-98856635D01*
X113768436Y-98856651D01*
X113899612Y-99083855D01*
X114000011Y-99209751D01*
X114044603Y-99296068D01*
X114052769Y-99392879D01*
X114023266Y-99485446D01*
X114000011Y-99520249D01*
X113899612Y-99646144D01*
X113768436Y-99873348D01*
X113768428Y-99873364D01*
X113672578Y-100117587D01*
X113614198Y-100373370D01*
X113614197Y-100373374D01*
X113594592Y-100635000D01*
X113614511Y-100900810D01*
X113602730Y-100997248D01*
X113592128Y-101016012D01*
X113589415Y-101060862D01*
X113630423Y-101101870D01*
X113684399Y-101182652D01*
X113686136Y-101186958D01*
X113687964Y-101191615D01*
X113705138Y-101287240D01*
X113684410Y-101382158D01*
X113628936Y-101461919D01*
X113547162Y-101514379D01*
X113451537Y-101531553D01*
X113356619Y-101510825D01*
X113280111Y-101458666D01*
X113235861Y-101414416D01*
X113082658Y-101609966D01*
X112910544Y-101894678D01*
X112774004Y-102198057D01*
X112675034Y-102515662D01*
X112675028Y-102515687D01*
X112615062Y-102842906D01*
X112594974Y-103174999D01*
X112615062Y-103507093D01*
X112675028Y-103834312D01*
X112675034Y-103834337D01*
X112774004Y-104151942D01*
X112776674Y-104158982D01*
X112774470Y-104159817D01*
X112793066Y-104240464D01*
X112777005Y-104336282D01*
X112725498Y-104418660D01*
X112646387Y-104475057D01*
X112551716Y-104496886D01*
X112544180Y-104497000D01*
X112379784Y-104497000D01*
X112029447Y-104535102D01*
X112029432Y-104535104D01*
X111685268Y-104610861D01*
X111685254Y-104610865D01*
X111351276Y-104723394D01*
X111031438Y-104871368D01*
X111031430Y-104871372D01*
X110966679Y-104910331D01*
X110875258Y-104943215D01*
X110778212Y-104938611D01*
X110690315Y-104897219D01*
X110625765Y-104826688D01*
X110509018Y-104635390D01*
X110479362Y-104599755D01*
X110335745Y-104427180D01*
X110252060Y-104352198D01*
X110134002Y-104246418D01*
X110134000Y-104246416D01*
X109908096Y-104096959D01*
X109891338Y-104089103D01*
X109662824Y-103981980D01*
X109403431Y-103903940D01*
X109403427Y-103903939D01*
X109403426Y-103903939D01*
X109341715Y-103894857D01*
X109135439Y-103864500D01*
X108932369Y-103864500D01*
X108932366Y-103864500D01*
X108869487Y-103869102D01*
X108729844Y-103879323D01*
X108729840Y-103879323D01*
X108729837Y-103879324D01*
X108465442Y-103938221D01*
X108212436Y-104034988D01*
X107976226Y-104167555D01*
X107761826Y-104333108D01*
X107573811Y-104528122D01*
X107416204Y-104748416D01*
X107416199Y-104748424D01*
X107292344Y-104989323D01*
X107292343Y-104989325D01*
X107204882Y-105245690D01*
X107155681Y-105512062D01*
X107155680Y-105512073D01*
X107145788Y-105782765D01*
X107145787Y-105782768D01*
X107175413Y-106052012D01*
X107175414Y-106052018D01*
X107243928Y-106314088D01*
X107348062Y-106559136D01*
X107349869Y-106563387D01*
X107349872Y-106563394D01*
X107490976Y-106794601D01*
X107490978Y-106794605D01*
X107490982Y-106794610D01*
X107490987Y-106794616D01*
X107490990Y-106794620D01*
X107664254Y-107002819D01*
X107664255Y-107002820D01*
X107790703Y-107116118D01*
X107865996Y-107183580D01*
X107865999Y-107183583D01*
X108091903Y-107333040D01*
X108091906Y-107333041D01*
X108091910Y-107333044D01*
X108337176Y-107448020D01*
X108596569Y-107526060D01*
X108864561Y-107565500D01*
X108864567Y-107565500D01*
X109055521Y-107565500D01*
X109150809Y-107584454D01*
X109231591Y-107638430D01*
X109285567Y-107719212D01*
X109304156Y-107801019D01*
X109320306Y-108098899D01*
X109377320Y-108446675D01*
X109377322Y-108446682D01*
X109471606Y-108786260D01*
X109471607Y-108786262D01*
X109602044Y-109113637D01*
X109767126Y-109425015D01*
X109767127Y-109425017D01*
X109964899Y-109716707D01*
X109964900Y-109716708D01*
X110087913Y-109861531D01*
X111670062Y-108279382D01*
X111750844Y-108225406D01*
X111846132Y-108206452D01*
X111941420Y-108225406D01*
X112006208Y-108264726D01*
X112007745Y-108266016D01*
X112068548Y-108341792D01*
X112095724Y-108435069D01*
X112085136Y-108531645D01*
X112038395Y-108616818D01*
X112023739Y-108632812D01*
X110438624Y-110217927D01*
X110448900Y-110227660D01*
X110729466Y-110440942D01*
X111031434Y-110622629D01*
X111031438Y-110622631D01*
X111351276Y-110770605D01*
X111685254Y-110883134D01*
X111685268Y-110883138D01*
X112029432Y-110958895D01*
X112029447Y-110958897D01*
X112379784Y-110997000D01*
X112732216Y-110997000D01*
X113082552Y-110958897D01*
X113082567Y-110958895D01*
X113426731Y-110883138D01*
X113426745Y-110883134D01*
X113760723Y-110770605D01*
X114080561Y-110622631D01*
X114080565Y-110622629D01*
X114382533Y-110440942D01*
X114663098Y-110227660D01*
X114663101Y-110227657D01*
X114673373Y-110217927D01*
X113085943Y-108630496D01*
X113031967Y-108549714D01*
X113013013Y-108454426D01*
X113031967Y-108359138D01*
X113080852Y-108283599D01*
X113082227Y-108282141D01*
X113161387Y-108225821D01*
X113256078Y-108204078D01*
X113351881Y-108220228D01*
X113434212Y-108271810D01*
X113439455Y-108276901D01*
X115024085Y-109861531D01*
X115147103Y-109716703D01*
X115344872Y-109425017D01*
X115344873Y-109425015D01*
X115509955Y-109113637D01*
X115640392Y-108786262D01*
X115640393Y-108786260D01*
X115734677Y-108446682D01*
X115734679Y-108446675D01*
X115791693Y-108098899D01*
X115810772Y-107747000D01*
X115791693Y-107395100D01*
X115734679Y-107047324D01*
X115734677Y-107047317D01*
X115654293Y-106757802D01*
X115653577Y-106748210D01*
X115646277Y-106728930D01*
X115640394Y-106707743D01*
X115640395Y-106707743D01*
X115577217Y-106549179D01*
X115559555Y-106453642D01*
X115579797Y-106358620D01*
X115634863Y-106278577D01*
X115716367Y-106225699D01*
X115764675Y-106216768D01*
X117264922Y-104716523D01*
X117345704Y-104662547D01*
X117440992Y-104643593D01*
X117536280Y-104662547D01*
X117593889Y-104696064D01*
X117595479Y-104697301D01*
X117659049Y-104770772D01*
X117689663Y-104862978D01*
X117682662Y-104959880D01*
X117639111Y-105046727D01*
X117618652Y-105069899D01*
X116129416Y-106559136D01*
X116324965Y-106712340D01*
X116609678Y-106884455D01*
X116913058Y-107020995D01*
X116913057Y-107020995D01*
X117230662Y-107119965D01*
X117230687Y-107119971D01*
X117557906Y-107179937D01*
X117890000Y-107200025D01*
X118222093Y-107179937D01*
X118549312Y-107119971D01*
X118549337Y-107119965D01*
X118866942Y-107020995D01*
X119170321Y-106884455D01*
X119455036Y-106712339D01*
X119455039Y-106712337D01*
X119650583Y-106559137D01*
X119650583Y-106559136D01*
X118158403Y-105066955D01*
X118104427Y-104986174D01*
X118085473Y-104890886D01*
X118104427Y-104795598D01*
X118151209Y-104722317D01*
X118152570Y-104720839D01*
X118231025Y-104663544D01*
X118325439Y-104640631D01*
X118421435Y-104655593D01*
X118504398Y-104706152D01*
X118511896Y-104713344D01*
X120004136Y-106205582D01*
X120014410Y-106192470D01*
X120088097Y-106129150D01*
X120180405Y-106098848D01*
X120277283Y-106106179D01*
X120363982Y-106150024D01*
X120386489Y-106169963D01*
X137046162Y-122829636D01*
X137055470Y-122840052D01*
X137077492Y-122867666D01*
X137077499Y-122867672D01*
X137127363Y-122911237D01*
X137133480Y-122916955D01*
X137140470Y-122923944D01*
X137140471Y-122923945D01*
X137172819Y-122950951D01*
X137179607Y-122956882D01*
X137247004Y-123015765D01*
X137247008Y-123015767D01*
X137256046Y-123022334D01*
X137255867Y-123022579D01*
X137260615Y-123025947D01*
X137260788Y-123025699D01*
X137269979Y-123032066D01*
X137269982Y-123032069D01*
X137355673Y-123080691D01*
X137440236Y-123131215D01*
X137440245Y-123131218D01*
X137450317Y-123136069D01*
X137450184Y-123136344D01*
X137455444Y-123138805D01*
X137455571Y-123138527D01*
X137465745Y-123143148D01*
X137465756Y-123143154D01*
X137558755Y-123175695D01*
X137650976Y-123210307D01*
X137650988Y-123210309D01*
X137661758Y-123213282D01*
X137661676Y-123213577D01*
X137667297Y-123215060D01*
X137667372Y-123214765D01*
X137678214Y-123217497D01*
X137678216Y-123217497D01*
X137678218Y-123217498D01*
X137775539Y-123232912D01*
X137872453Y-123250500D01*
X137872457Y-123250500D01*
X137883592Y-123251503D01*
X137883564Y-123251804D01*
X137889357Y-123252260D01*
X137889378Y-123251959D01*
X137900537Y-123252711D01*
X137900540Y-123252710D01*
X137900541Y-123252711D01*
X137999048Y-123250500D01*
X140387453Y-123250500D01*
X160698911Y-123250500D01*
X160794199Y-123269454D01*
X160874981Y-123323430D01*
X160891884Y-123342140D01*
X160988891Y-123461109D01*
X161146593Y-123589698D01*
X161326951Y-123683909D01*
X161522582Y-123739886D01*
X161641963Y-123750500D01*
X162758036Y-123750499D01*
X162758040Y-123750499D01*
X162827943Y-123744284D01*
X162872051Y-123744284D01*
X162888712Y-123745765D01*
X162941963Y-123750500D01*
X164058036Y-123750499D01*
X164058039Y-123750499D01*
X164109199Y-123745950D01*
X164177418Y-123739886D01*
X164373049Y-123683909D01*
X164553407Y-123589698D01*
X164711109Y-123461109D01*
X164839698Y-123303407D01*
X164933909Y-123123049D01*
X164989886Y-122927418D01*
X165000500Y-122808037D01*
X165000499Y-122371113D01*
X165019453Y-122275825D01*
X165073429Y-122195044D01*
X165073430Y-122195043D01*
X166945045Y-120323430D01*
X167025826Y-120269454D01*
X167121114Y-120250500D01*
X173079580Y-120250500D01*
X173174868Y-120269454D01*
X173255650Y-120323430D01*
X173309626Y-120404212D01*
X173328580Y-120499500D01*
X173312881Y-120586516D01*
X173276112Y-120685097D01*
X173276108Y-120685108D01*
X173215301Y-120964635D01*
X173200000Y-121178561D01*
X173200000Y-121749999D01*
X173200001Y-121750000D01*
X175250500Y-121750000D01*
X175345788Y-121768954D01*
X175426570Y-121822930D01*
X175480546Y-121903712D01*
X175499500Y-121998876D01*
X175499501Y-122000876D01*
X175480595Y-122096173D01*
X175426659Y-122176982D01*
X175345904Y-122230998D01*
X175250625Y-122250000D01*
X173200000Y-122250000D01*
X173200000Y-122821439D01*
X173215301Y-123035364D01*
X173276108Y-123314891D01*
X173276112Y-123314902D01*
X173376089Y-123582952D01*
X173513192Y-123834039D01*
X173513193Y-123834042D01*
X173684635Y-124063061D01*
X173886938Y-124265364D01*
X174115957Y-124436806D01*
X174115960Y-124436807D01*
X174290216Y-124531958D01*
X174364765Y-124594260D01*
X174409798Y-124680348D01*
X174418457Y-124777116D01*
X174389426Y-124869832D01*
X174327124Y-124944381D01*
X174241036Y-124989414D01*
X174170884Y-124999500D01*
X101249500Y-124999500D01*
X101154212Y-124980546D01*
X101073430Y-124926570D01*
X101019454Y-124845788D01*
X101000500Y-124750500D01*
X101000500Y-121067768D01*
X103145787Y-121067768D01*
X103172441Y-121310000D01*
X103175414Y-121337018D01*
X103243928Y-121599088D01*
X103316113Y-121768954D01*
X103349869Y-121848387D01*
X103349872Y-121848394D01*
X103490976Y-122079601D01*
X103490978Y-122079605D01*
X103490982Y-122079610D01*
X103490987Y-122079616D01*
X103490990Y-122079620D01*
X103632781Y-122250000D01*
X103664255Y-122287820D01*
X103769241Y-122381888D01*
X103865996Y-122468580D01*
X103865999Y-122468583D01*
X104091903Y-122618040D01*
X104091906Y-122618041D01*
X104091910Y-122618044D01*
X104337176Y-122733020D01*
X104596569Y-122811060D01*
X104864561Y-122850500D01*
X104864567Y-122850500D01*
X105067634Y-122850500D01*
X105092610Y-122848671D01*
X105270156Y-122835677D01*
X105534553Y-122776780D01*
X105787558Y-122680014D01*
X105835817Y-122652929D01*
X106023773Y-122547444D01*
X106238173Y-122381891D01*
X106238172Y-122381891D01*
X106238177Y-122381888D01*
X106426186Y-122186881D01*
X106583799Y-121966579D01*
X106707656Y-121725675D01*
X106795118Y-121469305D01*
X106844319Y-121202933D01*
X106854212Y-120932235D01*
X106824586Y-120662982D01*
X106756072Y-120400912D01*
X106650130Y-120151610D01*
X106509018Y-119920390D01*
X106335745Y-119712180D01*
X106134002Y-119531418D01*
X106134000Y-119531416D01*
X105908096Y-119381959D01*
X105775900Y-119319988D01*
X105662824Y-119266980D01*
X105403431Y-119188940D01*
X105403427Y-119188939D01*
X105403426Y-119188939D01*
X105341715Y-119179857D01*
X105135439Y-119149500D01*
X104932369Y-119149500D01*
X104932366Y-119149500D01*
X104869487Y-119154102D01*
X104729844Y-119164323D01*
X104729840Y-119164323D01*
X104729837Y-119164324D01*
X104465442Y-119223221D01*
X104212436Y-119319988D01*
X103976226Y-119452555D01*
X103761826Y-119618108D01*
X103573811Y-119813122D01*
X103416204Y-120033416D01*
X103416199Y-120033424D01*
X103292344Y-120274323D01*
X103292343Y-120274325D01*
X103204882Y-120530690D01*
X103155681Y-120797062D01*
X103155680Y-120797073D01*
X103145788Y-121067765D01*
X103145787Y-121067768D01*
X101000500Y-121067768D01*
X101000500Y-118499999D01*
X108685238Y-118499999D01*
X108704270Y-118826775D01*
X108704271Y-118826783D01*
X108761109Y-119149126D01*
X108854988Y-119462700D01*
X108984638Y-119763264D01*
X108984645Y-119763278D01*
X109148296Y-120046731D01*
X109340943Y-120305500D01*
X110825907Y-118820538D01*
X110906689Y-118766562D01*
X111001977Y-118747608D01*
X111097265Y-118766562D01*
X111178047Y-118820538D01*
X111196631Y-118841331D01*
X111197885Y-118842903D01*
X111242489Y-118929213D01*
X111250669Y-119026023D01*
X111221179Y-119118594D01*
X111179301Y-119174249D01*
X109697681Y-120655869D01*
X109697681Y-120655870D01*
X109819136Y-120757781D01*
X110092629Y-120937661D01*
X110385118Y-121084555D01*
X110385130Y-121084560D01*
X110692713Y-121196510D01*
X111011215Y-121271997D01*
X111011230Y-121272000D01*
X111336337Y-121310000D01*
X111663663Y-121310000D01*
X111988769Y-121272000D01*
X111988784Y-121271997D01*
X112307286Y-121196510D01*
X112614869Y-121084560D01*
X112614881Y-121084555D01*
X112907370Y-120937661D01*
X113180859Y-120757785D01*
X113302316Y-120655869D01*
X111817810Y-119171363D01*
X111763834Y-119090581D01*
X111744880Y-118995293D01*
X111763834Y-118900005D01*
X111817810Y-118819223D01*
X111824519Y-118812762D01*
X111826000Y-118811387D01*
X111908747Y-118760477D01*
X112004679Y-118745108D01*
X112099190Y-118767620D01*
X112171416Y-118817863D01*
X113659054Y-120305501D01*
X113659055Y-120305501D01*
X113851702Y-120046732D01*
X114015354Y-119763278D01*
X114015361Y-119763264D01*
X114145011Y-119462700D01*
X114238890Y-119149126D01*
X114295728Y-118826783D01*
X114295729Y-118826775D01*
X114314761Y-118499999D01*
X114295729Y-118173224D01*
X114295728Y-118173216D01*
X114238890Y-117850873D01*
X114145011Y-117537299D01*
X114015361Y-117236735D01*
X114015354Y-117236721D01*
X113851705Y-116953273D01*
X113659054Y-116694497D01*
X112174091Y-118179460D01*
X112093309Y-118233436D01*
X111998021Y-118252390D01*
X111902733Y-118233436D01*
X111821951Y-118179460D01*
X111803367Y-118158667D01*
X111802113Y-118157095D01*
X111757509Y-118070785D01*
X111749329Y-117973975D01*
X111778819Y-117881404D01*
X111820697Y-117825748D01*
X113302316Y-116344128D01*
X113180858Y-116242214D01*
X112907370Y-116062338D01*
X112783245Y-116000000D01*
X114684423Y-116000000D01*
X114685604Y-116015760D01*
X114704700Y-116270593D01*
X114704701Y-116270597D01*
X114765082Y-116535145D01*
X114765083Y-116535148D01*
X114864220Y-116787745D01*
X114864226Y-116787757D01*
X114999897Y-117022746D01*
X114999904Y-117022756D01*
X115169087Y-117234905D01*
X115169092Y-117234910D01*
X115368008Y-117419477D01*
X115592208Y-117572334D01*
X115592210Y-117572335D01*
X115592212Y-117572336D01*
X115730299Y-117638835D01*
X115836688Y-117690070D01*
X115836692Y-117690071D01*
X115836695Y-117690073D01*
X115967905Y-117730546D01*
X116095989Y-117770055D01*
X116095990Y-117770055D01*
X116095996Y-117770057D01*
X116327408Y-117804936D01*
X116364321Y-117810500D01*
X116364322Y-117810500D01*
X116635679Y-117810500D01*
X116668127Y-117805609D01*
X116904004Y-117770057D01*
X117163305Y-117690073D01*
X117163309Y-117690070D01*
X117163312Y-117690070D01*
X117231297Y-117657329D01*
X117407789Y-117572336D01*
X117420022Y-117563996D01*
X117631991Y-117419477D01*
X117631990Y-117419477D01*
X117631994Y-117419475D01*
X117830912Y-117234906D01*
X118000100Y-117022751D01*
X118135778Y-116787749D01*
X118234916Y-116535151D01*
X118295299Y-116270598D01*
X118315577Y-116000000D01*
X118295299Y-115729402D01*
X118234916Y-115464849D01*
X118135778Y-115212251D01*
X118000100Y-114977249D01*
X117830912Y-114765094D01*
X117814643Y-114749999D01*
X117631991Y-114580522D01*
X117407792Y-114427665D01*
X117407787Y-114427663D01*
X117163312Y-114309929D01*
X117163306Y-114309927D01*
X116904010Y-114229944D01*
X116904004Y-114229943D01*
X116799828Y-114214241D01*
X116635679Y-114189500D01*
X116635678Y-114189500D01*
X116364322Y-114189500D01*
X116364321Y-114189500D01*
X116095989Y-114229944D01*
X115836693Y-114309927D01*
X115836688Y-114309929D01*
X115592213Y-114427663D01*
X115592208Y-114427665D01*
X115368008Y-114580522D01*
X115169092Y-114765089D01*
X115169087Y-114765094D01*
X114999904Y-114977243D01*
X114999897Y-114977253D01*
X114864226Y-115212242D01*
X114864220Y-115212254D01*
X114765083Y-115464851D01*
X114765082Y-115464854D01*
X114704701Y-115729402D01*
X114704700Y-115729406D01*
X114687796Y-115954987D01*
X114684423Y-116000000D01*
X112783245Y-116000000D01*
X112614881Y-115915444D01*
X112614869Y-115915439D01*
X112307286Y-115803489D01*
X111990718Y-115728460D01*
X111902369Y-115688042D01*
X111836214Y-115616891D01*
X111802322Y-115525839D01*
X111805854Y-115428748D01*
X111846272Y-115340399D01*
X111917423Y-115274244D01*
X111974739Y-115248238D01*
X112163305Y-115190073D01*
X112407789Y-115072336D01*
X112631994Y-114919475D01*
X112830912Y-114734906D01*
X113000100Y-114522751D01*
X113135778Y-114287749D01*
X113234916Y-114035151D01*
X113295299Y-113770598D01*
X113315577Y-113500000D01*
X113295299Y-113229402D01*
X113234916Y-112964849D01*
X113135778Y-112712251D01*
X113000100Y-112477249D01*
X112830912Y-112265094D01*
X112824109Y-112258782D01*
X112631991Y-112080522D01*
X112407792Y-111927665D01*
X112407787Y-111927663D01*
X112163312Y-111809929D01*
X112163306Y-111809927D01*
X111904010Y-111729944D01*
X111904004Y-111729943D01*
X111799828Y-111714241D01*
X111635679Y-111689500D01*
X111635678Y-111689500D01*
X111364322Y-111689500D01*
X111364321Y-111689500D01*
X111095989Y-111729944D01*
X110836693Y-111809927D01*
X110836688Y-111809929D01*
X110592213Y-111927663D01*
X110592208Y-111927665D01*
X110368008Y-112080522D01*
X110169092Y-112265089D01*
X110169087Y-112265094D01*
X109999904Y-112477243D01*
X109999897Y-112477253D01*
X109864226Y-112712242D01*
X109864220Y-112712254D01*
X109765083Y-112964851D01*
X109765082Y-112964854D01*
X109704701Y-113229402D01*
X109704700Y-113229406D01*
X109684423Y-113500000D01*
X109704700Y-113770593D01*
X109704701Y-113770597D01*
X109765082Y-114035145D01*
X109765083Y-114035148D01*
X109864220Y-114287745D01*
X109864226Y-114287757D01*
X109999897Y-114522746D01*
X109999904Y-114522756D01*
X110169087Y-114734905D01*
X110169092Y-114734910D01*
X110368008Y-114919477D01*
X110592208Y-115072334D01*
X110592210Y-115072335D01*
X110592212Y-115072336D01*
X110641949Y-115096288D01*
X110836686Y-115190069D01*
X110836687Y-115190069D01*
X110836695Y-115190073D01*
X111025255Y-115248236D01*
X111110719Y-115294433D01*
X111172002Y-115369822D01*
X111199769Y-115462924D01*
X111189795Y-115559566D01*
X111143596Y-115645034D01*
X111068207Y-115706317D01*
X111009281Y-115728460D01*
X110692713Y-115803489D01*
X110385130Y-115915439D01*
X110385118Y-115915444D01*
X110092629Y-116062338D01*
X109819136Y-116242217D01*
X109819134Y-116242219D01*
X109697681Y-116344128D01*
X111182189Y-117828636D01*
X111236165Y-117909418D01*
X111255119Y-118004706D01*
X111236165Y-118099994D01*
X111182189Y-118180776D01*
X111175465Y-118187251D01*
X111173999Y-118188611D01*
X111091252Y-118239522D01*
X110995320Y-118254891D01*
X110900809Y-118232379D01*
X110828583Y-118182136D01*
X109340943Y-116694497D01*
X109148304Y-116953258D01*
X109148294Y-116953272D01*
X108984645Y-117236721D01*
X108984638Y-117236735D01*
X108854988Y-117537299D01*
X108761109Y-117850873D01*
X108704271Y-118173216D01*
X108704270Y-118173224D01*
X108685238Y-118499999D01*
X101000500Y-118499999D01*
X101000500Y-81000000D01*
X111495197Y-81000000D01*
X111514396Y-81366350D01*
X111571784Y-81728685D01*
X111666734Y-82083042D01*
X111798204Y-82425536D01*
X111798205Y-82425538D01*
X111964752Y-82752403D01*
X112164551Y-83060067D01*
X112353296Y-83293146D01*
X114114062Y-81532382D01*
X114194844Y-81478406D01*
X114290132Y-81459452D01*
X114385420Y-81478406D01*
X114450147Y-81517674D01*
X114450755Y-81518184D01*
X114450756Y-81518185D01*
X114451686Y-81518965D01*
X114512512Y-81594721D01*
X114539718Y-81687990D01*
X114529161Y-81784569D01*
X114482448Y-81869757D01*
X114467740Y-81885811D01*
X112706851Y-83646701D01*
X112706851Y-83646702D01*
X112939932Y-83835448D01*
X113247596Y-84035247D01*
X113574461Y-84201794D01*
X113574463Y-84201795D01*
X113916957Y-84333265D01*
X114271314Y-84428215D01*
X114633650Y-84485603D01*
X114633649Y-84485603D01*
X114999999Y-84504802D01*
X115366350Y-84485603D01*
X115728685Y-84428215D01*
X116083042Y-84333265D01*
X116425536Y-84201795D01*
X116425538Y-84201794D01*
X116752403Y-84035247D01*
X117060067Y-83835448D01*
X117293147Y-83646702D01*
X117293147Y-83646701D01*
X115529943Y-81883496D01*
X115475967Y-81802714D01*
X115457013Y-81707426D01*
X115475967Y-81612138D01*
X115524852Y-81536599D01*
X115526227Y-81535141D01*
X115605387Y-81478821D01*
X115700078Y-81457078D01*
X115795881Y-81473228D01*
X115878212Y-81524810D01*
X115883455Y-81529901D01*
X117646701Y-83293147D01*
X117646702Y-83293147D01*
X117835448Y-83060067D01*
X118035247Y-82752403D01*
X118201794Y-82425538D01*
X118201795Y-82425536D01*
X118333265Y-82083042D01*
X118428215Y-81728685D01*
X118485603Y-81366350D01*
X118504802Y-81000000D01*
X124494556Y-81000000D01*
X124514312Y-81314017D01*
X124514314Y-81314033D01*
X124573267Y-81623070D01*
X124573270Y-81623083D01*
X124670495Y-81922311D01*
X124670497Y-81922315D01*
X124804463Y-82207007D01*
X124973053Y-82472663D01*
X125173610Y-82715094D01*
X125402970Y-82930478D01*
X125402973Y-82930480D01*
X125402975Y-82930482D01*
X125657503Y-83115407D01*
X125657507Y-83115410D01*
X125657516Y-83115416D01*
X125933234Y-83266994D01*
X126225775Y-83382819D01*
X126530527Y-83461066D01*
X126842682Y-83500500D01*
X126842687Y-83500500D01*
X127157313Y-83500500D01*
X127157318Y-83500500D01*
X127469473Y-83461066D01*
X127774225Y-83382819D01*
X128066766Y-83266994D01*
X128342484Y-83115416D01*
X128597030Y-82930478D01*
X128826390Y-82715094D01*
X129026947Y-82472663D01*
X129195537Y-82207007D01*
X129329503Y-81922315D01*
X129426731Y-81623079D01*
X129465029Y-81422315D01*
X129485685Y-81314033D01*
X129485685Y-81314026D01*
X129485688Y-81314015D01*
X129505444Y-81000000D01*
X129505444Y-80999999D01*
X135494556Y-80999999D01*
X135514312Y-81314017D01*
X135514314Y-81314033D01*
X135573267Y-81623070D01*
X135573270Y-81623083D01*
X135670495Y-81922311D01*
X135670497Y-81922315D01*
X135804463Y-82207007D01*
X135973053Y-82472663D01*
X136173610Y-82715094D01*
X136402970Y-82930478D01*
X136402973Y-82930480D01*
X136402975Y-82930482D01*
X136657503Y-83115407D01*
X136657507Y-83115410D01*
X136657516Y-83115416D01*
X136933234Y-83266994D01*
X137225775Y-83382819D01*
X137530527Y-83461066D01*
X137842682Y-83500500D01*
X137842687Y-83500500D01*
X138157313Y-83500500D01*
X138157318Y-83500500D01*
X138469473Y-83461066D01*
X138774225Y-83382819D01*
X139066766Y-83266994D01*
X139342484Y-83115416D01*
X139597030Y-82930478D01*
X139826390Y-82715094D01*
X140026947Y-82472663D01*
X140195537Y-82207007D01*
X140329503Y-81922315D01*
X140426731Y-81623079D01*
X140465029Y-81422315D01*
X140485685Y-81314033D01*
X140485685Y-81314026D01*
X140485688Y-81314015D01*
X140505444Y-81000000D01*
X140485688Y-80685985D01*
X140485686Y-80685975D01*
X140485685Y-80685966D01*
X140453688Y-80518237D01*
X140426731Y-80376921D01*
X140329503Y-80077685D01*
X140195537Y-79792993D01*
X140026947Y-79527337D01*
X139826390Y-79284906D01*
X139597030Y-79069522D01*
X139597027Y-79069519D01*
X139597024Y-79069517D01*
X139342496Y-78884592D01*
X139342485Y-78884585D01*
X139342486Y-78884585D01*
X139342484Y-78884584D01*
X139183283Y-78797062D01*
X139066769Y-78733007D01*
X139000703Y-78706850D01*
X138774225Y-78617181D01*
X138774218Y-78617179D01*
X138774215Y-78617178D01*
X138583002Y-78568083D01*
X138469473Y-78538934D01*
X138157318Y-78499500D01*
X137842682Y-78499500D01*
X137530527Y-78538934D01*
X137225784Y-78617178D01*
X137225778Y-78617180D01*
X137225775Y-78617181D01*
X137110095Y-78662982D01*
X136933230Y-78733007D01*
X136657514Y-78884585D01*
X136657503Y-78884592D01*
X136402975Y-79069517D01*
X136173609Y-79284907D01*
X135973051Y-79527339D01*
X135804466Y-79792987D01*
X135670495Y-80077688D01*
X135573270Y-80376916D01*
X135573267Y-80376929D01*
X135514314Y-80685966D01*
X135514312Y-80685982D01*
X135494556Y-80999999D01*
X129505444Y-80999999D01*
X129485688Y-80685985D01*
X129485686Y-80685975D01*
X129485685Y-80685966D01*
X129453688Y-80518237D01*
X129426731Y-80376921D01*
X129329503Y-80077685D01*
X129195537Y-79792993D01*
X129026947Y-79527337D01*
X128826390Y-79284906D01*
X128597030Y-79069522D01*
X128597027Y-79069519D01*
X128597024Y-79069517D01*
X128342496Y-78884592D01*
X128342485Y-78884585D01*
X128342486Y-78884585D01*
X128342484Y-78884584D01*
X128183283Y-78797062D01*
X128066769Y-78733007D01*
X128000703Y-78706850D01*
X127774225Y-78617181D01*
X127774218Y-78617179D01*
X127774215Y-78617178D01*
X127583002Y-78568083D01*
X127469473Y-78538934D01*
X127157318Y-78499500D01*
X126842682Y-78499500D01*
X126530527Y-78538934D01*
X126225784Y-78617178D01*
X126225778Y-78617180D01*
X126225775Y-78617181D01*
X126110095Y-78662982D01*
X125933230Y-78733007D01*
X125657514Y-78884585D01*
X125657503Y-78884592D01*
X125402975Y-79069517D01*
X125173609Y-79284907D01*
X124973051Y-79527339D01*
X124804466Y-79792987D01*
X124670495Y-80077688D01*
X124573270Y-80376916D01*
X124573267Y-80376929D01*
X124514314Y-80685966D01*
X124514312Y-80685982D01*
X124494556Y-81000000D01*
X118504802Y-81000000D01*
X118504802Y-80999999D01*
X118485603Y-80633649D01*
X118428215Y-80271314D01*
X118333265Y-79916957D01*
X118201795Y-79574463D01*
X118201794Y-79574461D01*
X118035249Y-79247601D01*
X117835449Y-78939934D01*
X117835441Y-78939923D01*
X117646702Y-78706851D01*
X117646701Y-78706851D01*
X115885935Y-80467616D01*
X115805154Y-80521592D01*
X115709866Y-80540546D01*
X115614578Y-80521592D01*
X115549851Y-80482324D01*
X115548313Y-80481034D01*
X115487486Y-80405277D01*
X115460280Y-80312008D01*
X115470837Y-80215429D01*
X115517550Y-80130241D01*
X115532258Y-80114186D01*
X117293147Y-78353296D01*
X117060067Y-78164551D01*
X116752403Y-77964752D01*
X116425538Y-77798205D01*
X116425536Y-77798204D01*
X116083042Y-77666734D01*
X115728685Y-77571784D01*
X115366349Y-77514396D01*
X115366350Y-77514396D01*
X114999999Y-77495197D01*
X114633649Y-77514396D01*
X114271314Y-77571784D01*
X113916957Y-77666734D01*
X113574463Y-77798204D01*
X113574461Y-77798205D01*
X113247601Y-77964750D01*
X112939928Y-78164554D01*
X112706851Y-78353296D01*
X114470057Y-80116503D01*
X114524033Y-80197285D01*
X114542987Y-80292573D01*
X114524033Y-80387861D01*
X114475148Y-80463400D01*
X114473776Y-80464855D01*
X114394613Y-80521178D01*
X114299922Y-80542921D01*
X114204119Y-80526771D01*
X114121788Y-80475189D01*
X114116546Y-80470098D01*
X112353297Y-78706850D01*
X112353296Y-78706851D01*
X112164554Y-78939928D01*
X111964750Y-79247601D01*
X111798205Y-79574461D01*
X111798204Y-79574463D01*
X111666734Y-79916957D01*
X111571784Y-80271314D01*
X111514396Y-80633649D01*
X111495197Y-81000000D01*
X101000500Y-81000000D01*
X101000500Y-79067768D01*
X103145787Y-79067768D01*
X103175413Y-79337012D01*
X103175414Y-79337018D01*
X103237490Y-79574461D01*
X103243928Y-79599088D01*
X103349869Y-79848387D01*
X103349872Y-79848394D01*
X103490976Y-80079601D01*
X103490978Y-80079605D01*
X103490982Y-80079610D01*
X103490987Y-80079616D01*
X103490990Y-80079620D01*
X103664254Y-80287819D01*
X103664255Y-80287820D01*
X103861838Y-80464855D01*
X103865996Y-80468580D01*
X103865999Y-80468583D01*
X104091903Y-80618040D01*
X104091906Y-80618041D01*
X104091910Y-80618044D01*
X104337176Y-80733020D01*
X104596569Y-80811060D01*
X104864561Y-80850500D01*
X104864567Y-80850500D01*
X105067634Y-80850500D01*
X105092610Y-80848671D01*
X105270156Y-80835677D01*
X105534553Y-80776780D01*
X105787558Y-80680014D01*
X105835817Y-80652929D01*
X106023773Y-80547444D01*
X106132615Y-80463400D01*
X106238177Y-80381888D01*
X106426186Y-80186881D01*
X106583799Y-79966579D01*
X106707656Y-79725675D01*
X106759243Y-79574463D01*
X106795117Y-79469309D01*
X106819554Y-79337012D01*
X106844319Y-79202933D01*
X106854212Y-78932235D01*
X106824586Y-78662982D01*
X106756072Y-78400912D01*
X106650130Y-78151610D01*
X106509018Y-77920390D01*
X106407334Y-77798204D01*
X106335745Y-77712180D01*
X106285024Y-77666734D01*
X106134002Y-77531418D01*
X106134000Y-77531416D01*
X105908096Y-77381959D01*
X105775900Y-77319988D01*
X105662824Y-77266980D01*
X105403431Y-77188940D01*
X105403427Y-77188939D01*
X105403426Y-77188939D01*
X105341715Y-77179857D01*
X105135439Y-77149500D01*
X104932369Y-77149500D01*
X104932366Y-77149500D01*
X104869487Y-77154102D01*
X104729844Y-77164323D01*
X104729840Y-77164323D01*
X104729837Y-77164324D01*
X104465442Y-77223221D01*
X104212436Y-77319988D01*
X103976226Y-77452555D01*
X103761826Y-77618108D01*
X103573811Y-77813122D01*
X103416204Y-78033416D01*
X103416199Y-78033424D01*
X103292344Y-78274323D01*
X103292343Y-78274325D01*
X103204882Y-78530690D01*
X103155681Y-78797062D01*
X103155680Y-78797073D01*
X103145788Y-79067765D01*
X103145787Y-79067768D01*
X101000500Y-79067768D01*
X101000500Y-75249500D01*
X101019454Y-75154212D01*
X101073430Y-75073430D01*
X101154212Y-75019454D01*
X101249500Y-75000500D01*
X200750500Y-75000500D01*
X200845788Y-75019454D01*
G37*
G04 #@! TD.AperFunction*
G04 #@! TA.AperFunction,Conductor*
G36*
X122489174Y-101904454D02*
G01*
X122569956Y-101958430D01*
X124326117Y-103714591D01*
X124380093Y-103795373D01*
X124398351Y-103872053D01*
X124414616Y-104089100D01*
X124474663Y-104352187D01*
X124474666Y-104352195D01*
X124573257Y-104603398D01*
X124698615Y-104820527D01*
X124708188Y-104837107D01*
X124829579Y-104989325D01*
X124876439Y-105048085D01*
X125074259Y-105231635D01*
X125297226Y-105383651D01*
X125540359Y-105500738D01*
X125798228Y-105580280D01*
X126065071Y-105620500D01*
X126128886Y-105620500D01*
X126224174Y-105639454D01*
X126304956Y-105693430D01*
X136667675Y-116056149D01*
X136721651Y-116136931D01*
X136740605Y-116232219D01*
X136721651Y-116327507D01*
X136699217Y-116369689D01*
X136590839Y-116533363D01*
X136590827Y-116533385D01*
X136459480Y-116804472D01*
X136365436Y-117090652D01*
X136310375Y-117386811D01*
X136310373Y-117386827D01*
X136300000Y-117563994D01*
X136300000Y-117749999D01*
X136300001Y-117750000D01*
X141699998Y-117750000D01*
X141699999Y-117749999D01*
X141699999Y-117563997D01*
X141697075Y-117514055D01*
X141710426Y-117417822D01*
X141759589Y-117334023D01*
X141837077Y-117275417D01*
X141931094Y-117250926D01*
X141945649Y-117250500D01*
X142054350Y-117250500D01*
X142149638Y-117269454D01*
X142230420Y-117323430D01*
X142284396Y-117404212D01*
X142303350Y-117499500D01*
X142302924Y-117514055D01*
X142300000Y-117563995D01*
X142300000Y-117749999D01*
X142300001Y-117750000D01*
X145001000Y-117750000D01*
X145096288Y-117768954D01*
X145177070Y-117822930D01*
X145231046Y-117903712D01*
X145250000Y-117999000D01*
X145250000Y-118001000D01*
X145231046Y-118096288D01*
X145177070Y-118177070D01*
X145096288Y-118231046D01*
X145001000Y-118250000D01*
X142300002Y-118250000D01*
X142300001Y-118250001D01*
X142300001Y-118436004D01*
X142310373Y-118613175D01*
X142310374Y-118613185D01*
X142365436Y-118909347D01*
X142459480Y-119195527D01*
X142590827Y-119466614D01*
X142590835Y-119466628D01*
X142757144Y-119717792D01*
X142955443Y-119944544D01*
X142955455Y-119944556D01*
X143182207Y-120142855D01*
X143408790Y-120292888D01*
X143477775Y-120361299D01*
X143515329Y-120450903D01*
X143515735Y-120548057D01*
X143478931Y-120637971D01*
X143410520Y-120706956D01*
X143320916Y-120744510D01*
X143271319Y-120749500D01*
X140728681Y-120749500D01*
X140633393Y-120730546D01*
X140552611Y-120676570D01*
X140498635Y-120595788D01*
X140479681Y-120500500D01*
X140498635Y-120405212D01*
X140552611Y-120324430D01*
X140591210Y-120292888D01*
X140817792Y-120142855D01*
X141044544Y-119944556D01*
X141044556Y-119944544D01*
X141242855Y-119717792D01*
X141409164Y-119466628D01*
X141409172Y-119466614D01*
X141540519Y-119195527D01*
X141634563Y-118909347D01*
X141689624Y-118613188D01*
X141689626Y-118613172D01*
X141700000Y-118436006D01*
X141700000Y-118250001D01*
X141699999Y-118250000D01*
X136286193Y-118250000D01*
X136247026Y-118276170D01*
X136151738Y-118295124D01*
X136056450Y-118276170D01*
X135975668Y-118222194D01*
X120064044Y-102310570D01*
X120010068Y-102229788D01*
X119991114Y-102134500D01*
X120010068Y-102039212D01*
X120064044Y-101958430D01*
X120144826Y-101904454D01*
X120240114Y-101885500D01*
X122393886Y-101885500D01*
X122489174Y-101904454D01*
G37*
G04 #@! TD.AperFunction*
G04 #@! TA.AperFunction,Conductor*
G36*
X127913385Y-99725798D02*
G01*
X127999702Y-99770391D01*
X128020522Y-99788996D01*
X130341162Y-102109636D01*
X130350470Y-102120052D01*
X130365792Y-102139265D01*
X130372492Y-102147666D01*
X130415623Y-102185349D01*
X130422363Y-102191237D01*
X130428480Y-102196955D01*
X130435465Y-102203939D01*
X130435471Y-102203945D01*
X130459788Y-102224246D01*
X130467820Y-102230952D01*
X130542003Y-102295764D01*
X130551050Y-102302337D01*
X130550870Y-102302583D01*
X130555614Y-102305949D01*
X130555788Y-102305699D01*
X130564987Y-102312072D01*
X130650658Y-102360683D01*
X130683616Y-102380374D01*
X130735236Y-102411215D01*
X130735241Y-102411216D01*
X130745318Y-102416070D01*
X130745185Y-102416345D01*
X130750453Y-102418809D01*
X130750580Y-102418531D01*
X130760755Y-102423153D01*
X130853739Y-102455690D01*
X130884485Y-102467229D01*
X130945976Y-102490307D01*
X130945981Y-102490308D01*
X130956761Y-102493283D01*
X130956679Y-102493578D01*
X130962298Y-102495061D01*
X130962373Y-102494765D01*
X130973210Y-102497495D01*
X130973218Y-102497498D01*
X131000878Y-102501878D01*
X131092026Y-102535504D01*
X131163370Y-102601451D01*
X131204046Y-102689682D01*
X131207862Y-102786762D01*
X131190564Y-102846434D01*
X131184405Y-102860710D01*
X131184401Y-102860723D01*
X131090856Y-103173181D01*
X131034221Y-103494379D01*
X131034220Y-103494387D01*
X131029817Y-103570000D01*
X133166014Y-103570000D01*
X133261302Y-103588954D01*
X133342084Y-103642930D01*
X133396060Y-103723712D01*
X133415014Y-103819000D01*
X133415014Y-103821000D01*
X133396060Y-103916288D01*
X133342084Y-103997070D01*
X133261302Y-104051046D01*
X133166014Y-104070000D01*
X131029817Y-104070000D01*
X131034220Y-104145612D01*
X131034221Y-104145620D01*
X131090856Y-104466818D01*
X131184401Y-104779276D01*
X131184403Y-104779283D01*
X131313589Y-105078768D01*
X131313596Y-105078782D01*
X131476666Y-105361228D01*
X131671439Y-105622853D01*
X131671441Y-105622855D01*
X131895267Y-105860098D01*
X132145117Y-106069746D01*
X132417631Y-106248981D01*
X132709099Y-106395363D01*
X132709103Y-106395364D01*
X133015593Y-106506916D01*
X133332961Y-106582135D01*
X133570000Y-106609840D01*
X133570000Y-104469000D01*
X133588954Y-104373712D01*
X133642930Y-104292930D01*
X133723712Y-104238954D01*
X133819000Y-104220000D01*
X133821000Y-104220000D01*
X133916288Y-104238954D01*
X133997070Y-104292930D01*
X134051046Y-104373712D01*
X134070000Y-104469000D01*
X134070000Y-106609840D01*
X134307038Y-106582135D01*
X134624406Y-106506916D01*
X134624407Y-106506916D01*
X134930896Y-106395364D01*
X134930900Y-106395363D01*
X135222368Y-106248981D01*
X135494882Y-106069746D01*
X135744723Y-105860105D01*
X135746521Y-105858410D01*
X135747405Y-105857855D01*
X135750283Y-105855441D01*
X135750618Y-105855840D01*
X135828836Y-105806802D01*
X135924634Y-105790623D01*
X136019332Y-105812336D01*
X136089476Y-105859540D01*
X136125679Y-105894153D01*
X137347644Y-107116118D01*
X138561162Y-108329636D01*
X138570470Y-108340052D01*
X138592492Y-108367666D01*
X138599477Y-108373769D01*
X138642363Y-108411237D01*
X138648480Y-108416955D01*
X138653313Y-108421787D01*
X138655471Y-108423945D01*
X138679788Y-108444246D01*
X138687820Y-108450952D01*
X138762003Y-108515764D01*
X138771050Y-108522337D01*
X138770870Y-108522583D01*
X138775614Y-108525949D01*
X138775788Y-108525699D01*
X138784987Y-108532072D01*
X138870658Y-108580683D01*
X138900334Y-108598413D01*
X138955236Y-108631215D01*
X138955241Y-108631216D01*
X138965318Y-108636070D01*
X138965185Y-108636345D01*
X138970453Y-108638809D01*
X138970580Y-108638531D01*
X138980755Y-108643153D01*
X139073739Y-108675690D01*
X139098802Y-108685096D01*
X139165976Y-108710307D01*
X139165981Y-108710308D01*
X139176761Y-108713283D01*
X139176679Y-108713578D01*
X139182298Y-108715061D01*
X139182373Y-108714765D01*
X139193210Y-108717495D01*
X139193218Y-108717498D01*
X139290523Y-108732909D01*
X139387453Y-108750500D01*
X139387457Y-108750500D01*
X139398592Y-108751503D01*
X139398564Y-108751804D01*
X139404359Y-108752260D01*
X139404380Y-108751958D01*
X139415538Y-108752710D01*
X139415539Y-108752709D01*
X139415540Y-108752710D01*
X139501456Y-108750782D01*
X139514023Y-108750500D01*
X155922782Y-108750500D01*
X155936717Y-108751282D01*
X155971827Y-108755238D01*
X156037919Y-108750781D01*
X156046294Y-108750500D01*
X156056148Y-108750500D01*
X156056155Y-108750500D01*
X156089909Y-108747461D01*
X156098124Y-108746722D01*
X156110409Y-108745893D01*
X156196412Y-108740096D01*
X156196423Y-108740093D01*
X156207457Y-108738346D01*
X156207505Y-108738649D01*
X156213230Y-108737676D01*
X156213176Y-108737375D01*
X156224176Y-108735378D01*
X156224188Y-108735377D01*
X156315024Y-108710307D01*
X156319166Y-108709164D01*
X156366923Y-108697130D01*
X156414683Y-108685096D01*
X156414686Y-108685094D01*
X156425239Y-108681402D01*
X156425340Y-108681691D01*
X156430797Y-108679713D01*
X156430690Y-108679426D01*
X156441166Y-108675494D01*
X156441165Y-108675494D01*
X156441170Y-108675493D01*
X156515165Y-108639859D01*
X156529936Y-108632746D01*
X156574780Y-108612376D01*
X156619626Y-108592007D01*
X156619630Y-108592003D01*
X156629358Y-108586485D01*
X156629509Y-108586751D01*
X156634518Y-108583834D01*
X156634361Y-108583571D01*
X156643521Y-108578098D01*
X156645702Y-108577320D01*
X156648929Y-108575442D01*
X156654068Y-108572968D01*
X156654632Y-108574139D01*
X156735043Y-108545495D01*
X156832074Y-108550397D01*
X156919843Y-108592058D01*
X156947306Y-108615780D01*
X164161162Y-115829636D01*
X164170470Y-115840052D01*
X164192492Y-115867666D01*
X164192499Y-115867672D01*
X164242363Y-115911237D01*
X164248480Y-115916955D01*
X164255470Y-115923944D01*
X164255471Y-115923945D01*
X164287819Y-115950951D01*
X164343959Y-116000000D01*
X164362004Y-116015765D01*
X164362008Y-116015767D01*
X164371046Y-116022334D01*
X164370867Y-116022579D01*
X164375615Y-116025947D01*
X164375788Y-116025699D01*
X164384979Y-116032066D01*
X164384982Y-116032069D01*
X164470673Y-116080691D01*
X164555236Y-116131215D01*
X164555245Y-116131218D01*
X164565317Y-116136069D01*
X164565184Y-116136344D01*
X164570444Y-116138805D01*
X164570571Y-116138527D01*
X164580745Y-116143148D01*
X164580756Y-116143154D01*
X164673755Y-116175695D01*
X164765976Y-116210307D01*
X164765988Y-116210309D01*
X164776758Y-116213282D01*
X164776676Y-116213577D01*
X164782297Y-116215060D01*
X164782372Y-116214765D01*
X164793214Y-116217497D01*
X164793216Y-116217497D01*
X164793218Y-116217498D01*
X164890539Y-116232912D01*
X164987453Y-116250500D01*
X164987457Y-116250500D01*
X164998592Y-116251503D01*
X164998564Y-116251804D01*
X165004357Y-116252260D01*
X165004378Y-116251959D01*
X165015537Y-116252711D01*
X165015540Y-116252710D01*
X165015541Y-116252711D01*
X165114048Y-116250500D01*
X170789331Y-116250500D01*
X170884619Y-116269454D01*
X170965401Y-116323430D01*
X170994009Y-116357698D01*
X171061177Y-116454649D01*
X171061178Y-116454650D01*
X171061181Y-116454654D01*
X171220346Y-116613819D01*
X171220349Y-116613821D01*
X171220350Y-116613822D01*
X171405368Y-116742003D01*
X171405374Y-116742007D01*
X171610317Y-116835096D01*
X171828588Y-116890096D01*
X171960783Y-116900500D01*
X171960784Y-116900500D01*
X171960788Y-116900499D01*
X172466385Y-116900499D01*
X172561673Y-116919453D01*
X172642454Y-116973429D01*
X172642455Y-116973429D01*
X172993456Y-117324430D01*
X173047432Y-117405212D01*
X173066386Y-117500500D01*
X173047432Y-117595788D01*
X172993456Y-117676570D01*
X172912674Y-117730546D01*
X172817386Y-117749500D01*
X166577218Y-117749500D01*
X166563283Y-117748717D01*
X166528173Y-117744762D01*
X166528172Y-117744762D01*
X166497271Y-117746845D01*
X166462076Y-117749218D01*
X166453703Y-117749500D01*
X166443834Y-117749500D01*
X166405396Y-117752959D01*
X166401901Y-117753274D01*
X166394239Y-117753790D01*
X166303591Y-117759902D01*
X166292553Y-117761651D01*
X166292506Y-117761354D01*
X166286759Y-117762330D01*
X166286813Y-117762626D01*
X166275814Y-117764622D01*
X166180852Y-117790830D01*
X166085308Y-117814906D01*
X166074758Y-117818598D01*
X166074658Y-117818313D01*
X166069191Y-117820296D01*
X166069297Y-117820578D01*
X166058832Y-117824505D01*
X165970056Y-117867257D01*
X165880382Y-117907989D01*
X165870656Y-117913508D01*
X165870507Y-117913246D01*
X165865475Y-117916176D01*
X165865629Y-117916433D01*
X165856031Y-117922168D01*
X165776314Y-117980085D01*
X165695343Y-118036181D01*
X165686766Y-118043343D01*
X165686573Y-118043112D01*
X165682138Y-118046900D01*
X165682336Y-118047127D01*
X165673924Y-118054476D01*
X165605845Y-118125679D01*
X163554954Y-120176570D01*
X163474172Y-120230546D01*
X163378885Y-120249500D01*
X162941962Y-120249501D01*
X162941960Y-120249501D01*
X162872048Y-120255715D01*
X162827955Y-120255715D01*
X162758042Y-120249500D01*
X162758041Y-120249500D01*
X162758037Y-120249500D01*
X162201600Y-120249500D01*
X161641960Y-120249501D01*
X161641961Y-120249501D01*
X161522585Y-120260113D01*
X161326954Y-120316090D01*
X161326946Y-120316093D01*
X161146597Y-120410299D01*
X161146592Y-120410302D01*
X160988893Y-120538889D01*
X160988891Y-120538891D01*
X160891888Y-120657855D01*
X160816984Y-120719726D01*
X160724102Y-120748222D01*
X160698911Y-120749500D01*
X152228681Y-120749500D01*
X152133393Y-120730546D01*
X152052611Y-120676570D01*
X151998635Y-120595788D01*
X151979681Y-120500500D01*
X151998635Y-120405212D01*
X152052611Y-120324430D01*
X152091210Y-120292888D01*
X152317792Y-120142855D01*
X152544544Y-119944556D01*
X152544556Y-119944544D01*
X152742855Y-119717792D01*
X152909164Y-119466628D01*
X152909172Y-119466614D01*
X153040519Y-119195527D01*
X153134563Y-118909347D01*
X153189624Y-118613188D01*
X153189626Y-118613172D01*
X153200000Y-118436006D01*
X153200000Y-118250001D01*
X153199999Y-118250000D01*
X150499000Y-118250000D01*
X150403712Y-118231046D01*
X150322930Y-118177070D01*
X150268954Y-118096288D01*
X150250000Y-118001000D01*
X150250000Y-117999000D01*
X150268954Y-117903712D01*
X150322930Y-117822930D01*
X150403712Y-117768954D01*
X150499000Y-117750000D01*
X153199998Y-117750000D01*
X153199999Y-117749998D01*
X153199999Y-117563996D01*
X153189626Y-117386824D01*
X153189625Y-117386814D01*
X153134563Y-117090652D01*
X153040519Y-116804472D01*
X152909172Y-116533385D01*
X152909164Y-116533371D01*
X152742855Y-116282207D01*
X152544556Y-116055455D01*
X152544544Y-116055443D01*
X152317792Y-115857144D01*
X152312028Y-115853327D01*
X152243043Y-115784916D01*
X152205488Y-115695312D01*
X152200499Y-115645715D01*
X152200499Y-115585786D01*
X152200499Y-115585784D01*
X152190096Y-115453588D01*
X152135096Y-115235317D01*
X152042007Y-115030374D01*
X151954255Y-114903712D01*
X151913822Y-114845350D01*
X151913821Y-114845349D01*
X151913819Y-114845346D01*
X151754654Y-114686181D01*
X151754650Y-114686178D01*
X151754649Y-114686177D01*
X151569631Y-114557996D01*
X151569629Y-114557995D01*
X151569626Y-114557993D01*
X151432776Y-114495833D01*
X151364686Y-114464905D01*
X151364684Y-114464904D01*
X151364683Y-114464904D01*
X151146412Y-114409904D01*
X151146410Y-114409903D01*
X151146407Y-114409903D01*
X151014217Y-114399500D01*
X149985784Y-114399501D01*
X149897653Y-114406436D01*
X149853587Y-114409904D01*
X149635313Y-114464905D01*
X149507973Y-114522746D01*
X149430374Y-114557993D01*
X149430372Y-114557993D01*
X149430368Y-114557996D01*
X149245350Y-114686177D01*
X149238804Y-114691643D01*
X149153509Y-114738161D01*
X149079225Y-114749500D01*
X146420775Y-114749500D01*
X146325487Y-114730546D01*
X146261196Y-114691643D01*
X146254649Y-114686177D01*
X146069631Y-114557996D01*
X146069629Y-114557995D01*
X146069626Y-114557993D01*
X145932776Y-114495833D01*
X145864686Y-114464905D01*
X145864684Y-114464904D01*
X145864683Y-114464904D01*
X145646412Y-114409904D01*
X145646410Y-114409903D01*
X145646407Y-114409903D01*
X145514217Y-114399500D01*
X144485784Y-114399501D01*
X144397653Y-114406436D01*
X144353587Y-114409904D01*
X144135313Y-114464905D01*
X144007973Y-114522746D01*
X143930374Y-114557993D01*
X143930372Y-114557993D01*
X143930368Y-114557996D01*
X143745350Y-114686177D01*
X143738804Y-114691643D01*
X143653509Y-114738161D01*
X143579225Y-114749500D01*
X140420775Y-114749500D01*
X140325487Y-114730546D01*
X140261196Y-114691643D01*
X140254649Y-114686177D01*
X140069631Y-114557996D01*
X140069629Y-114557995D01*
X140069626Y-114557993D01*
X139932776Y-114495833D01*
X139864686Y-114464905D01*
X139864684Y-114464904D01*
X139864683Y-114464904D01*
X139646412Y-114409904D01*
X139646410Y-114409903D01*
X139646407Y-114409903D01*
X139514217Y-114399500D01*
X138651114Y-114399500D01*
X138555826Y-114380546D01*
X138475044Y-114326570D01*
X128073881Y-103925407D01*
X128019905Y-103844625D01*
X128001648Y-103767948D01*
X127985383Y-103550897D01*
X127934909Y-103329755D01*
X127925336Y-103287812D01*
X127925334Y-103287809D01*
X127925334Y-103287805D01*
X127826743Y-103036602D01*
X127691815Y-102802898D01*
X127670215Y-102775812D01*
X127613942Y-102705248D01*
X127569350Y-102618931D01*
X127561184Y-102522120D01*
X127590687Y-102429553D01*
X127613934Y-102394760D01*
X127691815Y-102297102D01*
X127826743Y-102063398D01*
X127925334Y-101812195D01*
X127985383Y-101549103D01*
X128005549Y-101280000D01*
X127985383Y-101010897D01*
X127925334Y-100747805D01*
X127826743Y-100496602D01*
X127691815Y-100262898D01*
X127691813Y-100262895D01*
X127691811Y-100262892D01*
X127691809Y-100262891D01*
X127613943Y-100165250D01*
X127569350Y-100078933D01*
X127561184Y-99982122D01*
X127590687Y-99889555D01*
X127613943Y-99854750D01*
X127649777Y-99809816D01*
X127724007Y-99747135D01*
X127816574Y-99717632D01*
X127913385Y-99725798D01*
G37*
G04 #@! TD.AperFunction*
G04 #@! TA.AperFunction,Conductor*
G36*
X195625646Y-102269454D02*
G01*
X195706427Y-102323429D01*
X195785085Y-102402087D01*
X195996989Y-102560716D01*
X196229311Y-102687574D01*
X196477322Y-102780077D01*
X196735974Y-102836343D01*
X197000000Y-102855227D01*
X197264026Y-102836343D01*
X197522678Y-102780077D01*
X197770689Y-102687574D01*
X197881169Y-102627247D01*
X197973882Y-102598217D01*
X198070650Y-102606876D01*
X198156739Y-102651908D01*
X198219042Y-102726456D01*
X198248073Y-102819172D01*
X198249500Y-102845790D01*
X198249500Y-107878885D01*
X198230546Y-107974173D01*
X198176570Y-108054955D01*
X185554956Y-120676570D01*
X185474174Y-120730546D01*
X185378886Y-120749500D01*
X178501089Y-120749500D01*
X178405801Y-120730546D01*
X178325019Y-120676570D01*
X178308108Y-120657851D01*
X178306509Y-120655890D01*
X178260990Y-120570062D01*
X178250500Y-120498551D01*
X178250500Y-119577218D01*
X178251282Y-119563282D01*
X178255238Y-119528173D01*
X178250781Y-119462081D01*
X178250500Y-119453705D01*
X178250500Y-119443853D01*
X178250499Y-119443835D01*
X178246722Y-119401874D01*
X178240096Y-119303590D01*
X178238346Y-119292539D01*
X178238648Y-119292491D01*
X178237676Y-119286770D01*
X178237376Y-119286825D01*
X178235379Y-119275822D01*
X178235377Y-119275816D01*
X178235377Y-119275812D01*
X178209164Y-119180834D01*
X178185096Y-119085317D01*
X178185095Y-119085314D01*
X178183846Y-119081745D01*
X178183400Y-119078588D01*
X178182363Y-119074472D01*
X178182803Y-119074361D01*
X178170262Y-118985544D01*
X178194527Y-118891468D01*
X178252947Y-118813839D01*
X178336626Y-118764475D01*
X178418871Y-118750500D01*
X180922782Y-118750500D01*
X180936717Y-118751282D01*
X180971827Y-118755238D01*
X181037919Y-118750781D01*
X181046294Y-118750500D01*
X181056148Y-118750500D01*
X181056155Y-118750500D01*
X181089909Y-118747461D01*
X181098124Y-118746722D01*
X181110409Y-118745893D01*
X181196412Y-118740096D01*
X181196423Y-118740093D01*
X181207457Y-118738346D01*
X181207505Y-118738649D01*
X181213230Y-118737676D01*
X181213176Y-118737375D01*
X181224176Y-118735378D01*
X181224188Y-118735377D01*
X181289912Y-118717237D01*
X181319166Y-118709164D01*
X181366923Y-118697130D01*
X181414683Y-118685096D01*
X181414686Y-118685094D01*
X181425239Y-118681402D01*
X181425340Y-118681691D01*
X181430797Y-118679713D01*
X181430690Y-118679426D01*
X181441166Y-118675494D01*
X181441165Y-118675494D01*
X181441170Y-118675493D01*
X181499571Y-118647368D01*
X181529936Y-118632746D01*
X181574780Y-118612376D01*
X181619626Y-118592007D01*
X181619630Y-118592003D01*
X181629358Y-118586485D01*
X181629509Y-118586751D01*
X181634530Y-118583827D01*
X181634373Y-118583564D01*
X181643964Y-118577833D01*
X181643973Y-118577829D01*
X181665385Y-118562271D01*
X181723676Y-118519922D01*
X181769393Y-118488248D01*
X181804654Y-118463820D01*
X181804662Y-118463811D01*
X181813244Y-118456648D01*
X181813440Y-118456882D01*
X181817849Y-118453117D01*
X181817648Y-118452887D01*
X181826068Y-118445528D01*
X181826078Y-118445522D01*
X181894153Y-118374320D01*
X186798876Y-113469596D01*
X186879655Y-113415623D01*
X186974943Y-113396669D01*
X187070231Y-113415623D01*
X187091066Y-113425898D01*
X187091152Y-113425728D01*
X187389099Y-113575363D01*
X187389103Y-113575364D01*
X187695593Y-113686916D01*
X188012960Y-113762135D01*
X188336920Y-113800000D01*
X188663080Y-113800000D01*
X188987039Y-113762135D01*
X189304406Y-113686916D01*
X189304407Y-113686916D01*
X189610896Y-113575364D01*
X189610900Y-113575363D01*
X189902368Y-113428981D01*
X190174888Y-113249743D01*
X190295218Y-113148772D01*
X188782136Y-111635689D01*
X188728160Y-111554907D01*
X188709206Y-111459619D01*
X188728160Y-111364331D01*
X188782133Y-111283552D01*
X188783552Y-111282133D01*
X188864331Y-111228160D01*
X188959619Y-111209206D01*
X189054907Y-111228160D01*
X189135689Y-111282136D01*
X190651907Y-112798353D01*
X190843330Y-112541231D01*
X190843335Y-112541224D01*
X191006403Y-112258782D01*
X191006410Y-112258768D01*
X191135596Y-111959283D01*
X191135598Y-111959276D01*
X191229143Y-111646818D01*
X191285778Y-111325620D01*
X191285779Y-111325613D01*
X191304744Y-111000000D01*
X191285779Y-110674386D01*
X191285778Y-110674379D01*
X191229143Y-110353181D01*
X191135598Y-110040723D01*
X191135596Y-110040716D01*
X191006410Y-109741231D01*
X191006403Y-109741217D01*
X190843333Y-109458771D01*
X190651908Y-109201644D01*
X189135689Y-110717863D01*
X189054907Y-110771839D01*
X188959619Y-110790793D01*
X188864331Y-110771839D01*
X188783549Y-110717863D01*
X188782135Y-110716449D01*
X188728159Y-110635667D01*
X188709205Y-110540379D01*
X188728159Y-110445091D01*
X188782135Y-110364309D01*
X190295218Y-108851226D01*
X190174882Y-108750253D01*
X189902368Y-108571018D01*
X189610900Y-108424636D01*
X189610896Y-108424635D01*
X189304406Y-108313083D01*
X188987039Y-108237864D01*
X188663080Y-108200000D01*
X188336920Y-108200000D01*
X188012960Y-108237864D01*
X187695593Y-108313083D01*
X187695592Y-108313083D01*
X187389103Y-108424635D01*
X187389099Y-108424636D01*
X187097631Y-108571018D01*
X186825123Y-108750249D01*
X186825116Y-108750253D01*
X186704779Y-108851227D01*
X186700529Y-108948569D01*
X186700914Y-108950500D01*
X186700313Y-108953516D01*
X186700001Y-108960685D01*
X186698897Y-108960636D01*
X186681960Y-109045788D01*
X186627984Y-109126570D01*
X186547202Y-109180546D01*
X186451914Y-109199500D01*
X185141961Y-109199501D01*
X185022585Y-109210113D01*
X184826954Y-109266090D01*
X184826946Y-109266093D01*
X184646597Y-109360299D01*
X184646592Y-109360302D01*
X184488893Y-109488889D01*
X184488889Y-109488893D01*
X184360302Y-109646592D01*
X184360299Y-109646597D01*
X184266093Y-109826946D01*
X184266090Y-109826954D01*
X184210115Y-110022578D01*
X184210114Y-110022582D01*
X184199500Y-110141958D01*
X184199501Y-111858039D01*
X184210113Y-111977414D01*
X184210113Y-111977417D01*
X184210114Y-111977418D01*
X184255261Y-112135198D01*
X184266090Y-112173045D01*
X184266093Y-112173053D01*
X184281759Y-112203044D01*
X184309077Y-112296280D01*
X184298635Y-112392872D01*
X184252024Y-112478116D01*
X184237125Y-112494399D01*
X180554956Y-116176570D01*
X180474174Y-116230546D01*
X180378886Y-116249500D01*
X178451659Y-116249500D01*
X178356371Y-116230546D01*
X178275589Y-116176570D01*
X178221613Y-116095788D01*
X178202659Y-116000500D01*
X178206854Y-115954987D01*
X178214624Y-115913191D01*
X178214626Y-115913172D01*
X178225000Y-115736006D01*
X178225000Y-115250001D01*
X178224999Y-115250000D01*
X175561500Y-115250000D01*
X175466212Y-115231046D01*
X175385430Y-115177070D01*
X175331454Y-115096288D01*
X175312500Y-115001000D01*
X175312500Y-114999000D01*
X175331454Y-114903712D01*
X175385430Y-114822930D01*
X175466212Y-114768954D01*
X175561500Y-114750000D01*
X178224998Y-114750000D01*
X178224999Y-114749999D01*
X178224999Y-114263996D01*
X178214626Y-114086824D01*
X178214625Y-114086814D01*
X178159563Y-113790652D01*
X178065519Y-113504472D01*
X177934172Y-113233385D01*
X177934164Y-113233371D01*
X177767855Y-112982207D01*
X177569556Y-112755455D01*
X177569544Y-112755443D01*
X177342792Y-112557144D01*
X177091628Y-112390835D01*
X177091614Y-112390827D01*
X177033905Y-112362866D01*
X176956417Y-112304260D01*
X176907254Y-112220461D01*
X176893903Y-112124228D01*
X176918394Y-112030211D01*
X176938768Y-111998574D01*
X176937405Y-111997640D01*
X176964023Y-111958782D01*
X177033510Y-111890881D01*
X177123693Y-111854740D01*
X177169448Y-111850500D01*
X177822782Y-111850500D01*
X177836717Y-111851282D01*
X177871827Y-111855238D01*
X177937919Y-111850781D01*
X177946294Y-111850500D01*
X177956148Y-111850500D01*
X177956155Y-111850500D01*
X177989909Y-111847461D01*
X177998124Y-111846722D01*
X178010409Y-111845893D01*
X178096412Y-111840096D01*
X178096423Y-111840093D01*
X178107457Y-111838346D01*
X178107505Y-111838649D01*
X178113230Y-111837676D01*
X178113176Y-111837375D01*
X178124176Y-111835378D01*
X178124188Y-111835377D01*
X178208031Y-111812237D01*
X178219166Y-111809164D01*
X178266923Y-111797130D01*
X178314683Y-111785096D01*
X178314686Y-111785094D01*
X178325239Y-111781402D01*
X178325340Y-111781691D01*
X178330797Y-111779713D01*
X178330690Y-111779426D01*
X178341166Y-111775494D01*
X178341165Y-111775494D01*
X178341170Y-111775493D01*
X178399571Y-111747368D01*
X178429936Y-111732746D01*
X178474780Y-111712376D01*
X178519626Y-111692007D01*
X178519630Y-111692003D01*
X178529358Y-111686485D01*
X178529509Y-111686751D01*
X178534530Y-111683827D01*
X178534373Y-111683564D01*
X178543964Y-111677833D01*
X178543973Y-111677829D01*
X178586656Y-111646818D01*
X178623676Y-111619922D01*
X178669393Y-111588248D01*
X178704654Y-111563820D01*
X178704662Y-111563811D01*
X178713244Y-111556648D01*
X178713440Y-111556882D01*
X178717849Y-111553117D01*
X178717648Y-111552887D01*
X178726068Y-111545528D01*
X178726078Y-111545522D01*
X178794153Y-111474320D01*
X187945045Y-102323429D01*
X188025826Y-102269454D01*
X188121114Y-102250500D01*
X195530358Y-102250500D01*
X195625646Y-102269454D01*
G37*
G04 #@! TD.AperFunction*
G04 #@! TA.AperFunction,Conductor*
G36*
X147159559Y-93769454D02*
G01*
X147240341Y-93823430D01*
X147294317Y-93904212D01*
X147313271Y-93999500D01*
X147294317Y-94094788D01*
X147245388Y-94170374D01*
X147031436Y-94397150D01*
X146836666Y-94658771D01*
X146673596Y-94941217D01*
X146673589Y-94941231D01*
X146544403Y-95240716D01*
X146544401Y-95240723D01*
X146450856Y-95553181D01*
X146394221Y-95874379D01*
X146394220Y-95874387D01*
X146389817Y-95950000D01*
X148526014Y-95950000D01*
X148621302Y-95968954D01*
X148702084Y-96022930D01*
X148756060Y-96103712D01*
X148775014Y-96199000D01*
X148775014Y-96201000D01*
X148756060Y-96296288D01*
X148702084Y-96377070D01*
X148621302Y-96431046D01*
X148526014Y-96450000D01*
X146389817Y-96450000D01*
X146394220Y-96525612D01*
X146394221Y-96525620D01*
X146450856Y-96846818D01*
X146544401Y-97159276D01*
X146544403Y-97159283D01*
X146673589Y-97458768D01*
X146673596Y-97458782D01*
X146836666Y-97741228D01*
X147031439Y-98002853D01*
X147031441Y-98002855D01*
X147255267Y-98240098D01*
X147505117Y-98449746D01*
X147777631Y-98628981D01*
X148069099Y-98775363D01*
X148069103Y-98775364D01*
X148375593Y-98886916D01*
X148692961Y-98962135D01*
X148930000Y-98989840D01*
X148930000Y-96849000D01*
X148948954Y-96753712D01*
X149002930Y-96672930D01*
X149083712Y-96618954D01*
X149179000Y-96600000D01*
X149181000Y-96600000D01*
X149276288Y-96618954D01*
X149357070Y-96672930D01*
X149411046Y-96753712D01*
X149430000Y-96849000D01*
X149430000Y-98989839D01*
X149667038Y-98962135D01*
X149984406Y-98886916D01*
X149984407Y-98886916D01*
X150290896Y-98775364D01*
X150290900Y-98775363D01*
X150582368Y-98628981D01*
X150854882Y-98449746D01*
X151104732Y-98240098D01*
X151273035Y-98061706D01*
X151352212Y-98005402D01*
X151446908Y-97983684D01*
X151491253Y-97986359D01*
X151585071Y-98000500D01*
X151585075Y-98000500D01*
X151854926Y-98000500D01*
X151854929Y-98000500D01*
X152121772Y-97960280D01*
X152379641Y-97880738D01*
X152622775Y-97763651D01*
X152845741Y-97611635D01*
X152845742Y-97611633D01*
X152849733Y-97608913D01*
X152939140Y-97570896D01*
X153036291Y-97569987D01*
X153126394Y-97606325D01*
X153130267Y-97608913D01*
X153134257Y-97611633D01*
X153134259Y-97611635D01*
X153197538Y-97654778D01*
X153357222Y-97763649D01*
X153357225Y-97763650D01*
X153357226Y-97763651D01*
X153600359Y-97880738D01*
X153858228Y-97960280D01*
X154125071Y-98000500D01*
X154125074Y-98000500D01*
X154394926Y-98000500D01*
X154394929Y-98000500D01*
X154661772Y-97960280D01*
X154919641Y-97880738D01*
X155139907Y-97774663D01*
X155233981Y-97750397D01*
X155330182Y-97763978D01*
X155405295Y-97806025D01*
X155446587Y-97839694D01*
X155446591Y-97839696D01*
X155446593Y-97839698D01*
X155626951Y-97933909D01*
X155822582Y-97989886D01*
X155941963Y-98000500D01*
X157658036Y-98000499D01*
X157691813Y-97997496D01*
X157788405Y-98007935D01*
X157873649Y-98054544D01*
X157934569Y-98130227D01*
X157961888Y-98223462D01*
X157951449Y-98320055D01*
X157904840Y-98405299D01*
X157889937Y-98421587D01*
X154364956Y-101946570D01*
X154284174Y-102000546D01*
X154188886Y-102019500D01*
X154125071Y-102019500D01*
X153924938Y-102049664D01*
X153858227Y-102059720D01*
X153600353Y-102139264D01*
X153357223Y-102256350D01*
X153130266Y-102411087D01*
X153040858Y-102449104D01*
X152943708Y-102450012D01*
X152853605Y-102413673D01*
X152849733Y-102411086D01*
X152622778Y-102256350D01*
X152622773Y-102256348D01*
X152379649Y-102139265D01*
X152379644Y-102139263D01*
X152379641Y-102139262D01*
X152121772Y-102059720D01*
X151854929Y-102019500D01*
X151585071Y-102019500D01*
X151384938Y-102049664D01*
X151318227Y-102059720D01*
X151060353Y-102139264D01*
X150817223Y-102256350D01*
X150590266Y-102411087D01*
X150500858Y-102449104D01*
X150403708Y-102450012D01*
X150313605Y-102413673D01*
X150309733Y-102411086D01*
X150082778Y-102256350D01*
X150082773Y-102256348D01*
X149839649Y-102139265D01*
X149839644Y-102139263D01*
X149839641Y-102139262D01*
X149581772Y-102059720D01*
X149314929Y-102019500D01*
X149045071Y-102019500D01*
X148844938Y-102049664D01*
X148778227Y-102059720D01*
X148520353Y-102139264D01*
X148277227Y-102256348D01*
X148054257Y-102408366D01*
X147856437Y-102591916D01*
X147688189Y-102802892D01*
X147688188Y-102802892D01*
X147553257Y-103036601D01*
X147553256Y-103036604D01*
X147454667Y-103287801D01*
X147454663Y-103287812D01*
X147394616Y-103550899D01*
X147374451Y-103819999D01*
X147394616Y-104089100D01*
X147454663Y-104352187D01*
X147454666Y-104352195D01*
X147553257Y-104603398D01*
X147678615Y-104820527D01*
X147688188Y-104837107D01*
X147809579Y-104989325D01*
X147856439Y-105048085D01*
X148054259Y-105231635D01*
X148277226Y-105383651D01*
X148520359Y-105500738D01*
X148778228Y-105580280D01*
X149045071Y-105620500D01*
X149045074Y-105620500D01*
X149314926Y-105620500D01*
X149314929Y-105620500D01*
X149581772Y-105580280D01*
X149839641Y-105500738D01*
X150082775Y-105383651D01*
X150305741Y-105231635D01*
X150305742Y-105231633D01*
X150309733Y-105228913D01*
X150399140Y-105190896D01*
X150496291Y-105189987D01*
X150586394Y-105226325D01*
X150590267Y-105228913D01*
X150594257Y-105231633D01*
X150594259Y-105231635D01*
X150624414Y-105252194D01*
X150817222Y-105383649D01*
X150817225Y-105383650D01*
X150817226Y-105383651D01*
X151060359Y-105500738D01*
X151318228Y-105580280D01*
X151585071Y-105620500D01*
X151585074Y-105620500D01*
X151854926Y-105620500D01*
X151854929Y-105620500D01*
X152121772Y-105580280D01*
X152379641Y-105500738D01*
X152622775Y-105383651D01*
X152845741Y-105231635D01*
X152845742Y-105231633D01*
X152849733Y-105228913D01*
X152939140Y-105190896D01*
X153036291Y-105189987D01*
X153126394Y-105226325D01*
X153130267Y-105228913D01*
X153134257Y-105231633D01*
X153134259Y-105231635D01*
X153164414Y-105252194D01*
X153357222Y-105383649D01*
X153357225Y-105383650D01*
X153357226Y-105383651D01*
X153600359Y-105500738D01*
X153858228Y-105580280D01*
X154125071Y-105620500D01*
X154125074Y-105620500D01*
X154394926Y-105620500D01*
X154394929Y-105620500D01*
X154661772Y-105580280D01*
X154919641Y-105500738D01*
X155162775Y-105383651D01*
X155162786Y-105383643D01*
X155170847Y-105378991D01*
X155171720Y-105380503D01*
X155249619Y-105347371D01*
X155346769Y-105346454D01*
X155436876Y-105382784D01*
X155506220Y-105450831D01*
X155544246Y-105540236D01*
X155549500Y-105591117D01*
X155549500Y-106000500D01*
X155530546Y-106095788D01*
X155476570Y-106176570D01*
X155395788Y-106230546D01*
X155300500Y-106249500D01*
X142117459Y-106249500D01*
X142022171Y-106230546D01*
X141941389Y-106176570D01*
X141887413Y-106095788D01*
X141868459Y-106000500D01*
X141887413Y-105905212D01*
X141941389Y-105824430D01*
X141979989Y-105792887D01*
X142017794Y-105767854D01*
X142244544Y-105569556D01*
X142244556Y-105569544D01*
X142442855Y-105342792D01*
X142609164Y-105091628D01*
X142609172Y-105091614D01*
X142740519Y-104820527D01*
X142834563Y-104534347D01*
X142889624Y-104238188D01*
X142889626Y-104238172D01*
X142900000Y-104061006D01*
X142900000Y-103812501D01*
X142899999Y-103812500D01*
X139999000Y-103812500D01*
X139903712Y-103793546D01*
X139822930Y-103739570D01*
X139768954Y-103658788D01*
X139750000Y-103563500D01*
X139750000Y-103561500D01*
X139768954Y-103466212D01*
X139822930Y-103385430D01*
X139903712Y-103331454D01*
X139999000Y-103312500D01*
X142899998Y-103312500D01*
X142899999Y-103312499D01*
X142899999Y-103063996D01*
X142889626Y-102886824D01*
X142889625Y-102886814D01*
X142834563Y-102590652D01*
X142740519Y-102304472D01*
X142609172Y-102033385D01*
X142609164Y-102033371D01*
X142442855Y-101782207D01*
X142244556Y-101555455D01*
X142244544Y-101555443D01*
X142017791Y-101357143D01*
X141988340Y-101337642D01*
X141919354Y-101269231D01*
X141881799Y-101179628D01*
X141881392Y-101082474D01*
X141884356Y-101069190D01*
X141890096Y-101046412D01*
X141900500Y-100914217D01*
X141900499Y-99960784D01*
X141890096Y-99828588D01*
X141835096Y-99610317D01*
X141742007Y-99405374D01*
X141742003Y-99405368D01*
X141613822Y-99220350D01*
X141613821Y-99220349D01*
X141613819Y-99220346D01*
X141454654Y-99061181D01*
X141454650Y-99061178D01*
X141454649Y-99061177D01*
X141357698Y-98994009D01*
X141290165Y-98924164D01*
X141254501Y-98833791D01*
X141250500Y-98789331D01*
X141250500Y-97499500D01*
X141269454Y-97404212D01*
X141323430Y-97323430D01*
X141404212Y-97269454D01*
X141499500Y-97250500D01*
X142422782Y-97250500D01*
X142436717Y-97251282D01*
X142471827Y-97255238D01*
X142537919Y-97250781D01*
X142546294Y-97250500D01*
X142556148Y-97250500D01*
X142556155Y-97250500D01*
X142589909Y-97247461D01*
X142598124Y-97246722D01*
X142610409Y-97245893D01*
X142696412Y-97240096D01*
X142696423Y-97240093D01*
X142707457Y-97238346D01*
X142707505Y-97238649D01*
X142713230Y-97237676D01*
X142713176Y-97237375D01*
X142724176Y-97235378D01*
X142724188Y-97235377D01*
X142790403Y-97217102D01*
X142819166Y-97209164D01*
X142866923Y-97197130D01*
X142914683Y-97185096D01*
X142914686Y-97185094D01*
X142925239Y-97181402D01*
X142925340Y-97181691D01*
X142930797Y-97179713D01*
X142930690Y-97179426D01*
X142941166Y-97175494D01*
X142941165Y-97175494D01*
X142941170Y-97175493D01*
X142999571Y-97147368D01*
X143029936Y-97132746D01*
X143088504Y-97106143D01*
X143119626Y-97092007D01*
X143119630Y-97092003D01*
X143129358Y-97086485D01*
X143129509Y-97086751D01*
X143134530Y-97083827D01*
X143134373Y-97083564D01*
X143143964Y-97077833D01*
X143143973Y-97077829D01*
X143173203Y-97056592D01*
X143223676Y-97019922D01*
X143276394Y-96983398D01*
X143304654Y-96963820D01*
X143304662Y-96963811D01*
X143313244Y-96956648D01*
X143313440Y-96956882D01*
X143317849Y-96953117D01*
X143317648Y-96952887D01*
X143326068Y-96945528D01*
X143326078Y-96945522D01*
X143394153Y-96874320D01*
X146445043Y-93823430D01*
X146525826Y-93769454D01*
X146621114Y-93750500D01*
X147064271Y-93750500D01*
X147159559Y-93769454D01*
G37*
G04 #@! TD.AperFunction*
G04 #@! TA.AperFunction,Conductor*
G36*
X136717565Y-97314837D02*
G01*
X136799123Y-97367633D01*
X136801635Y-97370108D01*
X136845346Y-97413819D01*
X136845349Y-97413821D01*
X136845350Y-97413822D01*
X136978649Y-97506172D01*
X137030374Y-97542007D01*
X137235317Y-97635096D01*
X137453588Y-97690096D01*
X137585783Y-97700500D01*
X138414216Y-97700499D01*
X138480965Y-97695246D01*
X138577445Y-97706665D01*
X138662212Y-97754137D01*
X138722361Y-97830434D01*
X138748732Y-97923941D01*
X138749500Y-97943478D01*
X138749500Y-98789331D01*
X138730546Y-98884619D01*
X138676570Y-98965401D01*
X138642302Y-98994009D01*
X138545350Y-99061177D01*
X138386177Y-99220350D01*
X138257996Y-99405368D01*
X138164905Y-99610313D01*
X138109903Y-99828591D01*
X138109903Y-99828594D01*
X138099500Y-99960783D01*
X138099501Y-100914214D01*
X138109904Y-101046416D01*
X138115643Y-101069190D01*
X138120546Y-101166221D01*
X138087942Y-101257742D01*
X138022797Y-101329820D01*
X138011663Y-101337638D01*
X137982217Y-101357135D01*
X137982210Y-101357140D01*
X137755455Y-101555443D01*
X137755440Y-101555458D01*
X137729383Y-101585254D01*
X137652386Y-101644505D01*
X137558576Y-101669779D01*
X137462235Y-101657230D01*
X137378030Y-101608769D01*
X137365889Y-101597415D01*
X136256842Y-100488368D01*
X136202867Y-100407587D01*
X136183913Y-100312299D01*
X136202867Y-100217011D01*
X136217274Y-100187797D01*
X136326405Y-99998779D01*
X136326410Y-99998768D01*
X136455596Y-99699283D01*
X136455598Y-99699276D01*
X136549143Y-99386818D01*
X136605778Y-99065620D01*
X136605779Y-99065612D01*
X136610183Y-98990000D01*
X134473986Y-98990000D01*
X134378698Y-98971046D01*
X134297916Y-98917070D01*
X134243940Y-98836288D01*
X134224986Y-98741000D01*
X134224986Y-98739000D01*
X134243940Y-98643712D01*
X134297916Y-98562930D01*
X134378698Y-98508954D01*
X134473986Y-98490000D01*
X136610183Y-98490000D01*
X136605779Y-98414387D01*
X136605778Y-98414379D01*
X136549143Y-98093181D01*
X136455598Y-97780723D01*
X136455596Y-97780716D01*
X136396997Y-97644869D01*
X136376659Y-97549867D01*
X136394225Y-97454313D01*
X136447021Y-97372755D01*
X136527009Y-97317609D01*
X136622011Y-97297271D01*
X136717565Y-97314837D01*
G37*
G04 #@! TD.AperFunction*
M02*
