G04 #@! TF.GenerationSoftware,KiCad,Pcbnew,7.0.7*
G04 #@! TF.CreationDate,2023-10-30T12:22:07+01:00*
G04 #@! TF.ProjectId,Speaker,53706561-6b65-4722-9e6b-696361645f70,rev?*
G04 #@! TF.SameCoordinates,Original*
G04 #@! TF.FileFunction,Legend,Bot*
G04 #@! TF.FilePolarity,Positive*
%FSLAX46Y46*%
G04 Gerber Fmt 4.6, Leading zero omitted, Abs format (unit mm)*
G04 Created by KiCad (PCBNEW 7.0.7) date 2023-10-30 12:22:07*
%MOMM*%
%LPD*%
G01*
G04 APERTURE LIST*
%ADD10C,0.400000*%
%ADD11C,3.200000*%
%ADD12C,3.000000*%
%ADD13R,1.600000X1.600000*%
%ADD14O,1.600000X1.600000*%
%ADD15C,1.600000*%
%ADD16C,1.620000*%
%ADD17R,1.500000X1.500000*%
%ADD18C,1.500000*%
%ADD19C,2.500000*%
%ADD20R,1.700000X1.700000*%
%ADD21O,1.700000X1.700000*%
G04 APERTURE END LIST*
D10*
X154165414Y-90969200D02*
X153736843Y-91112057D01*
X153736843Y-91112057D02*
X153022557Y-91112057D01*
X153022557Y-91112057D02*
X152736843Y-90969200D01*
X152736843Y-90969200D02*
X152593985Y-90826342D01*
X152593985Y-90826342D02*
X152451128Y-90540628D01*
X152451128Y-90540628D02*
X152451128Y-90254914D01*
X152451128Y-90254914D02*
X152593985Y-89969200D01*
X152593985Y-89969200D02*
X152736843Y-89826342D01*
X152736843Y-89826342D02*
X153022557Y-89683485D01*
X153022557Y-89683485D02*
X153593985Y-89540628D01*
X153593985Y-89540628D02*
X153879700Y-89397771D01*
X153879700Y-89397771D02*
X154022557Y-89254914D01*
X154022557Y-89254914D02*
X154165414Y-88969200D01*
X154165414Y-88969200D02*
X154165414Y-88683485D01*
X154165414Y-88683485D02*
X154022557Y-88397771D01*
X154022557Y-88397771D02*
X153879700Y-88254914D01*
X153879700Y-88254914D02*
X153593985Y-88112057D01*
X153593985Y-88112057D02*
X152879700Y-88112057D01*
X152879700Y-88112057D02*
X152451128Y-88254914D01*
X151165414Y-91112057D02*
X151165414Y-88112057D01*
X151165414Y-88112057D02*
X150022557Y-88112057D01*
X150022557Y-88112057D02*
X149736842Y-88254914D01*
X149736842Y-88254914D02*
X149593985Y-88397771D01*
X149593985Y-88397771D02*
X149451128Y-88683485D01*
X149451128Y-88683485D02*
X149451128Y-89112057D01*
X149451128Y-89112057D02*
X149593985Y-89397771D01*
X149593985Y-89397771D02*
X149736842Y-89540628D01*
X149736842Y-89540628D02*
X150022557Y-89683485D01*
X150022557Y-89683485D02*
X151165414Y-89683485D01*
X148165414Y-89540628D02*
X147165414Y-89540628D01*
X146736842Y-91112057D02*
X148165414Y-91112057D01*
X148165414Y-91112057D02*
X148165414Y-88112057D01*
X148165414Y-88112057D02*
X146736842Y-88112057D01*
X145593985Y-90254914D02*
X144165414Y-90254914D01*
X145879699Y-91112057D02*
X144879699Y-88112057D01*
X144879699Y-88112057D02*
X143879699Y-91112057D01*
X142879699Y-91112057D02*
X142879699Y-88112057D01*
X141165413Y-91112057D02*
X142451127Y-89397771D01*
X141165413Y-88112057D02*
X142879699Y-89826342D01*
X139879699Y-89540628D02*
X138879699Y-89540628D01*
X138451127Y-91112057D02*
X139879699Y-91112057D01*
X139879699Y-91112057D02*
X139879699Y-88112057D01*
X139879699Y-88112057D02*
X138451127Y-88112057D01*
X135451127Y-91112057D02*
X136451127Y-89683485D01*
X137165413Y-91112057D02*
X137165413Y-88112057D01*
X137165413Y-88112057D02*
X136022556Y-88112057D01*
X136022556Y-88112057D02*
X135736841Y-88254914D01*
X135736841Y-88254914D02*
X135593984Y-88397771D01*
X135593984Y-88397771D02*
X135451127Y-88683485D01*
X135451127Y-88683485D02*
X135451127Y-89112057D01*
X135451127Y-89112057D02*
X135593984Y-89397771D01*
X135593984Y-89397771D02*
X135736841Y-89540628D01*
X135736841Y-89540628D02*
X136022556Y-89683485D01*
X136022556Y-89683485D02*
X137165413Y-89683485D01*
X131879699Y-91112057D02*
X131879699Y-88112057D01*
X131879699Y-88112057D02*
X130736842Y-88112057D01*
X130736842Y-88112057D02*
X130451127Y-88254914D01*
X130451127Y-88254914D02*
X130308270Y-88397771D01*
X130308270Y-88397771D02*
X130165413Y-88683485D01*
X130165413Y-88683485D02*
X130165413Y-89112057D01*
X130165413Y-89112057D02*
X130308270Y-89397771D01*
X130308270Y-89397771D02*
X130451127Y-89540628D01*
X130451127Y-89540628D02*
X130736842Y-89683485D01*
X130736842Y-89683485D02*
X131879699Y-89683485D01*
X127165413Y-90826342D02*
X127308270Y-90969200D01*
X127308270Y-90969200D02*
X127736842Y-91112057D01*
X127736842Y-91112057D02*
X128022556Y-91112057D01*
X128022556Y-91112057D02*
X128451127Y-90969200D01*
X128451127Y-90969200D02*
X128736842Y-90683485D01*
X128736842Y-90683485D02*
X128879699Y-90397771D01*
X128879699Y-90397771D02*
X129022556Y-89826342D01*
X129022556Y-89826342D02*
X129022556Y-89397771D01*
X129022556Y-89397771D02*
X128879699Y-88826342D01*
X128879699Y-88826342D02*
X128736842Y-88540628D01*
X128736842Y-88540628D02*
X128451127Y-88254914D01*
X128451127Y-88254914D02*
X128022556Y-88112057D01*
X128022556Y-88112057D02*
X127736842Y-88112057D01*
X127736842Y-88112057D02*
X127308270Y-88254914D01*
X127308270Y-88254914D02*
X127165413Y-88397771D01*
X124879699Y-89540628D02*
X124451127Y-89683485D01*
X124451127Y-89683485D02*
X124308270Y-89826342D01*
X124308270Y-89826342D02*
X124165413Y-90112057D01*
X124165413Y-90112057D02*
X124165413Y-90540628D01*
X124165413Y-90540628D02*
X124308270Y-90826342D01*
X124308270Y-90826342D02*
X124451127Y-90969200D01*
X124451127Y-90969200D02*
X124736842Y-91112057D01*
X124736842Y-91112057D02*
X125879699Y-91112057D01*
X125879699Y-91112057D02*
X125879699Y-88112057D01*
X125879699Y-88112057D02*
X124879699Y-88112057D01*
X124879699Y-88112057D02*
X124593985Y-88254914D01*
X124593985Y-88254914D02*
X124451127Y-88397771D01*
X124451127Y-88397771D02*
X124308270Y-88683485D01*
X124308270Y-88683485D02*
X124308270Y-88969200D01*
X124308270Y-88969200D02*
X124451127Y-89254914D01*
X124451127Y-89254914D02*
X124593985Y-89397771D01*
X124593985Y-89397771D02*
X124879699Y-89540628D01*
X124879699Y-89540628D02*
X125879699Y-89540628D01*
%LPC*%
D11*
X197000000Y-79000000D03*
D12*
X138000000Y-81000000D03*
X127000000Y-81000000D03*
D11*
X105000000Y-79000000D03*
X105000000Y-121000000D03*
D12*
X164000000Y-80500000D03*
X115000000Y-81000000D03*
X178500000Y-81000000D03*
D13*
X126200000Y-96200000D03*
D14*
X126200000Y-98740000D03*
X126200000Y-101280000D03*
X126200000Y-103820000D03*
X133820000Y-103820000D03*
X133820000Y-101280000D03*
X133820000Y-98740000D03*
X133820000Y-96200000D03*
D12*
X151000000Y-81000000D03*
D13*
X186000000Y-89000000D03*
D15*
X188500000Y-89000000D03*
D16*
X111500000Y-118500000D03*
X116500000Y-116000000D03*
X111500000Y-113500000D03*
D11*
X109000000Y-94285000D03*
X109000000Y-105715000D03*
D17*
X115350000Y-95555000D03*
D18*
X117890000Y-96825000D03*
X115350000Y-98095000D03*
X117890000Y-99365000D03*
X115350000Y-100635000D03*
X117890000Y-101905000D03*
X115350000Y-103175000D03*
X117890000Y-104445000D03*
D19*
X112556000Y-92253000D03*
X112556000Y-107747000D03*
D20*
X197000000Y-98460000D03*
D21*
X197000000Y-101000000D03*
D13*
X156800000Y-96200000D03*
D14*
X154260000Y-96200000D03*
X151720000Y-96200000D03*
X149180000Y-96200000D03*
X149180000Y-103820000D03*
X151720000Y-103820000D03*
X154260000Y-103820000D03*
X156800000Y-103820000D03*
D13*
X186000000Y-111000000D03*
D15*
X188500000Y-111000000D03*
D11*
X197000000Y-121000000D03*
%LPD*%
M02*
