M48
; DRILL file {KiCad 7.0.7} date Mon Oct 30 12:22:28 2023
; FORMAT={-:-/ absolute / metric / decimal}
; #@! TF.CreationDate,2023-10-30T12:22:28+01:00
; #@! TF.GenerationSoftware,Kicad,Pcbnew,7.0.7
; #@! TF.FileFunction,Plated,1,2,PTH
FMAT,2
METRIC
; #@! TA.AperFunction,Plated,PTH,ComponentDrill
T1C0.760
; #@! TA.AperFunction,Plated,PTH,ComponentDrill
T2C0.800
; #@! TA.AperFunction,Plated,PTH,ComponentDrill
T3C0.900
; #@! TA.AperFunction,Plated,PTH,ComponentDrill
T4C1.000
; #@! TA.AperFunction,Plated,PTH,ComponentDrill
T5C1.500
%
G90
G05
T1
X115.35Y-95.555
X115.35Y-98.095
X115.35Y-100.635
X115.35Y-103.175
X117.89Y-96.825
X117.89Y-99.365
X117.89Y-101.905
X117.89Y-104.445
T2
X126.2Y-96.2
X126.2Y-98.74
X126.2Y-101.28
X126.2Y-103.82
X133.82Y-96.2
X133.82Y-98.74
X133.82Y-101.28
X133.82Y-103.82
X149.18Y-96.2
X149.18Y-103.82
X151.72Y-96.2
X151.72Y-103.82
X154.26Y-96.2
X154.26Y-103.82
X156.8Y-96.2
X156.8Y-103.82
X186.0Y-89.0
X186.0Y-111.0
X188.5Y-89.0
X188.5Y-111.0
T3
X111.5Y-113.5
X111.5Y-118.5
X116.5Y-116.0
T4
X197.0Y-98.46
X197.0Y-101.0
T5
X112.556Y-92.253
X112.556Y-107.747
X115.0Y-81.0
X127.0Y-81.0
X138.0Y-81.0
X151.0Y-81.0
X164.0Y-80.5
X178.5Y-81.0
T0
M30
