G04 #@! TF.GenerationSoftware,KiCad,Pcbnew,7.0.7*
G04 #@! TF.CreationDate,2023-10-30T12:22:07+01:00*
G04 #@! TF.ProjectId,Speaker,53706561-6b65-4722-9e6b-696361645f70,rev?*
G04 #@! TF.SameCoordinates,Original*
G04 #@! TF.FileFunction,Copper,L2,Bot*
G04 #@! TF.FilePolarity,Positive*
%FSLAX46Y46*%
G04 Gerber Fmt 4.6, Leading zero omitted, Abs format (unit mm)*
G04 Created by KiCad (PCBNEW 7.0.7) date 2023-10-30 12:22:07*
%MOMM*%
%LPD*%
G01*
G04 APERTURE LIST*
G04 #@! TA.AperFunction,ComponentPad*
%ADD10C,3.000000*%
G04 #@! TD*
G04 #@! TA.AperFunction,ComponentPad*
%ADD11R,1.600000X1.600000*%
G04 #@! TD*
G04 #@! TA.AperFunction,ComponentPad*
%ADD12O,1.600000X1.600000*%
G04 #@! TD*
G04 #@! TA.AperFunction,ComponentPad*
%ADD13C,1.600000*%
G04 #@! TD*
G04 #@! TA.AperFunction,ComponentPad*
%ADD14C,1.620000*%
G04 #@! TD*
G04 #@! TA.AperFunction,ComponentPad*
%ADD15R,1.500000X1.500000*%
G04 #@! TD*
G04 #@! TA.AperFunction,ComponentPad*
%ADD16C,1.500000*%
G04 #@! TD*
G04 #@! TA.AperFunction,ComponentPad*
%ADD17C,2.500000*%
G04 #@! TD*
G04 #@! TA.AperFunction,ComponentPad*
%ADD18R,1.700000X1.700000*%
G04 #@! TD*
G04 #@! TA.AperFunction,ComponentPad*
%ADD19O,1.700000X1.700000*%
G04 #@! TD*
G04 #@! TA.AperFunction,Conductor*
%ADD20C,0.500000*%
G04 #@! TD*
G04 APERTURE END LIST*
D10*
X138000000Y-81000000D03*
X127000000Y-81000000D03*
X164000000Y-80500000D03*
X115000000Y-81000000D03*
X178500000Y-81000000D03*
D11*
X126200000Y-96200000D03*
D12*
X126200000Y-98740000D03*
X126200000Y-101280000D03*
X126200000Y-103820000D03*
X133820000Y-103820000D03*
X133820000Y-101280000D03*
X133820000Y-98740000D03*
X133820000Y-96200000D03*
D10*
X151000000Y-81000000D03*
D11*
X186000000Y-89000000D03*
D13*
X188500000Y-89000000D03*
D14*
X111500000Y-118500000D03*
X116500000Y-116000000D03*
X111500000Y-113500000D03*
D15*
X115350000Y-95555000D03*
D16*
X117890000Y-96825000D03*
X115350000Y-98095000D03*
X117890000Y-99365000D03*
X115350000Y-100635000D03*
X117890000Y-101905000D03*
X115350000Y-103175000D03*
X117890000Y-104445000D03*
D17*
X112556000Y-92253000D03*
X112556000Y-107747000D03*
D18*
X197000000Y-98460000D03*
D19*
X197000000Y-101000000D03*
D11*
X156800000Y-96200000D03*
D12*
X154260000Y-96200000D03*
X151720000Y-96200000D03*
X149180000Y-96200000D03*
X149180000Y-103820000D03*
X151720000Y-103820000D03*
X154260000Y-103820000D03*
X156800000Y-103820000D03*
D11*
X186000000Y-111000000D03*
D13*
X188500000Y-111000000D03*
D20*
X122820000Y-103820000D02*
X126200000Y-103820000D01*
X127000000Y-81000000D02*
X121500000Y-86500000D01*
X121500000Y-86500000D02*
X121500000Y-102500000D01*
X121500000Y-102500000D02*
X122820000Y-103820000D01*
X188000000Y-98500000D02*
X188040000Y-98460000D01*
X178500000Y-89000000D02*
X188000000Y-98500000D01*
X188040000Y-98460000D02*
X197000000Y-98460000D01*
X178500000Y-81000000D02*
X178500000Y-89000000D01*
X138000000Y-92020000D02*
X133820000Y-96200000D01*
X138000000Y-81000000D02*
X138000000Y-92020000D01*
X146680000Y-103820000D02*
X140000000Y-110500000D01*
X149180000Y-103820000D02*
X146680000Y-103820000D01*
X140000000Y-110500000D02*
X122000000Y-110500000D01*
X122000000Y-110500000D02*
X116500000Y-116000000D01*
X154260000Y-98240000D02*
X151500000Y-101000000D01*
X121000000Y-108500000D02*
X116000000Y-113500000D01*
X139500000Y-108500000D02*
X121000000Y-108500000D01*
X154260000Y-96200000D02*
X154260000Y-98240000D01*
X116000000Y-113500000D02*
X111500000Y-113500000D01*
X147000000Y-101000000D02*
X139500000Y-108500000D01*
X151500000Y-101000000D02*
X147000000Y-101000000D01*
G04 #@! TA.AperFunction,Conductor*
G36*
X200845788Y-75019454D02*
G01*
X200926570Y-75073430D01*
X200980546Y-75154212D01*
X200999500Y-75249500D01*
X200999500Y-124750500D01*
X200980546Y-124845788D01*
X200926570Y-124926570D01*
X200845788Y-124980546D01*
X200750500Y-124999500D01*
X101249500Y-124999500D01*
X101154212Y-124980546D01*
X101073430Y-124926570D01*
X101019454Y-124845788D01*
X101000500Y-124750500D01*
X101000500Y-121067768D01*
X103145787Y-121067768D01*
X103172441Y-121310000D01*
X103175414Y-121337018D01*
X103243927Y-121599087D01*
X103243928Y-121599088D01*
X103349869Y-121848387D01*
X103349872Y-121848394D01*
X103490976Y-122079601D01*
X103490978Y-122079605D01*
X103490982Y-122079610D01*
X103664255Y-122287820D01*
X103769241Y-122381888D01*
X103865996Y-122468580D01*
X103865999Y-122468583D01*
X104091903Y-122618040D01*
X104091906Y-122618041D01*
X104091910Y-122618044D01*
X104337176Y-122733020D01*
X104596569Y-122811060D01*
X104864561Y-122850500D01*
X104864567Y-122850500D01*
X105067634Y-122850500D01*
X105092610Y-122848671D01*
X105270156Y-122835677D01*
X105534553Y-122776780D01*
X105787558Y-122680014D01*
X105835817Y-122652929D01*
X106023773Y-122547444D01*
X106238173Y-122381891D01*
X106238172Y-122381891D01*
X106238177Y-122381888D01*
X106426186Y-122186881D01*
X106583799Y-121966579D01*
X106707656Y-121725675D01*
X106795118Y-121469305D01*
X106844319Y-121202933D01*
X106854212Y-120932235D01*
X106824586Y-120662982D01*
X106756072Y-120400912D01*
X106650130Y-120151610D01*
X106509018Y-119920390D01*
X106335745Y-119712180D01*
X106134002Y-119531418D01*
X106134000Y-119531416D01*
X105908096Y-119381959D01*
X105775900Y-119319988D01*
X105662824Y-119266980D01*
X105403431Y-119188940D01*
X105403427Y-119188939D01*
X105403426Y-119188939D01*
X105341715Y-119179857D01*
X105135439Y-119149500D01*
X104932369Y-119149500D01*
X104932366Y-119149500D01*
X104869487Y-119154102D01*
X104729844Y-119164323D01*
X104729840Y-119164323D01*
X104729837Y-119164324D01*
X104465442Y-119223221D01*
X104212436Y-119319988D01*
X103976226Y-119452555D01*
X103761826Y-119618108D01*
X103573811Y-119813122D01*
X103416204Y-120033416D01*
X103416199Y-120033424D01*
X103292344Y-120274323D01*
X103292343Y-120274325D01*
X103204882Y-120530690D01*
X103155681Y-120797062D01*
X103155680Y-120797073D01*
X103145788Y-121067765D01*
X103145787Y-121067768D01*
X101000500Y-121067768D01*
X101000500Y-118499999D01*
X108685238Y-118499999D01*
X108704270Y-118826775D01*
X108704271Y-118826783D01*
X108761109Y-119149126D01*
X108854988Y-119462700D01*
X108984638Y-119763264D01*
X108984645Y-119763278D01*
X109148296Y-120046731D01*
X109340943Y-120305500D01*
X110825907Y-118820538D01*
X110906689Y-118766562D01*
X111001977Y-118747608D01*
X111097265Y-118766562D01*
X111178047Y-118820538D01*
X111196631Y-118841331D01*
X111197885Y-118842903D01*
X111242489Y-118929213D01*
X111250669Y-119026023D01*
X111221179Y-119118594D01*
X111179301Y-119174249D01*
X109697681Y-120655869D01*
X109697681Y-120655870D01*
X109819136Y-120757781D01*
X110092629Y-120937661D01*
X110385118Y-121084555D01*
X110385130Y-121084560D01*
X110692713Y-121196510D01*
X111011215Y-121271997D01*
X111011230Y-121272000D01*
X111336337Y-121310000D01*
X111663663Y-121310000D01*
X111988769Y-121272000D01*
X111988784Y-121271997D01*
X112307286Y-121196510D01*
X112614869Y-121084560D01*
X112614881Y-121084555D01*
X112648307Y-121067768D01*
X195145787Y-121067768D01*
X195172441Y-121310000D01*
X195175414Y-121337018D01*
X195243927Y-121599087D01*
X195243928Y-121599088D01*
X195349869Y-121848387D01*
X195349872Y-121848394D01*
X195490976Y-122079601D01*
X195490978Y-122079605D01*
X195490982Y-122079610D01*
X195664255Y-122287820D01*
X195769241Y-122381888D01*
X195865996Y-122468580D01*
X195865999Y-122468583D01*
X196091903Y-122618040D01*
X196091906Y-122618041D01*
X196091910Y-122618044D01*
X196337176Y-122733020D01*
X196596569Y-122811060D01*
X196864561Y-122850500D01*
X196864567Y-122850500D01*
X197067634Y-122850500D01*
X197092610Y-122848671D01*
X197270156Y-122835677D01*
X197534553Y-122776780D01*
X197787558Y-122680014D01*
X197835817Y-122652929D01*
X198023773Y-122547444D01*
X198238173Y-122381891D01*
X198238172Y-122381891D01*
X198238177Y-122381888D01*
X198426186Y-122186881D01*
X198583799Y-121966579D01*
X198707656Y-121725675D01*
X198795118Y-121469305D01*
X198844319Y-121202933D01*
X198854212Y-120932235D01*
X198824586Y-120662982D01*
X198756072Y-120400912D01*
X198650130Y-120151610D01*
X198509018Y-119920390D01*
X198335745Y-119712180D01*
X198134002Y-119531418D01*
X198134000Y-119531416D01*
X197908096Y-119381959D01*
X197775900Y-119319988D01*
X197662824Y-119266980D01*
X197403431Y-119188940D01*
X197403427Y-119188939D01*
X197403426Y-119188939D01*
X197341715Y-119179857D01*
X197135439Y-119149500D01*
X196932369Y-119149500D01*
X196932366Y-119149500D01*
X196869487Y-119154102D01*
X196729844Y-119164323D01*
X196729840Y-119164323D01*
X196729837Y-119164324D01*
X196465442Y-119223221D01*
X196212436Y-119319988D01*
X195976226Y-119452555D01*
X195761826Y-119618108D01*
X195573811Y-119813122D01*
X195416204Y-120033416D01*
X195416199Y-120033424D01*
X195292344Y-120274323D01*
X195292343Y-120274325D01*
X195204882Y-120530690D01*
X195155681Y-120797062D01*
X195155680Y-120797073D01*
X195145788Y-121067765D01*
X195145787Y-121067768D01*
X112648307Y-121067768D01*
X112907370Y-120937661D01*
X113180859Y-120757785D01*
X113302316Y-120655869D01*
X111817810Y-119171363D01*
X111763834Y-119090581D01*
X111744880Y-118995293D01*
X111763834Y-118900005D01*
X111817810Y-118819223D01*
X111824519Y-118812762D01*
X111826000Y-118811387D01*
X111908747Y-118760477D01*
X112004679Y-118745108D01*
X112099190Y-118767620D01*
X112171416Y-118817863D01*
X113659054Y-120305501D01*
X113659055Y-120305501D01*
X113851702Y-120046732D01*
X114015354Y-119763278D01*
X114015361Y-119763264D01*
X114145011Y-119462700D01*
X114238890Y-119149126D01*
X114295728Y-118826783D01*
X114295729Y-118826775D01*
X114314761Y-118499999D01*
X114295729Y-118173224D01*
X114295728Y-118173216D01*
X114238890Y-117850873D01*
X114145011Y-117537299D01*
X114015361Y-117236735D01*
X114015354Y-117236721D01*
X113851705Y-116953273D01*
X113659054Y-116694497D01*
X112174091Y-118179460D01*
X112093309Y-118233436D01*
X111998021Y-118252390D01*
X111902733Y-118233436D01*
X111821951Y-118179460D01*
X111803367Y-118158667D01*
X111802113Y-118157095D01*
X111757509Y-118070785D01*
X111749329Y-117973975D01*
X111778819Y-117881404D01*
X111820697Y-117825748D01*
X113302316Y-116344128D01*
X113180858Y-116242214D01*
X112907370Y-116062338D01*
X112614881Y-115915444D01*
X112614869Y-115915439D01*
X112307286Y-115803489D01*
X111990718Y-115728460D01*
X111902369Y-115688042D01*
X111836214Y-115616891D01*
X111802322Y-115525839D01*
X111805854Y-115428748D01*
X111846272Y-115340399D01*
X111917423Y-115274244D01*
X111974739Y-115248238D01*
X112163305Y-115190073D01*
X112407789Y-115072336D01*
X112631994Y-114919475D01*
X112742468Y-114816969D01*
X112825211Y-114766052D01*
X112911831Y-114750500D01*
X114699533Y-114750500D01*
X114794821Y-114769454D01*
X114875603Y-114823430D01*
X114929579Y-114904212D01*
X114948533Y-114999500D01*
X114929579Y-115094788D01*
X114915174Y-115123999D01*
X114864224Y-115212246D01*
X114864220Y-115212254D01*
X114765083Y-115464851D01*
X114765082Y-115464854D01*
X114704701Y-115729402D01*
X114704700Y-115729406D01*
X114684423Y-115999999D01*
X114704700Y-116270593D01*
X114704701Y-116270597D01*
X114765082Y-116535145D01*
X114765083Y-116535148D01*
X114864220Y-116787745D01*
X114864226Y-116787757D01*
X114999897Y-117022746D01*
X114999904Y-117022756D01*
X115169087Y-117234905D01*
X115169092Y-117234910D01*
X115368008Y-117419477D01*
X115592208Y-117572334D01*
X115592210Y-117572335D01*
X115592212Y-117572336D01*
X115730299Y-117638835D01*
X115836688Y-117690070D01*
X115836692Y-117690071D01*
X115836695Y-117690073D01*
X116019859Y-117746571D01*
X116095989Y-117770055D01*
X116095990Y-117770055D01*
X116095996Y-117770057D01*
X116327408Y-117804936D01*
X116364321Y-117810500D01*
X116364322Y-117810500D01*
X116635679Y-117810500D01*
X116668127Y-117805609D01*
X116904004Y-117770057D01*
X117163305Y-117690073D01*
X117163309Y-117690070D01*
X117163312Y-117690070D01*
X117231297Y-117657329D01*
X117407789Y-117572336D01*
X117631994Y-117419475D01*
X117830912Y-117234906D01*
X118000100Y-117022751D01*
X118135778Y-116787749D01*
X118234916Y-116535151D01*
X118295299Y-116270598D01*
X118312488Y-116041211D01*
X118338510Y-115947608D01*
X118384719Y-115883753D01*
X122445043Y-111823430D01*
X122525826Y-111769454D01*
X122621114Y-111750500D01*
X139922782Y-111750500D01*
X139936717Y-111751282D01*
X139971827Y-111755238D01*
X140037919Y-111750781D01*
X140046294Y-111750500D01*
X140056148Y-111750500D01*
X140056155Y-111750500D01*
X140089909Y-111747461D01*
X140098124Y-111746722D01*
X140110409Y-111745893D01*
X140196412Y-111740096D01*
X140196423Y-111740093D01*
X140207457Y-111738346D01*
X140207505Y-111738649D01*
X140213230Y-111737676D01*
X140213176Y-111737375D01*
X140224176Y-111735378D01*
X140224188Y-111735377D01*
X140289912Y-111717237D01*
X140319166Y-111709164D01*
X140366923Y-111697130D01*
X140414683Y-111685096D01*
X140414686Y-111685094D01*
X140425239Y-111681402D01*
X140425340Y-111681691D01*
X140430797Y-111679713D01*
X140430690Y-111679426D01*
X140441166Y-111675494D01*
X140441165Y-111675494D01*
X140441170Y-111675493D01*
X140500714Y-111646818D01*
X140529936Y-111632746D01*
X140574780Y-111612376D01*
X140619626Y-111592007D01*
X140619630Y-111592003D01*
X140629358Y-111586485D01*
X140629509Y-111586751D01*
X140634530Y-111583827D01*
X140634373Y-111583564D01*
X140643964Y-111577833D01*
X140643973Y-111577829D01*
X140675522Y-111554907D01*
X140723676Y-111519922D01*
X140769393Y-111488248D01*
X140804654Y-111463820D01*
X140804662Y-111463811D01*
X140813244Y-111456648D01*
X140813440Y-111456882D01*
X140817849Y-111453117D01*
X140817648Y-111452887D01*
X140826068Y-111445528D01*
X140826078Y-111445522D01*
X140894153Y-111374320D01*
X142126515Y-110141958D01*
X184199500Y-110141958D01*
X184199501Y-111858039D01*
X184210113Y-111977414D01*
X184266090Y-112173045D01*
X184266093Y-112173053D01*
X184314168Y-112265089D01*
X184360302Y-112353407D01*
X184488891Y-112511109D01*
X184646593Y-112639698D01*
X184826951Y-112733909D01*
X185022582Y-112789886D01*
X185141963Y-112800500D01*
X186451914Y-112800499D01*
X186547201Y-112819453D01*
X186627982Y-112873429D01*
X186681959Y-112954211D01*
X186698896Y-113039362D01*
X186700001Y-113039314D01*
X186700314Y-113046488D01*
X186700913Y-113049499D01*
X186700529Y-113051425D01*
X186704779Y-113148772D01*
X186825117Y-113249746D01*
X187097631Y-113428981D01*
X187389099Y-113575363D01*
X187389103Y-113575364D01*
X187695593Y-113686916D01*
X188012960Y-113762135D01*
X188336920Y-113800000D01*
X188663080Y-113800000D01*
X188987039Y-113762135D01*
X189304406Y-113686916D01*
X189304407Y-113686916D01*
X189610896Y-113575364D01*
X189610900Y-113575363D01*
X189902368Y-113428981D01*
X190174888Y-113249743D01*
X190295218Y-113148772D01*
X188782136Y-111635689D01*
X188728160Y-111554907D01*
X188709206Y-111459619D01*
X188728160Y-111364331D01*
X188782133Y-111283552D01*
X188783552Y-111282133D01*
X188864331Y-111228160D01*
X188959619Y-111209206D01*
X189054907Y-111228160D01*
X189135689Y-111282136D01*
X190651907Y-112798353D01*
X190843330Y-112541231D01*
X190843335Y-112541224D01*
X191006403Y-112258782D01*
X191006410Y-112258768D01*
X191135596Y-111959283D01*
X191135598Y-111959276D01*
X191229143Y-111646818D01*
X191285778Y-111325620D01*
X191285779Y-111325613D01*
X191304744Y-111000000D01*
X191285779Y-110674386D01*
X191285778Y-110674379D01*
X191229143Y-110353181D01*
X191135598Y-110040723D01*
X191135596Y-110040716D01*
X191006410Y-109741231D01*
X191006403Y-109741217D01*
X190843333Y-109458771D01*
X190651908Y-109201644D01*
X189135689Y-110717863D01*
X189054907Y-110771839D01*
X188959619Y-110790793D01*
X188864331Y-110771839D01*
X188783549Y-110717863D01*
X188782135Y-110716449D01*
X188728159Y-110635667D01*
X188709205Y-110540379D01*
X188728159Y-110445091D01*
X188782135Y-110364309D01*
X190295218Y-108851226D01*
X190174882Y-108750253D01*
X189902368Y-108571018D01*
X189610900Y-108424636D01*
X189610896Y-108424635D01*
X189304406Y-108313083D01*
X188987039Y-108237864D01*
X188663080Y-108200000D01*
X188336920Y-108200000D01*
X188012960Y-108237864D01*
X187695593Y-108313083D01*
X187695592Y-108313083D01*
X187389103Y-108424635D01*
X187389099Y-108424636D01*
X187097631Y-108571018D01*
X186825117Y-108750252D01*
X186825116Y-108750253D01*
X186704779Y-108851227D01*
X186700529Y-108948569D01*
X186700914Y-108950500D01*
X186700313Y-108953516D01*
X186700001Y-108960685D01*
X186698897Y-108960636D01*
X186681960Y-109045788D01*
X186627984Y-109126570D01*
X186547202Y-109180546D01*
X186451914Y-109199500D01*
X185141961Y-109199501D01*
X185022585Y-109210113D01*
X184826954Y-109266090D01*
X184826946Y-109266093D01*
X184646597Y-109360299D01*
X184646592Y-109360302D01*
X184488893Y-109488889D01*
X184488889Y-109488893D01*
X184360302Y-109646592D01*
X184360299Y-109646597D01*
X184266093Y-109826946D01*
X184266090Y-109826954D01*
X184210115Y-110022578D01*
X184210114Y-110022582D01*
X184199500Y-110141958D01*
X142126515Y-110141958D01*
X147125043Y-105143430D01*
X147205826Y-105089454D01*
X147301114Y-105070500D01*
X147782872Y-105070500D01*
X147878160Y-105089454D01*
X147952233Y-105136969D01*
X148054259Y-105231635D01*
X148277226Y-105383651D01*
X148520359Y-105500738D01*
X148778228Y-105580280D01*
X149045071Y-105620500D01*
X149045074Y-105620500D01*
X149314926Y-105620500D01*
X149314929Y-105620500D01*
X149581772Y-105580280D01*
X149839641Y-105500738D01*
X150082775Y-105383651D01*
X150305741Y-105231635D01*
X150305742Y-105231633D01*
X150309733Y-105228913D01*
X150399140Y-105190896D01*
X150496291Y-105189987D01*
X150586394Y-105226325D01*
X150590267Y-105228913D01*
X150594257Y-105231633D01*
X150594259Y-105231635D01*
X150657538Y-105274778D01*
X150817222Y-105383649D01*
X150817225Y-105383650D01*
X150817226Y-105383651D01*
X151060359Y-105500738D01*
X151318228Y-105580280D01*
X151585071Y-105620500D01*
X151585074Y-105620500D01*
X151854926Y-105620500D01*
X151854929Y-105620500D01*
X152121772Y-105580280D01*
X152379641Y-105500738D01*
X152622775Y-105383651D01*
X152845741Y-105231635D01*
X152845742Y-105231633D01*
X152849733Y-105228913D01*
X152939140Y-105190896D01*
X153036291Y-105189987D01*
X153126394Y-105226325D01*
X153130267Y-105228913D01*
X153134257Y-105231633D01*
X153134259Y-105231635D01*
X153197538Y-105274778D01*
X153357222Y-105383649D01*
X153357225Y-105383650D01*
X153357226Y-105383651D01*
X153600359Y-105500738D01*
X153858228Y-105580280D01*
X154125071Y-105620500D01*
X154125074Y-105620500D01*
X154394926Y-105620500D01*
X154394929Y-105620500D01*
X154661772Y-105580280D01*
X154919641Y-105500738D01*
X155162775Y-105383651D01*
X155385741Y-105231635D01*
X155385742Y-105231633D01*
X155389733Y-105228913D01*
X155479140Y-105190896D01*
X155576291Y-105189987D01*
X155666394Y-105226325D01*
X155670267Y-105228913D01*
X155674257Y-105231633D01*
X155674259Y-105231635D01*
X155737538Y-105274778D01*
X155897222Y-105383649D01*
X155897225Y-105383650D01*
X155897226Y-105383651D01*
X156140359Y-105500738D01*
X156398228Y-105580280D01*
X156665071Y-105620500D01*
X156665074Y-105620500D01*
X156934926Y-105620500D01*
X156934929Y-105620500D01*
X157201772Y-105580280D01*
X157459641Y-105500738D01*
X157702775Y-105383651D01*
X157925741Y-105231635D01*
X158123561Y-105048085D01*
X158291815Y-104837102D01*
X158426743Y-104603398D01*
X158525334Y-104352195D01*
X158529691Y-104333108D01*
X158539474Y-104290245D01*
X158585383Y-104089103D01*
X158605549Y-103820000D01*
X158585383Y-103550897D01*
X158534070Y-103326078D01*
X158525336Y-103287812D01*
X158525334Y-103287809D01*
X158525334Y-103287805D01*
X158426743Y-103036602D01*
X158291815Y-102802898D01*
X158291813Y-102802895D01*
X158291811Y-102802892D01*
X158123562Y-102591916D01*
X157925738Y-102408362D01*
X157702778Y-102256350D01*
X157702773Y-102256348D01*
X157459649Y-102139265D01*
X157459644Y-102139263D01*
X157459641Y-102139262D01*
X157201772Y-102059720D01*
X156934929Y-102019500D01*
X156665071Y-102019500D01*
X156464938Y-102049664D01*
X156398227Y-102059720D01*
X156140353Y-102139264D01*
X155897223Y-102256350D01*
X155670266Y-102411087D01*
X155580858Y-102449104D01*
X155483708Y-102450012D01*
X155393605Y-102413673D01*
X155389733Y-102411086D01*
X155162778Y-102256350D01*
X155162773Y-102256348D01*
X154919649Y-102139265D01*
X154919644Y-102139263D01*
X154919641Y-102139262D01*
X154661772Y-102059720D01*
X154394929Y-102019500D01*
X154125071Y-102019500D01*
X153924938Y-102049664D01*
X153858227Y-102059720D01*
X153600353Y-102139264D01*
X153357223Y-102256350D01*
X153130266Y-102411087D01*
X153040858Y-102449104D01*
X152943708Y-102450012D01*
X152853605Y-102413673D01*
X152849733Y-102411086D01*
X152622778Y-102256350D01*
X152622774Y-102256348D01*
X152526790Y-102210125D01*
X152449162Y-102151705D01*
X152399800Y-102068024D01*
X152386219Y-101971823D01*
X152410486Y-101877747D01*
X152458752Y-101809720D01*
X155089640Y-99178832D01*
X155100043Y-99169535D01*
X155127666Y-99147508D01*
X155171248Y-99097623D01*
X155176955Y-99091517D01*
X155183944Y-99084530D01*
X155201974Y-99062932D01*
X155210948Y-99052185D01*
X155275763Y-98977999D01*
X155282338Y-98968949D01*
X155282585Y-98969128D01*
X155285949Y-98964388D01*
X155285697Y-98964214D01*
X155292066Y-98955021D01*
X155292068Y-98955019D01*
X155340683Y-98869340D01*
X155391215Y-98784764D01*
X155391218Y-98784754D01*
X155396067Y-98774687D01*
X155396343Y-98774820D01*
X155398803Y-98769564D01*
X155398523Y-98769437D01*
X155403147Y-98759253D01*
X155403153Y-98759245D01*
X155435692Y-98666253D01*
X155470307Y-98574024D01*
X155470309Y-98574008D01*
X155473282Y-98563242D01*
X155473576Y-98563323D01*
X155475060Y-98557703D01*
X155474765Y-98557629D01*
X155477497Y-98546786D01*
X155477497Y-98546785D01*
X155477498Y-98546783D01*
X155492910Y-98449472D01*
X155510500Y-98352547D01*
X155510500Y-98352542D01*
X155511503Y-98341408D01*
X155511804Y-98341435D01*
X155512260Y-98335644D01*
X155511958Y-98335624D01*
X155512710Y-98324464D01*
X155510735Y-98236464D01*
X155527546Y-98140775D01*
X155579696Y-98058803D01*
X155659246Y-98003027D01*
X155754085Y-97981940D01*
X155810662Y-97989231D01*
X155810943Y-97987723D01*
X155822572Y-97989883D01*
X155822582Y-97989886D01*
X155941963Y-98000500D01*
X157658036Y-98000499D01*
X157658039Y-98000499D01*
X157709199Y-97995950D01*
X157777418Y-97989886D01*
X157973049Y-97933909D01*
X158153407Y-97839698D01*
X158311109Y-97711109D01*
X158439698Y-97553407D01*
X158533909Y-97373049D01*
X158589886Y-97177418D01*
X158600500Y-97058037D01*
X158600499Y-95341964D01*
X158600498Y-95341958D01*
X158589886Y-95222585D01*
X158589886Y-95222582D01*
X158533909Y-95026951D01*
X158439698Y-94846593D01*
X158311109Y-94688891D01*
X158153407Y-94560302D01*
X158153402Y-94560299D01*
X157973053Y-94466093D01*
X157973052Y-94466092D01*
X157973049Y-94466091D01*
X157777418Y-94410114D01*
X157753541Y-94407991D01*
X157658041Y-94399500D01*
X157658037Y-94399500D01*
X156677851Y-94399500D01*
X155941961Y-94399501D01*
X155822585Y-94410113D01*
X155626954Y-94466090D01*
X155626946Y-94466093D01*
X155446597Y-94560299D01*
X155446588Y-94560305D01*
X155405293Y-94593976D01*
X155319464Y-94639501D01*
X155222747Y-94648716D01*
X155139906Y-94625335D01*
X154919649Y-94519265D01*
X154919644Y-94519263D01*
X154919641Y-94519262D01*
X154661772Y-94439720D01*
X154394929Y-94399500D01*
X154125071Y-94399500D01*
X153924938Y-94429665D01*
X153858227Y-94439720D01*
X153600353Y-94519264D01*
X153357223Y-94636350D01*
X153130266Y-94791087D01*
X153040858Y-94829104D01*
X152943708Y-94830012D01*
X152853605Y-94793673D01*
X152849733Y-94791086D01*
X152622778Y-94636350D01*
X152622773Y-94636348D01*
X152379649Y-94519265D01*
X152379644Y-94519263D01*
X152379641Y-94519262D01*
X152121772Y-94439720D01*
X151854929Y-94399500D01*
X151585071Y-94399500D01*
X151585066Y-94399500D01*
X151491261Y-94413638D01*
X151394213Y-94409097D01*
X151306289Y-94367763D01*
X151273036Y-94338293D01*
X151104732Y-94159901D01*
X150854882Y-93950253D01*
X150582368Y-93771018D01*
X150290900Y-93624636D01*
X150290896Y-93624635D01*
X149984406Y-93513083D01*
X149667045Y-93437866D01*
X149667032Y-93437864D01*
X149430000Y-93410158D01*
X149430000Y-95551000D01*
X149411046Y-95646288D01*
X149357070Y-95727070D01*
X149276288Y-95781046D01*
X149181000Y-95800000D01*
X149179000Y-95800000D01*
X149083712Y-95781046D01*
X149002930Y-95727070D01*
X148948954Y-95646288D01*
X148930000Y-95551000D01*
X148930000Y-93410158D01*
X148929999Y-93410158D01*
X148692967Y-93437864D01*
X148692954Y-93437866D01*
X148375593Y-93513083D01*
X148375592Y-93513083D01*
X148069103Y-93624635D01*
X148069099Y-93624636D01*
X147777631Y-93771018D01*
X147505117Y-93950253D01*
X147255267Y-94159901D01*
X147031441Y-94397144D01*
X147031439Y-94397146D01*
X146836666Y-94658771D01*
X146673596Y-94941217D01*
X146673589Y-94941231D01*
X146544403Y-95240716D01*
X146544401Y-95240723D01*
X146450856Y-95553181D01*
X146394221Y-95874379D01*
X146394220Y-95874387D01*
X146389817Y-95950000D01*
X148526014Y-95950000D01*
X148621302Y-95968954D01*
X148702084Y-96022930D01*
X148756060Y-96103712D01*
X148775014Y-96199000D01*
X148775014Y-96201000D01*
X148756060Y-96296288D01*
X148702084Y-96377070D01*
X148621302Y-96431046D01*
X148526014Y-96450000D01*
X146389817Y-96450000D01*
X146394220Y-96525612D01*
X146394221Y-96525620D01*
X146450856Y-96846818D01*
X146544401Y-97159276D01*
X146544403Y-97159283D01*
X146673589Y-97458768D01*
X146673596Y-97458782D01*
X146836666Y-97741228D01*
X147031439Y-98002853D01*
X147031441Y-98002855D01*
X147255267Y-98240098D01*
X147505117Y-98449746D01*
X147777631Y-98628981D01*
X148069099Y-98775363D01*
X148069103Y-98775364D01*
X148375593Y-98886916D01*
X148692961Y-98962135D01*
X148930000Y-98989840D01*
X148930000Y-96849000D01*
X148948954Y-96753712D01*
X149002930Y-96672930D01*
X149083712Y-96618954D01*
X149179000Y-96600000D01*
X149181000Y-96600000D01*
X149276288Y-96618954D01*
X149357070Y-96672930D01*
X149411046Y-96753712D01*
X149430000Y-96849000D01*
X149430000Y-98989839D01*
X149667038Y-98962135D01*
X149984406Y-98886916D01*
X149984407Y-98886916D01*
X150290896Y-98775364D01*
X150290900Y-98775363D01*
X150582368Y-98628981D01*
X150854882Y-98449746D01*
X151104732Y-98240098D01*
X151273035Y-98061706D01*
X151352212Y-98005402D01*
X151446908Y-97983684D01*
X151491253Y-97986359D01*
X151585071Y-98000500D01*
X151585075Y-98000500D01*
X151854926Y-98000500D01*
X151854929Y-98000500D01*
X152121772Y-97960280D01*
X152121774Y-97960279D01*
X152130985Y-97958891D01*
X152131187Y-97960233D01*
X152217791Y-97957797D01*
X152308561Y-97992437D01*
X152379165Y-98059176D01*
X152418855Y-98147855D01*
X152421587Y-98244971D01*
X152386947Y-98335741D01*
X152352172Y-98379351D01*
X151054956Y-99676569D01*
X150974174Y-99730546D01*
X150878886Y-99749500D01*
X147077218Y-99749500D01*
X147063282Y-99748717D01*
X147028173Y-99744762D01*
X147028171Y-99744762D01*
X146989030Y-99747401D01*
X146962080Y-99749218D01*
X146953706Y-99749500D01*
X146943844Y-99749500D01*
X146922860Y-99751388D01*
X146901876Y-99753277D01*
X146894770Y-99753756D01*
X146803590Y-99759903D01*
X146792545Y-99761653D01*
X146792497Y-99761353D01*
X146786758Y-99762328D01*
X146786812Y-99762626D01*
X146775818Y-99764621D01*
X146680834Y-99790835D01*
X146585309Y-99814906D01*
X146574758Y-99818598D01*
X146574658Y-99818313D01*
X146569191Y-99820296D01*
X146569297Y-99820578D01*
X146558832Y-99824505D01*
X146470056Y-99867257D01*
X146380382Y-99907989D01*
X146370656Y-99913508D01*
X146370507Y-99913246D01*
X146365475Y-99916176D01*
X146365629Y-99916433D01*
X146356031Y-99922168D01*
X146276314Y-99980085D01*
X146195343Y-100036181D01*
X146186766Y-100043343D01*
X146186573Y-100043112D01*
X146182138Y-100046900D01*
X146182336Y-100047127D01*
X146173924Y-100054476D01*
X146105845Y-100125679D01*
X139054956Y-107176570D01*
X138974174Y-107230546D01*
X138878886Y-107249500D01*
X121077218Y-107249500D01*
X121063282Y-107248717D01*
X121028173Y-107244762D01*
X121028171Y-107244762D01*
X120989030Y-107247401D01*
X120962080Y-107249218D01*
X120953706Y-107249500D01*
X120943844Y-107249500D01*
X120922860Y-107251388D01*
X120901876Y-107253277D01*
X120894770Y-107253756D01*
X120803590Y-107259903D01*
X120792545Y-107261653D01*
X120792497Y-107261353D01*
X120786758Y-107262328D01*
X120786812Y-107262626D01*
X120775818Y-107264621D01*
X120680834Y-107290835D01*
X120585309Y-107314906D01*
X120574758Y-107318598D01*
X120574658Y-107318313D01*
X120569194Y-107320295D01*
X120569300Y-107320577D01*
X120558833Y-107324505D01*
X120470064Y-107367253D01*
X120380377Y-107407991D01*
X120370647Y-107413512D01*
X120370498Y-107413250D01*
X120365467Y-107416179D01*
X120365622Y-107416438D01*
X120356025Y-107422171D01*
X120276323Y-107480077D01*
X120195343Y-107536181D01*
X120186758Y-107543349D01*
X120186565Y-107543118D01*
X120182138Y-107546900D01*
X120182336Y-107547127D01*
X120173924Y-107554476D01*
X120105845Y-107625679D01*
X115554956Y-112176570D01*
X115474174Y-112230546D01*
X115378886Y-112249500D01*
X112911831Y-112249500D01*
X112816543Y-112230546D01*
X112742468Y-112183030D01*
X112731715Y-112173053D01*
X112631994Y-112080525D01*
X112631991Y-112080522D01*
X112407792Y-111927665D01*
X112407787Y-111927663D01*
X112163312Y-111809929D01*
X112163306Y-111809927D01*
X111904010Y-111729944D01*
X111904004Y-111729943D01*
X111766142Y-111709164D01*
X111635679Y-111689500D01*
X111635678Y-111689500D01*
X111364322Y-111689500D01*
X111364321Y-111689500D01*
X111095989Y-111729944D01*
X110836693Y-111809927D01*
X110836688Y-111809929D01*
X110592213Y-111927663D01*
X110592208Y-111927665D01*
X110368008Y-112080522D01*
X110169092Y-112265089D01*
X110169087Y-112265094D01*
X109999904Y-112477243D01*
X109999897Y-112477253D01*
X109864226Y-112712242D01*
X109864220Y-112712254D01*
X109765083Y-112964851D01*
X109765082Y-112964854D01*
X109704701Y-113229402D01*
X109704700Y-113229406D01*
X109684423Y-113500000D01*
X109704700Y-113770593D01*
X109704701Y-113770597D01*
X109765082Y-114035145D01*
X109765083Y-114035148D01*
X109864220Y-114287745D01*
X109864226Y-114287757D01*
X109999897Y-114522746D01*
X109999904Y-114522756D01*
X110169087Y-114734905D01*
X110169092Y-114734910D01*
X110368008Y-114919477D01*
X110592208Y-115072334D01*
X110592210Y-115072335D01*
X110592212Y-115072336D01*
X110699491Y-115123999D01*
X110836686Y-115190069D01*
X110836687Y-115190069D01*
X110836695Y-115190073D01*
X111025255Y-115248236D01*
X111110719Y-115294433D01*
X111172002Y-115369822D01*
X111199769Y-115462924D01*
X111189795Y-115559566D01*
X111143596Y-115645034D01*
X111068207Y-115706317D01*
X111009281Y-115728460D01*
X110692713Y-115803489D01*
X110385130Y-115915439D01*
X110385118Y-115915444D01*
X110092629Y-116062338D01*
X109819136Y-116242217D01*
X109819134Y-116242219D01*
X109697681Y-116344128D01*
X111182189Y-117828636D01*
X111236165Y-117909418D01*
X111255119Y-118004706D01*
X111236165Y-118099994D01*
X111182189Y-118180776D01*
X111175465Y-118187251D01*
X111173999Y-118188611D01*
X111091252Y-118239522D01*
X110995320Y-118254891D01*
X110900809Y-118232379D01*
X110828583Y-118182136D01*
X109340943Y-116694497D01*
X109148304Y-116953258D01*
X109148294Y-116953272D01*
X108984645Y-117236721D01*
X108984638Y-117236735D01*
X108854988Y-117537299D01*
X108761109Y-117850873D01*
X108704271Y-118173216D01*
X108704270Y-118173224D01*
X108685238Y-118499999D01*
X101000500Y-118499999D01*
X101000500Y-105782768D01*
X107145787Y-105782768D01*
X107170795Y-106010039D01*
X107175414Y-106052018D01*
X107243928Y-106314088D01*
X107348062Y-106559136D01*
X107349869Y-106563387D01*
X107349872Y-106563394D01*
X107490976Y-106794601D01*
X107490978Y-106794605D01*
X107490982Y-106794610D01*
X107490987Y-106794616D01*
X107490990Y-106794620D01*
X107664254Y-107002819D01*
X107664255Y-107002820D01*
X107790703Y-107116118D01*
X107865996Y-107183580D01*
X107865999Y-107183583D01*
X108091903Y-107333040D01*
X108091906Y-107333041D01*
X108091910Y-107333044D01*
X108337176Y-107448020D01*
X108596569Y-107526060D01*
X108864561Y-107565500D01*
X108864567Y-107565500D01*
X109055521Y-107565500D01*
X109150809Y-107584454D01*
X109231591Y-107638430D01*
X109285567Y-107719212D01*
X109304156Y-107801019D01*
X109320306Y-108098899D01*
X109377320Y-108446675D01*
X109377322Y-108446682D01*
X109471606Y-108786260D01*
X109471607Y-108786262D01*
X109602044Y-109113637D01*
X109767126Y-109425015D01*
X109767127Y-109425017D01*
X109964899Y-109716707D01*
X109964900Y-109716708D01*
X110087913Y-109861531D01*
X111670062Y-108279382D01*
X111750844Y-108225406D01*
X111846132Y-108206452D01*
X111941420Y-108225406D01*
X112006208Y-108264726D01*
X112007745Y-108266016D01*
X112068548Y-108341792D01*
X112095724Y-108435069D01*
X112085136Y-108531645D01*
X112038395Y-108616818D01*
X112023739Y-108632812D01*
X110438624Y-110217927D01*
X110448900Y-110227660D01*
X110729466Y-110440942D01*
X111031434Y-110622629D01*
X111031438Y-110622631D01*
X111351276Y-110770605D01*
X111685254Y-110883134D01*
X111685268Y-110883138D01*
X112029432Y-110958895D01*
X112029447Y-110958897D01*
X112379784Y-110997000D01*
X112732216Y-110997000D01*
X113082552Y-110958897D01*
X113082567Y-110958895D01*
X113426731Y-110883138D01*
X113426745Y-110883134D01*
X113760723Y-110770605D01*
X114080561Y-110622631D01*
X114080565Y-110622629D01*
X114382533Y-110440942D01*
X114663098Y-110227660D01*
X114663101Y-110227657D01*
X114673373Y-110217927D01*
X113085943Y-108630496D01*
X113031967Y-108549714D01*
X113013013Y-108454426D01*
X113031967Y-108359138D01*
X113080852Y-108283599D01*
X113082227Y-108282141D01*
X113161387Y-108225821D01*
X113256078Y-108204078D01*
X113351881Y-108220228D01*
X113434212Y-108271810D01*
X113439455Y-108276901D01*
X115024085Y-109861531D01*
X115147103Y-109716703D01*
X115344872Y-109425017D01*
X115344873Y-109425015D01*
X115509955Y-109113637D01*
X115640392Y-108786262D01*
X115640393Y-108786260D01*
X115734677Y-108446682D01*
X115734679Y-108446675D01*
X115791693Y-108098899D01*
X115810772Y-107747000D01*
X115791693Y-107395100D01*
X115734679Y-107047324D01*
X115734677Y-107047317D01*
X115654293Y-106757802D01*
X115653577Y-106748210D01*
X115646277Y-106728930D01*
X115640394Y-106707743D01*
X115640395Y-106707743D01*
X115577217Y-106549179D01*
X115559555Y-106453642D01*
X115579797Y-106358620D01*
X115634863Y-106278577D01*
X115716367Y-106225699D01*
X115764675Y-106216768D01*
X117264922Y-104716523D01*
X117345704Y-104662547D01*
X117440992Y-104643593D01*
X117536280Y-104662547D01*
X117593889Y-104696064D01*
X117595479Y-104697301D01*
X117659049Y-104770772D01*
X117689663Y-104862978D01*
X117682662Y-104959880D01*
X117639111Y-105046727D01*
X117618652Y-105069899D01*
X116129416Y-106559136D01*
X116324965Y-106712340D01*
X116609678Y-106884455D01*
X116913058Y-107020995D01*
X116913057Y-107020995D01*
X117230662Y-107119965D01*
X117230687Y-107119971D01*
X117557906Y-107179937D01*
X117890000Y-107200025D01*
X118222093Y-107179937D01*
X118549312Y-107119971D01*
X118549337Y-107119965D01*
X118866942Y-107020995D01*
X119170321Y-106884455D01*
X119455036Y-106712339D01*
X119455039Y-106712337D01*
X119650583Y-106559137D01*
X119650583Y-106559136D01*
X118158403Y-105066955D01*
X118104427Y-104986174D01*
X118085473Y-104890886D01*
X118104427Y-104795598D01*
X118151209Y-104722317D01*
X118152570Y-104720839D01*
X118231025Y-104663544D01*
X118325439Y-104640631D01*
X118421435Y-104655593D01*
X118504398Y-104706152D01*
X118511896Y-104713344D01*
X120004136Y-106205583D01*
X120004137Y-106205583D01*
X120157337Y-106010039D01*
X120157339Y-106010036D01*
X120329455Y-105725321D01*
X120465995Y-105421942D01*
X120564965Y-105104337D01*
X120564971Y-105104312D01*
X120624937Y-104777093D01*
X120645025Y-104444999D01*
X120624937Y-104112909D01*
X120607536Y-104017957D01*
X120609002Y-103920813D01*
X120647533Y-103831625D01*
X120717261Y-103763971D01*
X120807571Y-103728150D01*
X120904715Y-103729616D01*
X120993903Y-103768147D01*
X121028527Y-103797001D01*
X121881162Y-104649636D01*
X121890470Y-104660052D01*
X121912492Y-104687666D01*
X121945521Y-104716523D01*
X121962363Y-104731237D01*
X121968480Y-104736955D01*
X121975465Y-104743939D01*
X121975471Y-104743945D01*
X121999788Y-104764246D01*
X122007820Y-104770952D01*
X122082003Y-104835764D01*
X122091050Y-104842337D01*
X122090870Y-104842583D01*
X122095614Y-104845949D01*
X122095788Y-104845699D01*
X122104987Y-104852072D01*
X122190658Y-104900683D01*
X122253424Y-104938183D01*
X122275236Y-104951215D01*
X122275241Y-104951216D01*
X122285318Y-104956070D01*
X122285185Y-104956345D01*
X122290453Y-104958809D01*
X122290580Y-104958531D01*
X122300755Y-104963153D01*
X122393739Y-104995690D01*
X122424485Y-105007229D01*
X122485976Y-105030307D01*
X122485981Y-105030308D01*
X122496761Y-105033283D01*
X122496679Y-105033578D01*
X122502298Y-105035061D01*
X122502373Y-105034765D01*
X122513210Y-105037495D01*
X122513218Y-105037498D01*
X122610523Y-105052909D01*
X122707453Y-105070500D01*
X122707457Y-105070500D01*
X122718592Y-105071503D01*
X122718564Y-105071804D01*
X122724359Y-105072260D01*
X122724380Y-105071958D01*
X122735538Y-105072710D01*
X122735539Y-105072709D01*
X122735540Y-105072710D01*
X122801194Y-105071236D01*
X122834023Y-105070500D01*
X124802872Y-105070500D01*
X124898160Y-105089454D01*
X124972233Y-105136969D01*
X125074259Y-105231635D01*
X125297226Y-105383651D01*
X125540359Y-105500738D01*
X125798228Y-105580280D01*
X126065071Y-105620500D01*
X126065074Y-105620500D01*
X126334926Y-105620500D01*
X126334929Y-105620500D01*
X126601772Y-105580280D01*
X126859641Y-105500738D01*
X127102775Y-105383651D01*
X127325741Y-105231635D01*
X127523561Y-105048085D01*
X127691815Y-104837102D01*
X127826743Y-104603398D01*
X127925334Y-104352195D01*
X127929691Y-104333108D01*
X127939474Y-104290245D01*
X127985383Y-104089103D01*
X127986815Y-104070000D01*
X131029817Y-104070000D01*
X131034220Y-104145612D01*
X131034221Y-104145620D01*
X131090856Y-104466818D01*
X131184401Y-104779276D01*
X131184403Y-104779283D01*
X131313589Y-105078768D01*
X131313596Y-105078782D01*
X131476666Y-105361228D01*
X131671439Y-105622853D01*
X131671441Y-105622855D01*
X131895267Y-105860098D01*
X132145117Y-106069746D01*
X132417631Y-106248981D01*
X132709099Y-106395363D01*
X132709103Y-106395364D01*
X133015593Y-106506916D01*
X133332961Y-106582135D01*
X133570000Y-106609840D01*
X133570000Y-104469000D01*
X133588954Y-104373712D01*
X133642930Y-104292930D01*
X133723712Y-104238954D01*
X133819000Y-104220000D01*
X133821000Y-104220000D01*
X133916288Y-104238954D01*
X133997070Y-104292930D01*
X134051046Y-104373712D01*
X134070000Y-104469000D01*
X134070000Y-106609840D01*
X134307038Y-106582135D01*
X134624406Y-106506916D01*
X134624407Y-106506916D01*
X134930896Y-106395364D01*
X134930900Y-106395363D01*
X135222368Y-106248981D01*
X135494882Y-106069746D01*
X135744732Y-105860098D01*
X135968558Y-105622855D01*
X135968560Y-105622853D01*
X136163333Y-105361228D01*
X136326403Y-105078782D01*
X136326410Y-105078768D01*
X136455596Y-104779283D01*
X136455598Y-104779276D01*
X136549143Y-104466818D01*
X136605778Y-104145620D01*
X136605779Y-104145612D01*
X136610183Y-104070000D01*
X134473986Y-104070000D01*
X134378698Y-104051046D01*
X134297916Y-103997070D01*
X134243940Y-103916288D01*
X134224986Y-103821000D01*
X134224986Y-103819000D01*
X134243940Y-103723712D01*
X134297916Y-103642930D01*
X134378698Y-103588954D01*
X134473986Y-103570000D01*
X136610183Y-103570000D01*
X136605779Y-103494387D01*
X136605778Y-103494379D01*
X136549143Y-103173181D01*
X136455598Y-102860723D01*
X136455596Y-102860716D01*
X136326410Y-102561231D01*
X136326403Y-102561217D01*
X136163333Y-102278771D01*
X135968560Y-102017146D01*
X135968558Y-102017144D01*
X135744740Y-101779909D01*
X135744733Y-101779902D01*
X135695144Y-101738292D01*
X135634332Y-101662523D01*
X135607146Y-101569249D01*
X135606894Y-101528940D01*
X135616808Y-101396643D01*
X135625549Y-101280000D01*
X135606894Y-101031058D01*
X135618675Y-100934622D01*
X135666463Y-100850033D01*
X135695144Y-100821708D01*
X135744732Y-100780098D01*
X135968558Y-100542855D01*
X135968560Y-100542853D01*
X136163333Y-100281228D01*
X136326403Y-99998782D01*
X136326410Y-99998768D01*
X136455596Y-99699283D01*
X136455598Y-99699276D01*
X136549143Y-99386818D01*
X136605778Y-99065620D01*
X136605779Y-99065612D01*
X136610183Y-98990000D01*
X134473986Y-98990000D01*
X134378698Y-98971046D01*
X134297916Y-98917070D01*
X134243940Y-98836288D01*
X134224986Y-98741000D01*
X134224986Y-98739000D01*
X134243940Y-98643712D01*
X134297916Y-98562930D01*
X134378698Y-98508954D01*
X134473986Y-98490000D01*
X136610183Y-98490000D01*
X136605779Y-98414387D01*
X136605778Y-98414379D01*
X136549143Y-98093181D01*
X136455598Y-97780723D01*
X136455596Y-97780716D01*
X136326410Y-97481231D01*
X136326403Y-97481217D01*
X136163333Y-97198771D01*
X135968560Y-96937146D01*
X135968558Y-96937144D01*
X135744740Y-96699909D01*
X135744733Y-96699902D01*
X135695144Y-96658292D01*
X135634332Y-96582523D01*
X135607146Y-96489249D01*
X135606894Y-96448940D01*
X135616171Y-96325148D01*
X135621648Y-96252051D01*
X135647670Y-96158448D01*
X135693879Y-96094593D01*
X138829641Y-92958832D01*
X138840043Y-92949535D01*
X138867666Y-92927508D01*
X138911262Y-92877606D01*
X138916960Y-92871512D01*
X138923945Y-92864529D01*
X138950951Y-92832180D01*
X139015765Y-92757996D01*
X139015773Y-92757981D01*
X139022338Y-92748948D01*
X139022586Y-92749128D01*
X139025948Y-92744389D01*
X139025697Y-92744215D01*
X139032060Y-92735027D01*
X139032069Y-92735018D01*
X139080696Y-92649317D01*
X139131215Y-92564764D01*
X139131218Y-92564754D01*
X139136070Y-92554681D01*
X139136345Y-92554813D01*
X139138808Y-92549550D01*
X139138530Y-92549424D01*
X139143149Y-92539252D01*
X139143154Y-92539245D01*
X139174618Y-92449324D01*
X139175698Y-92446238D01*
X139199010Y-92384123D01*
X139210307Y-92354024D01*
X139210308Y-92354017D01*
X139213285Y-92343235D01*
X139213579Y-92343316D01*
X139215061Y-92337703D01*
X139214765Y-92337629D01*
X139217497Y-92326786D01*
X139232912Y-92229460D01*
X139238443Y-92198981D01*
X139250500Y-92132547D01*
X139250500Y-92132541D01*
X139251503Y-92121408D01*
X139251805Y-92121435D01*
X139252261Y-92115644D01*
X139251959Y-92115624D01*
X139252711Y-92104463D01*
X139250500Y-92005952D01*
X139250500Y-83309117D01*
X139269454Y-83213829D01*
X139323430Y-83133047D01*
X139353129Y-83107681D01*
X139597030Y-82930478D01*
X139826390Y-82715094D01*
X140026947Y-82472663D01*
X140195537Y-82207007D01*
X140329503Y-81922315D01*
X140426731Y-81623079D01*
X140465029Y-81422315D01*
X140485685Y-81314033D01*
X140485687Y-81314021D01*
X140485688Y-81314015D01*
X140505444Y-81000000D01*
X148494556Y-81000000D01*
X148514312Y-81314017D01*
X148514314Y-81314033D01*
X148573267Y-81623070D01*
X148573270Y-81623083D01*
X148670495Y-81922311D01*
X148670497Y-81922315D01*
X148804463Y-82207007D01*
X148973053Y-82472663D01*
X149173610Y-82715094D01*
X149402970Y-82930478D01*
X149402973Y-82930480D01*
X149402975Y-82930482D01*
X149657503Y-83115407D01*
X149657507Y-83115410D01*
X149657516Y-83115416D01*
X149933234Y-83266994D01*
X150225775Y-83382819D01*
X150530527Y-83461066D01*
X150842682Y-83500500D01*
X150842687Y-83500500D01*
X151157313Y-83500500D01*
X151157318Y-83500500D01*
X151469473Y-83461066D01*
X151774225Y-83382819D01*
X152066766Y-83266994D01*
X152342484Y-83115416D01*
X152597030Y-82930478D01*
X152826390Y-82715094D01*
X153026947Y-82472663D01*
X153195537Y-82207007D01*
X153329503Y-81922315D01*
X153426731Y-81623079D01*
X153465029Y-81422315D01*
X153485685Y-81314033D01*
X153485687Y-81314021D01*
X153485688Y-81314015D01*
X153505444Y-81000000D01*
X153485688Y-80685985D01*
X153485686Y-80685975D01*
X153485685Y-80685966D01*
X153453688Y-80518237D01*
X153450209Y-80500000D01*
X161494556Y-80500000D01*
X161514312Y-80814017D01*
X161514314Y-80814033D01*
X161573267Y-81123070D01*
X161573270Y-81123083D01*
X161670495Y-81422311D01*
X161670497Y-81422315D01*
X161804463Y-81707007D01*
X161804465Y-81707010D01*
X161804466Y-81707012D01*
X161831747Y-81750000D01*
X161973053Y-81972663D01*
X162173610Y-82215094D01*
X162402970Y-82430478D01*
X162402973Y-82430480D01*
X162402975Y-82430482D01*
X162657503Y-82615407D01*
X162657507Y-82615410D01*
X162657516Y-82615416D01*
X162933234Y-82766994D01*
X163225775Y-82882819D01*
X163530527Y-82961066D01*
X163842682Y-83000500D01*
X163842687Y-83000500D01*
X164157313Y-83000500D01*
X164157318Y-83000500D01*
X164469473Y-82961066D01*
X164774225Y-82882819D01*
X165066766Y-82766994D01*
X165342484Y-82615416D01*
X165597030Y-82430478D01*
X165826390Y-82215094D01*
X166026947Y-81972663D01*
X166195537Y-81707007D01*
X166329503Y-81422315D01*
X166426731Y-81123079D01*
X166450210Y-80999999D01*
X175994556Y-80999999D01*
X176014312Y-81314017D01*
X176014314Y-81314033D01*
X176073267Y-81623070D01*
X176073270Y-81623083D01*
X176170495Y-81922311D01*
X176170497Y-81922315D01*
X176304463Y-82207007D01*
X176473053Y-82472663D01*
X176673610Y-82715094D01*
X176902970Y-82930478D01*
X177146862Y-83107675D01*
X177212807Y-83179014D01*
X177246434Y-83270164D01*
X177249500Y-83309117D01*
X177249500Y-88922781D01*
X177248717Y-88936718D01*
X177245289Y-88967148D01*
X177244762Y-88971826D01*
X177249218Y-89037916D01*
X177249500Y-89046293D01*
X177249500Y-89056173D01*
X177253277Y-89098122D01*
X177259903Y-89196405D01*
X177261653Y-89207451D01*
X177261352Y-89207498D01*
X177262328Y-89213243D01*
X177262627Y-89213189D01*
X177264623Y-89224189D01*
X177290835Y-89319165D01*
X177314904Y-89414685D01*
X177318598Y-89425241D01*
X177318313Y-89425340D01*
X177320292Y-89430800D01*
X177320575Y-89430694D01*
X177324505Y-89441165D01*
X177324506Y-89441168D01*
X177324507Y-89441170D01*
X177367252Y-89529934D01*
X177367253Y-89529935D01*
X177407991Y-89619623D01*
X177413512Y-89629353D01*
X177413247Y-89629502D01*
X177416171Y-89634523D01*
X177416432Y-89634368D01*
X177422169Y-89643970D01*
X177480078Y-89723676D01*
X177536180Y-89804654D01*
X177543346Y-89813237D01*
X177543113Y-89813431D01*
X177546895Y-89817860D01*
X177547124Y-89817661D01*
X177554480Y-89826080D01*
X177625678Y-89894152D01*
X187093947Y-99362422D01*
X187097808Y-99366460D01*
X187099253Y-99368041D01*
X187152914Y-99426748D01*
X187152918Y-99426751D01*
X187217904Y-99476232D01*
X187222272Y-99479715D01*
X187284983Y-99532069D01*
X187302232Y-99541856D01*
X187316219Y-99551089D01*
X187332005Y-99563108D01*
X187332008Y-99563109D01*
X187332013Y-99563113D01*
X187374329Y-99584673D01*
X187404814Y-99600206D01*
X187409707Y-99602839D01*
X187480755Y-99643153D01*
X187499464Y-99649699D01*
X187514883Y-99656289D01*
X187532565Y-99665299D01*
X187610859Y-99688809D01*
X187616089Y-99690508D01*
X187693218Y-99717498D01*
X187712799Y-99720598D01*
X187729150Y-99724331D01*
X187742426Y-99728317D01*
X187748149Y-99730036D01*
X187829367Y-99739186D01*
X187834851Y-99739929D01*
X187915540Y-99752710D01*
X187935373Y-99752264D01*
X187952116Y-99753017D01*
X187953997Y-99753228D01*
X187971827Y-99755238D01*
X188053346Y-99749741D01*
X188058869Y-99749493D01*
X188140578Y-99747660D01*
X188160022Y-99743678D01*
X188176617Y-99741430D01*
X188196412Y-99740096D01*
X188275604Y-99720140D01*
X188281051Y-99718897D01*
X188297356Y-99715559D01*
X188347295Y-99710500D01*
X195079573Y-99710500D01*
X195174861Y-99729454D01*
X195255643Y-99783430D01*
X195300276Y-99844213D01*
X195310302Y-99863407D01*
X195310303Y-99863409D01*
X195310306Y-99863413D01*
X195325440Y-99881973D01*
X195370968Y-99967800D01*
X195380185Y-100064517D01*
X195351688Y-100157399D01*
X195351004Y-100158660D01*
X195312427Y-100229308D01*
X195312425Y-100229312D01*
X195265973Y-100353857D01*
X195219923Y-100477322D01*
X195191687Y-100607121D01*
X195169086Y-100711019D01*
X195163657Y-100735974D01*
X195144773Y-101000000D01*
X195163657Y-101264026D01*
X195219923Y-101522678D01*
X195237293Y-101569249D01*
X195312425Y-101770687D01*
X195312427Y-101770691D01*
X195317460Y-101779909D01*
X195439284Y-102003011D01*
X195597913Y-102214915D01*
X195785085Y-102402087D01*
X195996989Y-102560716D01*
X196229311Y-102687574D01*
X196477322Y-102780077D01*
X196735974Y-102836343D01*
X197000000Y-102855227D01*
X197264026Y-102836343D01*
X197522678Y-102780077D01*
X197770689Y-102687574D01*
X198003011Y-102560716D01*
X198214915Y-102402087D01*
X198402087Y-102214915D01*
X198560716Y-102003011D01*
X198687574Y-101770689D01*
X198780077Y-101522678D01*
X198836343Y-101264026D01*
X198855227Y-101000000D01*
X198836343Y-100735974D01*
X198780077Y-100477322D01*
X198687574Y-100229311D01*
X198648994Y-100158658D01*
X198619964Y-100065943D01*
X198628623Y-99969175D01*
X198673655Y-99883087D01*
X198674230Y-99882375D01*
X198689698Y-99863407D01*
X198783909Y-99683049D01*
X198839886Y-99487418D01*
X198850500Y-99368037D01*
X198850499Y-97551964D01*
X198839886Y-97432582D01*
X198783909Y-97236951D01*
X198689698Y-97056593D01*
X198561109Y-96898891D01*
X198403407Y-96770302D01*
X198403402Y-96770299D01*
X198223053Y-96676093D01*
X198223052Y-96676092D01*
X198223049Y-96676091D01*
X198027418Y-96620114D01*
X198003541Y-96617991D01*
X197908041Y-96609500D01*
X197908037Y-96609500D01*
X196870144Y-96609500D01*
X196091961Y-96609501D01*
X195972585Y-96620113D01*
X195776954Y-96676090D01*
X195776946Y-96676093D01*
X195596597Y-96770299D01*
X195596592Y-96770302D01*
X195438893Y-96898889D01*
X195438889Y-96898893D01*
X195310302Y-97056592D01*
X195310302Y-97056593D01*
X195300276Y-97075785D01*
X195239360Y-97151469D01*
X195154117Y-97198080D01*
X195079573Y-97209500D01*
X188581114Y-97209500D01*
X188485826Y-97190546D01*
X188405044Y-97136570D01*
X179823430Y-88554956D01*
X179769454Y-88474174D01*
X179750500Y-88378886D01*
X179750500Y-88141958D01*
X184199500Y-88141958D01*
X184199501Y-89858039D01*
X184210113Y-89977414D01*
X184266090Y-90173045D01*
X184266093Y-90173053D01*
X184323678Y-90283295D01*
X184360302Y-90353407D01*
X184488891Y-90511109D01*
X184646593Y-90639698D01*
X184826951Y-90733909D01*
X185022582Y-90789886D01*
X185141963Y-90800500D01*
X186451914Y-90800499D01*
X186547201Y-90819453D01*
X186627982Y-90873429D01*
X186681959Y-90954211D01*
X186698896Y-91039362D01*
X186700001Y-91039314D01*
X186700314Y-91046488D01*
X186700913Y-91049499D01*
X186700529Y-91051425D01*
X186704779Y-91148772D01*
X186825117Y-91249746D01*
X187097631Y-91428981D01*
X187389099Y-91575363D01*
X187389103Y-91575364D01*
X187695593Y-91686916D01*
X188012960Y-91762135D01*
X188336920Y-91800000D01*
X188663080Y-91800000D01*
X188987039Y-91762135D01*
X189304406Y-91686916D01*
X189304407Y-91686916D01*
X189610896Y-91575364D01*
X189610900Y-91575363D01*
X189902368Y-91428981D01*
X190174888Y-91249743D01*
X190295218Y-91148772D01*
X188782136Y-89635689D01*
X188728160Y-89554907D01*
X188709206Y-89459619D01*
X188728160Y-89364331D01*
X188782133Y-89283552D01*
X188783552Y-89282133D01*
X188864331Y-89228160D01*
X188959619Y-89209206D01*
X189054907Y-89228160D01*
X189135689Y-89282136D01*
X190651907Y-90798353D01*
X190843330Y-90541231D01*
X190843335Y-90541224D01*
X191006403Y-90258782D01*
X191006410Y-90258768D01*
X191135596Y-89959283D01*
X191135598Y-89959276D01*
X191229143Y-89646818D01*
X191285778Y-89325620D01*
X191285779Y-89325613D01*
X191304744Y-89000000D01*
X191285779Y-88674386D01*
X191285778Y-88674379D01*
X191229143Y-88353181D01*
X191135598Y-88040723D01*
X191135596Y-88040716D01*
X191006410Y-87741231D01*
X191006403Y-87741217D01*
X190843333Y-87458771D01*
X190651908Y-87201644D01*
X189135689Y-88717863D01*
X189054907Y-88771839D01*
X188959619Y-88790793D01*
X188864331Y-88771839D01*
X188783549Y-88717863D01*
X188782135Y-88716449D01*
X188728159Y-88635667D01*
X188709205Y-88540379D01*
X188728159Y-88445091D01*
X188782135Y-88364309D01*
X190295218Y-86851226D01*
X190174882Y-86750253D01*
X189902368Y-86571018D01*
X189610900Y-86424636D01*
X189610896Y-86424635D01*
X189304406Y-86313083D01*
X188987039Y-86237864D01*
X188663080Y-86200000D01*
X188336920Y-86200000D01*
X188012960Y-86237864D01*
X187695593Y-86313083D01*
X187695592Y-86313083D01*
X187389103Y-86424635D01*
X187389099Y-86424636D01*
X187097631Y-86571018D01*
X186825117Y-86750252D01*
X186825116Y-86750253D01*
X186704779Y-86851227D01*
X186700529Y-86948569D01*
X186700914Y-86950500D01*
X186700313Y-86953516D01*
X186700001Y-86960685D01*
X186698897Y-86960636D01*
X186681960Y-87045788D01*
X186627984Y-87126570D01*
X186547202Y-87180546D01*
X186451914Y-87199500D01*
X185141961Y-87199501D01*
X185022585Y-87210113D01*
X184826954Y-87266090D01*
X184826946Y-87266093D01*
X184646597Y-87360299D01*
X184646592Y-87360302D01*
X184488893Y-87488889D01*
X184488889Y-87488893D01*
X184360302Y-87646592D01*
X184360299Y-87646597D01*
X184266093Y-87826946D01*
X184266090Y-87826954D01*
X184210115Y-88022578D01*
X184210114Y-88022582D01*
X184199500Y-88141958D01*
X179750500Y-88141958D01*
X179750500Y-83309117D01*
X179769454Y-83213829D01*
X179823430Y-83133047D01*
X179853129Y-83107681D01*
X180097030Y-82930478D01*
X180326390Y-82715094D01*
X180526947Y-82472663D01*
X180695537Y-82207007D01*
X180829503Y-81922315D01*
X180926731Y-81623079D01*
X180965029Y-81422315D01*
X180985685Y-81314033D01*
X180985687Y-81314021D01*
X180985688Y-81314015D01*
X181005444Y-81000000D01*
X180985688Y-80685985D01*
X180985686Y-80685975D01*
X180985685Y-80685966D01*
X180953688Y-80518237D01*
X180926731Y-80376921D01*
X180829503Y-80077685D01*
X180695537Y-79792993D01*
X180526947Y-79527337D01*
X180326390Y-79284906D01*
X180097030Y-79069522D01*
X180097027Y-79069519D01*
X180097024Y-79069517D01*
X180094617Y-79067768D01*
X195145787Y-79067768D01*
X195175413Y-79337012D01*
X195175414Y-79337018D01*
X195237490Y-79574461D01*
X195243928Y-79599088D01*
X195349869Y-79848387D01*
X195349872Y-79848394D01*
X195490976Y-80079601D01*
X195490978Y-80079605D01*
X195490982Y-80079610D01*
X195490987Y-80079616D01*
X195490990Y-80079620D01*
X195664254Y-80287819D01*
X195664255Y-80287820D01*
X195861838Y-80464855D01*
X195865996Y-80468580D01*
X195865999Y-80468583D01*
X196091903Y-80618040D01*
X196091906Y-80618041D01*
X196091910Y-80618044D01*
X196337176Y-80733020D01*
X196596569Y-80811060D01*
X196864561Y-80850500D01*
X196864567Y-80850500D01*
X197067634Y-80850500D01*
X197092610Y-80848671D01*
X197270156Y-80835677D01*
X197534553Y-80776780D01*
X197787558Y-80680014D01*
X197835817Y-80652929D01*
X198023773Y-80547444D01*
X198132615Y-80463400D01*
X198238177Y-80381888D01*
X198426186Y-80186881D01*
X198583799Y-79966579D01*
X198707656Y-79725675D01*
X198759243Y-79574463D01*
X198795117Y-79469309D01*
X198819554Y-79337012D01*
X198844319Y-79202933D01*
X198854212Y-78932235D01*
X198824586Y-78662982D01*
X198756072Y-78400912D01*
X198650130Y-78151610D01*
X198509018Y-77920390D01*
X198407334Y-77798204D01*
X198335745Y-77712180D01*
X198285024Y-77666734D01*
X198134002Y-77531418D01*
X198134000Y-77531416D01*
X197908096Y-77381959D01*
X197775900Y-77319988D01*
X197662824Y-77266980D01*
X197403431Y-77188940D01*
X197403427Y-77188939D01*
X197403426Y-77188939D01*
X197341715Y-77179857D01*
X197135439Y-77149500D01*
X196932369Y-77149500D01*
X196932366Y-77149500D01*
X196869487Y-77154102D01*
X196729844Y-77164323D01*
X196729840Y-77164323D01*
X196729837Y-77164324D01*
X196465442Y-77223221D01*
X196212436Y-77319988D01*
X195976226Y-77452555D01*
X195761826Y-77618108D01*
X195573811Y-77813122D01*
X195416204Y-78033416D01*
X195416199Y-78033424D01*
X195292344Y-78274323D01*
X195292343Y-78274325D01*
X195204882Y-78530690D01*
X195155681Y-78797062D01*
X195155680Y-78797073D01*
X195145788Y-79067765D01*
X195145787Y-79067768D01*
X180094617Y-79067768D01*
X179842496Y-78884592D01*
X179842485Y-78884585D01*
X179842486Y-78884585D01*
X179842484Y-78884584D01*
X179683283Y-78797062D01*
X179566769Y-78733007D01*
X179500703Y-78706850D01*
X179274225Y-78617181D01*
X179274218Y-78617179D01*
X179274215Y-78617178D01*
X179083002Y-78568083D01*
X178969473Y-78538934D01*
X178657318Y-78499500D01*
X178342682Y-78499500D01*
X178030526Y-78538933D01*
X178030527Y-78538934D01*
X177725784Y-78617178D01*
X177725778Y-78617180D01*
X177725775Y-78617181D01*
X177610095Y-78662982D01*
X177433230Y-78733007D01*
X177157514Y-78884585D01*
X177157503Y-78884592D01*
X176902975Y-79069517D01*
X176673609Y-79284907D01*
X176473051Y-79527339D01*
X176304466Y-79792987D01*
X176170495Y-80077688D01*
X176073270Y-80376916D01*
X176073267Y-80376929D01*
X176014314Y-80685966D01*
X176014312Y-80685982D01*
X175994556Y-80999999D01*
X166450210Y-80999999D01*
X166485688Y-80814015D01*
X166505444Y-80500000D01*
X166485688Y-80185985D01*
X166485686Y-80185975D01*
X166485685Y-80185966D01*
X166434368Y-79916957D01*
X166426731Y-79876921D01*
X166329503Y-79577685D01*
X166195537Y-79292993D01*
X166026947Y-79027337D01*
X165826390Y-78784906D01*
X165597030Y-78569522D01*
X165597027Y-78569519D01*
X165597024Y-78569517D01*
X165342496Y-78384592D01*
X165342485Y-78384585D01*
X165342486Y-78384585D01*
X165342484Y-78384584D01*
X165141925Y-78274325D01*
X165066769Y-78233007D01*
X165010692Y-78210804D01*
X164774225Y-78117181D01*
X164774218Y-78117179D01*
X164774215Y-78117178D01*
X164583002Y-78068083D01*
X164469473Y-78038934D01*
X164157318Y-77999500D01*
X163842682Y-77999500D01*
X163574144Y-78033424D01*
X163530527Y-78038934D01*
X163225784Y-78117178D01*
X163225778Y-78117180D01*
X163225775Y-78117181D01*
X163138830Y-78151605D01*
X162933230Y-78233007D01*
X162657514Y-78384585D01*
X162657503Y-78384592D01*
X162402975Y-78569517D01*
X162173609Y-78784907D01*
X161973051Y-79027339D01*
X161804466Y-79292987D01*
X161670495Y-79577688D01*
X161573270Y-79876916D01*
X161573267Y-79876929D01*
X161514314Y-80185966D01*
X161514312Y-80185982D01*
X161494556Y-80500000D01*
X153450209Y-80500000D01*
X153426731Y-80376921D01*
X153329503Y-80077685D01*
X153195537Y-79792993D01*
X153026947Y-79527337D01*
X152826390Y-79284906D01*
X152597030Y-79069522D01*
X152597027Y-79069519D01*
X152597024Y-79069517D01*
X152342496Y-78884592D01*
X152342485Y-78884585D01*
X152342486Y-78884585D01*
X152342484Y-78884584D01*
X152183283Y-78797062D01*
X152066769Y-78733007D01*
X152000703Y-78706850D01*
X151774225Y-78617181D01*
X151774218Y-78617179D01*
X151774215Y-78617178D01*
X151583002Y-78568083D01*
X151469473Y-78538934D01*
X151157318Y-78499500D01*
X150842682Y-78499500D01*
X150530527Y-78538934D01*
X150225784Y-78617178D01*
X150225778Y-78617180D01*
X150225775Y-78617181D01*
X150110095Y-78662982D01*
X149933230Y-78733007D01*
X149657514Y-78884585D01*
X149657503Y-78884592D01*
X149402975Y-79069517D01*
X149173609Y-79284907D01*
X148973051Y-79527339D01*
X148804466Y-79792987D01*
X148670495Y-80077688D01*
X148573270Y-80376916D01*
X148573267Y-80376929D01*
X148514314Y-80685966D01*
X148514312Y-80685982D01*
X148494556Y-81000000D01*
X140505444Y-81000000D01*
X140485688Y-80685985D01*
X140485686Y-80685975D01*
X140485685Y-80685966D01*
X140453688Y-80518237D01*
X140426731Y-80376921D01*
X140329503Y-80077685D01*
X140195537Y-79792993D01*
X140026947Y-79527337D01*
X139826390Y-79284906D01*
X139597030Y-79069522D01*
X139597027Y-79069519D01*
X139597024Y-79069517D01*
X139342496Y-78884592D01*
X139342485Y-78884585D01*
X139342486Y-78884585D01*
X139342484Y-78884584D01*
X139183283Y-78797062D01*
X139066769Y-78733007D01*
X139000703Y-78706850D01*
X138774225Y-78617181D01*
X138774218Y-78617179D01*
X138774215Y-78617178D01*
X138583002Y-78568083D01*
X138469473Y-78538934D01*
X138157318Y-78499500D01*
X137842682Y-78499500D01*
X137530527Y-78538934D01*
X137225784Y-78617178D01*
X137225778Y-78617180D01*
X137225775Y-78617181D01*
X137110095Y-78662982D01*
X136933230Y-78733007D01*
X136657514Y-78884585D01*
X136657503Y-78884592D01*
X136402975Y-79069517D01*
X136173609Y-79284907D01*
X135973051Y-79527339D01*
X135804466Y-79792987D01*
X135670495Y-80077688D01*
X135573270Y-80376916D01*
X135573267Y-80376929D01*
X135514314Y-80685966D01*
X135514312Y-80685982D01*
X135494556Y-80999999D01*
X135514312Y-81314017D01*
X135514314Y-81314033D01*
X135573267Y-81623070D01*
X135573270Y-81623083D01*
X135670495Y-81922311D01*
X135670497Y-81922315D01*
X135804463Y-82207007D01*
X135973053Y-82472663D01*
X136173610Y-82715094D01*
X136402970Y-82930478D01*
X136646862Y-83107675D01*
X136712807Y-83179014D01*
X136746434Y-83270164D01*
X136749500Y-83309117D01*
X136749500Y-91398886D01*
X136730546Y-91494174D01*
X136676570Y-91574956D01*
X133924956Y-94326570D01*
X133844174Y-94380546D01*
X133748886Y-94399500D01*
X133685071Y-94399500D01*
X133484938Y-94429665D01*
X133418227Y-94439720D01*
X133160353Y-94519264D01*
X132917227Y-94636348D01*
X132694257Y-94788366D01*
X132496437Y-94971916D01*
X132328189Y-95182892D01*
X132328188Y-95182892D01*
X132193257Y-95416601D01*
X132193256Y-95416604D01*
X132094667Y-95667801D01*
X132094663Y-95667812D01*
X132034616Y-95930899D01*
X132014451Y-96200000D01*
X132033105Y-96448940D01*
X132021324Y-96545378D01*
X131973535Y-96629967D01*
X131944859Y-96658288D01*
X131895261Y-96699907D01*
X131671441Y-96937144D01*
X131671439Y-96937146D01*
X131476666Y-97198771D01*
X131313596Y-97481217D01*
X131313589Y-97481231D01*
X131184403Y-97780716D01*
X131184401Y-97780723D01*
X131090856Y-98093181D01*
X131034221Y-98414379D01*
X131034220Y-98414387D01*
X131029817Y-98490000D01*
X133166014Y-98490000D01*
X133261302Y-98508954D01*
X133342084Y-98562930D01*
X133396060Y-98643712D01*
X133415014Y-98739000D01*
X133415014Y-98741000D01*
X133396060Y-98836288D01*
X133342084Y-98917070D01*
X133261302Y-98971046D01*
X133166014Y-98990000D01*
X131029817Y-98990000D01*
X131034220Y-99065612D01*
X131034221Y-99065620D01*
X131090856Y-99386818D01*
X131184401Y-99699276D01*
X131184403Y-99699283D01*
X131313589Y-99998768D01*
X131313596Y-99998782D01*
X131476666Y-100281228D01*
X131671439Y-100542853D01*
X131671441Y-100542855D01*
X131895262Y-100780093D01*
X131944855Y-100821706D01*
X132005666Y-100897476D01*
X132032853Y-100990749D01*
X132033105Y-101031058D01*
X132014451Y-101279999D01*
X132033105Y-101528940D01*
X132021324Y-101625378D01*
X131973535Y-101709967D01*
X131944859Y-101738288D01*
X131895261Y-101779907D01*
X131671441Y-102017144D01*
X131671439Y-102017146D01*
X131476666Y-102278771D01*
X131313596Y-102561217D01*
X131313589Y-102561231D01*
X131184403Y-102860716D01*
X131184401Y-102860723D01*
X131090856Y-103173181D01*
X131034221Y-103494379D01*
X131034220Y-103494387D01*
X131029817Y-103570000D01*
X133166014Y-103570000D01*
X133261302Y-103588954D01*
X133342084Y-103642930D01*
X133396060Y-103723712D01*
X133415014Y-103819000D01*
X133415014Y-103821000D01*
X133396060Y-103916288D01*
X133342084Y-103997070D01*
X133261302Y-104051046D01*
X133166014Y-104070000D01*
X131029817Y-104070000D01*
X127986815Y-104070000D01*
X128005549Y-103820000D01*
X127985383Y-103550897D01*
X127934070Y-103326078D01*
X127925336Y-103287812D01*
X127925334Y-103287809D01*
X127925334Y-103287805D01*
X127826743Y-103036602D01*
X127691815Y-102802898D01*
X127670936Y-102776717D01*
X127613942Y-102705248D01*
X127569350Y-102618931D01*
X127561184Y-102522120D01*
X127590687Y-102429553D01*
X127613934Y-102394760D01*
X127691815Y-102297102D01*
X127826743Y-102063398D01*
X127925334Y-101812195D01*
X127934808Y-101770689D01*
X127948667Y-101709967D01*
X127985383Y-101549103D01*
X128005549Y-101280000D01*
X127985383Y-101010897D01*
X127942202Y-100821708D01*
X127925336Y-100747812D01*
X127925334Y-100747809D01*
X127925334Y-100747805D01*
X127826743Y-100496602D01*
X127691815Y-100262898D01*
X127691813Y-100262895D01*
X127691811Y-100262892D01*
X127691809Y-100262891D01*
X127665031Y-100229313D01*
X127613942Y-100165249D01*
X127569350Y-100078933D01*
X127561184Y-99982122D01*
X127590687Y-99889555D01*
X127613943Y-99854750D01*
X127691815Y-99757102D01*
X127826743Y-99523398D01*
X127925334Y-99272195D01*
X127985383Y-99009103D01*
X128005549Y-98740000D01*
X127985383Y-98470897D01*
X127932705Y-98240098D01*
X127925336Y-98207812D01*
X127925334Y-98207809D01*
X127925334Y-98207805D01*
X127826743Y-97956602D01*
X127781703Y-97878590D01*
X127750474Y-97786594D01*
X127756828Y-97689647D01*
X127799799Y-97602511D01*
X127804338Y-97596771D01*
X127839698Y-97553407D01*
X127933909Y-97373049D01*
X127989886Y-97177418D01*
X128000500Y-97058037D01*
X128000499Y-95341964D01*
X128000498Y-95341958D01*
X127989886Y-95222585D01*
X127989886Y-95222582D01*
X127933909Y-95026951D01*
X127839698Y-94846593D01*
X127711109Y-94688891D01*
X127553407Y-94560302D01*
X127553402Y-94560299D01*
X127373053Y-94466093D01*
X127373052Y-94466092D01*
X127373049Y-94466091D01*
X127177418Y-94410114D01*
X127153541Y-94407991D01*
X127058041Y-94399500D01*
X127058037Y-94399500D01*
X126077220Y-94399500D01*
X125341961Y-94399501D01*
X125222585Y-94410113D01*
X125026954Y-94466090D01*
X125026946Y-94466093D01*
X124846597Y-94560299D01*
X124846592Y-94560302D01*
X124688893Y-94688889D01*
X124688889Y-94688893D01*
X124560302Y-94846592D01*
X124560299Y-94846597D01*
X124466093Y-95026946D01*
X124466090Y-95026954D01*
X124410115Y-95222578D01*
X124410114Y-95222582D01*
X124399500Y-95341958D01*
X124399501Y-97058039D01*
X124410113Y-97177414D01*
X124410113Y-97177417D01*
X124410114Y-97177418D01*
X124427150Y-97236954D01*
X124466090Y-97373045D01*
X124466093Y-97373053D01*
X124559546Y-97551961D01*
X124560302Y-97553407D01*
X124587402Y-97586643D01*
X124595634Y-97596738D01*
X124641161Y-97682566D01*
X124650377Y-97779283D01*
X124621881Y-97872165D01*
X124618296Y-97878591D01*
X124573259Y-97956597D01*
X124573250Y-97956617D01*
X124474668Y-98207796D01*
X124474663Y-98207812D01*
X124414616Y-98470899D01*
X124394451Y-98740000D01*
X124414616Y-99009100D01*
X124474663Y-99272187D01*
X124474667Y-99272198D01*
X124523961Y-99397796D01*
X124573257Y-99523398D01*
X124708185Y-99757102D01*
X124708189Y-99757107D01*
X124786057Y-99854751D01*
X124830650Y-99941068D01*
X124838815Y-100037880D01*
X124809311Y-100130446D01*
X124786057Y-100165249D01*
X124708189Y-100262892D01*
X124708188Y-100262892D01*
X124573257Y-100496601D01*
X124573256Y-100496604D01*
X124474667Y-100747801D01*
X124474663Y-100747812D01*
X124414616Y-101010899D01*
X124394451Y-101280000D01*
X124414616Y-101549100D01*
X124474663Y-101812187D01*
X124474667Y-101812198D01*
X124511089Y-101904999D01*
X124571813Y-102059720D01*
X124573256Y-102063395D01*
X124573260Y-102063404D01*
X124649815Y-102196001D01*
X124681044Y-102288000D01*
X124674689Y-102384947D01*
X124631719Y-102472082D01*
X124558673Y-102536141D01*
X124466674Y-102567370D01*
X124434174Y-102569500D01*
X123441114Y-102569500D01*
X123345826Y-102550546D01*
X123265044Y-102496570D01*
X122823430Y-102054956D01*
X122769454Y-101974174D01*
X122750500Y-101878886D01*
X122750500Y-87121113D01*
X122769454Y-87025825D01*
X122823430Y-86945043D01*
X124207310Y-85561163D01*
X126252565Y-83515907D01*
X126333344Y-83461934D01*
X126428632Y-83442980D01*
X126490554Y-83450802D01*
X126530527Y-83461066D01*
X126842682Y-83500500D01*
X126842687Y-83500500D01*
X127157313Y-83500500D01*
X127157318Y-83500500D01*
X127469473Y-83461066D01*
X127774225Y-83382819D01*
X128066766Y-83266994D01*
X128342484Y-83115416D01*
X128597030Y-82930478D01*
X128826390Y-82715094D01*
X129026947Y-82472663D01*
X129195537Y-82207007D01*
X129329503Y-81922315D01*
X129426731Y-81623079D01*
X129465029Y-81422315D01*
X129485685Y-81314033D01*
X129485687Y-81314021D01*
X129485688Y-81314015D01*
X129505444Y-81000000D01*
X129485688Y-80685985D01*
X129485686Y-80685975D01*
X129485685Y-80685966D01*
X129453688Y-80518237D01*
X129426731Y-80376921D01*
X129329503Y-80077685D01*
X129195537Y-79792993D01*
X129026947Y-79527337D01*
X128826390Y-79284906D01*
X128597030Y-79069522D01*
X128597027Y-79069519D01*
X128597024Y-79069517D01*
X128342496Y-78884592D01*
X128342485Y-78884585D01*
X128342486Y-78884585D01*
X128342484Y-78884584D01*
X128183283Y-78797062D01*
X128066769Y-78733007D01*
X128000703Y-78706850D01*
X127774225Y-78617181D01*
X127774218Y-78617179D01*
X127774215Y-78617178D01*
X127583002Y-78568083D01*
X127469473Y-78538934D01*
X127157318Y-78499500D01*
X126842682Y-78499500D01*
X126530527Y-78538934D01*
X126225784Y-78617178D01*
X126225778Y-78617180D01*
X126225775Y-78617181D01*
X126110095Y-78662982D01*
X125933230Y-78733007D01*
X125657514Y-78884585D01*
X125657503Y-78884592D01*
X125402975Y-79069517D01*
X125173609Y-79284907D01*
X124973051Y-79527339D01*
X124804466Y-79792987D01*
X124670495Y-80077688D01*
X124573270Y-80376916D01*
X124573267Y-80376929D01*
X124514314Y-80685966D01*
X124514312Y-80685982D01*
X124494556Y-81000000D01*
X124514312Y-81314017D01*
X124514313Y-81314021D01*
X124554200Y-81523117D01*
X124553436Y-81620269D01*
X124515553Y-81709733D01*
X124485680Y-81745844D01*
X120670360Y-85561163D01*
X120659945Y-85570471D01*
X120632340Y-85592485D01*
X120632335Y-85592490D01*
X120588750Y-85642375D01*
X120583039Y-85648484D01*
X120576073Y-85655451D01*
X120576047Y-85655480D01*
X120549049Y-85687818D01*
X120484236Y-85762001D01*
X120477663Y-85771049D01*
X120477420Y-85770872D01*
X120474053Y-85775618D01*
X120474300Y-85775789D01*
X120467933Y-85784978D01*
X120419316Y-85870659D01*
X120368782Y-85955240D01*
X120363933Y-85965310D01*
X120363661Y-85965179D01*
X120361194Y-85970452D01*
X120361470Y-85970578D01*
X120356846Y-85980756D01*
X120324307Y-86073747D01*
X120289692Y-86165976D01*
X120286718Y-86176755D01*
X120286427Y-86176674D01*
X120284941Y-86182302D01*
X120285234Y-86182376D01*
X120282500Y-86193223D01*
X120267089Y-86290527D01*
X120249499Y-86387460D01*
X120248497Y-86398594D01*
X120248195Y-86398566D01*
X120247739Y-86404359D01*
X120248042Y-86404380D01*
X120247289Y-86415538D01*
X120249500Y-86514022D01*
X120249500Y-102422784D01*
X120248716Y-102436726D01*
X120247322Y-102449104D01*
X120245812Y-102462502D01*
X120216304Y-102555068D01*
X120153619Y-102629295D01*
X120067301Y-102673883D01*
X120008132Y-102680419D01*
X119959888Y-102728664D01*
X119879106Y-102782640D01*
X119783818Y-102801594D01*
X119688530Y-102782640D01*
X119607749Y-102728663D01*
X119553773Y-102647881D01*
X119534819Y-102552593D01*
X119552019Y-102461656D01*
X119553849Y-102456994D01*
X119606291Y-102375215D01*
X119609577Y-102371867D01*
X119650583Y-102330861D01*
X119647736Y-102283795D01*
X119626608Y-102219435D01*
X119625488Y-102170810D01*
X119625800Y-102166634D01*
X119625802Y-102166630D01*
X119645408Y-101905000D01*
X119625802Y-101643370D01*
X119567420Y-101387584D01*
X119525196Y-101279999D01*
X119471571Y-101143364D01*
X119471569Y-101143361D01*
X119471568Y-101143357D01*
X119471563Y-101143348D01*
X119340387Y-100916144D01*
X119239989Y-100790249D01*
X119195397Y-100703932D01*
X119187231Y-100607121D01*
X119216734Y-100514554D01*
X119239989Y-100479751D01*
X119260941Y-100453476D01*
X119340386Y-100353857D01*
X119471568Y-100126643D01*
X119567420Y-99882416D01*
X119625802Y-99626630D01*
X119645408Y-99365000D01*
X119625802Y-99103370D01*
X119567420Y-98847584D01*
X119481625Y-98628981D01*
X119471571Y-98603364D01*
X119471569Y-98603361D01*
X119471568Y-98603357D01*
X119454633Y-98574024D01*
X119340387Y-98376144D01*
X119239989Y-98250249D01*
X119195397Y-98163932D01*
X119187231Y-98067121D01*
X119216734Y-97974554D01*
X119239989Y-97939751D01*
X119293887Y-97872165D01*
X119340386Y-97813857D01*
X119471568Y-97586643D01*
X119567420Y-97342416D01*
X119625802Y-97086630D01*
X119645408Y-96825000D01*
X119625802Y-96563370D01*
X119567420Y-96307584D01*
X119511660Y-96165509D01*
X119471571Y-96063364D01*
X119471569Y-96063361D01*
X119471568Y-96063357D01*
X119470658Y-96061780D01*
X119340387Y-95836144D01*
X119176805Y-95631019D01*
X119176794Y-95631008D01*
X118984479Y-95452567D01*
X118767707Y-95304773D01*
X118767702Y-95304771D01*
X118531331Y-95190940D01*
X118531326Y-95190938D01*
X118531323Y-95190937D01*
X118280615Y-95113604D01*
X118021182Y-95074500D01*
X117758818Y-95074500D01*
X117629101Y-95094052D01*
X117499381Y-95113604D01*
X117499377Y-95113605D01*
X117422891Y-95137198D01*
X117326249Y-95147172D01*
X117233147Y-95119404D01*
X117157759Y-95058120D01*
X117111561Y-94972652D01*
X117100499Y-94899260D01*
X117100499Y-94746961D01*
X117091765Y-94648716D01*
X117089886Y-94627582D01*
X117033909Y-94431951D01*
X116939698Y-94251593D01*
X116811109Y-94093891D01*
X116653407Y-93965302D01*
X116653402Y-93965299D01*
X116473053Y-93871093D01*
X116473052Y-93871092D01*
X116473049Y-93871091D01*
X116277418Y-93815114D01*
X116253541Y-93812991D01*
X116158041Y-93804500D01*
X115803546Y-93804500D01*
X115708258Y-93785546D01*
X115627476Y-93731570D01*
X115573500Y-93650788D01*
X115554546Y-93555500D01*
X115572231Y-93463335D01*
X115640394Y-93292258D01*
X115734677Y-92952682D01*
X115734679Y-92952675D01*
X115791693Y-92604899D01*
X115810772Y-92252999D01*
X115791693Y-91901100D01*
X115734679Y-91553324D01*
X115734677Y-91553317D01*
X115640393Y-91213739D01*
X115640392Y-91213737D01*
X115509955Y-90886362D01*
X115344873Y-90574984D01*
X115344872Y-90574982D01*
X115147103Y-90283295D01*
X115024084Y-90138467D01*
X113441934Y-91720616D01*
X113361153Y-91774592D01*
X113265865Y-91793546D01*
X113170577Y-91774592D01*
X113105728Y-91735221D01*
X113104192Y-91733931D01*
X113043413Y-91658135D01*
X113016267Y-91564850D01*
X113026886Y-91468277D01*
X113073654Y-91383119D01*
X113088259Y-91367186D01*
X114673373Y-89782071D01*
X114663099Y-89772339D01*
X114382533Y-89559057D01*
X114080565Y-89377370D01*
X114080561Y-89377368D01*
X113760723Y-89229394D01*
X113426745Y-89116865D01*
X113426731Y-89116861D01*
X113082567Y-89041104D01*
X113082552Y-89041102D01*
X112732216Y-89003000D01*
X112379784Y-89003000D01*
X112029447Y-89041102D01*
X112029432Y-89041104D01*
X111685268Y-89116861D01*
X111685254Y-89116865D01*
X111351276Y-89229394D01*
X111031438Y-89377368D01*
X111031434Y-89377370D01*
X110729466Y-89559057D01*
X110448902Y-89772338D01*
X110438625Y-89782071D01*
X112026057Y-91369503D01*
X112080033Y-91450285D01*
X112098987Y-91545573D01*
X112080033Y-91640861D01*
X112031148Y-91716400D01*
X112029776Y-91717855D01*
X111950613Y-91774178D01*
X111855922Y-91795921D01*
X111760119Y-91779771D01*
X111677788Y-91728189D01*
X111672545Y-91723098D01*
X110087913Y-90138467D01*
X109964902Y-90283289D01*
X109964897Y-90283295D01*
X109767127Y-90574982D01*
X109767126Y-90574984D01*
X109602044Y-90886362D01*
X109471607Y-91213737D01*
X109471606Y-91213739D01*
X109377322Y-91553317D01*
X109377320Y-91553324D01*
X109320306Y-91901100D01*
X109304156Y-92198981D01*
X109280071Y-92293103D01*
X109221800Y-92370844D01*
X109138215Y-92420367D01*
X109055521Y-92434500D01*
X108932366Y-92434500D01*
X108869487Y-92439102D01*
X108729844Y-92449323D01*
X108729840Y-92449323D01*
X108729837Y-92449324D01*
X108465442Y-92508221D01*
X108212436Y-92604988D01*
X107976226Y-92737555D01*
X107761826Y-92903108D01*
X107573811Y-93098122D01*
X107416204Y-93318416D01*
X107416199Y-93318424D01*
X107292344Y-93559323D01*
X107292343Y-93559325D01*
X107204882Y-93815690D01*
X107155681Y-94082062D01*
X107155680Y-94082073D01*
X107145788Y-94352765D01*
X107145787Y-94352768D01*
X107175413Y-94622012D01*
X107175414Y-94622018D01*
X107243928Y-94884088D01*
X107341462Y-95113605D01*
X107349869Y-95133387D01*
X107349872Y-95133394D01*
X107490976Y-95364601D01*
X107490978Y-95364605D01*
X107490982Y-95364610D01*
X107490987Y-95364616D01*
X107490990Y-95364620D01*
X107618937Y-95518365D01*
X107664255Y-95572820D01*
X107770260Y-95667801D01*
X107865996Y-95753580D01*
X107865999Y-95753583D01*
X108091903Y-95903040D01*
X108091906Y-95903041D01*
X108091910Y-95903044D01*
X108337176Y-96018020D01*
X108596569Y-96096060D01*
X108864561Y-96135500D01*
X108864567Y-96135500D01*
X109067634Y-96135500D01*
X109092610Y-96133671D01*
X109270156Y-96120677D01*
X109534553Y-96061780D01*
X109787558Y-95965014D01*
X109848348Y-95930897D01*
X110023773Y-95832444D01*
X110238173Y-95666891D01*
X110238172Y-95666891D01*
X110238177Y-95666888D01*
X110426186Y-95471881D01*
X110583799Y-95251579D01*
X110616116Y-95188720D01*
X110676540Y-95112646D01*
X110761480Y-95065484D01*
X110858003Y-95054417D01*
X110951413Y-95081129D01*
X110965935Y-95089219D01*
X111031438Y-95128631D01*
X111351276Y-95276605D01*
X111685254Y-95389134D01*
X111685268Y-95389138D01*
X112029432Y-95464895D01*
X112029447Y-95464897D01*
X112379784Y-95503000D01*
X112732216Y-95503000D01*
X113082552Y-95464897D01*
X113082567Y-95464895D01*
X113296972Y-95417701D01*
X113394107Y-95415727D01*
X113484603Y-95451076D01*
X113554683Y-95518365D01*
X113593678Y-95607351D01*
X113599500Y-95660879D01*
X113599501Y-96363039D01*
X113610113Y-96482414D01*
X113610113Y-96482417D01*
X113610114Y-96482418D01*
X113665531Y-96676090D01*
X113666090Y-96678045D01*
X113666093Y-96678053D01*
X113760299Y-96858402D01*
X113760306Y-96858413D01*
X113817063Y-96928020D01*
X113862590Y-97013848D01*
X113871806Y-97110565D01*
X113843309Y-97203446D01*
X113839725Y-97209872D01*
X113768434Y-97333352D01*
X113768428Y-97333364D01*
X113672578Y-97577587D01*
X113614198Y-97833370D01*
X113614197Y-97833374D01*
X113594592Y-98094999D01*
X113614197Y-98356625D01*
X113614198Y-98356629D01*
X113672578Y-98612412D01*
X113768428Y-98856635D01*
X113768436Y-98856651D01*
X113899612Y-99083855D01*
X114000011Y-99209751D01*
X114044603Y-99296068D01*
X114052769Y-99392879D01*
X114023266Y-99485446D01*
X114000011Y-99520249D01*
X113899612Y-99646144D01*
X113768436Y-99873348D01*
X113768428Y-99873364D01*
X113672578Y-100117587D01*
X113614198Y-100373370D01*
X113614197Y-100373374D01*
X113594592Y-100635000D01*
X113614511Y-100900810D01*
X113602730Y-100997248D01*
X113592128Y-101016012D01*
X113589415Y-101060862D01*
X113630423Y-101101870D01*
X113684399Y-101182652D01*
X113686136Y-101186958D01*
X113687964Y-101191615D01*
X113705138Y-101287240D01*
X113684410Y-101382158D01*
X113628936Y-101461919D01*
X113547162Y-101514379D01*
X113451537Y-101531553D01*
X113356619Y-101510825D01*
X113280111Y-101458666D01*
X113235861Y-101414416D01*
X113082658Y-101609966D01*
X112910544Y-101894678D01*
X112774004Y-102198057D01*
X112675034Y-102515662D01*
X112675028Y-102515687D01*
X112615062Y-102842906D01*
X112594974Y-103174999D01*
X112615062Y-103507093D01*
X112675028Y-103834312D01*
X112675034Y-103834337D01*
X112774004Y-104151942D01*
X112776674Y-104158982D01*
X112774470Y-104159817D01*
X112793066Y-104240464D01*
X112777005Y-104336282D01*
X112725498Y-104418660D01*
X112646387Y-104475057D01*
X112551716Y-104496886D01*
X112544180Y-104497000D01*
X112379784Y-104497000D01*
X112029447Y-104535102D01*
X112029432Y-104535104D01*
X111685268Y-104610861D01*
X111685254Y-104610865D01*
X111351276Y-104723394D01*
X111031438Y-104871368D01*
X111031430Y-104871372D01*
X110966679Y-104910331D01*
X110875258Y-104943215D01*
X110778212Y-104938611D01*
X110690315Y-104897219D01*
X110625765Y-104826688D01*
X110509018Y-104635390D01*
X110479362Y-104599755D01*
X110335745Y-104427180D01*
X110252060Y-104352198D01*
X110134002Y-104246418D01*
X110134000Y-104246416D01*
X109908096Y-104096959D01*
X109891338Y-104089103D01*
X109662824Y-103981980D01*
X109403431Y-103903940D01*
X109403427Y-103903939D01*
X109403426Y-103903939D01*
X109341715Y-103894857D01*
X109135439Y-103864500D01*
X108932369Y-103864500D01*
X108932366Y-103864500D01*
X108869487Y-103869102D01*
X108729844Y-103879323D01*
X108729840Y-103879323D01*
X108729837Y-103879324D01*
X108465442Y-103938221D01*
X108212436Y-104034988D01*
X107976226Y-104167555D01*
X107761826Y-104333108D01*
X107573811Y-104528122D01*
X107416204Y-104748416D01*
X107416199Y-104748424D01*
X107292344Y-104989323D01*
X107292343Y-104989325D01*
X107204882Y-105245690D01*
X107155681Y-105512062D01*
X107155680Y-105512073D01*
X107145788Y-105782765D01*
X107145787Y-105782768D01*
X101000500Y-105782768D01*
X101000500Y-81000000D01*
X111495197Y-81000000D01*
X111514396Y-81366350D01*
X111571784Y-81728685D01*
X111666734Y-82083042D01*
X111798204Y-82425536D01*
X111798205Y-82425538D01*
X111964752Y-82752403D01*
X112164551Y-83060067D01*
X112353296Y-83293146D01*
X114114062Y-81532382D01*
X114194844Y-81478406D01*
X114290132Y-81459452D01*
X114385420Y-81478406D01*
X114450147Y-81517674D01*
X114450755Y-81518184D01*
X114450756Y-81518185D01*
X114451686Y-81518965D01*
X114512512Y-81594721D01*
X114539718Y-81687990D01*
X114529161Y-81784569D01*
X114482448Y-81869757D01*
X114467740Y-81885811D01*
X112706851Y-83646701D01*
X112706851Y-83646702D01*
X112939932Y-83835448D01*
X113247596Y-84035247D01*
X113574461Y-84201794D01*
X113574463Y-84201795D01*
X113916957Y-84333265D01*
X114271314Y-84428215D01*
X114633650Y-84485603D01*
X114633649Y-84485603D01*
X114999999Y-84504802D01*
X115366350Y-84485603D01*
X115728685Y-84428215D01*
X116083042Y-84333265D01*
X116425536Y-84201795D01*
X116425538Y-84201794D01*
X116752403Y-84035247D01*
X117060067Y-83835448D01*
X117293147Y-83646702D01*
X117293147Y-83646701D01*
X115529943Y-81883496D01*
X115475967Y-81802714D01*
X115457013Y-81707426D01*
X115475967Y-81612138D01*
X115524852Y-81536599D01*
X115526227Y-81535141D01*
X115605387Y-81478821D01*
X115700078Y-81457078D01*
X115795881Y-81473228D01*
X115878212Y-81524810D01*
X115883455Y-81529901D01*
X117646701Y-83293147D01*
X117646702Y-83293147D01*
X117835448Y-83060067D01*
X118035247Y-82752403D01*
X118201794Y-82425538D01*
X118201795Y-82425536D01*
X118333265Y-82083042D01*
X118428215Y-81728685D01*
X118485603Y-81366350D01*
X118504802Y-80999999D01*
X118485603Y-80633649D01*
X118428215Y-80271314D01*
X118333265Y-79916957D01*
X118201795Y-79574463D01*
X118201794Y-79574461D01*
X118035249Y-79247601D01*
X117835449Y-78939934D01*
X117835441Y-78939923D01*
X117646702Y-78706851D01*
X117646701Y-78706851D01*
X115885935Y-80467616D01*
X115805154Y-80521592D01*
X115709866Y-80540546D01*
X115614578Y-80521592D01*
X115549851Y-80482324D01*
X115548313Y-80481034D01*
X115487486Y-80405277D01*
X115460280Y-80312008D01*
X115470837Y-80215429D01*
X115517550Y-80130241D01*
X115532258Y-80114186D01*
X117293147Y-78353296D01*
X117060067Y-78164551D01*
X116752403Y-77964752D01*
X116425538Y-77798205D01*
X116425536Y-77798204D01*
X116083042Y-77666734D01*
X115728685Y-77571784D01*
X115366349Y-77514396D01*
X115366350Y-77514396D01*
X114999999Y-77495197D01*
X114633649Y-77514396D01*
X114271314Y-77571784D01*
X113916957Y-77666734D01*
X113574463Y-77798204D01*
X113574461Y-77798205D01*
X113247601Y-77964750D01*
X112939928Y-78164554D01*
X112706851Y-78353296D01*
X114470057Y-80116503D01*
X114524033Y-80197285D01*
X114542987Y-80292573D01*
X114524033Y-80387861D01*
X114475148Y-80463400D01*
X114473776Y-80464855D01*
X114394613Y-80521178D01*
X114299922Y-80542921D01*
X114204119Y-80526771D01*
X114121788Y-80475189D01*
X114116546Y-80470098D01*
X112353297Y-78706850D01*
X112353296Y-78706851D01*
X112164554Y-78939928D01*
X111964750Y-79247601D01*
X111798205Y-79574461D01*
X111798204Y-79574463D01*
X111666734Y-79916957D01*
X111571784Y-80271314D01*
X111514396Y-80633649D01*
X111495197Y-81000000D01*
X101000500Y-81000000D01*
X101000500Y-79067768D01*
X103145787Y-79067768D01*
X103175413Y-79337012D01*
X103175414Y-79337018D01*
X103237490Y-79574461D01*
X103243928Y-79599088D01*
X103349869Y-79848387D01*
X103349872Y-79848394D01*
X103490976Y-80079601D01*
X103490978Y-80079605D01*
X103490982Y-80079610D01*
X103490987Y-80079616D01*
X103490990Y-80079620D01*
X103664254Y-80287819D01*
X103664255Y-80287820D01*
X103861838Y-80464855D01*
X103865996Y-80468580D01*
X103865999Y-80468583D01*
X104091903Y-80618040D01*
X104091906Y-80618041D01*
X104091910Y-80618044D01*
X104337176Y-80733020D01*
X104596569Y-80811060D01*
X104864561Y-80850500D01*
X104864567Y-80850500D01*
X105067634Y-80850500D01*
X105092610Y-80848671D01*
X105270156Y-80835677D01*
X105534553Y-80776780D01*
X105787558Y-80680014D01*
X105835817Y-80652929D01*
X106023773Y-80547444D01*
X106132615Y-80463400D01*
X106238177Y-80381888D01*
X106426186Y-80186881D01*
X106583799Y-79966579D01*
X106707656Y-79725675D01*
X106759243Y-79574463D01*
X106795117Y-79469309D01*
X106819554Y-79337012D01*
X106844319Y-79202933D01*
X106854212Y-78932235D01*
X106824586Y-78662982D01*
X106756072Y-78400912D01*
X106650130Y-78151610D01*
X106509018Y-77920390D01*
X106407334Y-77798204D01*
X106335745Y-77712180D01*
X106285024Y-77666734D01*
X106134002Y-77531418D01*
X106134000Y-77531416D01*
X105908096Y-77381959D01*
X105775900Y-77319988D01*
X105662824Y-77266980D01*
X105403431Y-77188940D01*
X105403427Y-77188939D01*
X105403426Y-77188939D01*
X105341715Y-77179857D01*
X105135439Y-77149500D01*
X104932369Y-77149500D01*
X104932366Y-77149500D01*
X104869487Y-77154102D01*
X104729844Y-77164323D01*
X104729840Y-77164323D01*
X104729837Y-77164324D01*
X104465442Y-77223221D01*
X104212436Y-77319988D01*
X103976226Y-77452555D01*
X103761826Y-77618108D01*
X103573811Y-77813122D01*
X103416204Y-78033416D01*
X103416199Y-78033424D01*
X103292344Y-78274323D01*
X103292343Y-78274325D01*
X103204882Y-78530690D01*
X103155681Y-78797062D01*
X103155680Y-78797073D01*
X103145788Y-79067765D01*
X103145787Y-79067768D01*
X101000500Y-79067768D01*
X101000500Y-75249500D01*
X101019454Y-75154212D01*
X101073430Y-75073430D01*
X101154212Y-75019454D01*
X101249500Y-75000500D01*
X200750500Y-75000500D01*
X200845788Y-75019454D01*
G37*
G04 #@! TD.AperFunction*
M02*
