<?xml version="1.0" encoding="UTF-8" standalone="no"?>
<svg
   width="386.69458pt"
   height="297.89075pt"
   viewBox="0 0 386.69459 297.89074"
   version="1.1"
   id="svg457"
   sodipodi:docname="TransientPlotMetastablePoint.svg"
   inkscape:version="1.2.2 (732a01da63, 2022-12-09)"
   xmlns:inkscape="http://www.inkscape.org/namespaces/inkscape"
   xmlns:sodipodi="http://sodipodi.sourceforge.net/DTD/sodipodi-0.dtd"
   xmlns:xlink="http://www.w3.org/1999/xlink"
   xmlns="http://www.w3.org/2000/svg"
   xmlns:svg="http://www.w3.org/2000/svg"
   xmlns:rdf="http://www.w3.org/1999/02/22-rdf-syntax-ns#"
   xmlns:cc="http://creativecommons.org/ns#"
   xmlns:dc="http://purl.org/dc/elements/1.1/">
  <sodipodi:namedview
     id="namedview459"
     pagecolor="#3a3a3a"
     bordercolor="#000000"
     borderopacity="0.25"
     inkscape:showpageshadow="2"
     inkscape:pageopacity="0"
     inkscape:pagecheckerboard="0"
     inkscape:deskcolor="#d1d1d1"
     inkscape:document-units="pt"
     showgrid="false"
     inkscape:zoom="1.9694011"
     inkscape:cx="269.11735"
     inkscape:cy="175.68793"
     inkscape:window-width="2560"
     inkscape:window-height="1377"
     inkscape:window-x="1912"
     inkscape:window-y="-8"
     inkscape:window-maximized="1"
     inkscape:current-layer="svg457" />
  <metadata
     id="metadata2">
    <rdf:RDF>
      <cc:Work>
        <dc:type
           rdf:resource="http://purl.org/dc/dcmitype/StillImage" />
        <dc:date>2023-02-25T16:59:01.322169</dc:date>
        <dc:format>image/svg+xml</dc:format>
        <dc:creator>
          <cc:Agent>
            <dc:title>Matplotlib v3.7.0, https://matplotlib.org/</dc:title>
          </cc:Agent>
        </dc:creator>
      </cc:Work>
    </rdf:RDF>
  </metadata>
  <defs
     id="defs6">
    <style
       type="text/css"
       id="style4">*{stroke-linejoin: round; stroke-linecap: butt}</style>
  </defs>
  <g
     id="matplotlib.axis_1"
     style="fill:#ffffff"
     transform="translate(-28.62375,-41.072)">
    <g
       id="xtick_1"
       style="fill:#ffffff">
      <g
         id="line2d_1"
         style="fill:#ffffff">
        <defs
           id="defs15">
          <path
             id="mef22bb802a"
             d="M 0,0 V 3.5"
             style="stroke:#ffffff;stroke-width:0.8" />
        </defs>
        <g
           id="g19"
           style="fill:#ffffff">
          <use
             xlink:href="#mef22bb802a"
             x="73.832726"
             y="307.58401"
             style="fill:#ffffff;stroke:#ffffff;stroke-width:0.8"
             id="use17" />
        </g>
      </g>
      <g
         id="text_1"
         style="fill:#ffffff">
        <!-- 0.0000 -->
        <g
           transform="matrix(0.1,0,0,-0.1,56.337415,322.18244)"
           id="g38"
           style="fill:#ffffff">
          <defs
             id="defs24">
            <path
               id="DejaVuSans-30"
               d="m 2034,4250 q -487,0 -733,-480 -245,-479 -245,-1442 0,-959 245,-1439 246,-480 733,-480 491,0 736,480 246,480 246,1439 0,963 -246,1442 -245,480 -736,480 z m 0,500 q 785,0 1199,-621 414,-620 414,-1801 0,-1178 -414,-1799 -414,-620 -1199,-620 -784,0 -1198,620 -414,621 -414,1799 0,1181 414,1801 414,621 1198,621 z"
               transform="scale(0.015625)" />
            <path
               id="DejaVuSans-2e"
               d="m 684,794 h 660 V 0 H 684 Z"
               transform="scale(0.015625)" />
          </defs>
          <use
             xlink:href="#DejaVuSans-30"
             id="use26"
             style="fill:#ffffff" />
          <use
             xlink:href="#DejaVuSans-2e"
             x="63.623047"
             id="use28"
             style="fill:#ffffff" />
          <use
             xlink:href="#DejaVuSans-30"
             x="95.410156"
             id="use30"
             style="fill:#ffffff" />
          <use
             xlink:href="#DejaVuSans-30"
             x="159.0332"
             id="use32"
             style="fill:#ffffff" />
          <use
             xlink:href="#DejaVuSans-30"
             x="222.65625"
             id="use34"
             style="fill:#ffffff" />
          <use
             xlink:href="#DejaVuSans-30"
             x="286.2793"
             id="use36"
             style="fill:#ffffff" />
        </g>
      </g>
    </g>
    <g
       id="xtick_2"
       style="fill:#ffffff">
      <g
         id="line2d_2"
         style="fill:#ffffff">
        <g
           id="g44"
           style="fill:#ffffff">
          <use
             xlink:href="#mef22bb802a"
             x="114.41454"
             y="307.58401"
             style="fill:#ffffff;stroke:#ffffff;stroke-width:0.8"
             id="use42" />
        </g>
      </g>
      <g
         id="text_2"
         style="fill:#ffffff">
        <!-- 0.0025 -->
        <g
           transform="matrix(0.1,0,0,-0.1,96.919233,322.18244)"
           id="g63"
           style="fill:#ffffff">
          <defs
             id="defs49">
            <path
               id="DejaVuSans-32"
               d="M 1228,531 H 3431 V 0 H 469 v 531 q 359,372 979,998 621,627 780,809 303,340 423,576 121,236 121,464 0,372 -261,606 -261,235 -680,235 -297,0 -627,-103 -329,-103 -704,-313 v 638 q 381,153 712,231 332,78 607,78 725,0 1156,-363 431,-362 431,-968 0,-288 -108,-546 -107,-257 -392,-607 -78,-91 -497,-524 Q 1991,1309 1228,531 Z"
               transform="scale(0.015625)" />
            <path
               id="DejaVuSans-35"
               d="M 691,4666 H 3169 V 4134 H 1269 V 2991 q 137,47 274,70 138,23 276,23 781,0 1237,-428 457,-428 457,-1159 Q 3513,744 3044,326 2575,-91 1722,-91 1428,-91 1123,-41 819,9 494,109 v 635 q 281,-153 581,-228 300,-75 634,-75 541,0 856,284 316,284 316,772 0,487 -316,771 -315,285 -856,285 -253,0 -505,-56 -251,-56 -513,-175 z"
               transform="scale(0.015625)" />
          </defs>
          <use
             xlink:href="#DejaVuSans-30"
             id="use51"
             style="fill:#ffffff" />
          <use
             xlink:href="#DejaVuSans-2e"
             x="63.623047"
             id="use53"
             style="fill:#ffffff" />
          <use
             xlink:href="#DejaVuSans-30"
             x="95.410156"
             id="use55"
             style="fill:#ffffff" />
          <use
             xlink:href="#DejaVuSans-30"
             x="159.0332"
             id="use57"
             style="fill:#ffffff" />
          <use
             xlink:href="#DejaVuSans-32"
             x="222.65625"
             id="use59"
             style="fill:#ffffff" />
          <use
             xlink:href="#DejaVuSans-35"
             x="286.2793"
             id="use61"
             style="fill:#ffffff" />
        </g>
      </g>
    </g>
    <g
       id="xtick_3"
       style="fill:#ffffff">
      <g
         id="line2d_3"
         style="fill:#ffffff">
        <g
           id="g69"
           style="fill:#ffffff">
          <use
             xlink:href="#mef22bb802a"
             x="154.99637"
             y="307.58401"
             style="fill:#ffffff;stroke:#ffffff;stroke-width:0.8"
             id="use67" />
        </g>
      </g>
      <g
         id="text_3"
         style="fill:#ffffff">
        <!-- 0.0050 -->
        <g
           transform="matrix(0.1,0,0,-0.1,137.50105,322.18244)"
           id="g84"
           style="fill:#ffffff">
          <use
             xlink:href="#DejaVuSans-30"
             id="use72"
             style="fill:#ffffff" />
          <use
             xlink:href="#DejaVuSans-2e"
             x="63.623047"
             id="use74"
             style="fill:#ffffff" />
          <use
             xlink:href="#DejaVuSans-30"
             x="95.410156"
             id="use76"
             style="fill:#ffffff" />
          <use
             xlink:href="#DejaVuSans-30"
             x="159.0332"
             id="use78"
             style="fill:#ffffff" />
          <use
             xlink:href="#DejaVuSans-35"
             x="222.65625"
             id="use80"
             style="fill:#ffffff" />
          <use
             xlink:href="#DejaVuSans-30"
             x="286.2793"
             id="use82"
             style="fill:#ffffff" />
        </g>
      </g>
    </g>
    <g
       id="xtick_4"
       style="fill:#ffffff">
      <g
         id="line2d_4"
         style="fill:#ffffff">
        <g
           id="g90"
           style="fill:#ffffff">
          <use
             xlink:href="#mef22bb802a"
             x="195.57819"
             y="307.58401"
             style="fill:#ffffff;stroke:#ffffff;stroke-width:0.8"
             id="use88" />
        </g>
      </g>
      <g
         id="text_4"
         style="fill:#ffffff">
        <!-- 0.0075 -->
        <g
           transform="matrix(0.1,0,0,-0.1,178.08287,322.18244)"
           id="g108"
           style="fill:#ffffff">
          <defs
             id="defs94">
            <path
               id="DejaVuSans-37"
               d="M 525,4666 H 3525 V 4397 L 1831,0 H 1172 L 2766,4134 H 525 Z"
               transform="scale(0.015625)" />
          </defs>
          <use
             xlink:href="#DejaVuSans-30"
             id="use96"
             style="fill:#ffffff" />
          <use
             xlink:href="#DejaVuSans-2e"
             x="63.623047"
             id="use98"
             style="fill:#ffffff" />
          <use
             xlink:href="#DejaVuSans-30"
             x="95.410156"
             id="use100"
             style="fill:#ffffff" />
          <use
             xlink:href="#DejaVuSans-30"
             x="159.0332"
             id="use102"
             style="fill:#ffffff" />
          <use
             xlink:href="#DejaVuSans-37"
             x="222.65625"
             id="use104"
             style="fill:#ffffff" />
          <use
             xlink:href="#DejaVuSans-35"
             x="286.2793"
             id="use106"
             style="fill:#ffffff" />
        </g>
      </g>
    </g>
    <g
       id="xtick_5"
       style="fill:#ffffff">
      <g
         id="line2d_5"
         style="fill:#ffffff">
        <g
           id="g114"
           style="fill:#ffffff">
          <use
             xlink:href="#mef22bb802a"
             x="236.16"
             y="307.58401"
             style="fill:#ffffff;stroke:#ffffff;stroke-width:0.8"
             id="use112" />
        </g>
      </g>
      <g
         id="text_5"
         style="fill:#ffffff">
        <!-- 0.0100 -->
        <g
           transform="matrix(0.1,0,0,-0.1,218.66469,322.18244)"
           id="g132"
           style="fill:#ffffff">
          <defs
             id="defs118">
            <path
               id="DejaVuSans-31"
               d="M 794,531 H 1825 V 4091 L 703,3866 v 575 l 1116,225 h 631 V 531 H 3481 V 0 H 794 Z"
               transform="scale(0.015625)" />
          </defs>
          <use
             xlink:href="#DejaVuSans-30"
             id="use120"
             style="fill:#ffffff" />
          <use
             xlink:href="#DejaVuSans-2e"
             x="63.623047"
             id="use122"
             style="fill:#ffffff" />
          <use
             xlink:href="#DejaVuSans-30"
             x="95.410156"
             id="use124"
             style="fill:#ffffff" />
          <use
             xlink:href="#DejaVuSans-31"
             x="159.0332"
             id="use126"
             style="fill:#ffffff" />
          <use
             xlink:href="#DejaVuSans-30"
             x="222.65625"
             id="use128"
             style="fill:#ffffff" />
          <use
             xlink:href="#DejaVuSans-30"
             x="286.2793"
             id="use130"
             style="fill:#ffffff" />
        </g>
      </g>
    </g>
    <g
       id="xtick_6"
       style="fill:#ffffff">
      <g
         id="line2d_6"
         style="fill:#ffffff">
        <g
           id="g138"
           style="fill:#ffffff">
          <use
             xlink:href="#mef22bb802a"
             x="276.74182"
             y="307.58401"
             style="fill:#ffffff;stroke:#ffffff;stroke-width:0.8"
             id="use136" />
        </g>
      </g>
      <g
         id="text_6"
         style="fill:#ffffff">
        <!-- 0.0125 -->
        <g
           transform="matrix(0.1,0,0,-0.1,259.24651,322.18244)"
           id="g153"
           style="fill:#ffffff">
          <use
             xlink:href="#DejaVuSans-30"
             id="use141"
             style="fill:#ffffff" />
          <use
             xlink:href="#DejaVuSans-2e"
             x="63.623047"
             id="use143"
             style="fill:#ffffff" />
          <use
             xlink:href="#DejaVuSans-30"
             x="95.410156"
             id="use145"
             style="fill:#ffffff" />
          <use
             xlink:href="#DejaVuSans-31"
             x="159.0332"
             id="use147"
             style="fill:#ffffff" />
          <use
             xlink:href="#DejaVuSans-32"
             x="222.65625"
             id="use149"
             style="fill:#ffffff" />
          <use
             xlink:href="#DejaVuSans-35"
             x="286.2793"
             id="use151"
             style="fill:#ffffff" />
        </g>
      </g>
    </g>
    <g
       id="xtick_7"
       style="fill:#ffffff">
      <g
         id="line2d_7"
         style="fill:#ffffff">
        <g
           id="g159"
           style="fill:#ffffff">
          <use
             xlink:href="#mef22bb802a"
             x="317.32364"
             y="307.58401"
             style="fill:#ffffff;stroke:#ffffff;stroke-width:0.8"
             id="use157" />
        </g>
      </g>
      <g
         id="text_7"
         style="fill:#ffffff">
        <!-- 0.0150 -->
        <g
           transform="matrix(0.1,0,0,-0.1,299.82832,322.18244)"
           id="g174"
           style="fill:#ffffff">
          <use
             xlink:href="#DejaVuSans-30"
             id="use162"
             style="fill:#ffffff" />
          <use
             xlink:href="#DejaVuSans-2e"
             x="63.623047"
             id="use164"
             style="fill:#ffffff" />
          <use
             xlink:href="#DejaVuSans-30"
             x="95.410156"
             id="use166"
             style="fill:#ffffff" />
          <use
             xlink:href="#DejaVuSans-31"
             x="159.0332"
             id="use168"
             style="fill:#ffffff" />
          <use
             xlink:href="#DejaVuSans-35"
             x="222.65625"
             id="use170"
             style="fill:#ffffff" />
          <use
             xlink:href="#DejaVuSans-30"
             x="286.2793"
             id="use172"
             style="fill:#ffffff" />
        </g>
      </g>
    </g>
    <g
       id="xtick_8"
       style="fill:#ffffff">
      <g
         id="line2d_8"
         style="fill:#ffffff">
        <g
           id="g180"
           style="fill:#ffffff">
          <use
             xlink:href="#mef22bb802a"
             x="357.90546"
             y="307.58401"
             style="fill:#ffffff;stroke:#ffffff;stroke-width:0.8"
             id="use178" />
        </g>
      </g>
      <g
         id="text_8"
         style="fill:#ffffff">
        <!-- 0.0175 -->
        <g
           transform="matrix(0.1,0,0,-0.1,340.41014,322.18244)"
           id="g195"
           style="fill:#ffffff">
          <use
             xlink:href="#DejaVuSans-30"
             id="use183"
             style="fill:#ffffff" />
          <use
             xlink:href="#DejaVuSans-2e"
             x="63.623047"
             id="use185"
             style="fill:#ffffff" />
          <use
             xlink:href="#DejaVuSans-30"
             x="95.410156"
             id="use187"
             style="fill:#ffffff" />
          <use
             xlink:href="#DejaVuSans-31"
             x="159.0332"
             id="use189"
             style="fill:#ffffff" />
          <use
             xlink:href="#DejaVuSans-37"
             x="222.65625"
             id="use191"
             style="fill:#ffffff" />
          <use
             xlink:href="#DejaVuSans-35"
             x="286.2793"
             id="use193"
             style="fill:#ffffff" />
        </g>
      </g>
    </g>
    <g
       id="xtick_9"
       style="fill:#ffffff">
      <g
         id="line2d_9"
         style="fill:#ffffff">
        <g
           id="g201"
           style="fill:#ffffff">
          <use
             xlink:href="#mef22bb802a"
             x="398.48727"
             y="307.58401"
             style="fill:#ffffff;stroke:#ffffff;stroke-width:0.8"
             id="use199" />
        </g>
      </g>
      <g
         id="text_9"
         style="fill:#ffffff">
        <!-- 0.0200 -->
        <g
           transform="matrix(0.1,0,0,-0.1,380.99196,322.18244)"
           id="g216"
           style="fill:#ffffff">
          <use
             xlink:href="#DejaVuSans-30"
             id="use204"
             style="fill:#ffffff" />
          <use
             xlink:href="#DejaVuSans-2e"
             x="63.623047"
             id="use206"
             style="fill:#ffffff" />
          <use
             xlink:href="#DejaVuSans-30"
             x="95.410156"
             id="use208"
             style="fill:#ffffff" />
          <use
             xlink:href="#DejaVuSans-32"
             x="159.0332"
             id="use210"
             style="fill:#ffffff" />
          <use
             xlink:href="#DejaVuSans-30"
             x="222.65625"
             id="use212"
             style="fill:#ffffff" />
          <use
             xlink:href="#DejaVuSans-30"
             x="286.2793"
             id="use214"
             style="fill:#ffffff" />
        </g>
      </g>
    </g>
    <g
       id="text_10"
       style="fill:#ffffff">
      <!-- Time [s] -->
      <g
         transform="matrix(0.12,0,0,-0.12,211.76531,337.38025)"
         id="g246"
         style="fill:#ffffff">
        <defs
           id="defs228">
          <path
             id="DejaVuSans-54"
             d="M -19,4666 H 3928 V 4134 H 2272 V 0 H 1638 V 4134 H -19 Z"
             transform="scale(0.015625)" />
          <path
             id="DejaVuSans-69"
             d="m 603,3500 h 575 V 0 H 603 Z m 0,1363 h 575 V 4134 H 603 Z"
             transform="scale(0.015625)" />
          <path
             id="DejaVuSans-6d"
             d="m 3328,2828 q 216,388 516,572 300,184 706,184 547,0 844,-383 297,-382 297,-1088 V 0 h -578 v 2094 q 0,503 -179,746 -178,244 -543,244 -447,0 -707,-297 -259,-296 -259,-809 V 0 h -578 v 2094 q 0,506 -178,748 -178,242 -550,242 -441,0 -701,-298 -259,-298 -259,-808 V 0 H 581 v 3500 h 578 v -544 q 197,322 472,475 275,153 653,153 382,0 649,-194 267,-193 395,-562 z"
             transform="scale(0.015625)" />
          <path
             id="DejaVuSans-65"
             d="M 3597,1894 V 1613 H 953 q 38,-594 358,-905 320,-311 892,-311 331,0 642,81 311,81 618,244 V 178 Q 3153,47 2828,-22 2503,-91 2169,-91 1331,-91 842,396 353,884 353,1716 q 0,859 464,1363 464,505 1252,505 706,0 1117,-455 411,-454 411,-1235 z m -575,169 q -6,471 -264,752 -258,282 -683,282 -481,0 -770,-272 -289,-272 -333,-766 z"
             transform="scale(0.015625)" />
          <path
             id="DejaVuSans-20"
             transform="scale(0.015625)"
             d="" />
          <path
             id="DejaVuSans-5b"
             d="M 550,4863 H 1875 V 4416 H 1125 V -397 h 750 V -844 H 550 Z"
             transform="scale(0.015625)" />
          <path
             id="DejaVuSans-73"
             d="m 2834,3397 v -544 q -243,125 -506,187 -262,63 -544,63 -428,0 -642,-131 -214,-131 -214,-394 0,-200 153,-314 153,-114 616,-217 l 197,-44 q 612,-131 870,-370 258,-239 258,-667 0,-488 -386,-773 Q 2250,-91 1575,-91 1294,-91 989,-36 684,19 347,128 v 594 q 319,-166 628,-249 309,-82 613,-82 406,0 624,139 219,139 219,392 0,234 -158,359 -157,125 -692,241 l -200,47 q -534,112 -772,345 -237,233 -237,639 0,494 350,762 350,269 994,269 318,0 599,-47 282,-46 519,-140 z"
             transform="scale(0.015625)" />
          <path
             id="DejaVuSans-5d"
             d="M 1947,4863 V -844 H 622 v 447 h 747 V 4416 H 622 v 447 z"
             transform="scale(0.015625)" />
        </defs>
        <use
           xlink:href="#DejaVuSans-54"
           id="use230"
           style="fill:#ffffff" />
        <use
           xlink:href="#DejaVuSans-69"
           x="57.958984"
           id="use232"
           style="fill:#ffffff" />
        <use
           xlink:href="#DejaVuSans-6d"
           x="85.742188"
           id="use234"
           style="fill:#ffffff" />
        <use
           xlink:href="#DejaVuSans-65"
           x="183.1543"
           id="use236"
           style="fill:#ffffff" />
        <use
           xlink:href="#DejaVuSans-20"
           x="244.67773"
           id="use238"
           style="fill:#ffffff" />
        <use
           xlink:href="#DejaVuSans-5b"
           x="276.46484"
           id="use240"
           style="fill:#ffffff" />
        <use
           xlink:href="#DejaVuSans-73"
           x="315.47852"
           id="use242"
           style="fill:#ffffff" />
        <use
           xlink:href="#DejaVuSans-5d"
           x="367.57812"
           id="use244"
           style="fill:#ffffff" />
      </g>
    </g>
  </g>
  <g
     id="matplotlib.axis_2"
     style="fill:#ffffff"
     transform="translate(-28.62375,-41.072)">
    <g
       id="ytick_1"
       style="fill:#ffffff">
      <g
         id="line2d_10"
         style="fill:#ffffff">
        <defs
           id="defs251">
          <path
             id="m5effb996a4"
             d="M 0,0 H -3.5"
             style="stroke:#ffffff;stroke-width:0.8" />
        </defs>
        <g
           id="g255"
           style="fill:#ffffff">
          <use
             xlink:href="#m5effb996a4"
             x="57.599998"
             y="295.24069"
             style="fill:#ffffff;stroke:#ffffff;stroke-width:0.8"
             id="use253" />
        </g>
      </g>
      <g
         id="text_11"
         style="fill:#ffffff">
        <!-- 0 -->
        <g
           transform="matrix(0.1,0,0,-0.1,44.2375,299.0399)"
           id="g260"
           style="fill:#ffffff">
          <use
             xlink:href="#DejaVuSans-30"
             id="use258"
             style="fill:#ffffff" />
        </g>
      </g>
    </g>
    <g
       id="ytick_2"
       style="fill:#ffffff">
      <g
         id="line2d_11"
         style="fill:#ffffff">
        <g
           id="g266"
           style="fill:#ffffff">
          <use
             xlink:href="#m5effb996a4"
             x="57.599998"
             y="246.64836"
             style="fill:#ffffff;stroke:#ffffff;stroke-width:0.8"
             id="use264" />
        </g>
      </g>
      <g
         id="text_12"
         style="fill:#ffffff">
        <!-- 1 -->
        <g
           transform="matrix(0.1,0,0,-0.1,44.2375,250.44758)"
           id="g271"
           style="fill:#ffffff">
          <use
             xlink:href="#DejaVuSans-31"
             id="use269"
             style="fill:#ffffff" />
        </g>
      </g>
    </g>
    <g
       id="ytick_3"
       style="fill:#ffffff">
      <g
         id="line2d_12"
         style="fill:#ffffff">
        <g
           id="g277"
           style="fill:#ffffff">
          <use
             xlink:href="#m5effb996a4"
             x="57.599998"
             y="198.05605"
             style="fill:#ffffff;stroke:#ffffff;stroke-width:0.8"
             id="use275" />
        </g>
      </g>
      <g
         id="text_13"
         style="fill:#ffffff">
        <!-- 2 -->
        <g
           transform="matrix(0.1,0,0,-0.1,44.2375,201.85526)"
           id="g282"
           style="fill:#ffffff">
          <use
             xlink:href="#DejaVuSans-32"
             id="use280"
             style="fill:#ffffff" />
        </g>
      </g>
    </g>
    <g
       id="ytick_4"
       style="fill:#ffffff">
      <g
         id="line2d_13"
         style="fill:#ffffff">
        <g
           id="g288"
           style="fill:#ffffff">
          <use
             xlink:href="#m5effb996a4"
             x="57.599998"
             y="149.46373"
             style="fill:#ffffff;stroke:#ffffff;stroke-width:0.8"
             id="use286" />
        </g>
      </g>
      <g
         id="text_14"
         style="fill:#ffffff">
        <!-- 3 -->
        <g
           transform="matrix(0.1,0,0,-0.1,44.2375,153.26294)"
           id="g296"
           style="fill:#ffffff">
          <defs
             id="defs292">
            <path
               id="DejaVuSans-33"
               d="m 2597,2516 q 453,-97 707,-404 255,-306 255,-756 0,-690 -475,-1069 -475,-378 -1350,-378 -293,0 -604,58 -311,58 -642,174 v 609 q 262,-153 574,-231 313,-78 654,-78 593,0 904,234 311,234 311,681 0,413 -289,645 -289,233 -804,233 h -544 v 519 h 569 q 465,0 712,186 247,186 247,536 0,359 -255,551 -254,193 -729,193 -260,0 -557,-57 -297,-56 -653,-174 v 562 q 360,100 674,150 314,50 592,50 719,0 1137,-327 419,-326 419,-882 0,-388 -222,-655 -222,-267 -631,-370 z"
               transform="scale(0.015625)" />
          </defs>
          <use
             xlink:href="#DejaVuSans-33"
             id="use294"
             style="fill:#ffffff" />
        </g>
      </g>
    </g>
    <g
       id="ytick_5"
       style="fill:#ffffff">
      <g
         id="line2d_14"
         style="fill:#ffffff">
        <g
           id="g302"
           style="fill:#ffffff">
          <use
             xlink:href="#m5effb996a4"
             x="57.599998"
             y="100.87141"
             style="fill:#ffffff;stroke:#ffffff;stroke-width:0.8"
             id="use300" />
        </g>
      </g>
      <g
         id="text_15"
         style="fill:#ffffff">
        <!-- 4 -->
        <g
           transform="matrix(0.1,0,0,-0.1,44.2375,104.67063)"
           id="g310"
           style="fill:#ffffff">
          <defs
             id="defs306">
            <path
               id="DejaVuSans-34"
               d="M 2419,4116 825,1625 h 1594 z m -166,550 h 794 V 1625 h 666 V 1100 H 3047 V 0 H 2419 V 1100 H 313 v 609 z"
               transform="scale(0.015625)" />
          </defs>
          <use
             xlink:href="#DejaVuSans-34"
             id="use308"
             style="fill:#ffffff" />
        </g>
      </g>
    </g>
    <g
       id="ytick_6"
       style="fill:#ffffff">
      <g
         id="line2d_15"
         style="fill:#ffffff">
        <g
           id="g316"
           style="fill:#ffffff">
          <use
             xlink:href="#m5effb996a4"
             x="57.599998"
             y="52.279091"
             style="fill:#ffffff;stroke:#ffffff;stroke-width:0.8"
             id="use314" />
        </g>
      </g>
      <g
         id="text_16"
         style="fill:#ffffff">
        <!-- 5 -->
        <g
           transform="matrix(0.1,0,0,-0.1,44.2375,56.078308)"
           id="g321"
           style="fill:#ffffff">
          <use
             xlink:href="#DejaVuSans-35"
             id="use319"
             style="fill:#ffffff" />
        </g>
      </g>
    </g>
    <g
       id="text_17"
       style="fill:#ffffff">
      <!-- Voltage [V] -->
      <g
         transform="matrix(0,-0.12,-0.12,0,37.741875,207.72862)"
         id="g355"
         style="fill:#ffffff">
        <defs
           id="defs331">
          <path
             id="DejaVuSans-56"
             d="M 1831,0 50,4666 H 709 L 2188,738 3669,4666 h 656 L 2547,0 Z"
             transform="scale(0.015625)" />
          <path
             id="DejaVuSans-6f"
             d="m 1959,3097 q -462,0 -731,-361 -269,-361 -269,-989 0,-628 267,-989 268,-361 733,-361 460,0 728,362 269,363 269,988 0,622 -269,986 -268,364 -728,364 z m 0,487 q 750,0 1178,-488 429,-487 429,-1349 Q 3566,888 3137,398 2709,-91 1959,-91 1206,-91 779,398 353,888 353,1747 q 0,862 426,1349 427,488 1180,488 z"
             transform="scale(0.015625)" />
          <path
             id="DejaVuSans-6c"
             d="m 603,4863 h 575 V 0 H 603 Z"
             transform="scale(0.015625)" />
          <path
             id="DejaVuSans-74"
             d="M 1172,4494 V 3500 H 2356 V 3053 H 1172 V 1153 q 0,-428 117,-550 117,-122 477,-122 h 590 V 0 H 1766 Q 1100,0 847,248 594,497 594,1153 V 3053 H 172 v 447 h 422 v 994 z"
             transform="scale(0.015625)" />
          <path
             id="DejaVuSans-61"
             d="m 2194,1759 q -697,0 -966,-159 -269,-159 -269,-544 0,-306 202,-486 202,-179 548,-179 479,0 768,339 289,339 289,901 v 128 z m 1147,238 V 0 H 2766 V 531 Q 2569,213 2275,61 1981,-91 1556,-91 q -537,0 -855,302 -317,302 -317,808 0,590 395,890 396,300 1180,300 h 807 v 57 q 0,397 -261,614 -261,217 -733,217 -300,0 -585,-72 -284,-72 -546,-216 v 532 q 315,122 612,182 297,61 578,61 760,0 1135,-394 375,-393 375,-1193 z"
             transform="scale(0.015625)" />
          <path
             id="DejaVuSans-67"
             d="m 2906,1791 q 0,625 -258,968 -257,344 -723,344 -462,0 -720,-344 -258,-343 -258,-968 0,-622 258,-966 258,-344 720,-344 466,0 723,344 258,344 258,966 z M 3481,434 q 0,-893 -397,-1329 -396,-436 -1215,-436 -303,0 -572,45 -269,45 -522,139 v 559 q 253,-137 500,-202 247,-66 503,-66 566,0 847,295 281,295 281,892 V 616 Q 2728,306 2450,153 2172,0 1784,0 1141,0 747,490 353,981 353,1791 q 0,812 394,1302 394,491 1037,491 388,0 666,-153 278,-153 456,-462 v 531 h 575 z"
             transform="scale(0.015625)" />
        </defs>
        <use
           xlink:href="#DejaVuSans-56"
           id="use333"
           style="fill:#ffffff" />
        <use
           xlink:href="#DejaVuSans-6f"
           x="60.658203"
           id="use335"
           style="fill:#ffffff" />
        <use
           xlink:href="#DejaVuSans-6c"
           x="121.83984"
           id="use337"
           style="fill:#ffffff" />
        <use
           xlink:href="#DejaVuSans-74"
           x="149.62305"
           id="use339"
           style="fill:#ffffff" />
        <use
           xlink:href="#DejaVuSans-61"
           x="188.83203"
           id="use341"
           style="fill:#ffffff" />
        <use
           xlink:href="#DejaVuSans-67"
           x="250.11133"
           id="use343"
           style="fill:#ffffff" />
        <use
           xlink:href="#DejaVuSans-65"
           x="313.58789"
           id="use345"
           style="fill:#ffffff" />
        <use
           xlink:href="#DejaVuSans-20"
           x="375.11133"
           id="use347"
           style="fill:#ffffff" />
        <use
           xlink:href="#DejaVuSans-5b"
           x="406.89844"
           id="use349"
           style="fill:#ffffff" />
        <use
           xlink:href="#DejaVuSans-56"
           x="445.91211"
           id="use351"
           style="fill:#ffffff" />
        <use
           xlink:href="#DejaVuSans-5d"
           x="514.32031"
           id="use353"
           style="fill:#ffffff" />
      </g>
    </g>
  </g>
  <g
     id="line2d_16"
     transform="translate(-28.62375,-41.072)">
    <path
       d="m 73.832727,198.43564 h 0.09511 l 1.137999,-0.94905 2.067941,0.10229 2.067942,-0.19646 2.067941,-0.49526 1.03397,-0.35963 1.902273,0.0847 1.902273,-0.20001 1.902272,-0.48471 0.951137,-0.34908 1.630519,0.0451 1.63052,-0.20788 1.630519,-0.46095 0.81526,-0.32537 2.174026,-0.0186 2.174026,-0.22066 2.174025,-0.4227 1.08702,-0.28714 1.90227,-0.0762 1.90227,-0.23217 1.90228,-0.38811 0.95113,-0.25253 2.85341,-0.23728 2.85341,-0.71178 1.90227,-0.0763 1.90228,-0.23217 1.90227,-0.38811 0.95113,-0.25253 1.90228,-0.0762 1.90227,-0.23217 1.90227,-0.38811 0.95114,-0.25253 2.85341,-0.23728 2.85341,-0.71178 1.90227,-0.0762 1.90227,-0.23222 1.90228,-0.38811 0.95113,-0.25248 1.90227,-0.0763 1.90228,-0.23218 1.90227,-0.38811 0.95114,-0.25248 2.85341,-0.23728 2.8534,-0.71183 1.90228,-0.0762 1.90227,-0.23217 1.90227,-0.38811 0.95114,-0.25253 1.90227,-0.0762 1.90227,-0.23223 1.90228,-0.3881 0.95113,-0.25249 2.85341,-0.23728 2.85341,-0.71182 1.90227,-0.0763 1.90228,-0.23217 1.90227,-0.38811 0.95114,-0.25253 1.90227,-0.0762 1.90227,-0.23218 1.90227,-0.3881 0.95114,-0.25254 2.85341,-0.23727 2.85341,-0.71178 h 4.21033 l 0.0672,-0.94906 2.45898,0.0246 2.45898,-0.21201 2.45898,-0.44861 1.22949,-0.31308 1.90228,-0.0762 1.90227,-0.23217 1.90227,-0.38811 0.95114,-0.25253 2.85341,-0.23728 2.85341,-0.71178 1.90227,-0.0763 1.90227,-0.23217 1.90227,-0.38811 0.95114,-0.25253 1.90227,-0.0762 1.90228,-0.23217 1.90227,-0.38811 0.95113,-0.25253 2.85341,-0.23728 1.20634,-0.71178 h 5.97284 l 0.0667,-0.94905 2.45898,0.0246 2.45898,-0.212 2.45898,-0.44861 1.22949,-0.31303 1.90227,-0.0763 1.90228,-0.23217 1.90227,-0.38811 0.95114,-0.25254 2.8534,-0.23727 2.85341,-0.71178 1.90228,-0.0762 1.90227,-0.23223 1.90227,-0.3881 0.95114,-0.25249 4.34805,-0.43675 3.26104,-0.51235 3.66867,-0.71888 3.66867,-0.40317 1.22289,-0.0643 2.85341,-0.71178 5.29918,-0.60721 5.29919,-0.91659 1.7664,-0.37431 8.56023,-0.94911 4.07629,-0.80293 4.0763,-0.64866 4.0763,-0.49443 2.03815,-0.18936 2.85341,-0.71183 5.29919,-0.60716 5.29919,-0.91665 1.76639,-0.37431 8.56023,-0.94905 4.0763,-0.80294 4.0763,-0.64871 4.0763,-0.49443 2.03815,-0.18936 2.8534,-0.71178 7.6091,-0.98429 24.72954,-3.76104 2.85341,-0.23728 1.1554,-0.71178 v 0"
       clip-path="url(#pceecd24768)"
       style="fill:none;stroke:#1f77b4;stroke-width:1.5;stroke-linecap:square"
       id="path359" />
  </g>
  <g
     id="line2d_17"
     transform="translate(-28.62375,-41.072)">
    <path
       d="M 73.832727,65.723271 H 194.94413 l 1.9e-4,229.764729 0.0664,-0.24762 37.14052,3e-4 0.95114,-0.94512 0.2552,0.94512 h 165.12973 v 0"
       clip-path="url(#pceecd24768)"
       style="fill:none;stroke:#ff7f0e;stroke-width:1.5;stroke-linecap:square"
       id="path362" />
  </g>
  <g
     id="line2d_18"
     transform="translate(-28.62375,-41.072)">
    <path
       d="M 73.832727,53.568 H 239.33046 l 2.1e-4,241.88412 0.0664,-0.2117 159.09024,3.4e-4 v 0"
       clip-path="url(#pceecd24768)"
       style="fill:none;stroke:#2ca02c;stroke-width:1.5;stroke-linecap:square"
       id="path365" />
  </g>
  <g
     id="patch_3"
     style="fill:#ffffff"
     transform="translate(-28.62375,-41.072)">
    <path
       d="M 57.6,307.584 V 41.472"
       style="fill:#ffffff;stroke:#ffffff;stroke-width:0.8;stroke-linecap:square;stroke-linejoin:miter"
       id="path368" />
  </g>
  <g
     id="patch_4"
     transform="translate(-28.62375,-41.072)">
    <path
       d="M 414.72,307.584 V 41.472"
       style="fill:none;stroke:#ffffff;stroke-width:0.8;stroke-linecap:square;stroke-linejoin:miter"
       id="path371" />
  </g>
  <g
     id="patch_5"
     style="fill:#ffffff"
     transform="translate(-28.62375,-41.072)">
    <path
       d="M 57.6,307.584 H 414.72"
       style="fill:#ffffff;stroke:#ffffff;stroke-width:0.8;stroke-linecap:square;stroke-linejoin:miter"
       id="path374" />
  </g>
  <g
     id="patch_6"
     transform="translate(-28.62375,-41.072)">
    <path
       d="M 57.6,41.472 H 414.72"
       style="fill:none;stroke:#ffffff;stroke-width:0.8;stroke-linecap:square;stroke-linejoin:miter"
       id="path377" />
  </g>
  <g
     id="patch_7"
     style="fill:none"
     transform="translate(-28.62375,-41.072)">
    <path
       d="M 338.33719,104.70419 H 407.72 q 2,0 2,-2 V 48.472 q 0,-2 -2,-2 h -69.38281 q -2,0 -2,2 v 54.23219 q 0,2 2,2 z"
       style="opacity:0.8;fill:none;stroke:#cccccc;stroke-linejoin:miter"
       id="path380" />
  </g>
  <g
     id="line2d_19"
     transform="translate(-28.62375,-41.072)">
    <path
       d="m 340.33719,54.570438 h 10 10"
       style="fill:none;stroke:#1f77b4;stroke-width:1.5;stroke-linecap:square"
       id="path383" />
  </g>
  <g
     id="text_18"
     style="fill:#ffffff"
     transform="translate(-28.62375,-41.072)">
    <!-- V(in) -->
    <g
       transform="matrix(0.1,0,0,-0.1,368.33719,58.070438)"
       id="g401"
       style="fill:#ffffff">
      <defs
         id="defs389">
        <path
           id="DejaVuSans-28"
           d="m 1984,4856 q -418,-718 -622,-1422 -203,-703 -203,-1425 0,-721 205,-1429 205,-708 620,-1424 h -500 q -468,735 -701,1444 -233,709 -233,1409 0,697 231,1403 232,707 703,1444 z"
           transform="scale(0.015625)" />
        <path
           id="DejaVuSans-6e"
           d="M 3513,2113 V 0 h -575 v 2094 q 0,497 -194,743 -194,247 -581,247 -466,0 -735,-297 -269,-296 -269,-809 V 0 H 581 v 3500 h 578 v -544 q 207,316 486,472 280,156 646,156 603,0 912,-373 310,-373 310,-1098 z"
           transform="scale(0.015625)" />
        <path
           id="DejaVuSans-29"
           d="m 513,4856 h 500 q 468,-737 701,-1444 233,-706 233,-1403 0,-700 -233,-1409 -233,-709 -701,-1444 H 513 q 415,716 620,1424 205,708 205,1429 0,722 -205,1425 -205,704 -620,1422 z"
           transform="scale(0.015625)" />
      </defs>
      <use
         xlink:href="#DejaVuSans-56"
         id="use391"
         style="fill:#ffffff" />
      <use
         xlink:href="#DejaVuSans-28"
         x="68.408203"
         id="use393"
         style="fill:#ffffff" />
      <use
         xlink:href="#DejaVuSans-69"
         x="107.42188"
         id="use395"
         style="fill:#ffffff" />
      <use
         xlink:href="#DejaVuSans-6e"
         x="135.20508"
         id="use397"
         style="fill:#ffffff" />
      <use
         xlink:href="#DejaVuSans-29"
         x="198.58398"
         id="use399"
         style="fill:#ffffff" />
    </g>
  </g>
  <g
     id="line2d_20"
     transform="translate(-28.62375,-41.072)">
    <path
       d="m 340.33719,69.248563 h 10 10"
       style="fill:none;stroke:#ff7f0e;stroke-width:1.5;stroke-linecap:square"
       id="path404" />
  </g>
  <g
     id="text_19"
     style="fill:#ffffff"
     transform="translate(-28.62375,-41.072)">
    <!-- V(out1) -->
    <g
       transform="matrix(0.1,0,0,-0.1,368.33719,72.748563)"
       id="g424"
       style="fill:#ffffff">
      <defs
         id="defs408">
        <path
           id="DejaVuSans-75"
           d="m 544,1381 v 2119 h 575 V 1403 q 0,-497 193,-746 194,-248 582,-248 465,0 735,297 271,297 271,810 v 1984 h 575 V 0 H 2900 V 538 Q 2691,219 2414,64 2138,-91 1772,-91 1169,-91 856,284 544,659 544,1381 Z m 1447,2203 z"
           transform="scale(0.015625)" />
      </defs>
      <use
         xlink:href="#DejaVuSans-56"
         id="use410"
         style="fill:#ffffff" />
      <use
         xlink:href="#DejaVuSans-28"
         x="68.408203"
         id="use412"
         style="fill:#ffffff" />
      <use
         xlink:href="#DejaVuSans-6f"
         x="107.42188"
         id="use414"
         style="fill:#ffffff" />
      <use
         xlink:href="#DejaVuSans-75"
         x="168.60352"
         id="use416"
         style="fill:#ffffff" />
      <use
         xlink:href="#DejaVuSans-74"
         x="231.98242"
         id="use418"
         style="fill:#ffffff" />
      <use
         xlink:href="#DejaVuSans-31"
         x="271.19141"
         id="use420"
         style="fill:#ffffff" />
      <use
         xlink:href="#DejaVuSans-29"
         x="334.81445"
         id="use422"
         style="fill:#ffffff" />
    </g>
  </g>
  <g
     id="line2d_21"
     transform="translate(-28.62375,-41.072)">
    <path
       d="m 340.33719,90.565438 h 10 10"
       style="fill:none;stroke:#2ca02c;stroke-width:1.5;stroke-linecap:square"
       id="path427" />
  </g>
  <g
     id="text_20"
     style="fill:#ffffff"
     transform="translate(-28.62375,-41.072)">
    <!-- V(out2) -->
    <g
       transform="matrix(0.1,0,0,-0.1,368.33719,87.426688)"
       id="g444"
       style="fill:#ffffff">
      <use
         xlink:href="#DejaVuSans-56"
         id="use430"
         style="fill:#ffffff" />
      <use
         xlink:href="#DejaVuSans-28"
         x="68.408203"
         id="use432"
         style="fill:#ffffff" />
      <use
         xlink:href="#DejaVuSans-6f"
         x="107.42188"
         id="use434"
         style="fill:#ffffff" />
      <use
         xlink:href="#DejaVuSans-75"
         x="168.60352"
         id="use436"
         style="fill:#ffffff" />
      <use
         xlink:href="#DejaVuSans-74"
         x="231.98242"
         id="use438"
         style="fill:#ffffff" />
      <use
         xlink:href="#DejaVuSans-32"
         x="271.19141"
         id="use440"
         style="fill:#ffffff" />
      <use
         xlink:href="#DejaVuSans-29"
         x="334.81445"
         id="use442"
         style="fill:#ffffff" />
    </g>
    <!--  -->
    <g
       transform="matrix(0.1,0,0,-0.1,368.33719,98.6245)"
       id="g446"
       style="fill:#ffffff" />
  </g>
  <defs
     id="defs455">
    <clipPath
       id="pceecd24768">
      <rect
         x="57.599998"
         y="41.472"
         width="357.12"
         height="266.112"
         id="rect452" />
    </clipPath>
  </defs>
</svg>
