<svg version="1.1" xmlns="http://www.w3.org/2000/svg" viewBox="0 0 1218.5465281609966 224.42978432409478" width="1218.5465281609966" height="224.42978432409478" filter="invert(93%) hue-rotate(180deg)">
  <!-- svg-source:excalidraw -->
  
  <defs>
    <style class="style-fonts">
      @font-face {
        font-family: "Virgil";
        src: url("https://excalidraw.com/Virgil.woff2");
      }
      @font-face {
        font-family: "Cascadia";
        src: url("https://excalidraw.com/Cascadia.woff2");
      }
    </style>
  </defs>
  <g stroke-linecap="round" transform="translate(10 20.255674798867688) rotate(0 97.08705476261355 97.08705476261355)"><path d="M-1.76 1.69 C74.8 -0.64, 153.14 -0.05, 192.59 1.65 M-0.89 0.85 C61.71 1.02, 123.8 1.58, 194.02 0.87 M193.73 1.42 C194.31 72.45, 191.61 146.68, 193.17 192.5 M193.91 -0.26 C193.33 48.58, 192.99 96.17, 194.93 194.85 M193.79 193.27 C125.84 192.66, 58.25 193.48, 0.25 193.99 M194.21 194.55 C124.65 192.3, 54.99 192.02, 0.18 193.88 M-0.08 193.15 C1.38 150.3, -1.41 107.42, -0.74 0.94 M0.13 193.89 C-2.86 125.25, -2.54 56.38, -0.85 -0.07" stroke="#000000" stroke-width="1" fill="none"></path></g><g transform="translate(85.08705476261343 104.84272956148124) rotate(0 22 12.5)"><text x="22" y="18" font-family="Virgil, Segoe UI Emoji" font-size="20px" fill="#000000" text-anchor="middle" style="white-space: pre;" direction="ltr">DAC</text></g><g stroke-linecap="round" transform="translate(338.8653052170216 19.571963145609743) rotate(0 97.08705476261355 97.08705476261352)"><path d="M1.29 0.14 C41.57 -0.48, 80.76 -0.37, 195.1 1.03 M0.54 -0.71 C60.98 0.59, 123.6 1.35, 195.08 0.26 M194.74 -0.98 C195.51 51.58, 193.98 102.39, 194.01 193.12 M195.15 0.7 C192.97 71.75, 191.89 145.84, 194.26 195.01 M194.08 194.16 C145.36 194.15, 100.07 194.42, -1.89 194.22 M194.37 194.1 C125.3 196.01, 55.54 196.29, 0.64 194.44 M0.8 195.64 C0.12 129.58, -0.28 60.53, 0.55 -0.69 M-0.64 194.6 C1.54 147.59, 1.32 100.79, 0.37 0.37" stroke="#000000" stroke-width="1" fill="none"></path></g><g transform="translate(366.9523599796353 104.15901790822329) rotate(0 69 12.5)"><text x="69" y="18" font-family="Virgil, Segoe UI Emoji" font-size="20px" fill="#000000" text-anchor="middle" style="white-space: pre;" direction="ltr">Tiefpassfilter</text></g><g stroke-linecap="round" transform="translate(664.9957638210124 16.83711653257842) rotate(0 97.08705476261355 97.08705476261352)"><path d="M-0.28 -1.04 C76.68 -2.75, 151.15 -0.77, 193.16 -1.46 M0.44 -0.36 C69.89 1.42, 138.65 0.28, 193.37 0.28 M194.44 1.67 C194.76 66.63, 194.2 134.07, 195.8 192.22 M193.75 0.16 C194.61 69.43, 194.76 140.26, 195.08 194.64 M194.59 194.25 C116.91 193.86, 39.54 194.46, -1.43 193.37 M193.61 195.09 C139.31 192.16, 85.07 193.78, -0.39 194.27 M1.46 193.27 C0.1 115.72, 1.54 40.65, 0.9 0.98 M-0.34 193.9 C-0.85 121.86, -0.86 47.18, 0.33 0.66" stroke="#000000" stroke-width="1" fill="none"></path></g><g transform="translate(677.582818583626 101.42417129519197) rotate(0 84.5 12.5)"><text x="84.5" y="18" font-family="Virgil, Segoe UI Emoji" font-size="20px" fill="#000000" text-anchor="middle" style="white-space: pre;" direction="ltr">Strom-Verstärker</text></g><g stroke-linecap="round"><g transform="translate(203.4903978719692 113.92417129519197) rotate(0 69.18645964741063 1.32383203288461)"><path d="M1.38 -0.46 C43.98 0.89, 89.01 0.5, 137.13 3.1 M0.79 0.62 C29.55 1.19, 58.13 0.61, 137.58 0.9" stroke="#000000" stroke-width="1" fill="none"></path></g></g><mask></mask><g stroke-linecap="round"><g transform="translate(534.4068380487645 115.29159460170769) rotate(0 65.53162154410688 1.6334820597590465)"><path d="M0.42 0.28 C47.19 0.98, 93.15 -1.35, 129.33 3 M0.44 0.39 C26.18 0.96, 53.71 0.85, 130.65 0.86" stroke="#000000" stroke-width="1" fill="none"></path></g></g><mask></mask><g stroke-linecap="round" transform="translate(1014.3724186357697 10) rotate(0 97.08705476261343 97.08705476261352)"><path d="M-1.15 1.56 C70.97 -0.92, 140.4 -2.38, 193.3 1.1 M-0.25 -0.03 C41.31 -0.35, 84.78 -1.98, 193.45 0.17 M194.25 1.11 C193.51 66.92, 194.7 137.68, 192.39 195.1 M194.6 -0.31 C196.25 77.81, 196.14 154.83, 195.16 194.57 M195.96 193.78 C123.79 194.32, 51.34 191, -1.61 194.82 M195.09 194.61 C121.51 193.87, 48.56 192.58, 0.16 194.14 M1.28 194.43 C1.21 129.98, 0.88 65.9, 0.03 -1.47 M0.59 194.75 C0.7 127.4, 1.46 60.36, -0.71 0.02" stroke="#000000" stroke-width="1" fill="none"></path></g><g transform="translate(1045.459473398383 94.58705476261355) rotate(0 66 12.5)"><text x="66" y="18" font-family="Virgil, Segoe UI Emoji" font-size="20px" fill="#000000" text-anchor="middle" style="white-space: pre;" direction="ltr">Lautsprächer</text></g><g stroke-linecap="round"><g transform="translate(859.1698733462392 115.29159460170769) rotate(0 78.1201899088644 -2.2186031927354577)"><path d="M-0.64 -1.24 C49.75 0.25, 101.95 -2.29, 155.59 -3.65 M-0.64 -0.88 C47.04 -2.81, 93.06 -1.85, 156.88 -2.75" stroke="#000000" stroke-width="1" fill="none"></path></g></g><mask></mask></svg>